<svg width="22" height="27" viewBox="0 0 22 27" xmlns="http://www.w3.org/2000/svg"><title>mac7</title><path d="M15.943 0h.188c.15 1.885-.56 3.294-1.42 4.314-.847 1.013-2.006 1.996-3.88 1.847-.125-1.857.586-3.16 1.447-4.18.8-.947 2.264-1.79 3.667-1.98zm5.675 19.623v.053c-.527 1.618-1.278 3.004-2.195 4.29-.838 1.17-1.864 2.74-3.695 2.74-1.583 0-2.635-1.03-4.257-1.06-1.714-.028-2.657.863-4.226 1.088H6.71c-1.153-.17-2.083-1.095-2.76-1.928-2-2.463-3.542-5.644-3.83-9.716v-1.196c.122-2.913 1.518-5.282 3.375-6.43.98-.61 2.326-1.13 3.825-.898.643.1 1.3.324 1.875.544.545.213 1.227.59 1.873.57.438-.013.873-.244 1.315-.408 1.292-.473 2.558-1.015 4.228-.76 2.01.307 3.433 1.21 4.313 2.606-1.697 1.095-3.04 2.746-2.81 5.564.204 2.56 1.672 4.058 3.506 4.94z" fill="#444C51" fill-rule="evenodd"/></svg>