<svg width="84" height="30" viewBox="0 0 84 30" xmlns="http://www.w3.org/2000/svg"><title>bitpay</title><path d="M83.5 7.487h-4.344L76.642 18.03l-.352 1.448c-.243.066-.485.132-.728.176-.44.087-.904.13-1.39.13-.55 0-.99-.087-1.322-.24-.31-.154-.55-.373-.684-.68-.132-.285-.176-.635-.154-1.03.022-.395.11-.833.22-1.272l1.323-5.48.86-3.64h-4.432l-2.006 8.42c-.243 1.007-.375 1.972-.42 2.893-.043.92.11 1.71.42 2.433.308.702.86 1.25 1.61 1.666.75.417 1.83.614 3.197.614.948 0 1.786-.088 2.49-.24.023 0 .067-.023.09-.023-.2.877-.596 1.578-1.213 2.126-.64.55-1.56.84-2.8.84-.53 0-1.01-.02-1.45-.08l-.86 3.58c.58.07 1.22.11 1.92.11 1.32 0 2.47-.15 3.46-.44 1-.3 1.83-.74 2.56-1.353.71-.614 1.3-1.38 1.79-2.28.49-.92.86-1.995 1.15-3.266l3-12.54.6-2.39zm-18.19 9.01c-.266 1.096-.354 2.214-.244 3.31.11 1.118.55 2.806.97 3.66h-4.19c-.506-.854-.484-1.27-.595-1.534-.55.44-1.14.812-1.8 1.097-.66.285-1.39.438-2.22.438-.97 0-1.81-.175-2.49-.504-.68-.33-1.26-.79-1.7-1.36-.44-.57-.75-1.227-.94-1.994-.2-.768-.284-1.58-.284-2.456 0-1.337.243-2.586.706-3.77.48-1.184 1.14-2.214 1.98-3.09.838-.878 2.89-2.83 6.24-2.83h6.726l-2.14 9.033zm-3.066-5.37c-2.03 0-2.404 0-3.242.415-.595.307-1.08.768-1.5 1.294-.418.526-.77 1.14-1.013 1.84-.25.703-.38 1.426-.38 2.17 0 .922.15 1.668.46 2.216.31.548.88.81 1.72.81.44 0 .86-.087 1.21-.262.35-.176.75-.46 1.14-.877.04-.482.11-.987.2-1.513.08-.526.19-1.03.28-1.47l1.1-4.624zM50.6 13.822c0 1.425-.24 2.72-.704 3.902-.463 1.184-1.125 2.193-1.963 3.048-.838.855-1.83 1.512-3 1.995-1.167.482-2.424.723-3.79.723-.663 0-1.324-.066-2.008-.175l-1.323 5.283h-4.344l5.05-21.09h5.8c1.102 0 2.05.176 2.82.505.795.33 1.435.79 1.964 1.36.507.57.882 1.25 1.124 2.016.265.74.375 1.55.375 2.43zm-10.65 5.985c.332.088.75.11 1.236.11.772 0 1.455-.132 2.095-.417.62-.285 1.17-.68 1.61-1.184.44-.504.78-1.118 1.04-1.82.24-.7.38-1.49.38-2.345 0-.83-.17-1.55-.55-2.12-.37-.59-1.01-.9-1.94-.9H42.1l-2.14 8.68zm-9.128 0c-.55 0-.992-.088-1.323-.24-.31-.155-.56-.374-.69-.68-.13-.286-.18-.636-.16-1.03.02-.396.11-.834.22-1.273l1.32-5.48h4.94l.9-3.64h-4.96l1.15-4.604-4.63.727-2.94 12.32c-.243 1.01-.375 1.974-.42 2.895-.044.92.11 1.71.42 2.433.31.7.86 1.25 1.61 1.666.75.42 1.83.62 3.196.62.947 0 1.785-.09 2.49-.24.065-.02.175-.04.24-.06l.906-3.75c-.31.11-.62.18-.906.22-.44.09-.903.13-1.39.13zM19.775 7.487L15.94 23.49h4.342l3.815-16.003h-4.322zm4.785-1.842l.662-2.784h-4.344l-.662 2.79h4.344zM10.16 7.51c.928 0 1.743.174 2.427.503.684.33 1.235.767 1.698 1.337.44.57.772 1.228.992 1.973.22.745.33 1.557.33 2.433 0 1.338-.242 2.587-.75 3.793-.506 1.18-1.168 2.23-2.027 3.11-.86.87-1.875 1.58-3.043 2.08-1.17.5-2.426.76-3.793.76-.176 0-.485 0-.926-.02-.44 0-.948-.05-1.5-.14-.573-.09-1.168-.2-1.786-.35-.64-.16-1.234-.38-1.786-.64l5.05-21.09 4.52-.7L7.78 8.05c.397-.175.75-.306 1.147-.394.375-.11.793-.15 1.234-.15zM6.37 19.916c.682 0 1.322-.154 1.917-.505.596-.32 1.125-.76 1.566-1.31.44-.55.794-1.18 1.036-1.86.24-.7.37-1.42.37-2.17 0-.92-.16-1.64-.47-2.17-.31-.52-.95-.77-1.79-.77-.27 0-.55.02-.99.13-.44.09-.82.31-1.17.62l-1.88 7.95c.57.09.75.11.9.11.11-.02.28-.02.5-.02z" fill="#3A3A3A" fill-rule="evenodd"/></svg>