<svg width="95" height="33" viewBox="0 0 95 33" xmlns="http://www.w3.org/2000/svg"><title>Blocktrail</title><g fill="#3A3A3A" fill-rule="evenodd"><path d="M.5 32.726h33.665V.24H.5v32.486zM25.956 20.32c0 2.816-2.3 5.12-5.11 5.12H16.14v-3.124l3.535.003c1.245 0 2.263-1.03 2.263-2.27s-1.018-2.27-2.263-2.27c0 0-6.457 0-6.52.01v7.64H9.743V14.69l9.518.005c1.15 0 2.09-.94 2.09-2.09s-.94-2.092-2.08-2.092c0 0-6.03.002-9.51.005V7.38h10.09c2.81 0 5.11 2.315 5.11 5.145 0 1.34-.51 2.564-1.35 3.482 1.42.912 2.37 2.507 2.37 4.314zm10.73-7.608h3.044c.35 0 .664.05.942.148.277.1.513.235.706.406.194.173.342.374.444.604.102.23.153.474.153.73 0 .315-.07.613-.208.895-.14.282-.347.53-.624.74.445.206.767.47.964.797.197.325.296.675.296 1.048 0 .307-.064.595-.192.862-.12.267-.3.503-.52.708-.21.205-.47.366-.75.483-.28.117-.57.175-.88.175h-3.37v-7.596zm1.28 3.02h1.59c.174 0 .334-.03.48-.083.147-.06.27-.13.378-.23.106-.1.188-.21.247-.33.06-.13.09-.26.09-.4 0-.26-.08-.47-.25-.63-.17-.17-.44-.25-.81-.25h-1.72v1.91zm0 3.468h1.775c.16 0 .33-.024.49-.072.16-.047.31-.117.44-.208.13-.092.24-.21.32-.357.08-.146.12-.318.12-.516 0-.336-.14-.626-.43-.867-.29-.242-.69-.362-1.21-.362h-1.49V19.2zm6.146-6.488V19.2h3.604v1.108H42.82v-7.596h1.292M54.76 16.52c0 .587-.078 1.123-.23 1.61-.154.486-.38.905-.675 1.256-.295.35-.66.624-1.095.818-.435.194-.93.29-1.484.29-.556 0-1.047-.096-1.474-.29-.427-.194-.79-.467-1.084-.818-.296-.35-.52-.77-.674-1.257-.153-.49-.23-1.03-.23-1.61 0-.59.077-1.12.23-1.61.153-.49.378-.91.674-1.26.295-.35.657-.63 1.084-.83.427-.2.918-.3 1.474-.3.554 0 1.05.1 1.484.29.434.2.8.47 1.095.82.296.35.52.77.674 1.256.15.485.23 1.02.23 1.61zm-1.283 0c0-.453-.056-.86-.17-1.217-.113-.36-.268-.66-.465-.906-.197-.245-.43-.433-.7-.565-.27-.132-.56-.198-.866-.198-.307 0-.594.066-.86.198-.267.132-.497.32-.69.565-.194.245-.347.547-.46.906-.114.358-.17.764-.17 1.218 0 .46.056.86.17 1.22.113.36.266.66.46.91.193.25.423.44.69.57.266.14.553.2.86.2.306 0 .595-.06.865-.2.27-.13.51-.32.71-.57.2-.25.35-.55.47-.9s.17-.76.17-1.21zm3.27 1.23c.128.38.294.696.5.945.203.25.435.433.694.554.26.12.53.18.8.18.28 0 .53-.06.75-.17.23-.12.42-.27.59-.45s.32-.4.42-.64c.11-.24.19-.49.24-.74h1.32c-.08.43-.21.83-.39 1.2-.18.37-.41.7-.69.97-.28.28-.6.5-.98.66-.37.16-.79.24-1.26.24-.52 0-1-.09-1.43-.28-.43-.19-.79-.46-1.09-.81-.3-.35-.53-.78-.69-1.29-.16-.51-.24-1.09-.24-1.74 0-.5.08-.98.236-1.45.16-.47.387-.89.68-1.25.298-.36.66-.657 1.087-.87.43-.22.92-.33 1.466-.33.467 0 .883.06 1.25.2.363.133.685.32.96.56.28.24.51.52.7.85.19.33.34.69.45 1.08h-1.33c-.19-.55-.45-.95-.78-1.21-.334-.27-.75-.4-1.256-.4-.32 0-.614.074-.877.23-.264.152-.49.36-.686.613-.19.254-.34.554-.45.9-.1.342-.152.7-.152 1.073 0 .514.06.96.19 1.34zm7.05-5.038v3.27l1.642-1.64 1.62-1.63h1.67l-3.07 3.063c.24.358.49.73.76 1.114l.8 1.15.8 1.16.75 1.1h-1.54l-2.47-3.65-.99.97v2.67H62.5V12.7h1.292"/><path d="M74.63 12.712v1.11h-2.377v6.486H70.97V13.82h-2.376v-1.108h6.036m5.882 2.25c0 .323-.065.634-.197.934-.13.3-.332.56-.602.78.277.153.465.367.564.64.098.275.148.555.148.84v1.1c0 .137.034.3.104.48.06.185.15.375.26.572H79.4c-.117-.182-.19-.367-.214-.554-.025-.187-.038-.342-.038-.467v-1.14c0-.11-.02-.22-.056-.33-.037-.11-.098-.21-.18-.297-.086-.088-.195-.16-.33-.214-.135-.055-.3-.082-.5-.082H76.18v3.084H74.9v-7.596h3.186c.394 0 .74.066 1.04.198.3.13.552.305.756.52.204.217.36.46.466.726.105.267.158.536.158.806zm-4.327 1.175h1.906c.16 0 .3-.03.44-.093.14-.062.26-.147.36-.253.11-.1.19-.23.25-.37.06-.14.1-.3.1-.46 0-.33-.1-.6-.31-.81-.21-.21-.48-.32-.82-.32H76.2v2.32z"/><path d="M84.763 12.712l2.76 7.596h-1.347l-.8-2.206h-2.684l-.788 2.206h-1.36l2.795-7.596h1.42zm-.723 1.69l-.954 2.613h1.896l-.942-2.612zm3.604-1.69h1.28v7.596h-1.28v-7.596zm3.132 0V19.2h3.604v1.108h-4.896v-7.596h1.292"/></g></svg>