<svg width="63" height="34" viewBox="0 0 63 34" xmlns="http://www.w3.org/2000/svg"><title>Group 2</title><path d="M0 2.662v15.08h.016c.28 4.754 4.203 8.523 9 8.523 4.98 0 9.015-4.06 9.015-9.07 0-5.01-4.032-9.07-9.01-9.07-1.897 0-3.655.59-5.107 1.594V2.66C3.913 1.574 3.04.693 1.96.693S0 1.575 0 2.663zm9.016 19.67c2.82 0 5.105-2.3 5.105-5.137 0-2.836-2.282-5.136-5.1-5.136-2.82 0-5.107 2.3-5.107 5.132 0 2.836 2.287 5.136 5.107 5.136zm25.85 3.933c4.98 0 9.017-4.06 9.017-9.07 0-5.01-4.037-9.07-9.016-9.07-4.98 0-9.015 4.06-9.015 9.07 0 5.01 4.036 9.07 9.015 9.07zm0-3.934c2.82 0 5.106-2.3 5.106-5.132 0-2.836-2.285-5.136-5.105-5.136-2.82 0-5.105 2.3-5.105 5.136 0 2.836 2.286 5.136 5.105 5.136zM63 31.73V16.65h-.016c-.28-4.754-4.203-8.522-9-8.522-4.98 0-9.015 4.06-9.015 9.07 0 5.008 4.032 9.07 9.01 9.07 1.897 0 3.655-.59 5.107-1.595v7.06c0 1.085.874 1.966 1.954 1.966S63 32.814 63 31.726zm-9.016-9.397c2.82 0 5.106-2.3 5.106-5.134 0-2.838-2.286-5.138-5.106-5.138s-5.105 2.3-5.105 5.135c0 2.836 2.282 5.136 5.1 5.136zm-30.1 2.186h.013V2.66c0-1.086-.876-1.967-1.956-1.967-1.075 0-1.95.88-1.95 1.967v21.854H20c.107.984.936 1.75 1.942 1.75 1.008 0 1.837-.766 1.945-1.75z" fill-rule="evenodd"/></svg>