<svg width="290" height="152" viewBox="0 0 290 152" xmlns="http://www.w3.org/2000/svg"><title>Bloq</title><path d="M0 9v69h.074C1.367 99.756 19.42 117 41.5 117 64.42 117 83 98.42 83 75.5S64.42 34 41.5 34c-8.724 0-16.82 2.692-23.5 7.29V9c0-4.97-4.03-9-9-9S0 4.03 0 9zm41.5 90C54.48 99 65 88.48 65 75.5S54.48 52 41.5 52 18 62.52 18 75.5 28.52 99 41.5 99zm119 18c22.92 0 41.5-18.58 41.5-41.5S183.42 34 160.5 34 119 52.58 119 75.5s18.58 41.5 41.5 41.5zm0-18c12.98 0 23.5-10.52 23.5-23.5S173.48 52 160.5 52 137 62.52 137 75.5 147.52 99 160.5 99zM290 142V73h-.074c-1.293-21.756-19.346-39-41.426-39-22.92 0-41.5 18.58-41.5 41.5s18.58 41.5 41.5 41.5c8.724 0 16.82-2.692 23.5-7.29V142c0 4.97 4.03 9 9 9s9-4.03 9-9zm-41.5-43c12.98 0 23.5-10.52 23.5-23.5S261.48 52 248.5 52 225 62.52 225 75.5 235.52 99 248.5 99zm-138.555 10H110V9c0-4.97-4.03-9-9-9s-9 4.03-9 9v100h.055c.497 4.5 4.312 8 8.945 8s8.448-3.5 8.945-8z" fill="#FFF" fill-rule="evenodd"/></svg>