<svg width="83" height="37" viewBox="0 0 83 37" xmlns="http://www.w3.org/2000/svg"><title>Copay</title><g fill="#3A3A3A" fill-rule="evenodd"><path d="M59.89 14.078c-.543 1.095-1.18 2.064-1.916 2.91-.735.844-1.405 1.3-2.01 1.365-.56.06-.88-.27-.957-.99-.18-1.677.338-3.657 1.553-5.944 1.216-2.29 2.594-3.52 4.133-3.68.86-.1 1.45.22 1.763.94-.51 1.16-1.367 2.96-2.566 5.39zm-18.552 7.765c-.676.073-1.072-.437-1.19-1.53-.118-1.095.266-2.56 1.154-4.4.886-1.837 1.767-3.18 2.643-4.03.533-.527 1.044-.818 1.534-.87.13-.016.24-.016.31 0 .36.055.57.373.63.956.14 1.34-.37 3.3-1.53 5.85s-2.36 3.89-3.57 4.02zm-8.893-8.996c-.583.063-1.024.3-1.32.708-.3.41-.415.927-.347 1.555.11 1.024.6 1.832 1.464 2.42-.445 1.344-1.036 2.59-1.773 3.74-.74 1.152-1.61 1.782-2.61 1.89-1.22.062-1.91-.605-2.06-2.002-.15-1.396.1-3 .75-4.814 1.2-3.285 2.6-5.014 4.21-5.188 1.02-.112 1.65.445 1.88 1.668l-.21.023zm49.07-8.208c-.583.06-1.206.2-1.867.41-.205.07-.397.19-.578.38-.18.18-.323.33-.43.45-.103.11-.217.33-.337.63-.12.3-.206.54-.26.71-.05.17-.14.48-.268.94l-.293 1.05c-.52 1.75-1.34 3.53-2.466 5.35-1.126 1.81-2.107 2.77-2.947 2.86-.45.04-.71-.33-.8-1.12-.16-1.49.14-3.37.89-5.64.75-2.27 1.57-3.88 2.43-4.82.12-.16.18-.28.17-.38-.01-.09-.06-.13-.16-.12-1.24.13-2.2.39-2.87.77-.68.38-1.3 1.13-1.85 2.24-.43.87-.8 1.96-1.11 3.27-1.56 3.77-2.98 5.72-4.26 5.86-.42.05-.66-.23-.73-.84-.13-1.16.23-3.08 1.08-5.75.84-2.67 1.61-4.36 2.32-5.07l-.35.04-1.75.15c-.47.05-.95.3-1.44.76-.5.45-.84.96-1.04 1.52-.29-.72-.78-1.22-1.47-1.48s-1.4-.35-2.15-.27c-1.59.17-2.98.92-4.18 2.232-1.21 1.32-2.07 2.853-2.6 4.605l-.03.1-.27.584c-.59 1.3-1.06 2.22-1.4 2.78-.62 1.01-1.39 1.95-2.3 2.82-.91.875-1.84 1.364-2.8 1.47l-.28.03c1.41-1.19 2.57-2.775 3.49-4.757.92-1.987 1.28-3.86 1.09-5.63-.23-2.14-1.13-3.13-2.69-2.96-1.66.18-3.41 1.83-5.27 4.95.91-2.455 1.68-3.95 2.31-4.49l-1.05.12c-1.38.15-2.31.53-2.81 1.15-.25.332-.59 1.252-1.03 2.76-.16.54-.37 1.33-.64 2.375-.82 1.89-1.8 2.9-2.94 3.02-.66.07-1.18-.12-1.59-.57.357-1.284.475-2.485.355-3.6-.317-2.936-1.86-4.25-4.636-3.95-1.66.18-3.097.9-4.317 2.16-.736.76-1.338 1.59-1.81 2.48l.01-.028c-1.12 2.11-3.06 5.78-5.5 7.88-2.435 2.1-4.833 3.28-7.19 3.536-3.775.404-5.885-1.46-6.33-5.6-.29-2.68.12-5.39 1.23-8.137 1.112-2.74 2.71-5.05 4.8-6.923 2.08-1.87 4.312-2.94 6.69-3.2 1.797-.19 2.767.38 2.91 1.73.1.89-.205 1.68-.906 2.4-.7.71-1.508 1.113-2.417 1.212-.324.04-.62.02-.89-.04-.234.424-.334.81-.3 1.16.04.35.235.62.585.803.35.187.78.25 1.294.198 1.1-.12 2.12-.56 3.06-1.32.945-.76 1.55-1.64 1.82-2.633.133-.53.18-1.003.13-1.42-.12-1.14-.79-2.015-2.015-2.625-1.23-.6-2.91-.79-5.05-.56C13.37.88 11.255 1.7 9.18 3.1 7.1 4.5 5.42 6.184 4.15 8.15c-1.274 1.96-2.23 4.04-2.87 6.24-.633 2.2-.85 4.26-.64 6.19.55 5.1 3.56 7.35 9.04 6.755 2.358-.255 4.617-.965 6.78-2.13 2.16-1.163 3.902-2.6 5.23-4.31.212-.275.4-.54.58-.8.01.2.02.394.04.587.16 1.45.64 2.5 1.45 3.122.81.63 1.8.88 2.965.754 1.82-.195 3.255-.83 4.305-1.91 1.05-1.08 1.91-2.49 2.57-4.236.61.38 1.3.53 2.08.444.68-.07 1.36-.42 2.06-1.044-.34 1.4-.73 3.03-1.16 4.89-1.28 5.42-2.18 8.61-2.69 9.56l1.68-.18c.466-.05.845-.15 1.135-.3.29-.15.533-.44.734-.87.2-.436.46-1.365.78-2.79l1.3-6.32c.4 1.11 1.72 1.545 3.96 1.3 2.24-.24 4.1-1.16 5.57-2.755.91-.986 1.75-2.18 2.53-3.59-.02.57 0 1.13.06 1.683.23 2.14 1.124 3.13 2.69 2.96 2.26-.244 4.47-2.86 6.62-7.85-.34 1.45-.43 2.896-.28 4.34.2 1.93.94 2.83 2.2 2.69 1.62-.173 3.38-2.07 5.29-5.69-.1.865-.12 1.58-.07 2.14.09.97.35 1.68.78 2.14.424.46.95.66 1.564.59.62-.065 1.142-.192 1.582-.38.44-.19 1.025-.67 1.755-1.444s1.57-1.91 2.52-3.4l-1.42 5.53c-.92 3.515-2.32 5.37-4.21 5.58-.49.05-.91-.04-1.25-.274-.35-.234-.54-.57-.59-1.014-.09-.84.064-1.35.47-1.535-.145-.22-.366-.41-.666-.565-.3-.153-.65-.21-1.06-.17-.41.05-.75.29-1.02.73s-.376.92-.32 1.43c.11.98.6 1.65 1.475 2.016.873.366 1.894.486 3.06.36 1.16-.13 2.29-.54 3.37-1.23 1.08-.695 1.95-1.56 2.62-2.6.66-1.035 1.2-2.4 1.61-4.09.15-.56.34-1.35.57-2.373.23-1.02.38-1.67.45-1.93s.24-1.02.53-2.27c.29-1.24.66-2.63 1.11-4.16.556-1.82 1.17-3 1.85-3.52l-1.43.16z"/><path d="M33.777 26.502c-7.94 1.36-15.56 3.274-20.94 5.483-2.242.92-2.81 2.757-2.103 4.49 9.137-4.174 13.664-5.35 20.333-7.013 1.183-.295 2.125-1.184 2.507-2.344.07-.208.137-.416.203-.616m29.718-.906c.236-.997-.035-1.036-1.047-1.184-5.54-.81-11.636-.746-18.97.827-1.235.26-2.25 1.13-2.445 2.38 0 0 9.213-3.04 22.462-2.03"/></g></svg>