<svg width="128" height="28" viewBox="0 0 128 28" xmlns="http://www.w3.org/2000/svg"><title>counterparty</title><g fill="#3A3A3A" fill-rule="evenodd"><path d="M15.423.715c1.098 1.178 2.3 2.264 3.395 3.448.225.254.314.592.447.896-.42 1.063-3.198 3.89-4.05 3.9-1.16-.104-1.526-1.6-2.637-1.818-.92-.053-1.842-.036-2.764-.013-.658.017-2.627 2.002-2.96 2.673-.132.93-.04 1.88-.06 2.82-.068.823 2.1 2.96 2.777 3.184.99.06 1.98.035 2.97.014.39.01.678-.31.948-.556 4.785-4.86 9.61-9.693 14.395-14.552 2.843-.08 5.69-.042 8.53-.02 2.016 1.997 4.01 4.016 6.004 6.034.303.253.42.64.388 1.03-.003 2.53.01 5.06 0 7.594.05.5-.36.84-.66 1.17-1.503 1.486-2.98 3-4.475 4.496-.4.377-.746.85-1.26 1.077-1.807.105-3.623-.007-5.434.046-.558-.01-1.08.45-1.143 1.01-.103 1.102.045 2.215-.063 3.32-.173.52-.644 1.05-1.234.994-1.266.005-2.53.007-3.797 0-.72.034-1.3-.735-1.265-1.425-.004-2.46-.002-4.92-.002-7.38-.065-.81 2.995-3.725 4.033-4.545.977-.55 1.697.556 2.316 1.145.796.974 2.167.444 3.242.58.965.183 3.14-2.12 3.39-2.72.115-.73.148-3.292-.227-3.69-.55-.644-1.18-1.21-1.77-1.812-.29-.31-2.863-.53-3.73-.474-.36.03-.637.274-.88.52-4.555 4.62-9.14 9.21-13.69 13.835-.307.302-.658.65-1.12.625-2.57.018-5.145.005-7.716.003-.42.053-.77-.197-1.05-.48-1.705-1.704-3.39-3.427-5.1-5.123-.303-.333-.72-.673-.664-1.178-.005-2.6-.01-5.196.003-7.79C.47 7.052.9 6.73 1.2 6.4 3.1 4.507 4.98 2.583 6.892.697c2.843-.024 5.688-.062 8.53.018zm39.493 15.718c-.687 0-1.312-.112-1.877-.336-.57-.224-1.05-.552-1.46-.98-.404-.43-.717-.96-.94-1.59-.22-.63-.33-1.35-.33-2.163 0-.81.125-1.533.375-2.163.25-.63.584-1.153 1.01-1.582.42-.43.915-.756 1.48-.98.564-.225 1.166-.336 1.806-.336.405 0 .77.028 1.094.084.324.056.606.122.846.196.24.072.436.15.586.222.15.076.255.132.31.168l-.393 1.12c-.085-.054-.207-.115-.367-.18-.16-.067-.34-.13-.542-.196-.203-.066-.424-.118-.664-.16-.24-.043-.48-.063-.725-.063-.518 0-.983.09-1.397.27-.413.176-.766.432-1.058.77-.29.335-.515.743-.67 1.224-.155.48-.233 1.02-.233 1.617 0 .578.066 1.107.203 1.58.136.478.34.886.614 1.227.272.34.613.605 1.023.79.41.19.888.28 1.434.28.63 0 1.155-.065 1.57-.194.412-.13.723-.245.93-.35l.352 1.12c-.064.047-.182.107-.35.176-.17.07-.38.138-.633.205-.255.064-.55.12-.89.168-.34.048-.706.07-1.1.07m10.017-3.854c0 .58-.084 1.103-.254 1.57-.166.465-.404.867-.71 1.203-.305.336-.67.596-1.093.777-.423.186-.885.276-1.383.276-.5 0-.96-.09-1.383-.272-.423-.18-.79-.44-1.094-.776-.305-.337-.543-.74-.712-1.204-.17-.466-.254-.988-.254-1.568 0-.568.082-1.09.252-1.56.17-.47.407-.875.712-1.212.306-.336.67-.594 1.094-.777.42-.18.882-.272 1.38-.272.5 0 .96.092 1.384.273.423.184.788.44 1.094.778.304.337.542.74.71 1.212.17.47.255.99.255 1.56zm-1.37 0c0-.82-.185-1.47-.556-1.95-.374-.48-.88-.72-1.52-.72s-1.143.24-1.516.72c-.372.48-.556 1.132-.556 1.952 0 .822.183 1.473.555 1.954.374.48.878.72 1.518.72s1.146-.24 1.518-.72c.37-.48.556-1.13.556-1.953zm8.355 3.43c-.3.077-.7.156-1.193.24-.494.085-1.067.126-1.715.126-.566 0-1.04-.08-1.425-.244-.387-.16-.697-.39-.933-.69-.235-.3-.404-.65-.51-1.06-.102-.402-.154-.852-.154-1.35v-4.09h1.314v3.807c0 .89.143 1.522.425 1.904.28.382.753.574 1.422.574.14 0 .288-.004.44-.013.15-.01.29-.02.423-.038.133-.013.25-.03.36-.042.11-.012.185-.03.232-.05v-6.15h1.312v7.07m1.553-6.86c.3-.076.7-.155 1.2-.24.5-.083 1.07-.126 1.72-.126.584 0 1.07.08 1.454.243.385.163.693.392.924.686.23.29.392.642.49 1.052.092.412.14.864.14 1.36v4.087H78.09v-3.81c0-.447-.03-.83-.09-1.147-.06-.318-.164-.574-.305-.77-.14-.196-.33-.337-.56-.426-.236-.09-.528-.135-.876-.135-.14 0-.288.006-.438.014-.15.01-.294.02-.43.034-.138.017-.26.03-.368.05-.11.02-.187.036-.234.04v6.15h-1.312V9.15m8.62-.21h2.78v1.09h-2.78v3.36c0 .366.03.666.086.905.055.238.14.425.253.56.11.135.254.23.423.287.17.055.367.083.593.083.393 0 .71-.043.95-.132.24-.09.406-.152.5-.19l.255 1.078c-.132.07-.362.15-.693.25-.326.095-.702.144-1.126.144-.5 0-.91-.06-1.235-.187-.324-.127-.585-.315-.782-.568-.198-.25-.338-.565-.416-.93-.08-.37-.12-.8-.12-1.284v-6.49l1.313-.223v2.25m3.19 3.657c0-.646.093-1.21.28-1.69.19-.48.44-.88.75-1.2.31-.317.667-.553 1.073-.712.403-.16.817-.24 1.24-.24.988 0 1.745.307 2.272.918.527.61.79 1.54.79 2.793v.215c0 .087-.004.17-.014.245h-5.02c.054.756.275 1.33.66 1.72.387.394.99.59 1.807.59.46 0 .85-.04 1.164-.12.316-.08.554-.155.714-.23l.18 1.09c-.16.086-.44.175-.84.267-.4.092-.85.14-1.36.14-.64 0-1.19-.096-1.66-.288-.463-.194-.846-.457-1.146-.79-.3-.338-.526-.738-.67-1.2-.147-.46-.22-.967-.22-1.518zm5.038-.716c.01-.587-.137-1.07-.444-1.447-.307-.38-.726-.568-1.263-.568-.3 0-.567.06-.797.174-.23.118-.427.27-.588.455-.16.185-.283.4-.374.644-.09.245-.147.49-.175.743h3.64zM95.59 8.79c.115 0 .243.008.39.02.147.017.292.036.433.058.14.023.27.046.388.07.118.023.206.045.26.064l-.223 1.13c-.105-.034-.275-.08-.515-.13s-.548-.078-.926-.078c-.244 0-.486.027-.726.077s-.4.086-.473.104v6.12H92.88V9.25c.31-.11.695-.217 1.157-.315.46-.098.978-.147 1.55-.147m8.494 3.81c0 .55-.07 1.06-.22 1.525-.142.467-.36.867-.64 1.203-.28.337-.63.598-1.034.784-.41.186-.877.28-1.404.28-.423 0-.797-.055-1.122-.167-.324-.113-.567-.22-.727-.322v2.918h-1.31v-9.65c.31-.074.7-.155 1.163-.244.464-.09 1.002-.134 1.614-.134.564 0 1.072.09 1.524.265.45.178.837.43 1.156.756.32.33.568.73.742 1.2.174.47.26 1 .26 1.59zm-1.37 0c0-.85-.21-1.505-.63-1.96-.423-.458-.99-.688-1.693-.688-.393 0-.7.015-.922.043-.222.028-.4.06-.53.098v4.598c.16.13.39.255.692.377.3.12.63.184.987.184.377 0 .7-.07.967-.205.268-.135.487-.322.656-.56.17-.24.29-.52.365-.84.077-.323.114-.67.114-1.043zm4.886-3.838c.528 0 .972.07 1.335.203.36.136.654.328.874.575.22.246.376.54.472.88.094.343.14.718.14 1.13v4.55l-.473.075c-.202.034-.43.064-.684.092-.255.028-.53.052-.826.076-.294.03-.59.04-.88.04-.414 0-.796-.04-1.144-.125-.35-.082-.65-.216-.904-.397-.254-.183-.45-.422-.593-.72-.14-.3-.21-.66-.21-1.08 0-.402.082-.746.246-1.036.163-.29.386-.522.67-.7.28-.176.61-.307.986-.392.377-.083.772-.126 1.185-.126.133 0 .27.008.41.02.14.016.274.03.403.058.13.023.24.045.333.064.094.02.16.03.198.04v-.363c0-.214-.024-.427-.07-.637-.048-.21-.13-.4-.254-.56-.122-.164-.29-.296-.5-.394-.212-.1-.49-.147-.826-.147-.435 0-.813.03-1.137.092-.326.06-.568.124-.727.19l-.155-1.08c.17-.075.453-.147.847-.217.398-.07.826-.104 1.285-.104zm.114 6.524c.31 0 .585-.007.825-.02.24-.015.44-.04.6-.078v-2.17c-.094-.047-.247-.085-.46-.12-.21-.03-.467-.048-.768-.048-.198 0-.408.015-.628.043-.224.03-.426.09-.61.18-.18.09-.334.21-.456.364-.125.154-.187.358-.187.61 0 .467.15.79.453.972.3.185.71.275 1.227.275zm6.885-6.496c.114 0 .242.007.39.02.145.016.288.035.43.057.14.023.268.046.387.07.12.023.206.045.26.064l-.224 1.13c-.104-.04-.275-.08-.515-.136-.24-.05-.547-.077-.924-.077-.247 0-.49.026-.73.076s-.396.086-.47.104v6.12h-1.314V9.25c.31-.11.7-.217 1.16-.315.46-.098.98-.147 1.55-.147m3.26.154h2.78v1.092h-2.78v3.36c0 .365.03.665.085.904.056.238.14.425.254.56.11.135.252.23.42.287.17.055.368.083.594.083.394 0 .712-.043.952-.132.24-.09.406-.152.5-.19l.254 1.078c-.13.066-.36.147-.69.245-.33.092-.706.14-1.13.14-.497 0-.91-.06-1.234-.187-.324-.127-.585-.315-.783-.568-.198-.25-.337-.564-.417-.93-.08-.37-.12-.798-.12-1.283v-6.49l1.314-.225v2.25"/><path d="M120.728 17.58c.105.048.237.092.403.133.17.043.33.063.49.063.52 0 .92-.115 1.21-.342.297-.23.56-.6.797-1.113-.594-1.12-1.147-2.302-1.658-3.56-.515-1.252-.94-2.525-1.278-3.813h1.41c.103.42.23.874.375 1.358.146.486.307.987.487 1.5.178.512.37 1.025.58 1.54.206.513.42 1.01.65 1.483.355-.98.666-1.95.93-2.91.262-.964.51-1.953.746-2.97h1.356c-.34 1.372-.715 2.69-1.13 3.955-.413 1.265-.86 2.448-1.34 3.55-.186.42-.382.78-.584 1.086-.203.3-.426.552-.67.75-.245.194-.52.34-.826.432-.307.09-.653.14-1.04.14-.102 0-.21-.007-.325-.022-.11-.013-.222-.032-.33-.056-.11-.023-.21-.05-.3-.076-.09-.026-.15-.05-.19-.07l.24-1.05"/></g></svg>