<svg width="128" height="28" viewBox="0 0 128 28" xmlns="http://www.w3.org/2000/svg"><title>Counterparty</title><g fill="#3A3A3A" fill-rule="evenodd"><path d="M15.423.715c1.098 1.178 2.3 2.264 3.395 3.448.225.254.314.592.447.896-.42 1.06-3.198 3.89-4.05 3.9-1.16-.11-1.526-1.6-2.637-1.82-.92-.06-1.842-.04-2.764-.02-.658.01-2.627 2-2.96 2.67-.132.93-.04 1.88-.06 2.82-.068.82 2.1 2.96 2.777 3.18.99.06 1.98.03 2.97.01.39.01.68-.31.95-.56C18.28 10.4 23.1 5.57 27.89.71c2.844-.08 5.69-.04 8.53-.02 2.017 1.997 4.01 4.016 6.005 6.034.303.253.42.64.388 1.03-.003 2.53.01 5.06 0 7.594.05.5-.36.84-.66 1.17-1.503 1.48-2.98 3-4.475 4.49-.4.37-.744.85-1.26 1.07-1.805.106-3.62-.006-5.432.047-.557-.01-1.08.45-1.142 1.01-.102 1.102.046 2.215-.062 3.32-.17.52-.64 1.05-1.23.994-1.263 0-2.53.01-3.794 0-.72.03-1.3-.74-1.265-1.43-.003-2.46 0-4.92 0-7.38-.066-.81 2.994-3.73 4.03-4.55.98-.55 1.7.55 2.318 1.14.8.97 2.17.44 3.24.58.97.18 3.14-2.12 3.39-2.72.12-.73.15-3.29-.22-3.69-.55-.65-1.18-1.21-1.77-1.81-.29-.31-2.86-.53-3.73-.48-.36.03-.63.27-.88.52-4.55 4.62-9.14 9.21-13.69 13.83-.3.3-.65.65-1.12.62-2.57.02-5.14.01-7.71 0-.42.05-.77-.2-1.05-.48-1.7-1.71-3.39-3.43-5.1-5.13-.3-.337-.72-.677-.66-1.18 0-2.6-.01-5.198 0-7.79-.04-.5.39-.82.69-1.15C3.1 4.5 4.98 2.58 6.9.69c2.84-.022 5.69-.06 8.53.02zm39.493 15.718c-.687 0-1.312-.112-1.877-.336-.57-.224-1.05-.552-1.46-.98-.41-.43-.72-.96-.94-1.59-.22-.63-.33-1.35-.33-2.163 0-.81.12-1.533.37-2.163.25-.63.58-1.15 1.01-1.58.42-.43.91-.75 1.48-.98.56-.22 1.16-.33 1.8-.33.4 0 .77.03 1.09.09.32.06.6.12.84.2.24.07.43.15.58.22.15.08.25.14.31.17l-.39 1.12c-.09-.05-.21-.11-.37-.18-.16-.06-.34-.13-.54-.19-.21-.07-.43-.12-.67-.16-.24-.04-.48-.06-.73-.06-.52 0-.98.09-1.4.27-.42.18-.77.43-1.06.77-.29.34-.52.75-.67 1.23-.16.48-.24 1.02-.24 1.62 0 .58.07 1.11.2 1.58.13.48.34.89.61 1.23.27.34.61.61 1.02.79.41.19.89.28 1.43.28.63 0 1.16-.06 1.57-.19.414-.13.725-.24.93-.35l.354 1.12c-.06.05-.18.11-.35.18-.17.07-.38.14-.63.21-.25.06-.55.12-.89.17-.34.05-.703.07-1.1.07m10.02-3.85c0 .58-.08 1.1-.25 1.57-.166.468-.404.87-.71 1.2-.305.34-.67.6-1.093.78-.42.188-.88.278-1.38.278-.5 0-.96-.09-1.38-.276-.42-.18-.79-.44-1.09-.773-.31-.34-.55-.74-.717-1.206-.17-.47-.253-.99-.253-1.57 0-.57.087-1.09.257-1.56s.41-.88.71-1.213c.304-.335.67-.593 1.092-.776.42-.18.88-.276 1.38-.276.5 0 .96.09 1.38.274.42.18.79.44 1.09.78.302.333.54.74.71 1.21.17.47.26.99.26 1.56zm-1.37 0c0-.82-.18-1.47-.55-1.95-.37-.48-.88-.72-1.52-.72s-1.14.24-1.516.72c-.37.48-.555 1.13-.555 1.95 0 .827.18 1.478.55 1.96.37.48.88.72 1.52.72s1.14-.24 1.515-.72c.37-.48.55-1.13.55-1.958zm8.36 3.43c-.3.08-.7.16-1.194.24-.495.088-1.07.13-1.716.13-.57 0-1.04-.08-1.427-.25-.39-.16-.7-.39-.93-.69-.24-.3-.41-.65-.51-1.06-.11-.403-.16-.853-.16-1.35V9h1.32v3.81c0 .89.14 1.52.423 1.9.28.38.76.575 1.42.575.14 0 .29-.005.44-.014.15-.01.29-.02.43-.036l.36-.046c.11-.02.18-.03.23-.05V8.94h1.31v7.07m1.55-6.86c.3-.077.7-.156 1.2-.24.5-.084 1.07-.127 1.72-.127.58 0 1.07.08 1.45.243.386.163.694.392.925.686.23.29.394.64.49 1.05.094.413.14.865.14 1.36v4.088h-1.31V12.4c0-.448-.03-.83-.09-1.148-.06-.318-.163-.574-.304-.77-.14-.196-.33-.337-.56-.426-.24-.09-.53-.135-.88-.135-.14 0-.29.01-.44.02-.15.01-.29.02-.43.04-.13.02-.26.03-.36.05-.11.02-.183.04-.23.04v6.15h-1.31V9.15m8.62-.21h2.78v1.09h-2.78v3.36c0 .366.03.666.087.905.06.238.14.425.257.56.11.135.25.23.42.287.17.055.36.083.59.083.39 0 .71-.043.95-.132.24-.09.4-.152.5-.19l.25 1.078c-.13.07-.36.15-.693.25-.32.1-.7.15-1.12.15-.5 0-.91-.06-1.23-.18-.32-.12-.58-.31-.78-.57-.2-.25-.34-.56-.41-.93-.08-.37-.12-.8-.12-1.28v-6.5l1.31-.22v2.25m3.19 3.66c0-.64.09-1.21.28-1.69.19-.48.44-.88.75-1.2.31-.31.664-.55 1.07-.71.4-.16.813-.24 1.24-.24.99 0 1.74.31 2.27.92.525.61.79 1.54.79 2.8v.22c0 .09-.006.17-.016.25h-5.02c.05.76.272 1.33.66 1.72.384.39.99.59 1.804.59.46 0 .85-.04 1.163-.12.317-.08.55-.15.71-.23l.18 1.09c-.16.09-.44.18-.84.27-.4.1-.85.14-1.36.14-.64 0-1.19-.09-1.66-.28-.46-.19-.84-.45-1.14-.79-.3-.33-.53-.73-.67-1.2-.15-.46-.22-.96-.22-1.51zm5.04-.71c.01-.58-.14-1.07-.45-1.44-.31-.38-.727-.57-1.264-.57-.3 0-.565.06-.795.18-.23.12-.423.27-.59.46-.16.18-.28.4-.37.64-.09.25-.144.49-.172.75h3.64zm5.27-3.09c.11 0 .24.01.39.02l.43.06.39.07c.12.03.21.05.26.07l-.22 1.13c-.11-.03-.28-.08-.52-.13s-.54-.08-.92-.08c-.242 0-.484.03-.724.08s-.4.09-.47.11v6.12h-1.32v-7c.31-.11.7-.21 1.16-.31.46-.1.98-.14 1.55-.14m8.494 3.81c0 .55-.07 1.06-.22 1.53-.14.47-.36.87-.64 1.207-.28.338-.63.6-1.03.785-.41.187-.877.28-1.4.28-.43 0-.8-.054-1.13-.166-.32-.114-.562-.22-.722-.323v2.92h-1.31V9.17c.31-.075.7-.156 1.16-.245.466-.09 1-.134 1.616-.134.567 0 1.075.09 1.527.27.45.18.84.43 1.158.76.32.33.57.73.74 1.2.17.47.26 1 .26 1.59zm-1.37 0c0-.85-.21-1.5-.63-1.96-.42-.46-.99-.69-1.69-.69-.395 0-.7.02-.924.05-.22.03-.4.06-.53.1v4.6c.16.13.39.26.69.38.3.12.63.19.99.19.38 0 .7-.07.97-.2s.49-.32.66-.56c.17-.24.29-.52.368-.84.072-.32.11-.67.11-1.04zm4.89-3.84c.53 0 .97.07 1.335.21.36.14.655.33.875.58.22.244.37.54.47.88.09.34.14.716.14 1.13v4.55l-.48.073c-.2.03-.43.06-.68.09-.25.026-.53.05-.822.074-.295.03-.59.04-.88.04-.415 0-.797-.04-1.145-.12-.35-.08-.65-.21-.905-.39-.26-.18-.45-.42-.6-.72-.14-.3-.21-.66-.21-1.08 0-.4.08-.74.25-1.03.16-.29.38-.52.67-.7.28-.17.61-.3.98-.39.377-.08.77-.12 1.185-.12.132 0 .27.01.41.02.14.02.273.03.402.06.13.02.24.05.33.07.1.02.16.03.2.04v-.366c0-.213-.02-.43-.07-.64-.05-.21-.13-.4-.25-.56-.12-.16-.29-.292-.5-.39-.21-.1-.49-.143-.827-.143-.435 0-.81.03-1.137.09-.322.06-.57.122-.723.19l-.156-1.08c.17-.077.45-.15.848-.22.4-.07.83-.102 1.29-.102zm.114 6.53c.31 0 .58-.003.82-.02s.44-.04.6-.08v-2.17c-.094-.04-.247-.08-.46-.12-.21-.03-.467-.042-.77-.042-.2 0-.41.01-.63.04-.22.03-.424.09-.61.18-.18.09-.33.21-.454.37s-.186.36-.186.61c0 .47.15.79.46.97.3.19.71.28 1.224.28zm6.88-6.492c.114 0 .24.004.39.02.145.013.29.03.43.054s.27.046.39.07c.12.023.205.045.26.064l-.225 1.13c-.1-.04-.27-.08-.51-.14-.24-.05-.547-.08-.924-.08-.245 0-.49.02-.73.07s-.394.08-.47.1v6.12h-1.312V9.25c.31-.11.7-.217 1.16-.315.46-.098.98-.147 1.55-.147m3.26.154h2.78v1.092h-2.78v3.36c0 .365.03.665.09.904.06.238.14.425.255.56.11.135.25.23.42.287.17.055.37.083.6.083.39 0 .71-.043.95-.132.24-.09.41-.152.5-.19l.26 1.078c-.13.066-.36.147-.69.245-.33.09-.708.14-1.13.14-.5 0-.91-.06-1.236-.19-.32-.13-.583-.32-.78-.57-.2-.25-.338-.57-.418-.93-.08-.37-.12-.8-.12-1.29V6.91l1.31-.224v2.25"/><path d="M120.728 17.58c.105.048.237.092.403.133.17.043.33.063.49.063.52 0 .92-.115 1.21-.342.3-.23.56-.6.8-1.113-.59-1.12-1.14-2.3-1.66-3.56-.51-1.25-.94-2.52-1.27-3.81h1.41c.11.42.23.88.38 1.36.15.49.31.99.49 1.5s.37 1.03.58 1.54c.21.52.42 1.01.65 1.49.36-.98.67-1.95.93-2.91.26-.96.51-1.95.75-2.97h1.36c-.34 1.37-.71 2.69-1.13 3.96-.41 1.27-.86 2.45-1.34 3.55-.19.42-.38.78-.58 1.09-.2.3-.42.56-.67.75-.24.2-.52.34-.82.44-.3.09-.65.14-1.04.14-.1 0-.21 0-.32-.02-.11-.01-.22-.03-.33-.05-.11-.02-.21-.05-.3-.07-.09-.02-.15-.05-.19-.07l.24-1.05"/></g></svg>