<svg width="87" height="37" viewBox="0 0 87 37" xmlns="http://www.w3.org/2000/svg"><title>Datt</title><g fill="#3A3A3A" fill-rule="evenodd"><text font-family="Open Sans" font-size="19" transform="translate(.5 .5)"><tspan x="48" y="24.749">Datt</tspan></text><path d="M19 .605c-1.428 0-2.588 1.15-2.588 2.566 0 1.42 1.16 2.57 2.588 2.57 1.428 0 2.588-1.15 2.588-2.563S20.428.607 19 .607zm0 17c-1.02 0-1.85.825-1.85 1.836 0 1.01.83 1.84 1.85 1.84s1.85-.823 1.85-1.833-.83-1.834-1.85-1.834zm0 16.585c-.61 0-1.112.498-1.112 1.102 0 .604.503 1.103 1.112 1.103.61 0 1.112-.5 1.112-1.103 0-.604-.503-1.103-1.112-1.103zM2.455 17.757c-1.018 0-1.85.824-1.85 1.835 0 1.01.832 1.834 1.85 1.834 1.02 0 1.85-.824 1.85-1.834 0-1.01-.83-1.835-1.85-1.835zm33.09 0c-1.02 0-1.85.824-1.85 1.835 0 1.01.83 1.834 1.85 1.834 1.018 0 1.85-.824 1.85-1.834 0-1.01-.832-1.835-1.85-1.835zM27.23 9.22c-1.228 0-2.223.988-2.223 2.208 0 1.22.995 2.206 2.224 2.206 1.23 0 2.23-.987 2.23-2.206 0-1.22-.993-2.207-2.223-2.207zm-16.684 0c-1.23 0-2.224.988-2.224 2.208 0 1.22.995 2.206 2.224 2.206 1.23 0 2.225-.987 2.225-2.206 0-1.22-.99-2.207-2.22-2.207zM27.23 26.362c-.818 0-1.486.662-1.486 1.463 0 .8.668 1.475 1.487 1.475.82 0 1.48-.662 1.48-1.475.01-.8-.653-1.463-1.473-1.463zm-16.684 0c-.82 0-1.487.662-1.487 1.463 0 .8.66 1.475 1.48 1.475s1.476-.662 1.476-1.475c.01-.8-.656-1.463-1.476-1.463z"/></g></svg>