<?xml version="1.0" encoding="utf-8"?>
<!-- Generator: Adobe Illustrator 15.0.0, SVG Export Plug-In . SVG Version: 6.00 Build 0)  -->
<!DOCTYPE svg PUBLIC "-//W3C//DTD SVG 1.1//EN" "http://www.w3.org/Graphics/SVG/1.1/DTD/svg11.dtd">
<svg version="1.1" id="Layer_1" xmlns="http://www.w3.org/2000/svg" xmlns:xlink="http://www.w3.org/1999/xlink" x="0px" y="0px"
	 width="101.427px" height="30.579px" viewBox="27.344 23.203 101.427 30.579"
	 enable-background="new 27.344 23.203 101.427 30.579" xml:space="preserve">
<g>
	<g>
		<defs>
			<rect id="SVGID_1_" x="23.641" y="20" width="107.608" height="35.309"/>
		</defs>
		<clipPath id="SVGID_2_">
			<use xlink:href="#SVGID_1_"  overflow="visible"/>
		</clipPath>
		<path clip-path="url(#SVGID_2_)" fill="#3A3A3A" d="M69.329,31.453c-0.32,0-0.561,0.142-0.716,0.425l-5.815,11.639l-5.816-11.642
			c-0.154-0.281-0.394-0.423-0.714-0.423c-0.221,0-0.412,0.08-0.569,0.237c-0.157,0.157-0.237,0.348-0.237,0.569V45.32
			c0,0.221,0.08,0.412,0.237,0.569c0.157,0.157,0.348,0.237,0.569,0.237s0.412-0.08,0.569-0.237
			c0.157-0.157,0.236-0.348,0.236-0.569v-9.647l4.982,9.964c0.159,0.324,0.409,0.489,0.743,0.489c0.321,0,0.555-0.133,0.698-0.398
			l5.027-10.055v9.647c0,0.221,0.08,0.412,0.236,0.569c0.157,0.157,0.349,0.236,0.569,0.236s0.412-0.08,0.569-0.236
			c0.157-0.157,0.237-0.349,0.237-0.569V32.259c0-0.221-0.08-0.412-0.237-0.569S69.55,31.453,69.329,31.453"/>
	</g>
	<g>
		<defs>
			<rect id="SVGID_3_" x="23.641" y="20" width="107.608" height="35.309"/>
		</defs>
		<clipPath id="SVGID_4_">
			<use xlink:href="#SVGID_3_"  overflow="visible"/>
		</clipPath>
		<path clip-path="url(#SVGID_4_)" fill="#3A3A3A" d="M79.243,31.453c-2.014,0-3.759,0.724-5.186,2.15
			c-1.427,1.427-2.15,3.172-2.15,5.186c0,2.015,0.724,3.759,2.15,5.186c1.427,1.427,3.172,2.15,5.186,2.15s3.759-0.723,5.186-2.15
			c1.427-1.427,2.15-3.172,2.15-5.186s-0.724-3.759-2.15-5.186C83.002,32.177,81.257,31.453,79.243,31.453 M84.968,38.79
			c0,1.573-0.564,2.935-1.678,4.048c-1.113,1.113-2.475,1.677-4.047,1.677s-2.935-0.564-4.048-1.677
			c-1.113-1.113-1.677-2.475-1.677-4.048s0.564-2.935,1.677-4.047c1.113-1.113,2.475-1.678,4.048-1.678s2.935,0.564,4.047,1.678
			C84.404,35.854,84.968,37.217,84.968,38.79"/>
	</g>
	<g>
		<defs>
			<rect id="SVGID_5_" x="23.641" y="20" width="107.608" height="35.309"/>
		</defs>
		<clipPath id="SVGID_6_">
			<use xlink:href="#SVGID_5_"  overflow="visible"/>
		</clipPath>
		<path clip-path="url(#SVGID_6_)" fill="#3A3A3A" d="M99.316,31.453c-0.221,0-0.412,0.08-0.569,0.237
			c-0.157,0.157-0.237,0.348-0.237,0.569v10.714l-8.731-11.23c-0.172-0.192-0.382-0.29-0.622-0.29c-0.221,0-0.412,0.08-0.569,0.237
			c-0.157,0.157-0.236,0.348-0.236,0.569V45.32c0,0.221,0.08,0.412,0.236,0.569s0.349,0.237,0.569,0.237s0.412-0.08,0.569-0.237
			c0.157-0.157,0.236-0.348,0.236-0.569V34.615l8.751,11.251c0.166,0.172,0.368,0.26,0.602,0.26c0.221,0,0.412-0.08,0.569-0.237
			c0.157-0.157,0.237-0.348,0.237-0.569V32.259c0-0.221-0.08-0.412-0.237-0.569S99.536,31.453,99.316,31.453"/>
	</g>
	<g>
		<defs>
			<rect id="SVGID_7_" x="23.641" y="20" width="107.608" height="35.309"/>
		</defs>
		<clipPath id="SVGID_8_">
			<use xlink:href="#SVGID_7_"  overflow="visible"/>
		</clipPath>
		<path clip-path="url(#SVGID_8_)" fill="#3A3A3A" d="M112.527,33.064c0.221,0,0.412-0.08,0.569-0.236
			c0.157-0.157,0.237-0.349,0.237-0.569c0-0.22-0.08-0.412-0.237-0.569c-0.157-0.157-0.349-0.237-0.569-0.237h-8.708
			c-0.221,0-0.412,0.08-0.569,0.237c-0.157,0.157-0.237,0.348-0.237,0.569V45.32c0,0.221,0.08,0.412,0.237,0.569
			c0.157,0.157,0.348,0.236,0.569,0.236h8.708c0.221,0,0.412-0.08,0.569-0.236c0.157-0.157,0.237-0.349,0.237-0.569
			s-0.08-0.412-0.237-0.569c-0.157-0.157-0.349-0.237-0.569-0.237h-7.902v-4.919h5.725c0.221,0,0.412-0.08,0.569-0.237
			c0.157-0.157,0.236-0.349,0.236-0.569c0-0.221-0.08-0.412-0.236-0.569c-0.157-0.157-0.349-0.237-0.569-0.237h-5.725v-4.919
			H112.527z"/>
	</g>
	<g>
		<defs>
			<rect id="SVGID_9_" x="23.641" y="20" width="107.608" height="35.309"/>
		</defs>
		<clipPath id="SVGID_10_">
			<use xlink:href="#SVGID_9_"  overflow="visible"/>
		</clipPath>
		<path clip-path="url(#SVGID_10_)" fill="#3A3A3A" d="M126.506,33.604c-1.427-1.427-3.172-2.15-5.186-2.15s-3.759,0.724-5.186,2.15
			s-2.15,3.172-2.15,5.186c0,2.015,0.724,3.759,2.15,5.186c1.427,1.427,3.172,2.15,5.186,2.15s3.759-0.723,5.186-2.15
			c1.427-1.427,2.15-3.172,2.15-5.186S127.932,35.03,126.506,33.604 M127.045,38.79c0,1.573-0.564,2.935-1.678,4.048
			c-1.112,1.113-2.475,1.677-4.047,1.677s-2.935-0.564-4.048-1.677c-1.113-1.113-1.677-2.475-1.677-4.048s0.564-2.935,1.677-4.047
			c1.113-1.113,2.475-1.678,4.048-1.678s2.935,0.564,4.047,1.678C126.48,35.854,127.045,37.217,127.045,38.79"/>
	</g>
	<g>
		<defs>
			<rect id="SVGID_11_" x="23.641" y="20" width="107.608" height="35.309"/>
		</defs>
		<clipPath id="SVGID_12_">
			<use xlink:href="#SVGID_11_"  overflow="visible"/>
		</clipPath>
		<path display="none" clip-path="url(#SVGID_12_)" fill="#0580CC" d="M31.089,37.018c-1.153-1.297-1.788-3.026-1.788-4.869
			c0-3.135,1.871-5.869,4.549-6.649c0.494-0.144,1.005-0.217,1.52-0.217c1.23,0,2.415,0.414,3.425,1.195
			c1.655,1.281,2.644,3.401,2.644,5.67h-1.705c0-1.746-0.741-3.362-1.982-4.322c-0.709-0.549-1.533-0.839-2.382-0.839
			c-0.354,0-0.704,0.05-1.043,0.148c-1.956,0.569-3.321,2.631-3.321,5.013c0,1.424,0.482,2.751,1.357,3.737L31.089,37.018z"/>
	</g>
	<g>
		<defs>
			<rect id="SVGID_13_" x="23.641" y="20" width="107.608" height="35.309"/>
		</defs>
		<clipPath id="SVGID_14_">
			<use xlink:href="#SVGID_13_"  overflow="visible"/>
		</clipPath>
		<polygon display="none" clip-path="url(#SVGID_14_)" fill="#0580CC" points="31.953,51.973 27.976,51.123 27.976,31.202 
			29.964,33.001 31.953,31.202 		"/>
	</g>
	<g>
		<defs>
			<rect id="SVGID_15_" x="23.641" y="20" width="107.608" height="35.309"/>
		</defs>
		<clipPath id="SVGID_16_">
			<use xlink:href="#SVGID_15_"  overflow="visible"/>
		</clipPath>
		<path display="none" clip-path="url(#SVGID_16_)" fill="#0580CC" d="M40.002,37.492c-3.346,0-6.068-3.08-6.068-6.866
			s2.722-6.866,6.068-6.866s6.069,3.08,6.069,6.866S43.348,37.492,40.002,37.492 M40.002,25.465c-2.406,0-4.364,2.315-4.364,5.161
			s1.958,5.161,4.364,5.161s4.364-2.315,4.364-5.161S42.408,25.465,40.002,25.465"/>
	</g>
	<g>
		<defs>
			<rect id="SVGID_17_" x="23.641" y="20" width="107.608" height="35.309"/>
		</defs>
		<clipPath id="SVGID_18_">
			<use xlink:href="#SVGID_17_"  overflow="visible"/>
		</clipPath>
		<polygon display="none" clip-path="url(#SVGID_18_)" fill="#3A3A3A" points="47.673,48.594 31.953,51.973 31.953,31.202 
			47.673,27.856 		"/>
	</g>
	<g>
		<defs>
			<rect id="SVGID_19_" x="23.641" y="20" width="107.608" height="35.309"/>
		</defs>
		<clipPath id="SVGID_20_">
			<use xlink:href="#SVGID_19_"  overflow="visible"/>
		</clipPath>
		<path display="none" clip-path="url(#SVGID_20_)" fill="#FFFFFF" d="M36.309,37.789c0-0.163,0.03-0.321,0.09-0.473
			c0.06-0.152,0.143-0.291,0.25-0.416c0.107-0.125,0.231-0.23,0.373-0.315c0.142-0.085,0.295-0.142,0.459-0.171
			s0.316-0.026,0.459,0.008c0.142,0.034,0.266,0.095,0.373,0.181c0.106,0.087,0.19,0.195,0.25,0.325s0.09,0.276,0.09,0.438v8.828
			l2.352-0.501v-8.751c0-0.162,0.03-0.318,0.09-0.469c0.06-0.151,0.143-0.289,0.25-0.413c0.106-0.124,0.23-0.229,0.373-0.313
			s0.295-0.142,0.459-0.171c0.164-0.029,0.316-0.027,0.458,0.007c0.143,0.034,0.267,0.094,0.373,0.18
			c0.106,0.085,0.191,0.192,0.254,0.321c0.063,0.128,0.094,0.273,0.094,0.434v8.675l2.344-0.499v-8.598
			c0-0.476-0.091-0.907-0.274-1.294s-0.435-0.709-0.754-0.967s-0.694-0.438-1.123-0.543c-0.429-0.105-0.886-0.115-1.373-0.031
			c-0.437,0.076-0.856,0.226-1.258,0.45c-0.402,0.224-0.763,0.509-1.086,0.858c-0.322-0.235-0.686-0.395-1.09-0.479
			s-0.825-0.088-1.262-0.012c-0.486,0.084-0.944,0.255-1.373,0.512c-0.429,0.258-0.803,0.574-1.123,0.948
			c-0.32,0.376-0.571,0.794-0.754,1.255c-0.183,0.461-0.274,0.936-0.274,1.421v8.98l2.352-0.5V37.789L36.309,37.789z"/>
	</g>
</g>
<g>
	<g>
		<g>
			<defs>
				<rect id="SVGID_21_" x="23.641" y="23.203" width="30.587" height="30.587"/>
			</defs>
			<clipPath id="SVGID_22_">
				<use xlink:href="#SVGID_21_"  overflow="visible"/>
			</clipPath>
			<polygon clip-path="url(#SVGID_22_)" fill="#F2F2F2" points="32.114,53.696 27.427,50.349 27.427,27.187 32.114,29.545 			"/>
		</g>
		<g>
			<defs>
				<rect id="SVGID_23_" x="23.641" y="23.203" width="30.587" height="30.587"/>
			</defs>
			<clipPath id="SVGID_24_">
				<use xlink:href="#SVGID_23_"  overflow="visible"/>
			</clipPath>
			<polygon clip-path="url(#SVGID_24_)" fill="#F2F2F2" points="50.392,49.768 32.114,53.696 32.114,29.545 50.392,25.654 			"/>
		</g>
		<g>
			<defs>
				<rect id="SVGID_25_" x="23.641" y="23.203" width="30.587" height="30.587"/>
			</defs>
			<clipPath id="SVGID_26_">
				<use xlink:href="#SVGID_25_"  overflow="visible"/>
			</clipPath>
			<g clip-path="url(#SVGID_26_)">
				<g>
					<defs>
						<rect id="SVGID_27_" x="23.641" y="23.203" width="30.587" height="30.587"/>
					</defs>
					<defs>
						<rect id="SVGID_28_" x="23.641" y="23.203" width="30.587" height="30.587"/>
					</defs>
					<defs>
						<rect id="SVGID_29_" x="23.641" y="23.203" width="30.587" height="30.587"/>
					</defs>
					<defs>
						<rect id="SVGID_30_" x="23.641" y="23.203" width="30.587" height="30.587"/>
					</defs>
					<clipPath id="SVGID_31_">
						<use xlink:href="#SVGID_27_"  overflow="visible"/>
					</clipPath>
					<clipPath id="SVGID_32_" clip-path="url(#SVGID_31_)">
						<use xlink:href="#SVGID_28_"  overflow="visible"/>
					</clipPath>
					<clipPath id="SVGID_33_" clip-path="url(#SVGID_32_)">
						<use xlink:href="#SVGID_29_"  overflow="visible"/>
					</clipPath>
					<clipPath id="SVGID_34_" clip-path="url(#SVGID_33_)">
						<use xlink:href="#SVGID_30_"  overflow="visible"/>
					</clipPath>
					<path clip-path="url(#SVGID_34_)" fill="#F2F2F2" d="M45.263,35.221c-0.073-0.149-0.171-0.273-0.295-0.373
						c-0.124-0.1-0.268-0.169-0.434-0.208c-0.166-0.04-0.343-0.042-0.534-0.008c-0.19,0.034-0.368,0.1-0.534,0.199
						c-0.165,0.098-0.31,0.22-0.433,0.364c-0.124,0.145-0.221,0.304-0.291,0.48s-0.104,0.357-0.104,0.545v10.175l2.734-0.582V35.726
						C45.373,35.539,45.336,35.371,45.263,35.221"/>
					<path clip-path="url(#SVGID_34_)" fill="#F2F2F2" d="M39.799,36.202c-0.07-0.151-0.167-0.277-0.291-0.377
						c-0.124-0.101-0.268-0.171-0.434-0.211s-0.343-0.043-0.534-0.009c-0.19,0.034-0.368,0.1-0.534,0.199
						c-0.165,0.099-0.31,0.221-0.434,0.367c-0.124,0.146-0.221,0.307-0.291,0.483c-0.07,0.177-0.104,0.36-0.104,0.55v10.353
						l2.725-0.58V36.713C39.904,36.523,39.869,36.354,39.799,36.202"/>
					<path clip-path="url(#SVGID_34_)" fill="#3A3A3A" d="M37.179,37.204c0-0.19,0.035-0.373,0.104-0.55
						c0.07-0.177,0.167-0.338,0.291-0.484c0.124-0.146,0.269-0.268,0.434-0.367c0.166-0.099,0.343-0.165,0.534-0.199
						s0.368-0.031,0.534,0.009c0.166,0.04,0.31,0.11,0.434,0.211c0.124,0.1,0.221,0.227,0.291,0.377
						c0.07,0.151,0.105,0.321,0.105,0.51v10.264l2.735-0.582V36.219c0-0.188,0.035-0.37,0.104-0.545s0.167-0.335,0.291-0.48
						c0.124-0.145,0.268-0.266,0.434-0.364c0.165-0.099,0.343-0.165,0.534-0.199c0.19-0.034,0.368-0.031,0.534,0.008
						c0.165,0.039,0.31,0.108,0.433,0.208c0.125,0.099,0.223,0.224,0.296,0.373c0.073,0.149,0.109,0.318,0.109,0.505v10.086
						l2.725-0.58v-9.998c0-0.553-0.106-1.055-0.319-1.505s-0.505-0.825-0.876-1.124c-0.372-0.299-0.807-0.509-1.305-0.631
						s-1.031-0.134-1.596-0.036c-0.508,0.088-0.996,0.262-1.462,0.522s-0.888,0.593-1.262,0.998
						c-0.375-0.273-0.797-0.459-1.268-0.557c-0.47-0.098-0.959-0.103-1.467-0.014c-0.565,0.098-1.098,0.297-1.596,0.595
						c-0.499,0.299-0.934,0.667-1.305,1.103c-0.372,0.437-0.664,0.923-0.876,1.459c-0.213,0.537-0.319,1.087-0.319,1.653v10.441
						l2.735-0.582L37.179,37.204L37.179,37.204z"/>
					<polygon clip-path="url(#SVGID_34_)" fill="#F2F2F2" points="45.755,23.296 27.427,27.187 32.114,29.545 50.392,25.654 					
						"/>
				</g>
			</g>
		</g>
	</g>
</g>
</svg>
