<svg width="131" height="23" viewBox="0 0 131 23" xmlns="http://www.w3.org/2000/svg"><title>Pheeva</title><g fill="#3A3A3A" fill-rule="evenodd"><path d="M7.81 12.384c-1.662-.223-1.598-1.363-2.177-1.818-1.043-.817-2.374-.46-3.364.055 0 0 1.41-.2 2.13.26-1.62-.32-3.05 1.53-3.05 1.53s1.6-1 2.88-.74c.76.16 1.67 1.66 3.57.72z"/><path d="M23.336 3.4h-8.418c-.532-.12-.953-.302-1.15-.53-.634-.736-.617-1.055-.97-1.4-.72-.703-2.102-.46-2.102-.46s1.174.106 1.52 1.153c.204.613.092 1.27.896 1.72 0 0-.385.065-.723-.195-1.6-1.224-2-.808-3.71-.594-1.71.218-2.25-1.466-2.25-1.466-.32 3.31 4.41 1.64 4.11 3.38-.21 1.153-3-.27-3-.27.16.377.61 1.93 3.51 1.674-2.76 1.682-3.3.404-4.78.008-1.49-.395-1.93.69-3.88.736C.44 7.204-.23 5.7-.23 5.7c1.575 3.758 4.394 2.04 5.9 2.827 3.01 1.574 2.43 4.755 6.115 5.163.23.025.472.037.723.03l-.652 1.72c-.06-.044-.112-.092-.145-.147-.29-.502-.26-.74-.43-.972-.34-.47-1.12-.18-1.12-.18s.64-.01.76.75c.07.45-.03.94.38 1.22 0 0-.21.08-.38-.09-.79-.79-1.04-.45-1.99-.17-.95.29-1.13-.92-1.13-.92-.4 2.49 2.31.9 2.02 2.22-.19.87-1.62.02-1.62.02.07.27.21 1.4 1.81.99-1.62 1.46-1.83.55-2.62.36-.79-.18-1.1.66-2.18.84-1.07.18-1.33-.89-1.33-.89.61 2.69 2.27 1.2 3.04 1.68 1.54.95-.5 2.79 2.11 2.85.18.01.39.01.61 0h2.87l2.57-6.75h3.42c3.53 0 7.01-2.64 8.45-6.44 1.45-3.8-.05-6.36-3.58-6.36zm.015 6.187c-1.68 3.27-5.3 2.313-6.14 2.34-.66.02-.88.256-1.24.285-.72.06-1.14-.542-1.14-.542s.55.37 1.33.022c.45-.204.8-.54 1.41-.455 0 0-.12-.166-.41-.17-1.39-.017-1.31-.348-1.89-1.053-.57-.704-1.81-.14-1.81-.14 1.86-1.603 2.82.833 3.73-.06.61-.59-1.4-.944-1.4-.944.29-.113 1.41-.65 2.46.496-.14-1.736-1.13-1.356-1.98-1.706-.85-.352-.38-.997-1.16-1.713-.78-.715-1.96-.28-1.96-.28 2.91-1.13 3.04.646 4.14.828 2.19.364 3.86-1.277 5.63-.147.8.51 1.36 1.497.47 3.24zm31.27-1.91c0 2.04-.66 3.603-2 4.69C51.28 13.457 49.39 14 46.94 14h-3.15v8.716h-1.42v-21.1h4.983c4.842-.002 7.264 2.02 7.264 6.06zm-10.82 5.05h2.8c2.29 0 3.95-.39 4.97-1.176 1.02-.78 1.53-2.05 1.53-3.81 0-1.62-.48-2.83-1.45-3.61-.96-.78-2.46-1.17-4.48-1.17H43.8v9.79zm25.46 9.99V12.54c0-1.577-.32-2.725-.96-3.442-.64-.718-1.63-1.076-2.98-1.076-1.81 0-3.13.475-3.97 1.422-.84.948-1.26 2.484-1.26 4.61v8.66H58.7V.26h1.377v7.144l-.07 2.007h.097c.568-.94 1.28-1.62 2.145-2.05.86-.42 1.93-.63 3.21-.63 3.43 0 5.15 1.91 5.15 5.73v10.26h-1.36zm12.37.287c-2.2 0-3.91-.702-5.14-2.106-1.23-1.406-1.84-3.373-1.84-5.903 0-2.503.6-4.506 1.79-6.012 1.19-1.506 2.79-2.26 4.8-2.26 1.78 0 3.19.646 4.22 1.935 1.03 1.29 1.54 3.04 1.54 5.252v1.16H76.1c.016 2.16.5 3.8 1.452 4.94.95 1.14 2.315 1.71 4.086 1.71.86 0 1.62-.06 2.276-.18.653-.123 1.48-.393 2.483-.81v1.3c-.854.386-1.643.65-2.37.788-.72.14-1.52.21-2.39.21zm-.4-15.01c-1.45 0-2.62.498-3.5 1.493-.88.997-1.39 2.432-1.54 4.31h9.36c0-1.82-.38-3.242-1.14-4.266C83.61 8.51 82.56 8 81.22 8zm16.05 15.01c-2.19 0-3.91-.702-5.14-2.106-1.23-1.406-1.84-3.373-1.84-5.903 0-2.503.6-4.506 1.78-6.012 1.19-1.506 2.79-2.26 4.8-2.26 1.79 0 3.19.646 4.22 1.935 1.03 1.29 1.55 3.04 1.55 5.253v1.16h-10.9c.02 2.16.5 3.8 1.46 4.94.96 1.14 2.32 1.71 4.09 1.71.86 0 1.62-.06 2.27-.18.66-.12 1.48-.39 2.49-.81v1.3c-.855.39-1.64.65-2.37.79-.72.14-1.52.21-2.39.21zm-.4-15.01c-1.45 0-2.62.498-3.5 1.493-.88.997-1.39 2.432-1.54 4.31h9.35c0-1.82-.37-3.242-1.14-4.266C99.26 8.51 98.21 8 96.86 8zm7.41-.967h1.42l3.91 10.666c.52 1.367.91 2.56 1.17 3.58h.09c.38-1.31.77-2.51 1.17-3.61l3.91-10.636h1.42l-5.85 15.69h-1.39l-5.84-15.69zm24.8 15.69l-.34-2.484h-.11c-.76 1.01-1.54 1.725-2.35 2.145-.8.418-1.75.626-2.84.626-1.48 0-2.64-.394-3.46-1.184-.82-.788-1.24-1.88-1.24-3.276 0-1.53.62-2.717 1.85-3.565 1.23-.85 3.01-1.3 5.34-1.35l2.88-.09V12.5c0-1.49-.29-2.616-.88-3.376-.58-.76-1.52-1.14-2.82-1.14-1.4 0-2.85.404-4.35 1.212l-.51-1.24c1.66-.81 3.302-1.215 4.924-1.215 1.66 0 2.9.45 3.72 1.35.82.9 1.23 2.29 1.23 4.19v10.44h-1.02zm-5.56-1.01c1.62 0 2.89-.48 3.82-1.437.93-.958 1.4-2.288 1.4-3.99v-1.545l-2.64.115c-2.12.106-3.64.45-4.54 1.032-.91.582-1.36 1.49-1.36 2.72 0 .982.29 1.746.87 2.29.58.542 1.395.813 2.452.813z"/></g></svg>