<svg width="159" height="14" viewBox="0 0 159 14" xmlns="http://www.w3.org/2000/svg"><title>Proof of Existence</title><path d="M2.114 7V2.282h3.348c.972 0 1.683.2 2.133.603.45.402.675.987.675 1.755 0 .77-.225 1.357-.675 1.765-.45.408-1.16.606-2.133.594H2.114zM.404.842v12.852h1.71V8.44h3.924c1.296.01 2.277-.32 2.943-.99.67-.673 1-1.61 1-2.81s-.33-2.132-1-2.798c-.663-.666-1.644-1-2.94-1H.404zm12.1 3.546v9.305h1.53v-4.14c0-.6.06-1.13.18-1.593.12-.462.31-.855.575-1.18.26-.323.61-.57 1.04-.737.433-.168.955-.252 1.567-.252V4.17c-.83-.023-1.513.145-2.053.505s-.996.918-1.368 1.674h-.037V4.39H12.5zm7.58 4.66c0-.563.075-1.064.225-1.502.15-.438.354-.807.62-1.107.262-.3.57-.53.925-.685.354-.156.73-.234 1.125-.234.397 0 .77.08 1.126.235.354.156.663.384.927.684.264.3.47.67.62 1.107.15.438.226.94.226 1.503 0 .566-.077 1.067-.227 1.505-.15.438-.357.804-.62 1.098-.265.294-.574.52-.928.675-.354.156-.73.234-1.125.234s-.77-.077-1.124-.233c-.354-.158-.663-.38-.927-.677-.266-.294-.47-.66-.62-1.098-.15-.438-.228-.94-.228-1.503zm-1.62 0c0 .685.096 1.32.288 1.91.192.587.48 1.1.864 1.538.384.438.858.78 1.422 1.026s1.212.37 1.944.37c.744 0 1.395-.124 1.953-.37s1.03-.588 1.413-1.026c.384-.438.672-.95.864-1.54.192-.587.288-1.223.288-1.907 0-.685-.096-1.324-.288-1.918-.192-.594-.48-1.11-.864-1.548-.384-.438-.855-.783-1.413-1.035-.558-.25-1.21-.378-1.953-.378-.732 0-1.38.126-1.944.378-.564.254-1.038.6-1.422 1.037-.384.438-.672.954-.864 1.548-.192.594-.288 1.233-.288 1.917zm12.694 0c0-.563.075-1.064.225-1.502.15-.438.357-.807.62-1.107.265-.3.574-.53.928-.685.357-.156.73-.234 1.128-.234.396 0 .77.08 1.125.235.355.156.664.384.928.684.265.3.47.67.62 1.107.15.438.227.94.227 1.503 0 .566-.075 1.067-.225 1.505-.15.438-.357.804-.62 1.098-.265.294-.574.52-.928.675-.353.156-.728.234-1.124.234-.396 0-.77-.077-1.125-.233-.353-.158-.662-.38-.926-.677-.265-.294-.47-.66-.62-1.098-.15-.438-.227-.94-.227-1.503zm-1.62 0c0 .685.096 1.32.288 1.91.192.587.48 1.1.864 1.538.384.438.858.78 1.422 1.026s1.212.37 1.944.37c.744 0 1.395-.124 1.953-.37.555-.246 1.026-.588 1.41-1.026.384-.438.672-.95.864-1.54.192-.587.288-1.223.288-1.907 0-.685-.096-1.324-.288-1.918-.192-.594-.48-1.11-.864-1.548-.383-.438-.854-.783-1.412-1.035-.56-.25-1.21-.378-1.954-.378-.732 0-1.38.126-1.944.378-.564.254-1.038.6-1.422 1.037-.384.438-.672.954-.864 1.548-.192.594-.288 1.233-.288 1.917zm12.207-3.31v7.955h1.53V5.74h1.8V4.39h-1.8V3.092c0-.408.102-.684.306-.828.207-.144.495-.216.867-.216.132 0 .276.008.432.026.155.018.3.05.43.1V.842C45.165.795 45 .76 44.814.735 44.628.71 44.463.7 44.32.7c-.84 0-1.48.194-1.918.584-.438.39-.657.963-.657 1.72V4.39H40.18v1.35h1.565zm12.3 3.31c0-.563.075-1.064.225-1.502.15-.438.357-.807.62-1.107.265-.3.574-.53.928-.685.354-.156.73-.234 1.125-.234.396 0 .77.08 1.125.235.354.156.663.384.927.684.264.3.47.67.62 1.107.15.438.226.94.226 1.503 0 .566-.072 1.067-.222 1.505-.15.438-.357.804-.62 1.098-.265.294-.574.52-.928.675-.355.156-.73.234-1.126.234-.396 0-.77-.077-1.125-.233-.356-.158-.665-.38-.93-.677-.262-.294-.47-.66-.62-1.098-.15-.438-.224-.94-.224-1.503zm-1.62 0c0 .685.096 1.32.288 1.91.192.587.48 1.1.864 1.538.384.438.858.78 1.422 1.026.56.246 1.21.37 1.94.37.745 0 1.396-.124 1.954-.37s1.03-.588 1.413-1.026c.383-.438.67-.95.863-1.54.193-.587.29-1.223.29-1.907 0-.685-.096-1.324-.288-1.918-.192-.594-.48-1.11-.864-1.548-.385-.438-.856-.783-1.414-1.035-.558-.25-1.21-.378-1.953-.378-.73 0-1.38.126-1.942.378-.565.254-1.04.6-1.423 1.037-.384.438-.672.954-.864 1.548-.19.594-.287 1.233-.287 1.917zm12.207-3.31v7.955h1.53V5.74h1.8V4.39h-1.8V3.092c0-.408.102-.684.306-.828.204-.144.492-.216.864-.216.132 0 .276.008.432.026.156.018.3.05.432.1V.842c-.144-.048-.31-.084-.495-.108C67.518.71 67.35.7 67.21.7c-.84 0-1.48.194-1.917.584-.44.39-.657.963-.657 1.72V4.39h-1.566v1.35h1.566zM76.07.842v12.852h8.927v-1.44H77.78V7.81h6.677V6.37H77.78V2.282h7.163V.842H76.07zM90.057 8.8l-3.492 4.895h1.854l2.59-3.852 2.592 3.852h1.962l-3.6-5.022L95.17 4.39h-1.836l-2.322 3.257L88.78 4.39h-1.962l3.24 4.41zm9.183-6.085V.843h-1.53v1.872h1.53zM97.71 4.39v9.305h1.53V4.39h-1.53zm5.584 6.37h-1.53c.024.577.144 1.066.36 1.468.216.402.504.726.864.972s.774.423 1.242.53c.468.11.96.163 1.476.163.468 0 .94-.045 1.413-.135.47-.09.9-.25 1.275-.477.378-.225.684-.525.918-.9.234-.37.35-.84.35-1.4 0-.445-.086-.817-.26-1.117-.174-.3-.402-.548-.684-.746-.28-.198-.606-.357-.97-.477-.368-.12-.743-.223-1.127-.307-.36-.083-.72-.164-1.08-.242-.36-.076-.684-.172-.972-.286-.287-.114-.524-.258-.71-.432-.186-.173-.28-.392-.28-.656 0-.24.06-.434.18-.584.12-.15.277-.27.47-.36.19-.09.404-.153.64-.19.232-.035.463-.053.69-.053.253 0 .5.026.748.08.244.054.47.14.673.26.205.12.373.28.505.477.132.198.21.447.234.747h1.53c-.036-.565-.156-1.036-.36-1.414-.204-.38-.477-.68-.82-.9-.34-.223-.734-.38-1.178-.47-.444-.09-.93-.134-1.458-.134-.408 0-.82.05-1.233.153-.413.1-.785.256-1.115.466-.33.21-.6.483-.81.82-.21.335-.315.737-.315 1.205 0 .6.15 1.068.45 1.404.3.336.676.597 1.126.783.45.186.94.33 1.467.432.528.1 1.017.215 1.467.34.45.127.826.29 1.126.496.3.204.45.504.45.9 0 .288-.072.525-.216.71-.144.187-.327.328-.55.424-.22.096-.464.16-.728.198-.264.036-.516.054-.756.054-.312 0-.615-.03-.91-.09-.293-.06-.557-.158-.79-.296-.235-.138-.424-.324-.568-.558-.144-.234-.222-.52-.234-.855zm10.93-6.37V1.6h-1.53v2.79h-1.585v1.35h1.58v5.92c0 .433.043.78.127 1.045.083.264.212.468.386.612.174.144.402.243.684.297.282.054.62.08 1.017.08h1.17v-1.35h-.702c-.24 0-.435-.008-.585-.026-.15-.018-.267-.057-.35-.117-.085-.06-.142-.14-.172-.25-.03-.11-.045-.25-.045-.43V5.74h1.855V4.39h-1.854zm10.748 3.76h-5.346c.024-.36.102-.698.234-1.016.132-.318.312-.597.54-.837.228-.24.5-.43.82-.567.317-.138.674-.207 1.07-.207.384 0 .735.07 1.053.207.318.138.594.324.828.558.237.234.42.513.56.837.14.324.22.666.244 1.026zm1.476 2.593h-1.512c-.132.612-.405 1.068-.82 1.368-.413.3-.944.45-1.592.45-.504 0-.942-.08-1.314-.25-.372-.17-.678-.392-.918-.674-.24-.282-.414-.606-.522-.972-.108-.366-.156-.753-.144-1.16h6.966c.024-.565-.027-1.16-.153-1.783-.13-.624-.357-1.2-.687-1.73-.33-.526-.768-.96-1.314-1.303-.546-.342-1.233-.513-2.06-.513-.637 0-1.22.12-1.756.36-.534.24-.996.576-1.386 1.008-.39.434-.695.944-.91 1.53-.217.59-.325 1.238-.325 1.946.024.708.13 1.362.315 1.962.187.6.466 1.116.838 1.548.372.432.83.768 1.377 1.008.546.24 1.19.36 1.935.36 1.056 0 1.932-.264 2.628-.792.696-.527 1.146-1.313 1.35-2.357zm2.47-6.354v9.303h1.53V8.44c0-.42.057-.808.17-1.162.115-.354.286-.663.514-.927.228-.26.513-.465.855-.61.342-.143.747-.215 1.215-.215.588 0 1.05.168 1.386.504.336.335.504.79.504 1.367v6.3h1.53v-6.12c0-.504-.05-.963-.153-1.377-.105-.415-.28-.77-.534-1.07-.252-.3-.582-.536-.99-.704-.408-.168-.918-.252-1.53-.252-1.38 0-2.388.564-3.024 1.692h-.036V4.39h-1.44zm17.067 2.985h1.584c-.06-.552-.207-1.03-.435-1.43-.228-.403-.52-.736-.873-1-.354-.264-.762-.46-1.224-.585-.463-.125-.958-.19-1.486-.19-.732 0-1.374.13-1.926.39-.553.257-1.012.61-1.378 1.06-.366.45-.64.98-.82 1.585-.18.606-.27 1.257-.27 1.953 0 .695.094 1.334.28 1.916.186.582.462 1.083.828 1.503.366.42.822.743 1.368.97.546.23 1.173.343 1.88.343 1.19 0 2.128-.312 2.818-.936.69-.624 1.12-1.512 1.287-2.664h-1.566c-.096.72-.357 1.278-.783 1.674-.425.396-1.016.594-1.772.594-.48 0-.894-.095-1.24-.287-.35-.19-.63-.445-.848-.763-.216-.318-.375-.68-.477-1.09-.102-.407-.153-.827-.153-1.26 0-.467.048-.92.144-1.358.096-.44.255-.826.477-1.16.223-.338.52-.608.89-.81.374-.206.836-.308 1.388-.308.65 0 1.165.163 1.55.487.383.322.635.78.755 1.366zm10.55.774h-5.345c.024-.36.102-.7.234-1.017.132-.318.312-.597.54-.837.228-.24.5-.43.82-.567.317-.14.674-.208 1.07-.208.384 0 .735.07 1.053.207.318.137.594.323.828.557.234.234.42.513.558.837.138.324.22.666.243 1.026zm1.477 2.592H156.5c-.132.612-.405 1.068-.82 1.368-.413.3-.944.45-1.592.45-.504 0-.942-.082-1.314-.25-.372-.17-.678-.393-.918-.675-.24-.282-.414-.606-.522-.972-.108-.366-.156-.753-.144-1.16h6.966c.024-.565-.027-1.16-.153-1.783-.126-.625-.354-1.2-.684-1.73-.33-.527-.77-.962-1.317-1.304-.546-.342-1.233-.513-2.06-.513-.637 0-1.222.12-1.756.36-.535.24-.997.576-1.387 1.008-.39.435-.692.945-.91 1.53-.214.59-.322 1.24-.322 1.947.024.708.13 1.362.315 1.962.186.6.465 1.115.837 1.547.372.432.83.768 1.377 1.008.545.24 1.19.36 1.934.36 1.058 0 1.934-.264 2.63-.792.696-.527 1.146-1.313 1.35-2.357z" fill="#3A3A3A" fill-rule="evenodd"/></svg>