<svg width="124" height="21" viewBox="0 0 124 21" xmlns="http://www.w3.org/2000/svg"><title>Streamium</title><path d="M76.818 1.597c.62-.1 1.295-.023 1.795.39.97.702 1.074 2.287.18 3.096-.915.997-2.79.73-3.33-.528-.584-1.137.087-2.69 1.355-2.958M112.52 7.92c-.096-.858.395-1.623.752-2.365 3.348 2.427 6.76 4.77 10.108 7.197-.057.533.078 1.227-.438 1.577-1.32 1.02-2.727 1.93-4.112 2.87-1.524 1.01-3.04 2.03-4.642 2.92-.378.21-.934.45-1.26.03-.402-.55-.462-1.27-.675-1.9 2.978-1.65 5.95-3.3 8.933-4.94-2.57-1.43-5.193-2.77-7.697-4.32-.41-.27-.92-.55-.97-1.09M10.4 5.8c.665.61 1.764.66 2.48.126.958-.857 1.13-2.348.675-3.498-.44-1.02-1.553-1.56-2.608-1.73-1.82-.3-3.76.02-5.317 1.04-1.213.816-2.024 2.26-1.9 3.736.037 1.016.548 1.933 1.16 2.716.73.963 1.63 1.78 2.405 2.704.88 1.047 1.61 2.3 1.66 3.7.01.89-.11 1.87-.726 2.563-.9 1.08-2.66 1.263-3.8.472-.99-.73-1.12-2.3-.31-3.21.62-.73 1.62-.96 2.55-.99-.17-.45-.3-.97-.71-1.27-.67-.52-1.57-.52-2.38-.44-1.12.31-2.15 1.04-2.62 2.12-.65 1.48-.63 3.38.42 4.68.98 1.23 2.62 1.62 4.13 1.7 1.86.06 3.83-.33 5.36-1.46 1.19-.89 2-2.26 2.22-3.73.18-1.45.06-2.99-.69-4.27-.55-.95-1.29-1.79-2.14-2.48-1.01-.87-2.1-1.74-2.62-2.99-.31-.8-.31-1.76.14-2.5.58-.86 1.76-1.06 2.71-.81.63.14.99.77 1.07 1.38.05.95-.46 1.84-1.19 2.43m20.54 3.9c.6-1.07-.02-2.73-1.32-2.86-1.32-.12-2.41.8-3.3 1.65.12-.5.23-1 .34-1.5-1.26 0-2.51 0-3.77-.005-.31 1.52-.65 3.036-.96 4.55-.28 1.22-.49 2.46-.79 3.67-.31 1.03-1.11 2.16-2.29 2.157-.55.09-1.05-.41-.94-.96.16-1.31.53-2.58.78-3.88.32-1.49.63-2.98.95-4.47.5 0 1 0 1.503.01.08-.36.16-.715.23-1.073-.51 0-1.02 0-1.53.007.297-1.355.62-2.704.85-4.07-1.274.18-2.55.344-3.83.52-.27 1.17-.52 2.345-.764 3.52-.297.03-.595.05-.89.09l-.15.984.806.01c-.24 1.28-.53 2.56-.8 3.84-.29 1.41-.65 2.81-.85 4.23-.06.9-.085 1.87.41 2.664.333.56.94.87 1.54 1.073 1.57.27 3.24-.32 4.32-1.49-.107.46-.204.92-.295 1.386h3.753c.54-2.604 1.1-5.2 1.65-7.804.146-.62.2-1.26.425-1.856.5-.57 1.183-1.008 1.952-1.06.21.49.27 1.09.66 1.49.816.422 1.94-.01 2.304-.85m77.918 7.25c-.3-1.086.18-2.18.39-3.24.38-1.63.978-3.335.58-5.02-.13-.715-.68-1.27-1.33-1.565-1.8-.796-3.9.155-4.91 1.74-.19-.666-.48-1.404-1.17-1.7-1.5-.735-3.42-.233-4.52.99.1-.39.19-.776.28-1.166-1.26 0-2.52 0-3.78.007-.39 1.87-.8 3.74-1.19 5.61-.38 1.43-.39 3.07-1.43 4.23-.45.58-1.45.75-2 .24-.304-.785.06-1.633.19-2.424.53-2.36.96-4.758 1.54-7.11l.09-.54h-3.77c-.47 2.15-.91 4.3-1.37 6.46-.273 1.26-.41 2.702-1.46 3.6-.33.33-.82.29-1.24.32-.223-.36-.446-.76-.362-1.197.152-.93.372-1.85.57-2.77.45-2.14.9-4.28 1.36-6.42-1.26 0-2.52 0-3.78.002-.33 1.67-.69 3.34-1.05 5.01-.21.97-.4 1.948-.61 2.916-.19.84-.65 1.62-1.35 2.15-.6.35-1.508.48-1.957-.17-.06-.9.21-1.76.382-2.62.52-2.43 1.012-4.87 1.56-7.298-1.26 0-2.527-.007-3.79.004-.545 2.626-1.11 5.25-1.655 7.873-.134.63-.44 1.202-.78 1.75-.4.583-1.16.91-1.85.66-.456-.217-.49-.77-.5-1.2.334-1.93 1.02-3.78 1.21-5.73.05-.92.043-1.978-.647-2.68-1.02-1.016-2.71-1.02-3.94-.41-.736.344-1.24.99-1.78 1.56-.24-.64-.504-1.375-1.19-1.67-1.48-.68-3.32-.21-4.442.93l.21-1.084c-1.25.01-2.5-.03-3.756.02-.296 1.46-.62 2.915-.924 4.37-.4 1.566-.5 3.227-1.18 4.705-.29.588-.756 1.188-1.45 1.26-.31.01-.68.06-.93-.16-.27-.26-.29-.66-.26-1.01.63-3.066 1.34-6.114 1.95-9.18-1.27-.006-2.535-.016-3.8.004-.05.307-.104.61-.15.918-.227-.42-.53-.835-1.025-.944-1.92-.52-3.98.382-5.23 1.85-1.57 1.863-2.31 4.312-2.47 6.72-.94 1.02-2.12 1.995-3.56 2.113-.616.04-1.32.08-1.82-.34-.26-.26-.346-.63-.504-.95-.01-.575 0-1.153.05-1.73 1.76-.123 3.51-.88 4.67-2.22.96-1.106 1.46-2.68 1.048-4.11-.203-.74-.923-1.21-1.64-1.37-1.35-.27-2.79-.03-3.99.636-1.915 1.15-3.04 3.243-3.58 5.35-.33 1.355-.57 2.78-.29 4.17.11.84.56 1.65 1.27 2.12.6.43 1.33.61 2.05.7 1.56.13 3.16-.28 4.44-1.185.75-.46 1.32-1.14 1.96-1.74.17.95.64 1.91 1.49 2.43 1.23.75 2.9.66 4.07-.17.62-.38 1.08-.95 1.52-1.51.2.57.4 1.2.93 1.558.876.634 2.05.54 3.045.28.73-.17 1.325-.65 1.895-1.114-.1.44-.19.87-.273 1.31 1.24.01 2.486 0 3.728.01.238-.9.395-1.81.596-2.72.35-1.62.69-3.25 1.03-4.88.19-.96.54-1.97 1.31-2.64.34-.29.92-.42 1.295-.13.36.48.25 1.13.155 1.68-.32 1.47-.62 2.947-.94 4.42-.3 1.41-.606 2.823-.896 4.24 1.25.07 2.5.02 3.75.03.26-1.3.55-2.59.82-3.88l.75-3.54c.18-.95.48-1.92 1.15-2.646.34-.34.874-.59 1.34-.37.467.25.505.85.5 1.32-.064 1.145-.414 2.245-.657 3.36-.27 1.22-.646 2.47-.426 3.73.12.973.89 1.78 1.82 2.044 1.12.31 2.39.15 3.36-.52.51-.344.91-.83 1.288-1.323.22.94.97 1.71 1.92 1.91 1.85.375 3.8-.56 4.84-2.11.17.47.274.99.64 1.35.806.84 2.094 1.02 3.177.7 1.146-.27 1.99-1.18 2.634-2.12.11.61.303 1.25.805 1.66.63.63 1.58.666 2.41.58 1.01-.18 1.92-.68 2.65-1.39-.107.414-.204.83-.3 1.25 1.26.01 2.52 0 3.784.003.435-2.21.935-4.405 1.39-6.61.235-1.23.46-2.57 1.374-3.51.33-.38.86-.38 1.322-.41.224.43.475.9.34 1.4-.36 1.78-.747 3.554-1.12 5.33-.264 1.27-.55 2.53-.794 3.806 1.24.01 2.48-.01 3.72.015.29-1.11.485-2.24.737-3.36.32-1.49.62-2.98.95-4.47.19-.86.5-1.74 1.17-2.346.27-.26.66-.4 1.03-.336.4.1.64.53.65.923.07 1.02-.21 2.03-.44 3.02-.35 1.77-1.13 3.68-.356 5.442.49 1.12 1.867 1.41 2.97 1.24.53-.22 1.085-.44 1.47-.88.46-.47.61-1.14.69-1.77-.56.06-1.39.34-1.726-.3zM36.41 8.97c.3-.383.748-.73 1.26-.675.31.166.43.53.45.86.06 2.034-1.56 3.954-3.59 4.2.36-1.554.875-3.123 1.887-4.38zm12.09.75c-.45 2.01-.8 4.05-1.34 6.04-.34.846-1.09 1.684-2.08 1.608-.467.04-.68-.423-.93-.723-.13-.78-.15-1.575-.02-2.356.26-1.69.75-3.39 1.78-4.78.387-.51.93-1 1.605-.98.62-.09 1.177.58.98 1.18z" fill="#3A3A3A" fill-rule="evenodd"/></svg>