<svg xmlns="http://www.w3.org/2000/svg" width="70.554" height="77.761" viewBox="0 0 70.553797 77.760843"><title>trezor</title><defs><filter x="-.5" y="-.5" width="2" height="2" filterUnits="objectBoundingBox" id="a" color-interpolation-filters="sRGB"><feOffset dy="2" in="SourceAlpha" result="shadowOffsetOuter1"/><feGaussianBlur stdDeviation="2" in="shadowOffsetOuter1" result="shadowBlurOuter1"/><feColorMatrix values="0 0 0 0 0.878431373 0 0 0 0 0.870588235 0 0 0 0 0.878431373 0 0 0 1 0" in="shadowBlurOuter1" result="shadowMatrixOuter1"/><feMerge><feMergeNode in="shadowMatrixOuter1"/><feMergeNode in="SourceGraphic"/></feMerge></filter></defs><g transform="translate(4.528 5.144) scale(.15298)" fill="#3a3a3a" filter="url(#a)"><path d="M198.326.1c-47.128 0-85.334 38.205-85.334 85.334v31.906c-16.537 2.958-27.106 7.046-27.106 12.266v170.23l111.217 39.434 113.663-39.435v-170.23c0-5.22-10.57-9.307-27.106-12.265V85.434C283.66 38.304 245.454.1 198.326.1zm0 35.137c27.723 0 50.196 22.474 50.196 50.197v27.796c-31.3-2.278-69.09-2.278-100.392 0V85.434c0-27.723 22.474-50.197 50.196-50.197zm-2.133 119.028c38.776.063 77.428 2.95 77.428 8.47v107.547l-76.58 28.33-79.028-28.33V162.736c.502-5.773 39.404-8.533 78.18-8.47zM41.826 439.674H20.18V387.06H1v-18.858h59.9v18.86H41.825M105.26 439.674L95.4 417.17h-7.82v22.504H65.932v-71.472h38.146c16.716 0 25.717 11.144 25.717 24.538 0 12.322-7.18 18.86-12.86 21.646l12.966 25.288H105.26zm2.57-47.042c0-3.858-3.43-5.572-7.073-5.572h-13.18v11.25h13.18c3.644 0 7.073-1.713 7.073-5.678zM190.124 439.674h-54.22v-71.472h54.22v18.86H157.55v7.07h31.824v18.86H157.55v7.823h32.574M195.16 368.202h55.826v17.038l-27.324 35.576h28.074v18.86H195.16v-17.148l27.216-35.467H195.16M253.772 403.99c0-21.966 17.04-36.967 39.112-36.967 22.073 0 39.11 15 39.11 36.968 0 21.968-17.037 36.97-39.11 36.97s-39.112-15.003-39.112-36.97zm56.256 0c0-9.964-6.75-17.893-17.144-17.893-10.394 0-17.145 7.93-17.145 17.894 0 9.967 6.75 17.896 17.144 17.896 10.394 0 17.144-7.93 17.144-17.895zM376.356 439.674l-9.858-22.503h-7.823v22.504H337.03v-71.472h38.147c16.715 0 25.717 11.144 25.717 24.538 0 12.322-7.18 18.86-12.86 21.646L401 439.674h-24.644zm2.572-47.042c0-3.858-3.43-5.572-7.072-5.572h-13.18v11.25h13.18c3.642 0 7.072-1.713 7.072-5.678z"/></g></svg>