<?xml version="1.0" encoding="UTF-8" standalone="no"?>
<svg width="408px" height="449px" viewBox="0 0 408 449" version="1.1" xmlns="http://www.w3.org/2000/svg" xmlns:xlink="http://www.w3.org/1999/xlink">
    <!-- Generator: Sketch 3.7.2 (28276) - http://www.bohemiancoding.com/sketch -->
    <title>trezor</title>
    <desc>Created with Sketch.</desc>
    <defs>
        <filter x="-50%" y="-50%" width="200%" height="200%" filterUnits="objectBoundingBox" id="filter-1">
            <feOffset dx="0" dy="2" in="SourceAlpha" result="shadowOffsetOuter1"></feOffset>
            <feGaussianBlur stdDeviation="2" in="shadowOffsetOuter1" result="shadowBlurOuter1"></feGaussianBlur>
            <feColorMatrix values="0 0 0 0 0.878431373   0 0 0 0 0.870588235   0 0 0 0 0.878431373  0 0 0 1 0" type="matrix" in="shadowBlurOuter1" result="shadowMatrixOuter1"></feColorMatrix>
            <feMerge>
                <feMergeNode in="shadowMatrixOuter1"></feMergeNode>
                <feMergeNode in="SourceGraphic"></feMergeNode>
            </feMerge>
        </filter>
    </defs>
    <g id="Page-1" stroke="none" stroke-width="1" fill="none" fill-rule="evenodd">
        <g id="trezor" filter="url(#filter-1)" transform="translate(3.000000, 2.000000)" fill="#3A3A3A">
            <path d="M198.32604,0.099659 C151.19765,0.099659 112.99217,38.30514 112.99217,85.43353 L112.99217,117.33962 C96.45493,120.29781 85.88611,124.38628 85.88611,129.60636 L85.88611,299.83488 L197.1025,339.27043 L310.76596,299.83488 L310.76596,129.60636 C310.76596,124.38628 300.19714,120.29781 283.65991,117.33962 L283.65991,85.43353 C283.65991,38.30514 245.45443,0.099659 198.32604,0.099659 L198.32604,0.099659 Z M198.32604,35.237136 C226.0485,35.237136 248.52243,57.711066 248.52243,85.43353 L248.52243,113.22979 C217.22143,110.95244 179.43065,110.95244 148.12964,113.22979 L148.12964,85.43353 C148.12964,57.711066 170.60357,35.237136 198.32604,35.237136 L198.32604,35.237136 Z M196.19269,154.26534 C234.96941,154.32808 273.62063,157.21438 273.62063,162.73598 L273.62063,270.28176 L197.03975,298.61135 L118.01181,270.28176 L118.01181,162.73598 C118.51377,156.96339 157.41598,154.20259 196.19269,154.26534 L196.19269,154.26534 Z" id="path7"></path>
            <g id="g3222" transform="translate(0.607401, 366.389059)">
                <polygon id="path13" points="19.572631 73.28445 19.572631 20.6716 0.392589 20.6716 0.392589 1.81281 60.29195 1.81281 60.29195 20.6716 41.21832 20.6716 41.21832 73.28445"></polygon>
                <path d="M104.65151,73.28445 L94.79294,50.78241 L86.97134,50.78241 L86.97134,73.28445 L65.32565,73.28445 L65.32565,1.81281 L103.47189,1.81281 C120.1883,1.81281 129.18951,12.95742 129.18951,26.35082 C129.18951,38.67303 122.01043,45.2096 116.3302,47.99651 L129.29593,73.28445 L104.65151,73.28445 L104.65151,73.28445 Z M107.22257,26.2434 C107.22257,22.3853 103.79315,20.67059 100.1499,20.67059 L86.97033,20.67059 L86.97033,31.92161 L100.1499,31.92161 C103.79315,31.92161 107.22257,30.20791 107.22257,26.2434 L107.22257,26.2434 Z" id="path15"></path>
                <polygon id="path17" points="135.29641 73.28445 135.29641 1.81281 189.51655 1.81281 189.51655 20.6716 156.9421 20.6716 156.9421 27.74427 188.76661 27.74427 188.76661 46.60306 156.9421 46.60306 156.9421 54.42566 189.51655 54.42566 189.51655 73.28445"></polygon>
                <polygon id="path19" points="194.55225 56.13937 221.76873 20.6716 194.55225 20.6716 194.55225 1.81281 250.37867 1.81281 250.37867 18.85047 223.05477 54.42667 251.12861 54.42667 251.12861 73.28545 194.55225 73.28545"></polygon>
                <path d="M253.16457,37.60184 C253.16457,15.63489 270.20324,0.6342 292.2766,0.6342 C314.34996,0.6342 331.38762,15.63489 331.38762,37.60184 C331.38762,59.56878 314.34996,74.57048 292.2766,74.57048 C270.20324,74.57048 253.16457,59.56778 253.16457,37.60184 L253.16457,37.60184 Z M309.42068,37.60184 C309.42068,27.63685 302.67026,19.70783 292.2766,19.70783 C281.88293,19.70783 275.13152,27.63685 275.13152,37.60184 C275.13152,47.56783 281.88293,55.49685 292.2766,55.49685 C302.67026,55.49685 309.42068,47.56683 309.42068,37.60184 L309.42068,37.60184 Z" id="path21"></path>
                <path d="M375.74818,73.28445 L365.89062,50.78241 L358.06801,50.78241 L358.06801,73.28445 L336.42232,73.28445 L336.42232,1.81281 L374.56957,1.81281 C391.28497,1.81281 400.28619,12.95742 400.28619,26.35082 C400.28619,38.67303 393.1071,45.2096 387.42688,47.99651 L400.39261,73.28445 L375.74818,73.28445 L375.74818,73.28445 Z M378.32025,26.2434 C378.32025,22.3853 374.89183,20.67059 371.24858,20.67059 L358.06801,20.67059 L358.06801,31.92161 L371.24858,31.92161 C374.89083,31.92161 378.32025,30.20791 378.32025,26.2434 L378.32025,26.2434 Z" id="path23"></path>
            </g>
        </g>
    </g>
</svg>