<svg viewBox="0 0 310 200" xmlns="http://www.w3.org/2000/svg" fill-rule="evenodd" clip-rule="evenodd" stroke-linecap="round" stroke-linejoin="round" stroke-miterlimit="1.414"><path d="M116.447 152.205l33.4-19.282m45.903 19.282l-33.4-19.282" stroke-width="1.002" stroke="#D3D3D3"/><path d="M-162.723 285.96L472.715-80.928m-635.438 257.563L472.715-190.25M-162.723 67.31l635.438-366.885m-635.438 651.13L472.715-15.333M-162.723 242.23l635.438-366.886m-635.438 257.562L472.715-233.98M-162.723 23.582l635.438-366.886m-635.438 760.452L472.715 50.262m-635.438 432.48l635.438-366.885m-635.438 432.48L472.715 181.45m-635.438 126.374L472.715-59.062M-162.723 198.5l635.438-366.886M-162.723 89.176L472.715-277.71m-635.438 651.13L472.715 6.532m-635.438 257.562l635.438-366.886M-162.723 154.77l635.438-366.886M-162.723 45.446L472.715-321.44m-635.438 760.453L472.715 72.127m-635.438 432.48L472.715 137.72m-635.438 191.97L472.715-37.198m-635.438 257.563L472.715-146.52m-635.438 257.56l635.438-366.885M-162.723 1.717L472.715-365.17m-635.438 760.453L472.715 28.397m-635.438 432.48L472.715 93.993m-635.438 432.48l635.438-366.886" stroke-width=".344" stroke-linecap="butt" stroke="#D3D3D3"/><path d="M116.447 152.205l33.4-19.282m45.903 19.282l-33.4-19.282" stroke-width="1.002" stroke="#D3D3D3"/><path d="M-162.723 285.96L472.715-80.928m-635.438 257.563L472.715-190.25M-162.723 67.31l635.438-366.885m-635.438 651.13L472.715-15.333M-162.723 242.23l635.438-366.886m-635.438 257.562L472.715-233.98M-162.723 23.582l635.438-366.886m-635.438 760.452L472.715 50.262m-635.438 432.48l635.438-366.885m-635.438 432.48L472.715 181.45m-635.438 126.374L472.715-59.062M-162.723 198.5l635.438-366.886M-162.723 89.176L472.715-277.71m-635.438 651.13L472.715 6.532m-635.438 257.562l635.438-366.886M-162.723 154.77l635.438-366.886M-162.723 45.446L472.715-321.44m-635.438 760.453L472.715 72.127m-635.438 432.48L472.715 137.72m-635.438 191.97L472.715-37.198m-635.438 257.563L472.715-146.52m-635.438 257.56l635.438-366.885M-162.723 1.717L472.715-365.17m-635.438 760.453L472.715 28.397m-635.438 432.48L472.715 93.993m-635.438 432.48l635.438-366.886" stroke-width=".344" stroke-linecap="butt" stroke="#D3D3D3"/><path d="M193.553 152.205l-33.4-19.282m-45.903 19.282l33.4-19.282" stroke-width="1.002" stroke="#D3D3D3"/><path d="M472.723 285.96L-162.715-80.928m635.438 257.563L-162.715-190.25M472.723 67.31l-635.438-366.885m635.438 651.13L-162.715-15.333M472.723 242.23l-635.438-366.886m635.438 257.562L-162.715-233.98M472.723 23.582l-635.438-366.886m635.438 760.452L-162.715 50.262m635.438 432.48l-635.438-366.885m635.438 432.48L-162.715 181.45m635.438 126.374L-162.715-59.062M472.723 198.5l-635.438-366.886M472.723 89.176L-162.715-277.71m635.438 651.13L-162.715 6.532m635.438 257.562l-635.438-366.886M472.723 154.77l-635.438-366.886M472.723 45.446L-162.715-321.44m635.438 760.453L-162.715 72.127m635.438 432.48L-162.715 137.72m635.438 191.97L-162.715-37.198m635.438 257.563L-162.715-146.52m635.438 257.56l-635.438-366.885M472.723 1.717L-162.715-365.17m635.438 760.453L-162.715 28.397m635.438 432.48L-162.715 93.993m635.438 432.48l-635.438-366.886" stroke-width=".344" stroke-linecap="butt" stroke="#D3D3D3"/><path d="M193.553 152.205l-33.4-19.282m-45.903 19.282l33.4-19.282" stroke-width="1.002" stroke="#D3D3D3"/><path d="M472.723 285.96L-162.715-80.928m635.438 257.563L-162.715-190.25M472.723 67.31l-635.438-366.885m635.438 651.13L-162.715-15.333M472.723 242.23l-635.438-366.886m635.438 257.562L-162.715-233.98M472.723 23.582l-635.438-366.886m635.438 760.452L-162.715 50.262m635.438 432.48l-635.438-366.885m635.438 432.48L-162.715 181.45m635.438 126.374L-162.715-59.062M472.723 198.5l-635.438-366.886M472.723 89.176L-162.715-277.71m635.438 651.13L-162.715 6.532m635.438 257.562l-635.438-366.886M472.723 154.77l-635.438-366.886M472.723 45.446L-162.715-321.44m635.438 760.453L-162.715 72.127m635.438 432.48L-162.715 137.72m635.438 191.97L-162.715-37.198m635.438 257.563L-162.715-146.52m635.438 257.56l-635.438-366.885M472.723 1.717L-162.715-365.17m635.438 760.453L-162.715 28.397m635.438 432.48L-162.715 93.993m635.438 432.48l-635.438-366.886" stroke-width=".344" stroke-linecap="butt" stroke="#D3D3D3"/><path d="M145.602 69.566c-.23.593-.498 1.157-.808 1.692-.31.535-.592.89-.847 1.065-.236.162-.37.1-.403-.185-.076-.663.142-1.624.654-2.884.513-1.26 1.094-2.112 1.742-2.556.364-.25.61-.26.744-.034-.216.615-.577 1.582-1.082 2.902m-7.82 7.788c-.284.195-.45.077-.5-.356-.05-.433.11-1.144.485-2.135.374-.99.745-1.772 1.114-2.343.23-.352.44-.6.65-.74.06-.04.11-.067.14-.078.15-.064.24.02.27.25.06.533-.15 1.48-.64 2.838-.49 1.36-.99 2.213-1.5 2.564m-3.75-1.63c-.24.17-.43.376-.55.62-.12.246-.17.492-.14.74.05.406.25.627.62.665-.19.67-.44 1.34-.75 2-.31.66-.67 1.14-1.1 1.43-.51.32-.8.21-.86-.35-.06-.55.04-1.29.32-2.22.51-1.68 1.1-2.75 1.78-3.22.434-.3.697-.22.793.24l-.09.06zm20.69-15.4c-.24.167-.51.377-.78.628-.08.08-.16.18-.24.3l-.18.296c-.04.075-.09.192-.14.35-.05.16-.08.28-.11.366-.02.085-.06.24-.11.465l-.12.51c-.214.86-.56 1.81-1.04 2.85-.47 1.04-.883 1.68-1.24 1.92-.183.13-.3.03-.33-.28-.063-.59.06-1.46.38-2.6s.66-2.02 1.03-2.63c.052-.1.076-.16.072-.2-.01-.04-.03-.05-.07-.02-.52.36-.927.7-1.21 1.02-.29.32-.55.79-.78 1.39-.18.47-.34 1.02-.47 1.65-.66 1.97-1.26 3.14-1.795 3.51-.18.12-.28.06-.31-.18-.053-.46.1-1.36.455-2.69.36-1.33.68-2.23.98-2.7l-.15.1-.736.49c-.2.14-.4.36-.61.67-.21.31-.354.61-.437.9-.12-.236-.33-.326-.62-.27-.29.055-.59.19-.908.406-.664.46-1.25 1.11-1.76 1.96-.505.85-.87 1.71-1.094 2.577l-.01.05-.11.31c-.25.694-.45 1.2-.59 1.515-.265.572-.587 1.16-.97 1.75-.383.59-.776 1.02-1.18 1.3l-.12.08c.59-.847 1.08-1.798 1.47-2.857.385-1.06.54-1.94.46-2.64-.1-.844-.48-1.04-1.136-.59-.7.48-1.44 1.6-2.22 3.37.38-1.257.71-2.075.97-2.455l-.44.306c-.58.4-.98.79-1.19 1.17-.105.2-.25.673-.434 1.416-.07.27-.16.65-.27 1.16-.347 1-.76 1.664-1.24 1.99-.275.19-.498.24-.667.147.15-.63.2-1.164.143-1.605-.13-1.16-.78-1.34-1.95-.54-.7.48-1.304 1.13-1.82 1.96-.31.5-.562 1-.762 1.49l.01-.015c-.47 1.16-1.29 3.18-2.315 4.66s-2.04 2.56-3.03 3.24c-1.59 1.09-2.48.812-2.67-.82-.12-1.06.05-2.307.52-3.73s1.14-2.79 2.02-4.09c.874-1.3 1.82-2.29 2.82-2.98.754-.52 1.163-.51 1.224.02.04.35-.088.76-.384 1.23-.294.47-.633.84-1.02 1.1-.134.095-.26.16-.37.2-.1.235-.14.423-.128.56.01.14.093.203.24.196.15-.004.33-.08.55-.23.46-.32.89-.75 1.29-1.3.394-.55.65-1.07.763-1.555.056-.258.074-.47.055-.63-.05-.45-.336-.657-.85-.616-.516.04-1.225.37-2.13.99-.904.62-1.794 1.48-2.67 2.575-.875 1.096-1.58 2.213-2.12 3.35-.536 1.14-.94 2.25-1.207 3.33-.263 1.08-.353 2.005-.27 2.77.23 2.015 1.507 2.23 3.81.65.99-.683 1.95-1.53 2.86-2.55.91-1.016 1.65-2.046 2.21-3.09.09-.167.17-.324.24-.476.006.08.01.154.02.23.067.57.27.89.61.96.34.07.76-.07 1.25-.4.77-.53 1.37-1.147 1.817-1.86.445-.71.805-1.51 1.084-2.41.257.016.55-.09.88-.32.283-.19.57-.504.87-.94-.146.675-.31 1.457-.494 2.35-.54 2.6-.92 4.16-1.135 4.683l.71-.484c.2-.134.36-.27.48-.4s.228-.317.31-.55c.087-.23.197-.686.33-1.36l.55-2.98c.17.37.73.23 1.67-.42.946-.648 1.73-1.488 2.35-2.52.387-.638.74-1.348 1.07-2.13-.01.245 0 .48.025.696.097.844.475 1.04 1.13.59.955-.654 1.885-2.294 2.79-4.92-.14.693-.18 1.325-.114 1.895.09.76.394.96.924.6.687-.47 1.43-1.7 2.23-3.69-.04.39-.05.696-.023.92.04.383.15.62.33.71.18.09.4.045.66-.133.26-.18.48-.36.67-.545.18-.19.43-.535.74-1.04.305-.502.66-1.184 1.06-2.043l-.6 2.672c-.39 1.703-.98 2.83-1.775 3.374-.206.143-.38.206-.526.19-.145-.014-.227-.11-.247-.284-.04-.33.022-.585.192-.76-.06-.06-.15-.083-.28-.076-.124.008-.273.07-.445.19-.17.117-.32.3-.43.554-.12.25-.16.48-.14.68.043.388.25.55.62.49.37-.06.8-.26 1.29-.595.49-.34.97-.786 1.42-1.34.46-.56.824-1.135 1.11-1.735.28-.6.51-1.306.68-2.12.06-.27.14-.65.24-1.14.1-.49.16-.8.19-.926l.223-1.083s.28-1.27.47-2.02c.233-.906.493-1.55.78-1.934l-.607.414z" fill="#fff" fill-rule="nonzero"/><path d="M134.596 81.158c-3.346 2.506-6.558 5.167-8.826 7.408-.945.934-1.184 1.846-.886 2.405 3.85-3.98 5.758-5.58 8.57-7.9.498-.41.895-1.01 1.056-1.6l.086-.31m12.524-7.61c.1-.48-.014-.43-.44-.24-2.335 1.01-4.904 2.52-7.995 4.97-.52.42-.95 1.03-1.03 1.6 0 0 3.882-3.52 9.466-6.32z" fill="#fff" fill-rule="nonzero"/><g fill="#fff" stroke-linecap="butt" stroke="#656565"><path d="M147.766 177.442l97.442-56.26-60.9-35.16-97.442 56.258 60.9 35.162zm0 0v4.688l-60.903-35.162v-4.688m60.903 39.85l97.442-56.26v-4.687" stroke-width=".996"/><path d="M168.067 146.97l12.18 7.032 20.3-11.72-12.18-7.033-20.3 11.72zm-36.54 16.407l89.32-51.57L184.31 90.71l-89.326 51.57 36.542 21.097z" stroke-width=".498"/><path d="M164.007 144.624l-4.058-2.344 24.35-14.064 4.06 2.344" stroke-width=".498"/><path d="M139.65 158.69l-36.544-21.098" stroke-width=".495"/><path d="M147.766 154l-36.538-21.096m44.66 16.408l-36.543-21.097m40.602 14.065l-32.48-18.753m40.602 14.065l-32.49-18.752m40.6 14.06l-32.48-18.753m40.6 14.064l-32.48-18.75m44.66 16.41l-36.54-21.09m44.66 16.41l-36.54-21.1m44.66 16.41l-36.54-21.1m-73.08 51.57l89.32-51.57m-81.21 56.26l89.32-51.57m-81.21 56.26l89.32-51.57m-81.2 56.26l89.32-51.57" stroke-width=".498"/><path d="M86.865 142.28V67.27l97.442-56.26v75.01l-97.442 56.26z" stroke-width=".996"/><path d="M94.986 128.215V71.957l81.2-46.882v56.258l-81.2 46.882z" stroke-width=".498"/></g><path d="M218.082 137.052l-59.684 34.46v3.497l62.71-37.68-3.026-.29" fill="#fff"/><path d="M124.256 94.316l-2.716-9.468-2.716 12.49-2.3 1.28-2.487-17.03 2.28-1.268 1.656 14.107 2.417-11.77 2.416-1.344 2.417 9.08 1.657-15.95 2.164-1.203-2.486 19.796-2.302 1.28zm16.112-8.962l-2.716-9.468-2.716 12.49-2.302 1.28-2.486-17.03 2.28-1.268 1.656 14.108 2.417-11.77 2.42-1.345 2.42 9.09L143 65.49l2.163-1.205-2.486 19.795-2.3 1.28zm16.112-8.96l-2.717-9.47-2.716 12.49-2.3 1.28-2.487-17.03 2.28-1.27 1.656 14.11 2.416-11.77 2.417-1.345 2.41 9.08 1.65-15.95 2.16-1.21-2.49 19.79-2.3 1.28z" fill="#656565" fill-rule="nonzero"/></svg>