<svg viewBox="0 0 310 200" xmlns="http://www.w3.org/2000/svg" fill-rule="evenodd" clip-rule="evenodd" stroke-linecap="round" stroke-linejoin="round" stroke-miterlimit="1.414"><path d="M116.447 152.205l33.4-19.282m45.903 19.282l-33.4-19.282" stroke-width="1.002" stroke="#D3D3D3"/><path d="M-162.723 285.96L472.715-80.928m-635.438 257.563L472.715-190.25M-162.723 67.31l635.438-366.885m-635.438 651.13L472.715-15.333M-162.723 242.23l635.438-366.886m-635.438 257.562L472.715-233.98M-162.723 23.582l635.438-366.886m-635.438 760.452L472.715 50.262m-635.438 432.48l635.438-366.885m-635.438 432.48L472.715 181.45m-635.438 126.374L472.715-59.062M-162.723 198.5l635.438-366.886M-162.723 89.176L472.715-277.71m-635.438 651.13L472.715 6.532m-635.438 257.562l635.438-366.886M-162.723 154.77l635.438-366.886M-162.723 45.446L472.715-321.44m-635.438 760.453L472.715 72.127m-635.438 432.48L472.715 137.72m-635.438 191.97L472.715-37.198m-635.438 257.563L472.715-146.52m-635.438 257.56l635.438-366.885M-162.723 1.717L472.715-365.17m-635.438 760.453L472.715 28.397m-635.438 432.48L472.715 93.993m-635.438 432.48l635.438-366.886" stroke-width=".344" stroke-linecap="butt" stroke="#D3D3D3"/><path d="M116.447 152.205l33.4-19.282m45.903 19.282l-33.4-19.282" stroke-width="1.002" stroke="#D3D3D3"/><path d="M-162.723 285.96L472.715-80.928m-635.438 257.563L472.715-190.25M-162.723 67.31l635.438-366.885m-635.438 651.13L472.715-15.333M-162.723 242.23l635.438-366.886m-635.438 257.562L472.715-233.98M-162.723 23.582l635.438-366.886m-635.438 760.452L472.715 50.262m-635.438 432.48l635.438-366.885m-635.438 432.48L472.715 181.45m-635.438 126.374L472.715-59.062M-162.723 198.5l635.438-366.886M-162.723 89.176L472.715-277.71m-635.438 651.13L472.715 6.532m-635.438 257.562l635.438-366.886M-162.723 154.77l635.438-366.886M-162.723 45.446L472.715-321.44m-635.438 760.453L472.715 72.127m-635.438 432.48L472.715 137.72m-635.438 191.97L472.715-37.198m-635.438 257.563L472.715-146.52m-635.438 257.56l635.438-366.885M-162.723 1.717L472.715-365.17m-635.438 760.453L472.715 28.397m-635.438 432.48L472.715 93.993m-635.438 432.48l635.438-366.886" stroke-width=".344" stroke-linecap="butt" stroke="#D3D3D3"/><path d="M193.553 152.205l-33.4-19.282m-45.903 19.282l33.4-19.282" stroke-width="1.002" stroke="#D3D3D3"/><path d="M472.723 285.96L-162.715-80.928m635.438 257.563L-162.715-190.25M472.723 67.31l-635.438-366.885m635.438 651.13L-162.715-15.333M472.723 242.23l-635.438-366.886m635.438 257.562L-162.715-233.98M472.723 23.582l-635.438-366.886m635.438 760.452L-162.715 50.262m635.438 432.48l-635.438-366.885m635.438 432.48L-162.715 181.45m635.438 126.374L-162.715-59.062M472.723 198.5l-635.438-366.886M472.723 89.176L-162.715-277.71m635.438 651.13L-162.715 6.532m635.438 257.562l-635.438-366.886M472.723 154.77l-635.438-366.886M472.723 45.446L-162.715-321.44m635.438 760.453L-162.715 72.127m635.438 432.48L-162.715 137.72m635.438 191.97L-162.715-37.198m635.438 257.563L-162.715-146.52m635.438 257.56l-635.438-366.885M472.723 1.717L-162.715-365.17m635.438 760.453L-162.715 28.397m635.438 432.48L-162.715 93.993m635.438 432.48l-635.438-366.886" stroke-width=".344" stroke-linecap="butt" stroke="#D3D3D3"/><path d="M193.553 152.205l-33.4-19.282m-45.903 19.282l33.4-19.282" stroke-width="1.002" stroke="#D3D3D3"/><path d="M472.723 285.96L-162.715-80.928m635.438 257.563L-162.715-190.25M472.723 67.31l-635.438-366.885m635.438 651.13L-162.715-15.333M472.723 242.23l-635.438-366.886m635.438 257.562L-162.715-233.98M472.723 23.582l-635.438-366.886m635.438 760.452L-162.715 50.262m635.438 432.48l-635.438-366.885m635.438 432.48L-162.715 181.45m635.438 126.374L-162.715-59.062M472.723 198.5l-635.438-366.886M472.723 89.176L-162.715-277.71m635.438 651.13L-162.715 6.532m635.438 257.562l-635.438-366.886M472.723 154.77l-635.438-366.886M472.723 45.446L-162.715-321.44m635.438 760.453L-162.715 72.127m635.438 432.48L-162.715 137.72m635.438 191.97L-162.715-37.198m635.438 257.563L-162.715-146.52m635.438 257.56l-635.438-366.885M472.723 1.717L-162.715-365.17m635.438 760.453L-162.715 28.397m635.438 432.48L-162.715 93.993m635.438 432.48l-635.438-366.886" stroke-width=".344" stroke-linecap="butt" stroke="#D3D3D3"/><path d="M145.602 69.566c-.23.593-.498 1.157-.808 1.692-.31.535-.592.89-.847 1.065-.236.162-.37.1-.403-.185-.076-.663.142-1.624.654-2.884.513-1.26 1.094-2.112 1.742-2.556.364-.25.61-.26.744-.034-.216.615-.577 1.582-1.082 2.902m-7.82 7.788c-.284.195-.45.077-.5-.356-.05-.433.11-1.144.485-2.135.374-.99.745-1.772 1.114-2.343.23-.352.44-.6.65-.74.06-.04.11-.067.14-.078.15-.064.24.02.27.25.06.533-.152 1.48-.643 2.838-.49 1.36-.99 2.213-1.502 2.564m-3.75-1.63c-.243.17-.43.376-.555.62-.124.246-.173.492-.144.74.046.406.25.627.617.665-.19.67-.44 1.34-.75 2-.31.66-.677 1.14-1.1 1.43-.513.32-.802.21-.865-.347-.064-.55.04-1.29.318-2.214.507-1.677 1.1-2.75 1.777-3.214.433-.297.696-.215.792.246l-.09.06zm20.684-15.4c-.247.167-.51.377-.787.628-.085.08-.166.18-.242.3l-.18.296c-.043.075-.09.192-.14.35-.05.16-.088.28-.11.366-.023.085-.06.24-.114.465l-.124.51c-.215.86-.562 1.81-1.04 2.85-.47 1.04-.884 1.68-1.24 1.924-.184.13-.3.036-.332-.277-.065-.59.06-1.456.38-2.598s.66-2.02 1.026-2.628c.053-.096.077-.16.073-.2-.007-.037-.028-.042-.068-.015-.52.36-.925.7-1.21 1.025-.287.324-.546.79-.778 1.396-.18.47-.34 1.02-.47 1.65-.66 1.97-1.26 3.14-1.795 3.51-.18.12-.28.06-.31-.18-.053-.46.1-1.36.455-2.69.358-1.33.68-2.23.98-2.7l-.148.1-.736.49c-.2.136-.4.36-.61.67-.21.31-.354.61-.437.897-.12-.234-.33-.324-.62-.27-.29.057-.59.19-.905.408-.666.46-1.253 1.11-1.76 1.96-.507.85-.872 1.708-1.096 2.576l-.012.05-.11.31c-.25.695-.448 1.2-.59 1.516-.264.577-.586 1.16-.97 1.75-.382.59-.775 1.024-1.177 1.3l-.12.08c.593-.842 1.083-1.793 1.47-2.852.387-1.06.54-1.94.46-2.64-.097-.846-.475-1.043-1.134-.592-.697.48-1.437 1.6-2.22 3.37.385-1.257.71-2.075.974-2.455l-.44.302c-.58.4-.975.79-1.185 1.17-.107.2-.25.673-.436 1.416-.07.265-.157.65-.27 1.155-.345 1-.76 1.665-1.24 1.99-.273.19-.496.24-.665.148.15-.63.2-1.167.145-1.608-.13-1.16-.782-1.34-1.95-.538-.7.478-1.306 1.132-1.82 1.96-.31.5-.564.997-.764 1.488l.006-.015c-.472 1.16-1.29 3.18-2.317 4.66s-2.04 2.56-3.03 3.24c-1.594 1.09-2.484.815-2.67-.82-.12-1.06.05-2.304.516-3.73s1.14-2.79 2.02-4.088c.876-1.3 1.82-2.29 2.82-2.98.756-.52 1.165-.51 1.226.02.04.35-.086.76-.382 1.23-.295.47-.634.84-1.02 1.1-.135.096-.26.16-.372.2-.1.236-.14.424-.126.56.014.14.096.204.244.197.148-.007.33-.085.546-.23.46-.32.89-.75 1.29-1.3.397-.555.652-1.07.766-1.558.056-.257.074-.468.055-.633-.05-.45-.334-.654-.85-.613-.514.04-1.223.37-2.127.99-.903.62-1.793 1.478-2.67 2.575-.874 1.095-1.58 2.212-2.12 3.35-.535 1.137-.94 2.247-1.206 3.33-.267 1.08-.357 2.004-.27 2.77.23 2.014 1.503 2.23 3.81.65.99-.684 1.945-1.53 2.857-2.55.91-1.017 1.65-2.047 2.208-3.09.09-.168.17-.325.243-.477.004.08.01.156.02.233.065.57.27.893.61.96.34.07.76-.065 1.25-.4.767-.526 1.37-1.144 1.815-1.855.445-.71.805-1.513 1.084-2.41.256.014.55-.092.88-.32.282-.192.57-.506.87-.94-.147.673-.31 1.455-.495 2.346-.54 2.6-.918 4.16-1.133 4.687l.71-.483c.2-.135.36-.27.48-.403s.224-.314.31-.55c.083-.23.193-.683.33-1.36l.545-2.98c.17.37.727.23 1.67-.417.944-.648 1.727-1.488 2.35-2.52.385-.638.74-1.348 1.068-2.13-.01.245 0 .48.025.696.096.846.474 1.043 1.13.592.954-.654 1.884-2.294 2.79-4.92-.142.693-.18 1.325-.115 1.895.09.76.397.96.927.6.685-.47 1.428-1.7 2.23-3.69-.04.386-.05.693-.025.917.04.384.148.622.328.712.18.09.4.045.66-.133.26-.18.484-.36.67-.546.184-.188.43-.533.74-1.037.306-.504.66-1.186 1.06-2.045l-.6 2.673c-.387 1.705-.978 2.83-1.774 3.376-.208.143-.38.206-.528.19-.143-.014-.225-.11-.245-.284-.04-.33.026-.585.196-.76-.06-.06-.15-.083-.28-.076-.123.008-.272.07-.444.19-.17.117-.316.3-.43.554-.115.252-.16.48-.137.68.046.388.25.55.62.492.37-.06.8-.26 1.29-.596.49-.338.968-.784 1.42-1.34.46-.556.827-1.133 1.108-1.733.28-.6.507-1.305.68-2.12.063-.27.144-.65.242-1.14.1-.49.16-.8.19-.925.026-.126.1-.49.224-1.083s.28-1.27.47-2.024c.234-.905.494-1.55.78-1.933l-.606.412z" fill="#fff" fill-rule="nonzero"/><path d="M134.596 81.158c-3.346 2.506-6.558 5.167-8.826 7.408-.945.934-1.184 1.846-.886 2.405 3.85-3.98 5.758-5.58 8.57-7.9.498-.41.895-1.01 1.056-1.6l.086-.31m12.524-7.61c.1-.48-.014-.43-.44-.24-2.335 1.008-4.904 2.518-7.995 4.966-.52.413-.95 1.025-1.03 1.6 0 0 3.882-3.52 9.466-6.32z" fill="#fff" fill-rule="nonzero"/><g fill="#fff" stroke-linecap="butt" stroke="#656565"><path d="M147.766 177.442l97.442-56.26-60.9-35.16-97.442 56.258 60.9 35.162zm0 0v4.688l-60.903-35.162v-4.688m60.903 39.85l97.442-56.26v-4.687" stroke-width=".996"/><path d="M168.067 146.97l12.18 7.032 20.3-11.72-12.18-7.033-20.3 11.72zm-36.54 16.407l89.32-51.57L184.31 90.71l-89.326 51.57 36.542 21.097z" stroke-width=".498"/><path d="M164.007 144.624l-4.058-2.344 24.35-14.064 4.06 2.344" stroke-width=".498"/><path d="M139.65 158.69l-36.544-21.098" stroke-width=".495"/><path d="M147.766 154l-36.538-21.096m44.66 16.408l-36.543-21.097m40.602 14.065l-32.48-18.753m40.602 14.065l-32.49-18.752m40.6 14.06l-32.48-18.753m40.6 14.064l-32.48-18.75m44.66 16.41l-36.54-21.09m44.66 16.41l-36.54-21.1m44.66 16.41l-36.54-21.1m-73.08 51.57l89.323-51.57m-81.203 56.26l89.325-51.573m-81.21 56.26l89.32-51.572m-81.2 56.26l89.322-51.57" stroke-width=".498"/><path d="M86.865 142.28V67.27l97.442-56.26v75.01l-97.442 56.26z" stroke-width=".996"/><path d="M94.986 128.215V71.957l81.2-46.882v56.258l-81.2 46.882z" stroke-width=".498"/></g><path d="M218.082 137.052l-59.684 34.46v3.497l62.71-37.68-3.026-.29" fill="#fff"/><path d="M124.256 94.316l-2.716-9.468-2.716 12.49-2.3 1.28-2.487-17.03 2.28-1.268 1.656 14.107 2.417-11.77 2.416-1.344 2.417 9.08 1.657-15.95 2.164-1.203-2.486 19.796-2.302 1.28zm16.112-8.962l-2.716-9.468-2.716 12.49-2.302 1.28-2.486-17.03 2.28-1.268 1.656 14.108 2.417-11.77 2.42-1.345 2.42 9.09L143 65.49l2.163-1.205-2.486 19.795-2.3 1.28zm16.112-8.96l-2.717-9.47-2.716 12.49-2.3 1.28-2.487-17.03 2.28-1.27 1.656 14.11 2.416-11.77 2.417-1.345 2.41 9.08 1.65-15.95 2.165-1.21-2.486 19.79-2.3 1.28z" fill="#656565" fill-rule="nonzero"/></svg>