<svg viewBox="0 0 310 200" xmlns="http://www.w3.org/2000/svg" fill-rule="evenodd" clip-rule="evenodd" stroke-linejoin="round" stroke-miterlimit="1.414"><path d="M-162.723 285.96L472.715-80.928m-635.438 257.563L472.715-190.25M-162.723 67.31l635.438-366.885m-635.438 651.13L472.715-15.333M-162.723 242.23l635.438-366.886m-635.438 257.562L472.715-233.98M-162.723 23.582l635.438-366.886m-635.438 760.452L472.715 50.262m-635.438 432.48l635.438-366.885m-635.438 432.48L472.715 181.45m-635.438 126.374L472.715-59.062M-162.723 198.5l635.438-366.886M-162.723 89.176L472.715-277.71m-635.438 651.13L472.715 6.532m-635.438 257.562l635.438-366.886M-162.723 154.77l635.438-366.886M-162.723 45.446L472.715-321.44m-635.438 760.453L472.715 72.127m-635.438 432.48L472.715 137.72m-635.438 191.97L472.715-37.198m-635.438 257.563L472.715-146.52m-635.438 257.56l635.438-366.885M-162.723 1.717L472.715-365.17m-635.438 760.453L472.715 28.397m-635.438 432.48L472.715 93.993m-635.438 432.48l635.438-366.886M-162.723 285.96L472.715-80.928m-635.438 257.563L472.715-190.25M-162.723 67.31l635.438-366.885m-635.438 651.13L472.715-15.333M-162.723 242.23l635.438-366.886m-635.438 257.562L472.715-233.98M-162.723 23.582l635.438-366.886m-635.438 760.452L472.715 50.262m-635.438 432.48l635.438-366.885m-635.438 432.48L472.715 181.45m-635.438 126.374L472.715-59.062M-162.723 198.5l635.438-366.886M-162.723 89.176L472.715-277.71m-635.438 651.13L472.715 6.532m-635.438 257.562l635.438-366.886M-162.723 154.77l635.438-366.886M-162.723 45.446L472.715-321.44m-635.438 760.453L472.715 72.127m-635.438 432.48L472.715 137.72m-635.438 191.97L472.715-37.198m-635.438 257.563L472.715-146.52m-635.438 257.56l635.438-366.885M-162.723 1.717L472.715-365.17m-635.438 760.453L472.715 28.397m-635.438 432.48L472.715 93.993m-635.438 432.48l635.438-366.886m.008 126.374L-162.715-80.92m635.438 257.56l-635.438-366.89M472.723 67.31l-635.438-366.885m635.438 651.13L-162.715-15.333M472.723 242.23l-635.438-366.886m635.438 257.562L-162.715-233.98M472.723 23.582l-635.438-366.886m635.438 760.452L-162.715 50.262m635.438 432.48l-635.438-366.885m635.438 432.48L-162.715 181.45m635.438 126.374L-162.715-59.062M472.723 198.5l-635.438-366.886M472.723 89.176L-162.715-277.71m635.438 651.13L-162.715 6.532m635.438 257.562l-635.438-366.886M472.723 154.77l-635.438-366.886M472.723 45.446L-162.715-321.44m635.438 760.453L-162.715 72.127m635.438 432.48L-162.715 137.72m635.438 191.97L-162.715-37.198m635.438 257.563L-162.715-146.52m635.438 257.56l-635.438-366.885M472.723 1.717L-162.715-365.17m635.438 760.453L-162.715 28.397m635.438 432.48L-162.715 93.993m635.438 432.48l-635.438-366.886M472.723 285.96L-162.715-80.928m635.438 257.563L-162.715-190.25M472.723 67.31l-635.438-366.885m635.438 651.13L-162.715-15.333M472.723 242.23l-635.438-366.886m635.438 257.562L-162.715-233.98M472.723 23.582l-635.438-366.886m635.438 760.452L-162.715 50.262m635.438 432.48l-635.438-366.885m635.438 432.48L-162.715 181.45m635.438 126.374L-162.715-59.062M472.723 198.5l-635.438-366.886M472.723 89.176L-162.715-277.71m635.438 651.13L-162.715 6.532m635.438 257.562l-635.438-366.886M472.723 154.77l-635.438-366.886M472.723 45.446L-162.715-321.44m635.438 760.453L-162.715 72.127m635.438 432.48L-162.715 137.72m635.438 191.97L-162.715-37.198m635.438 257.563L-162.715-146.52m635.438 257.56l-635.438-366.885M472.723 1.717L-162.715-365.17m635.438 760.453L-162.715 28.397m635.438 432.48L-162.715 93.993m635.438 432.48l-635.438-366.886" stroke-width=".344" stroke="#D3D3D3"/><path d="M47.76 67.358v76.8l38.8-22.4v-89.6l-38.8 22.4v12.8z" fill="#fff" stroke="#4E4D4C"/><path d="M83.788 107.358v-57.6l-33.255 19.2v57.6l33.255-19.2z" fill="#fff" stroke-width=".5" stroke="#4E4D4C"/><path d="M42.22 51.358v89.6l5.54 3.2v-89.6l-5.54-3.2z" fill="#fff" stroke="#4E4D4C"/><path d="M86.56 32.158l-5.543-3.2-38.798 22.4 5.54 3.2" fill="#fff" stroke="#4E4D4C"/><circle cx="75.102" cy="252.109" r="4.281" fill="#fff" stroke-width=".51" stroke="#4E4D4C" transform="matrix(-.67822 .39348 0 .8018 118.23 -108.176)"/><path d="M108.08 179.233v.022H95.885v-.022h-.045c-.892 0-1.616-.724-1.616-1.616 0-.893.724-1.617 1.616-1.617.065 0 .128.004.19.01l11.69.033c.12-.028.244-.043.37-.043.893 0 1.618.724 1.618 1.617 0 .892-.725 1.617-1.617 1.617h-.01z" fill="#fff" stroke-width=".47" stroke="#656565" transform="matrix(-.67497 .41496 0 .94284 136.3 -159.302)"/><path d="M109.78 193.23l1.577-.686L144.107 176" fill="none" stroke-width=".64" stroke-dasharray="3.21,1.28,0,0" stroke="#595959" transform="matrix(1.46354 0 0 -1.64762 -92.772 442.152)"/><path d="M109.78 193.23l1.577-.686L144.107 176" fill="none" stroke-width=".64" stroke-dasharray="3.21,1.28,0,0" stroke="#595959" transform="matrix(-1.46354 0 0 -1.64762 332.684 442.152)"/><path d="M214.832 66.637c-.167.434-.364.847-.59 1.238-.227.39-.434.65-.62.78-.173.117-.27.072-.295-.137-.056-.484.104-1.187.48-2.11.374-.92.798-1.543 1.272-1.868.26-.183.44-.19.54-.025-.16.45-.42 1.157-.79 2.122m-5.72 5.696c-.21.143-.33.056-.37-.26-.04-.317.08-.837.35-1.562.27-.72.54-1.29.81-1.71.16-.26.32-.44.47-.54.04-.03.07-.05.09-.05.11-.04.17.02.19.18.04.4-.11 1.09-.47 2.08s-.73 1.62-1.1 1.88m-2.74-1.19c-.18.13-.32.28-.41.46-.09.18-.13.36-.11.54.03.3.18.46.45.49-.14.49-.32.98-.55 1.47-.23.49-.5.83-.81 1.05-.38.24-.59.15-.64-.25-.05-.4.03-.94.23-1.62.37-1.22.8-2.01 1.3-2.35.31-.21.51-.15.58.18l-.07.05zm15.13-11.26c-.18.12-.37.28-.58.46-.06.06-.12.13-.18.22s-.1.16-.14.22c-.03.06-.07.14-.1.26-.04.12-.07.21-.08.27-.02.06-.05.18-.09.34l-.09.38c-.16.64-.41 1.33-.76 2.09-.34.76-.65 1.23-.91 1.41-.13.1-.21.03-.24-.2-.05-.43.04-1.06.28-1.9.23-.83.48-1.47.75-1.92.04-.07.05-.12.05-.14 0-.02-.02-.03-.05-.01-.38.26-.68.51-.89.75-.21.24-.4.58-.57 1.02-.13.34-.25.75-.34 1.21-.48 1.44-.92 2.29-1.32 2.57-.13.09-.21.05-.23-.13-.04-.33.07-.99.33-1.96s.5-1.63.72-1.98l-.11.08-.54.36c-.146.1-.29.26-.446.49-.158.23-.26.44-.32.65-.09-.17-.24-.23-.458-.19-.21.04-.43.14-.66.3-.49.34-.92.81-1.29 1.44-.37.62-.64 1.248-.8 1.88l-.01.04-.09.23c-.18.507-.32.876-.43 1.11-.19.42-.427.846-.707 1.28-.28.43-.568.746-.86.95l-.09.06c.433-.62.79-1.315 1.074-2.09.285-.776.397-1.42.34-1.93-.073-.62-.35-.764-.83-.434-.51.35-1.05 1.17-1.624 2.46.28-.92.52-1.515.71-1.793l-.32.22c-.42.29-.71.58-.863.86-.07.143-.18.49-.313 1.03-.05.193-.11.475-.193.844-.25.73-.55 1.218-.9 1.458-.2.14-.362.178-.49.11.11-.46.15-.852.11-1.175-.1-.85-.57-.98-1.43-.4-.51.35-.95.823-1.33 1.43-.222.367-.41.73-.553 1.09v-.01c-.344.85-.94 2.326-1.694 3.41-.75 1.08-1.49 1.87-2.22 2.37-1.16.795-1.81.595-1.95-.6-.09-.777.04-1.685.38-2.73.345-1.05.837-2.04 1.48-2.99.64-.95 1.33-1.68 2.06-2.18.55-.38.85-.37.9.02.03.26-.06.56-.28.9-.214.34-.46.61-.74.8-.1.07-.19.12-.27.15-.077.18-.11.31-.097.413.012.1.072.15.18.144.11-.008.24-.06.4-.17.34-.23.65-.55.942-.95.29-.41.473-.78.56-1.14.04-.19.05-.34.04-.466-.04-.33-.25-.48-.62-.45-.38.03-.9.27-1.56.728-.66.457-1.316 1.08-1.956 1.887-.64.8-1.156 1.62-1.55 2.45-.39.83-.686 1.65-.88 2.44-.19.79-.26 1.47-.197 2.03.17 1.48 1.1 1.64 2.79.48.73-.49 1.42-1.11 2.09-1.86.67-.74 1.206-1.5 1.61-2.26.07-.12.13-.24.18-.35 0 .06.01.12.016.17.05.42.2.66.45.71.25.05.56-.05.92-.29.56-.385 1-.84 1.32-1.36.32-.52.58-1.105.79-1.76.18.01.4-.066.64-.23.21-.14.42-.37.63-.69l-.36 1.72c-.39 1.9-.67 3.04-.823 3.42l.515-.35c.146-.1.26-.2.35-.295.09-.1.17-.23.23-.4s.14-.5.24-1l.4-2.18c.12.27.53.17 1.22-.3s1.26-1.09 1.72-1.84c.28-.47.54-.988.78-1.56-.01.18 0 .35.02.51.07.62.345.77.83.44.69-.48 1.37-1.68 2.04-3.6-.11.504-.14.97-.09 1.383.065.56.29.7.68.44.498-.345 1.04-1.24 1.63-2.7-.03.28-.04.505-.02.67.028.28.108.455.24.52s.29.034.48-.096.356-.26.49-.4c.137-.14.318-.39.54-.76.228-.37.487-.865.78-1.49l-.44 1.95c-.28 1.246-.71 2.07-1.295 2.47-.15.1-.28.15-.386.137-.1-.01-.16-.08-.18-.2-.025-.24.02-.43.15-.56-.046-.04-.11-.06-.206-.053-.09.01-.2.05-.33.14-.12.09-.23.22-.31.408-.083.18-.12.35-.1.5.03.28.18.4.45.36.27-.05.59-.19.95-.44s.7-.57 1.04-.98c.33-.404.6-.83.804-1.27.2-.44.37-.95.492-1.55.05-.2.104-.47.18-.83l.133-.68.166-.79c.09-.43.21-.92.34-1.48.18-.66.37-1.13.57-1.41l-.44.305z" fill="#595959" fill-rule="nonzero"/><path d="M206.784 75.115c-2.448 1.833-4.796 3.778-6.455 5.417-.7.683-.87 1.35-.65 1.76 2.81-2.914 4.21-4.083 6.26-5.782.36-.3.65-.743.77-1.17l.06-.225m9.16-5.568c.07-.35-.01-.313-.33-.18-1.71.738-3.59 1.842-5.85 3.632-.38.3-.7.75-.76 1.17 0 0 2.84-2.58 6.92-4.63z" fill="#595959" fill-rule="nonzero"/><g fill="#fff" stroke="#656565"><path d="M216.415 145.53l71.26-41.142-44.537-25.715-71.26 41.143 44.537 25.715zm0 0v3.43l-44.54-25.715v-3.43m44.54 29.144l71.26-41.15v-3.43" stroke-width=".996"/><path d="M231.262 123.244l8.908 5.143 14.846-8.57-8.907-5.144-14.85 8.57zm-26.724 12L269.86 97.53l-26.72-15.428-65.326 37.714 26.724 15.43z" stroke-width=".504"/><path d="M228.292 121.53l-2.967-1.714 17.814-10.286 2.96 1.714" stroke-width=".504"/><path d="M210.478 131.815l-26.725-15.43" stroke-width=".505"/><path d="M216.415 128.388l-26.722-15.43m32.66 12L195.63 109.53m29.692 10.287l-23.753-13.714m29.69 10.286l-23.76-13.72m29.69 10.28l-23.75-13.71m29.69 10.28l-23.75-13.71m32.66 12l-26.72-15.42m32.66 12l-26.72-15.43m32.66 12L237.2 85.53m-53.447 37.715l65.323-37.715m-59.385 41.143l65.33-37.713m-59.39 41.14l65.33-37.714m-59.39 41.144l65.33-37.714" stroke-width=".504"/><path d="M171.876 119.816V64.96l71.26-41.144v54.857l-71.26 41.143z" stroke-width=".996"/><path d="M177.815 109.53V68.39L237.2 34.102v41.143l-59.384 34.286z" stroke-width=".504"/></g><path d="M73.45 82.552c-.177.462-.387.9-.628 1.317-.24.41-.46.69-.66.83-.183.12-.288.07-.313-.15-.06-.52.11-1.27.51-2.25.39-.98.85-1.65 1.35-1.99.28-.2.47-.21.58-.03-.17.48-.45 1.23-.85 2.26m-6.08 6.07c-.22.15-.35.06-.39-.28-.04-.34.08-.89.38-1.67.29-.77.58-1.38.86-1.83.17-.28.34-.47.5-.58.04-.03.08-.06.1-.06.12-.05.18.01.21.19.05.41-.12 1.15-.5 2.21-.38 1.05-.77 1.72-1.17 1.99m-2.92-1.27c-.19.13-.33.29-.43.48-.1.19-.13.38-.11.57.03.32.19.49.48.52-.15.52-.34 1.04-.58 1.56-.24.52-.53.89-.86 1.11-.4.25-.63.16-.68-.27-.05-.43.03-1.01.24-1.73.39-1.31.85-2.14 1.38-2.5.34-.23.54-.17.62.19l-.07.05zm16.11-11.99c-.2.13-.4.29-.62.49-.07.06-.13.14-.19.23l-.14.23c-.04.06-.07.15-.11.27l-.09.28-.09.36-.1.4c-.17.67-.44 1.41-.81 2.22-.37.81-.69 1.31-.97 1.5-.15.1-.24.02-.26-.22-.06-.46.04-1.13.29-2.02.25-.89.51-1.57.8-2.05.04-.08.06-.13.05-.16-.01-.03-.02-.03-.05-.01-.41.28-.72.54-.95.8-.22.25-.42.61-.6 1.09-.14.36-.26.79-.37 1.28-.51 1.53-.98 2.44-1.39 2.73-.14.1-.22.05-.24-.14-.04-.36.07-1.05.35-2.09.28-1.04.53-1.74.76-2.1l-.12.08-.58.38c-.15.1-.31.28-.47.52-.16.24-.28.47-.34.69-.1-.18-.26-.25-.48-.21-.23.04-.46.15-.71.32-.52.35-.98.86-1.38 1.52s-.68 1.33-.85 2l-.01.04-.09.24c-.194.54-.35.93-.46 1.18-.2.45-.454.9-.75 1.36-.3.46-.608.8-.92 1.01l-.09.06c.46-.66.84-1.4 1.142-2.22.3-.83.42-1.51.36-2.06-.08-.66-.37-.818-.89-.467-.55.376-1.12 1.25-1.73 2.626.3-.98.55-1.62.76-1.91l-.35.23c-.45.31-.76.616-.92.91-.08.16-.19.527-.34 1.1l-.21.9c-.27.78-.59 1.3-.966 1.55-.215.15-.39.19-.52.12.12-.49.156-.91.116-1.25-.1-.9-.61-1.04-1.52-.42-.54.37-1.01.88-1.41 1.53-.24.39-.44.775-.59 1.16 0-.01.004-.01.006-.01-.366.9-1 2.47-1.8 3.62-.8 1.154-1.59 1.994-2.36 2.524-1.24.85-1.93.64-2.08-.64-.098-.83.04-1.793.4-2.91.362-1.11.89-2.17 1.57-3.18.685-1.01 1.42-1.78 2.2-2.31.59-.41.905-.4.953.01.03.273-.07.593-.3.96-.23.37-.494.65-.793.86-.103.07-.2.12-.29.15-.08.18-.11.33-.1.44.017.1.08.15.19.15.12-.007.26-.07.43-.18.36-.25.69-.587 1-1.016.31-.43.51-.83.6-1.21.05-.2.06-.364.05-.49-.04-.35-.26-.51-.66-.48-.4.034-.95.29-1.655.774-.7.48-1.396 1.15-2.08 2.003-.68.852-1.23 1.722-1.65 2.61-.416.883-.73 1.75-.94 2.59-.206.84-.277 1.56-.21 2.154.18 1.57 1.17 1.74 2.97.5.77-.53 1.51-1.19 2.22-1.98s1.28-1.59 1.72-2.404c.07-.13.13-.25.19-.37 0 .06.003.12.01.18.05.45.21.7.474.756.27.05.59-.05.974-.313.6-.41 1.07-.89 1.416-1.44.346-.55.627-1.18.84-1.874.2.01.427-.07.68-.24.22-.15.45-.39.68-.73l-.38 1.83c-.42 2.02-.72 3.24-.88 3.64l.55-.38c.15-.105.273-.21.37-.314.093-.1.174-.24.24-.42s.15-.53.257-1.06l.427-2.32c.13.29.56.18 1.3-.32.73-.5 1.34-1.157 1.83-1.96.3-.497.575-1.05.83-1.66-.01.19 0 .37.02.54.07.66.37.82.88.46.74-.5 1.466-1.78 2.17-3.83-.11.54-.14 1.04-.09 1.48.07.6.31.75.72.47.53-.364 1.11-1.32 1.737-2.87-.034.3-.04.54-.024.715.03.3.12.48.26.55.14.07.31.037.51-.1.204-.14.377-.28.52-.424.146-.145.34-.414.577-.81.24-.39.51-.92.82-1.59l-.46 2.08c-.3 1.33-.76 2.208-1.38 2.63-.16.11-.296.16-.41.15-.11-.012-.176-.09-.19-.222-.03-.26.02-.46.153-.593-.05-.04-.12-.06-.22-.06-.1.01-.215.06-.35.15-.134.09-.246.236-.334.43-.09.2-.12.376-.11.53.04.3.2.43.49.385.286-.05.62-.2 1-.46s.75-.61 1.11-1.04c.354-.44.64-.89.86-1.35.22-.47.395-1.02.53-1.65.05-.21.11-.51.19-.89.073-.38.122-.62.143-.72l.18-.85c.09-.46.213-.99.36-1.57.183-.707.39-1.21.61-1.507l-.47.32zM215 67.94c-.18.463-.387.9-.63 1.318-.24.417-.46.693-.66.83-.182.125-.29.077-.312-.145-.06-.518.11-1.266.51-2.247.4-.98.85-1.645 1.354-1.99.284-.195.477-.204.58-.027-.17.48-.45 1.23-.843 2.26M208.91 74c-.222.153-.353.06-.39-.276-.04-.34.086-.895.377-1.667.29-.77.58-1.38.867-1.825.173-.276.34-.468.5-.578.046-.03.08-.05.104-.06.12-.05.19.016.21.196.047.413-.12 1.15-.5 2.21-.384 1.056-.774 1.72-1.17 1.994M206 72.75c-.19.133-.335.293-.433.484-.098.19-.136.382-.114.575.037.31.197.48.48.51-.145.52-.34 1.04-.58 1.56-.243.52-.528.89-.857 1.11-.4.25-.625.16-.675-.27-.05-.43.04-1.01.25-1.73.4-1.31.86-2.14 1.39-2.5.34-.23.54-.17.62.19l-.07.04zm16.1-11.99c-.19.132-.394.295-.61.49-.068.062-.13.14-.19.235-.06.096-.107.172-.14.23-.036.06-.073.15-.11.274-.04.12-.07.21-.087.28-.018.06-.047.18-.09.36l-.095.4c-.17.67-.44 1.41-.81 2.22-.368.81-.69 1.31-.966 1.49-.14.1-.23.02-.26-.22-.05-.46.05-1.13.298-2.02.25-.89.515-1.57.8-2.05.04-.07.06-.12.055-.15-.002-.03-.02-.04-.05-.02-.405.28-.72.54-.94.8-.224.25-.426.61-.607 1.08-.14.37-.262.79-.363 1.28-.514 1.53-.98 2.44-1.4 2.73-.137.09-.216.05-.238-.14-.04-.36.077-1.06.354-2.09.28-1.04.53-1.74.76-2.11l-.11.08-.57.38c-.15.1-.31.28-.47.52-.16.24-.27.48-.34.7-.09-.18-.25-.25-.48-.21-.23.04-.46.15-.71.32-.52.35-.97.86-1.37 1.52-.39.66-.68 1.33-.85 2 0 .01 0 .02-.01.03l-.08.24c-.19.54-.35.93-.46 1.18-.2.45-.45.9-.75 1.36-.29.46-.6.8-.91 1.01l-.09.06c.46-.66.85-1.4 1.15-2.22.3-.83.42-1.51.36-2.06-.07-.66-.37-.81-.88-.46-.54.37-1.12 1.24-1.73 2.62.3-.98.56-1.62.76-1.91l-.34.23c-.45.31-.76.61-.92.91-.08.157-.19.52-.33 1.1-.05.206-.12.506-.21.9-.27.777-.59 1.29-.96 1.55-.21.147-.38.18-.52.11.12-.49.16-.903.12-1.25-.1-.9-.61-1.04-1.52-.414-.54.37-1.01.88-1.41 1.526-.24.39-.44.78-.6 1.16v-.01c-.37.9-1 2.473-1.8 3.624-.8 1.15-1.59 1.99-2.36 2.52-1.24.85-1.93.64-2.08-.633-.09-.825.04-1.79.41-2.9.36-1.11.89-2.17 1.57-3.18.68-1.01 1.41-1.786 2.19-2.32.59-.405.904-.4.95.02.03.27-.07.59-.3.952-.23.37-.49.65-.79.86-.1.07-.2.12-.29.15-.073.184-.11.33-.093.44.01.11.073.16.19.15.113 0 .254-.06.423-.18.36-.247.69-.58 1-1.01.31-.43.51-.83.6-1.21.04-.2.054-.367.04-.496-.04-.35-.26-.51-.66-.48-.4.033-.95.29-1.66.773-.71.48-1.4 1.15-2.08 2.004-.68.85-1.23 1.72-1.65 2.61-.42.88-.73 1.75-.94 2.59-.21.84-.28 1.56-.21 2.154.18 1.57 1.17 1.73 2.964.5.77-.53 1.51-1.19 2.22-1.98.71-.79 1.28-1.6 1.71-2.41.07-.13.13-.25.19-.37l.02.18c.055.45.21.7.48.75.265.05.59-.053.97-.315.6-.41 1.07-.89 1.415-1.445s.626-1.18.843-1.88c.2.01.43-.07.686-.246.22-.15.44-.398.67-.736-.11.52-.24 1.13-.38 1.82-.42 2.023-.71 3.24-.88 3.65l.55-.38c.153-.11.28-.21.373-.316.09-.1.17-.25.24-.43.066-.18.15-.54.256-1.06l.424-2.32c.13.285.56.18 1.3-.326.73-.504 1.34-1.158 1.83-1.96.294-.498.57-1.05.83-1.66-.01.19 0 .37.02.542.07.66.364.81.88.46.74-.51 1.463-1.788 2.17-3.83-.11.54-.14 1.03-.09 1.48.07.59.31.75.72.46.533-.37 1.11-1.324 1.74-2.87-.037.3-.04.54-.026.71.03.3.11.487.25.557.14.07.31.04.51-.1s.38-.28.52-.424c.15-.14.34-.41.58-.802.24-.394.513-.925.824-1.594l-.46 2.09c-.3 1.32-.77 2.2-1.38 2.623-.17.11-.3.16-.41.15-.12-.02-.18-.09-.2-.23-.03-.26.02-.452.15-.59-.05-.044-.12-.064-.22-.06-.1.007-.213.056-.35.148-.13.09-.24.23-.33.43-.09.19-.12.37-.1.53.033.3.195.43.48.38.29-.05.625-.2 1.007-.46s.75-.61 1.1-1.04c.35-.44.64-.89.86-1.35.22-.47.39-1.02.53-1.65.05-.21.11-.51.19-.89.07-.38.12-.62.14-.72l.175-.85c.095-.46.22-.99.36-1.578.18-.704.38-1.21.608-1.504l-.47.32z" fill="#595959" fill-rule="nonzero"/><circle cx="221.703" cy="167.426" r="55.426" fill="#fff" stroke-width="1.83" stroke="#4E4D4C" transform="translate(3.717 65.455) scale(.5468)"/><path d="M132.332 158.795l11.714 7.706c-1.596-19.03-13.72-28.47-17.79-31.12v13.56c1.828 1.36 5.064 4.47 6.076 9.87zm-26.44 7.505l11.737-7.632c.46-2.414 1.88-6.247 6.06-9.617v-13.58c-15.67 11.68-17.61 26.16-17.81 30.84zm12.276-4.92l-10.873 7.07c17.4 7.36 30.948 2.305 35.337.194l-10.86-7.146c-1.942.863-7.07 2.512-13.604-.118z" fill="#4E4D4C"/></svg>