<svg viewBox="0 0 310 200" xmlns="http://www.w3.org/2000/svg" fill-rule="evenodd" clip-rule="evenodd" stroke-linejoin="round" stroke-miterlimit="1.414"><path d="M-162.723 285.96L472.715-80.928m-635.438 257.563L472.715-190.25M-162.723 67.31l635.438-366.885m-635.438 651.13L472.715-15.333M-162.723 242.23l635.438-366.886m-635.438 257.562L472.715-233.98M-162.723 23.582l635.438-366.886m-635.438 760.452L472.715 50.262m-635.438 432.48l635.438-366.885m-635.438 432.48L472.715 181.45m-635.438 126.374L472.715-59.062M-162.723 198.5l635.438-366.886M-162.723 89.176L472.715-277.71m-635.438 651.13L472.715 6.532m-635.438 257.562l635.438-366.886M-162.723 154.77l635.438-366.886M-162.723 45.446L472.715-321.44m-635.438 760.453L472.715 72.127m-635.438 432.48L472.715 137.72m-635.438 191.97L472.715-37.198m-635.438 257.563L472.715-146.52m-635.438 257.56l635.438-366.885M-162.723 1.717L472.715-365.17m-635.438 760.453L472.715 28.397m-635.438 432.48L472.715 93.993m-635.438 432.48l635.438-366.886M-162.723 285.96L472.715-80.928m-635.438 257.563L472.715-190.25M-162.723 67.31l635.438-366.885m-635.438 651.13L472.715-15.333M-162.723 242.23l635.438-366.886m-635.438 257.562L472.715-233.98M-162.723 23.582l635.438-366.886m-635.438 760.452L472.715 50.262m-635.438 432.48l635.438-366.885m-635.438 432.48L472.715 181.45m-635.438 126.374L472.715-59.062M-162.723 198.5l635.438-366.886M-162.723 89.176L472.715-277.71m-635.438 651.13L472.715 6.532m-635.438 257.562l635.438-366.886M-162.723 154.77l635.438-366.886M-162.723 45.446L472.715-321.44m-635.438 760.453L472.715 72.127m-635.438 432.48L472.715 137.72m-635.438 191.97L472.715-37.198m-635.438 257.563L472.715-146.52m-635.438 257.56l635.438-366.885M-162.723 1.717L472.715-365.17m-635.438 760.453L472.715 28.397m-635.438 432.48L472.715 93.993m-635.438 432.48l635.438-366.886m.008 126.374L-162.715-80.92m635.438 257.56l-635.438-366.89M472.723 67.31l-635.438-366.885m635.438 651.13L-162.715-15.333M472.723 242.23l-635.438-366.886m635.438 257.562L-162.715-233.98M472.723 23.582l-635.438-366.886m635.438 760.452L-162.715 50.262m635.438 432.48l-635.438-366.885m635.438 432.48L-162.715 181.45m635.438 126.374L-162.715-59.062M472.723 198.5l-635.438-366.886M472.723 89.176L-162.715-277.71m635.438 651.13L-162.715 6.532m635.438 257.562l-635.438-366.886M472.723 154.77l-635.438-366.886M472.723 45.446L-162.715-321.44m635.438 760.453L-162.715 72.127m635.438 432.48L-162.715 137.72m635.438 191.97L-162.715-37.198m635.438 257.563L-162.715-146.52m635.438 257.56l-635.438-366.885M472.723 1.717L-162.715-365.17m635.438 760.453L-162.715 28.397m635.438 432.48L-162.715 93.993m635.438 432.48l-635.438-366.886M472.723 285.96L-162.715-80.928m635.438 257.563L-162.715-190.25M472.723 67.31l-635.438-366.885m635.438 651.13L-162.715-15.333M472.723 242.23l-635.438-366.886m635.438 257.562L-162.715-233.98M472.723 23.582l-635.438-366.886m635.438 760.452L-162.715 50.262m635.438 432.48l-635.438-366.885m635.438 432.48L-162.715 181.45m635.438 126.374L-162.715-59.062M472.723 198.5l-635.438-366.886M472.723 89.176L-162.715-277.71m635.438 651.13L-162.715 6.532m635.438 257.562l-635.438-366.886M472.723 154.77l-635.438-366.886M472.723 45.446L-162.715-321.44m635.438 760.453L-162.715 72.127m635.438 432.48L-162.715 137.72m635.438 191.97L-162.715-37.198m635.438 257.563L-162.715-146.52m635.438 257.56l-635.438-366.885M472.723 1.717L-162.715-365.17m635.438 760.453L-162.715 28.397m635.438 432.48L-162.715 93.993m635.438 432.48l-635.438-366.886" stroke-width=".344" stroke="#D3D3D3"/><path d="M47.76 67.358v76.8l38.8-22.4v-89.6l-38.8 22.4v12.8z" fill="#fff" stroke="#4E4D4C"/><path d="M83.788 107.358v-57.6l-33.255 19.2v57.6l33.255-19.2z" fill="#fff" stroke-width=".5" stroke="#4E4D4C"/><path d="M42.22 51.358v89.6l5.54 3.2v-89.6l-5.54-3.2z" fill="#fff" stroke="#4E4D4C"/><path d="M86.56 32.158l-5.543-3.2-38.798 22.4 5.54 3.2" fill="#fff" stroke="#4E4D4C"/><circle cx="75.102" cy="252.109" r="4.281" fill="#fff" stroke-width=".51" stroke="#4E4D4C" transform="matrix(-.67822 .39348 0 .8018 118.23 -108.176)"/><path d="M108.08 179.233v.022H95.885v-.022h-.045c-.892 0-1.616-.724-1.616-1.616 0-.893.724-1.617 1.616-1.617.065 0 .128.004.19.01l11.69.033c.12-.028.244-.043.37-.043.893 0 1.618.724 1.618 1.617 0 .892-.725 1.617-1.617 1.617h-.01z" fill="#fff" stroke-width=".47" stroke="#656565" transform="matrix(-.67497 .41496 0 .94284 136.3 -159.302)"/><path d="M109.78 193.23l1.577-.686L144.107 176" fill="none" stroke-width=".64" stroke-dasharray="3.21,1.28,0,0" stroke="#595959" transform="matrix(1.46354 0 0 -1.64762 -92.772 442.152)"/><path d="M109.78 193.23l1.577-.686L144.107 176" fill="none" stroke-width=".64" stroke-dasharray="3.21,1.28,0,0" stroke="#595959" transform="matrix(-1.46354 0 0 -1.64762 332.684 442.152)"/><path d="M214.832 66.637c-.167.434-.364.847-.59 1.238-.227.39-.434.65-.62.78-.173.117-.27.072-.295-.137-.056-.484.104-1.187.48-2.11.374-.92.798-1.543 1.272-1.868.26-.183.44-.19.54-.025-.16.45-.42 1.157-.79 2.122m-5.72 5.696c-.21.143-.33.056-.37-.26-.04-.317.08-.837.35-1.562.27-.72.54-1.29.81-1.71.16-.26.32-.44.47-.54.04-.03.07-.05.09-.05.11-.04.174.02.193.18.045.4-.11 1.09-.47 2.08s-.725 1.62-1.1 1.88m-2.74-1.19c-.18.13-.316.28-.408.46-.09.18-.13.36-.11.54.036.3.186.46.45.49-.134.49-.32.98-.543 1.47-.226.486-.494.83-.803 1.047-.376.236-.587.15-.633-.252-.047-.4.03-.94.23-1.62.37-1.222.804-2.01 1.3-2.35.316-.212.51-.152.58.18l-.066.05zm15.13-11.26c-.18.12-.37.28-.576.46-.06.06-.12.13-.177.22-.06.09-.1.16-.134.22-.03.058-.065.14-.1.26-.04.12-.066.207-.08.27-.018.06-.046.175-.085.34l-.09.377c-.16.637-.41 1.33-.76 2.09-.342.76-.65 1.23-.91 1.41-.13.095-.212.027-.24-.2-.05-.432.046-1.065.28-1.9.232-.836.482-1.476.75-1.92.04-.07.055-.12.052-.145 0-.027-.02-.03-.042-.01-.38.26-.676.51-.885.747-.21.237-.4.577-.57 1.02-.13.34-.245.744-.34 1.203-.48 1.44-.92 2.29-1.313 2.563-.13.09-.204.046-.224-.13-.04-.335.07-.99.33-1.964s.5-1.635.72-1.98l-.11.074-.54.36c-.143.098-.29.26-.443.49-.156.227-.26.445-.32.654-.09-.17-.24-.235-.456-.195-.21.04-.43.14-.66.3-.487.334-.916.812-1.287 1.433-.37.62-.64 1.246-.8 1.88l-.01.04-.086.227c-.18.507-.324.876-.43 1.11-.19.42-.427.846-.707 1.28-.28.43-.565.746-.86.95l-.086.06c.434-.62.79-1.315 1.075-2.09.283-.776.395-1.42.34-1.93-.075-.62-.35-.764-.83-.434-.51.35-1.05 1.17-1.626 2.464.28-.92.52-1.514.71-1.792l-.326.22c-.424.29-.713.578-.867.858-.073.145-.18.49-.314 1.03-.05.195-.11.477-.194.846-.25.73-.55 1.217-.9 1.457-.2.14-.367.177-.49.11.11-.46.145-.853.11-1.176-.1-.85-.575-.98-1.43-.395-.51.35-.954.825-1.33 1.432-.227.367-.41.73-.558 1.088v-.01c-.343.85-.94 2.328-1.693 3.41-.75 1.08-1.49 1.87-2.22 2.37-1.162.797-1.813.597-1.95-.6-.09-.775.037-1.683.378-2.727.344-1.047.836-2.04 1.48-2.99.64-.95 1.33-1.677 2.062-2.18.552-.38.85-.37.896.02.03.26-.064.56-.28.9-.217.346-.465.615-.745.807-.1.07-.19.117-.273.144-.076.18-.107.31-.096.417.016.1.076.15.18.145.11-.005.24-.06.4-.17.34-.23.65-.55.946-.95.29-.406.477-.78.56-1.14.04-.19.054-.34.04-.463-.04-.33-.245-.48-.62-.45-.38.03-.897.27-1.56.723-.66.454-1.312 1.08-1.952 1.884-.64.8-1.154 1.62-1.55 2.45-.39.83-.684 1.642-.88 2.434-.193.79-.26 1.47-.195 2.03.17 1.475 1.1 1.633 2.79.475.725-.495 1.42-1.115 2.09-1.86.664-.743 1.202-1.5 1.61-2.26.066-.122.124-.24.18-.35 0 .06.006.118.012.17.05.42.2.66.45.71.25.05.56-.05.918-.294.56-.384 1-.84 1.324-1.36.32-.52.585-1.104.79-1.76.185.01.4-.065.64-.23.21-.14.42-.37.634-.69l-.36 1.718c-.39 1.9-.67 3.04-.824 3.425l.515-.356c.145-.1.262-.2.35-.296.09-.094.17-.23.23-.4s.14-.5.24-1l.4-2.18c.123.27.53.17 1.22-.3s1.263-1.086 1.72-1.84c.28-.464.54-.983.78-1.556-.007.18 0 .35.02.51.07.62.344.765.83.435.693-.477 1.373-1.677 2.04-3.598-.11.506-.137.97-.09 1.385.064.56.29.7.68.44.497-.347 1.04-1.24 1.63-2.7-.03.28-.04.503-.02.67.027.28.107.453.24.52s.29.032.48-.098.355-.263.49-.4c.136-.14.317-.39.54-.76.227-.37.486-.864.778-1.493l-.44 1.953c-.28 1.245-.713 2.07-1.295 2.47-.15.1-.28.15-.385.136-.103-.01-.163-.08-.18-.205-.025-.243.02-.43.148-.56-.045-.04-.11-.06-.205-.054-.093.007-.202.05-.33.14-.123.085-.23.22-.31.404-.085.184-.12.35-.1.5.03.282.18.4.45.36.27-.046.59-.19.95-.437.36-.25.7-.573 1.04-.98.33-.406.6-.83.802-1.27.203-.44.37-.953.494-1.55.046-.2.105-.474.18-.832.07-.357.114-.583.134-.677l.165-.79c.09-.432.206-.925.34-1.48.176-.66.366-1.13.57-1.412l-.44.304z" fill="#595959" fill-rule="nonzero"/><path d="M206.784 75.115c-2.448 1.833-4.796 3.778-6.455 5.417-.7.683-.87 1.35-.65 1.76 2.81-2.914 4.21-4.083 6.26-5.782.36-.3.65-.743.77-1.17l.06-.225m9.16-5.568c.07-.35-.01-.313-.33-.18-1.71.738-3.59 1.842-5.85 3.632-.38.3-.698.75-.757 1.17 0 0 2.84-2.58 6.925-4.63z" fill="#595959" fill-rule="nonzero"/><g fill="#fff" stroke="#656565"><path d="M216.415 145.53l71.26-41.142-44.537-25.715-71.26 41.143 44.537 25.715zm0 0v3.43l-44.54-25.715v-3.43m44.54 29.144l71.26-41.15v-3.43" stroke-width=".996"/><path d="M231.262 123.244l8.908 5.143 14.846-8.57-8.907-5.144-14.85 8.57zm-26.724 12L269.86 97.53l-26.72-15.428-65.326 37.714 26.724 15.43z" stroke-width=".504"/><path d="M228.292 121.53l-2.967-1.714 17.814-10.286 2.96 1.714" stroke-width=".504"/><path d="M210.478 131.815l-26.725-15.43" stroke-width=".505"/><path d="M216.415 128.388l-26.722-15.43m32.66 12L195.63 109.53m29.692 10.287l-23.753-13.714m29.69 10.286l-23.76-13.72m29.69 10.28l-23.75-13.71m29.69 10.28l-23.75-13.71m32.66 12l-26.72-15.42m32.66 12l-26.72-15.43m32.66 12L237.2 85.53m-53.447 37.715l65.323-37.715m-59.385 41.143l65.33-37.713m-59.39 41.14l65.33-37.714m-59.39 41.144l65.33-37.714" stroke-width=".504"/><path d="M171.876 119.816V64.96l71.26-41.144v54.857l-71.26 41.143z" stroke-width=".996"/><path d="M177.815 109.53V68.39L237.2 34.102v41.143l-59.384 34.286z" stroke-width=".504"/></g><path d="M73.45 82.552c-.177.462-.387.9-.628 1.317-.24.41-.46.69-.66.83-.183.12-.288.07-.313-.15-.06-.52.11-1.27.51-2.25.39-.98.85-1.65 1.35-1.99.28-.2.47-.21.58-.03-.17.48-.45 1.23-.85 2.26m-6.08 6.07c-.22.15-.35.06-.39-.28-.04-.34.08-.89.38-1.67.29-.77.58-1.38.86-1.83.17-.278.34-.47.5-.58.04-.03.08-.06.1-.06.12-.05.182.01.21.19.05.41-.12 1.15-.5 2.21-.38 1.053-.77 1.72-1.17 1.99m-2.92-1.27c-.19.135-.33.295-.43.486-.1.19-.13.382-.11.575.03.32.19.49.48.52-.15.526-.34 1.047-.58 1.564-.24.52-.53.89-.86 1.11-.4.25-.63.163-.678-.267-.05-.43.03-1.007.246-1.726.395-1.307.857-2.14 1.384-2.503.34-.23.545-.167.62.19l-.07.05zm16.11-11.99c-.2.134-.4.297-.62.49-.065.064-.13.14-.19.237l-.14.23c-.033.06-.07.15-.11.275-.04.122-.07.216-.084.282l-.09.36-.096.4c-.17.674-.44 1.415-.81 2.225-.37.81-.69 1.31-.964 1.5-.15.1-.235.025-.26-.22-.056-.46.042-1.132.29-2.02.25-.89.516-1.572.8-2.045.04-.078.06-.13.057-.158-.006-.03-.02-.03-.05-.01-.41.28-.72.545-.946.8-.22.254-.422.616-.603 1.09-.14.365-.26.793-.363 1.28-.51 1.535-.975 2.445-1.394 2.73-.14.097-.22.05-.24-.14-.04-.354.075-1.05.352-2.09.28-1.034.53-1.74.76-2.102l-.113.08-.574.38c-.15.105-.31.28-.47.52-.16.243-.275.476-.34.698-.095-.18-.256-.25-.482-.21-.226.042-.46.15-.706.32-.52.35-.98.86-1.374 1.52-.392.66-.68 1.33-.85 2.006l-.01.04-.09.24c-.194.54-.35.93-.46 1.18-.203.45-.454.9-.752 1.36-.3.46-.605.8-.918 1.01l-.09.063c.46-.655.84-1.396 1.144-2.22.3-.827.42-1.51.36-2.056-.08-.66-.37-.814-.886-.463-.55.375-1.12 1.25-1.73 2.625.3-.98.55-1.617.76-1.91l-.35.233c-.45.31-.76.613-.92.91-.08.16-.19.524-.337 1.1l-.21.9c-.27.78-.59 1.3-.964 1.55-.214.15-.39.19-.52.115.118-.49.157-.906.117-1.25-.1-.9-.61-1.04-1.52-.417-.54.37-1.012.88-1.412 1.53-.24.39-.44.773-.592 1.155 0-.006.005-.01.007-.01-.365.9-1 2.473-1.8 3.624-.8 1.154-1.59 1.994-2.36 2.524-1.24.85-1.93.635-2.08-.64-.097-.83.04-1.798.4-2.91.363-1.11.887-2.17 1.57-3.18.686-1.01 1.42-1.78 2.2-2.316.59-.404.906-.398.954.017.03.274-.07.594-.3.96-.23.367-.494.65-.793.857-.104.073-.2.125-.29.154-.08.183-.11.33-.1.44.016.104.08.155.19.15.12-.004.26-.065.43-.18.36-.247.693-.584 1.003-1.013.31-.43.51-.83.6-1.21.046-.2.06-.363.045-.492-.04-.35-.26-.51-.66-.48-.4.037-.95.29-1.655.777-.704.484-1.397 1.15-2.08 2.006-.68.854-1.23 1.724-1.65 2.61-.417.885-.73 1.75-.94 2.59-.207.84-.278 1.56-.21 2.156.18 1.57 1.17 1.74 2.97.503.77-.53 1.51-1.19 2.22-1.982s1.28-1.593 1.718-2.405c.07-.13.13-.255.19-.37 0 .06.003.12.01.18.05.45.21.7.474.753.267.05.59-.05.974-.312.6-.41 1.07-.89 1.415-1.442.346-.554.627-1.18.844-1.877.2.01.424-.07.68-.246.22-.15.446-.39.676-.73l-.38 1.83c-.42 2.02-.72 3.24-.88 3.648l.55-.38c.15-.107.272-.21.37-.316.092-.1.173-.24.24-.42s.15-.53.256-1.06l.426-2.32c.13.29.56.18 1.3-.32.73-.5 1.34-1.157 1.83-1.96.3-.497.572-1.05.83-1.66-.01.19 0 .37.02.54.07.66.37.817.88.46.74-.503 1.463-1.78 2.17-3.83-.11.54-.14 1.037-.09 1.48.07.597.31.75.72.47.53-.364 1.11-1.32 1.734-2.87-.033.302-.04.54-.023.715.03.3.12.483.26.553.14.07.31.035.51-.104.204-.14.377-.28.52-.427.146-.144.34-.413.577-.805.24-.39.51-.92.82-1.59l-.464 2.08c-.305 1.33-.765 2.204-1.385 2.63-.16.11-.293.16-.41.15-.11-.016-.173-.09-.19-.226-.03-.26.02-.455.156-.593-.05-.043-.12-.063-.22-.06-.1.008-.215.057-.35.15-.134.09-.246.235-.334.43-.09.2-.124.375-.11.53.04.3.2.43.488.384.283-.043.62-.2 1-.46s.75-.61 1.106-1.04c.356-.432.64-.882.86-1.35.22-.465.397-1.015.53-1.65.05-.21.113-.51.19-.89.075-.38.124-.62.145-.72.023-.1.08-.38.177-.842.095-.46.216-.99.363-1.575.185-.705.39-1.207.61-1.505l-.47.32zM215 67.94c-.18.463-.387.9-.63 1.318-.24.417-.46.693-.66.83-.182.125-.29.077-.312-.145-.06-.518.11-1.266.51-2.247.4-.98.85-1.645 1.354-1.99.284-.195.477-.204.58-.027-.17.48-.45 1.23-.843 2.26M208.91 74c-.222.153-.353.06-.39-.276-.04-.34.086-.895.377-1.667.29-.77.58-1.38.867-1.825.173-.276.34-.468.5-.578.046-.03.08-.05.104-.06.12-.05.19.016.21.196.047.413-.12 1.15-.5 2.21-.384 1.056-.774 1.72-1.17 1.994M206 72.75c-.19.133-.335.293-.433.484-.098.19-.136.382-.114.575.037.31.197.48.48.51-.145.52-.34 1.04-.58 1.56-.243.52-.528.89-.857 1.11-.4.25-.625.16-.675-.27-.05-.43.04-1.01.25-1.73.4-1.306.86-2.14 1.39-2.5.34-.23.54-.17.62.19l-.07.045zm16.1-11.99c-.19.132-.394.295-.61.49-.068.062-.13.14-.19.235-.06.096-.107.172-.14.23-.036.06-.073.15-.11.274-.04.12-.07.21-.087.28-.018.06-.047.18-.09.36l-.095.4c-.17.67-.44 1.41-.81 2.22-.368.81-.69 1.31-.966 1.49-.14.1-.23.022-.26-.22-.05-.458.05-1.13.298-2.02.25-.89.515-1.57.8-2.045.04-.07.06-.12.055-.15-.002-.03-.02-.034-.05-.013-.405.28-.72.545-.94.8-.224.25-.426.613-.607 1.085-.14.37-.262.795-.363 1.283-.514 1.534-.98 2.444-1.4 2.73-.137.096-.216.05-.238-.137-.04-.36.077-1.06.354-2.09.28-1.04.53-1.74.76-2.11l-.11.08-.57.38c-.15.106-.31.28-.47.52-.16.244-.27.48-.34.7-.09-.18-.25-.25-.48-.21-.23.044-.46.15-.71.32-.52.354-.97.863-1.37 1.524-.39.66-.68 1.33-.85 2 0 .01 0 .02-.01.035l-.08.245c-.19.54-.35.93-.46 1.18-.2.448-.452.9-.75 1.36-.295.46-.6.798-.915 1.01l-.096.065c.46-.657.843-1.4 1.144-2.22.3-.83.42-1.51.36-2.058-.073-.66-.37-.815-.88-.464-.543.37-1.12 1.244-1.73 2.62.3-.976.554-1.613.76-1.91l-.345.237c-.45.31-.76.61-.926.91-.08.155-.19.52-.336 1.1-.054.204-.12.504-.21.9-.27.775-.59 1.29-.966 1.55-.21.145-.384.18-.52.11.12-.49.16-.905.12-1.25-.1-.9-.61-1.04-1.52-.416-.54.37-1.013.88-1.414 1.528-.24.39-.44.776-.6 1.16v-.01c-.37.9-1.002 2.473-1.802 3.624-.8 1.15-1.59 1.99-2.36 2.52-1.24.85-1.932.64-2.08-.635-.094-.822.04-1.79.404-2.9.362-1.11.89-2.17 1.57-3.18.682-1.01 1.415-1.783 2.195-2.32.59-.402.905-.396.953.02.03.27-.07.59-.3.955-.23.37-.49.655-.79.86-.104.07-.202.125-.29.154-.076.185-.11.33-.096.44.01.11.073.16.19.15.113 0 .254-.06.423-.18.36-.246.695-.58 1.004-1.01.31-.43.51-.83.6-1.21.043-.2.057-.366.04-.495-.04-.35-.26-.51-.66-.48-.4.035-.95.29-1.656.775-.71.48-1.4 1.15-2.08 2.003-.68.855-1.23 1.725-1.65 2.61-.42.886-.73 1.75-.94 2.593-.21.84-.28 1.56-.21 2.157.18 1.57 1.17 1.735 2.963.502.772-.53 1.513-1.19 2.222-1.98.71-.79 1.28-1.593 1.716-2.405.07-.13.13-.25.19-.37.003.06.007.124.014.183.054.45.21.7.48.75.264.05.59-.053.97-.315.598-.41 1.07-.89 1.414-1.446.346-.553.627-1.18.844-1.876.2.01.43-.07.686-.244.22-.15.44-.398.67-.736-.11.52-.24 1.13-.38 1.822-.42 2.024-.71 3.24-.88 3.648l.55-.376c.153-.106.28-.21.373-.315.09-.1.17-.247.24-.427.064-.184.15-.54.254-1.065l.424-2.32c.13.285.563.18 1.3-.326.732-.504 1.342-1.158 1.83-1.96.296-.498.573-1.05.83-1.66-.01.19 0 .37.02.542.072.66.366.813.88.46.74-.507 1.465-1.784 2.17-3.83-.11.54-.14 1.033-.09 1.48.07.593.31.75.72.465.535-.366 1.11-1.323 1.74-2.87-.035.3-.04.54-.024.713.03.3.11.484.25.554.14.07.31.037.51-.102.2-.14.38-.28.52-.425.148-.144.34-.413.58-.805.24-.394.514-.925.825-1.594l-.465 2.088c-.3 1.326-.767 2.2-1.38 2.627-.167.11-.3.16-.41.15-.12-.015-.18-.09-.2-.225-.03-.257.02-.454.155-.59-.05-.046-.12-.066-.22-.06-.1.005-.214.054-.35.146-.132.09-.243.234-.332.43-.09.196-.12.373-.103.53.033.3.195.43.482.38.29-.046.623-.2 1.005-.46s.75-.61 1.105-1.04c.354-.435.64-.885.86-1.35.22-.47.394-1.02.53-1.65.05-.21.11-.51.19-.89.072-.38.12-.62.143-.72l.174-.845c.093-.46.22-.99.362-1.573.18-.706.383-1.208.605-1.506l-.47.32z" fill="#595959" fill-rule="nonzero"/><circle cx="221.703" cy="167.426" r="55.426" fill="#fff" stroke-width="1.83" stroke="#4E4D4C" transform="translate(3.717 65.455) scale(.5468)"/><path d="M132.332 158.795l11.714 7.706c-1.596-19.03-13.72-28.47-17.79-31.12v13.56c1.828 1.36 5.064 4.47 6.076 9.87zm-26.44 7.505l11.737-7.632c.46-2.414 1.88-6.247 6.06-9.617v-13.58c-15.67 11.68-17.61 26.16-17.81 30.84zm12.276-4.92l-10.873 7.07c17.4 7.36 30.948 2.305 35.337.194l-10.86-7.146c-1.942.863-7.07 2.512-13.604-.118z" fill="#4E4D4C"/></svg>