<svg viewBox="0 0 310 200" xmlns="http://www.w3.org/2000/svg" fill-rule="evenodd" clip-rule="evenodd" stroke-linecap="round" stroke-linejoin="round" stroke-miterlimit="1.414"><path d="M116.447 152.205l33.4-19.282" stroke-width="1.002" stroke="#D3D3D3"/><path d="M-162.723 285.96L472.715-80.928m-635.438 257.563L472.715-190.25M-162.723 67.31l635.438-366.885m-635.438 651.13L472.715-15.333M-162.723 242.23l635.438-366.886m-635.438 257.562L472.715-233.98M-162.723 23.582l635.438-366.886m-635.438 760.452L472.715 50.262m-635.438 432.48l635.438-366.885m-635.438 432.48L472.715 181.45m-635.438 126.374L472.715-59.062M-162.723 198.5l635.438-366.886M-162.723 89.176L472.715-277.71m-635.438 651.13L472.715 6.532m-635.438 257.562l635.438-366.886M-162.723 154.77l635.438-366.886M-162.723 45.446L472.715-321.44m-635.438 760.453L472.715 72.127m-635.438 432.48L472.715 137.72m-635.438 191.97L472.715-37.198m-635.438 257.563L472.715-146.52m-635.438 257.56l635.438-366.885M-162.723 1.717L472.715-365.17m-635.438 760.453L472.715 28.397m-635.438 432.48L472.715 93.993m-635.438 432.48l635.438-366.886" stroke-width=".344" stroke-linecap="butt" stroke="#D3D3D3"/><path d="M116.447 152.205l33.4-19.282" stroke-width="1.002" stroke="#D3D3D3"/><path d="M-162.723 285.96L472.715-80.928m-635.438 257.563L472.715-190.25M-162.723 67.31l635.438-366.885m-635.438 651.13L472.715-15.333M-162.723 242.23l635.438-366.886m-635.438 257.562L472.715-233.98M-162.723 23.582l635.438-366.886m-635.438 760.452L472.715 50.262m-635.438 432.48l635.438-366.885m-635.438 432.48L472.715 181.45m-635.438 126.374L472.715-59.062M-162.723 198.5l635.438-366.886M-162.723 89.176L472.715-277.71m-635.438 651.13L472.715 6.532m-635.438 257.562l635.438-366.886M-162.723 154.77l635.438-366.886M-162.723 45.446L472.715-321.44m-635.438 760.453L472.715 72.127m-635.438 432.48L472.715 137.72m-635.438 191.97L472.715-37.198m-635.438 257.563L472.715-146.52m-635.438 257.56l635.438-366.885M-162.723 1.717L472.715-365.17m-635.438 760.453L472.715 28.397m-635.438 432.48L472.715 93.993m-635.438 432.48l635.438-366.886" stroke-width=".344" stroke-linecap="butt" stroke="#D3D3D3"/><path d="M114.25 152.205l33.4-19.282" stroke-width="1.002" stroke="#D3D3D3"/><path d="M472.723 285.96L-162.715-80.928m635.438 257.563L-162.715-190.25M472.723 67.31l-635.438-366.885m635.438 651.13L-162.715-15.333M472.723 242.23l-635.438-366.886m635.438 257.562L-162.715-233.98M472.723 23.582l-635.438-366.886m635.438 760.452L-162.715 50.262m635.438 432.48l-635.438-366.885m635.438 432.48L-162.715 181.45m635.438 126.374L-162.715-59.062M472.723 198.5l-635.438-366.886M472.723 89.176L-162.715-277.71m635.438 651.13L-162.715 6.532m635.438 257.562l-635.438-366.886M472.723 154.77l-635.438-366.886M472.723 45.446L-162.715-321.44m635.438 760.453L-162.715 72.127m635.438 432.48L-162.715 137.72m635.438 191.97L-162.715-37.198m635.438 257.563L-162.715-146.52m635.438 257.56l-635.438-366.885M472.723 1.717L-162.715-365.17m635.438 760.453L-162.715 28.397m635.438 432.48L-162.715 93.993m635.438 432.48l-635.438-366.886" stroke-width=".344" stroke-linecap="butt" stroke="#D3D3D3"/><path d="M114.25 152.205l33.4-19.282" stroke-width="1.002" stroke="#D3D3D3"/><path d="M472.723 285.96L-162.715-80.928m635.438 257.563L-162.715-190.25M472.723 67.31l-635.438-366.885m635.438 651.13L-162.715-15.333M472.723 242.23l-635.438-366.886m635.438 257.562L-162.715-233.98M472.723 23.582l-635.438-366.886m635.438 760.452L-162.715 50.262m635.438 432.48l-635.438-366.885m635.438 432.48L-162.715 181.45m635.438 126.374L-162.715-59.062M472.723 198.5l-635.438-366.886M472.723 89.176L-162.715-277.71m635.438 651.13L-162.715 6.532m635.438 257.562l-635.438-366.886M472.723 154.77l-635.438-366.886M472.723 45.446L-162.715-321.44m635.438 760.453L-162.715 72.127m635.438 432.48L-162.715 137.72m635.438 191.97L-162.715-37.198m635.438 257.563L-162.715-146.52m635.438 257.56l-635.438-366.885M472.723 1.717L-162.715-365.17m635.438 760.453L-162.715 28.397m635.438 432.48L-162.715 93.993m635.438 432.48l-635.438-366.886" stroke-width=".344" stroke-linecap="butt" stroke="#D3D3D3"/><path d="M73.823 67.405l89.63-51.75v103.5l-89.63 51.75v-103.5z" fill="#fff" stroke-width="2.005" stroke-linecap="butt" stroke="#626262"/><path d="M97.52 75.92l8.514.687c-1.16-13.164-9.97-14.94-12.93-15.16v9.855c1.328.22 3.68 1.123 4.416 4.62zM78.303 92.47L86.833 82c.342-1.952 1.37-5.33 4.41-9.536V62.59c-11.39 15.06-12.797 26.4-12.94 29.88zm8.922-8.725l-7.903 9.7c12.648-1.95 22.494-11.31 25.684-14.687l-7.894-.636c-1.41 1.44-5.138 4.792-9.887 5.623z" fill="#4E4D4C"/><path d="M96.23 67.405l89.633-51.75v103.5l-89.632 51.75v-103.5z" fill="#fff" stroke-width="1.003" stroke-linecap="butt" stroke-dasharray="3.09,1.24,0,0" stroke="#5C544C"/><path d="M123.12 67.405l89.632-51.75v103.5l-89.63 51.75v-103.5z" fill="#fff" stroke-width="1.003" stroke-linecap="butt" stroke-dasharray="3.09,1.24,0,0" stroke="#5C544C"/><path d="M150.133 67.405l89.63-51.75v103.5l-89.63 51.75v-103.5z" fill="#fff" stroke-width="1.003" stroke-linecap="butt" stroke-dasharray="3.09,1.24,0,0" stroke="#5C544C"/></svg>