<svg viewBox="0 0 310 200" xmlns="http://www.w3.org/2000/svg" fill-rule="evenodd" clip-rule="evenodd" stroke-linejoin="round" stroke-miterlimit="1.414"><path d="M-162.723 285.96L472.715-80.928m-635.438 257.563L472.715-190.25M-162.723 67.31l635.438-366.885m-635.438 651.13L472.715-15.333M-162.723 242.23l635.438-366.886m-635.438 257.562L472.715-233.98M-162.723 23.582l635.438-366.886m-635.438 760.452L472.715 50.262m-635.438 432.48l635.438-366.885m-635.438 432.48L472.715 181.45m-635.438 126.374L472.715-59.062M-162.723 198.5l635.438-366.886M-162.723 89.176L472.715-277.71m-635.438 651.13L472.715 6.532m-635.438 257.562l635.438-366.886M-162.723 154.77l635.438-366.886M-162.723 45.446L472.715-321.44m-635.438 760.453L472.715 72.127m-635.438 432.48L472.715 137.72m-635.438 191.97L472.715-37.198m-635.438 257.563L472.715-146.52m-635.438 257.56l635.438-366.885M-162.723 1.717L472.715-365.17m-635.438 760.453L472.715 28.397m-635.438 432.48L472.715 93.993m-635.438 432.48l635.438-366.886M-162.723 285.96L472.715-80.928m-635.438 257.563L472.715-190.25M-162.723 67.31l635.438-366.885m-635.438 651.13L472.715-15.333M-162.723 242.23l635.438-366.886m-635.438 257.562L472.715-233.98M-162.723 23.582l635.438-366.886m-635.438 760.452L472.715 50.262m-635.438 432.48l635.438-366.885m-635.438 432.48L472.715 181.45m-635.438 126.374L472.715-59.062M-162.723 198.5l635.438-366.886M-162.723 89.176L472.715-277.71m-635.438 651.13L472.715 6.532m-635.438 257.562l635.438-366.886M-162.723 154.77l635.438-366.886M-162.723 45.446L472.715-321.44m-635.438 760.453L472.715 72.127m-635.438 432.48L472.715 137.72m-635.438 191.97L472.715-37.198m-635.438 257.563L472.715-146.52m-635.438 257.56l635.438-366.885M-162.723 1.717L472.715-365.17m-635.438 760.453L472.715 28.397m-635.438 432.48L472.715 93.993m-635.438 432.48l635.438-366.886m.008 126.374L-162.715-80.928m635.438 257.563L-162.715-190.25M472.723 67.31l-635.438-366.885m635.438 651.13L-162.715-15.333M472.723 242.23l-635.438-366.886m635.438 257.562L-162.715-233.98M472.723 23.582l-635.438-366.886m635.438 760.452L-162.715 50.262m635.438 432.48l-635.438-366.885m635.438 432.48L-162.715 181.45m635.438 126.374L-162.715-59.062M472.723 198.5l-635.438-366.886M472.723 89.176L-162.715-277.71m635.438 651.13L-162.715 6.532m635.438 257.562l-635.438-366.886M472.723 154.77l-635.438-366.886M472.723 45.446L-162.715-321.44m635.438 760.453L-162.715 72.127m635.438 432.48L-162.715 137.72m635.438 191.97L-162.715-37.198m635.438 257.563L-162.715-146.52m635.438 257.56l-635.438-366.885M472.723 1.717L-162.715-365.17m635.438 760.453L-162.715 28.397m635.438 432.48L-162.715 93.993m635.438 432.48l-635.438-366.886M472.723 285.96L-162.715-80.928m635.438 257.563L-162.715-190.25M472.723 67.31l-635.438-366.885m635.438 651.13L-162.715-15.333M472.723 242.23l-635.438-366.886m635.438 257.562L-162.715-233.98M472.723 23.582l-635.438-366.886m635.438 760.452L-162.715 50.262m635.438 432.48l-635.438-366.885m635.438 432.48L-162.715 181.45m635.438 126.374L-162.715-59.062M472.723 198.5l-635.438-366.886M472.723 89.176L-162.715-277.71m635.438 651.13L-162.715 6.532m635.438 257.562l-635.438-366.886M472.723 154.77l-635.438-366.886M472.723 45.446L-162.715-321.44m635.438 760.453L-162.715 72.127m635.438 432.48L-162.715 137.72m635.438 191.97L-162.715-37.198m635.438 257.563L-162.715-146.52m635.438 257.56l-635.438-366.885M472.723 1.717L-162.715-365.17m635.438 760.453L-162.715 28.397m635.438 432.48L-162.715 93.993m635.438 432.48l-635.438-366.886" stroke-width=".344" stroke="#D3D3D3"/><circle cx="221.703" cy="167.426" r="55.426" fill="#fff" stroke-width=".9" stroke="#4E4D4C" transform="translate(-89.37 -83.843) scale(1.10602)"/><path d="M170.785 104.96l23.694 15.587c-3.23-38.498-27.75-57.598-35.986-62.965V85.01c3.696 2.747 10.242 9.037 12.29 19.95zm-53.48 15.18l23.74-15.437c.95-4.883 3.808-12.636 12.27-19.452V57.77c-31.7 23.613-35.615 52.91-36.01 62.37zm24.83-9.95l-21.994 14.3c35.2 14.89 62.6 4.662 71.48.392l-21.97-14.454c-3.925 1.745-14.298 5.08-27.515-.24z" fill="#4E4D4C"/></svg>