<svg viewBox="0 0 310 200" xmlns="http://www.w3.org/2000/svg" fill-rule="evenodd" clip-rule="evenodd" stroke-linecap="round" stroke-linejoin="round" stroke-miterlimit="1.414"><path d="M116.447 152.205l33.4-19.282M195.75 152.205l-33.4-19.282" stroke-width="1.0015278" stroke="#D3D3D3"/><path d="M-162.723 285.96L472.715-80.928M-162.723 176.635L472.715-190.25M-162.723 67.31l635.438-366.885M-162.723 351.554L472.715-15.332M-162.723 242.23l635.438-366.886M-162.723 132.906L472.715-233.98M-162.723 23.582l635.438-366.886M-162.723 417.148L472.715 50.262M-162.723 482.743l635.438-366.886M-162.723 548.337L472.715 181.45M-162.723 307.824L472.715-59.062M-162.723 198.5l635.438-366.886M-162.723 89.176L472.715-277.71M-162.723 373.42L472.715 6.532M-162.723 264.094l635.438-366.886M-162.723 154.77l635.438-366.886M-162.723 45.446L472.715-321.44M-162.723 439.013L472.715 72.127M-162.723 504.607L472.715 137.72M-162.723 329.69L472.715-37.198M-162.723 220.365L472.715-146.52M-162.723 111.04l635.438-366.885M-162.723 1.717L472.715-365.17M-162.723 395.283L472.715 28.397M-162.723 460.878L472.715 93.992M-162.723 526.472l635.438-366.886" stroke-width=".343945" stroke-linecap="butt" stroke="#D3D3D3"/><path d="M116.447 152.205l33.4-19.282M195.75 152.205l-33.4-19.282" stroke-width="1.0015278" stroke="#D3D3D3"/><path d="M-162.723 285.96L472.715-80.928M-162.723 176.635L472.715-190.25M-162.723 67.31l635.438-366.885M-162.723 351.554L472.715-15.332M-162.723 242.23l635.438-366.886M-162.723 132.906L472.715-233.98M-162.723 23.582l635.438-366.886M-162.723 417.148L472.715 50.262M-162.723 482.743l635.438-366.886M-162.723 548.337L472.715 181.45M-162.723 307.824L472.715-59.062M-162.723 198.5l635.438-366.886M-162.723 89.176L472.715-277.71M-162.723 373.42L472.715 6.532M-162.723 264.094l635.438-366.886M-162.723 154.77l635.438-366.886M-162.723 45.446L472.715-321.44M-162.723 439.013L472.715 72.127M-162.723 504.607L472.715 137.72M-162.723 329.69L472.715-37.198M-162.723 220.365L472.715-146.52M-162.723 111.04l635.438-366.885M-162.723 1.717L472.715-365.17M-162.723 395.283L472.715 28.397M-162.723 460.878L472.715 93.992M-162.723 526.472l635.438-366.886" stroke-width=".343945" stroke-linecap="butt" stroke="#D3D3D3"/><path d="M193.553 152.205l-33.4-19.282M114.25 152.205l33.4-19.282" stroke-width="1.0015278" stroke="#D3D3D3"/><path d="M472.723 285.96L-162.715-80.928M472.723 176.635L-162.715-190.25M472.723 67.31l-635.438-366.885M472.723 351.554L-162.715-15.332M472.723 242.23l-635.438-366.886M472.723 132.906L-162.715-233.98M472.723 23.582l-635.438-366.886M472.723 417.148L-162.715 50.262M472.723 482.743l-635.438-366.886M472.723 548.337L-162.715 181.45M472.723 307.824L-162.715-59.062M472.723 198.5l-635.438-366.886M472.723 89.176L-162.715-277.71M472.723 373.42L-162.715 6.532M472.723 264.094l-635.438-366.886M472.723 154.77l-635.438-366.886M472.723 45.446L-162.715-321.44M472.723 439.013L-162.715 72.127M472.723 504.607L-162.715 137.72M472.723 329.69L-162.715-37.198M472.723 220.365L-162.715-146.52M472.723 111.04l-635.438-366.885M472.723 1.717L-162.715-365.17M472.723 395.283L-162.715 28.397M472.723 460.878L-162.715 93.992M472.723 526.472l-635.438-366.886" stroke-width=".343945" stroke-linecap="butt" stroke="#D3D3D3"/><path d="M193.553 152.205l-33.4-19.282M114.25 152.205l33.4-19.282" stroke-width="1.0015278" stroke="#D3D3D3"/><path d="M472.723 285.96L-162.715-80.928M472.723 176.635L-162.715-190.25M472.723 67.31l-635.438-366.885M472.723 351.554L-162.715-15.332M472.723 242.23l-635.438-366.886M472.723 132.906L-162.715-233.98M472.723 23.582l-635.438-366.886M472.723 417.148L-162.715 50.262M472.723 482.743l-635.438-366.886M472.723 548.337L-162.715 181.45M472.723 307.824L-162.715-59.062M472.723 198.5l-635.438-366.886M472.723 89.176L-162.715-277.71M472.723 373.42L-162.715 6.532M472.723 264.094l-635.438-366.886M472.723 154.77l-635.438-366.886M472.723 45.446L-162.715-321.44M472.723 439.013L-162.715 72.127M472.723 504.607L-162.715 137.72M472.723 329.69L-162.715-37.198M472.723 220.365L-162.715-146.52M472.723 111.04l-635.438-366.885M472.723 1.717L-162.715-365.17M472.723 395.283L-162.715 28.397M472.723 460.878L-162.715 93.992M472.723 526.472l-635.438-366.886" stroke-width=".343945" stroke-linecap="butt" stroke="#D3D3D3"/><g><circle cx="112.21" cy="856.785" r="56.785" fill="#fff" stroke-width="1.56" stroke-linecap="butt" stroke="#626262" transform="matrix(1.24 -.33226 .33226 1.24 -265.923 -924.797)"/><path d="M159.483 161.788l-.024-1.31c.322-.004.645-.013.967-.023.842-.032 1.685-.078 2.526-.143.97-.077 1.934-.18 2.897-.302l.056-.008.172 1.298c-.267.035-.534.067-.8.098-.74.085-1.48.16-2.223.217-.736.06-1.475.1-2.215.134-.45.016-.904.03-1.357.038zm-2.644-.012c-2.195-.054-4.38-.247-6.555-.544l-.04-.005.186-1.296c.363.054.725.098 1.09.144.82.097 1.645.18 2.47.245.948.072 1.898.12 2.85.148h.03l-.03 1.308zm11.853-.878l-.23-1.287c.34-.06.68-.124 1.018-.188.85-.17 1.7-.35 2.543-.553.85-.207 1.696-.433 2.536-.672l.202-.06.367 1.257c-.315.09-.63.18-.945.267-.74.2-1.48.392-2.226.566-.74.174-1.485.33-2.23.478-.344.067-.69.13-1.037.192zm-21.057-.097c-2.07-.385-4.11-.884-6.13-1.48l-.29-.09.378-1.252c.32.097.64.19.96.284.9.255 1.806.493 2.718.706.8.187 1.602.355 2.408.51l.197.037-.24 1.286zm30.016-2.203l-.423-1.24c.29-.098.576-.2.864-.302.808-.29 1.608-.596 2.403-.92.9-.368 1.788-.762 2.67-1.173l.056-.026.56 1.183c-.244.114-.49.226-.735.34-.68.305-1.365.602-2.056.885-.696.285-1.397.554-2.1.813-.413.15-.826.297-1.24.44zm-38.95-.194c-1.095-.39-2.18-.805-3.247-1.255-.877-.37-1.743-.76-2.603-1.17l-.25-.12.567-1.18c.292.14.585.28.878.417.845.39 1.697.763 2.56 1.114.754.306 1.516.595 2.282.873l.25.087c-.148.41-.294.822-.44 1.233zm47.448-3.465l-.61-1.156c.283-.15.566-.303.848-.456.733-.405 1.46-.82 2.175-1.254.814-.494 1.613-1.01 2.403-1.54l.116-.08.736 1.083c-.24.164-.483.325-.725.484-.61.4-1.227.792-1.85 1.17-.63.38-1.264.747-1.903 1.106-.396.217-.79.432-1.19.642zm-55.906-.286c-1.126-.61-2.234-1.254-3.322-1.934-.704-.44-1.398-.9-2.085-1.367l-.227-.155.744-1.077c.265.183.532.364.8.544.775.515 1.557 1.014 2.354 1.493.698.42 1.404.822 2.116 1.215l.243.13-.623 1.152zM193.972 150l-.783-1.05c.22-.162.435-.33.652-.495.745-.577 1.48-1.167 2.196-1.777.714-.608 1.413-1.235 2.1-1.876l.004-.004.897.95c-.264.25-.533.495-.8.74-.537.48-1.078.956-1.63 1.42-.553.465-1.115.916-1.683 1.362-.317.246-.635.49-.955.73zm-71.503-.36c-.93-.71-1.84-1.44-2.727-2.2-.723-.622-1.43-1.26-2.127-1.914l-.18-.172.902-.948c.228.217.458.43.688.646.602.552 1.212 1.094 1.836 1.62.71.603 1.436 1.185 2.174 1.756l.225.17c-.263.348-.527.695-.79 1.04zm78.457-5.743l-.938-.912.63-.658c.56-.596 1.11-1.2 1.645-1.816.61-.703 1.202-1.423 1.78-2.154l.194-.248 1.03.806c-.212.27-.427.54-.64.81-.903 1.11-1.84 2.19-2.813 3.24-.294.312-.59.625-.89.933zm-85.367-.41c-.823-.86-1.622-1.74-2.394-2.648-.624-.734-1.228-1.485-1.818-2.246l-.094-.123 1.04-.795c.173.228.35.453.526.68.585.736 1.184 1.46 1.802 2.17.54.62 1.094 1.225 1.658 1.82l.225.237-.945.904zm91.29-6.698l-1.068-.757c.18-.255.358-.51.536-.77.523-.767 1.032-1.544 1.522-2.335.426-.692.837-1.394 1.237-2.102l.15-.267 1.143.636c-.166.298-.335.594-.504.89-.717 1.233-1.473 2.44-2.268 3.624-.248.36-.496.722-.75 1.08zm-97.157-.455c-1.206-1.725-2.308-3.522-3.326-5.364l-.144-.263 1.15-.626c.163.298.326.595.49.89.473.83.96 1.65 1.47 2.458.445.703.906 1.395 1.378 2.08l.056.078-1.073.75zm101.91-7.482l-1.173-.583c.14-.28.278-.564.415-.846.348-.736.687-1.476 1.006-2.225.368-.856.712-1.72 1.04-2.594l.1-.276 1.228.453c-.116.318-.235.633-.356.948-.52 1.332-1.08 2.643-1.685 3.936-.188.398-.38.793-.574 1.187zm-106.586-.5c-.968-1.98-1.81-4.025-2.55-6.103l1.235-.437c.11.31.222.62.336.928.13.345.262.688.395 1.03.27.68.55 1.356.844 2.026.292.666.598 1.324.914 1.98l.002.002c-.39.193-.784.384-1.175.575zm110.057-8.076l-1.247-.392c.097-.31.19-.617.285-.925.264-.898.513-1.8.738-2.707.196-.797.374-1.598.54-2.4l.045-.233 1.284.255c-.064.314-.13.628-.195.94-.306 1.405-.66 2.796-1.06 4.175-.126.43-.255.86-.39 1.287zm-113.43-.54c-.646-2.108-1.165-4.252-1.58-6.418l1.286-.247c.07.364.14.726.215 1.09.076.362.156.725.237 1.087.31 1.34.66 2.664 1.053 3.98l.038.125-1.25.383zm115.53-8.47l-1.293-.193c.054-.35.103-.7.15-1.05.122-.938.227-1.877.306-2.82.07-.827.118-1.657.154-2.488l.002-.08 1.307.05c-.01.27-.023.54-.037.81-.04.73-.09 1.455-.155 2.18-.064.722-.145 1.443-.234 2.163-.06.475-.128.95-.2 1.426zm-117.54-.562c-.137-.983-.255-1.968-.347-2.956-.11-1.207-.18-2.417-.218-3.63l1.307-.04c.01.34.024.68.038 1.02.02.362.04.723.062 1.084.05.725.11 1.45.184 2.17.077.726.17 1.448.27 2.17l-1.297.18zm116.9-8.657c-.003-.304-.006-.61-.013-.914-.008-.36-.02-.72-.033-1.08-.03-.723-.072-1.445-.13-2.166-.057-.726-.13-1.45-.212-2.172l-.014-.12 1.3-.155c.034.29.066.577.097.865.087.862.16 1.724.212 2.59.058.98.088 1.962.1 2.944l.002.2-1.308.008zm-116.175-.553l-1.31-.024c.007-.358.016-.72.027-1.08.03-.85.076-1.7.14-2.547.076-.964.176-1.927.295-2.887l.01-.08 1.3.17c-.05.377-.093.754-.135 1.13-.074.707-.14 1.415-.19 2.123-.052.71-.086 1.422-.113 2.135-.01.353-.02.707-.025 1.06zm115.41-8.46c-.054-.317-.11-.633-.165-.95-.068-.362-.137-.725-.21-1.09-.292-1.437-.634-2.86-1.026-4.276l1.26-.352c.332 1.202.633 2.41.895 3.627.184.864.348 1.73.497 2.6l.037.227c-.432.07-.86.142-1.29.213zm-114.562-.548l-1.29-.224c.05-.292.105-.582.16-.873.18-.942.38-1.88.604-2.813.196-.814.41-1.622.64-2.428l.093-.326 1.256.363c-.095.332-.187.663-.28.997-.365 1.356-.686 2.725-.96 4.104-.078.4-.152.798-.222 1.2zm112.408-8.243c-.087-.267-.18-.534-.27-.8-.12-.35-.244-.697-.37-1.045-.255-.69-.518-1.376-.795-2.055-.276-.677-.567-1.345-.866-2.01l-.052-.11 1.19-.547c.122.264.24.53.356.794.4.916.78 1.84 1.134 2.773.313.824.606 1.655.885 2.49l.032.103-1.244.406zm-110.165-.52l-1.237-.425c.103-.3.208-.6.314-.897.284-.784.58-1.564.894-2.336.36-.88.74-1.752 1.14-2.615l.13-.28 1.184.553-.42.91c-.567 1.278-1.093 2.57-1.577 3.88-.145.402-.288.804-.426 1.208zm106.686-7.83l-.42-.808c-.17-.317-.344-.633-.518-.95-.7-1.248-1.44-2.47-2.224-3.67l-.103-.153 1.09-.724c.17.255.338.512.504.77.458.72.904 1.446 1.333 2.184.493.85.962 1.71 1.414 2.58l.09.173c-.388.2-.777.397-1.164.596zm-103.11-.483l-1.157-.61c.148-.283.3-.567.453-.848.4-.73.812-1.45 1.24-2.164.49-.816 1.002-1.616 1.527-2.408l.17-.25 1.086.73c-.186.275-.37.55-.552.83-.758 1.17-1.475 2.364-2.155 3.582-.208.378-.413.758-.613 1.14zm98.367-7.222c-.222-.306-.45-.607-.676-.908-.215-.28-.432-.56-.65-.84-.877-1.104-1.79-2.177-2.74-3.22l-.03-.03.964-.888c.254.276.504.556.753.837.555.63 1.1 1.272 1.63 1.925.607.75 1.194 1.516 1.765 2.294l.043.06-1.057.768zm-93.553-.44l-1.05-.78c.195-.26.39-.517.586-.775.582-.754 1.177-1.497 1.794-2.223.54-.637 1.094-1.26 1.656-1.876l.192-.207.96.89c-.222.24-.44.48-.66.72-.933 1.043-1.83 2.115-2.69 3.217-.266.342-.53.688-.788 1.035zm87.665-6.428c-.207-.206-.416-.412-.625-.616-.253-.242-.507-.484-.763-.724-1.026-.95-2.082-1.867-3.168-2.748l-.272-.218.82-1.02c.276.222.552.445.825.67.734.61 1.455 1.232 2.16 1.875.62.56 1.222 1.14 1.818 1.726l.13.128-.925.926zm-81.724-.396l-.915-.934c.242-.237.485-.47.728-.706.7-.658 1.408-1.304 2.134-1.93.64-.55 1.29-1.083 1.95-1.608l.153-.12.81 1.03c-.238.184-.47.37-.705.56-1.093.89-2.154 1.815-3.185 2.776-.326.308-.65.618-.97.932zm74.842-5.475c-.245-.178-.49-.354-.738-.53-.286-.2-.573-.397-.86-.593-1.16-.78-2.34-1.518-3.546-2.22l-.292-.167.652-1.134c.304.174.607.35.91.53.816.487 1.622.988 2.416 1.51.693.46 1.376.934 2.053 1.418l.174.126-.768 1.06zm-67.912-.346l-.763-1.062c.31-.224.625-.44.94-.66.804-.545 1.618-1.078 2.446-1.587.725-.446 1.46-.873 2.202-1.29l.64 1.142c-.31.174-.62.35-.928.528-.308.18-.616.363-.923.548-.914.558-1.812 1.138-2.697 1.74-.307.212-.614.424-.917.64zm60.202-4.392c-.27-.14-.543-.275-.815-.41-.312-.154-.626-.306-.942-.455-1.265-.592-2.547-1.14-3.85-1.647l-.303-.117.467-1.222c.325.125.648.252.972.38.773.312 1.54.635 2.298.977.868.388 1.725.802 2.574 1.23l.195.1c-.2.388-.4.776-.598 1.165zm-52.452-.27l-.58-1.172c.314-.156.63-.31.95-.463.784-.372 1.575-.73 2.375-1.07.905-.384 1.82-.742 2.742-1.083l.453 1.228c-.33.12-.66.246-.988.37-.342.135-.682.27-1.022.408-1.01.418-2.01.86-2.998 1.327-.31.15-.622.302-.932.455zm44.106-3.222c-.297-.097-.594-.193-.89-.286-.336-.103-.67-.205-1.007-.305-1.35-.39-2.71-.735-4.083-1.034l-.267-.056.27-1.28c.326.068.65.14.974.212.816.188 1.63.39 2.438.61.922.25 1.835.527 2.745.82l.227.075-.408 1.243zm-35.717-.176l-.4-1.245c.26-.085.522-.164.782-.243.61-.184 1.224-.358 1.84-.525l.17.632-.167-.633c.37-.096.74-.192 1.11-.285.864-.212 1.73-.408 2.6-.583.863-.174 1.73-.325 2.6-.463l.158-.025.197 1.293c-.295.044-.588.093-.88.14-1.342.23-2.674.5-3.997.818-1.213.293-2.415.626-3.608.99-.136.044-.27.085-.406.128zm26.93-1.98c-.336-.054-.672-.105-1.01-.156-.35-.05-.7-.097-1.05-.143-1.41-.175-2.826-.302-4.245-.38l-.126-.007.065-1.306c.285.013.57.03.857.048.845.058 1.69.13 2.533.22.96.103 1.915.234 2.87.382l.313.05-.21 1.293zm-15.474-.43l-.14-1.3c.308-.033.617-.063.926-.092.86-.076 1.722-.14 2.585-.18.982-.045 1.962-.065 2.943-.065h.15l-.007 1.31c-.288-.003-.576 0-.864 0-.722.01-1.442.03-2.16.063-.723.034-1.446.084-2.168.142-.423.038-.844.078-1.266.123z" fill="#5C544C" fill-rule="nonzero"/><path fill="#fff" stroke-width="2.0026344000000003" stroke-linecap="butt" stroke="#626262" d="M67.39 108.05L240.9 61.556l9.83 36.687-173.51 46.49z"/><path d="M99.006 127.645l-.443-1.654 3.1-.83-3.545-13.237-3.102.83-.443-1.653 8.086-2.167.442 1.655-3.103.83 3.546 13.237 3.103-.83.442 1.653-8.086 2.167zM111.39 126.787l8.747-2.344.493 1.84-8.748 2.344zM125.385 116.32l-4.74-9.08 3.716 13.61-1.675.45-4.433-16.545 2.255-.604 5.044 9.4-.35-10.657 2.172-.58 4.433 16.543-1.675.45-3.567-13.563.414 10.15-1.592.428zM139.205 109.824l-3.706-7.296.417 8.177 3.288-.88zm3.148 6.206L140 111.385l-3.99 1.07.263 5.204-1.84.492-.566-17.58 2.088-.56 8.3 15.508-1.902.51zM147.4 114.678l-4.434-16.545 3.68-.986c1.42-.38 2.688-.177 3.8.61 1.112.79 1.898 2.038 2.356 3.748l1.452 5.418c.45 1.682.39 3.136-.184 4.36-.573 1.225-1.57 2.028-2.99 2.41l-3.68.985zm1.438-2.16l1.736-.464c.91-.244 1.524-.756 1.84-1.534.315-.78.307-1.79-.026-3.03l-1.485-5.544c-.34-1.267-.843-2.167-1.51-2.697-.666-.532-1.455-.676-2.365-.432l-1.737.465 3.548 13.236zM159.497 111.436l-4.433-16.544 8.335-2.234.442 1.655-6.453 1.73 1.345 5.024 5.667-1.52.45 1.677-5.668 1.52 1.75 6.534 6.455-1.73.442 1.655-8.335 2.233zM171.88 110.578l8.748-2.344.493 1.84-8.748 2.345zM186.796 104.122l-3.99-14.89-3.702.99-.443-1.653 9.308-2.495.443 1.654-3.722.997 3.99 14.89-1.882.505zM195.793 101.71l-4.433-16.544 1.882-.504 1.806 6.742 4.323-1.158-1.806-6.742 1.882-.504 4.433 16.544-1.883.505-2.178-8.13-4.323 1.16 2.178 8.127-1.882.504zM207.89 98.47l-.443-1.655 3.103-.83-3.547-13.237-3.103.83-.443-1.653 8.086-2.167.443 1.654-3.1.83 3.546 13.238 3.1-.83.444 1.653-8.086 2.167zM224.175 94.305c-.855.23-1.74.29-2.657.18-.915-.11-1.724-.343-2.426-.702l.13-1.742c.787.397 1.58.638 2.38.728.8.088 1.57.032 2.316-.167.828-.22 1.405-.645 1.73-1.272.328-.626.373-1.382.137-2.264-.2-.745-.566-1.274-1.102-1.59-.535-.314-1.552-.595-3.052-.844-1.665-.263-2.888-.663-3.668-1.2-.78-.538-1.32-1.364-1.618-2.48-.355-1.325-.254-2.464.304-3.418.556-.955 1.504-1.61 2.84-1.97.787-.21 1.615-.248 2.487-.112.87.137 1.614.387 2.23.755l-.064 1.747c-.754-.39-1.5-.648-2.235-.776-.736-.128-1.42-.107-2.055.063-.73.195-1.245.566-1.542 1.11-.297.545-.344 1.197-.14 1.956.187.702.558 1.206 1.113 1.508.554.302 1.608.57 3.164.804 1.6.236 2.777.618 3.533 1.147.755.53 1.28 1.345 1.575 2.45.395 1.473.29 2.762-.316 3.863-.607 1.1-1.628 1.843-3.06 2.227z" fill="#626262" fill-rule="nonzero"/></g></svg>