<svg viewBox="0 0 310 200" xmlns="http://www.w3.org/2000/svg" fill-rule="evenodd" clip-rule="evenodd" stroke-linecap="round" stroke-linejoin="round" stroke-miterlimit="1.414"><path d="M116.447 152.205l33.4-19.282m45.903 19.282l-33.4-19.282" stroke-width="1.002" stroke="#D3D3D3"/><path d="M-162.723 285.96L472.715-80.928m-635.438 257.563L472.715-190.25M-162.723 67.31l635.438-366.885m-635.438 651.13L472.715-15.333M-162.723 242.23l635.438-366.886m-635.438 257.562L472.715-233.98M-162.723 23.582l635.438-366.886m-635.438 760.452L472.715 50.262m-635.438 432.48l635.438-366.885m-635.438 432.48L472.715 181.45m-635.438 126.374L472.715-59.062M-162.723 198.5l635.438-366.886M-162.723 89.176L472.715-277.71m-635.438 651.13L472.715 6.532m-635.438 257.562l635.438-366.886M-162.723 154.77l635.438-366.886M-162.723 45.446L472.715-321.44m-635.438 760.453L472.715 72.127m-635.438 432.48L472.715 137.72m-635.438 191.97L472.715-37.198m-635.438 257.563L472.715-146.52m-635.438 257.56l635.438-366.885M-162.723 1.717L472.715-365.17m-635.438 760.453L472.715 28.397m-635.438 432.48L472.715 93.993m-635.438 432.48l635.438-366.886" stroke-width=".344" stroke-linecap="butt" stroke="#D3D3D3"/><path d="M116.447 152.205l33.4-19.282m45.903 19.282l-33.4-19.282" stroke-width="1.002" stroke="#D3D3D3"/><path d="M-162.723 285.96L472.715-80.928m-635.438 257.563L472.715-190.25M-162.723 67.31l635.438-366.885m-635.438 651.13L472.715-15.333M-162.723 242.23l635.438-366.886m-635.438 257.562L472.715-233.98M-162.723 23.582l635.438-366.886m-635.438 760.452L472.715 50.262m-635.438 432.48l635.438-366.885m-635.438 432.48L472.715 181.45m-635.438 126.374L472.715-59.062M-162.723 198.5l635.438-366.886M-162.723 89.176L472.715-277.71m-635.438 651.13L472.715 6.532m-635.438 257.562l635.438-366.886M-162.723 154.77l635.438-366.886M-162.723 45.446L472.715-321.44m-635.438 760.453L472.715 72.127m-635.438 432.48L472.715 137.72m-635.438 191.97L472.715-37.198m-635.438 257.563L472.715-146.52m-635.438 257.56l635.438-366.885M-162.723 1.717L472.715-365.17m-635.438 760.453L472.715 28.397m-635.438 432.48L472.715 93.993m-635.438 432.48l635.438-366.886" stroke-width=".344" stroke-linecap="butt" stroke="#D3D3D3"/><path d="M193.553 152.205l-33.4-19.282m-45.903 19.282l33.4-19.282" stroke-width="1.002" stroke="#D3D3D3"/><path d="M472.723 285.96L-162.715-80.928m635.438 257.563L-162.715-190.25M472.723 67.31l-635.438-366.885m635.438 651.13L-162.715-15.333M472.723 242.23l-635.438-366.886m635.438 257.562L-162.715-233.98M472.723 23.582l-635.438-366.886m635.438 760.452L-162.715 50.262m635.438 432.48l-635.438-366.885m635.438 432.48L-162.715 181.45m635.438 126.374L-162.715-59.062M472.723 198.5l-635.438-366.886M472.723 89.176L-162.715-277.71m635.438 651.13L-162.715 6.532m635.438 257.562l-635.438-366.886M472.723 154.77l-635.438-366.886M472.723 45.446L-162.715-321.44m635.438 760.453L-162.715 72.127m635.438 432.48L-162.715 137.72m635.438 191.97L-162.715-37.198m635.438 257.563L-162.715-146.52m635.438 257.56l-635.438-366.885M472.723 1.717L-162.715-365.17m635.438 760.453L-162.715 28.397m635.438 432.48L-162.715 93.993m635.438 432.48l-635.438-366.886" stroke-width=".344" stroke-linecap="butt" stroke="#D3D3D3"/><path d="M193.553 152.205l-33.4-19.282m-45.903 19.282l33.4-19.282" stroke-width="1.002" stroke="#D3D3D3"/><path d="M472.723 285.96L-162.715-80.928m635.438 257.563L-162.715-190.25M472.723 67.31l-635.438-366.885m635.438 651.13L-162.715-15.333M472.723 242.23l-635.438-366.886m635.438 257.562L-162.715-233.98M472.723 23.582l-635.438-366.886m635.438 760.452L-162.715 50.262m635.438 432.48l-635.438-366.885m635.438 432.48L-162.715 181.45m635.438 126.374L-162.715-59.062M472.723 198.5l-635.438-366.886M472.723 89.176L-162.715-277.71m635.438 651.13L-162.715 6.532m635.438 257.562l-635.438-366.886M472.723 154.77l-635.438-366.886M472.723 45.446L-162.715-321.44m635.438 760.453L-162.715 72.127m635.438 432.48L-162.715 137.72m635.438 191.97L-162.715-37.198m635.438 257.563L-162.715-146.52m635.438 257.56l-635.438-366.885M472.723 1.717L-162.715-365.17m635.438 760.453L-162.715 28.397m635.438 432.48L-162.715 93.993m635.438 432.48l-635.438-366.886" stroke-width=".344" stroke-linecap="butt" stroke="#D3D3D3"/><circle cx="112.21" cy="856.785" r="56.785" fill="#fff" stroke-width="1.56" stroke-linecap="butt" stroke="#626262" transform="matrix(1.24 -.33226 .33226 1.24 -265.923 -924.797)"/><path d="M159.483 161.788l-.024-1.31c.32-.004.64-.013.96-.023.84-.032 1.68-.078 2.52-.143.97-.077 1.93-.18 2.89-.302l.05-.008.17 1.298c-.27.035-.54.067-.8.098-.74.085-1.48.16-2.22.217-.74.06-1.48.1-2.22.134-.45.01-.91.03-1.36.03zm-2.644-.012c-2.2-.054-4.38-.247-6.56-.544l-.04-.005.18-1.296c.36.06.72.1 1.09.15.82.1 1.64.18 2.47.25.94.08 1.89.12 2.85.15h.03l-.03 1.31zm11.85-.878l-.23-1.287 1.02-.18c.85-.17 1.7-.35 2.54-.55.85-.2 1.69-.43 2.53-.67l.2-.06.37 1.26-.95.27c-.74.2-1.48.39-2.23.57-.74.18-1.49.33-2.23.48-.35.07-.69.13-1.04.2zm-21.06-.097c-2.07-.38-4.11-.88-6.13-1.48l-.29-.09.38-1.25c.32.1.64.19.96.29.9.26 1.8.5 2.72.71.8.19 1.6.36 2.41.51l.19.04-.24 1.29zm30.01-2.2l-.43-1.24.86-.3c.81-.29 1.61-.59 2.4-.92.9-.37 1.79-.76 2.67-1.17l.05-.02.56 1.19c-.245.12-.49.23-.736.34-.68.31-1.367.61-2.058.89-.698.29-1.4.56-2.1.82-.41.15-.828.3-1.24.44zm-38.95-.19c-1.1-.39-2.18-.8-3.25-1.25-.88-.37-1.75-.76-2.61-1.17l-.25-.12.57-1.18.87.42c.84.39 1.692.77 2.56 1.12.75.31 1.51.6 2.28.88l.25.09c-.15.41-.3.83-.44 1.24zm47.45-3.46l-.61-1.15.84-.45c.73-.4 1.46-.82 2.17-1.25.81-.49 1.61-1.01 2.4-1.54l.11-.08.733 1.09-.725.48c-.61.4-1.23.794-1.85 1.17-.63.38-1.266.75-1.905 1.108-.395.218-.79.43-1.19.64zm-55.91-.28c-1.13-.61-2.24-1.25-3.33-1.93-.7-.44-1.4-.9-2.09-1.37l-.23-.15.742-1.07.8.54c.775.518 1.56 1.017 2.354 1.496.7.42 1.403.82 2.115 1.215l.246.13-.62 1.155zm63.73-4.65l-.79-1.05c.22-.16.43-.33.65-.49.74-.57 1.48-1.16 2.19-1.77.71-.61 1.41-1.234 2.1-1.875v-.003l.9.95c-.27.25-.538.493-.8.74-.54.48-1.08.954-1.63 1.42-.558.463-1.12.914-1.688 1.36-.317.25-.635.49-.955.73zm-71.51-.36c-.93-.71-1.84-1.44-2.73-2.2-.72-.62-1.43-1.26-2.13-1.91l-.18-.17.9-.95c.23.22.46.43.69.65.6.55 1.21 1.1 1.83 1.62.71.61 1.43 1.19 2.17 1.76l.23.17-.79 1.04zm78.45-5.74l-.94-.91.63-.66c.56-.59 1.11-1.2 1.64-1.81.61-.7 1.2-1.42 1.78-2.15l.19-.25 1.03.81c-.21.27-.426.54-.64.81-.9 1.11-1.84 2.19-2.81 3.24-.297.313-.59.626-.89.934zm-85.37-.41c-.83-.86-1.63-1.74-2.4-2.64-.626-.73-1.23-1.48-1.82-2.242l-.094-.125 1.04-.795c.17.23.35.452.524.68.58.735 1.18 1.46 1.8 2.17.54.62 1.09 1.224 1.66 1.82l.22.236-.943.906zm91.29-6.69l-1.07-.76c.18-.25.36-.51.53-.77.525-.76 1.034-1.54 1.524-2.33.43-.69.84-1.39 1.24-2.1l.15-.264 1.14.635c-.165.3-.334.594-.503.89-.714 1.233-1.47 2.44-2.265 3.624l-.75 1.08zm-97.16-.45c-1.21-1.725-2.31-3.52-3.33-5.364l-.147-.267 1.15-.63c.162.3.325.597.49.89.472.83.96 1.65 1.47 2.46.444.7.905 1.395 1.377 2.08l.06.08-1.076.75zm101.91-7.48l-1.18-.58c.14-.28.276-.566.413-.848.35-.74.686-1.48 1.005-2.23.37-.856.714-1.72 1.04-2.594l.1-.28 1.23.455c-.114.32-.23.634-.354.95-.52 1.33-1.08 2.64-1.683 3.935-.19.4-.38.793-.574 1.187zm-106.59-.5c-.97-1.98-1.81-4.02-2.55-6.1l1.232-.44c.11.31.225.62.34.93.13.344.26.69.394 1.03.27.68.55 1.355.843 2.025.29.663.6 1.32.914 1.98l-1.173.574zm110.06-8.078l-1.25-.39c.1-.31.19-.614.287-.92.27-.9.517-1.8.74-2.71.2-.8.376-1.6.54-2.4l.047-.234 1.285.256c-.065.32-.13.63-.196.94-.303 1.41-.66 2.8-1.06 4.18-.123.43-.252.86-.39 1.286zm-113.43-.54c-.65-2.11-1.168-4.25-1.58-6.42l1.283-.25c.07.37.14.73.212 1.09.076.367.156.73.237 1.09.31 1.34.66 2.666 1.057 3.98l.04.127-1.25.38zm115.53-8.47l-1.296-.192c.057-.35.106-.7.15-1.05.125-.94.23-1.875.31-2.82.07-.825.117-1.655.153-2.49l.002-.08 1.31.05c-.01.27-.028.54-.04.81-.04.73-.09 1.458-.158 2.18-.06.72-.14 1.446-.23 2.166-.06.477-.13.95-.2 1.428zm-117.54-.56c-.14-.98-.258-1.965-.35-2.953-.11-1.21-.18-2.42-.216-3.63l1.306-.04c.01.34.02.68.035 1.02l.06 1.08c.05.724.11 1.45.186 2.17.078.725.17 1.45.27 2.17l-1.3.18zm116.9-8.654l-.016-.912c-.005-.36-.02-.72-.03-1.08-.03-.72-.07-1.443-.13-2.164-.056-.726-.13-1.45-.21-2.17l-.015-.12 1.3-.157.096.867c.09.865.16 1.727.213 2.59.056.98.086 1.965.1 2.947v.2l-1.31.004zm-116.178-.55l-1.31-.024c.003-.36.012-.72.023-1.08.03-.85.075-1.7.14-2.55.075-.96.175-1.922.294-2.882l.01-.08 1.3.17c-.05.376-.097.75-.14 1.13-.074.706-.14 1.414-.19 2.12-.05.71-.086 1.42-.113 2.134-.01.35-.02.703-.027 1.06zm115.41-8.46l-.17-.95c-.066-.36-.135-.725-.21-1.09-.29-1.437-.63-2.86-1.024-4.276l1.26-.35c.33 1.2.63 2.41.896 3.62.182.864.35 1.73.495 2.6l.04.227-1.29.21zm-114.54-.58l-1.29-.223c.05-.29.104-.58.16-.872.18-.942.38-1.88.603-2.813.196-.813.41-1.62.64-2.427l.093-.328 1.257.364-.28.99c-.364 1.35-.685 2.72-.96 4.1-.08.4-.15.79-.22 1.2zM213.6 84.253c-.085-.266-.18-.533-.27-.8-.12-.35-.242-.696-.37-1.044-.253-.69-.516-1.38-.793-2.06-.277-.675-.568-1.343-.867-2.01l-.052-.11 1.19-.545c.125.265.24.53.36.795.4.915.78 1.84 1.14 2.77.32.826.61 1.657.89 2.49l.04.105-1.24.4zm-110.163-.52l-1.238-.424c.1-.3.204-.6.31-.9.28-.78.58-1.56.89-2.335.36-.88.74-1.75 1.14-2.61l.13-.28 1.18.56-.42.91c-.57 1.28-1.1 2.57-1.58 3.88-.15.41-.29.81-.43 1.21zm106.685-7.83l-.42-.807c-.17-.32-.35-.64-.52-.95-.7-1.25-1.44-2.47-2.23-3.67l-.11-.16 1.09-.73c.17.25.34.51.5.77.46.72.9 1.44 1.33 2.18.492.85.96 1.71 1.413 2.58l.09.17c-.388.2-.777.394-1.164.593zm-103.11-.482l-1.16-.61.45-.85c.4-.73.81-1.45 1.24-2.16.49-.81 1-1.61 1.53-2.4l.17-.25 1.08.73c-.19.28-.37.55-.55.83-.76 1.17-1.48 2.36-2.16 3.58-.21.38-.42.76-.62 1.14zm98.36-7.22c-.23-.3-.45-.6-.68-.9-.22-.28-.43-.56-.65-.84-.88-1.1-1.79-2.18-2.74-3.22l-.03-.03.96-.89.75.84c.55.63 1.1 1.27 1.63 1.93.602.75 1.19 1.52 1.76 2.3l.04.06-1.055.77zm-93.56-.44l-1.05-.78c.19-.26.39-.51.58-.77.58-.75 1.173-1.49 1.79-2.22.54-.64 1.093-1.26 1.655-1.88l.19-.2.96.89-.66.72c-.93 1.05-1.83 2.12-2.69 3.22-.263.34-.53.69-.785 1.04zm87.66-6.43l-.628-.61-.764-.72c-1.02-.95-2.08-1.87-3.162-2.75l-.27-.22.82-1.02c.28.23.555.45.828.67.733.61 1.454 1.24 2.16 1.88.62.56 1.22 1.14 1.82 1.73l.13.13-.928.93zm-81.727-.39l-.917-.93c.245-.24.49-.47.73-.71.7-.65 1.41-1.3 2.135-1.93.64-.55 1.29-1.08 1.95-1.6l.15-.12.81 1.03c-.24.19-.47.37-.706.56-1.09.89-2.15 1.82-3.18 2.78-.33.31-.65.62-.97.93zm74.84-5.47c-.245-.18-.49-.35-.738-.53-.288-.2-.575-.4-.86-.59-1.16-.78-2.34-1.52-3.548-2.22l-.297-.16.654-1.135c.304.175.61.35.91.53.82.488 1.622.99 2.42 1.51.69.46 1.37.935 2.05 1.42l.17.127-.77 1.06zm-67.91-.34l-.765-1.06c.31-.22.625-.44.94-.66.804-.54 1.618-1.072 2.446-1.58.723-.446 1.46-.873 2.2-1.29l.64 1.142c-.31.173-.62.35-.93.527-.306.18-.614.36-.92.545-.916.56-1.814 1.14-2.7 1.74-.306.215-.613.427-.916.64zm60.2-4.39c-.27-.14-.54-.27-.815-.41l-.942-.45c-1.26-.593-2.545-1.14-3.85-1.65l-.3-.12.47-1.22c.322.125.645.25.97.38.772.31 1.54.635 2.3.977.865.39 1.722.8 2.57 1.23l.196.1-.6 1.166zm-52.45-.27l-.58-1.17c.312-.152.63-.31.95-.46.782-.373 1.573-.73 2.373-1.07.91-.385 1.82-.743 2.745-1.084l.45 1.23c-.33.12-.66.246-.99.37-.342.135-.682.27-1.022.41-1.01.416-2.01.86-2.99 1.325-.31.15-.627.3-.937.456zm44.104-3.22c-.3-.1-.596-.19-.89-.282-.338-.103-.67-.205-1.01-.305-1.35-.39-2.71-.734-4.084-1.033l-.263-.055.27-1.28.974.21c.815.19 1.63.39 2.437.61.922.25 1.835.53 2.745.82l.23.077-.408 1.24zm-35.72-.172l-.4-1.245c.26-.084.52-.163.78-.242.61-.182 1.225-.356 1.84-.523l.17.63-.166-.63c.37-.096.74-.192 1.11-.285.86-.21 1.73-.406 2.6-.58.86-.175 1.73-.326 2.6-.464l.154-.027.2 1.293c-.298.044-.59.093-.88.14-1.345.23-2.677.5-4 .818-1.213.297-2.415.63-3.608.99-.137.048-.27.09-.407.13zm26.93-1.98c-.337-.054-.673-.105-1.01-.156-.35-.05-.7-.095-1.05-.14-1.41-.174-2.827-.3-4.246-.38l-.13-.006.065-1.304c.29.01.57.03.86.05.847.053 1.69.13 2.535.22.96.1 1.917.23 2.87.38l.315.05-.21 1.29zm-15.475-.43l-.14-1.3c.304-.033.613-.063.922-.092.86-.07 1.72-.14 2.583-.18.98-.04 1.96-.06 2.944-.06h.15l-.008 1.31c-.29-.002-.58 0-.868 0-.72.01-1.44.03-2.16.064-.72.03-1.443.08-2.165.14-.423.04-.844.08-1.266.122z" fill="#5C544C" fill-rule="nonzero"/><path fill="#fff" stroke-width="2.003" stroke-linecap="butt" stroke="#626262" d="M67.39 108.05L240.9 61.556l9.83 36.687-173.51 46.49z"/><path d="M99.006 127.645l-.443-1.654 3.1-.83-3.545-13.23-3.102.83-.443-1.65 8.086-2.16.44 1.66-3.11.83 3.54 13.24 3.1-.83.44 1.66-8.08 2.16zm12.384-.858l8.747-2.344.493 1.84-8.748 2.344zm13.995-10.467l-4.74-9.08 3.716 13.61-1.67.45-4.43-16.545 2.26-.604 5.05 9.4-.35-10.65 2.17-.58 4.44 16.55-1.67.45-3.563-13.56.417 10.15-1.594.43zm13.82-6.496l-3.706-7.296.41 8.177 3.29-.88zm3.148 6.206L140 111.385l-3.99 1.07.263 5.204-1.84.49-.566-17.58 2.088-.56 8.3 15.51-1.902.51zm5.047-1.352l-4.434-16.545 3.68-.986c1.42-.38 2.688-.177 3.8.61 1.112.79 1.898 2.038 2.356 3.748l1.452 5.418c.45 1.682.39 3.136-.184 4.36-.573 1.225-1.57 2.028-2.99 2.41l-3.68.985zm1.438-2.16l1.736-.464c.91-.244 1.524-.756 1.84-1.534.315-.78.307-1.79-.026-3.03l-1.485-5.544c-.34-1.267-.843-2.167-1.51-2.697-.666-.54-1.455-.68-2.365-.44l-1.737.46 3.55 13.23zm10.66-1.082l-4.434-16.544 8.335-2.234.44 1.655-6.46 1.73 1.34 5.024 5.66-1.52.45 1.677-5.67 1.52 1.75 6.534 6.45-1.73.44 1.655-8.34 2.233zm12.382-.858l8.748-2.344.493 1.84-8.74 2.345zm14.916-6.456l-3.99-14.89-3.702.99-.443-1.653 9.31-2.5.45 1.65-3.72.99 3.99 14.89-1.88.5zm8.997-2.412l-4.433-16.544 1.882-.504 1.806 6.742 4.323-1.158-1.8-6.742 1.88-.504 4.44 16.544-1.88.505-2.17-8.13-4.32 1.16 2.18 8.12-1.88.5zm12.097-3.24l-.443-1.655 3.103-.83-3.547-13.237-3.103.83-.443-1.653 8.086-2.167.443 1.654-3.1.83 3.546 13.238 3.1-.83.444 1.653-8.086 2.167zm16.285-4.165c-.855.23-1.74.29-2.657.18-.915-.11-1.724-.343-2.426-.702l.13-1.742c.787.4 1.58.64 2.38.73.8.09 1.57.03 2.316-.16.828-.22 1.405-.64 1.73-1.27.328-.62.373-1.38.137-2.26-.2-.74-.566-1.27-1.102-1.59-.535-.31-1.552-.59-3.052-.84-1.66-.26-2.88-.66-3.66-1.2-.78-.54-1.32-1.36-1.62-2.48-.35-1.32-.25-2.46.31-3.42.56-.95 1.51-1.61 2.84-1.97.79-.21 1.62-.24 2.49-.11.87.14 1.62.39 2.23.76l-.06 1.75c-.75-.39-1.5-.64-2.23-.77s-1.42-.1-2.05.07c-.73.198-1.24.57-1.54 1.11-.29.548-.34 1.2-.14 1.96.19.7.56 1.205 1.12 1.507.556.306 1.61.57 3.166.808 1.6.236 2.78.62 3.533 1.147.754.53 1.28 1.345 1.574 2.45.396 1.473.29 2.76-.315 3.863-.61 1.1-1.63 1.844-3.06 2.23z" fill="#626262" fill-rule="nonzero"/></svg>