<svg viewBox="0 0 310 200" xmlns="http://www.w3.org/2000/svg" fill-rule="evenodd" clip-rule="evenodd" stroke-linecap="round" stroke-linejoin="round" stroke-miterlimit="1.414"><path d="M116.45 152.218l33.398-19.282m45.902 19.282l-33.4-19.282" stroke-width="1.002" stroke="#D3D3D3"/><path d="M-162.723 285.96l635.44-366.886m-635.44 257.562l635.44-366.887m-635.44 257.56l635.44-366.886m-635.44 651.13l635.44-366.887m-635.44 257.562l635.44-366.887m-635.44 257.562l635.44-366.886m-635.44 257.56l635.44-366.886m-635.44 760.455L472.717 50.26m-635.44 432.48l635.44-366.886m-635.44 432.48l635.44-366.886m-635.44 126.375L472.717-59.06m-635.44 257.56l635.44-366.886m-635.44 257.562l635.44-366.886m-635.44 651.13L472.717 6.532m-635.44 257.563l635.44-366.886m-635.44 257.56l635.44-366.886m-635.44 257.56l635.44-366.885m-635.44 760.453l635.44-366.886m-635.44 432.48l635.44-366.886m-635.44 191.97L472.717-37.2m-635.44 257.562l635.44-366.886m-635.44 257.56l635.44-366.885M-162.723 1.717l635.44-366.886m-635.44 760.455L472.717 28.4m-635.44 432.48l635.44-366.89m-635.44 432.485l635.44-366.886" stroke-width=".344" stroke-linecap="butt" stroke="#D3D3D3"/><path d="M116.45 152.218l33.398-19.282m45.902 19.282l-33.4-19.282" stroke-width="1.002" stroke="#D3D3D3"/><path d="M-162.723 285.96l635.44-366.886m-635.44 257.562l635.44-366.887m-635.44 257.56l635.44-366.886m-635.44 651.13l635.44-366.887m-635.44 257.562l635.44-366.887m-635.44 257.562l635.44-366.886m-635.44 257.56l635.44-366.886m-635.44 760.455L472.717 50.26m-635.44 432.48l635.44-366.886m-635.44 432.48l635.44-366.886m-635.44 126.375L472.717-59.06m-635.44 257.56l635.44-366.886m-635.44 257.562l635.44-366.886m-635.44 651.13L472.717 6.532m-635.44 257.563l635.44-366.886m-635.44 257.56l635.44-366.886m-635.44 257.56l635.44-366.885m-635.44 760.453l635.44-366.886m-635.44 432.48l635.44-366.886m-635.44 191.97L472.717-37.2m-635.44 257.562l635.44-366.886m-635.44 257.56l635.44-366.885M-162.723 1.717l635.44-366.886m-635.44 760.455L472.717 28.4m-635.44 432.48l635.44-366.89m-635.44 432.485l635.44-366.886" stroke-width=".344" stroke-linecap="butt" stroke="#D3D3D3"/><path d="M193.552 152.218l-33.4-19.282m-45.9 19.282l33.398-19.282" stroke-width="1.002" stroke="#D3D3D3"/><path d="M472.724 285.96L-162.714-80.926m635.438 257.562L-162.714-190.25M472.724 67.31l-635.438-366.885m635.438 651.13L-162.714-15.333M472.724 242.23l-635.438-366.886m635.438 257.562L-162.714-233.98M472.724 23.58l-635.438-366.885M472.724 417.15L-162.714 50.262m635.438 432.48l-635.438-366.885m635.438 432.48L-162.714 181.45m635.438 126.375L-162.714-59.06M472.724 198.5l-635.438-366.886M472.724 89.176L-162.714-277.71m635.438 651.13L-162.714 6.532m635.438 257.563L-162.714-102.79m635.438 257.56l-635.438-366.885m635.438 257.56L-162.714-321.44m635.438 760.454L-162.714 72.128m635.438 432.48l-635.438-366.886M472.724 329.69L-162.714-37.197m635.438 257.562L-162.714-146.52m635.438 257.56l-635.438-366.885M472.724 1.717L-162.714-365.17m635.438 760.454L-162.714 28.398M472.724 460.88L-162.714 93.99m635.438 432.484l-635.438-366.886" stroke-width=".344" stroke-linecap="butt" stroke="#D3D3D3"/><path d="M193.552 152.218l-33.4-19.282m-45.9 19.282l33.398-19.282" stroke-width="1.002" stroke="#D3D3D3"/><path d="M472.724 285.96L-162.714-80.926m635.438 257.562L-162.714-190.25M472.724 67.31l-635.438-366.885m635.438 651.13L-162.714-15.333M472.724 242.23l-635.438-366.886m635.438 257.562L-162.714-233.98M472.724 23.58l-635.438-366.885M472.724 417.15L-162.714 50.262m635.438 432.48l-635.438-366.885m635.438 432.48L-162.714 181.45m635.438 126.375L-162.714-59.06M472.724 198.5l-635.438-366.886M472.724 89.176L-162.714-277.71m635.438 651.13L-162.714 6.532m635.438 257.563L-162.714-102.79m635.438 257.56l-635.438-366.885m635.438 257.56L-162.714-321.44m635.438 760.454L-162.714 72.128m635.438 432.48l-635.438-366.886M472.724 329.69L-162.714-37.197m635.438 257.562L-162.714-146.52m635.438 257.56l-635.438-366.885M472.724 1.717L-162.714-365.17m635.438 760.454L-162.714 28.398M472.724 460.88L-162.714 93.99m635.438 432.484l-635.438-366.886" stroke-width=".344" stroke-linecap="butt" stroke="#D3D3D3"/><path d="M91.94 111v41.387l63.72 36.79v-41.39L91.94 111z" fill="#fff" stroke-width="2" stroke="#626262"/><path d="M59.88 356.773l-1.375 4.116c1.31.064 2.627.134 4.018.24l-2.642-4.36z" fill="none" stroke-width=".44" stroke="#626262" transform="matrix(2.41788 -.0849 .07556 2.15176 -73.882 -631.518)"/><path d="M59.88 356.773l-1.375 4.116c1.31.064 2.627.134 4.018.24l-2.642-4.36z" fill="none" stroke-width=".44" stroke="#626262" transform="matrix(2.34722 -.58645 .5219 2.08886 -220.05 -568.27)"/><path d="M59.88 356.773l-1.375 4.116c1.31.064 2.627.134 4.018.24l-2.642-4.36z" fill="none" stroke-width=".44" stroke="#626262" transform="matrix(1.41915 -1.95943 1.74376 1.26295 -571.44 -175.357)"/><path d="M59.88 356.773l-1.375 4.116c1.31.064 2.627.134 4.018.24l-2.642-4.36z" fill="none" stroke-width=".44" stroke="#626262" transform="matrix(2.04058 -1.29978 1.15672 1.81597 -415.577 -418.38)"/><path d="M219.274 110.946v41.388l-63.72 36.79v-41.39l63.72-36.788z" fill="#fff" stroke-width="2" stroke="#626262"/><path d="M92.208 119.134s6.72 20.955 26.955 32.404c20.234 11.448 36.21 4.066 36.21 4.066" fill="none" stroke="#626262"/><path d="M84.8 110.946l70.753-40.848 70.752 40.848-70.752 40.85-70.752-40.85z" fill="#fff" stroke-width="2.004" stroke="#626262"/><path d="M155.552 157.33l70.752-40.847v-5.54l-70.752 40.85v5.538z" fill="#fff" stroke-width="2.004" stroke="#626262"/><path d="M107.76 110.946l47.792-27.592 47.79 27.592-47.79 27.592-47.79-27.592z" fill="#fff" stroke="#626262"/><path d="M103.157 111.992s-.44 1.073-2.572 1.13c-1.946.05-2.47-1.094-2.484-1.13V66.62h5.05v45.372h.01zm54.928 31.988s-.44 1.073-2.572 1.128c-1.946.05-2.47-1.092-2.484-1.128h-.004V98.605h5.047v45.373h.01z" fill="#fff" stroke-width="2" stroke-linecap="butt" stroke="#626262"/><path d="M155.552 157.33L84.8 116.484v-5.54l70.752 40.85v5.538z" fill="#fff" stroke-width="2.004" stroke="#626262"/><path d="M214.583 111.943s-.442 1.074-2.572 1.13c-1.943.05-2.466-1.093-2.48-1.13V66.57h5.045v45.373h.01z" fill="#fff" stroke-width="2" stroke-linecap="butt" stroke="#626262"/><path d="M185.676 747.4c-10.707 0-19.4-8.694-19.4-19.4 0-10.707 8.693-19.4 19.4-19.4v38.8z" fill="none" stroke-width="1.23" stroke-linecap="butt" stroke="#696969" transform="matrix(0 .62118 -.61033 .35238 634.394 -215.272)"/><path d="M185.676 747.4c-10.707 0-19.4-8.694-19.4-19.4 0-10.707 8.693-19.4 19.4-19.4v38.8z" fill="none" stroke-width="1.23" stroke-linecap="butt" stroke="#696969" transform="matrix(0 .62118 -.61033 .35238 634.394 -215.272)"/><path d="M166.277 736l-11.085-16" fill="none" stroke-width="1.2" stroke-linecap="butt" stroke="#626262" transform="matrix(0 .73922 -.53466 .3087 583.702 -193.582)"/><path d="M166.277 736h-19.4m19.4 0l-13.857 14.4" fill="none" stroke-width="1.23" stroke-linecap="butt" stroke="#626262" transform="matrix(0 .62118 -.61033 .35238 639.398 -206.11)"/><path d="M95.75 64.868l62.966-56.613 12.702 6.463-63.722 57.048-11.947-6.898z" fill="#fff" stroke-width="2" stroke="#626262"/><path d="M171.418 14.718v29.456l-63.722 36.79v-9.198l63.722-57.048zM95.75 74.07c0 .008.282 5.704 6.91 7.27 2.382.563 4.96-.316 5.033-.374l.003-.003v-9.197L95.75 64.868v9.202z" fill="#fff" stroke-width="2" stroke="#626262"/><path d="M108.387 71.32l62.967-56.614 12.702 6.464-63.72 57.048-11.95-6.898zm75.67-50.15v29.456l-63.72 36.79v-9.198l63.72-57.048zm-75.67 59.35c0 .01.283 5.705 6.912 7.272 2.38.562 4.955-.316 5.03-.375l.003-.002v-9.197l-11.948-6.898v9.2z" fill="#fff" stroke-width="2" stroke="#626262"/><g fill="#fff" stroke-width="2" stroke="#626262"><path d="M120.454 77.46l62.968-56.612 12.7 6.463-63.72 57.05-11.948-6.9z"/><path d="M196.123 27.31v29.457l-63.72 36.79V84.36l63.72-57.05zm-75.67 59.353c0 .008.284 5.703 6.913 7.27 2.38.562 4.96-.316 5.032-.375l.004-.002V84.36l-11.948-6.9v9.203z"/></g><g fill="#fff" stroke-width="2" stroke="#626262"><path d="M133.04 83.91l62.966-56.615 12.702 6.464-63.722 57.045-11.947-6.898z"/><path d="M208.708 33.76v29.455l-63.722 36.79v-9.198l63.722-57.048zM133.04 93.11c0 .01.282 5.704 6.91 7.27 2.382.563 4.96-.315 5.033-.374l.003-.002v-9.197L133.04 83.91v9.2z"/></g><g fill="#fff" stroke-width="2" stroke="#626262"><path d="M145.832 90.412L208.8 33.8l12.7 6.462-63.72 57.048-11.948-6.898z"/><path d="M221.5 40.262v29.456l-63.72 36.79V97.31l63.72-57.048zm-75.668 59.352c0 .008.283 5.703 6.912 7.27 2.38.563 4.958-.316 5.032-.374l.003-.003V97.31l-11.95-6.898v9.202z"/></g></svg>