<svg viewBox="0 0 310 200" xmlns="http://www.w3.org/2000/svg" fill-rule="evenodd" clip-rule="evenodd" stroke-linecap="round" stroke-linejoin="round" stroke-miterlimit="1.414"><path d="M116.447 152.205l33.4-19.282m45.903 19.282l-33.4-19.282" stroke-width="1.002" stroke="#D3D3D3"/><path d="M-162.723 285.96L472.715-80.928m-635.438 257.563L472.715-190.25M-162.723 67.31l635.438-366.885m-635.438 651.13L472.715-15.333M-162.723 242.23l635.438-366.886m-635.438 257.562L472.715-233.98M-162.723 23.582l635.438-366.886m-635.438 760.452L472.715 50.262m-635.438 432.48l635.438-366.885m-635.438 432.48L472.715 181.45m-635.438 126.374L472.715-59.062M-162.723 198.5l635.438-366.886M-162.723 89.176L472.715-277.71m-635.438 651.13L472.715 6.532m-635.438 257.562l635.438-366.886M-162.723 154.77l635.438-366.886M-162.723 45.446L472.715-321.44m-635.438 760.453L472.715 72.127m-635.438 432.48L472.715 137.72m-635.438 191.97L472.715-37.198m-635.438 257.563L472.715-146.52m-635.438 257.56l635.438-366.885M-162.723 1.717L472.715-365.17m-635.438 760.453L472.715 28.397m-635.438 432.48L472.715 93.993m-635.438 432.48l635.438-366.886" stroke-width=".344" stroke-linecap="butt" stroke="#D3D3D3"/><path d="M116.447 152.205l33.4-19.282m45.903 19.282l-33.4-19.282" stroke-width="1.002" stroke="#D3D3D3"/><path d="M-162.723 285.96L472.715-80.928m-635.438 257.563L472.715-190.25M-162.723 67.31l635.438-366.885m-635.438 651.13L472.715-15.333M-162.723 242.23l635.438-366.886m-635.438 257.562L472.715-233.98M-162.723 23.582l635.438-366.886m-635.438 760.452L472.715 50.262m-635.438 432.48l635.438-366.885m-635.438 432.48L472.715 181.45m-635.438 126.374L472.715-59.062M-162.723 198.5l635.438-366.886M-162.723 89.176L472.715-277.71m-635.438 651.13L472.715 6.532m-635.438 257.562l635.438-366.886M-162.723 154.77l635.438-366.886M-162.723 45.446L472.715-321.44m-635.438 760.453L472.715 72.127m-635.438 432.48L472.715 137.72m-635.438 191.97L472.715-37.198m-635.438 257.563L472.715-146.52m-635.438 257.56l635.438-366.885M-162.723 1.717L472.715-365.17m-635.438 760.453L472.715 28.397m-635.438 432.48L472.715 93.993m-635.438 432.48l635.438-366.886" stroke-width=".344" stroke-linecap="butt" stroke="#D3D3D3"/><path d="M193.553 152.205l-33.4-19.282m-45.903 19.282l33.4-19.282" stroke-width="1.002" stroke="#D3D3D3"/><path d="M472.723 285.96L-162.715-80.928m635.438 257.563L-162.715-190.25M472.723 67.31l-635.438-366.885m635.438 651.13L-162.715-15.333M472.723 242.23l-635.438-366.886m635.438 257.562L-162.715-233.98M472.723 23.582l-635.438-366.886m635.438 760.452L-162.715 50.262m635.438 432.48l-635.438-366.885m635.438 432.48L-162.715 181.45m635.438 126.374L-162.715-59.062M472.723 198.5l-635.438-366.886M472.723 89.176L-162.715-277.71m635.438 651.13L-162.715 6.532m635.438 257.562l-635.438-366.886M472.723 154.77l-635.438-366.886M472.723 45.446L-162.715-321.44m635.438 760.453L-162.715 72.127m635.438 432.48L-162.715 137.72m635.438 191.97L-162.715-37.198m635.438 257.563L-162.715-146.52m635.438 257.56l-635.438-366.885M472.723 1.717L-162.715-365.17m635.438 760.453L-162.715 28.397m635.438 432.48L-162.715 93.993m635.438 432.48l-635.438-366.886" stroke-width=".344" stroke-linecap="butt" stroke="#D3D3D3"/><path d="M193.553 152.205l-33.4-19.282m-45.903 19.282l33.4-19.282" stroke-width="1.002" stroke="#D3D3D3"/><path d="M472.723 285.96L-162.715-80.928m635.438 257.563L-162.715-190.25M472.723 67.31l-635.438-366.885m635.438 651.13L-162.715-15.333M472.723 242.23l-635.438-366.886m635.438 257.562L-162.715-233.98M472.723 23.582l-635.438-366.886m635.438 760.452L-162.715 50.262m635.438 432.48l-635.438-366.885m635.438 432.48L-162.715 181.45m635.438 126.374L-162.715-59.062M472.723 198.5l-635.438-366.886M472.723 89.176L-162.715-277.71m635.438 651.13L-162.715 6.532m635.438 257.562l-635.438-366.886M472.723 154.77l-635.438-366.886M472.723 45.446L-162.715-321.44m635.438 760.453L-162.715 72.127m635.438 432.48L-162.715 137.72m635.438 191.97L-162.715-37.198m635.438 257.563L-162.715-146.52m635.438 257.56l-635.438-366.885M472.723 1.717L-162.715-365.17m635.438 760.453L-162.715 28.397m635.438 432.48L-162.715 93.993m635.438 432.48l-635.438-366.886" stroke-width=".344" stroke-linecap="butt" stroke="#D3D3D3"/><path d="M87.396 60.88c-.01 2.546-7.498 4.613-16.72 4.613-9.227 0-16.718-2.07-16.718-4.617 0-.047.002-.094.007-.14v-2.493h33.443v2.637h-.012z" fill="#fff" stroke-width=".5" stroke-linecap="butt" stroke="#5C544C" transform="matrix(3.98008 0 0 3.9888 -122.38 -90.57)"/><path d="M225.5 141.88c.02.175.03.35.03.53 0 10.134-29.8 18.363-66.503 18.363-36.7 0-66.498-8.23-66.498-18.362 0-.24.01-.48.05-.72h-.03l.03-.05c.28-1.85 1.56-3.64 3.69-5.31l12.58-18.1 100.98-.42 12.58 19.06c1.64 1.43 2.66 2.93 2.98 4.49l.36.54h-.28z" fill="#fff" stroke-width="2.013" stroke-linecap="butt" stroke="#5C544C"/><path d="M209.788 117.777c-.03 7.712-22.712 13.974-50.644 13.974-27.954 0-50.645-6.26-50.645-13.98 0-.14 0-.28.02-.42v-11.93h101.3v12.37h-.04z" fill="#fff" stroke-width="1.999" stroke-linecap="butt" stroke="#5C544C"/><circle cx="110.307" cy="82.177" r="6.724" fill="#fff" stroke-width=".36" stroke-linecap="butt" stroke="#5C544C" transform="matrix(7.5103 0 0 2.07402 -669.17 -65.217)"/><path d="M141.833 60.737h.024c9.927 0 17.99 8.062 17.99 17.99 0 9.93-8.063 17.993-17.99 17.993h-.024V60.737z" fill="#fff" stroke-width=".992" stroke-linecap="butt" stroke="#5C544C"/><path d="M177.848 60.467h-.023c-9.928 0-17.99 8.062-17.99 17.99 0 9.93 8.062 17.993 17.99 17.993h.023V60.467z" fill="#fff" stroke-width=".992" stroke-linecap="butt" stroke="#5C544C"/><path d="M158.52 115.002c-.35 0-.703-.002-1.053-.004l.005-1.193c.534.004 1.068.004 1.6.002.55-.002 1.1-.007 1.65-.014.542-.008 1.086-.02 1.63-.03l.54-.015.524-.016.035 1.192c-1.08.033-2.17.056-3.26.07-.55.004-1.11.006-1.66.008zm-3.45-.04c-1.92-.042-3.84-.12-5.756-.232l-.227-.015.074-1.19c.43.026.85.05 1.27.072 1.56.08 3.11.14 4.67.175l-.02 1.19zm10.776-.132l-.058-1.192c.45-.02.9-.045 1.347-.07 1.528-.09 3.055-.2 4.58-.333l.105 1.188c-1.538.136-3.077.247-4.618.336l-1.356.07zm-19.15-.283c-1.973-.16-3.944-.357-5.91-.598l-.05-.01.15-1.19c.493.06.987.12 1.48.17 1.474.16 2.948.3 4.426.42l-.095 1.18zm27.51-.36l-.128-1.186c.52-.05 1.038-.11 1.557-.17 1.388-.17 2.773-.36 4.156-.58l.17-.03.19 1.18c-.36.06-.72.12-1.08.17-.93.14-1.87.27-2.81.39-.68.09-1.36.17-2.05.24zm-35.847-.567c-1.75-.26-3.49-.557-5.23-.902l-.42-.086-.27-.056.24-1.166c.36.075.72.15 1.09.222.42.082.84.162 1.27.24 1.15.207 2.31.397 3.47.568l-.18 1.18zm44.15-.633l-.22-1.173c.32-.06.64-.12.95-.182.81-.163 1.63-.332 2.44-.517.77-.175 1.53-.364 2.29-.562l.08-.024.31 1.15-.86.22c-1.2.3-2.41.56-3.627.81l-1.39.27zm-52.41-.94c-1.88-.454-3.73-.984-5.56-1.617l-.23-.08.4-1.125c.18.065.36.127.53.19 1.68.57 3.39 1.055 5.12 1.473l-.28 1.16zm60.58-1.026l-.35-1.14c.26-.08.52-.16.78-.25.93-.3 1.85-.63 2.76-1 .63-.25 1.25-.53 1.86-.83l.05-.02.53 1.07-.32.16c-.55.26-1.11.51-1.676.74-.82.34-1.66.64-2.504.93-.38.13-.76.25-1.14.37zm-68.63-1.55c-.95-.41-1.88-.87-2.77-1.39-.84-.48-1.63-1.04-2.34-1.7l-.08-.07-.05-.04.82-.86c.103.11.22.21.33.31l.31.26c1.283 1.018 2.75 1.77 4.244 2.42-.16.36-.32.726-.476 1.09zm76.4-1.85l-.66-.99c.136-.09.27-.18.405-.28.173-.12.346-.25.514-.38.156-.12.31-.25.46-.39.116-.1.23-.21.34-.32.606-.62 1.14-1.37 1.28-2.25.03-.17.037-.34.035-.52h.01c-.02-.1-.02-.21-.037-.32-.03-.173-.077-.344-.13-.513l-.02-.063-.836-4.207 1.17-.237.83 4.17c.03.09.055.18.08.28.052.21.087.43.11.65v.024l.02.087.01.13-.02.13c0 .078-.004.15-.01.22-.018.24-.054.48-.11.716-.3 1.19-1.11 2.184-2.01 2.985-.14.126-.29.25-.438.366-.19.15-.38.29-.57.43-.148.104-.29.205-.44.3zm-83.17-3.49c-.123-.3-.215-.62-.27-.94-.086-.54-.055-1.1.08-1.63l.633-3.61 1.17.21-.64 3.66c-.018.07-.036.14-.05.218-.01.06-.023.124-.03.188-.03.247-.03.49 0 .73.034.24.1.47.184.69l.02.058-1.106.447zm85.668-1.65h.48v-.57l-.48.58zm-83.63-6.68l-1.176-.2 1.03-5.87 1.173.205-1.03 5.88zm82.043-.77l-1.164-5.85 1.17-.23 1.16 5.85-1.17.23zm-80.602-7.46l-1.18-.2 1.03-5.87 1.176.207-1.03 5.875zm78.97-.73l-1.162-5.85 1.17-.23 1.162 5.85-1.17.24zm-77.53-7.49l-1.172-.2 1.025-5.875 1.176.205-1.03 5.87zm75.908-.7l-1.167-5.85 1.17-.23 1.164 5.85-1.17.24zm-74.468-7.52l-1.18-.206 1.03-5.876 1.18.21c-.34 1.956-.683 3.915-1.03 5.874zm72.83-.665l-1.16-5.85 1.17-.23 1.17 5.85-1.17.235zm-71.39-7.56l-1.17-.202 1.03-5.872 1.174.21-1.03 5.877zm69.77-.63l-1.163-5.85 1.17-.23 1.166 5.85-1.17.235zm-68.326-7.59l-1.176-.207 1.03-5.876 1.174.208-1.03 5.878zm66.697-.596l-1.164-5.85 1.17-.237 1.164 5.85-1.17.232zm-65.26-7.63l-1.17-.21 1.03-5.874 1.174.2-1.03 5.876zm63.63-.56l-1.163-5.85 1.17-.236 1.165 5.85-1.17.23zm-62.19-7.67l-1.17-.204.43-2.446c.012-.044.02-.09.04-.133.075-.172.232-.302.42-.344.044-.01.09-.004.14-.01l3.48.067-.02 1.19-2.97-.06-.34 1.94zm60.56-.523l-.06-.29-4.71-.085.026-1.19 5.19.1c.046.004.09.005.135.016.18.05.33.17.4.34.02.04.03.09.04.13l.15.76c-.39.08-.78.157-1.17.23zm-7.15-.42l-5.963-.11.02-1.194 5.966.11-.023 1.194zm-8.35-.156l-5.96-.12.024-1.19 5.96.11-.02 1.194zm-8.35-.155l-5.96-.11.02-1.195 5.96.11c-.01.4-.02.8-.025 1.195zm-8.35-.157l-5.96-.11.024-1.196 5.964.11-.026 1.19zm-8.35-.16l-5.96-.11.02-1.192 5.967.11-.02 1.19zm-8.344-.155l-5.966-.11.023-1.194 5.964.11-.02 1.194z" fill="#5C544C" fill-rule="nonzero"/><path fill="#fff" stroke-width=".26" stroke-linecap="butt" stroke="#5C544C" d="M109.834 57.934h1.017v7.93h-1.01z" transform="matrix(3.96942 0 0 3.73827 -278.23 -142.842)"/><circle cx="110.307" cy="82.177" r="6.724" fill="#fff" transform="matrix(4.55275 0 0 1.25728 -344.365 -68.198)"/><path d="M157.45 44.17c-1.94-.002-3.877-.065-5.812-.17l-.183-.012.07-1.19c.434.025.867.046 1.3.068 1.54.068 3.08.105 4.62.112h.007c0 .398 0 .795-.002 1.193zm2.4-.016l-.025-1.193 1.507-.03c1.37-.04 2.74-.11 4.11-.21l.31-.02.086 1.19c-.476.04-.95.07-1.425.1-1.014.06-2.028.11-3.043.14-.507.02-1.014.03-1.52.04zm-10.788-.333c-1.974-.15-3.94-.38-5.9-.67l-.065-.01.18-1.18c.346.06.693.1 1.04.15 1.607.22 3.216.39 4.83.53h.01c-.03.4-.062.79-.095 1.19zm19.168-.14l-.118-1.18c.41-.04.817-.08 1.226-.13 1.533-.17 3.06-.39 4.582-.64l.06-.01.204 1.18c-.34.06-.68.12-1.02.17-1.112.18-2.227.33-3.346.46-.528.06-1.058.12-1.588.17zm-27.505-.93c-1.928-.35-3.84-.8-5.718-1.36l-.146-.04.35-1.14.64.19c1.65.47 3.31.85 4.99 1.17l.11.02-.21 1.18zm35.822-.31l-.244-1.16c.29-.06.58-.12.87-.19 1.613-.37 3.208-.81 4.77-1.36l.023-.006.408 1.12c-.24.088-.485.17-.728.253-1.29.428-2.6.785-3.922 1.097-.392.09-.784.18-1.177.26zm-43.983-1.89c-1.128-.44-2.24-.96-3.26-1.62-.726-.47-1.41-1.03-1.937-1.73l-.025-.03.964-.7c.05.07.105.14.16.21.46.54 1.032.978 1.63 1.356.88.555 1.826.99 2.788 1.377l.117.044-.43 1.11zm52.064-.65l-.51-1.08.366-.18c.272-.14.54-.28.803-.44.237-.14.47-.29.698-.44.164-.114.324-.234.48-.36.108-.088.21-.18.313-.273.52-.48.995-1.085 1.07-1.81V35.3l1.19.092c-.007.08-.016.157-.028.236-.03.18-.074.353-.134.53-.32.93-1.03 1.673-1.79 2.27-.135.103-.275.21-.417.31-.2.14-.41.27-.62.4-.28.17-.57.323-.85.48l-.58.284zm-56.754-5.19l-1.16-.28c.018-.07.04-.15.063-.22.052-.153.11-.3.18-.447.443-.915 1.23-1.627 2.05-2.2.2-.14.404-.273.612-.4.27-.17.56-.33.85-.48.3-.16.62-.31.93-.456l.5 1.087c-.18.08-.36.164-.54.25-.17.085-.17.085-.34.174-.8.42-1.58.894-2.22 1.523-.4.39-.76.85-.92 1.39l-.02.058zm59.288-1.15l-.11-.12-.18-.18c-.564-.533-1.213-.97-1.894-1.35-.835-.46-1.713-.84-2.604-1.18l-.05-.02.417-1.115c.17.06.33.124.5.19.98.39 1.93.83 2.83 1.375.72.44 1.41.95 1.97 1.58l.04.04-.89.78zm-53.096-3.11l-.39-1.13.593-.2c.76-.24 1.52-.47 2.3-.67.93-.243 1.88-.46 2.83-.66l.1-.02.24 1.17c-.32.064-.65.134-.97.204-1.32.298-2.62.638-3.91 1.044-.27.087-.54.175-.81.268zm46.033-.48c-.26-.076-.52-.15-.78-.22s-.52-.14-.79-.21c-1.33-.336-2.66-.62-4.01-.868l-.18-.034.21-1.174 1.1.21c1.6.32 3.18.69 4.74 1.15l.02.01-.34 1.14zm-38.03-1.46l-.2-1.178c.32-.055.64-.106.96-.156 1.58-.24 3.18-.44 4.77-.597l.22-.02.11 1.182c-.42.04-.85.083-1.27.13-1.33.15-2.66.32-3.98.53l-.63.1zm29.95-.25c-.33-.048-.67-.093-1-.138-.45-.06-.9-.116-1.35-.17-1.17-.136-2.34-.25-3.52-.343l-.04-.007.09-1.19c.37.03.75.063 1.12.095 1.613.144 3.23.33 4.833.56h.01c-.06.4-.11.79-.17 1.18zm-21.72-.706l-.09-1.19 1.41-.09c1.4-.075 2.81-.13 4.22-.154l.35-.007.02 1.19-1.51.03c-1.01.032-2.01.074-3.02.13-.47.026-.93.056-1.4.09zm13.45-.1c-.43-.022-.86-.042-1.3-.06-.51-.02-1.02-.04-1.53-.055-1.04-.03-2.077-.04-3.115-.046l.004-1.196c1.94.008 3.886.057 5.82.157l.176.01-.07 1.193z" fill="#5C544C" fill-rule="nonzero"/></svg>