<svg viewBox="0 0 310 200" xmlns="http://www.w3.org/2000/svg" fill-rule="evenodd" clip-rule="evenodd" stroke-linejoin="round" stroke-miterlimit="1.414"><path d="M-162.723 285.96L472.715-80.928m-635.438 257.563L472.715-190.25M-162.723 67.31l635.438-366.885m-635.438 651.13L472.715-15.333M-162.723 242.23l635.438-366.886m-635.438 257.562L472.715-233.98M-162.723 23.582l635.438-366.886m-635.438 760.452L472.715 50.262m-635.438 432.48l635.438-366.885m-635.438 432.48L472.715 181.45m-635.438 126.374L472.715-59.062M-162.723 198.5l635.438-366.886M-162.723 89.176L472.715-277.71m-635.438 651.13L472.715 6.532m-635.438 257.562l635.438-366.886M-162.723 154.77l635.438-366.886M-162.723 45.446L472.715-321.44m-635.438 760.453L472.715 72.127m-635.438 432.48L472.715 137.72m-635.438 191.97L472.715-37.198m-635.438 257.563L472.715-146.52m-635.438 257.56l635.438-366.885M-162.723 1.717L472.715-365.17m-635.438 760.453L472.715 28.397m-635.438 432.48L472.715 93.993m-635.438 432.48l635.438-366.886M-162.723 285.96L472.715-80.928m-635.438 257.563L472.715-190.25M-162.723 67.31l635.438-366.885m-635.438 651.13L472.715-15.333M-162.723 242.23l635.438-366.886m-635.438 257.562L472.715-233.98M-162.723 23.582l635.438-366.886m-635.438 760.452L472.715 50.262m-635.438 432.48l635.438-366.885m-635.438 432.48L472.715 181.45m-635.438 126.374L472.715-59.062M-162.723 198.5l635.438-366.886M-162.723 89.176L472.715-277.71m-635.438 651.13L472.715 6.532m-635.438 257.562l635.438-366.886M-162.723 154.77l635.438-366.886M-162.723 45.446L472.715-321.44m-635.438 760.453L472.715 72.127m-635.438 432.48L472.715 137.72m-635.438 191.97L472.715-37.198m-635.438 257.563L472.715-146.52m-635.438 257.56l635.438-366.885M-162.723 1.717L472.715-365.17m-635.438 760.453L472.715 28.397m-635.438 432.48L472.715 93.993m-635.438 432.48l635.438-366.886m.008 126.374L-162.715-80.92M472.723 176.64l-635.438-366.89M472.723 67.31l-635.438-366.885m635.438 651.13L-162.715-15.333M472.723 242.23l-635.438-366.886m635.438 257.562L-162.715-233.98M472.723 23.582l-635.438-366.886m635.438 760.452L-162.715 50.262m635.438 432.48l-635.438-366.885m635.438 432.48L-162.715 181.45m635.438 126.374L-162.715-59.062M472.723 198.5l-635.438-366.886M472.723 89.176L-162.715-277.71m635.438 651.13L-162.715 6.532m635.438 257.562l-635.438-366.886M472.723 154.77l-635.438-366.886M472.723 45.446L-162.715-321.44m635.438 760.453L-162.715 72.127m635.438 432.48L-162.715 137.72m635.438 191.97L-162.715-37.198m635.438 257.563L-162.715-146.52m635.438 257.56l-635.438-366.885M472.723 1.717L-162.715-365.17m635.438 760.453L-162.715 28.397m635.438 432.48L-162.715 93.993m635.438 432.48l-635.438-366.886M472.723 285.96L-162.715-80.928m635.438 257.563L-162.715-190.25M472.723 67.31l-635.438-366.885m635.438 651.13L-162.715-15.333M472.723 242.23l-635.438-366.886m635.438 257.562L-162.715-233.98M472.723 23.582l-635.438-366.886m635.438 760.452L-162.715 50.262m635.438 432.48l-635.438-366.885m635.438 432.48L-162.715 181.45m635.438 126.374L-162.715-59.062M472.723 198.5l-635.438-366.886M472.723 89.176L-162.715-277.71m635.438 651.13L-162.715 6.532m635.438 257.562l-635.438-366.886M472.723 154.77l-635.438-366.886M472.723 45.446L-162.715-321.44m635.438 760.453L-162.715 72.127m635.438 432.48L-162.715 137.72m635.438 191.97L-162.715-37.198m635.438 257.563L-162.715-146.52m635.438 257.56l-635.438-366.885M472.723 1.717L-162.715-365.17m635.438 760.453L-162.715 28.397m635.438 432.48L-162.715 93.993m635.438 432.48l-635.438-366.886" stroke-width=".344" stroke="#D3D3D3"/><g fill="#fff" stroke="#5C544C"><path d="M115.253 89.825l40.9 23.613 40.9-23.613-40.9-23.614-40.9 23.62z" stroke-width=".996"/><path d="M115.253 89.825v47.225l40.9 23.615v-47.227l-40.9-23.613m81.8 0v47.225l-40.9 23.615v-47.227l40.9-23.613" stroke-width=".996"/><path d="M94.316 127.926l23.97 13.838 23.968-13.838-23.97-13.84-23.968 13.84z" stroke-width=".999"/><path d="M94.316 127.926v27.676l23.97 13.84v-27.678l-23.97-13.838" stroke-width=".999"/><path d="M142.255 127.926v27.676l-23.97 13.84v-27.678l23.97-13.838" stroke-width=".999"/><path d="M81.532 148.543l13.245 7.647 13.245-7.647-13.245-7.647-13.245 7.647z"/><path d="M81.532 148.543v15.294l13.245 7.647V156.19l-13.245-7.647m26.49 0v15.294l-13.245 7.647V156.19l13.245-7.647"/><path d="M73.572 159.73l6.908 3.988 6.91-3.99-6.91-3.988-6.908 3.99z"/><path d="M73.572 159.73v7.976l6.908 3.99v-7.978l-6.908-3.99m13.818.002v7.976l-6.91 3.99v-7.978l6.91-3.99"/><g stroke-width=".999"><path d="M220.508 127.926l-23.97 13.838-23.97-13.838 23.97-13.84 23.97 13.84z"/><path d="M220.508 127.926v27.676l-23.97 13.84v-27.678l23.97-13.838m-47.938 0v27.676l23.968 13.84v-27.678l-23.97-13.838"/></g><g stroke-width=".999"><path d="M130.27 52.67l23.97 13.84v27.677L130.27 80.35V52.67z"/><path d="M130.27 52.67l23.97-13.837 23.968 13.84-23.97 13.837-23.968-13.84m23.97 41.518l23.968-13.84V52.673l-23.97 13.838v27.68"/></g><path d="M233.29 148.543l-13.244 7.647-13.244-7.647 13.244-7.647 13.245 7.647z"/><path d="M233.29 148.543v15.294l-13.244 7.647V156.19l13.245-7.647"/><path d="M206.8 148.543v15.294l13.246 7.647V156.19l-13.245-7.647m-65.06-117.25l13.245 7.646v15.29l-13.245-7.65V31.29z"/><path d="M141.733 31.292l13.245-7.647 13.245 7.647-13.245 7.647-13.245-7.65m13.245 22.94l13.245-7.65V31.29l-13.245 7.647v15.29m86.274 105.5l-6.91 3.987-6.907-3.99 6.908-3.988 6.91 3.99zm0 .003v7.976l-6.91 3.99v-7.978l6.91-3.99"/><path d="M227.435 159.73v7.976l6.908 3.99v-7.978l-6.908-3.99m-79.84-140.02l6.91 3.99v7.975l-6.91-3.988v-7.978zm0 0l6.91-3.99 6.908 3.985-6.908 3.99-6.91-3.99"/><path d="M154.505 31.673l6.908-3.988v-7.978l-6.908 3.99v7.976"/></g></svg>