<svg width="84" height="30" viewBox="0 0 84 30" xmlns="http://www.w3.org/2000/svg"><title>bitpay</title><path d="M83.5 7.487h-4.344L76.642 18.03l-.352 1.448c-.243.066-.485.132-.728.176-.44.087-.904.13-1.39.13-.55 0-.99-.087-1.322-.24-.31-.154-.55-.373-.684-.68-.132-.285-.176-.635-.154-1.03.022-.395.11-.833.22-1.272l1.323-5.48.86-3.64h-4.432l-2.006 8.42c-.243 1.007-.375 1.972-.42 2.893-.043.92.11 1.71.42 2.433.308.702.86 1.25 1.61 1.666.75.417 1.83.614 3.197.614.948 0 1.786-.088 2.49-.24.023 0 .067-.023.09-.023-.2.877-.596 1.578-1.213 2.126-.64.55-1.562.837-2.8.837-.53 0-1.01-.02-1.452-.087l-.86 3.572c.573.067 1.213.11 1.92.11 1.322 0 2.468-.153 3.46-.44.993-.305 1.83-.743 2.558-1.357.706-.614 1.3-1.38 1.786-2.28.485-.92.86-1.995 1.147-3.266l3-12.54.593-2.39zm-18.19 9.01c-.266 1.096-.354 2.214-.244 3.31.11 1.118.55 2.806.97 3.66h-4.19c-.506-.854-.484-1.27-.595-1.534-.55.44-1.142.812-1.804 1.097-.66.285-1.39.438-2.227.438-.97 0-1.81-.175-2.49-.504-.686-.33-1.26-.79-1.7-1.36-.44-.57-.75-1.227-.948-1.994-.2-.768-.287-1.58-.287-2.456 0-1.337.243-2.586.706-3.77.485-1.184 1.146-2.214 1.984-3.09.838-.878 2.89-2.83 6.24-2.83h6.726l-2.14 9.033zm-3.066-5.37c-2.03 0-2.404 0-3.242.415-.595.307-1.08.768-1.5 1.294-.418.526-.77 1.14-1.013 1.84-.247.703-.38 1.426-.38 2.17 0 .922.155 1.668.464 2.216.31.548.882.81 1.72.81.44 0 .86-.087 1.213-.262.35-.176.75-.46 1.145-.877.044-.482.11-.987.2-1.513.087-.526.197-1.03.285-1.47l1.104-4.624zM50.6 13.822c0 1.425-.24 2.72-.704 3.902-.463 1.184-1.125 2.193-1.963 3.048-.838.855-1.83 1.512-3 1.995-1.167.482-2.424.723-3.79.723-.663 0-1.324-.066-2.008-.175l-1.323 5.283h-4.344l5.05-21.09h5.8c1.102 0 2.05.176 2.82.505.795.33 1.435.79 1.964 1.36.507.57.882 1.25 1.124 2.016.265.74.375 1.552.375 2.43zm-10.65 5.985c.332.088.75.11 1.236.11.772 0 1.455-.132 2.095-.417.62-.285 1.17-.68 1.61-1.184.44-.504.775-1.118 1.04-1.82.24-.7.375-1.49.375-2.345 0-.83-.177-1.552-.552-2.122-.374-.592-1.013-.9-1.94-.9h-1.72l-2.14 8.682zm-9.128 0c-.55 0-.992-.088-1.323-.24-.31-.155-.555-.374-.687-.68-.132-.286-.177-.636-.155-1.03.023-.396.11-.834.22-1.273l1.324-5.48h4.94l.903-3.64h-4.96L32.23 2.86l-4.63.727-2.933 12.32c-.243 1.01-.375 1.974-.42 2.895-.044.92.11 1.71.42 2.433.31.7.86 1.25 1.61 1.666.75.417 1.83.614 3.196.614.948 0 1.786-.088 2.492-.24.064-.023.174-.045.24-.067l.905-3.75c-.31.11-.618.177-.904.22-.44.088-.905.132-1.39.132zM19.775 7.487L15.94 23.49h4.342l3.815-16.003h-4.322zm4.785-1.842l.662-2.784h-4.344l-.662 2.788h4.344zM10.16 7.51c.928 0 1.743.174 2.427.503.684.33 1.235.767 1.698 1.337.44.57.772 1.228.992 1.973.22.745.33 1.557.33 2.433 0 1.338-.242 2.587-.75 3.793-.506 1.18-1.168 2.232-2.027 3.11-.86.876-1.875 1.58-3.043 2.082-1.17.504-2.426.767-3.793.767-.176 0-.485 0-.926-.02-.44 0-.948-.046-1.5-.134-.573-.087-1.168-.197-1.786-.35-.64-.154-1.234-.373-1.786-.636l5.05-21.09 4.52-.7L7.78 8.058c.397-.176.75-.307 1.147-.395.375-.11.793-.152 1.234-.152zM6.37 19.916c.682 0 1.322-.154 1.917-.505.596-.325 1.125-.764 1.566-1.312.44-.548.794-1.184 1.036-1.863.24-.702.37-1.425.37-2.17 0-.92-.153-1.645-.462-2.17-.31-.527-.948-.768-1.786-.768-.265 0-.55.022-.992.13-.44.09-.816.308-1.17.615L4.96 19.83c.573.087.75.11.904.11.11-.023.286-.023.507-.023z" fill="#3A3A3A" fill-rule="evenodd"/></svg>