<?xml version="1.0" encoding="UTF-8" standalone="no"?>
<svg width="84px" height="30px" viewBox="0 0 84 30" version="1.1" xmlns="http://www.w3.org/2000/svg" xmlns:xlink="http://www.w3.org/1999/xlink" xmlns:sketch="http://www.bohemiancoding.com/sketch/ns">
    <!-- Generator: Sketch 3.3.3 (12072) - http://www.bohemiancoding.com/sketch -->
    <title>bitpay</title>
    <desc>Created with Sketch.</desc>
    <defs></defs>
    <g id="Page-1" stroke="none" stroke-width="1" fill="none" fill-rule="evenodd" sketch:type="MSPage">
        <g id="HOME-v2" sketch:type="MSArtboardGroup" transform="translate(-551.000000, -2394.000000)" fill="#3A3A3A">
            <g id="bitpay" sketch:type="MSLayerGroup" transform="translate(550.500000, 2394.500000)">
                <g id="Group" sketch:type="MSShapeGroup">
                    <path d="M84,6.98662768 L79.6561356,6.98662768 L77.1424272,17.5312877 L76.789626,18.9781642 C76.5470752,19.0439313 76.3045244,19.1096984 76.0619736,19.1535431 C75.6209722,19.2412326 75.1579206,19.2850773 74.672819,19.2850773 C74.1215672,19.2850773 73.6805657,19.1973879 73.3498146,19.0439313 C73.0411136,18.8904747 72.7985628,18.671251 72.6662623,18.3643378 C72.5339619,18.079347 72.4898617,17.7285891 72.5119118,17.3339864 C72.5339619,16.9393837 72.6221622,16.5009363 72.7324126,16.0624889 L74.055417,10.5818964 L74.9153698,6.94278294 L70.4833051,6.94278294 L68.4767484,15.3609731 C68.2341976,16.3694021 68.1018972,17.3339864 68.057797,18.2547259 C68.0136969,19.1754655 68.1680474,19.9646708 68.4767484,20.688109 C68.7854494,21.3896249 69.3367013,21.9376841 70.0864038,22.3542092 C70.8361063,22.7707342 71.9165598,22.9680355 73.2836644,22.9680355 C74.2318175,22.9680355 75.0697203,22.880346 75.7753227,22.7268894 C75.7973727,22.7268894 75.8414729,22.7049671 75.863523,22.7049671 L75.863523,22.7049671 C75.6650723,23.5818619 75.268171,24.2833777 74.6507689,24.831437 C74.0113168,25.3794962 73.0852137,25.664487 71.8504096,25.664487 C71.3212079,25.664487 70.8361063,25.6425647 70.3951048,25.5767976 L69.5351519,29.1501439 C70.1084538,29.215911 70.747906,29.2597558 71.4535083,29.2597558 C72.7765127,29.2597558 73.9231165,29.1062992 74.9153698,28.8213083 C75.9076231,28.5143952 76.7455259,28.0759478 77.4731783,27.4621214 C78.1787807,26.848295 78.7741326,26.0810121 79.2592342,25.1821949 C79.7443359,24.2614554 80.1191871,23.1872592 80.4058381,21.9157618 L83.404648,9.37616602 L83.404648,9.37616602 L84,6.98662768 L84,6.98662768 Z" id="y_2_"></path>
                    <path d="M65.8086895,15.9967218 C65.5440887,17.0928403 65.4558884,18.2108812 65.5661387,19.3069997 C65.6763891,20.4250406 66.1173906,22.1130631 66.536342,22.9680355 L62.346828,22.9680355 C61.8396764,22.1130631 61.8617264,21.696538 61.7514761,21.4334696 C61.2002242,21.871917 60.6048723,22.2445973 59.9433701,22.5295881 C59.2818679,22.8145789 58.5542154,22.9680355 57.7163127,22.9680355 C56.7461094,22.9680355 55.9082066,22.7926566 55.2246544,22.463821 C54.5411021,22.1349855 53.9678002,21.6746157 53.5267987,21.1046341 C53.0857973,20.5346524 52.7770962,19.8769813 52.5786456,19.1096984 C52.3801949,18.3424154 52.2919946,17.5312877 52.2919946,16.6543929 C52.2919946,15.3171283 52.5345454,14.0675532 52.997597,12.8837452 C53.4826986,11.6999373 54.1442008,10.6695859 54.9821036,9.79269106 C55.8200064,8.91579625 57.8706632,6.96470531 61.2222743,6.96470531 L67.9475467,6.96470531 L65.8086895,15.9967218 L65.8086895,15.9967218 Z M62.7437294,10.6257411 C60.7151226,10.6257411 60.3402714,10.6257411 59.5023686,11.0422662 C58.9070166,11.3491793 58.421915,11.8095491 58.0029636,12.335686 C57.5840122,12.8618229 57.231211,13.4756492 56.9886602,14.1771651 C56.7461094,14.8786809 56.613809,15.6021191 56.613809,16.3474797 C56.613809,17.2682193 56.7681595,18.0135799 57.0768605,18.5616391 C57.3855616,19.1096984 57.9588635,19.3727668 58.7967662,19.3727668 C59.2377677,19.3727668 59.6567191,19.2850773 60.0095203,19.1096984 C60.3623214,18.9343194 60.7592228,18.6493286 61.1561241,18.2328036 C61.2002242,17.7505114 61.2663745,17.2462969 61.3545747,16.72016 C61.442775,16.1940231 61.5530254,15.6898086 61.6412257,15.2513612 L62.7437294,10.6257411 L62.7437294,10.6257411 Z" id="a_2_"></path>
                    <path d="M51.1012907,13.3221927 C51.1012907,14.7471467 50.8587399,16.0405666 50.3956883,17.2243745 C49.9326368,18.4081825 49.2711346,19.4166116 48.4332318,20.271584 C47.595329,21.1265564 46.6030757,21.7842275 45.4344218,22.2665197 C44.265768,22.7488118 43.0089138,22.9899579 41.6418092,22.9899579 C40.980307,22.9899579 40.3188048,22.9241908 39.6352526,22.8145789 L38.3122482,28.0978701 L33.9683837,28.0978701 L39.0178505,7.00855005 L44.8170198,7.00855005 C45.9195235,7.00855005 46.8676766,7.18392901 47.6394292,7.51276456 C48.4332318,7.84160011 49.0726839,8.30196989 49.6018857,8.87195151 C50.1090374,9.44193314 50.4838886,10.1215266 50.7264394,10.8888096 C50.9910403,11.6341702 51.1012907,12.4452978 51.1012907,13.3221927 L51.1012907,13.3221927 Z M40.4511053,19.3069997 C40.7818564,19.3946892 41.2008078,19.4166116 41.6859094,19.4166116 C42.4576619,19.4166116 43.1412142,19.2850773 43.7806663,19.0000865 C44.3980684,18.7150957 44.9493202,18.320493 45.3903217,17.8162785 C45.8313232,17.312064 46.1620743,16.6982377 46.4266751,15.9967218 C46.6692259,15.295206 46.8015264,14.5060006 46.8015264,13.6510282 C46.8015264,12.8179781 46.6251258,12.0945399 46.2502745,11.5245583 C45.8754233,10.9326543 45.2359712,10.6257411 44.3098681,10.6257411 L42.5899624,10.6257411 L40.4511053,19.3069997 L40.4511053,19.3069997 Z" id="p_2_"></path>
                    <path d="M31.3223749,19.3069997 C30.7711231,19.3069997 30.3301216,19.2193102 29.9993705,19.0658536 C29.6906695,18.912397 29.4481187,18.6931733 29.3158183,18.3862602 C29.1835178,18.1012693 29.1394177,17.7505114 29.1614678,17.3559088 C29.1835178,16.9613061 29.2717181,16.5228587 29.3819685,16.0844113 L30.7049729,10.6038188 L35.6441893,10.6038188 L36.5482423,6.96470531 L31.5869758,6.96470531 L32.7335796,2.36100758 L28.1030642,3.08444579 L25.1704045,15.4048178 C24.9278537,16.4132468 24.7955533,17.3778311 24.7514531,18.2985707 C24.707353,19.2193102 24.8617035,20.0085155 25.1704045,20.7319538 C25.4791055,21.4334696 26.0303574,21.9815289 26.7800598,22.3980539 C27.5297623,22.8145789 28.6102159,23.0118803 29.9773205,23.0118803 C30.9254736,23.0118803 31.7633764,22.9241908 32.4689788,22.7707342 C32.535129,22.7488118 32.6453793,22.7268894 32.7115296,22.7049671 L33.6155826,18.9562418 C33.3068815,19.0658536 32.9981805,19.1316207 32.7115296,19.1754655 C32.2705281,19.263155 31.8074766,19.3069997 31.3223749,19.3069997 L31.3223749,19.3069997 Z" id="t_2_"></path>
                    <path d="M20.2752882,6.98662768 L16.4385755,22.9899579 L20.7824399,22.9899579 L24.5971026,6.98662768 L20.2752882,6.98662768 Z" id="i_bottom_6_"></path>
                    <path d="M25.0601541,5.14514859 L25.7216563,2.36100758 L21.3777919,2.36100758 L20.7162897,5.14514859 L25.0601541,5.14514859 Z" id="i_top_2_"></path>
                    <path d="M10.6614563,7.00855005 C11.5875594,7.00855005 12.4034121,7.18392901 13.0869643,7.51276456 C13.7705166,7.84160011 14.3217684,8.28004752 14.78482,8.85002914 C15.2258214,9.42001077 15.5565725,10.0776819 15.7770733,10.8230425 C15.997574,11.568403 16.1078244,12.3795307 16.1078244,13.2564255 C16.1078244,14.5936901 15.8652736,15.8432652 15.3581219,17.0489956 C14.8509702,18.2328036 14.189468,19.2850773 13.3295151,20.1619721 C12.4695623,21.0388669 11.4552589,21.7403828 10.286605,22.2445973 C9.11795115,22.7488118 7.86109697,23.0118803 6.49399243,23.0118803 C6.31759184,23.0118803 6.00889082,23.0118803 5.56788935,22.9899579 C5.12688789,22.9899579 4.6197362,22.9461131 4.06848437,22.8584237 C3.49518247,22.7707342 2.89983049,22.6611223 2.28242843,22.5076657 C1.64297631,22.3542092 1.04762433,22.1349855 0.496372499,21.871917 L5.54583928,0.782596926 L10.0661043,0.0810810811 L8.28004837,7.5566093 C8.67694969,7.38123034 9.02975086,7.24969612 9.42665218,7.16200664 C9.80150342,7.05239479 10.2204548,7.00855005 10.6614563,7.00855005 L10.6614563,7.00855005 Z M6.86884368,19.4166116 C7.55239595,19.4166116 8.19184807,19.263155 8.78720005,18.912397 C9.38255203,18.5835615 9.91175379,18.1451141 10.3527553,17.5970548 C10.7937567,17.0489956 11.1465579,16.4132468 11.3891087,15.7336534 C11.6316595,15.0321375 11.7639599,14.3086993 11.7639599,13.5633387 C11.7639599,12.6425992 11.6096094,11.919161 11.3009084,11.3930241 C10.9922074,10.8668872 10.3527553,10.6257411 9.51485247,10.6257411 C9.25025159,10.6257411 8.96360064,10.6476635 8.52259917,10.7572753 C8.08159771,10.8449648 7.70674646,11.0641885 7.35394529,11.3711017 L5.45763899,19.3289221 C6.03094089,19.4166116 6.20734148,19.4385339 6.36169199,19.4385339 C6.47194236,19.4166116 6.64834294,19.4166116 6.86884368,19.4166116 L6.86884368,19.4166116 Z" id="b_2_"></path>
                </g>
            </g>
        </g>
    </g>
</svg>