<svg width="95" height="33" viewBox="0 0 95 33" xmlns="http://www.w3.org/2000/svg"><title>blocktrail</title><g fill="#3A3A3A" fill-rule="evenodd"><path d="M.5 32.726h33.665V.24H.5v32.486zM25.956 20.32c0 2.816-2.3 5.12-5.11 5.12H16.14v-3.124l3.535.003c1.245 0 2.263-1.025 2.263-2.27s-1.018-2.27-2.263-2.27c0 0-6.457.005-6.52.01v7.648H9.743V14.692c3.487.003 9.518.005 9.518.005 1.15 0 2.09-.94 2.09-2.09s-.94-2.092-2.086-2.092c0 0-6.03.002-9.517.005V7.38H19.84c2.81 0 5.106 2.315 5.106 5.145 0 1.34-.516 2.564-1.357 3.482 1.42.912 2.37 2.507 2.37 4.314zm10.73-7.608h3.044c.35 0 .664.05.942.148.277.1.513.235.706.406.194.173.342.374.444.604.102.23.153.474.153.73 0 .315-.07.613-.208.895-.14.282-.347.53-.624.74.445.206.767.47.964.797.197.325.296.675.296 1.048 0 .307-.064.595-.192.862-.124.267-.3.503-.52.708-.215.205-.47.366-.75.483-.28.117-.572.175-.88.175H36.69v-7.596zm1.28 3.02h1.59c.174 0 .334-.03.48-.083.147-.06.27-.13.378-.23.106-.095.188-.204.247-.33.06-.123.09-.255.09-.394 0-.257-.083-.468-.25-.632-.17-.165-.44-.247-.81-.247h-1.72v1.91zm0 3.468h1.775c.16 0 .325-.024.486-.072.16-.047.306-.117.438-.208.132-.092.238-.21.32-.357.08-.146.12-.318.12-.516 0-.336-.145-.626-.434-.867-.29-.242-.69-.362-1.21-.362h-1.49V19.2zm6.146-6.488V19.2h3.604v1.108H42.82v-7.596h1.292M54.76 16.52c0 .587-.078 1.123-.23 1.61-.154.486-.38.905-.675 1.256-.295.35-.66.624-1.095.818-.435.194-.93.29-1.484.29-.556 0-1.047-.096-1.474-.29-.427-.194-.79-.467-1.084-.818-.296-.35-.52-.77-.674-1.257-.153-.49-.23-1.026-.23-1.61 0-.587.077-1.12.23-1.61.153-.486.378-.906.674-1.257.295-.35.657-.626 1.084-.823.427-.197.918-.295 1.474-.295.554 0 1.05.098 1.484.296.434.2.8.474 1.095.825.296.35.52.77.674 1.257.15.488.23 1.024.23 1.61zm-1.283 0c0-.453-.056-.86-.17-1.217-.113-.36-.268-.66-.465-.906-.197-.245-.43-.433-.7-.565-.27-.132-.56-.198-.866-.198-.307 0-.594.066-.86.198-.267.132-.497.32-.69.565-.194.245-.347.547-.46.906-.114.358-.17.764-.17 1.218 0 .458.056.86.17 1.217.113.355.266.657.46.906.193.25.423.44.69.57.266.133.553.2.86.2.306 0 .595-.067.865-.198.27-.13.508-.32.705-.57.197-.25.352-.55.466-.906.113-.356.17-.76.17-1.214zm3.27 1.23c.128.38.294.696.5.945.203.25.435.433.694.554.26.12.528.18.798.18.278 0 .528-.06.75-.17.224-.116.42-.266.592-.45s.312-.4.42-.64c.11-.238.19-.485.24-.74h1.316c-.08.43-.21.834-.39 1.207-.178.372-.408.7-.69.976-.28.278-.607.498-.98.658-.372.16-.792.243-1.26.243-.525 0-1.004-.093-1.435-.28-.43-.187-.794-.455-1.093-.807-.3-.35-.53-.78-.696-1.29-.165-.51-.247-1.09-.247-1.74 0-.498.078-.98.235-1.45.157-.468.384-.883.68-1.245.295-.362.657-.653 1.084-.872.43-.22.917-.33 1.464-.33.468 0 .884.067 1.25.203.364.136.686.323.963.56.277.238.51.52.7.85.19.33.34.69.45 1.077h-1.33c-.19-.543-.45-.945-.782-1.21-.334-.262-.752-.394-1.256-.394-.32 0-.613.076-.876.23-.263.154-.49.36-.685.615-.19.257-.34.557-.45.9-.102.345-.154.703-.154 1.076 0 .514.063.96.19 1.34zm7.05-5.038v3.27l1.642-1.64c.55-.552 1.092-1.096 1.62-1.63h1.674l-3.068 3.063c.24.358.494.73.76 1.114l.806 1.154c.27.388.537.774.8 1.158l.755 1.103h-1.544l-2.465-3.644-.986.978v2.667H62.5V12.71h1.292"/><path d="M74.63 12.712v1.11h-2.377v6.486H70.97V13.82h-2.376v-1.108h6.036m5.882 2.25c0 .323-.065.634-.197.934-.13.3-.332.56-.602.78.277.153.465.367.564.64.098.275.148.555.148.84v1.1c0 .137.034.3.104.48.065.185.155.375.264.572h-1.39c-.118-.182-.19-.367-.215-.554-.025-.187-.038-.342-.038-.467v-1.14c0-.11-.018-.22-.055-.33-.037-.11-.098-.21-.18-.297-.086-.088-.195-.16-.33-.214-.135-.055-.3-.082-.5-.082h-1.905v3.084h-1.28v-7.596h3.186c.394 0 .74.066 1.04.198.3.13.552.305.756.52.204.217.36.46.466.726.105.267.158.536.158.806zm-4.327 1.175h1.906c.158 0 .3-.03.44-.093.14-.062.26-.147.36-.253.106-.102.188-.23.25-.37.06-.142.094-.3.094-.466 0-.328-.105-.6-.317-.81-.212-.213-.486-.32-.822-.32H76.19v2.317z"/><path d="M84.763 12.712l2.76 7.596h-1.347l-.8-2.206h-2.684l-.788 2.206h-1.36l2.795-7.596h1.42zm-.723 1.69l-.954 2.613h1.896l-.942-2.612zm3.604-1.69h1.28v7.596h-1.28v-7.596zm3.132 0V19.2h3.604v1.108h-4.896v-7.596h1.292"/></g></svg>