<?xml version="1.0" encoding="UTF-8" standalone="no"?>
<svg width="95px" height="33px" viewBox="0 0 95 33" version="1.1" xmlns="http://www.w3.org/2000/svg" xmlns:xlink="http://www.w3.org/1999/xlink" xmlns:sketch="http://www.bohemiancoding.com/sketch/ns">
    <!-- Generator: Sketch 3.3.3 (12072) - http://www.bohemiancoding.com/sketch -->
    <title>blocktrail</title>
    <desc>Created with Sketch.</desc>
    <defs></defs>
    <g id="Page-1" stroke="none" stroke-width="1" fill="none" fill-rule="evenodd" sketch:type="MSPage">
        <g id="HOME-v2" sketch:type="MSArtboardGroup" transform="translate(-679.000000, -2393.000000)" fill="#3A3A3A">
            <g id="blocktrail" sketch:type="MSLayerGroup" transform="translate(679.500000, 2391.500000)">
                <g id="Page-1" sketch:type="MSShapeGroup">
                    <g id="Imported-Layers-+-Imported-Layers">
                        <g id="Imported-Layers" transform="translate(0.000000, 0.740971)">
                            <path d="M0,33.484818 L33.6653228,33.484818 L33.6653228,1 L0,1 L0,33.484818 L0,33.484818 Z M25.4557921,21.078611 C25.4557921,23.8951288 23.1561228,26.1995795 20.3454488,26.1995795 L15.6420441,26.1995795 L15.6420441,23.0746643 C17.3584693,23.0765927 19.1771842,23.0777794 19.1771842,23.0777794 C20.421685,23.0777794 21.4398457,22.0575019 21.4398457,20.8104136 C21.4398457,19.5633253 20.421685,18.5428994 19.1771842,18.5428994 C19.1771842,18.5428994 12.7196063,18.5473496 12.6566929,18.5526898 L12.6566929,26.1995795 L9.24308658,26.1995795 L9.24308658,15.4510639 C12.7301166,15.4540307 18.7612158,15.4561074 18.7612158,15.4561074 C19.9087559,15.4561074 20.8477197,14.5151914 20.8477197,13.3652653 C20.8477197,12.2151909 19.9087559,11.2742749 18.7612158,11.2742749 C18.7612158,11.2742749 12.7301166,11.2763516 9.24308658,11.2793184 L9.24308658,8.13719591 L19.3367622,8.13719591 C22.1458079,8.13719591 24.4442929,10.452327 24.4442929,13.2817503 C24.4442929,14.6218473 23.9282551,15.8459431 23.0869921,16.7640148 C24.5080945,17.676153 25.4557921,19.2712452 25.4557921,21.0784627 L25.4557921,21.078611 L25.4557921,21.078611 Z" id="Fill-1"></path>
                            <path d="M36.1845228,13.4711796 L39.2298268,13.4711796 C39.5803654,13.4711796 39.8943402,13.5205766 40.1718992,13.6193705 C40.4494583,13.7181645 40.6848284,13.8535982 40.8784535,14.0255235 C41.0719307,14.197597 41.2198141,14.398745 41.3221039,14.6292643 C41.4243937,14.8597836 41.4754646,15.1032083 41.4754646,15.3592419 C41.4754646,15.6740178 41.4058898,15.9723281 41.2673323,16.2538761 C41.1284788,16.5355723 40.9203465,16.7827056 40.6429354,16.9948307 C41.0883622,17.1998357 41.4097386,17.4650663 41.6069166,17.790671 C41.8040945,18.116424 41.9026834,18.465763 41.9026834,18.8389846 C41.9026834,19.1463436 41.8387338,19.4336768 41.7109827,19.7006875 C41.5830834,19.9678465 41.4097386,20.2038543 41.1906519,20.4087108 C40.9715654,20.6137157 40.7212441,20.7748122 40.4402803,20.8917035 C40.1591685,21.0088915 39.865178,21.0673372 39.5584567,21.0673372 L36.1845228,21.0673372 L36.1845228,13.4711796 L36.1845228,13.4711796 Z M37.4661795,16.4898838 L39.0545575,16.4898838 C39.2298268,16.4898838 39.3904409,16.4624411 39.5365481,16.4075555 C39.6825071,16.35267 39.8084819,16.2777587 39.9144724,16.1825249 C40.020315,16.0874394 40.1024724,15.9778167 40.1609449,15.8532116 C40.2192693,15.7289034 40.2485795,15.5970298 40.2485795,15.4580358 C40.2485795,15.2020022 40.1644977,14.9915088 39.9966299,14.8268523 C39.8286141,14.6621957 39.5584567,14.5798674 39.1860095,14.5798674 L37.4661795,14.5798674 L37.4661795,16.4898838 L37.4661795,16.4898838 Z M37.4661795,19.9586494 L39.2407811,19.9586494 C39.4012473,19.9586494 39.5620095,19.9349152 39.7227716,19.8872983 C39.8833859,19.8398297 40.0294929,19.7702586 40.1609449,19.6787332 C40.2923969,19.5873562 40.3982394,19.4685365 40.4786205,19.3219773 C40.5588535,19.1755665 40.5991181,19.0036412 40.5991181,18.8060533 C40.5991181,18.4696198 40.4547874,18.1803583 40.166422,17.9388619 C39.8779087,17.6973655 39.4745228,17.5766174 38.9559685,17.5766174 L37.4661795,17.5766174 L37.4661795,19.9586494 L37.4661795,19.9586494 Z" id="Fill-2"></path>
                            <path d="M43.6115591,13.4711796 L43.6115591,19.9586494 L47.2155338,19.9586494 L47.2155338,21.0673372 L42.3189481,21.0673372 L42.3189481,13.4711796 L43.6115591,13.4711796" id="Fill-3"></path>
                            <path d="M54.2590205,17.2802355 C54.2590205,17.8657306 54.1823402,18.4018288 54.0289795,18.8883816 C53.8756189,19.3750828 53.6510551,19.7939928 53.3552882,20.1452603 C53.0595212,20.4965277 52.6943276,20.7693236 52.2598551,20.9630547 C51.8252346,21.1569342 51.3303654,21.2539481 50.7755433,21.2539481 C50.2204252,21.2539481 49.7294047,21.1569342 49.3021859,20.9630547 C48.874967,20.7693236 48.513474,20.4965277 48.2177071,20.1452603 C47.9219402,19.7939928 47.6973764,19.3750828 47.5440158,18.8883816 C47.3906551,18.4018288 47.3139748,17.8657306 47.3139748,17.2802355 C47.3139748,16.6948888 47.3906551,16.1587906 47.5440158,15.6720894 C47.6973764,15.1855366 47.9219402,14.7664781 48.2177071,14.4152107 C48.513474,14.0639433 48.874967,13.7895157 49.3021859,13.5919277 C49.7294047,13.3943398 50.2204252,13.2955459 50.7755433,13.2955459 C51.3303654,13.2955459 51.8252346,13.3943398 52.2598551,13.5919277 C52.6943276,13.7895157 53.0595212,14.0639433 53.3552882,14.4152107 C53.6510551,14.7664781 53.8756189,15.1855366 54.0289795,15.6720894 C54.1823402,16.1587906 54.2590205,16.6948888 54.2590205,17.2802355 L54.2590205,17.2802355 L54.2590205,17.2802355 Z M52.9773637,17.2802355 C52.9773637,16.8264657 52.9208158,16.4204611 52.8075716,16.0617767 C52.6943276,15.7032407 52.5391905,15.4013703 52.3420126,15.1561654 C52.1448346,14.9109606 51.9110929,14.7225697 51.6409354,14.5908444 C51.3706299,14.4591191 51.0822646,14.3932565 50.7755433,14.3932565 C50.468822,14.3932565 50.182233,14.4591191 49.9156284,14.5908444 C49.6490236,14.7225697 49.4189827,14.9109606 49.2255055,15.1561654 C49.0320284,15.4013703 48.8785197,15.7032407 48.7654236,16.0617767 C48.6521795,16.4204611 48.5956315,16.8264657 48.5956315,17.2802355 C48.5956315,17.7341537 48.6521795,18.1383782 48.7654236,18.4932058 C48.8785197,18.8481816 49.0320284,19.1500521 49.2255055,19.398817 C49.4189827,19.6477303 49.6490236,19.8379013 49.9156284,19.9696266 C50.182233,20.1013518 50.468822,20.1672145 50.7755433,20.1672145 C51.0822646,20.1672145 51.3706299,20.1013518 51.6409354,19.9696266 C51.9110929,19.8379013 52.1448346,19.6477303 52.3420126,19.398817 C52.5391905,19.1500521 52.6943276,18.8481816 52.8075716,18.4932058 C52.9208158,18.1383782 52.9773637,17.7341537 52.9773637,17.2802355 L52.9773637,17.2802355 L52.9773637,17.2802355 Z" id="Fill-4"></path>
                            <path d="M56.2472315,18.5096714 C56.3749827,18.89031 56.541222,19.205086 56.7456535,19.4537026 C56.950085,19.7026159 57.1819023,19.8872983 57.4412535,20.0080464 C57.7004567,20.1287946 57.965137,20.1891687 58.2354425,20.1891687 C58.5128535,20.1891687 58.7630268,20.1326515 58.9858141,20.0190235 C59.2086016,19.9056924 59.4056315,19.7557214 59.5773481,19.5689622 C59.7489166,19.3823514 59.8895465,19.1702262 59.9990898,18.93229 C60.108633,18.6945022 60.1888662,18.4475173 60.240085,18.1913353 L61.5546047,18.1913353 C61.4742236,18.6232993 61.3445481,19.0255954 61.165726,19.398817 C60.9867559,19.7720387 60.756715,20.0977917 60.4756031,20.3757795 C60.1943433,20.6539157 59.8676378,20.8736061 59.4951905,21.0344059 C59.1227433,21.195354 58.702778,21.2759022 58.2354425,21.2759022 C57.7096346,21.2759022 57.2311969,21.1825968 56.8004252,20.995986 C56.3695055,20.8093752 56.0044598,20.5405845 55.7049921,20.1891687 C55.4055244,19.8379013 55.1737071,19.4081624 55.0093921,18.8993587 C54.8450772,18.3907034 54.7629197,17.8108451 54.7629197,17.1594873 C54.7629197,16.6619574 54.8413764,16.1789647 54.9984378,15.7105093 C55.1553512,15.2423506 55.3818394,14.8268523 55.6776063,14.4646078 C55.9733732,14.1023632 56.3348662,13.8114699 56.762085,13.5919277 C57.1893039,13.3723856 57.6767716,13.2626146 58.2244882,13.2626146 C58.6918236,13.2626146 59.1080882,13.3304056 59.4732819,13.465691 C59.8384756,13.6011248 60.1597039,13.7877356 60.437263,14.0255235 C60.714674,14.2634597 60.9484158,14.546936 61.1383402,14.8762492 C61.3282646,15.2055624 61.4779244,15.5642468 61.5874677,15.9520056 L60.2619937,15.9520056 C60.0720693,15.4104189 59.8110898,15.0079745 59.4787591,14.744524 C59.1464284,14.4810734 58.7283874,14.3493481 58.2244882,14.3493481 C57.9031118,14.3493481 57.6110457,14.4261878 57.3481417,14.5798674 C57.0852378,14.7335468 56.8569732,14.9385517 56.6634961,15.1945853 C56.4700189,15.4507672 56.320211,15.7507092 56.2143685,16.094708 C56.108378,16.4387068 56.0555307,16.7972428 56.0555307,17.1704644 C56.0555307,17.6828283 56.1193323,18.1293295 56.2472315,18.5096714 L56.2472315,18.5096714 Z" id="Fill-5"></path>
                            <path d="M63.2961953,13.4711796 L63.2961953,16.7423573 C63.8365102,16.2009189 64.3843748,15.6538437 64.9393449,15.1012799 C65.494315,14.5488644 66.034778,14.0054976 66.5605859,13.4711796 L68.2365984,13.4711796 L65.1693859,16.5337923 C65.4103811,16.8924767 65.6641071,17.2637699 65.9307118,17.6481169 C66.1973166,18.0321673 66.4656977,18.4182944 66.7358551,18.8060533 C67.0060126,19.1939605 67.2726173,19.5799393 67.5355212,19.964138 C67.7984252,20.3483367 68.0503748,20.7160698 68.2913701,21.0673372 L66.7468095,21.0673372 L64.282085,17.4229379 L63.2961953,18.3999004 L63.2961953,21.0673372 L62.0035842,21.0673372 L62.0035842,13.4711796 L63.2961953,13.4711796" id="Fill-6"></path>
                            <path d="M74.1300284,13.4711796 L74.1300284,14.5798674 L71.7529386,14.5798674 L71.7529386,21.0673372 L70.4712819,21.0673372 L70.4712819,14.5798674 L68.0941921,14.5798674 L68.0941921,13.4711796 L74.1300284,13.4711796" id="Fill-7"></path>
                            <path d="M80.0123556,15.7214864 C80.0123556,16.043531 79.9466302,16.3545984 79.8151778,16.6545404 C79.6837262,16.9547791 79.4828474,17.2143729 79.2126899,17.433915 C79.490101,17.5875945 79.6782486,17.8016481 79.7768375,18.0760757 C79.8754272,18.3505034 79.9247212,18.6304196 79.9247212,18.9158244 L79.9247212,20.013535 C79.9247212,20.1525289 79.9593606,20.3136254 80.0287878,20.4965277 C80.0980658,20.6795783 80.1876252,20.8697493 80.2971686,21.0673372 L78.9059686,21.0673372 C78.7891717,20.8845833 78.7179686,20.6996042 78.6923587,20.5129933 C78.6667495,20.3263825 78.6540191,20.170923 78.6540191,20.0464663 L78.6540191,18.9048473 C78.6540191,18.7950762 78.6356627,18.6853052 78.5992474,18.5755341 C78.5626838,18.465763 78.5024344,18.366969 78.418501,18.2791522 C78.3344191,18.1913353 78.2250233,18.1199841 78.0898707,18.0650986 C77.9547182,18.0102131 77.7886272,17.9827703 77.5914488,17.9827703 L75.6853953,17.9827703 L75.6853953,21.0673372 L74.4037386,21.0673372 L74.4037386,13.4711796 L77.5914488,13.4711796 C77.985805,13.4711796 78.3326424,13.5370422 78.6321101,13.6687675 C78.9315778,13.8004928 79.1835273,13.9744947 79.3879587,14.1901801 C79.5923908,14.4061621 79.7476757,14.6476583 79.8535182,14.9146691 C79.9593606,15.1819765 80.0123556,15.4507672 80.0123556,15.7214864 L80.0123556,15.7214864 L80.0123556,15.7214864 Z M75.6853953,16.8960368 L77.5914488,16.8960368 C77.7448092,16.8960368 77.8907686,16.8650339 78.0296222,16.8027313 C78.1683273,16.7405773 78.2888252,16.6564688 78.3911151,16.5502579 C78.493405,16.4441953 78.5754141,16.3197387 78.6375878,16.1770363 C78.6996122,16.0343339 78.730699,15.8790227 78.730699,15.7105093 C78.730699,15.3811961 78.624709,15.1104769 78.4130233,14.8982034 C78.2011908,14.6860783 77.9273323,14.5798674 77.5914488,14.5798674 L75.6853953,14.5798674 L75.6853953,16.8960368 L75.6853953,16.8960368 Z" id="Fill-8"></path>
                            <path d="M84.2626363,13.4711796 L87.0231273,21.0673372 L85.6757445,21.0673372 L84.8760788,18.8609388 L82.1921193,18.8609388 L81.4035556,21.0673372 L80.0452191,21.0673372 L82.8385728,13.4711796 L84.2626363,13.4711796 L84.2626363,13.4711796 Z M83.5395021,15.161654 L82.5864757,17.7742053 L84.4817231,17.7742053 L83.5395021,15.161654 L83.5395021,15.161654 Z" id="Fill-9"></path>
                            <path d="M87.1436252,13.4711796 L88.4252818,13.4711796 L88.4252818,21.0673372 L87.1436252,21.0673372 L87.1436252,13.4711796 L87.1436252,13.4711796 Z" id="Fill-10"></path>
                            <path d="M90.2762677,13.4711796 L90.2762677,19.9586494 L93.8802424,19.9586494 L93.8802424,21.0673372 L88.9836566,21.0673372 L88.9836566,13.4711796 L90.2762677,13.4711796" id="Fill-11"></path>
                        </g>
                    </g>
                </g>
            </g>
        </g>
    </g>
</svg>