<svg width="83" height="37" viewBox="0 0 83 37" xmlns="http://www.w3.org/2000/svg"><title>copay</title><g fill="#3A3A3A" fill-rule="evenodd"><path d="M59.89 14.078c-.543 1.095-1.18 2.064-1.916 2.91-.735.844-1.405 1.3-2.01 1.365-.56.06-.88-.27-.957-.99-.18-1.677.338-3.657 1.553-5.944 1.216-2.29 2.594-3.516 4.133-3.68.86-.096 1.45.22 1.763.94-.51 1.16-1.367 2.96-2.566 5.395zm-18.552 7.765c-.676.073-1.072-.437-1.19-1.53-.118-1.095.266-2.56 1.154-4.4.886-1.837 1.767-3.18 2.643-4.03.533-.527 1.044-.818 1.534-.87.135-.016.242-.016.314 0 .36.055.57.373.633.956.145 1.345-.364 3.3-1.528 5.85s-2.353 3.89-3.566 4.02zm-8.893-8.996c-.583.063-1.024.3-1.32.708-.3.41-.415.927-.347 1.555.11 1.024.6 1.832 1.464 2.42-.445 1.344-1.036 2.59-1.773 3.74-.74 1.152-1.61 1.782-2.61 1.89-1.22.062-1.908-.605-2.058-2.002-.15-1.396.1-3 .755-4.814 1.2-3.285 2.607-5.014 4.216-5.188 1.025-.112 1.652.445 1.878 1.668l-.21.023zm49.07-8.208c-.583.06-1.206.2-1.867.41-.205.07-.397.196-.578.38-.18.185-.323.336-.43.453-.103.117-.217.33-.337.637-.12.308-.206.547-.26.718-.05.17-.14.485-.268.946l-.293 1.056c-.52 1.75-1.34 3.535-2.466 5.352-1.126 1.817-2.107 2.77-2.947 2.862-.447.048-.71-.324-.796-1.115-.16-1.49.14-3.37.896-5.64.758-2.27 1.57-3.88 2.436-4.82.124-.157.182-.28.172-.374-.01-.094-.06-.135-.156-.125-1.235.135-2.193.39-2.87.77-.68.38-1.295 1.13-1.846 2.248-.43.87-.8 1.96-1.108 3.27-1.562 3.766-2.982 5.72-4.26 5.857-.42.046-.662-.234-.727-.84-.124-1.163.235-3.08 1.08-5.75.845-2.67 1.618-4.36 2.32-5.07l-.35.037-1.75.155c-.468.05-.948.3-1.44.755-.495.453-.84.962-1.04 1.525-.29-.72-.78-1.216-1.47-1.482-.688-.267-1.406-.36-2.153-.28-1.585.172-2.978.918-4.18 2.237-1.203 1.32-2.07 2.855-2.6 4.607l-.03.1-.267.585c-.59 1.3-1.058 2.227-1.4 2.782-.62 1.01-1.387 1.95-2.294 2.826-.91.876-1.842 1.365-2.798 1.468l-.28.03c1.405-1.186 2.566-2.772 3.485-4.754.92-1.984 1.282-3.86 1.092-5.63-.23-2.14-1.127-3.126-2.69-2.957-1.654.18-3.41 1.83-5.268 4.95.915-2.455 1.685-3.95 2.31-4.49l-1.048.114c-1.378.15-2.315.532-2.815 1.15-.248.334-.59 1.254-1.03 2.76-.157.54-.37 1.333-.635 2.377-.82 1.895-1.8 2.904-2.94 3.027-.652.07-1.18-.12-1.582-.57.357-1.286.475-2.487.355-3.604-.316-2.934-1.86-4.25-4.635-3.95-1.656.18-3.094.9-4.314 2.162-.735.762-1.337 1.59-1.81 2.48l.012-.027c-1.12 2.107-3.06 5.778-5.5 7.878-2.437 2.1-4.835 3.278-7.19 3.534-3.777.408-5.887-1.46-6.334-5.6-.288-2.677.122-5.388 1.23-8.133C6.96 9.184 8.555 6.874 10.642 5c2.085-1.874 4.317-2.94 6.695-3.197 1.796-.194 2.766.383 2.91 1.733.098.885-.206 1.682-.907 2.394-.702.71-1.508 1.116-2.417 1.215-.326.035-.622.02-.89-.045-.236.425-.336.812-.3 1.162.04.35.233.616.583.802.35.184.782.25 1.295.195 1.097-.12 2.117-.56 3.06-1.32.946-.76 1.55-1.64 1.82-2.635.134-.53.177-1.007.13-1.425-.12-1.14-.793-2.014-2.014-2.624C19.382.646 17.7.458 15.556.69 13.41.922 11.297 1.74 9.22 3.142c-2.077 1.4-3.753 3.084-5.028 5.047-1.274 1.96-2.23 4.04-2.866 6.24-.634 2.2-.85 4.266-.64 6.197.55 5.098 3.563 7.35 9.04 6.756 2.357-.255 4.616-.965 6.778-2.13 2.16-1.163 3.904-2.6 5.23-4.308.214-.276.402-.54.58-.8.008.198.022.393.043.586.158 1.456.64 2.5 1.45 3.128.813.63 1.8.882 2.967.756 1.817-.198 3.253-.835 4.303-1.914 1.052-1.08 1.908-2.49 2.57-4.233.606.38 1.3.53 2.08.444.674-.072 1.36-.42 2.06-1.047-.34 1.4-.728 3.03-1.167 4.89-1.28 5.423-2.174 8.61-2.685 9.56l1.68-.182c.466-.05.845-.15 1.135-.3.29-.147.536-.44.737-.872.2-.433.46-1.362.78-2.786l1.3-6.32c.402 1.11 1.722 1.544 3.96 1.3 2.24-.24 4.097-1.16 5.576-2.756.912-.984 1.756-2.18 2.533-3.59-.02.57-.003 1.13.056 1.685.23 2.14 1.127 3.128 2.69 2.96 2.26-.245 4.468-2.86 6.618-7.85-.34 1.45-.43 2.895-.275 4.34.207 1.93.94 2.83 2.2 2.69 1.62-.174 3.382-2.072 5.29-5.69-.1.864-.12 1.578-.066 2.14.09.968.35 1.68.78 2.14.425.46.95.658 1.565.59.618-.066 1.147-.193 1.587-.382.44-.19 1.024-.67 1.754-1.445.73-.776 1.57-1.91 2.52-3.4l-1.423 5.522c-.918 3.513-2.322 5.372-4.21 5.577-.49.05-.907-.04-1.25-.273-.343-.233-.54-.57-.587-1.013-.09-.838.067-1.35.473-1.535-.143-.22-.364-.41-.664-.565-.3-.155-.653-.21-1.06-.167-.41.044-.75.287-1.02.728-.27.442-.378.92-.323 1.43.105.977.596 1.65 1.473 2.013.876.366 1.897.486 3.063.36 1.165-.127 2.29-.538 3.37-1.23 1.08-.695 1.954-1.56 2.62-2.598.666-1.037 1.204-2.4 1.61-4.093.153-.56.345-1.35.576-2.377.23-1.025.38-1.67.446-1.936s.244-1.02.534-2.265c.29-1.245.66-2.633 1.11-4.165.556-1.824 1.173-3 1.848-3.52l-1.434.157z"/><path d="M33.777 26.502c-7.94 1.36-15.56 3.274-20.94 5.483-2.242.92-2.81 2.757-2.103 4.49 9.137-4.174 13.664-5.35 20.333-7.013 1.183-.295 2.125-1.184 2.507-2.344.07-.208.137-.416.203-.616m29.718-.906c.236-.997-.035-1.036-1.047-1.184-5.54-.81-11.636-.746-18.97.827-1.235.262-2.25 1.13-2.445 2.38 0 0 9.213-3.035 22.462-2.027"/></g></svg>