<?xml version="1.0" encoding="UTF-8" standalone="no"?>
<svg width="83px" height="37px" viewBox="0 0 83 37" version="1.1" xmlns="http://www.w3.org/2000/svg" xmlns:xlink="http://www.w3.org/1999/xlink" xmlns:sketch="http://www.bohemiancoding.com/sketch/ns">
    <!-- Generator: Sketch 3.3.3 (12072) - http://www.bohemiancoding.com/sketch -->
    <title>copay</title>
    <desc>Created with Sketch.</desc>
    <defs></defs>
    <g id="Page-1" stroke="none" stroke-width="1" fill="none" fill-rule="evenodd" sketch:type="MSPage">
        <g id="HOME-v2" sketch:type="MSArtboardGroup" transform="translate(-818.000000, -2393.000000)" fill="#3A3A3A">
            <g id="copay" sketch:type="MSLayerGroup" transform="translate(818.500000, 2393.500000)">
                <g id="Page-1" sketch:type="MSShapeGroup">
                    <g id="Artboard-1">
                        <g id="Group">
                            <path d="M59.3896923,13.5784 C58.847,14.6728 58.2085385,15.6424 57.4735096,16.4872 C56.7392788,17.332 56.0688942,17.7872 55.4631538,17.8528 C54.9037019,17.9136 54.5852692,17.5832 54.5070577,16.8616 C54.3258942,15.1856 54.8446442,13.2056 56.0601154,10.9192 C57.2763846,8.6336 58.6538654,7.4072 60.1925577,7.2408 C61.0544808,7.1472 61.6434615,7.46 61.9563077,8.18 C61.4447404,9.3416 60.5892019,11.1408 59.3896923,13.5784 L59.3896923,13.5784 L59.3896923,13.5784 Z M40.8383942,21.3432 C40.1624231,21.416 39.7657788,20.9056 39.6476635,19.812 C39.5295481,18.7184 39.9142212,17.252 40.8016827,15.4136 C41.6883462,13.576 42.5694231,12.2328 43.4449135,11.384 C43.9780288,10.856 44.4887981,10.5648 44.9788173,10.512 C45.1184808,10.4968 45.224625,10.4968 45.29725,10.5128 C45.6563846,10.568 45.867875,10.8864 45.930125,11.4688 C46.0761731,12.8184 45.567,14.7688 44.4026058,17.3192 C43.2390096,19.8704 42.0506731,21.212 40.8383942,21.3432 L40.8383942,21.3432 L40.8383942,21.3432 Z M31.9454231,12.3472 C31.3620288,12.4096 30.9214904,12.6456 30.6238077,13.0552 C30.3253269,13.464 30.2104038,13.9824 30.2782404,14.6104 C30.388375,15.6344 30.8767981,16.4416 31.7419135,17.0304 C31.2965865,18.3736 30.7060096,19.62 29.9693846,20.7712 C29.2319615,21.9224 28.3628558,22.552 27.3596731,22.6608 C26.1402115,22.7224 25.4554615,22.0552 25.304625,20.6584 C25.1537885,19.2616 25.4059808,17.6576 26.0596058,15.844 C27.2623077,12.5592 28.6677212,10.8296 30.2766442,10.656 C31.3021731,10.544 31.9286635,11.1008 32.1545192,12.324 L31.9454231,12.3472 L31.9454231,12.3472 Z M81.0143846,4.1392 C80.4317885,4.2024 79.8092885,4.34 79.1484808,4.5528 C78.943375,4.6224 78.7510385,4.7488 78.569875,4.9336 C78.3895096,5.1176 78.2466538,5.2688 78.1413077,5.3856 C78.0367596,5.5032 77.9234327,5.716 77.8029231,6.0232 C77.6832115,6.3296 77.5970192,6.5688 77.5443462,6.74 C77.4924712,6.9104 77.4022885,7.2264 77.2745962,7.6872 C77.1477019,8.148 77.0503365,8.5 76.9817019,8.7432 C76.4629519,10.4944 75.6409327,12.2784 74.5156442,14.0952 C73.3903558,15.912 72.4087212,16.8656 71.5691442,16.9568 C71.1262115,17.0048 70.8628462,16.6328 70.7766538,15.8416 C70.6170385,14.352 70.9155192,12.472 71.6728942,10.2 C72.4302692,7.9288 73.2427115,6.3224 74.1078269,5.3816 C74.2323269,5.2264 74.2897885,5.1024 74.2802115,5.0088 C74.2698365,4.916 74.2187596,4.8752 74.1253846,4.8848 C72.8899615,5.0192 71.9322692,5.2752 71.2539038,5.6544 C70.5755385,6.0344 69.9602212,6.784 69.40875,7.9024 C68.9809808,8.772 68.6114712,9.8624 68.3018173,11.1728 C66.7399808,14.9392 65.3202019,16.892 64.0416827,17.0304 C63.6218942,17.076 63.3800769,16.796 63.3146346,16.1904 C63.1893365,15.0272 63.5484712,13.1104 64.3936346,10.4408 C65.238,7.7712 66.0113365,6.0808 66.7120481,5.3696 L66.3632885,5.4072 L64.6107115,5.5616 C64.1446346,5.612 63.6649904,5.864 63.1709808,6.3176 C62.6777692,6.7712 62.3306058,7.28 62.1318846,7.8432 C61.8421827,7.1208 61.3529615,6.6264 60.6634231,6.36 C59.9746827,6.0928 59.2572115,6 58.5102115,6.0808 C56.9252308,6.252 55.5317885,6.9976 54.3290865,8.3168 C53.1271827,9.636 52.2612692,11.172 51.7305481,12.924 C51.7201731,12.9584 51.7097981,12.992 51.7002212,13.0256 C51.6180192,13.2032 51.5286346,13.3976 51.4328654,13.6096 C50.8414904,14.9096 50.3754135,15.8368 50.0338365,16.392 C49.4121346,17.4016 48.6459808,18.3432 47.7385673,19.2184 C46.8303558,20.0936 45.8982019,20.5832 44.9421058,20.6864 L44.6627788,20.7168 C46.0681923,19.5288 47.2293942,17.9432 48.1479808,15.9608 C49.0665673,13.9776 49.4304904,12.1016 49.23975,10.3328 C49.0091058,8.192 48.1128654,7.2064 46.5510288,7.3752 C44.8958173,7.5544 43.13925,9.204 41.282125,12.3248 C42.1975192,9.8712 42.9676635,8.3752 43.5933558,7.8368 L42.5446827,7.9504 C41.1687981,8.0992 40.2318558,8.4832 39.7322596,9.1024 C39.4848558,9.4352 39.1416827,10.3552 38.7027404,11.8624 C38.5455192,12.4024 38.3340288,13.1944 38.0682692,14.2376 C37.24625,16.132 36.2662115,17.1408 35.1281538,17.264 C34.4753269,17.3352 33.9477981,17.1448 33.5447692,16.6936 C33.9023077,15.4072 34.0204231,14.2056 33.8999135,13.0888 C33.583875,10.156 32.0387981,8.84 29.2646827,9.1408 C27.6094712,9.32 26.1713365,10.0408 24.9510769,11.3024 C24.21525,12.064 23.6127019,12.892 23.1394423,13.7832 C23.1442308,13.7744 23.1474231,13.764 23.1522115,13.7552 C22.0317115,15.8608 20.0923846,19.532 17.6534615,21.632 C15.2145385,23.7328 12.8171154,24.9104 10.4627885,25.1656 C6.68549038,25.5744 4.57457692,23.7072 4.12845192,19.5648 C3.83954808,16.8888 4.24975962,14.1784 5.35669231,11.4328 C6.46522115,8.688 8.061375,6.3784 10.1475481,4.5048 C12.2329231,2.6312 14.4651442,1.5656 16.8434135,1.308 C18.6382885,1.1136 19.6079519,1.6912 19.754,3.0408 C19.8497692,3.9256 19.5457019,4.7232 18.8449904,5.4352 C18.1426827,6.1464 17.3374231,6.5512 16.4276154,6.6496 C16.102,6.6856 15.8059135,6.6704 15.5393558,6.6056 C15.3015288,7.0312 15.2017692,7.4184 15.2392788,7.768 C15.2767885,8.1168 15.4707212,8.384 15.8210769,8.5696 C16.1714327,8.7552 16.6031923,8.8208 17.1155577,8.7656 C18.2113173,8.6464 19.2312596,8.2064 20.1753846,7.4448 C21.1195096,6.684 21.7268462,5.8056 21.9965962,4.8112 C22.1282788,4.2792 22.171375,3.8032 22.1258846,3.3848 C22.0029808,2.244 21.331,1.3696 20.1099423,0.76 C18.8880865,0.1504 17.2057404,-0.0384 15.0605096,0.1944 C12.9160769,0.4256 10.8043654,1.2432 8.72617308,2.6456 C6.64877885,4.0472 4.97281731,5.7296 3.69828846,7.6928 C2.42375962,9.6552 1.46846154,11.736 0.832394231,13.9352 C0.197125,16.1352 -0.0167596154,18.2008 0.191538462,20.132 C0.740615385,25.2296 3.75415385,27.4808 9.23295192,26.888 C11.5880769,26.6328 13.8466346,25.9232 16.008625,24.7592 C18.1714135,23.5952 19.9144135,22.1584 21.2400192,20.4496 C21.4539038,20.1744 21.64225,19.9104 21.818625,19.6512 C21.8282019,19.848 21.8417692,20.0432 21.8633173,20.236 C22.0197404,21.6912 22.503375,22.7336 23.3142212,23.3632 C24.1250673,23.9936 25.1130865,24.2456 26.2790769,24.12 C28.0970962,23.9224 29.5328365,23.2848 30.5831058,22.2056 C31.6349712,21.1264 32.4913077,19.716 33.1521154,17.9728 C33.7594519,18.3536 34.4529808,18.5024 35.2342981,18.4176 C35.9070769,18.3448 36.592625,17.996 37.2933365,17.3704 C36.9533558,18.7696 36.5646923,20.3992 36.12575,22.2592 C34.8472308,27.6832 33.9517885,30.8696 33.4410192,31.82 L35.119375,31.6384 C35.58625,31.588 35.9645385,31.488 36.2550385,31.3392 C36.5455385,31.1896 36.7913462,30.8984 36.9916635,30.4648 C37.1927788,30.0312 37.4529519,29.1024 37.7713846,27.6784 L39.0714519,21.3576 C39.4736827,22.4672 40.7945,22.9016 43.0323077,22.6592 C45.2709135,22.4168 47.1288365,21.4976 48.6076731,19.9016 C49.519875,18.9176 50.3642404,17.7208 51.1407692,16.312 C51.1192212,16.8808 51.138375,17.4424 51.1974327,17.9968 C51.4280769,20.1384 52.3243173,21.124 53.8861538,20.9552 C56.1479038,20.7104 58.3545865,18.0928 60.5054038,13.104 C60.1662212,14.5536 60.0744423,16 60.2300673,17.4432 C60.4383654,19.3744 61.1717981,20.272 62.4303654,20.136 C64.0496635,19.9608 65.8134135,18.0632 67.7216154,14.4456 C67.6234519,15.3088 67.6019038,16.0232 67.655375,16.5864 C67.7479519,17.5528 68.0073269,18.2664 68.4342981,18.7264 C68.8620673,19.1864 69.3840096,19.3832 70.0017212,19.316 C70.6194327,19.2488 71.1477596,19.1216 71.5875,18.9328 C72.0272404,18.744 72.6122308,18.2624 73.3424712,17.4888 C74.0727115,16.7152 74.9122885,15.5824 75.8596058,14.0912 L74.4382308,19.6128 C73.5196442,23.1264 72.1158269,24.9848 70.2275769,25.1896 C69.7375577,25.2424 69.3209615,25.152 68.9777885,24.9184 C68.6346154,24.6848 68.4382885,24.3472 68.3912019,23.9048 C68.3010192,23.0672 68.4574423,22.5552 68.8628654,22.3704 C68.7208077,22.1504 68.4997404,21.9624 68.2004615,21.8064 C67.9003846,21.6512 67.5468365,21.5952 67.1390192,21.6392 C66.7304038,21.6832 66.3912212,21.9256 66.1206731,22.3672 C65.8493269,22.8088 65.7415865,23.2856 65.7966538,23.7976 C65.902,24.7744 66.3928173,25.4456 67.2699038,25.8104 C68.1461923,26.1736 69.1669327,26.2936 70.3329231,26.1672 C71.4989135,26.0408 72.6218077,25.6304 73.7024038,24.9368 C74.7837981,24.2432 75.6576923,23.3776 76.3240865,22.34 C76.9904808,21.3024 77.5275865,19.9376 77.9346058,18.2456 C78.0870385,17.6872 78.2785769,16.896 78.5100192,15.8696 C78.7414615,14.844 78.8899038,14.1984 78.9561442,13.9328 C79.0215865,13.6664 79.1995577,12.9112 79.4900577,11.6672 C79.7813558,10.4232 80.1500673,9.0352 80.5985865,7.5032 C81.1564423,5.6776 81.7733558,4.504 82.4477308,3.984 L81.0143846,4.1392 L81.0143846,4.1392 Z" id="Fill-17"></path>
                            <path d="M33.2774135,26.0016 C25.3373462,27.3632 17.7181058,29.276 12.3374712,31.4848 C10.094875,32.4064 9.52824038,34.2424 10.2337404,35.9752 C19.3709231,31.8008 23.8976154,30.624 30.5671442,28.9616 C31.7498942,28.6672 32.691625,27.7776 33.0739038,26.6184 C33.1433365,26.4096 33.2111731,26.2024 33.2774135,26.0016" id="Fill-21"></path>
                            <path d="M62.9946058,25.096 C63.2308365,24.0992 62.9602885,24.06 61.9483269,23.912 C56.4080769,23.1024 50.3123654,23.1656 42.9788365,24.7392 C41.7426154,25.0048 40.7266635,25.8712 40.5327308,27.1232 C40.5327308,27.1232 49.7457308,24.088 62.9946058,25.096" id="Fill-25"></path>
                        </g>
                    </g>
                </g>
            </g>
        </g>
    </g>
</svg>