<svg width="128" height="28" viewBox="0 0 128 28" xmlns="http://www.w3.org/2000/svg"><title>counterparty</title><g fill="#3A3A3A" fill-rule="evenodd"><path d="M15.423.715c1.098 1.178 2.3 2.264 3.395 3.448.225.254.314.592.447.896-.42 1.065-3.198 3.89-4.05 3.9-1.16-.102-1.526-1.6-2.637-1.816-.92-.053-1.842-.036-2.764-.013-.658.018-2.627 2.003-2.96 2.674-.132.93-.04 1.88-.06 2.82-.068.823 2.1 2.96 2.777 3.184.99.06 1.98.035 2.97.014.39.01.676-.312.946-.557 4.785-4.86 9.61-9.693 14.395-14.552 2.843-.08 5.69-.042 8.53-.02 2.016 1.997 4.01 4.016 6.004 6.034.303.253.42.64.388 1.03-.003 2.53.01 5.06 0 7.594.05.5-.36.84-.66 1.17-1.503 1.485-2.98 3-4.475 4.495-.398.377-.745.85-1.258 1.077-1.808.105-3.624-.007-5.435.046-.558-.01-1.08.45-1.143 1.01-.103 1.104.045 2.217-.063 3.32-.173.52-.644 1.05-1.234.996-1.266.005-2.53.007-3.797 0-.72.034-1.298-.735-1.263-1.425-.004-2.46-.002-4.92-.002-7.38-.065-.81 2.995-3.724 4.033-4.544.977-.55 1.697.556 2.316 1.145.796.973 2.167.443 3.242.58.965.182 3.14-2.12 3.39-2.72.115-.73.148-3.293-.227-3.69-.55-.645-1.18-1.21-1.77-1.813-.29-.31-2.863-.53-3.73-.474-.36.03-.637.274-.88.52-4.555 4.62-9.14 9.21-13.69 13.835-.307.304-.658.652-1.12.627-2.57.018-5.145.005-7.716.003-.42.054-.77-.196-1.05-.48-1.706-1.703-3.39-3.426-5.1-5.122-.304-.333-.72-.673-.665-1.178-.005-2.598-.01-5.195.003-7.79C.47 7.055.9 6.732 1.2 6.403 3.1 4.507 4.98 2.583 6.893.697c2.843-.024 5.688-.062 8.53.018zm39.493 15.718c-.687 0-1.312-.112-1.877-.336-.568-.224-1.05-.552-1.457-.98-.405-.43-.718-.96-.94-1.59-.22-.63-.33-1.35-.33-2.163 0-.81.124-1.533.374-2.163.25-.63.584-1.155 1.01-1.584.42-.43.915-.756 1.48-.98.564-.225 1.166-.336 1.806-.336.404 0 .77.027 1.093.083.324.056.606.122.846.196.24.072.435.15.585.222.15.076.255.132.31.168l-.393 1.12c-.085-.054-.207-.115-.367-.18-.16-.067-.34-.13-.542-.196-.203-.066-.424-.118-.664-.16-.24-.043-.48-.063-.725-.063-.518 0-.983.09-1.397.268-.413.177-.766.433-1.058.77-.29.336-.515.744-.67 1.225-.155.48-.233 1.02-.233 1.617 0 .577.066 1.106.203 1.58.136.477.34.885.614 1.226.272.34.613.604 1.023.79.41.188.888.28 1.434.28.63 0 1.153-.066 1.567-.195.413-.13.724-.245.93-.35l.353 1.12c-.065.047-.183.107-.352.176-.17.07-.38.138-.632.205-.254.064-.55.12-.89.168-.338.047-.705.07-1.1.07m10.018-3.855c0 .58-.084 1.102-.254 1.57-.167.464-.405.866-.71 1.202-.306.336-.67.596-1.094.777-.423.186-.885.276-1.383.276-.5 0-.96-.09-1.383-.273-.424-.18-.79-.44-1.095-.776-.305-.337-.543-.74-.712-1.204-.17-.466-.254-.988-.254-1.568 0-.568.082-1.09.252-1.56.17-.47.407-.875.712-1.212.306-.336.67-.594 1.094-.777.42-.18.882-.273 1.38-.273.5 0 .96.092 1.384.273.423.183.788.44 1.094.777.304.337.542.74.71 1.212.17.47.255.99.255 1.56zm-1.37 0c0-.82-.185-1.47-.556-1.952-.374-.48-.88-.72-1.52-.72s-1.143.24-1.516.72c-.372.48-.556 1.133-.556 1.953 0 .822.183 1.473.555 1.954.374.48.878.72 1.518.72s1.145-.24 1.517-.72c.37-.48.556-1.132.556-1.954zm8.355 3.43c-.3.076-.7.155-1.193.238-.493.086-1.066.127-1.714.127-.566 0-1.04-.08-1.425-.245-.387-.16-.697-.39-.933-.69-.235-.3-.404-.65-.51-1.06-.102-.402-.154-.852-.154-1.35V8.945h1.313v3.808c0 .89.143 1.523.425 1.905.28.382.754.574 1.423.574.14 0 .288-.004.44-.013.15-.01.29-.02.423-.037.133-.013.25-.03.36-.042.11-.012.185-.03.232-.05V8.944h1.313v7.07m1.553-6.86c.3-.075.7-.154 1.2-.24.5-.082 1.07-.125 1.72-.125.584 0 1.07.083 1.454.245.386.163.694.392.925.686.23.29.392.643.49 1.053.092.412.14.864.14 1.36v4.087h-1.315v-3.81c0-.446-.03-.83-.09-1.146-.06-.318-.163-.574-.304-.77-.14-.196-.33-.337-.56-.426-.236-.09-.528-.135-.876-.135-.14 0-.287.006-.437.014-.15.01-.294.02-.43.034-.138.016-.26.03-.368.05-.11.02-.187.035-.234.04v6.15h-1.312V9.15m8.62-.21h2.78v1.09h-2.78v3.36c0 .366.03.666.086.905.055.238.14.425.253.56.11.135.254.23.423.287.17.055.367.083.593.083.392 0 .71-.043.95-.132.24-.09.405-.152.5-.19l.254 1.078c-.132.068-.362.15-.693.247-.326.096-.702.145-1.126.145-.498 0-.91-.06-1.234-.187-.324-.127-.585-.315-.782-.568-.198-.25-.338-.564-.416-.93-.08-.37-.12-.798-.12-1.283v-6.49l1.313-.223v2.25m3.19 3.657c0-.645.093-1.208.28-1.688.19-.48.44-.88.75-1.2.31-.318.667-.554 1.073-.713.403-.16.817-.24 1.24-.24.988 0 1.745.307 2.272.918.527.61.79 1.54.79 2.793v.217c0 .087-.004.17-.014.245h-5.022c.055.755.276 1.33.662 1.72.386.393.988.59 1.806.59.46 0 .85-.04 1.164-.12.315-.08.553-.156.713-.23l.18 1.09c-.16.085-.44.174-.84.266-.4.092-.85.14-1.36.14-.64 0-1.192-.096-1.66-.288-.464-.192-.847-.455-1.147-.79-.3-.336-.526-.736-.67-1.198-.147-.462-.22-.967-.22-1.518zm5.038-.715c.01-.587-.137-1.07-.444-1.447-.308-.38-.727-.568-1.264-.568-.302 0-.568.06-.798.176-.23.118-.426.27-.587.455-.16.186-.283.402-.374.645-.09.245-.148.49-.176.743h3.64zm5.263-3.093c.114 0 .242.006.388.02.148.015.293.034.434.056.14.023.27.046.388.07.117.023.205.045.26.064l-.224 1.13c-.105-.035-.275-.08-.515-.132-.24-.05-.547-.077-.925-.077-.244 0-.486.027-.726.077s-.4.086-.473.104v6.12H92.88V9.25c.31-.11.695-.217 1.157-.315.46-.098.978-.147 1.55-.147m8.494 3.81c0 .55-.072 1.06-.22 1.525-.144.467-.36.867-.64 1.203-.28.337-.63.598-1.036.784-.41.186-.877.28-1.404.28-.424 0-.798-.055-1.123-.167-.324-.113-.567-.22-.727-.322v2.916h-1.312v-9.65c.31-.074.7-.155 1.164-.244.464-.09 1.002-.134 1.614-.134.564 0 1.072.09 1.524.266.45.178.836.43 1.155.756.32.328.568.727.742 1.197.174.472.26 1.002.26 1.59zm-1.37 0c0-.85-.21-1.505-.632-1.96-.423-.458-.988-.688-1.693-.688-.393 0-.7.015-.922.043-.222.028-.4.06-.53.098v4.596c.16.13.39.255.692.377.3.12.63.184.987.184.377 0 .7-.068.967-.204.267-.135.486-.322.655-.56.17-.24.29-.52.365-.84.076-.323.113-.67.113-1.043zm4.884-3.838c.528 0 .972.07 1.335.203.36.136.653.328.873.575.22.246.376.54.472.88.094.343.14.718.14 1.13v4.55l-.473.075c-.202.034-.43.064-.684.092-.254.028-.528.052-.825.076-.294.028-.59.04-.88.04-.414 0-.796-.04-1.144-.127-.348-.082-.65-.216-.903-.397-.254-.183-.45-.422-.593-.72-.14-.3-.21-.66-.21-1.08 0-.402.082-.746.246-1.036.165-.29.388-.523.67-.7.283-.177.613-.308.988-.393.377-.083.772-.126 1.185-.126.132 0 .27.008.41.02.14.016.273.03.402.058.13.023.24.045.333.064.094.02.16.03.198.04v-.363c0-.215-.024-.428-.07-.638-.048-.21-.13-.4-.254-.56-.123-.164-.29-.296-.5-.394-.213-.098-.49-.146-.827-.146-.435 0-.813.03-1.137.092-.326.06-.568.124-.727.19l-.155-1.08c.17-.075.453-.147.847-.217.398-.07.826-.104 1.285-.104zm.114 6.524c.31 0 .586-.007.826-.02.24-.015.44-.04.6-.078v-2.17c-.094-.047-.247-.085-.46-.12-.21-.03-.467-.048-.768-.048-.198 0-.408.015-.628.043-.222.03-.424.09-.607.178-.182.09-.335.21-.457.364-.125.154-.187.358-.187.61 0 .467.15.79.453.972.3.185.71.275 1.226.275zm6.886-6.496c.114 0 .242.007.39.02.145.016.288.035.43.057.14.023.268.046.387.07.12.023.206.045.26.064l-.224 1.13c-.104-.037-.275-.08-.515-.134-.24-.05-.547-.077-.924-.077-.245 0-.487.026-.727.076s-.397.086-.47.104v6.12h-1.315V9.25c.31-.11.7-.217 1.16-.315.46-.098.98-.147 1.55-.147m3.26.154h2.78v1.092h-2.78v3.36c0 .365.03.665.085.904.055.238.14.425.253.56.11.135.252.23.42.287.17.055.368.083.594.083.395 0 .713-.043.953-.132.24-.09.406-.152.5-.19l.254 1.078c-.13.066-.36.147-.69.245-.33.094-.706.143-1.13.143-.497 0-.91-.062-1.234-.188-.324-.127-.585-.315-.783-.568-.197-.25-.336-.564-.416-.93-.08-.37-.12-.798-.12-1.283v-6.49l1.314-.225v2.25"/><path d="M120.728 17.58c.105.048.237.092.403.133.17.043.33.063.49.063.517 0 .92-.115 1.21-.342.295-.23.56-.6.795-1.113-.594-1.12-1.147-2.304-1.658-3.56-.514-1.254-.94-2.527-1.277-3.815h1.41c.102.42.23.874.374 1.358.146.486.307.987.487 1.5.178.512.37 1.025.58 1.54.206.513.42 1.01.65 1.483.355-.98.666-1.95.93-2.91.262-.964.51-1.953.746-2.97h1.356c-.34 1.372-.715 2.69-1.13 3.955-.413 1.265-.86 2.448-1.34 3.55-.186.42-.382.78-.584 1.086-.203.302-.426.553-.67.75-.245.195-.52.34-.826.433-.307.09-.653.14-1.04.14-.102 0-.21-.008-.325-.023-.11-.013-.222-.032-.33-.056-.11-.023-.208-.05-.298-.076-.09-.026-.153-.05-.19-.07l.24-1.05"/></g></svg>