<?xml version="1.0" encoding="UTF-8" standalone="no"?>
<svg width="128px" height="28px" viewBox="0 0 128 28" version="1.1" xmlns="http://www.w3.org/2000/svg" xmlns:xlink="http://www.w3.org/1999/xlink" xmlns:sketch="http://www.bohemiancoding.com/sketch/ns">
    <!-- Generator: Sketch 3.3.3 (12072) - http://www.bohemiancoding.com/sketch -->
    <title>counterparty</title>
    <desc>Created with Sketch.</desc>
    <defs></defs>
    <g id="Page-1" stroke="none" stroke-width="1" fill="none" fill-rule="evenodd" sketch:type="MSPage">
        <g id="HOME-v2" sketch:type="MSArtboardGroup" transform="translate(-417.000000, -2304.000000)" fill="#3A3A3A">
            <g id="counterparty" sketch:type="MSLayerGroup" transform="translate(416.500000, 2304.500000)">
                <g id="Page-1" transform="translate(1.000000, 0.000000)" sketch:type="MSShapeGroup">
                    <g id="Group">
                        <path d="M14.9234551,0.214933883 C16.0212166,1.39308487 17.2227362,2.47899638 18.3184225,3.66343652 C18.5425401,3.91709528 18.6317722,4.25460833 18.7645826,4.55857972 C18.3453995,5.62772028 15.5667558,8.44941305 14.7159389,8.4640875 C13.5559225,8.36136612 13.1886185,6.86247292 12.0784061,6.64654847 C11.1591087,6.59413958 10.235661,6.61091042 9.31428847,6.63397028 C8.65646168,6.65074112 6.68713161,8.6359886 6.35510547,9.30682193 C6.22229501,10.2376032 6.3136022,11.1872515 6.29492573,12.1264182 C6.22644533,12.9502854 8.39499109,15.0864703 9.07149436,15.3107803 C10.057197,15.3715745 11.0491251,15.3464182 12.0369029,15.3254547 C12.4291088,15.3338401 12.7134061,15.0130979 12.9831773,14.7678245 C17.7705793,9.90637917 22.5932591,5.07428278 27.3806611,0.214933883 C30.2215597,0.135272367 33.0686839,0.1730068 35.9095826,0.196066667 C37.9245662,2.19179583 39.9208734,4.21058487 41.9130302,6.22937402 C42.2160041,6.48512917 42.3322133,6.87085833 42.3010858,7.26078027 C42.2948603,9.7931761 42.3073114,12.3234756 42.2969355,14.8558714 C42.3488146,15.3569 41.9379322,15.6944131 41.6370336,16.0235407 C40.1346153,17.5098557 38.6570989,19.0255199 37.1629813,20.5202203 C36.76455,20.897564 36.4179977,21.3692438 35.9054322,21.5977464 C34.0979649,21.702564 32.2821969,21.5914574 30.4705793,21.6438661 C29.9123603,21.6333844 29.3894191,22.092486 29.3271643,22.6543089 C29.2254813,23.7569911 29.3728179,24.8701553 29.2649094,25.9728375 C29.0926708,26.4927333 28.6216088,27.0252074 28.0322623,26.9686057 C26.7664126,26.9748949 25.500563,26.9769911 24.2347133,26.9686057 C23.5167068,27.0042438 22.9377362,26.2348818 22.973014,25.5451813 C22.9688636,23.0861578 22.9709389,20.6250381 22.9709389,18.1639182 C22.9045336,17.3547256 25.9653995,14.4407932 27.0029813,13.6211188 C27.9803833,13.0697776 28.7004649,14.1766526 29.3188636,14.7657282 C30.1157264,15.7384365 31.4874094,15.2080589 32.562344,15.3443219 C33.527295,15.5267047 35.7020662,13.2228115 35.9531611,12.6232542 C36.067295,11.8958193 36.1004977,9.33197818 35.724893,8.93367083 C35.17705,8.29009013 34.5441251,7.72617083 33.9547787,7.12242083 C33.6642558,6.81006403 31.0931284,6.5920432 30.22571,6.64654847 C29.8667068,6.67589737 29.5886349,6.92117083 29.3458407,7.1664443 C24.7908571,11.7868089 20.204746,16.3778245 15.6539126,21.0023818 C15.3488636,21.3063532 14.9981611,21.6543479 14.5353995,21.6291917 C11.9642722,21.6480589 9.39106952,21.6354807 6.81994206,21.6333844 C6.40075907,21.6857932 6.05005644,21.4363271 5.76990939,21.1533193 C4.06412507,19.4489833 2.38116756,17.7257803 0.669157753,16.0298297 C0.366183897,15.6965094 -0.0509239461,15.3569 0.00510546569,14.8516786 C0.000955138887,12.2542958 -0.0052703513,9.65691305 0.00925579248,7.06162653 C-0.0363978023,6.55850153 0.395236185,6.23566305 0.696134878,5.90653542 C2.60113487,4.0072386 4.47915776,2.08278542 6.3924584,0.196066667 C9.23543226,0.1730068 12.0804813,0.135272367 14.9234551,0.214933883 L14.9234551,0.214933883 Z" id="Imported-Layers-2"></path>
                        <g id="Imported-Layers-3" transform="translate(49.388889, 4.833333)">
                            <path d="M5.02708333,11.0996667 C4.34034259,11.0996667 3.71475,10.9876667 3.15030556,10.7636667 C2.58586111,10.5396667 2.10137963,10.2118333 1.69686111,9.7825 C1.29234259,9.35433333 0.979546296,8.82466667 0.758472222,8.1935 C0.537398148,7.5635 0.426861111,6.84366667 0.426861111,6.0305 C0.426861111,5.21966667 0.551509259,4.4975 0.800805556,3.8675 C1.05010185,3.2375 1.38641667,2.709 1.80975,2.27966667 C2.23308333,1.84916667 2.72697222,1.52366667 3.29141667,1.2985 C3.85586111,1.0745 4.45793519,0.963666667 5.09763889,0.963666667 C5.50215741,0.963666667 5.86669444,0.991666667 6.19125,1.04766667 C6.51580556,1.1025 6.79802778,1.169 7.03791667,1.2425 C7.27780556,1.31716667 7.47300926,1.39183333 7.62352778,1.4665 C7.7740463,1.54233333 7.87752778,1.59833333 7.93397222,1.6345 L7.53886111,2.7545 C7.45419444,2.69966667 7.33189815,2.639 7.17197222,2.57366667 C7.0120463,2.50716667 6.8309537,2.443 6.62869444,2.37766667 C6.42643519,2.31116667 6.20536111,2.25866667 5.96547222,2.2155 C5.72558333,2.1735 5.48334259,2.15366667 5.23875,2.15366667 C4.72134259,2.15366667 4.25567593,2.24116667 3.84175,2.41966667 C3.42782407,2.597 3.0750463,2.8525 2.78341667,3.1885 C2.49178704,3.52566667 2.26836111,3.934 2.11313889,4.41466667 C1.95791667,4.89533333 1.88030556,5.43433333 1.88030556,6.0305 C1.88030556,6.60916667 1.94850926,7.13766667 2.08491667,7.6125 C2.22132407,8.08966667 2.42475926,8.498 2.69875,8.83866667 C2.97156481,9.17933333 3.31258333,9.443 3.72180556,9.6285 C4.13102778,9.81633333 4.6084537,9.90966667 5.15408333,9.90966667 C5.78437963,9.90966667 6.30649074,9.84316667 6.72041667,9.71366667 C7.13434259,9.58183333 7.44478704,9.46633333 7.65175,9.3625 L8.00452778,10.4825 C7.93867593,10.5291667 7.82108333,10.5886667 7.65175,10.6575 C7.48241667,10.7275 7.27075,10.7951667 7.01675,10.8616667 C6.76275,10.9258333 6.46641667,10.983 6.12775,11.0296667 C5.78908333,11.0763333 5.42219444,11.0996667 5.02708333,11.0996667" id="Fill-1"></path>
                            <path d="M15.0459722,7.2485 C15.0459722,7.82833333 14.9624815,8.351 14.7919722,8.81766667 C14.6226389,9.28316667 14.3851019,9.6845 14.080537,10.0205 C13.7736204,10.3565 13.4090833,10.6166667 12.98575,10.7975 C12.5635926,10.9806667 12.1014537,11.0705 11.6028611,11.0705 C11.1042685,11.0705 10.6433056,10.9806667 10.2199722,10.7975 C9.79663889,10.6166667 9.43210185,10.3565 9.12636111,10.0205 C8.82062037,9.6845 8.58308333,9.28316667 8.41375,8.81766667 C8.24441667,8.351 8.15975,7.82833333 8.15975,7.2485 C8.15975,6.68033333 8.24441667,6.16 8.41375,5.68866667 C8.58308333,5.21733333 8.82062037,4.81366667 9.12636111,4.4765 C9.43210185,4.1405 9.79663889,3.88266667 10.2199722,3.6995 C10.6433056,3.51866667 11.1042685,3.42766667 11.6028611,3.42766667 C12.1014537,3.42766667 12.5635926,3.51866667 12.98575,3.6995 C13.4090833,3.88266667 13.7736204,4.1405 14.080537,4.4765 C14.3851019,4.81366667 14.6226389,5.21733333 14.7919722,5.68866667 C14.9624815,6.16 15.0459722,6.68033333 15.0459722,7.2485 L15.0459722,7.2485 L15.0459722,7.2485 Z M13.6771944,7.2485 C13.6771944,6.42833333 13.4913981,5.77733333 13.1198056,5.29666667 C12.748213,4.81483333 12.2425648,4.5745 11.6028611,4.5745 C10.9631574,4.5745 10.4586852,4.81483333 10.0859167,5.29666667 C9.71432407,5.77733333 9.5297037,6.42833333 9.5297037,7.2485 C9.5297037,8.071 9.71432407,8.722 10.0859167,9.20266667 C10.4586852,9.68333333 10.9631574,9.9225 11.6028611,9.9225 C12.2425648,9.9225 12.748213,9.68333333 13.1198056,9.20266667 C13.4913981,8.722 13.6771944,8.071 13.6771944,7.2485 L13.6771944,7.2485 L13.6771944,7.2485 Z" id="Fill-2"></path>
                            <path d="M22.0297963,10.6785 C21.7287593,10.7543333 21.3324722,10.8336667 20.8385833,10.9165 C20.3446944,11.0016667 19.7720185,11.0425 19.1240833,11.0425 C18.558463,11.0425 18.0845648,10.962 17.6988611,10.7975 C17.3131574,10.6353333 17.002713,10.4043333 16.7675278,10.1056667 C16.5323426,9.807 16.3630093,9.45466667 16.2583519,9.0475 C16.1548704,8.64266667 16.1031296,8.19233333 16.1031296,7.69766667 L16.1031296,3.6085 L17.415463,3.6085 L17.415463,7.4165 C17.415463,8.30433333 17.55775,8.939 17.8399722,9.3205 C18.1210185,9.70316667 18.5960926,9.8945 19.2651944,9.8945 C19.4063056,9.8945 19.5521204,9.891 19.7026389,9.88166667 C19.8531574,9.87116667 19.9942685,9.86066667 20.1247963,9.8455 C20.2576759,9.83266667 20.3764444,9.8175 20.4858056,9.8035 C20.5939907,9.79066667 20.6704259,9.77316667 20.717463,9.7545 L20.717463,3.6085 L22.0297963,3.6085 L22.0297963,10.6785" id="Fill-3"></path>
                            <path d="M23.5831944,3.8185 C23.8830556,3.745 24.2828704,3.66566667 24.7826389,3.5805 C25.2812315,3.49766667 25.8539074,3.4545 26.5041944,3.4545 C27.0862778,3.4545 27.5707593,3.53733333 27.956463,3.6995 C28.3421667,3.86283333 28.6502593,4.0915 28.8807407,4.3855 C29.1123981,4.68066667 29.2735,5.033 29.36875,5.4425 C29.4628241,5.85433333 29.5098611,6.307 29.5098611,6.80166667 L29.5098611,10.8896667 L28.1963519,10.8896667 L28.1963519,7.0805 C28.1963519,6.6325 28.1669537,6.24983333 28.1046296,5.9325 C28.0446574,5.61516667 27.9435278,5.3585 27.8024167,5.1625 C27.6613056,4.9665 27.4719815,4.82533333 27.2379722,4.73666667 C27.002787,4.64683333 26.7111574,4.6025 26.3630833,4.6025 C26.2219722,4.6025 26.0761574,4.60833333 25.9256389,4.6165 C25.7751204,4.62583333 25.6316574,4.63866667 25.49525,4.6515 C25.3576667,4.6655 25.2365463,4.683 25.1283611,4.7005 C25.019,4.71916667 24.9425648,4.73433333 24.8955278,4.7425 L24.8955278,10.8896667 L23.5831944,10.8896667 L23.5831944,3.8185" id="Fill-4"></path>
                            <path d="M32.2050833,3.6085 L34.9849722,3.6085 L34.9849722,4.7005 L32.2050833,4.7005 L32.2050833,8.06166667 C32.2050833,8.42566667 32.2333056,8.7255 32.28975,8.96466667 C32.3461944,9.20266667 32.4308611,9.38933333 32.54375,9.52466667 C32.655463,9.66 32.79775,9.7545 32.9670833,9.81166667 C33.1364167,9.8665 33.3339722,9.8945 33.55975,9.8945 C33.9548611,9.8945 34.2723611,9.85133333 34.51225,9.76266667 C34.7521389,9.67283333 34.9179444,9.611 35.0120185,9.57366667 L35.2671944,10.6505 C35.1354907,10.717 34.9050093,10.7975 34.5745741,10.8955 C34.2464907,10.9935 33.8701944,11.0425 33.4456852,11.0425 C32.9482685,11.0425 32.5366944,10.9806667 32.2121389,10.8546667 C31.8875833,10.7275 31.6265278,10.5396667 31.4289722,10.2865 C31.2314167,10.0356667 31.0914815,9.72416667 31.0126944,9.3555 C30.9327315,8.988 30.8915741,8.55983333 30.8915741,8.0745 L30.8915741,1.57966667 L32.2050833,1.35566667 L32.2050833,3.6085" id="Fill-5"></path>
                            <path d="M35.3941944,7.26366667 C35.3941944,6.6185 35.4870926,6.05616667 35.6752407,5.5755 C35.8633889,5.096 36.1126852,4.69583333 36.4243056,4.3785 C36.7335741,4.06116667 37.0910556,3.82433333 37.49675,3.66566667 C37.9000926,3.50583333 38.3140185,3.42766667 38.7373519,3.42766667 C39.7251296,3.42766667 40.4824259,3.73333333 41.0092407,4.34466667 C41.5360556,4.956 41.799463,5.88583333 41.799463,7.13766667 L41.799463,7.35466667 C41.799463,7.44216667 41.7947593,7.525 41.7853519,7.59966667 L36.7629722,7.59966667 C36.8182407,8.35566667 37.0393148,8.9285 37.4250185,9.3205 C37.8107222,9.71366667 38.4127963,9.90966667 39.2312407,9.90966667 C39.6922037,9.90966667 40.0802593,9.87 40.3954074,9.79066667 C40.7105556,9.71133333 40.9480926,9.63433333 41.1080185,9.5585 L41.291463,10.6505 C41.131537,10.7356667 40.8516667,10.8243333 40.4518519,10.9165 C40.052037,11.0098333 39.5993056,11.0576667 39.0901296,11.0576667 C38.4504259,11.0576667 37.8977407,10.962 37.4320741,10.7695 C36.9664074,10.5781667 36.5830556,10.3145 36.2831944,9.97966667 C35.9821574,9.64366667 35.7575556,9.2435 35.6117407,8.7815 C35.4659259,8.3195 35.3941944,7.81433333 35.3941944,7.26366667 L35.3941944,7.26366667 L35.3941944,7.26366667 Z M40.4318611,6.5485 C40.4412685,5.9605 40.2931019,5.4775 39.9861852,5.10066667 C39.6804444,4.7215 39.2606389,4.5325 38.7244167,4.5325 C38.4222037,4.5325 38.1564444,4.592 37.925963,4.70866667 C37.6966574,4.82533333 37.5014537,4.977 37.3403519,5.1625 C37.1804259,5.34916667 37.0569537,5.565 36.9664074,5.80766667 C36.877037,6.05033333 36.8182407,6.29766667 36.7900185,6.5485 L40.4318611,6.5485 L40.4318611,6.5485 Z" id="Fill-6"></path>
                            <path d="M45.6941296,3.4545 C45.8081944,3.4545 45.9363704,3.4615 46.0821852,3.4755 C46.228,3.49066667 46.3726389,3.50933333 46.51375,3.5315 C46.6548611,3.55483333 46.783037,3.57816667 46.9018056,3.6015 C47.0182222,3.62483333 47.1064167,3.647 47.1616852,3.66566667 L46.9370833,4.7985 C46.8324259,4.76233333 46.6619167,4.718 46.4220278,4.6655 C46.1821389,4.61533333 45.8740463,4.58966667 45.4965741,4.58966667 C45.2519815,4.58966667 45.0097407,4.61533333 44.7698519,4.6655 C44.5311389,4.718 44.3723889,4.753 44.2983056,4.7705 L44.2983056,10.8896667 L42.9859722,10.8896667 L42.9859722,3.9165 C43.2952407,3.80566667 43.6809444,3.6995 44.1430833,3.6015 C44.6040463,3.5035 45.1214537,3.4545 45.6941296,3.4545" id="Fill-7"></path>
                            <path d="M54.1890185,7.26366667 C54.1890185,7.81433333 54.1149352,8.323 53.9691204,8.78966667 C53.8233056,9.25633333 53.610463,9.6565 53.3282407,9.9925 C53.0460185,10.3296667 52.7002963,10.591 52.2910741,10.7765 C51.8818519,10.9631667 51.4138333,11.0576667 50.8870185,11.0576667 C50.4636852,11.0576667 50.0897407,11.0016667 49.7651852,10.8896667 C49.4406296,10.7765 49.1983889,10.6703333 49.038463,10.5676667 L49.038463,13.4796667 L47.7261296,13.4796667 L47.7261296,3.83366667 C48.0365741,3.759 48.4246296,3.67733333 48.8902963,3.58866667 C49.355963,3.49883333 49.894537,3.4545 50.5060185,3.4545 C51.070463,3.4545 51.578463,3.54433333 52.0300185,3.7205 C52.4815741,3.899 52.8672778,4.151 53.1859537,4.4765 C53.5069815,4.80433333 53.7539259,5.20333333 53.927963,5.6735 C54.102,6.146 54.1890185,6.67566667 54.1890185,7.26366667 L54.1890185,7.26366667 L54.1890185,7.26366667 Z M52.8202407,7.26366667 C52.8202407,6.41433333 52.6085741,5.75983333 52.1852407,5.3025 C51.7619074,4.84633333 51.197463,4.6165 50.4919074,4.6165 C50.0967963,4.6165 49.7887037,4.63166667 49.5676296,4.65966667 C49.3465556,4.68766667 49.1689907,4.71916667 49.038463,4.75766667 L49.038463,9.34966667 C49.1983889,9.48033333 49.4288704,9.60516667 49.7299074,9.7265 C50.0309444,9.84783333 50.3602037,9.90966667 50.7176852,9.90966667 C51.0939815,9.90966667 51.4161852,9.842 51.6842963,9.7055 C51.9524074,9.57133333 52.1711296,9.38466667 52.340463,9.1455 C52.5097963,8.9075 52.6320926,8.6275 52.7073519,8.30666667 C52.7826111,7.9835 52.8202407,7.63583333 52.8202407,7.26366667 L52.8202407,7.26366667 L52.8202407,7.26366667 Z" id="Fill-8"></path>
                            <path d="M57.7015093,3.42766667 C58.2295,3.42766667 58.6728241,3.49533333 59.0361852,3.6295 C59.3983704,3.766 59.69,3.95733333 59.9098981,4.20466667 C60.1321481,4.45083333 60.2885463,4.74483333 60.3837963,5.0855 C60.4778704,5.42733333 60.5249074,5.803 60.5249074,6.21366667 L60.5249074,10.7636667 C60.4120185,10.7823333 60.2532685,10.808 60.0510093,10.8395 C59.84875,10.8733333 59.6217963,10.9036667 59.3666204,10.9316667 C59.1126204,10.9596667 58.8386296,10.9841667 58.5422963,11.0075 C58.245963,11.032 57.9508056,11.0425 57.6603519,11.0425 C57.2464259,11.0425 56.86425,11.0016667 56.5161759,10.9165 C56.1692778,10.8336667 55.8682407,10.6995 55.6142407,10.5186667 C55.3602407,10.3355 55.1626852,10.0963333 55.0215741,9.79766667 C54.880463,9.499 54.8087315,9.13966667 54.8087315,8.71966667 C54.8087315,8.31716667 54.8922222,7.973 55.0556759,7.6825 C55.2214815,7.39316667 55.4437315,7.161 55.7271296,6.9825 C56.0093519,6.80633333 56.3386111,6.67566667 56.7137315,6.5905 C57.0912037,6.50766667 57.4863148,6.4645 57.8990648,6.4645 C58.0319444,6.4645 58.1683519,6.4715 58.309463,6.48666667 C58.4505741,6.4995 58.5834537,6.51816667 58.7116296,6.5415 C58.8386296,6.56483333 58.9491667,6.587 59.0432407,6.60566667 C59.1373148,6.62433333 59.2031667,6.63716667 59.2407963,6.6465 L59.2407963,6.2825 C59.2407963,6.069 59.2161019,5.8555 59.1690648,5.6455 C59.1220278,5.43666667 59.038537,5.24883333 58.9162407,5.0855 C58.7939444,4.92333333 58.625787,4.7915 58.4152963,4.6935 C58.2036296,4.5955 57.928463,4.54766667 57.5897963,4.54766667 C57.1558796,4.54766667 56.7784074,4.57683333 56.4538519,4.63866667 C56.1281204,4.69933333 55.8858796,4.76233333 55.7271296,4.82766667 L55.5719074,3.7485 C55.7400648,3.67383333 56.023463,3.6015 56.4173981,3.5315 C56.8136852,3.4615 57.2417222,3.42766667 57.7015093,3.42766667 L57.7015093,3.42766667 L57.7015093,3.42766667 Z M57.8155741,9.9505 C58.1260185,9.9505 58.4011852,9.9435 58.6410741,9.93066667 C58.879787,9.9155 59.0796944,9.891 59.2407963,9.8525 L59.2407963,7.6825 C59.1467222,7.63583333 58.9938519,7.59733333 58.7810093,7.5635 C58.5705185,7.532 58.3141667,7.5145 58.0131296,7.5145 C57.8155741,7.5145 57.6050833,7.52966667 57.3851852,7.55766667 C57.1629352,7.58566667 56.9606759,7.644 56.7784074,7.7315 C56.594963,7.82133333 56.4420926,7.94266667 56.3197963,8.0955 C56.1975,8.2495 56.1351759,8.45366667 56.1351759,8.7045 C56.1351759,9.17233333 56.2856944,9.49666667 56.5879074,9.6775 C56.8889444,9.86066667 57.2981667,9.9505 57.8155741,9.9505 L57.8155741,9.9505 L57.8155741,9.9505 Z" id="Fill-9"></path>
                            <path d="M64.7006204,3.4545 C64.8146852,3.4545 64.9428611,3.4615 65.0898519,3.4755 C65.2356667,3.49066667 65.3791296,3.50933333 65.5202407,3.5315 C65.6613519,3.55483333 65.7895278,3.57816667 65.9082963,3.6015 C66.0258889,3.62483333 66.1129074,3.647 66.1693519,3.66566667 L65.9435741,4.7985 C65.8389167,4.76233333 65.6684074,4.718 65.4285185,4.6655 C65.1874537,4.61533333 64.880537,4.58966667 64.5030648,4.58966667 C64.2584722,4.58966667 64.0162315,4.61533333 63.7763426,4.6655 C63.5376296,4.718 63.3800556,4.753 63.3047963,4.7705 L63.3047963,10.8896667 L61.992463,10.8896667 L61.992463,3.9165 C62.3017315,3.80566667 62.6886111,3.6995 63.1495741,3.6015 C63.610537,3.5035 64.1279444,3.4545 64.7006204,3.4545" id="Fill-10"></path>
                            <path d="M67.961463,3.6085 L70.7413519,3.6085 L70.7413519,4.7005 L67.961463,4.7005 L67.961463,8.06166667 C67.961463,8.42566667 67.9896852,8.7255 68.0461296,8.96466667 C68.1025741,9.20266667 68.1872407,9.38933333 68.3001296,9.52466667 C68.4130185,9.66 68.5541296,9.7545 68.723463,9.81166667 C68.8927963,9.8665 69.0903519,9.8945 69.3161296,9.8945 C69.7112407,9.8945 70.0287407,9.85133333 70.2686296,9.76266667 C70.5085185,9.67283333 70.6755,9.611 70.7695741,9.57366667 L71.0235741,10.6505 C70.8918704,10.717 70.6613889,10.7975 70.3321296,10.8955 C70.0028704,10.9935 69.6265741,11.0425 69.2032407,11.0425 C68.7046481,11.0425 68.2930741,10.9806667 67.9685185,10.8546667 C67.643963,10.7275 67.3829074,10.5396667 67.1853519,10.2865 C66.9877963,10.0356667 66.849037,9.72416667 66.7690741,9.3555 C66.6891111,8.988 66.6491296,8.55983333 66.6491296,8.0745 L66.6491296,1.57966667 L67.961463,1.35566667 L67.961463,3.6085" id="Fill-11"></path>
                            <path d="M70.8389537,12.2476667 C70.9436111,12.2943333 71.0764907,12.3386667 71.2422963,12.3795 C71.4069259,12.4226667 71.5680278,12.4425 71.7291296,12.4425 C72.2453611,12.4425 72.6498796,12.3281667 72.9415093,12.1006667 C73.2331389,11.8708333 73.4977222,11.4998333 73.7329074,10.9876667 C73.1390648,9.8665 72.5863796,8.68 72.0748519,7.4235 C71.5609722,6.16933333 71.136463,4.8965 70.7977963,3.6085 L72.2077315,3.6085 C72.311213,4.02966667 72.437037,4.48233333 72.5828519,4.9665 C72.7286667,5.45183333 72.8897685,5.95233333 73.0696852,6.4645 C73.24725,6.97783333 73.4401019,7.49116667 73.6482407,8.0045 C73.8552037,8.519 74.0703981,9.01366667 74.2973519,9.4885 C74.6536574,8.50966667 74.9652778,7.53783333 75.2286852,6.57766667 C75.4909167,5.61516667 75.740213,4.62583333 75.9753981,3.6085 L77.3312407,3.6085 C76.9925741,4.9805 76.6151019,6.29883333 76.2023519,7.5635 C75.78725,8.82816667 75.3403981,10.0111667 74.8617963,11.1125 C74.6736481,11.5325 74.4784444,11.8941667 74.2761852,12.1986667 C74.07275,12.5008333 73.8505,12.7516667 73.6059074,12.9476667 C73.3613148,13.1436667 73.0849722,13.2883333 72.7804074,13.3816667 C72.4746667,13.4738333 72.1289444,13.5205 71.7432407,13.5205 C71.6397593,13.5205 71.5315741,13.5146667 71.4175093,13.4995 C71.3057963,13.4866667 71.1952593,13.468 71.0870741,13.4435 C70.977713,13.4201667 70.8789352,13.3945 70.7895648,13.3665 C70.7013704,13.3396667 70.6366944,13.3163333 70.6002407,13.2976667 L70.8389537,12.2476667" id="Fill-12"></path>
                        </g>
                    </g>
                </g>
            </g>
        </g>
    </g>
</svg>