<?xml version="1.0" encoding="UTF-8" standalone="no"?>
<svg width="87px" height="37px" viewBox="0 0 87 37" version="1.1" xmlns="http://www.w3.org/2000/svg" xmlns:xlink="http://www.w3.org/1999/xlink" xmlns:sketch="http://www.bohemiancoding.com/sketch/ns">
    <!-- Generator: Sketch 3.3.3 (12072) - http://www.bohemiancoding.com/sketch -->
    <title>Datt</title>
    <desc>Created with Sketch.</desc>
    <defs></defs>
    <g id="Page-1" stroke="none" stroke-width="1" fill="none" fill-rule="evenodd" sketch:type="MSPage">
        <g id="HOME-v2" sketch:type="MSArtboardGroup" transform="translate(-594.000000, -2298.000000)" fill="#3A3A3A">
            <g id="Datt" sketch:type="MSLayerGroup" transform="translate(594.500000, 2298.500000)">
                <text sketch:type="MSTextLayer" font-family="Open Sans" font-size="19" font-weight="normal">
                    <tspan x="48" y="24.7494033">Datt</tspan>
                </text>
                <g id="datt" transform="translate(0.000000, 0.000000)" sketch:type="MSShapeGroup">
                    <g id="Group">
                        <path d="M18.5,0.104516129 C17.071519,0.104516129 15.9123418,1.25419355 15.9123418,2.67096774 C15.9123418,4.08774194 17.071519,5.23741935 18.5,5.23741935 C19.928481,5.23741935 21.0876582,4.08774194 21.0876582,2.67096774 C21.0876582,1.25419355 19.928481,0.104516129 18.5,0.104516129 L18.5,0.104516129 Z" id="Shape"></path>
                        <path d="M18.5,17.1058065 C17.4813291,17.1058065 16.65,17.9303226 16.65,18.9406452 C16.65,19.9509677 17.4813291,20.7754839 18.5,20.7754839 C19.5186709,20.7754839 20.35,19.9509677 20.35,18.9406452 C20.35,17.9303226 19.5186709,17.1058065 18.5,17.1058065 L18.5,17.1058065 Z" id="Shape"></path>
                        <path d="M18.5,33.6890323 C17.8911392,33.6890323 17.3876582,34.1883871 17.3876582,34.7922581 C17.3876582,35.396129 17.8911392,35.8954839 18.5,35.8954839 C19.1088608,35.8954839 19.6123418,35.396129 19.6123418,34.7922581 C19.6123418,34.1883871 19.1088608,33.6890323 18.5,33.6890323 L18.5,33.6890323 Z" id="Shape"></path>
                        <path d="M1.95537975,17.2567742 C0.936708861,17.2567742 0.105379747,18.0812903 0.105379747,19.0916129 C0.105379747,20.1019355 0.936708861,20.9264516 1.95537975,20.9264516 C2.97405063,20.9264516 3.80537975,20.1019355 3.80537975,19.0916129 C3.80537975,18.0812903 2.97405063,17.2567742 1.95537975,17.2567742 L1.95537975,17.2567742 Z" id="Shape"></path>
                        <path d="M35.0446203,17.2567742 C34.0259494,17.2567742 33.1946203,18.0812903 33.1946203,19.0916129 C33.1946203,20.1019355 34.0259494,20.9264516 35.0446203,20.9264516 C36.0632911,20.9264516 36.8946203,20.1019355 36.8946203,19.0916129 C36.8946203,18.0812903 36.0632911,17.2567742 35.0446203,17.2567742 L35.0446203,17.2567742 Z" id="Shape"></path>
                        <path d="M26.7313291,8.72129032 C25.5018987,8.72129032 24.5066456,9.7083871 24.5066456,10.9277419 C24.5066456,12.1470968 25.5018987,13.1341935 26.7313291,13.1341935 C27.9607595,13.1341935 28.9560127,12.1470968 28.9560127,10.9277419 C28.9560127,9.7083871 27.9607595,8.72129032 26.7313291,8.72129032 L26.7313291,8.72129032 Z" id="Shape"></path>
                        <path d="M10.0462025,8.72129032 C8.81677215,8.72129032 7.82151899,9.7083871 7.82151899,10.9277419 C7.82151899,12.1470968 8.81677215,13.1341935 10.0462025,13.1341935 C11.2756329,13.1341935 12.2708861,12.1470968 12.2708861,10.9277419 C12.2708861,9.7083871 11.2756329,8.72129032 10.0462025,8.72129032 L10.0462025,8.72129032 Z" id="Shape"></path>
                        <path d="M26.7313291,25.8619355 C25.9117089,25.8619355 25.2443038,26.523871 25.2443038,27.3251613 C25.2443038,28.1264516 25.9117089,28.8 26.7313291,28.8 C27.5509494,28.8 28.2066456,28.1380645 28.2066456,27.3251613 C28.2183544,26.523871 27.5509494,25.8619355 26.7313291,25.8619355 L26.7313291,25.8619355 Z" id="Shape"></path>
                        <path d="M10.0462025,25.8619355 C9.22658228,25.8619355 8.55917722,26.523871 8.55917722,27.3251613 C8.55917722,28.1264516 9.22658228,28.8 10.0462025,28.8 C10.8658228,28.8 11.521519,28.1380645 11.521519,27.3251613 C11.5332278,26.523871 10.8658228,25.8619355 10.0462025,25.8619355 L10.0462025,25.8619355 Z" id="Shape"></path>
                    </g>
                </g>
            </g>
        </g>
    </g>
</svg>