<svg width="131" height="23" viewBox="0 0 131 23" xmlns="http://www.w3.org/2000/svg"><title>pheeva</title><g fill="#3A3A3A" fill-rule="evenodd"><path d="M7.81 12.384c-1.662-.223-1.598-1.363-2.177-1.818-1.043-.817-2.374-.46-3.364.055 0 0 1.41-.204 2.135.258-1.615-.327-3.052 1.53-3.052 1.53s1.605-1 2.88-.742c.767.156 1.673 1.662 3.573.72z"/><path d="M23.336 3.4h-8.418c-.532-.12-.953-.302-1.15-.53-.634-.736-.617-1.055-.97-1.4-.72-.703-2.102-.46-2.102-.46s1.174.106 1.52 1.153c.204.613.092 1.27.896 1.72 0 0-.385.065-.723-.195-1.6-1.224-2-.808-3.71-.594-1.706.218-2.25-1.466-2.25-1.466-.315 3.31 4.414 1.64 4.11 3.38-.203 1.153-2.997-.27-2.997-.27.162.377.612 1.93 3.512 1.674-2.757 1.682-3.296.404-4.782.008-1.488-.395-1.928.69-3.88.736C.443 7.204-.227 5.7-.227 5.7c1.574 3.758 4.393 2.04 5.9 2.827 3.01 1.574 2.43 4.755 6.114 5.163.23.025.472.037.723.03l-.654 1.72c-.06-.044-.112-.092-.145-.147-.295-.502-.263-.74-.434-.972-.346-.47-1.12-.184-1.12-.184s.636-.008.754.747c.07.444-.037.94.373 1.217 0 0-.215.076-.382-.09-.79-.797-1.04-.456-1.99-.173-.95.287-1.133-.926-1.133-.926-.4 2.49 2.307.9 2.02 2.217-.19.872-1.623.02-1.623.02.063.27.203 1.393 1.81.988-1.626 1.456-1.833.543-2.62.358-.79-.184-1.105.657-2.18.833-1.073.18-1.338-.89-1.338-.89.604 2.685 2.268 1.198 3.04 1.675 1.543.95-.5 2.783 2.113 2.85.175.004.382.007.61 0h2.867l2.566-6.75h3.425c3.532 0 7.006-2.64 8.452-6.44 1.445-3.8-.05-6.365-3.58-6.365zm.015 6.187c-1.68 3.27-5.305 2.313-6.14 2.34-.663.02-.884.256-1.24.285-.72.06-1.145-.542-1.145-.542s.55.37 1.323.022c.452-.204.8-.54 1.403-.455 0 0-.12-.166-.415-.17-1.397-.017-1.314-.348-1.89-1.053-.578-.704-1.814-.14-1.814-.14 1.857-1.603 2.813.833 3.73-.06.61-.59-1.4-.944-1.4-.944.292-.113 1.41-.65 2.46.496-.133-1.737-1.124-1.356-1.978-1.706-.85-.352-.38-.997-1.16-1.713-.78-.715-1.96-.28-1.96-.28 2.905-1.13 3.04.646 4.14.828 2.19.364 3.86-1.277 5.63-.147.797.51 1.36 1.497.463 3.24zm31.268-1.91c0 2.04-.667 3.603-2.004 4.69-1.337 1.09-3.23 1.633-5.68 1.633H43.79v8.716h-1.42v-21.1h4.983c4.842-.002 7.264 2.02 7.264 6.06zm-10.827 5.05h2.8c2.29 0 3.947-.39 4.967-1.176 1.02-.78 1.532-2.05 1.532-3.813 0-1.626-.484-2.83-1.45-3.615-.963-.785-2.46-1.177-4.48-1.177h-3.37v9.786zm25.456 9.99V12.54c0-1.577-.32-2.725-.96-3.442-.64-.718-1.634-1.076-2.98-1.076-1.81 0-3.133.475-3.972 1.422-.84.948-1.26 2.484-1.26 4.61v8.66h-1.378V.26h1.378v7.144l-.07 2.007h.097c.568-.942 1.28-1.624 2.145-2.05.863-.422 1.935-.633 3.214-.633 3.432 0 5.15 1.91 5.15 5.73v10.26l-1.364.002zm12.372.287c-2.2 0-3.913-.702-5.14-2.106-1.233-1.406-1.846-3.373-1.846-5.903 0-2.503.597-4.506 1.784-6.012 1.187-1.506 2.788-2.26 4.8-2.26 1.783 0 3.188.646 4.218 1.935 1.03 1.29 1.546 3.04 1.546 5.253v1.16h-10.9c.017 2.153.5 3.8 1.453 4.934.95 1.136 2.313 1.704 4.084 1.704.863 0 1.622-.063 2.276-.187.654-.125 1.482-.395 2.484-.81v1.3c-.853.384-1.642.647-2.366.786-.72.14-1.52.21-2.39.21zm-.404-15.01c-1.457 0-2.625.498-3.506 1.493-.882.997-1.397 2.432-1.544 4.31h9.352c0-1.82-.38-3.242-1.142-4.266C83.612 8.51 82.56 8 81.214 8zm16.047 15.01c-2.197 0-3.913-.702-5.14-2.106-1.23-1.406-1.846-3.373-1.846-5.903 0-2.503.594-4.506 1.782-6.012 1.187-1.506 2.788-2.26 4.802-2.26 1.782 0 3.187.646 4.217 1.935 1.03 1.29 1.545 3.04 1.545 5.253v1.16h-10.9c.016 2.153.502 3.8 1.453 4.934.952 1.136 2.313 1.704 4.086 1.704.86 0 1.62-.063 2.274-.187.654-.125 1.48-.395 2.483-.81v1.3c-.855.384-1.64.647-2.366.786-.725.14-1.522.21-2.394.21zm-.403-15.01c-1.457 0-2.625.498-3.506 1.493-.882.997-1.396 2.432-1.544 4.31h9.35c0-1.82-.378-3.242-1.14-4.266C99.256 8.51 98.203 8 96.856 8zm7.404-.967h1.42l3.91 10.666c.52 1.367.91 2.56 1.17 3.58h.083c.382-1.31.77-2.51 1.17-3.61l3.91-10.636h1.42l-5.846 15.69h-1.392l-5.844-15.69zm24.8 15.69l-.347-2.484h-.11c-.76 1.01-1.544 1.725-2.346 2.145-.802.418-1.752.626-2.846.626-1.485 0-2.64-.394-3.464-1.184-.826-.788-1.24-1.88-1.24-3.276 0-1.53.616-2.717 1.845-3.565 1.23-.85 3.01-1.298 5.34-1.345l2.88-.086v-1.04c0-1.49-.29-2.617-.877-3.377-.584-.76-1.527-1.14-2.826-1.14-1.402 0-2.852.404-4.355 1.212l-.512-1.24c1.66-.81 3.304-1.214 4.926-1.214 1.66 0 2.902.448 3.723 1.344.82.895 1.23 2.29 1.23 4.186v10.436h-1.017zm-5.567-1.01c1.615 0 2.89-.48 3.82-1.437.934-.958 1.4-2.288 1.4-3.99v-1.545l-2.644.115c-2.126.106-3.64.45-4.544 1.032-.905.582-1.356 1.49-1.356 2.72 0 .982.286 1.746.865 2.29.58.542 1.398.813 2.455.813z"/></g></svg>