<?xml version="1.0" encoding="UTF-8" standalone="no"?>
<svg width="131px" height="23px" viewBox="0 0 131 23" version="1.1" xmlns="http://www.w3.org/2000/svg" xmlns:xlink="http://www.w3.org/1999/xlink" xmlns:sketch="http://www.bohemiancoding.com/sketch/ns">
    <!-- Generator: Sketch 3.3.3 (12072) - http://www.bohemiancoding.com/sketch -->
    <title>pheeva</title>
    <desc>Created with Sketch.</desc>
    <defs></defs>
    <g id="Page-1" stroke="none" stroke-width="1" fill="none" fill-rule="evenodd" sketch:type="MSPage">
        <g id="HOME-v2" sketch:type="MSArtboardGroup" transform="translate(-732.000000, -2306.000000)" fill="#3A3A3A">
            <g id="pheeva" sketch:type="MSLayerGroup" transform="translate(730.500000, 2305.500000)">
                <g id="Page-1" sketch:type="MSShapeGroup">
                    <g id="pheevalogo-+-pheevalogo">
                        <g id="pheevalogo">
                            <g id="Group" transform="translate(0.000000, 1.000000)">
                                <g id="Shape" transform="translate(0.676512, 0.089588)">
                                    <path d="M8.63275878,11.794431 C6.97176653,11.5717312 7.03550492,10.431477 6.45654782,9.97663438 C5.41321097,9.1598063 4.08229255,9.51707021 3.09207102,10.0317191 C3.09207102,10.0317191 4.50721519,9.82318402 5.23186006,10.2858959 C3.61639522,9.95853511 2.17924614,11.814891 2.17924614,11.814891 C2.17924614,11.814891 3.78408791,10.8147094 5.06037342,11.0736077 C5.82675176,11.2294189 6.73198875,12.7355932 8.63275878,11.794431 L8.63275878,11.794431 L8.63275878,11.794431 Z"></path>
                                    <path d="M24.1591287,2.81168281 L15.7411075,2.81168281 C15.2091955,2.68892252 14.7888256,2.50792979 14.5907813,2.27893462 C13.9571913,1.54473365 13.9746434,1.22524213 13.6202884,0.880569007 C12.9024726,0.177845037 11.5199564,0.420217918 11.5199564,0.420217918 C11.5199564,0.420217918 12.6938052,0.526452785 13.0405724,1.57306295 C13.2431694,2.1868644 13.1316272,2.84394673 13.9351863,3.29249395 C13.9351863,3.29249395 13.5504796,3.35859564 13.2128179,3.09891042 C11.6170816,1.8744552 11.2134051,2.28995157 9.50612658,2.50478208 C7.80036568,2.72197337 7.25783052,1.037954 7.25783052,1.037954 C6.94141491,4.34854721 11.6709557,2.67947942 11.3651631,4.41937046 C11.1633249,5.57142857 8.36945851,4.14709443 8.36945851,4.14709443 C8.53108087,4.52560532 8.98180239,6.07899515 11.8811406,5.82245763 C9.12445499,7.50411623 8.58571378,6.22615012 7.09924332,5.83032688 C5.61125528,5.43529056 5.17115682,6.51967312 3.22030661,6.56688862 C1.26793882,6.61489104 0.594891702,5.11029056 0.594891702,5.11029056 C2.16862306,8.86864407 4.98752954,7.15078693 6.49524613,7.93771187 C9.50536779,9.51156174 8.92641069,12.6923124 12.6080619,13.0999395 C12.8387342,13.1251211 13.0800295,13.1369249 13.3311892,13.1314164 L12.6778706,14.8500605 C12.6164086,14.8059927 12.5655696,14.7579904 12.5329416,14.7036925 C12.2354958,14.2016344 12.267365,13.9631961 12.0966371,13.7310532 C11.7506287,13.2604721 10.9751449,13.5437651 10.9751449,13.5437651 C10.9751449,13.5437651 11.6125288,13.5358958 11.7309002,14.2905569 C11.8007088,14.7335956 11.6944782,15.2301452 12.104225,15.506356 C12.104225,15.506356 11.8887286,15.5834745 11.7210359,15.4150726 C10.9303762,14.6202785 10.6799754,14.9610169 9.72996976,15.2443099 C8.77920534,15.5315375 8.59633685,14.3180993 8.59633685,14.3180993 C8.19645429,16.8087167 10.9038186,15.2159806 10.616237,16.5348668 C10.4265394,17.4067796 8.99318425,16.553753 8.99318425,16.553753 C9.05616385,16.8236683 9.19654008,17.9473971 10.8036582,17.5421307 C9.17757032,18.9987288 8.97042054,18.0858958 8.18203727,17.9001815 C7.39289522,17.7152543 7.07799718,18.556477 6.00430872,18.7327482 C4.93062025,18.913741 4.6650436,17.8411623 4.6650436,17.8411623 C5.26979958,20.5277239 6.93306822,19.0404358 7.70627566,19.5173124 C9.24889663,20.4671307 7.20471519,22.299092 9.81798945,22.3659806 C9.99402883,22.3707021 10.2019374,22.3738499 10.428057,22.3659806 L13.2962849,22.3659806 L15.862514,15.6188862 L19.2876941,15.6188862 C22.8191048,15.6188862 26.2936061,12.9756054 27.7398607,9.1755448 C29.1853565,5.37469733 27.6890218,2.81168281 24.1591287,2.81168281 L24.1591287,2.81168281 L24.1591287,2.81168281 Z M24.1743045,8.99691283 C22.4935837,12.2673729 18.8650478,11.3104722 18.0349311,11.3372276 C17.3679543,11.3576877 17.1463875,11.5929782 16.7912736,11.6220944 C16.0726991,11.6826877 15.6455,11.0806901 15.6455,11.0806901 C15.6455,11.0806901 16.1963818,11.4513317 16.9688305,11.102724 C17.4203108,10.8981235 17.7693544,10.5628935 18.3710752,10.6478814 C18.3710752,10.6478814 18.2519451,10.4818402 17.9560169,10.4771186 C16.5598425,10.4605932 16.6425506,10.1292978 16.0658699,9.42421307 C15.4884304,8.71991525 14.2523607,9.28492736 14.2523607,9.28492736 C16.109121,7.68117433 17.0659557,10.117494 17.9833333,9.22512106 C18.5918832,8.63414044 16.5810886,8.28081114 16.5810886,8.28081114 C16.8747405,8.16749395 17.9931976,7.62923729 19.0403284,8.77657385 C18.9090576,7.03904358 17.9180773,7.42070218 17.0644381,7.07052058 C16.2115577,6.7179782 16.6820078,6.07348668 15.9004536,5.35738499 C15.120417,4.64207021 13.9397391,5.07881356 13.9397391,5.07881356 C16.8466653,3.9472155 16.9824887,5.72330508 18.0804585,5.90587167 C20.2703277,6.26943099 21.9427018,4.62869249 23.7106835,5.75792979 C24.5081723,6.26707021 25.0696773,7.25544794 24.1743045,8.99691283 L24.1743045,8.99691283 L24.1743045,8.99691283 Z"></path>
                                </g>
                            </g>
                            <g id="Group" transform="translate(43.813643, 0.302663)">
                                <path d="M12.303787,7.87475787 C12.303787,9.91289346 11.6360513,11.4773002 10.2990626,12.5656174 C8.96359142,13.6531477 7.07116808,14.1969129 4.62179255,14.1969129 L1.47660619,14.1969129 L1.47660619,22.9128935 L0.0569092827,22.9128935 L0.0569092827,1.81228813 L5.03912729,1.81228813 C9.88172785,1.81150121 12.303787,3.83311138 12.303787,7.87475787 L12.303787,7.87475787 L12.303787,7.87475787 Z M1.47660619,12.9252421 L4.27426652,12.9252421 C6.56581365,12.9252421 8.22225317,12.5341405 9.2428263,11.7487893 C10.2633994,10.9650121 10.7740654,9.6933414 10.7740654,7.93141646 C10.7740654,6.30562954 10.2914747,5.10006054 9.32629325,4.3162833 C8.3618706,3.5309322 6.86781223,3.13983051 4.84487694,3.13983051 L1.47660619,3.13983051 L1.47660619,12.9252421 L1.47660619,12.9252421 Z" id="Shape"></path>
                                <path d="M26.9309901,22.9128935 L26.9309901,12.737954 C26.9309901,11.1601695 26.6100218,10.0128329 25.9703614,9.29515738 C25.3299423,8.57748185 24.3374445,8.21943099 22.9913502,8.21943099 C21.1823939,8.21943099 19.8583045,8.69394673 19.0190822,9.64140436 C18.1798601,10.588862 17.7594901,12.1257264 17.7594901,14.2527845 L17.7594901,22.9121065 L16.3815267,22.9121065 L16.3815267,0.45562954 L17.7594901,0.45562954 L17.7594901,7.59933414 L17.6896814,9.60599274 L17.7868066,9.60599274 C18.353623,8.66246974 19.0676449,7.98020581 19.9303896,7.55605327 C20.7931344,7.13268765 21.8653052,6.92100485 23.1446259,6.92100485 C26.5773938,6.92100485 28.2945365,8.83087167 28.2945365,12.6513923 L28.2945365,22.9121065 L26.9309901,22.9128935 L26.9309901,22.9128935 Z" id="Shape"></path>
                                <path d="M39.3030682,23.200908 C37.1048523,23.200908 35.3907448,22.498971 34.162263,21.0950969 C32.9307461,19.6896489 32.3168847,17.7223365 32.3168847,15.1923729 C32.3168847,12.6891646 32.9110175,10.6864407 34.0985246,9.18026635 C35.2852729,7.67409201 36.8863207,6.92100485 38.8993917,6.92100485 C40.6810317,6.92100485 42.0863115,7.5662833 43.1159902,8.85526635 C44.1456688,10.1442494 44.6616463,11.8959443 44.6616463,14.1079904 L44.6616463,15.2631961 L33.7654156,15.2631961 C33.7828678,17.4177967 34.2677349,19.0632567 35.2192581,20.1980024 C36.1707813,21.3335351 37.5320513,21.9016949 39.303827,21.9016949 C40.1665718,21.9016949 40.9253622,21.838741 41.5794395,21.7144068 C42.2335169,21.5892857 43.0613573,21.3193705 44.0637195,20.9062349 L44.0637195,22.2046611 C43.2100802,22.5894673 42.4209381,22.8523002 41.697052,22.991586 C40.9731659,23.1324455 40.1749185,23.200908 39.3030682,23.200908 L39.3030682,23.200908 L39.3030682,23.200908 Z M38.8993916,8.19188862 C37.4425141,8.19188862 36.2747356,8.68922518 35.3930211,9.68468523 C34.5113067,10.6809322 33.9968467,12.1162833 33.8488825,13.9930993 L43.2009747,13.9930993 C43.2009747,12.1737288 42.8200619,10.7525424 42.0597539,9.72875302 C41.2971694,8.70338983 40.2447271,8.19188862 38.8993916,8.19188862 L38.8993916,8.19188862 L38.8993916,8.19188862 Z" id="Shape"></path>
                                <path d="M54.9462919,23.200908 C52.7480759,23.200908 51.0324508,22.498971 49.803969,21.0950969 C48.5747285,19.6896489 47.9593495,17.7223365 47.9593495,15.1923729 C47.9593495,12.6891646 48.5534824,10.6864407 49.7409894,9.18026635 C50.9284965,7.67409201 52.5295443,6.92100485 54.5433741,6.92100485 C56.3250141,6.92100485 57.7302939,7.5662833 58.7607314,8.85526635 C59.7896512,10.1442494 60.3048699,11.8959443 60.3048699,14.1079904 L60.3048699,15.2631961 L49.4071216,15.2631961 C49.4245738,17.4177967 49.9101997,19.0632567 50.8609641,20.1980024 C51.8132461,21.3335351 53.1745161,21.9016949 54.9470507,21.9016949 C55.8097954,21.9016949 56.5685858,21.838741 57.2219044,21.7144068 C57.8759817,21.5892857 58.7038221,21.3193705 59.7054255,20.9062349 L59.7054255,22.2046611 C58.852545,22.5894673 58.0649205,22.8523002 57.3410344,22.991586 C56.6156307,23.1324455 55.8181421,23.200908 54.9462919,23.200908 L54.9462919,23.200908 L54.9462919,23.200908 Z M54.5426153,8.19188862 C53.0857377,8.19188862 51.9172004,8.68922518 51.0362447,9.68468523 C50.1537715,10.6809322 49.6393115,12.1162833 49.4913474,13.9930993 L58.8419219,13.9930993 C58.8419219,12.1737288 58.4632855,10.7525424 57.7014599,9.72875302 C56.9403931,8.70338983 55.8879508,8.19188862 54.5426153,8.19188862 L54.5426153,8.19188862 L54.5426153,8.19188862 Z" id="Shape"></path>
                                <path d="M61.9461337,7.22475787 L63.3658305,7.22475787 L67.2751189,17.8907385 C67.7964079,19.2568402 68.1849086,20.4498185 68.4459325,21.47046 L68.5278818,21.47046 C68.9103122,20.1610169 69.2988129,18.9593826 69.6971779,17.8616223 L73.6079839,7.22475787 L75.0276807,7.22475787 L69.182718,22.9128935 L67.7903375,22.9128935 L61.9461337,7.22475787 L61.9461337,7.22475787 Z" id="Shape"></path>
                                <path d="M86.7456814,22.9128935 L86.3981554,20.4301452 L86.287372,20.4301452 C85.527064,21.4413438 84.7439923,22.1550848 83.9419507,22.5753026 C83.1399093,22.9931598 82.1906624,23.2016949 81.0964867,23.2016949 C79.6107749,23.2016949 78.4566547,22.8074455 77.6310907,22.0173729 C76.8055267,21.228874 76.3927447,20.1374092 76.3927447,18.7414044 C76.3927447,17.2124092 77.0073649,16.0241525 78.2366055,15.1766344 C79.4650872,14.3299031 81.2452096,13.8821429 83.5746962,13.8357143 L86.4543059,13.7491525 L86.4543059,12.7096246 C86.4543059,11.217615 86.1629303,10.0923123 85.5786617,9.33214286 C84.994393,8.57276029 84.0512165,8.19267555 82.7521674,8.19267555 C81.3506814,8.19267555 79.8998741,8.59636804 78.397469,9.40453995 L77.8822504,8.16355932 C79.5424839,7.3553874 81.1860239,6.95012106 82.8083179,6.95012106 C84.4685513,6.95012106 85.7099325,7.39709443 86.5309437,8.29340194 C87.351955,9.1881356 87.7624606,10.5841404 87.7624606,12.4790557 L87.7624606,22.9136804 L86.7456814,22.9128935 L86.7456814,22.9128935 Z M81.178436,21.9024818 C82.793142,21.9024818 84.0671512,21.4240314 84.9997046,20.4671307 C85.9322581,19.5094431 86.3981554,18.17954 86.3981554,16.4766344 L86.3981554,14.9326876 L83.7545295,15.0475787 C81.6291575,15.1530267 80.1153706,15.4969129 79.2108924,16.0792373 C78.3064142,16.6615618 77.8549339,17.5688862 77.8549339,18.7996368 C77.8549339,19.7809323 78.1440331,20.5450363 78.7237489,21.0888014 C79.3034648,21.6309927 80.1214409,21.9024818 81.178436,21.9024818 L81.178436,21.9024818 L81.178436,21.9024818 Z" id="Shape"></path>
                            </g>
                        </g>
                    </g>
                </g>
            </g>
        </g>
    </g>
</svg>