<svg width="124" height="21" viewBox="0 0 124 21" xmlns="http://www.w3.org/2000/svg"><title>streamium</title><path d="M76.818 1.597c.62-.1 1.295-.023 1.795.39.97.702 1.074 2.287.18 3.096-.915.997-2.79.73-3.33-.528-.584-1.137.087-2.69 1.355-2.958M112.52 7.92c-.096-.858.395-1.623.752-2.365 3.348 2.427 6.76 4.77 10.108 7.197-.057.533.078 1.227-.438 1.577-1.32 1.023-2.727 1.933-4.112 2.87-1.524 1.01-3.04 2.037-4.642 2.922-.378.21-.934.453-1.26.032-.402-.552-.462-1.266-.675-1.898 2.978-1.645 5.95-3.3 8.933-4.937-2.57-1.428-5.193-2.77-7.697-4.315-.41-.266-.918-.55-.97-1.09M10.403 5.805c.665.608 1.764.66 2.48.123.958-.854 1.13-2.345.675-3.495C13.115 1.405 12.002.87 10.947.7c-1.82-.307-3.76.02-5.315 1.035-1.215.812-2.026 2.255-1.902 3.732.037 1.017.548 1.934 1.16 2.717.73.965 1.63 1.78 2.405 2.706.88 1.046 1.61 2.3 1.66 3.7.01.89-.11 1.87-.726 2.562-.896 1.08-2.66 1.265-3.794.474-.984-.726-1.12-2.302-.31-3.205.624-.73 1.625-.96 2.55-.992-.167-.452-.294-.975-.71-1.268-.67-.52-1.57-.523-2.376-.438-1.12.308-2.147 1.04-2.617 2.126-.648 1.482-.625 3.383.42 4.682.983 1.235 2.628 1.618 4.133 1.704 1.867.06 3.835-.325 5.36-1.46 1.195-.886 2.006-2.26 2.22-3.73.18-1.447.06-2.986-.69-4.267-.55-.947-1.285-1.787-2.136-2.478-1.005-.864-2.1-1.735-2.618-2.99-.305-.8-.31-1.76.145-2.5.58-.86 1.763-1.06 2.71-.81.63.14.996.776 1.073 1.38.056.953-.46 1.84-1.185 2.432m20.537 3.895c.605-1.064-.02-2.73-1.317-2.856-1.312-.12-2.41.798-3.3 1.65.12-.5.234-1.002.346-1.503-1.254 0-2.51 0-3.77-.003-.31 1.52-.644 3.034-.96 4.55-.28 1.22-.483 2.458-.79 3.67-.303 1.03-1.107 2.16-2.288 2.155-.544.09-1.044-.418-.934-.96.163-1.31.53-2.585.777-3.882.32-1.49.628-2.98.95-4.47.503-.003 1.005 0 1.507.007.08-.356.16-.715.23-1.073-.51 0-1.02.002-1.53.007.295-1.355.62-2.704.85-4.07-1.276.177-2.553.344-3.83.52-.27 1.17-.523 2.345-.766 3.522-.297.025-.595.048-.89.086l-.15.985.806.013c-.243 1.283-.532 2.56-.803 3.84-.29 1.41-.647 2.81-.85 4.234-.06.9-.084 1.87.41 2.667.334.56.94.87 1.54 1.077 1.573.272 3.24-.32 4.32-1.488-.106.46-.203.922-.294 1.387 1.253 0 2.504 0 3.757-.002.535-2.602 1.098-5.2 1.645-7.802.146-.616.2-1.26.425-1.853.498-.568 1.183-1.004 1.952-1.058.21.497.263 1.097.654 1.494.815.423 1.94-.01 2.303-.85m77.916 7.25c-.3-1.085.18-2.182.387-3.24.38-1.633.973-3.334.58-5.02-.136-.714-.68-1.272-1.328-1.564-1.8-.796-3.907.155-4.91 1.74-.192-.666-.483-1.404-1.17-1.7-1.502-.735-3.422-.233-4.52.99.096-.388.188-.776.278-1.166-1.26-.003-2.52 0-3.78.002-.39 1.87-.8 3.738-1.19 5.61-.38 1.43-.39 3.07-1.43 4.226-.454.58-1.45.747-2.004.236-.307-.785.06-1.633.192-2.424.534-2.365.96-4.756 1.542-7.11l.085-.548c-1.255.008-2.51.003-3.765.005-.47 2.15-.912 4.306-1.37 6.46-.278 1.26-.413 2.707-1.464 3.6-.33.333-.82.293-1.246.32-.225-.354-.448-.755-.364-1.192.154-.93.374-1.845.57-2.765.45-2.14.9-4.28 1.357-6.42-1.26 0-2.52-.003-3.78.003-.33 1.676-.687 3.346-1.05 5.016-.208.97-.394 1.947-.61 2.915-.19.84-.65 1.626-1.347 2.15-.6.352-1.503.48-1.952-.168-.06-.895.21-1.755.387-2.62.52-2.432 1.014-4.87 1.56-7.294-1.263.003-2.525-.005-3.787.006-.543 2.626-1.108 5.247-1.653 7.873-.136.63-.44 1.207-.78 1.75-.404.588-1.163.916-1.854.66-.454-.212-.49-.77-.502-1.2.338-1.925 1.025-3.78 1.21-5.73.05-.92.047-1.973-.643-2.676-1.018-1.018-2.704-1.02-3.937-.41-.734.342-1.237.988-1.78 1.56-.24-.644-.502-1.377-1.185-1.674-1.484-.68-3.323-.212-4.446.93.073-.36.142-.72.21-1.083-1.25.007-2.5-.03-3.754.02-.295 1.46-.62 2.914-.923 4.37-.4 1.565-.504 3.226-1.185 4.704-.288.584-.755 1.184-1.45 1.255-.31.01-.68.063-.93-.16-.27-.26-.29-.66-.26-1.01.63-3.064 1.34-6.112 1.952-9.18-1.27-.004-2.535-.014-3.8.006-.053.303-.104.61-.15.914-.227-.418-.53-.835-1.025-.944-1.917-.52-3.977.384-5.228 1.85-1.574 1.865-2.31 4.314-2.473 6.72-.94 1.023-2.12 1.997-3.56 2.115-.614.034-1.32.083-1.82-.337-.26-.26-.344-.635-.502-.956-.015-.575-.006-1.153.05-1.73 1.76-.123 3.503-.88 4.67-2.222.953-1.104 1.46-2.676 1.042-4.107-.203-.74-.923-1.21-1.64-1.37-1.35-.27-2.788-.03-3.988.637-1.916 1.153-3.04 3.244-3.583 5.353-.328 1.355-.57 2.783-.288 4.172.112.838.56 1.647 1.273 2.118.596.43 1.33.61 2.052.7 1.56.133 3.16-.28 4.442-1.184.75-.46 1.32-1.142 1.957-1.736.172.95.636 1.91 1.49 2.43 1.23.752 2.895.656 4.07-.174.615-.382 1.074-.95 1.52-1.512.197.57.4 1.2.924 1.555.875.633 2.05.54 3.044.28.73-.17 1.327-.653 1.897-1.115-.096.433-.187.868-.272 1.305 1.24.01 2.483-.004 3.725.01.236-.9.393-1.814.594-2.72.35-1.623.69-3.25 1.034-4.88.19-.965.536-1.974 1.305-2.64.34-.294.92-.42 1.295-.133.362.48.25 1.132.156 1.683-.316 1.47-.62 2.944-.935 4.415-.297 1.413-.605 2.824-.895 4.237 1.25.07 2.502.02 3.753.03.256-1.297.55-2.584.816-3.878.25-1.18.5-2.36.746-3.54.18-.947.477-1.92 1.144-2.644.338-.34.876-.59 1.343-.37.467.25.505.85.5 1.32-.064 1.144-.414 2.244-.657 3.36-.27 1.22-.646 2.466-.426 3.726.118.974.887 1.78 1.818 2.045 1.12.31 2.392.15 3.358-.52.514-.347.913-.834 1.285-1.326.22.943.977 1.708 1.928 1.91 1.852.377 3.8-.56 4.838-2.106.166.467.272.987.64 1.35.804.837 2.092 1.016 3.175.697 1.148-.277 1.993-1.18 2.636-2.12.113.61.305 1.25.807 1.66.63.63 1.582.662 2.412.574 1.006-.177 1.92-.68 2.646-1.39-.106.416-.203.832-.3 1.25 1.26.01 2.523 0 3.785.005.436-2.21.936-4.407 1.393-6.614.238-1.23.464-2.57 1.377-3.505.332-.382.86-.382 1.324-.41.225.427.476.9.34 1.396-.36 1.78-.746 3.555-1.12 5.33-.263 1.27-.55 2.53-.793 3.807 1.24.01 2.482-.007 3.724.014.29-1.11.485-2.24.737-3.36.32-1.488.622-2.98.947-4.465.19-.858.507-1.738 1.17-2.345.27-.26.66-.397 1.035-.335.4.1.64.53.65.923.07 1.026-.21 2.03-.44 3.02-.35 1.77-1.13 3.682-.356 5.447.49 1.12 1.865 1.416 2.968 1.238.53-.217 1.084-.438 1.47-.882.46-.47.61-1.135.69-1.77-.56.06-1.39.338-1.727-.3zM36.415 8.96c.297-.383.743-.73 1.26-.675.308.165.426.53.45.858.057 2.035-1.563 3.955-3.595 4.2.36-1.553.876-3.122 1.888-4.38zm12.084.75c-.45 2.01-.8 4.05-1.335 6.04-.34.846-1.09 1.684-2.078 1.608-.466.04-.68-.424-.93-.724-.13-.778-.15-1.575-.02-2.356.26-1.685.75-3.388 1.78-4.774.388-.504.93-.994 1.606-.976.618-.09 1.177.588.978 1.18z" fill="#3A3A3A" fill-rule="evenodd"/></svg>