<svg width="124" height="21" viewBox="0 0 124 21" xmlns="http://www.w3.org/2000/svg"><title>streamium</title><path d="M76.818 1.597c.62-.1 1.295-.023 1.795.39.97.702 1.074 2.287.18 3.096-.915.997-2.79.73-3.33-.528-.584-1.137.087-2.69 1.355-2.958M112.52 7.92c-.096-.858.395-1.623.752-2.365 3.348 2.427 6.76 4.77 10.108 7.197-.057.533.078 1.227-.438 1.577-1.32 1.025-2.727 1.935-4.112 2.872-1.524 1.01-3.04 2.037-4.642 2.922-.378.21-.934.453-1.26.032-.402-.552-.462-1.266-.675-1.898 2.978-1.645 5.95-3.3 8.933-4.937-2.57-1.427-5.193-2.77-7.697-4.314-.41-.266-.916-.55-.97-1.09M10.405 5.806c.665.607 1.764.66 2.48.122.958-.854 1.13-2.345.675-3.495C13.116 1.405 12.003.87 10.948.7c-1.82-.307-3.76.02-5.315 1.035-1.215.812-2.026 2.255-1.902 3.732.035 1.017.546 1.934 1.16 2.717.73.965 1.63 1.78 2.403 2.706.88 1.046 1.61 2.3 1.66 3.7.01.89-.11 1.87-.726 2.562-.895 1.08-2.658 1.265-3.793.474-.984-.726-1.12-2.302-.31-3.205.624-.732 1.625-.96 2.55-.994-.167-.452-.294-.975-.71-1.268-.67-.52-1.57-.522-2.376-.437-1.12.308-2.146 1.04-2.616 2.126-.648 1.482-.625 3.383.42 4.682.983 1.235 2.628 1.618 4.133 1.704 1.867.06 3.835-.325 5.36-1.46 1.195-.886 2.006-2.26 2.22-3.73.18-1.447.06-2.986-.69-4.267-.55-.947-1.285-1.787-2.136-2.478-1.005-.862-2.1-1.733-2.618-2.99-.305-.8-.31-1.757.145-2.5.58-.857 1.763-1.06 2.71-.81.63.143.996.778 1.073 1.38.056.955-.46 1.842-1.185 2.434m20.537 3.895c.605-1.064-.02-2.73-1.317-2.856-1.312-.12-2.41.797-3.3 1.65.12-.5.234-1.003.346-1.504-1.256 0-2.513 0-3.77-.003-.31 1.52-.646 3.034-.96 4.55-.28 1.22-.485 2.458-.793 3.67-.302 1.03-1.106 2.16-2.287 2.155-.545.092-1.045-.417-.935-.958.163-1.31.53-2.586.777-3.883.32-1.49.628-2.98.95-4.47.503-.002 1.005 0 1.507.008.08-.356.16-.715.23-1.073-.51 0-1.02.002-1.53.007.295-1.355.62-2.704.85-4.07-1.276.177-2.553.344-3.83.52-.27 1.17-.523 2.345-.766 3.522-.297.025-.595.048-.89.086l-.15.986.806.013c-.243 1.283-.532 2.56-.803 3.84-.29 1.41-.646 2.81-.85 4.234-.06.9-.083 1.87.412 2.667.334.56.94.872 1.54 1.078 1.573.272 3.24-.32 4.322-1.488-.108.46-.205.923-.296 1.388 1.253 0 2.504 0 3.757-.002.535-2.603 1.098-5.202 1.645-7.803.146-.616.2-1.26.425-1.853.498-.567 1.183-1.003 1.952-1.057.21.497.263 1.097.654 1.494.816.422 1.94-.01 2.304-.85m77.916 7.25c-.3-1.086.18-2.183.388-3.24.38-1.634.973-3.335.58-5.02-.136-.715-.68-1.273-1.328-1.565-1.798-.797-3.906.154-4.908 1.74-.193-.667-.484-1.405-1.17-1.702-1.503-.734-3.423-.232-4.52.99.095-.387.187-.775.277-1.165-1.26-.003-2.52 0-3.78.002-.39 1.87-.8 3.738-1.19 5.61-.38 1.43-.39 3.07-1.43 4.226-.454.58-1.45.747-2.004.236-.307-.785.06-1.633.192-2.424.534-2.365.96-4.756 1.542-7.11l.085-.548c-1.255.008-2.51.003-3.765.005-.47 2.15-.912 4.305-1.37 6.46-.278 1.26-.413 2.706-1.464 3.6-.33.332-.82.292-1.246.32-.225-.355-.448-.756-.364-1.193.154-.93.374-1.845.57-2.765.45-2.14.9-4.28 1.357-6.42-1.26 0-2.52-.003-3.78.003-.332 1.676-.688 3.346-1.052 5.016-.207.97-.393 1.948-.61 2.916-.19.84-.65 1.626-1.346 2.15-.6.352-1.503.48-1.952-.168-.06-.895.21-1.755.386-2.62.52-2.432 1.014-4.87 1.56-7.294-1.263.003-2.525-.005-3.787.006-.542 2.627-1.107 5.248-1.652 7.874-.136.63-.44 1.207-.78 1.75-.404.588-1.163.916-1.854.66-.454-.212-.49-.77-.502-1.2.336-1.925 1.023-3.78 1.21-5.73.05-.92.045-1.973-.645-2.676-1.018-1.018-2.704-1.02-3.937-.41-.733.342-1.236.988-1.778 1.56-.242-.644-.503-1.377-1.186-1.674-1.484-.68-3.323-.212-4.446.93.075-.36.144-.72.21-1.083-1.25.007-2.5-.03-3.752.02-.295 1.46-.62 2.914-.923 4.37-.4 1.565-.504 3.226-1.185 4.704-.287.584-.754 1.184-1.45 1.255-.31.012-.68.064-.93-.16-.27-.26-.29-.66-.26-1.008.632-3.065 1.34-6.113 1.953-9.18-1.27-.005-2.535-.015-3.8.005-.053.304-.104.61-.15.915-.227-.418-.53-.835-1.025-.944-1.917-.52-3.977.384-5.228 1.85-1.573 1.865-2.308 4.314-2.472 6.72-.94 1.023-2.12 1.997-3.56 2.115-.614.033-1.32.082-1.82-.338-.26-.26-.344-.635-.502-.956-.015-.576-.006-1.154.05-1.73 1.76-.124 3.503-.88 4.67-2.223.953-1.104 1.46-2.676 1.042-4.107-.203-.74-.923-1.21-1.64-1.37-1.35-.27-2.788-.032-3.988.636-1.915 1.153-3.04 3.244-3.582 5.353-.328 1.355-.57 2.783-.288 4.172.113.838.56 1.647 1.274 2.118.596.43 1.33.61 2.052.7 1.56.133 3.16-.28 4.442-1.184.75-.46 1.32-1.142 1.957-1.736.173.95.637 1.91 1.49 2.43 1.23.752 2.896.656 4.07-.174.616-.382 1.075-.95 1.52-1.512.198.57.4 1.2.925 1.555.876.634 2.05.54 3.045.28.73-.17 1.327-.652 1.897-1.114-.097.433-.188.868-.273 1.305 1.24.01 2.483-.004 3.725.01.236-.9.393-1.814.594-2.72.35-1.623.69-3.25 1.034-4.88.19-.965.535-1.974 1.304-2.64.338-.294.918-.42 1.294-.133.363.48.25 1.132.157 1.683-.317 1.47-.62 2.944-.936 4.415-.297 1.413-.605 2.824-.895 4.237 1.25.07 2.502.02 3.753.03.256-1.296.55-2.583.816-3.877.25-1.18.5-2.36.747-3.54.18-.947.476-1.92 1.143-2.644.338-.34.876-.592 1.343-.37.467.25.505.85.5 1.32-.064 1.143-.414 2.243-.657 3.36-.27 1.22-.646 2.465-.426 3.725.118.974.887 1.78 1.818 2.045 1.12.31 2.392.15 3.358-.52.514-.347.913-.834 1.285-1.326.22.943.976 1.708 1.927 1.91 1.852.377 3.8-.56 4.838-2.106.166.468.272.988.64 1.35.804.838 2.092 1.017 3.175.698 1.147-.277 1.992-1.18 2.635-2.12.113.61.305 1.25.807 1.66.63.63 1.582.662 2.412.574 1.007-.177 1.92-.68 2.647-1.39-.107.416-.204.832-.302 1.25 1.26.01 2.524 0 3.786.005.436-2.21.936-4.407 1.393-6.614.238-1.23.464-2.57 1.377-3.506.332-.382.86-.382 1.324-.41.226.427.477.9.34 1.396-.36 1.78-.745 3.554-1.12 5.33-.262 1.27-.55 2.53-.792 3.806 1.24.01 2.482-.007 3.724.014.29-1.11.484-2.242.736-3.362.32-1.487.622-2.978.947-4.464.19-.858.508-1.738 1.172-2.345.268-.26.66-.398 1.034-.336.4.1.64.53.65.923.07 1.026-.21 2.03-.44 3.02-.35 1.77-1.13 3.682-.355 5.447.49 1.12 1.865 1.416 2.968 1.238.53-.217 1.084-.438 1.47-.882.46-.472.61-1.137.69-1.77-.56.057-1.39.336-1.727-.3zm-72.443-7.99c.297-.384.743-.73 1.26-.676.308.165.426.53.45.858.057 2.035-1.563 3.955-3.595 4.2.358-1.553.875-3.122 1.887-4.38zm12.086.745c-.452 2.01-.8 4.05-1.336 6.04-.34.845-1.09 1.683-2.078 1.607-.466.04-.68-.424-.93-.724-.13-.778-.15-1.575-.02-2.356.26-1.685.75-3.388 1.78-4.774.388-.504.93-.994 1.606-.976.618-.09 1.177.588.978 1.18z" fill="#3A3A3A" fill-rule="evenodd"/></svg>