<svg width="160" height="39" viewBox="0 0 160 39" xmlns="http://www.w3.org/2000/svg"><title>bitcore-logo-horizontal-black</title><path d="M63.963 14.456c1.006 0 1.875.177 2.608.53.734.353 1.34.832 1.824 1.435.48.605.837 1.31 1.068 2.123.23.812.346 1.685.346 2.62 0 1.436-.267 2.793-.8 4.072-.535 1.28-1.263 2.392-2.184 3.338-.922.946-2.01 1.695-3.267 2.246-1.257.55-2.618.826-4.084.826-.187 0-.517-.006-.988-.016-.47-.01-1.01-.058-1.618-.14-.607-.085-1.25-.21-1.932-.376-.68-.166-1.324-.395-1.932-.686l5.435-22.68L63.305 7l-1.95 8.048c.42-.187.84-.332 1.258-.436.418-.104.87-.156 1.35-.156zM59.88 27.808c.733 0 1.424-.177 2.073-.53.65-.354 1.21-.827 1.68-1.42.472-.593.843-1.264 1.116-2.012.27-.75.406-1.53.406-2.34 0-.998-.167-1.778-.503-2.34-.335-.56-.953-.842-1.853-.842-.292 0-.674.052-1.146.156-.47.104-.895.322-1.272.655l-2.073 8.548c.124.02.233.04.33.062.092.02.192.037.296.047.105.01.23.016.377.016h.566zm15.832 3.4h-4.65l3.927-16.41h4.68l-3.96 16.41zm2.262-18.406c-.65 0-1.236-.192-1.76-.577-.523-.385-.785-.972-.785-1.762 0-.437.087-.848.265-1.233.178-.384.414-.717.707-.998.293-.28.633-.504 1.02-.67.388-.167.802-.25 1.242-.25.65 0 1.235.192 1.76.577.522.383.784.97.784 1.76 0 .437-.09.848-.268 1.233-.178.385-.414.717-.707.998-.293.28-.633.505-1.02.67-.388.168-.802.25-1.24.25zm6.47-2.09l4.87-.748L88.12 14.8h5.214l-.942 3.805H87.21l-1.383 5.74c-.126.478-.204.925-.236 1.34-.03.417.023.776.16 1.077.135.302.37.536.706.702.335.167.796.25 1.382.25.503 0 .99-.047 1.46-.14.472-.094.95-.224 1.43-.39l.346 3.556c-.628.23-1.31.426-2.042.593-.732.166-1.6.25-2.606.25-1.445 0-2.566-.214-3.36-.64-.797-.427-1.363-1.01-1.698-1.747-.335-.738-.482-1.586-.44-2.543.042-.956.19-1.965.44-3.026l3.08-12.915zm9.048 13.945c0-1.415.23-2.746.69-3.993.462-1.248 1.12-2.34 1.98-3.276.86-.936 1.9-1.674 3.125-2.215 1.225-.54 2.592-.81 4.1-.81.942 0 1.785.088 2.53.264.742.177 1.417.41 2.025.702l-1.602 3.617c-.42-.166-.854-.317-1.304-.453-.45-.134-1-.202-1.65-.202-1.57 0-2.805.525-3.706 1.575-.9 1.05-1.35 2.48-1.35 4.29 0 1.06.23 1.918.69 2.573.46.656 1.31.984 2.545.984.607 0 1.194-.062 1.76-.187.564-.125 1.067-.28 1.507-.468l.345 3.71c-.586.23-1.23.432-1.93.61-.703.175-1.557.264-2.562.264-1.298 0-2.398-.187-3.298-.562-.9-.374-1.644-.878-2.23-1.513-.587-.635-1.01-1.38-1.273-2.23-.26-.854-.392-1.748-.392-2.684zm20.827 6.988c-1.11 0-2.076-.167-2.89-.5-.82-.332-1.495-.8-2.028-1.403-.535-.603-.938-1.316-1.21-2.137-.272-.822-.408-1.732-.408-2.73 0-1.248.204-2.495.612-3.743.41-1.248 1.01-2.37 1.807-3.37.795-.998 1.77-1.814 2.92-2.448 1.153-.635 2.472-.952 3.96-.952 1.088 0 2.046.167 2.873.5.828.332 1.508.8 2.042 1.403.533.603.936 1.315 1.21 2.137.27.82.407 1.73.407 2.73 0 1.248-.2 2.495-.597 3.743-.398 1.248-.984 2.37-1.76 3.37-.774.997-1.743 1.814-2.905 2.448-1.162.634-2.508.952-4.036.952zm2.322-13.352c-.69 0-1.298.197-1.822.593-.522.395-.962.894-1.318 1.497-.356.603-.623 1.263-.8 1.98-.18.718-.268 1.4-.268 2.044 0 1.06.168 1.877.502 2.45.336.57.943.857 1.822.857.692 0 1.3-.198 1.822-.593.524-.393.964-.892 1.32-1.495.356-.603.623-1.263.8-1.98.18-.72.268-1.4.268-2.044 0-1.06-.168-1.876-.503-2.45-.335-.57-.942-.856-1.822-.856zm20.86.5c-.42-.105-.834-.204-1.242-.298-.408-.093-1.01-.14-1.805-.14-.294 0-.618.026-.974.078-.354.052-.647.11-.88.172l-3.045 12.603h-4.68l3.77-15.536c.9-.29 1.91-.566 3.03-.826 1.12-.26 2.383-.39 3.786-.39.524 0 1.105.046 1.744.14.64.094 1.2.244 1.68.452l-1.38 3.744zm1.067 5.99c0-1.332.234-2.622.705-3.87.472-1.248 1.137-2.355 1.995-3.322.86-.965 1.902-1.745 3.127-2.34 1.225-.59 2.58-.887 4.068-.887.733 0 1.413.104 2.042.312.628.208 1.178.51 1.65.905.47.394.837.878 1.098 1.45.262.57.393 1.22.393 1.95 0 1.164-.262 2.152-.785 2.963-.524.81-1.252 1.47-2.184 1.98-.934.51-2.038.88-3.316 1.108-1.277.23-2.67.345-4.178.345.147.874.466 1.493.958 1.856.493.365 1.273.548 2.34.548.67 0 1.352-.058 2.043-.172.69-.115 1.34-.286 1.947-.515l.346 3.65c-.586.23-1.334.438-2.245.625-.91.187-1.9.28-2.97.28-1.297 0-2.39-.18-3.282-.545-.89-.365-1.612-.86-2.167-1.483-.555-.624-.958-1.352-1.21-2.184-.25-.832-.376-1.716-.376-2.65zm9.14-6.74c-1.068 0-2.005.38-2.81 1.14-.808.758-1.337 1.762-1.588 3.01 1.3-.042 2.346-.15 3.14-.328.797-.177 1.415-.39 1.855-.64.44-.25.733-.52.88-.81.146-.292.22-.583.22-.874 0-.997-.566-1.496-1.697-1.496zM27.47 24.69l12.142 7.987C37.958 12.95 25.392 3.165 21.174.415v14.053c1.894 1.408 5.248 4.63 6.297 10.223M.07 32.47l12.164-7.91c.487-2.503 1.952-6.476 6.288-9.968V.512C2.277 12.61.27 27.62.068 32.47m12.722-5.1L1.52 34.698c18.037 7.63 32.077 2.39 36.626.2L26.89 27.494c-2.012.894-7.327 2.603-14.1-.123" fill="#4A4A4A" fill-rule="evenodd"/></svg>