<svg width="104" height="138" viewBox="0 0 104 138" xmlns="http://www.w3.org/2000/svg"><title>bitcore-logo-vertical-dark</title><path d="M11.287 119.73c1.035 0 1.93.182 2.684.55.76.365 1.38.86 1.88 1.487.496.625.863 1.358 1.1 2.2.237.84.355 1.745.355 2.715 0 1.488-.275 2.895-.824 4.22-.55 1.327-1.3 2.48-2.25 3.46-.946.982-2.07 1.76-3.36 2.33-1.295.57-2.697.857-4.206.857-.194 0-.533-.01-1.018-.02s-1.04-.06-1.666-.146c-.627-.086-1.29-.215-1.99-.388-.7-.173-1.364-.41-1.99-.713l5.595-23.51 5.013-.777L8.6 120.34c.433-.194.864-.345 1.296-.452.43-.108.894-.16 1.39-.16zm-4.204 13.84c.755 0 1.466-.182 2.135-.55.667-.366 1.244-.856 1.73-1.47.484-.615.867-1.31 1.148-2.087.28-.776.42-1.584.42-2.425 0-1.035-.173-1.843-.517-2.425-.35-.583-.985-.873-1.91-.873-.3 0-.698.053-1.18.16-.488.11-.92.335-1.31.68l-2.137 8.862c.13.02.243.043.34.064.096.02.2.038.307.048.108.012.237.017.388.017h.582zm16.3 3.526h-4.787l4.042-17.01h4.82l-4.076 17.01zm2.328-19.08c-.665 0-1.27-.2-1.81-.6-.54-.398-.81-1.007-.81-1.827 0-.456.096-.88.28-1.28.183-.4.425-.744.727-1.036.302-.29.652-.523 1.05-.695.4-.173.825-.26 1.278-.26.67 0 1.272.2 1.812.6.538.4.808 1.007.808 1.827 0 .452-.092.877-.275 1.276-.184.4-.427.744-.73 1.035-.3.29-.652.522-1.05.694-.4.173-.825.26-1.278.26zm6.666-2.167l5.013-.78-1.23 5.012h5.37l-.97 3.945h-5.34l-1.424 5.95c-.13.496-.21.96-.243 1.39-.032.432.022.804.162 1.117.14.312.383.555.728.727.344.174.82.26 1.423.26.517 0 1.02-.05 1.503-.146.482-.097.972-.232 1.47-.404l.354 3.688c-.647.238-1.348.443-2.102.615-.755.173-1.65.26-2.685.26-1.488 0-2.64-.222-3.46-.664-.82-.44-1.403-1.046-1.748-1.81-.345-.766-.496-1.645-.453-2.637.044-.99.195-2.037.453-3.137l3.17-13.388zM41.69 130.3c0-1.467.236-2.847.71-4.14.475-1.294 1.154-2.425 2.04-3.396.882-.97 1.954-1.736 3.216-2.297 1.26-.56 2.668-.84 4.22-.84.97 0 1.838.09 2.603.274.764.183 1.46.426 2.084.728l-1.65 3.75c-.43-.17-.878-.328-1.34-.468-.465-.14-1.03-.21-1.7-.21-1.616 0-2.888.544-3.815 1.633-.93 1.09-1.39 2.57-1.39 4.447 0 1.1.235 1.99.71 2.668.473.68 1.346 1.02 2.62 1.02.624 0 1.23-.066 1.81-.195.582-.13 1.1-.29 1.552-.485l.356 3.848c-.606.24-1.27.45-1.99.63-.724.186-1.6.278-2.637.278-1.336 0-2.47-.195-3.395-.583-.927-.39-1.692-.91-2.296-1.57-.603-.656-1.04-1.427-1.31-2.31-.268-.885-.403-1.812-.403-2.782zm21.44 7.244c-1.14 0-2.134-.174-2.975-.52-.84-.344-1.536-.83-2.086-1.454-.55-.625-.966-1.364-1.247-2.215-.28-.85-.42-1.795-.42-2.83 0-1.294.21-2.587.63-3.88.42-1.295 1.04-2.46 1.86-3.494.82-1.035 1.822-1.88 3.008-2.54 1.188-.656 2.546-.985 4.077-.985 1.12 0 2.107.173 2.96.517.85.344 1.55.83 2.1 1.455.55.625.965 1.364 1.246 2.215.282.852.42 1.795.42 2.83 0 1.294-.204 2.587-.613 3.88-.41 1.294-1.014 2.46-1.81 3.494-.8 1.034-1.796 1.88-2.993 2.54-1.196.656-2.58.985-4.156.985zm2.394-13.843c-.712 0-1.337.205-1.876.615-.54.41-.992.926-1.358 1.55-.368.626-.643 1.31-.826 2.055-.183.743-.275 1.45-.275 2.118 0 1.1.17 1.947.515 2.54.345.59.97.89 1.875.89.714 0 1.34-.205 1.878-.614.54-.41.99-.928 1.357-1.553.367-.625.642-1.31.825-2.053.184-.744.275-1.45.275-2.12 0-1.1-.173-1.944-.517-2.536-.345-.594-.97-.89-1.876-.89zm21.474.517c-.43-.106-.857-.21-1.277-.306-.42-.097-1.04-.145-1.86-.145-.3 0-.635.025-1.002.08-.366.052-.668.112-.905.176l-3.135 13.066h-4.82l3.882-16.106c.926-.3 1.966-.587 3.12-.856 1.153-.27 2.452-.404 3.897-.404.54 0 1.137.048 1.795.145.657.098 1.233.255 1.73.47l-1.424 3.88zm1.1 6.21c0-1.38.242-2.716.727-4.01.485-1.293 1.17-2.44 2.054-3.444.882-1.003 1.955-1.812 3.216-2.426 1.26-.614 2.657-.92 4.187-.92.755 0 1.456.107 2.103.323.647.215 1.213.528 1.698.937.485.41.862.91 1.132 1.504.27.593.404 1.267.404 2.022 0 1.206-.27 2.23-.81 3.07-.54.842-1.287 1.526-2.246 2.054-.96.53-2.097.912-3.412 1.148-1.313.238-2.747.356-4.3.356.15.906.48 1.547.987 1.924.505.378 1.31.567 2.41.567.69 0 1.39-.06 2.1-.18.71-.118 1.38-.296 2.004-.533l.355 3.784c-.606.238-1.376.453-2.314.647-.938.195-1.957.292-3.056.292-1.335 0-2.462-.19-3.38-.567-.914-.378-1.66-.89-2.23-1.536-.57-.647-.986-1.402-1.245-2.264-.258-.863-.387-1.78-.387-2.75zm9.41-6.985c-1.1 0-2.064.394-2.894 1.18-.83.788-1.374 1.828-1.633 3.122 1.338-.044 2.416-.157 3.235-.34.82-.183 1.455-.404 1.908-.663.455-.26.757-.54.908-.84.15-.303.227-.605.227-.906 0-1.035-.582-1.553-1.747-1.553zM69.105 56.258l27.93 18.373C93.227 29.257 64.325 6.74 54.618.42v32.327c4.356 3.24 12.07 10.654 14.485 23.516M6.068 74.153L34.05 55.956c1.12-5.756 4.49-14.895 14.464-22.928V.638C11.148 28.468 6.534 63 6.068 74.152m29.266-11.73L9.41 79.28c41.49 17.55 73.787 5.494 84.25.46L67.767 62.705c-4.626 2.057-16.853 5.99-32.432-.282" fill="#474747" fill-rule="evenodd"/></svg>