<svg width="106" height="29" viewBox="0 0 106 29" xmlns="http://www.w3.org/2000/svg"><title>bitcore-wordmark-dark</title><path d="M12.963 9.633c1.006 0 1.875.177 2.608.53.735.354 1.34.833 1.825 1.436.48.6.837 1.31 1.068 2.12.23.81.346 1.683.346 2.62 0 1.434-.268 2.79-.8 4.07-.536 1.28-1.264 2.39-2.185 3.34-.922.944-2.01 1.693-3.267 2.244-1.257.55-2.618.826-4.084.826-.187 0-.517-.004-.988-.014-.47-.01-1.01-.057-1.618-.14-.607-.084-1.25-.21-1.932-.375-.68-.164-1.324-.393-1.932-.684L7.44 2.926l4.87-.748-1.95 8.048c.42-.187.84-.333 1.257-.437.418-.105.87-.158 1.35-.158zM8.88 22.985c.733 0 1.424-.177 2.073-.53.65-.353 1.21-.827 1.68-1.42.472-.592.843-1.263 1.116-2.012.27-.748.405-1.528.405-2.34 0-.997-.167-1.778-.503-2.34-.335-.56-.953-.84-1.853-.84-.293 0-.675.05-1.147.155-.47.104-.895.322-1.272.655L7.31 22.86c.125.02.234.042.33.063.093.02.193.036.297.047.105.01.23.015.377.015h.566zm15.832 3.4h-4.65L23.99 9.978h4.68l-3.958 16.41zM26.974 7.98c-.65 0-1.236-.192-1.76-.577-.523-.385-.785-.972-.785-1.763 0-.436.086-.847.264-1.232.178-.385.414-.717.707-.998.294-.28.634-.505 1.02-.67.39-.167.803-.25 1.243-.25.65 0 1.235.192 1.76.577.522.385.784.972.784 1.762 0 .434-.09.845-.268 1.23-.18.384-.415.72-.708 1s-.633.502-1.02.67c-.388.165-.802.25-1.24.25zm6.47-2.09l4.87-.75-1.194 4.837h5.214l-.942 3.806H36.21l-1.383 5.74c-.126.478-.204.925-.236 1.34-.03.417.024.776.16 1.077.136.302.37.536.707.702.335.166.796.25 1.382.25.502 0 .99-.047 1.46-.14.47-.094.95-.224 1.43-.39l.345 3.556c-.628.228-1.31.426-2.042.593-.732.17-1.6.25-2.606.25-1.445 0-2.566-.21-3.36-.64-.797-.424-1.363-1.006-1.698-1.745-.336-.738-.483-1.585-.44-2.542.04-.956.19-1.964.44-3.025l3.08-12.915zm9.048 13.945c0-1.415.23-2.746.69-3.994.462-1.244 1.12-2.336 1.98-3.272.86-.936 1.9-1.674 3.125-2.215 1.225-.54 2.592-.81 4.1-.81.942 0 1.785.088 2.53.265.742.177 1.417.41 2.025.702l-1.602 3.62c-.42-.17-.854-.32-1.304-.455-.45-.135-1-.203-1.65-.203-1.57 0-2.805.525-3.706 1.576-.9 1.05-1.35 2.48-1.35 4.29 0 1.06.23 1.918.69 2.573.46.656 1.31.984 2.545.984.607 0 1.194-.063 1.76-.187.564-.125 1.067-.28 1.507-.47l.345 3.714c-.586.23-1.23.43-1.93.608-.703.177-1.557.265-2.562.265-1.298 0-2.398-.187-3.298-.56-.9-.376-1.644-.88-2.23-1.514-.587-.635-1.01-1.38-1.273-2.23-.26-.854-.392-1.75-.392-2.684zm20.827 6.987c-1.11 0-2.077-.166-2.89-.5-.82-.332-1.496-.8-2.03-1.403-.534-.606-.937-1.318-1.21-2.14-.27-.82-.407-1.73-.407-2.73 0-1.247.204-2.495.612-3.743.41-1.25 1.01-2.37 1.807-3.37.795-.998 1.77-1.814 2.92-2.45 1.153-.633 2.472-.95 3.96-.95 1.088 0 2.046.166 2.873.5.828.332 1.508.8 2.042 1.403.533.604.936 1.316 1.21 2.138.27.82.407 1.73.407 2.73 0 1.247-.2 2.495-.597 3.743-.398 1.25-.984 2.37-1.76 3.37-.774 1-1.743 1.815-2.905 2.45-1.162.635-2.508.95-4.036.95zm2.32-13.352c-.69 0-1.298.198-1.822.593-.522.395-.962.895-1.318 1.498-.356.606-.623 1.266-.8 1.984-.18.717-.268 1.398-.268 2.043 0 1.06.168 1.877.502 2.45.336.57.943.857 1.822.857.692 0 1.3-.198 1.822-.593.524-.395.964-.894 1.32-1.497.356-.604.623-1.264.8-1.982.18-.716.268-1.397.268-2.042 0-1.06-.168-1.877-.503-2.45-.335-.57-.942-.857-1.822-.857zm20.86.5c-.42-.104-.834-.203-1.242-.297-.408-.093-1.01-.14-1.805-.14-.294 0-.618.026-.974.078-.355.055-.648.11-.88.175l-3.046 12.603h-4.68l3.77-15.536c.9-.29 1.91-.566 3.03-.826 1.12-.26 2.383-.39 3.786-.39.524 0 1.105.047 1.744.14.64.094 1.2.245 1.68.453l-1.38 3.743zm1.067 5.99c0-1.332.234-2.62.705-3.87.472-1.247 1.137-2.354 1.995-3.32.86-.968 1.902-1.748 3.127-2.34 1.225-.594 2.58-.89 4.068-.89.733 0 1.413.104 2.042.312.628.208 1.178.51 1.65.904.47.396.837.88 1.098 1.45.262.573.393 1.223.393 1.95 0 1.165-.262 2.153-.785 2.964-.524.812-1.252 1.472-2.184 1.982-.934.51-2.038.878-3.316 1.107-1.277.226-2.67.34-4.178.34.147.874.466 1.492.958 1.856.493.364 1.273.546 2.34.546.67 0 1.352-.057 2.043-.17.69-.116 1.34-.288 1.947-.516l.346 3.65c-.586.228-1.334.437-2.245.624-.91.188-1.9.28-2.97.28-1.296 0-2.39-.18-3.28-.544-.89-.365-1.613-.858-2.168-1.482-.555-.624-.958-1.352-1.21-2.184-.25-.83-.376-1.715-.376-2.65zm9.14-6.74c-1.068 0-2.005.38-2.81 1.14-.808.76-1.337 1.762-1.588 3.01 1.3-.042 2.345-.15 3.14-.328.796-.176 1.414-.39 1.854-.64.44-.25.733-.52.88-.81.146-.29.22-.582.22-.874 0-.998-.566-1.497-1.697-1.497z" fill="#4A4A4A" fill-rule="evenodd"/></svg>