<?xml version="1.0" encoding="UTF-8" standalone="no"?>
<svg width="160px" height="39px" viewBox="0 0 160 39" version="1.1" xmlns="http://www.w3.org/2000/svg" xmlns:xlink="http://www.w3.org/1999/xlink" xmlns:sketch="http://www.bohemiancoding.com/sketch/ns">
    <!-- Generator: Sketch 3.3.3 (12072) - http://www.bohemiancoding.com/sketch -->
    <title>bitcore-logo-horizontal-white</title>
    <desc>Created with Sketch.</desc>
    <defs></defs>
    <g id="assets" stroke="none" stroke-width="1" fill="none" fill-rule="evenodd" sketch:type="MSPage">
        <g id="bitcore-logo-horizontal-white" sketch:type="MSArtboardGroup" fill="#FFFFFF">
            <g id="Imported-Layers-Copy-18" sketch:type="MSLayerGroup">
                <path d="M27.4713886,24.6905012 L39.6122318,32.6773846 C37.9578285,12.9512476 25.3932103,3.16454066 21.1740394,0.41463761 L21.1740394,14.4678232 C23.0681985,15.8760719 26.4221253,19.0992388 27.4713886,24.6905012" id="Fill-1" sketch:type="MSShapeGroup"></path>
                <path d="M0.0684533625,32.4696102 L12.232299,24.5590883 C12.7188883,22.0569163 14.1839641,18.0843408 18.5199164,14.5921326 L18.5199164,0.511421412 C2.27668369,12.6102845 0.271051418,27.6215409 0.0684533625,32.4696102" id="Fill-2" sketch:type="MSShapeGroup"></path>
                <path d="M12.7905496,27.3702582 L1.52114335,34.6983014 C19.5567938,42.3273512 33.5971044,37.0868191 38.1462712,34.8989724 L26.8892509,27.4927918 C24.8783104,28.3869321 19.5629867,30.0961873 12.7905496,27.3702582" id="Fill-3" sketch:type="MSShapeGroup"></path>
            </g>
            <path d="M92.4386089,18.5586428 L88.6202988,34.5129106 L93.7267729,31.8251306 L92.4386089,18.5586428 Z" id="Path-61" sketch:type="MSShapeGroup"></path>
        </g>
    </g>
</svg>