<?xml version="1.0" encoding="UTF-8" standalone="no"?>
<svg width="92px" height="89px" viewBox="0 0 92 89" version="1.1" xmlns="http://www.w3.org/2000/svg" xmlns:xlink="http://www.w3.org/1999/xlink" xmlns:sketch="http://www.bohemiancoding.com/sketch/ns">
    <!-- Generator: Sketch 3.3.3 (12072) - http://www.bohemiancoding.com/sketch -->
    <title>Imported Layers</title>
    <desc>Created with Sketch.</desc>
    <defs></defs>
    <g id="Page-1" stroke="none" stroke-width="1" fill="none" fill-rule="evenodd" sketch:type="MSPage">
        <g id="HOME-v2" sketch:type="MSArtboardGroup" transform="translate(-674.000000, -183.000000)">
            <g id="Imported-Layers" sketch:type="MSLayerGroup" transform="translate(674.000000, 182.660375)">
                <path d="M63.1051666,56.2579493 L91.0335199,74.6306848 C87.2277908,29.2533983 58.324601,6.74041436 48.6189742,0.41463761 L48.6189742,32.7420734 C52.9762287,35.9815574 60.6914796,43.3960132 63.1051666,56.2579493" id="Fill-1" fill="#414141" sketch:type="MSShapeGroup"></path>
                <path d="M0.0684533625,74.1527281 L28.0497206,55.9556519 C29.1690527,50.1997465 32.5392598,41.0613787 42.5135264,33.0280303 L42.5135264,0.637275539 C5.14818592,28.4690592 0.534502543,63.0004062 0.0684533625,74.1527281" id="Fill-2" fill="#474747" sketch:type="MSShapeGroup"></path>
                <path d="M29.3338997,62.4223646 L3.41016845,79.2795281 C44.8987213,96.829116 77.1965401,84.7739871 87.6612776,79.7411444 L61.7660384,62.7042365 C57.1401441,64.7610841 44.9129673,68.6929925 29.3338997,62.4223646" id="Fill-3" fill="#474747" sketch:type="MSShapeGroup"></path>
            </g>
        </g>
    </g>
</svg>