<svg width="100" height="140" viewBox="0 0 100 140" xmlns="http://www.w3.org/2000/svg"><title>bitcore-logo-vertical-grey</title><path d="M32.698 61.234c.738-5.498 3.668-15.897 14.917-24.893V3.91C9.94 31.85 5.36 66.565 4.91 77.663l27.788-16.43m21.048-25.047C58.3 39.586 66.42 47.4 68.49 61.11L96.2 77.45C92.18 32.546 63.53 10.18 53.747 3.8v32.384M65.725 66.6c-5.128 2.033-16.08 4.876-29.837-.12L8.346 82.76c42.37 17.84 75.18 5.02 85.064.162L65.725 66.6m-54.05 54.096c.98 0 1.825.173 2.54.52.712.346 1.304.815 1.773 1.407.47.59.815 1.284 1.04 2.08.224.794.336 1.65.336 2.568 0 1.41-.26 2.74-.78 3.994s-1.228 2.345-2.126 3.273c-.897.928-1.957 1.662-3.18 2.202-1.224.54-2.55.81-3.977.81-.182 0-.503-.005-.96-.016-.46-.01-.985-.056-1.577-.137-.59-.082-1.218-.204-1.88-.367-.664-.164-1.29-.39-1.882-.674l5.293-22.237 4.74-.736-1.896 7.892c.408-.184.816-.327 1.224-.428.41-.104.847-.154 1.316-.154zM7.7 133.786c.713 0 1.385-.173 2.018-.52.63-.346 1.177-.81 1.636-1.39.458-.582.82-1.24 1.086-1.974.265-.734.397-1.5.397-2.294 0-.98-.163-1.743-.49-2.294-.325-.55-.927-.826-1.804-.826-.285 0-.658.05-1.116.153-.46.104-.872.318-1.24.644l-2.018 8.38c.12.02.23.042.32.063.09.02.19.035.29.045.102.012.224.017.367.017h.55zm15.414 3.334h-4.526l3.823-16.088h4.56l-3.855 16.088zm2.203-18.046c-.633 0-1.203-.188-1.713-.566-.51-.376-.765-.953-.765-1.728 0-.428.085-.83.26-1.208.172-.377.4-.703.686-.98.286-.274.617-.493.995-.656.377-.163.78-.245 1.208-.245.632 0 1.202.19 1.712.568.51.377.765.953.765 1.728 0 .43-.087.83-.26 1.208-.173.377-.403.704-.688.98-.286.274-.618.494-.995.656-.378.163-.78.244-1.208.244zm6.3-2.05l4.74-.733-1.16 4.743h5.076l-.917 3.73H34.31l-1.347 5.63c-.122.468-.2.907-.23 1.314-.03.408.02.76.154 1.056.132.296.362.525.688.688.326.164.775.246 1.346.246.49 0 .966-.046 1.424-.138.46-.09.923-.22 1.392-.382l.336 3.486c-.61.226-1.273.42-1.987.583-.714.163-1.56.245-2.54.245-1.406 0-2.496-.21-3.27-.628-.776-.417-1.327-.99-1.653-1.713-.326-.724-.47-1.555-.428-2.493.04-.938.183-1.927.428-2.967l2.997-12.663zm8.81 13.673c0-1.386.224-2.692.672-3.915.447-1.223 1.09-2.294 1.925-3.212.836-.917 1.85-1.64 3.044-2.17 1.19-.53 2.522-.797 3.99-.797.92 0 1.74.087 2.462.26.725.174 1.382.403 1.973.69l-1.56 3.547c-.407-.163-.83-.31-1.27-.444-.438-.132-.973-.198-1.605-.198-1.528 0-2.73.514-3.608 1.544-.877 1.03-1.315 2.432-1.315 4.206 0 1.04.224 1.88.673 2.524.448.642 1.274.963 2.477.963.592 0 1.162-.06 1.713-.184.55-.12 1.04-.273 1.468-.456l.337 3.64c-.572.223-1.198.422-1.882.596-.683.172-1.513.26-2.492.26-1.263 0-2.333-.185-3.21-.552-.876-.367-1.6-.86-2.172-1.483-.57-.622-.984-1.35-1.238-2.187-.256-.836-.384-1.713-.384-2.63zm20.278 6.852c-1.08 0-2.018-.166-2.814-.49-.793-.328-1.45-.787-1.97-1.378-.52-.59-.913-1.29-1.178-2.095-.264-.806-.397-1.698-.397-2.677 0-1.222.2-2.446.597-3.67.397-1.223.983-2.324 1.76-3.302.774-.98 1.722-1.78 2.843-2.402 1.122-.62 2.406-.933 3.854-.933 1.06 0 1.992.164 2.8.49.803.326 1.466.785 1.986 1.376.52.59.912 1.29 1.178 2.093.265.806.397 1.698.397 2.677 0 1.224-.194 2.448-.58 3.67-.39 1.225-.96 2.326-1.714 3.305-.755.978-1.698 1.78-2.83 2.4-1.13.623-2.44.934-3.93.934zm2.264-13.093c-.675 0-1.266.193-1.776.58-.51.388-.938.878-1.285 1.47-.348.59-.608 1.237-.78 1.94-.174.705-.26 1.373-.26 2.004 0 1.04.162 1.84.49 2.403.325.56.916.84 1.772.84.673 0 1.265-.193 1.775-.58.51-.388.937-.877 1.284-1.47.348-.59.608-1.237.78-1.94.175-.705.26-1.372.26-2.004 0-1.04-.162-1.84-.49-2.4-.324-.563-.916-.843-1.772-.843zm20.307.49c-.408-.103-.81-.2-1.208-.292-.4-.092-.985-.137-1.76-.137-.285 0-.6.024-.948.075-.346.05-.632.107-.856.168l-2.966 12.36h-4.558l3.67-15.232c.878-.285 1.862-.556 2.953-.81 1.09-.255 2.32-.382 3.685-.382.51 0 1.076.045 1.698.137.622.092 1.167.24 1.636.444l-1.346 3.67zm1.04 5.872c0-1.306.23-2.57.688-3.794.46-1.223 1.106-2.31 1.943-3.258.835-.948 1.85-1.714 3.042-2.295 1.193-.58 2.513-.872 3.96-.872.715 0 1.378.104 1.99.308.61.204 1.146.5 1.605.886.46.388.816.862 1.07 1.423.255.56.383 1.197.383 1.91 0 1.142-.255 2.11-.765 2.907-.51.795-1.218 1.442-2.125 1.94-.908.5-1.984.863-3.227 1.087-1.243.226-2.6.338-4.07.338.145.857.456 1.464.935 1.82.48.358 1.24.536 2.28.536.652 0 1.314-.056 1.987-.168.673-.112 1.305-.28 1.897-.505l.336 3.58c-.57.225-1.3.43-2.187.612-.888.184-1.85.276-2.89.276-1.265 0-2.33-.18-3.198-.536-.867-.358-1.57-.842-2.11-1.453-.54-.61-.933-1.326-1.178-2.14-.244-.817-.367-1.683-.367-2.6zm8.9-6.608c-1.04 0-1.952.372-2.737 1.117-.784.743-1.298 1.727-1.543 2.95 1.264-.04 2.284-.148 3.058-.32.775-.174 1.377-.383 1.805-.628.428-.245.714-.51.857-.795.142-.286.214-.572.214-.857 0-.978-.55-1.467-1.65-1.467z" fill="#F9F9F9" fill-rule="evenodd"/></svg>