<?xml version="1.0" encoding="UTF-8" standalone="no"?>
<svg width="104px" height="26px" viewBox="0 0 104 26" version="1.1" xmlns="http://www.w3.org/2000/svg" xmlns:xlink="http://www.w3.org/1999/xlink" xmlns:sketch="http://www.bohemiancoding.com/sketch/ns">
    <!-- Generator: Sketch 3.3.3 (12072) - http://www.bohemiancoding.com/sketch -->
    <title>Fill 1</title>
    <desc>Created with Sketch.</desc>
    <defs></defs>
    <g id="Page-1" stroke="none" stroke-width="1" fill="none" fill-rule="evenodd" sketch:type="MSPage">
        <g id="HOME-v2" sketch:type="MSArtboardGroup" transform="translate(-668.000000, -295.000000)" fill="#474747">
            <path d="M679.477658,302.889799 C680.512204,302.889799 681.40693,303.072504 682.161837,303.439089 C682.916156,303.805674 683.541818,304.301504 684.037648,304.927166 C684.533478,305.552241 684.900063,306.285411 685.136816,307.126089 C685.374156,307.966767 685.492826,308.872656 685.492826,309.842579 C685.492826,311.330656 685.217887,312.737074 684.66801,314.063007 C684.118132,315.388941 683.3691,316.542744 682.420326,317.523242 C681.47214,318.504327 680.350648,319.28097 679.057025,319.851997 C677.763403,320.423612 676.361685,320.709125 674.852458,320.709125 C674.658591,320.709125 674.31903,320.703838 673.834362,320.692676 C673.349107,320.682101 672.793942,320.633341 672.16828,320.547569 C671.543205,320.46121 670.880532,320.331965 670.179673,320.159247 C669.478814,319.987117 668.816141,319.749776 668.190479,319.447814 L673.785602,295.936431 L678.798536,295.160375 L676.792892,303.504299 C677.224687,303.309844 677.655307,303.158863 678.087102,303.051355 C678.51831,302.943259 678.981241,302.889799 679.477658,302.889799 L679.477658,302.889799 Z M675.273091,316.731324 C676.027998,316.731324 676.739432,316.548031 677.40798,316.181446 C678.07594,315.814861 678.652842,315.324319 679.138097,314.709819 C679.622765,314.095319 680.005799,313.400334 680.286025,312.623691 C680.566251,311.847635 680.706071,311.039268 680.706071,310.198589 C680.706071,309.163456 680.53394,308.355089 680.189092,307.7729 C679.844243,307.190711 679.208007,306.899911 678.280969,306.899911 C677.979006,306.899911 677.585397,306.953371 677.10073,307.061467 C676.615474,307.168975 676.17898,307.395741 675.790658,307.740589 L673.656357,316.602079 C673.785602,316.623228 673.898985,316.644965 673.995918,316.666702 C674.092852,316.687851 674.195073,316.7043 674.303168,316.714875 C674.410676,316.726037 674.539921,316.731324 674.690902,316.731324 L675.273091,316.731324 L675.273091,316.731324 Z M691.572617,320.256181 L686.786449,320.256181 L690.828872,303.245222 L695.647351,303.245222 L691.572617,320.256181 L691.572617,320.256181 Z M693.901372,301.175543 C693.232824,301.175543 692.629486,300.975801 692.090183,300.576905 C691.551468,300.178596 691.281816,299.569383 691.281816,298.749854 C691.281816,298.297498 691.373462,297.871577 691.556755,297.472681 C691.740048,297.073785 691.982675,296.728936 692.284051,296.437548 C692.586013,296.146747 692.936149,295.914694 693.335633,295.741976 C693.733942,295.569846 694.159862,295.483487 694.612806,295.483487 C695.281354,295.483487 695.884692,295.683229 696.423995,296.082125 C696.962711,296.480434 697.232362,297.089647 697.232362,297.909176 C697.232362,298.36212 697.140716,298.787453 696.957423,299.186349 C696.774131,299.585245 696.531503,299.930681 696.22954,300.221482 C695.928165,300.512283 695.577442,300.744336 695.178545,300.916466 C694.779649,301.089184 694.354316,301.175543 693.901372,301.175543 L693.901372,301.175543 Z M700.563352,299.008931 L705.576286,298.232288 L704.347286,303.245222 L709.715643,303.245222 L708.74572,307.190711 L703.409674,307.190711 L701.986219,313.141257 C701.856974,313.637087 701.775903,314.100606 701.743591,314.531813 C701.71128,314.963021 701.765328,315.334893 701.905735,315.648018 C702.045554,315.960555 702.288182,316.203183 702.63303,316.375313 C702.977879,316.548031 703.452559,316.63439 704.056485,316.63439 C704.573464,316.63439 705.075169,316.58563 705.559836,316.488696 C706.045092,316.391763 706.535634,316.256643 707.031464,316.084513 L707.387475,319.770926 C706.740663,320.008266 706.039804,320.213295 705.285485,320.385426 C704.530578,320.558144 703.635852,320.644503 702.600719,320.644503 C701.113229,320.644503 699.960014,320.423612 699.140485,319.981242 C698.321543,319.53946 697.738766,318.935535 697.393918,318.170053 C697.04907,317.405159 696.898088,316.526295 696.941561,315.534635 C696.984447,314.542975 697.135428,313.497268 697.393918,312.397513 L700.563352,299.008931 L700.563352,299.008931 Z M709.877199,313.464957 C709.877199,311.998616 710.114539,310.618635 710.588632,309.325012 C711.063313,308.03139 711.742435,306.899911 712.626587,305.9294 C713.510151,304.959477 714.582882,304.193996 715.844194,303.633543 C717.105505,303.072504 718.51251,302.792278 720.064622,302.792278 C721.035133,302.792278 721.902835,302.883924 722.667729,303.067216 C723.433798,303.250509 724.128782,303.493137 724.753857,303.795099 L723.104811,307.546722 C722.673604,307.374004 722.225947,307.217735 721.762428,307.077329 C721.29891,306.937509 720.73317,306.8676 720.064622,306.8676 C718.447888,306.8676 717.175415,307.411602 716.248377,308.500783 C715.32134,309.589377 714.857821,311.071579 714.857821,312.94739 C714.857821,314.047146 715.095162,314.936584 715.569255,315.615707 C716.043936,316.294829 716.916925,316.63439 718.188811,316.63439 C718.814473,316.63439 719.417811,316.569768 720,316.439936 C720.582189,316.310691 721.099755,316.149135 721.552112,315.955268 L721.908123,319.803237 C721.304197,320.040577 720.641524,320.250894 719.918928,320.434186 C719.19692,320.617479 718.318643,320.709125 717.28351,320.709125 C715.946415,320.709125 714.814936,320.515258 713.887898,320.126936 C712.960861,319.738614 712.195379,319.216348 711.591454,318.558375 C710.987528,317.900989 710.551034,317.13022 710.28197,316.246069 C710.012318,315.361917 709.877199,314.43488 709.877199,313.464957 L709.877199,313.464957 Z M731.318903,320.709125 C730.176262,320.709125 729.184602,320.536407 728.343924,320.191559 C727.503245,319.84671 726.807674,319.361455 726.257796,318.73638 C725.707918,318.111305 725.29316,317.372848 725.012934,316.521008 C724.732708,315.669167 724.592301,314.726268 724.592301,313.691135 C724.592301,312.397513 724.802617,311.10389 725.22325,309.810268 C725.643296,308.516645 726.263083,307.352267 727.082612,306.317722 C727.902142,305.282589 728.904376,304.436623 730.09049,303.77865 C731.276017,303.121264 732.634262,302.792278 734.165225,302.792278 C735.286129,302.792278 736.272502,302.964996 737.124342,303.309844 C737.976183,303.654693 738.676454,304.139948 739.226332,304.765022 C739.776209,305.390685 740.190968,306.129142 740.471781,306.980395 C740.752007,307.832235 740.891827,308.775722 740.891827,309.810268 C740.891827,311.10389 740.686797,312.397513 740.277327,313.691135 C739.867856,314.984757 739.26393,316.149135 738.466138,317.184268 C737.668345,318.218814 736.671398,319.065367 735.474709,319.722753 C734.27802,320.380138 732.893339,320.709125 731.318903,320.709125 L731.318903,320.709125 Z M733.712281,306.8676 C733.000847,306.8676 732.375772,307.072041 731.836469,307.4821 C731.297754,307.891571 730.84481,308.409137 730.478224,309.034212 C730.111639,309.659286 729.836701,310.343696 729.653408,311.088028 C729.470703,311.831773 729.378469,312.537919 729.378469,313.20588 C729.378469,314.305635 729.551187,315.152188 729.896036,315.744952 C730.241472,316.337715 730.866546,316.63439 731.771847,316.63439 C732.483281,316.63439 733.108943,316.429361 733.647658,316.01989 C734.186961,315.609832 734.639318,315.092853 735.005903,314.467191 C735.372488,313.842116 735.647427,313.157707 735.83072,312.413962 C736.014012,311.66963 736.105658,310.964071 736.105658,310.295523 C736.105658,309.195768 735.93294,308.349802 735.588092,307.757038 C735.243243,307.163688 734.618169,306.8676 733.712281,306.8676 L733.712281,306.8676 Z M755.186296,307.384579 C754.755089,307.27707 754.329168,307.17485 753.909123,307.077329 C753.48849,306.980395 752.868703,306.932222 752.049174,306.932222 C751.747798,306.932222 751.413524,306.959246 751.046939,307.012706 C750.680354,307.066754 750.378391,307.126089 750.141638,307.190711 L747.004516,320.256181 L742.185449,320.256181 L746.066316,304.150522 C746.993354,303.849147 748.033774,303.563046 749.187577,303.293982 C750.340793,303.024331 751.639703,302.889799 753.084306,302.889799 C753.623022,302.889799 754.22166,302.937972 754.879046,303.034905 C755.537019,303.131839 756.113333,303.288107 756.609163,303.504299 L755.186296,307.384579 L755.186296,307.384579 Z M756.286051,313.594201 C756.286051,312.21422 756.528679,310.877712 757.013347,309.584089 C757.498602,308.290467 758.183012,307.142538 759.067164,306.139717 C759.951315,305.137482 761.024047,304.328528 762.285358,303.714028 C763.546669,303.099528 764.942512,302.792278 766.472888,302.792278 C767.227795,302.792278 767.928654,302.900373 768.575465,303.115977 C769.222276,303.331581 769.788016,303.644118 770.273271,304.053589 C770.758526,304.463647 771.135686,304.964764 771.405337,305.557528 C771.674402,306.150291 771.809521,306.824126 771.809521,307.579033 C771.809521,308.786297 771.53987,309.810268 771.001154,310.651533 C770.461851,311.492212 769.712819,312.176621 768.75347,312.704763 C767.793534,313.232904 766.65618,313.615938 765.341409,313.852691 C764.02605,314.090031 762.592608,314.208701 761.039908,314.208701 C761.19089,315.114002 761.519876,315.755526 762.026281,316.132686 C762.533273,316.510433 763.336353,316.699013 764.435521,316.699013 C765.125805,316.699013 765.826077,316.639678 766.538098,316.521008 C767.249531,316.402337 767.917492,316.224332 768.543154,315.987579 L768.898577,319.770926 C768.294651,320.008266 767.52447,320.22387 766.586271,320.417737 C765.648659,320.612191 764.629975,320.709125 763.53022,320.709125 C762.193712,320.709125 761.066932,320.520545 760.15047,320.143385 C759.234007,319.765638 758.490262,319.253947 757.919235,318.607135 C757.347621,317.960324 756.932863,317.205417 756.673786,316.343002 C756.415296,315.480587 756.286051,314.564712 756.286051,313.594201 L756.286051,313.594201 Z M765.696832,306.608523 C764.597664,306.608523 763.632441,307.002132 762.802337,307.78935 C761.972233,308.57598 761.42823,309.6164 761.169153,310.910023 C762.506249,310.86655 763.584268,310.753754 764.403209,310.570462 C765.222739,310.387169 765.858975,310.166278 766.311332,309.907201 C766.764276,309.648712 767.066239,309.368486 767.21722,309.066523 C767.367614,308.76456 767.443398,308.462597 767.443398,308.161222 C767.443398,307.126089 766.86121,306.608523 765.696832,306.608523 L765.696832,306.608523 Z" id="Fill-1" sketch:type="MSShapeGroup"></path>
        </g>
    </g>
</svg>