<svg width="104" height="26" viewBox="0 0 104 26" xmlns="http://www.w3.org/2000/svg"><title>Fill 1</title><path d="M11.478 7.89c1.034 0 1.93.183 2.684.55.754.366 1.38.862 1.876 1.487.495.625.862 1.358 1.1 2.2.236.84.355 1.746.355 2.716 0 1.488-.275 2.894-.825 4.22-.55 1.326-1.3 2.48-2.248 3.46-.948.98-2.07 1.758-3.363 2.33-1.294.57-2.695.856-4.205.856-.193 0-.533-.01-1.018-.02s-1.04-.06-1.666-.145c-.625-.087-1.287-.216-1.988-.39-.7-.17-1.364-.408-1.99-.71L5.786.935 10.8.16 8.792 8.504c.432-.194.862-.345 1.294-.453.43-.104.894-.16 1.39-.16zM7.273 21.73c.755 0 1.466-.182 2.135-.55.668-.365 1.245-.856 1.73-1.47.485-.615.868-1.31 1.148-2.086.28-.776.42-1.585.42-2.425 0-1.04-.172-1.848-.517-2.43-.35-.58-.985-.873-1.91-.873-.3 0-.698.052-1.18.16-.488.11-.92.335-1.31.68L5.652 21.6c.13.02.243.044.34.066.097.02.2.037.307.048.11.01.238.016.39.016h.582zm16.3 3.526h-4.787l4.043-17.01h4.814l-4.074 17.01zM25.9 6.176c-.667 0-1.27-.2-1.81-.6-.54-.397-.808-1.007-.808-1.826 0-.453.09-.878.275-1.277.183-.4.426-.744.727-1.035.302-.29.652-.523 1.052-.696.398-.172.824-.26 1.277-.26.668 0 1.272.2 1.81.6.54.398.81 1.008.81 1.827 0 .45-.092.874-.276 1.273-.183.4-.425.745-.727 1.035-.302.29-.653.523-1.05.695-.4.173-.826.26-1.28.26zm6.663-2.167l5.013-.78-1.23 5.012h5.37l-.97 3.946H35.41l-1.424 5.95c-.13.496-.21.96-.242 1.39-.033.43.02.804.162 1.117.14.313.382.555.727.727.345.173.82.26 1.423.26.517 0 1.02-.05 1.504-.146.485-.1.976-.234 1.47-.406l.357 3.686c-.646.238-1.347.443-2.102.615-.754.174-1.65.26-2.684.26-1.484 0-2.64-.22-3.46-.663-.815-.44-1.4-1.044-1.743-1.81-.345-.765-.496-1.644-.452-2.635.042-.992.193-2.038.452-3.137l3.17-13.39zm9.314 14.452c0-1.466.238-2.846.712-4.14.47-1.294 1.15-2.425 2.034-3.396.883-.97 1.956-1.736 3.217-2.296 1.263-.56 2.67-.84 4.22-.84.97 0 1.84.09 2.605.274.766.184 1.46.426 2.086.728l-1.65 3.752c-.43-.173-.877-.33-1.34-.47-.463-.14-1.03-.21-1.697-.21-1.617 0-2.89.545-3.817 1.634-.927 1.09-1.39 2.57-1.39 4.446 0 1.1.237 1.99.71 2.67.476.678 1.35 1.017 2.62 1.017.626 0 1.23-.062 1.812-.192.58-.13 1.1-.29 1.55-.486l.356 3.85c-.604.237-1.266.447-1.99.63-.72.183-1.6.275-2.634.275-1.338 0-2.47-.195-3.396-.583-.927-.388-1.693-.91-2.297-1.57-.603-.656-1.04-1.427-1.31-2.31-.27-.885-.404-1.812-.404-2.782zM63.32 25.71c-1.144 0-2.135-.174-2.976-.518-.84-.345-1.536-.83-2.086-1.456-.55-.625-.965-1.363-1.245-2.215-.28-.85-.42-1.79-.42-2.83 0-1.29.21-2.583.63-3.88.42-1.29 1.04-2.455 1.86-3.49.82-1.034 1.82-1.88 3.007-2.54 1.186-.656 2.544-.985 4.075-.985 1.12 0 2.108.173 2.96.518.85.346 1.55.83 2.1 1.456s.966 1.363 1.247 2.214c.28.853.42 1.797.42 2.83 0 1.295-.205 2.59-.615 3.88-.41 1.296-1.013 2.46-1.81 3.495-.8 1.034-1.796 1.88-2.992 2.54-1.197.655-2.582.984-4.156.984zm2.392-13.842c-.71 0-1.336.204-1.876.614-.538.41-.99.927-1.358 1.552-.366.625-.64 1.31-.825 2.054-.182.744-.275 1.45-.275 2.118 0 1.1.173 1.946.518 2.54.345.592.97.888 1.876.888.71 0 1.337-.205 1.876-.614.54-.41.99-.927 1.358-1.553.366-.625.64-1.31.825-2.053.187-.744.28-1.45.28-2.118 0-1.1-.174-1.946-.52-2.54-.345-.592-.97-.888-1.876-.888zm21.474.517c-.43-.108-.857-.21-1.277-.308-.425-.097-1.04-.145-1.86-.145-.305 0-.64.027-1.006.08-.367.055-.67.114-.905.18l-3.137 13.064h-4.82l3.88-16.105c.928-.3 1.97-.584 3.123-.853 1.153-.27 2.452-.404 3.896-.404.54 0 1.138.05 1.795.146.657.096 1.233.252 1.73.47l-1.424 3.88zm1.1 6.21c0-1.38.243-2.717.727-4.01.486-1.295 1.17-2.442 2.054-3.445.884-1.003 1.957-1.81 3.218-2.426 1.262-.614 2.658-.922 4.188-.922.755 0 1.456.108 2.102.324.647.216 1.213.528 1.698.938.486.41.863.91 1.132 1.504.27.592.405 1.266.405 2.02 0 1.208-.27 2.232-.81 3.074-.538.84-1.287 1.525-2.247 2.053s-2.097.91-3.412 1.148c-1.31.237-2.744.356-4.3.356.15.9.48 1.543.99 1.92s1.31.566 2.41.566c.69 0 1.39-.06 2.1-.18.71-.118 1.38-.296 2.005-.532l.356 3.783c-.604.237-1.375.453-2.313.647-.937.194-1.956.29-3.056.29-1.335 0-2.462-.187-3.38-.565-.915-.378-1.66-.89-2.23-1.537-.57-.647-.986-1.402-1.245-2.264-.26-.863-.388-1.78-.388-2.75zm9.41-6.986c-1.098 0-2.064.39-2.894 1.18-.83.783-1.374 1.823-1.633 3.12 1.333-.046 2.41-.16 3.23-.34.82-.186 1.456-.407 1.91-.666.452-.258.754-.54.905-.84.15-.302.226-.604.226-.906 0-1.035-.58-1.55-1.745-1.55z" fill="#474747" fill-rule="evenodd"/></svg>