<svg width="100" height="140" viewBox="0 0 100 140" xmlns="http://www.w3.org/2000/svg"><title>bitcore-logo-vertical-orange</title><g fill="none" fill-rule="evenodd"><path d="M32.698 61.234c.738-5.498 3.668-15.897 14.917-24.893V3.91C9.94 31.85 5.36 66.565 4.91 77.663l27.788-16.43m21.048-25.047C58.3 39.586 66.42 47.4 68.49 61.11L96.2 77.45C92.18 32.546 63.53 10.18 53.747 3.8v32.384M65.725 66.6c-5.128 2.033-16.08 4.876-29.837-.12L8.346 82.76c42.37 17.84 75.18 5.02 85.064.162L65.725 66.6" fill="#F9AB3D"/><path d="M11.675 120.696c.98 0 1.825.173 2.54.52.712.346 1.304.815 1.773 1.407.47.59.815 1.284 1.04 2.08.224.794.336 1.65.336 2.568 0 1.41-.26 2.74-.78 4s-1.228 2.35-2.126 3.28c-.897.93-1.957 1.66-3.18 2.2-1.224.54-2.55.81-3.977.81-.18 0-.5 0-.96-.01-.46-.01-.98-.05-1.57-.13-.59-.08-1.22-.2-1.88-.36-.66-.16-1.29-.39-1.88-.67l5.29-22.24 4.74-.73-1.89 7.89c.41-.18.82-.33 1.23-.43.41-.1.85-.15 1.32-.15zM7.7 133.786c.713 0 1.385-.173 2.018-.52.63-.346 1.177-.81 1.636-1.39.458-.582.82-1.24 1.086-1.974.265-.734.397-1.5.397-2.294 0-.98-.163-1.743-.49-2.294-.325-.55-.927-.826-1.804-.826-.285 0-.658.05-1.116.153-.46.11-.872.32-1.24.65l-2.018 8.38c.12.02.23.04.32.07.09.02.19.04.29.05.1.01.22.02.36.02h.55zm15.414 3.334h-4.526l3.823-16.088h4.56l-3.85 16.088zm2.203-18.046c-.633 0-1.203-.188-1.713-.566-.51-.376-.765-.953-.765-1.728 0-.428.08-.83.26-1.208.17-.377.4-.703.68-.98.28-.274.61-.493.99-.656.37-.163.78-.245 1.2-.245.63 0 1.2.19 1.71.57.51.38.76.96.76 1.73 0 .43-.09.83-.26 1.21-.18.38-.41.71-.69.98-.29.28-.62.5-1 .66-.38.17-.78.25-1.21.25zm6.3-2.05l4.74-.733-1.16 4.75h5.076l-.917 3.73H34.31l-1.347 5.63c-.122.47-.2.91-.23 1.32-.03.41.02.76.154 1.06.132.3.362.53.688.69.326.17.775.25 1.346.25.49 0 .97-.05 1.43-.14.46-.09.93-.22 1.39-.38l.34 3.49c-.61.23-1.27.42-1.98.59-.71.17-1.56.25-2.54.25-1.4 0-2.49-.21-3.27-.63-.77-.42-1.32-.99-1.65-1.71-.32-.72-.47-1.55-.43-2.49.04-.94.19-1.92.43-2.96l3-12.66zm8.81 13.673c0-1.386.224-2.692.672-3.915.44-1.223 1.09-2.294 1.92-3.212.83-.917 1.85-1.64 3.04-2.17s2.52-.797 3.99-.797c.92 0 1.74.087 2.46.26.72.174 1.38.403 1.97.69l-1.56 3.547c-.41-.163-.83-.31-1.27-.444-.44-.132-.98-.198-1.61-.198-1.53 0-2.73.514-3.61 1.544-.88 1.03-1.32 2.432-1.32 4.206 0 1.04.22 1.88.67 2.524.45.642 1.27.963 2.48.963.59 0 1.16-.06 1.71-.184.55-.12 1.04-.27 1.47-.45l.34 3.64c-.58.23-1.2.42-1.89.6-.68.18-1.51.26-2.49.26-1.27 0-2.34-.18-3.21-.55-.88-.37-1.6-.86-2.18-1.48-.57-.62-.98-1.35-1.24-2.18-.26-.83-.388-1.71-.388-2.63zm20.278 6.852c-1.08 0-2.018-.17-2.814-.49-.79-.33-1.45-.79-1.97-1.38-.52-.59-.91-1.29-1.17-2.1-.26-.81-.39-1.7-.39-2.68 0-1.23.2-2.45.6-3.67.4-1.23.99-2.33 1.76-3.31.78-.98 1.72-1.78 2.85-2.4 1.12-.62 2.41-.94 3.85-.94 1.06 0 2 .16 2.8.49.81.32 1.47.78 1.99 1.37.52.59.91 1.29 1.18 2.09.27.8.4 1.7.4 2.67 0 1.22-.19 2.45-.58 3.67-.39 1.22-.96 2.32-1.71 3.3-.75.972-1.7 1.78-2.83 2.4-1.13.62-2.44.93-3.93.93zm2.264-13.1c-.68 0-1.27.19-1.78.58-.51.39-.94.88-1.29 1.47-.35.59-.61 1.23-.78 1.94-.18.7-.26 1.37-.26 2 0 1.04.16 1.84.49 2.4.32.56.91.84 1.77.84.67 0 1.26-.2 1.77-.58.51-.39.93-.88 1.28-1.47s.6-1.24.78-1.94c.17-.71.26-1.38.26-2.01 0-1.04-.17-1.84-.49-2.4-.33-.57-.92-.85-1.78-.85zm20.3.49c-.41-.11-.81-.2-1.21-.29-.4-.09-.99-.14-1.76-.14-.29 0-.6.02-.95.07s-.64.1-.86.17l-2.97 12.36h-4.55l3.67-15.24c.87-.29 1.86-.56 2.95-.81 1.09-.26 2.32-.38 3.68-.38.51 0 1.07.04 1.7.13.62.09 1.16.24 1.63.44l-1.35 3.67zm1.04 5.87c0-1.31.23-2.57.69-3.8.46-1.23 1.1-2.31 1.94-3.26.83-.95 1.85-1.72 3.04-2.3 1.19-.58 2.51-.87 3.96-.87.71 0 1.37.1 1.99.3.61.2 1.14.5 1.6.88.46.38.81.86 1.07 1.42.25.56.38 1.19.38 1.91 0 1.14-.26 2.11-.77 2.9s-1.22 1.44-2.13 1.94c-.91.5-1.99.86-3.23 1.09-1.24.22-2.6.33-4.07.33.14.854.45 1.46.93 1.82.48.36 1.24.533 2.28.533.65 0 1.31-.057 1.98-.17.67-.11 1.3-.28 1.9-.5l.33 3.58c-.57.223-1.3.43-2.19.61-.89.19-1.85.28-2.89.28-1.27 0-2.33-.18-3.2-.537-.87-.353-1.57-.84-2.11-1.45-.54-.61-.937-1.324-1.18-2.14-.246-.815-.37-1.68-.37-2.6zm8.9-6.61c-1.04 0-1.95.37-2.74 1.11-.79.74-1.3 1.72-1.55 2.95 1.26-.04 2.28-.15 3.06-.32.77-.18 1.37-.39 1.8-.63.42-.25.71-.51.85-.8.14-.29.21-.58.21-.86 0-.98-.55-1.47-1.65-1.47z" fill="#474747"/></g></svg>