<svg width="106" height="29" viewBox="0 0 106 29" xmlns="http://www.w3.org/2000/svg"><title>bitcore-wordmark-grey</title><path d="M12.963 9.633c1.006 0 1.875.177 2.608.53.74.354 1.34.833 1.83 1.436.48.6.84 1.31 1.07 2.12.23.81.35 1.68.35 2.62 0 1.43-.26 2.79-.8 4.07-.53 1.28-1.26 2.39-2.18 3.34-.92.94-2.01 1.69-3.26 2.24-1.25.55-2.62.82-4.08.82-.18 0-.51-.01-.99-.02-.47-.01-1.01-.06-1.61-.14-.61-.09-1.25-.21-1.93-.38-.68-.17-1.32-.4-1.93-.69L7.46 2.91l4.87-.75-1.95 8.05c.42-.19.84-.337 1.257-.44.416-.11.87-.16 1.35-.16zM8.88 22.985c.733 0 1.424-.177 2.073-.53.65-.353 1.21-.827 1.68-1.42.472-.592.843-1.263 1.116-2.012.27-.748.4-1.528.4-2.34 0-.997-.17-1.778-.51-2.34-.34-.56-.96-.84-1.86-.84-.3 0-.68.05-1.15.155-.47.104-.9.322-1.27.655L7.31 22.86c.125.02.234.042.33.063.093.02.193.036.297.047.105.01.23.015.377.015h.566zm15.832 3.4h-4.65L23.99 9.978h4.68l-3.958 16.41zM26.974 7.98c-.65 0-1.236-.192-1.76-.577-.523-.385-.785-.972-.785-1.763 0-.436.08-.847.26-1.232s.41-.717.7-.998c.29-.28.63-.505 1.02-.67.39-.167.8-.25 1.24-.25.65 0 1.23.192 1.76.577.52.385.78.972.78 1.762 0 .43-.09.84-.27 1.23-.18.38-.42.72-.71 1s-.64.5-1.02.67c-.39.16-.8.25-1.24.25zm6.47-2.09l4.87-.75-1.194 4.837h5.214l-.942 3.806H36.21l-1.383 5.74c-.126.478-.204.925-.236 1.34-.03.417.03.776.16 1.077.14.302.37.536.71.702.34.166.8.25 1.38.25.51 0 .99-.047 1.46-.14.47-.094.95-.224 1.43-.39l.35 3.556c-.63.228-1.31.426-2.04.593-.73.17-1.6.25-2.6.25-1.44 0-2.56-.21-3.36-.64-.79-.42-1.36-1-1.7-1.74-.33-.74-.48-1.58-.44-2.54.04-.95.19-1.96.44-3.02L33.46 5.9zm9.048 13.945c0-1.415.23-2.746.69-3.994.462-1.24 1.12-2.33 1.98-3.27.86-.93 1.9-1.67 3.125-2.21s2.592-.81 4.1-.81c.942 0 1.785.09 2.53.27.742.18 1.417.41 2.025.7l-1.602 3.62c-.42-.17-.854-.32-1.304-.45-.45-.13-1-.2-1.65-.2-1.57 0-2.805.53-3.706 1.58-.9 1.05-1.35 2.48-1.35 4.29 0 1.06.23 1.92.69 2.57.46.66 1.31.99 2.545.99.607 0 1.194-.06 1.76-.18.564-.12 1.067-.28 1.507-.47l.345 3.72c-.586.23-1.23.43-1.93.61-.703.18-1.557.27-2.562.27-1.298 0-2.398-.19-3.298-.56-.9-.38-1.644-.88-2.23-1.514-.587-.632-1.01-1.38-1.273-2.23-.26-.85-.392-1.75-.392-2.68zm20.827 6.987c-1.11 0-2.08-.166-2.89-.5-.82-.332-1.5-.8-2.03-1.403-.54-.61-.94-1.32-1.21-2.14-.27-.82-.41-1.73-.41-2.73 0-1.25.2-2.5.61-3.75s1.01-2.37 1.8-3.37 1.77-1.82 2.92-2.45c1.15-.64 2.47-.95 3.96-.95 1.09 0 2.04.16 2.87.5.83.33 1.51.8 2.04 1.4.53.6.93 1.31 1.21 2.13.27.82.4 1.73.4 2.73 0 1.24-.2 2.49-.6 3.74-.4 1.25-.99 2.37-1.76 3.37s-1.75 1.81-2.91 2.45c-1.16.63-2.51.95-4.04.95zm2.32-13.352c-.69 0-1.3.198-1.83.593-.52.395-.96.895-1.32 1.498-.36.61-.63 1.27-.8 1.99-.18.72-.27 1.4-.27 2.05 0 1.06.17 1.88.5 2.45.33.57.94.86 1.82.86.69 0 1.3-.2 1.82-.59.52-.39.96-.89 1.32-1.49.35-.6.62-1.26.8-1.98.18-.71.27-1.39.27-2.04 0-1.06-.17-1.87-.51-2.45-.34-.57-.95-.85-1.83-.85zm20.86.5c-.42-.104-.84-.203-1.25-.297-.41-.093-1.01-.14-1.81-.14-.3 0-.62.026-.98.078-.36.06-.65.11-.88.18l-3.05 12.6h-4.68l3.77-15.53c.9-.29 1.91-.56 3.03-.82 1.12-.26 2.38-.39 3.78-.39.52 0 1.1.05 1.74.14.64.1 1.2.25 1.68.46L86.47 14zm1.06 5.99c0-1.332.23-2.62.7-3.87.47-1.247 1.13-2.354 1.99-3.32.86-.968 1.9-1.748 3.12-2.34 1.22-.594 2.58-.89 4.06-.89.73 0 1.41.104 2.04.312.63.208 1.18.51 1.65.904.47.396.83.88 1.1 1.45.26.573.39 1.223.39 1.95 0 1.165-.26 2.153-.79 2.964-.52.812-1.25 1.472-2.18 1.982-.933.51-2.037.878-3.315 1.107-1.277.22-2.67.34-4.18.34.15.87.47 1.49.96 1.85.493.36 1.273.54 2.34.54.67 0 1.35-.06 2.043-.17.69-.12 1.34-.29 1.946-.52l.35 3.65c-.588.23-1.336.43-2.247.62-.91.18-1.9.28-2.97.28-1.3 0-2.39-.18-3.28-.55-.89-.37-1.616-.86-2.17-1.49-.556-.62-.96-1.35-1.21-2.18-.25-.83-.377-1.72-.377-2.65zm9.14-6.74c-1.07 0-2.01.38-2.81 1.14-.81.76-1.34 1.762-1.59 3.01 1.3-.042 2.34-.15 3.14-.328.79-.176 1.41-.39 1.85-.64.44-.25.73-.52.88-.81.14-.29.22-.582.22-.874 0-.998-.57-1.497-1.7-1.497z" fill="#F9F9F9" fill-rule="evenodd"/></svg>