<svg width="160" height="39" viewBox="0 0 160 39" xmlns="http://www.w3.org/2000/svg"><title>bitcore-logo-horizontal-black</title><path d="M63.963 14.456c1.006 0 1.875.177 2.608.53.74.353 1.34.832 1.83 1.435.48.61.84 1.31 1.07 2.13.23.81.35 1.69.35 2.62 0 1.44-.26 2.8-.8 4.07-.53 1.28-1.26 2.39-2.18 3.34-.92.95-2.01 1.7-3.26 2.25s-2.62.83-4.08.83c-.18 0-.51 0-.99-.01-.47-.01-1.01-.05-1.61-.14-.61-.08-1.25-.21-1.93-.37-.68-.16-1.323-.39-1.93-.68l5.42-22.7L63.31 7l-1.95 8.05c.42-.186.84-.33 1.26-.435.42-.104.87-.156 1.35-.156zM59.88 27.808c.733 0 1.424-.177 2.073-.53.65-.354 1.21-.827 1.68-1.42.472-.593.843-1.264 1.116-2.012.27-.75.4-1.53.4-2.34 0-.998-.17-1.778-.51-2.34-.34-.56-.96-.842-1.86-.842-.3 0-.68.052-1.15.156-.47.104-.9.322-1.27.655l-2.07 8.548c.12.02.23.04.33.062.09.02.19.037.29.047.1.01.23.016.37.016h.57zm15.832 3.4h-4.65l3.927-16.41h4.68l-3.96 16.41zm2.262-18.406c-.65 0-1.236-.192-1.76-.577-.523-.385-.785-.972-.785-1.762 0-.437.08-.848.26-1.233.18-.384.41-.717.7-.998.29-.28.63-.504 1.02-.67.39-.167.8-.25 1.24-.25.65 0 1.23.192 1.76.577.52.38.78.97.78 1.76 0 .43-.09.84-.27 1.23-.18.38-.42.71-.71 1-.3.28-.64.5-1.02.67-.39.16-.8.25-1.24.25zm6.47-2.09l4.87-.748L88.12 14.8h5.214l-.942 3.805H87.21l-1.383 5.74c-.126.478-.204.925-.236 1.34-.03.417.03.776.16 1.077.14.302.37.536.71.702.34.167.8.25 1.38.25.51 0 .99-.047 1.46-.14.47-.094.95-.224 1.43-.39l.35 3.556c-.63.23-1.31.426-2.04.593-.73.166-1.6.25-2.6.25-1.44 0-2.56-.214-3.36-.64-.79-.427-1.36-1.01-1.7-1.747-.33-.738-.48-1.586-.44-2.543.04-.956.19-1.965.44-3.026l3.08-12.915zm9.048 13.945c0-1.415.23-2.746.69-3.993.462-1.248 1.12-2.34 1.98-3.276.86-.936 1.9-1.674 3.125-2.215 1.225-.54 2.592-.81 4.1-.81.942 0 1.785.088 2.53.264.742.177 1.417.41 2.025.702l-1.602 3.61c-.42-.17-.854-.32-1.304-.46-.45-.14-1-.2-1.65-.2-1.57 0-2.805.52-3.706 1.57-.9 1.05-1.35 2.48-1.35 4.29 0 1.06.23 1.92.69 2.57.46.65 1.31.98 2.545.98.607 0 1.194-.07 1.76-.19.564-.13 1.067-.28 1.507-.47l.345 3.71c-.586.23-1.23.43-1.93.61-.703.17-1.557.26-2.562.26-1.298 0-2.398-.19-3.298-.56-.9-.38-1.644-.88-2.23-1.52-.587-.64-1.01-1.38-1.273-2.23-.26-.86-.392-1.75-.392-2.69zm20.827 6.988c-1.11 0-2.08-.167-2.89-.5-.82-.332-1.5-.8-2.03-1.403-.54-.603-.94-1.316-1.21-2.137-.27-.822-.41-1.732-.41-2.73 0-1.248.2-2.495.61-3.743.41-1.248 1.01-2.37 1.8-3.37.79-.998 1.77-1.814 2.92-2.448 1.15-.635 2.47-.952 3.96-.952 1.09 0 2.04.167 2.87.5.83.332 1.51.8 2.04 1.403s.93 1.315 1.21 2.137c.27.82.4 1.73.4 2.73 0 1.248-.2 2.495-.6 3.743-.4 1.248-.99 2.37-1.76 3.37-.78.997-1.75 1.814-2.91 2.448-1.16.634-2.51.952-4.04.952zm2.32-13.352c-.69 0-1.3.197-1.82.593-.53.395-.97.894-1.32 1.497-.36.603-.63 1.263-.8 1.98-.18.718-.27 1.4-.27 2.044 0 1.06.17 1.877.5 2.45.33.57.94.857 1.82.857.69 0 1.3-.198 1.82-.593.52-.39.96-.89 1.32-1.49.35-.6.62-1.26.8-1.98.18-.72.26-1.4.26-2.04 0-1.06-.17-1.87-.51-2.45-.34-.57-.94-.85-1.82-.85zm20.86.5c-.42-.105-.84-.204-1.24-.298-.41-.093-1.01-.14-1.81-.14-.3 0-.62.026-.98.078-.36.052-.65.11-.88.172l-3.05 12.603h-4.68l3.77-15.536c.9-.29 1.91-.566 3.03-.826 1.12-.26 2.38-.39 3.78-.39.52 0 1.1.046 1.74.14.64.094 1.2.244 1.68.452l-1.38 3.744zm1.06 5.99c0-1.332.23-2.622.7-3.87.47-1.248 1.13-2.355 1.99-3.322.86-.96 1.9-1.74 3.12-2.34 1.22-.59 2.58-.88 4.06-.88.73 0 1.41.11 2.04.31.63.21 1.18.51 1.65.91s.833.88 1.1 1.45c.26.57.39 1.22.39 1.95 0 1.17-.26 2.16-.787 2.97-.52.81-1.25 1.47-2.18 1.98-.933.51-2.04.88-3.315 1.11-1.273.23-2.67.35-4.174.35.15.88.467 1.5.96 1.86.493.37 1.273.55 2.34.55.67 0 1.352-.05 2.043-.17.69-.11 1.34-.28 1.944-.51l.35 3.65c-.585.23-1.333.44-2.244.627-.91.187-1.9.28-2.97.28-1.3 0-2.39-.18-3.28-.545-.89-.365-1.613-.86-2.168-1.483-.557-.623-.96-1.35-1.21-2.183-.25-.83-.378-1.712-.378-2.65zm9.14-6.74c-1.07 0-2.01.38-2.81 1.14-.81.758-1.34 1.762-1.59 3.01 1.3-.042 2.34-.15 3.14-.328.79-.177 1.41-.39 1.85-.64.44-.25.73-.52.88-.81.14-.292.22-.583.22-.874 0-.99-.57-1.49-1.7-1.49zM27.47 24.69l12.142 7.987C37.958 12.95 25.392 3.165 21.174.415v14.053c1.894 1.408 5.248 4.63 6.297 10.223M.07 32.47l12.164-7.91c.487-2.503 1.952-6.476 6.288-9.968V.512C2.277 12.61.27 27.62.068 32.47m12.722-5.1L1.52 34.698c18.037 7.63 32.077 2.39 36.626.2L26.89 27.494c-2.012.894-7.327 2.603-14.1-.123" fill="#4A4A4A" fill-rule="evenodd"/></svg>