<?xml version="1.0" encoding="UTF-8" standalone="no"?>
<svg width="310px" height="200px" viewBox="0 0 310 200" version="1.1" xmlns="http://www.w3.org/2000/svg" xmlns:xlink="http://www.w3.org/1999/xlink" xmlns:sketch="http://www.bohemiancoding.com/sketch/ns">
    <!-- Generator: Sketch 3.3.3 (12072) - http://www.bohemiancoding.com/sketch -->
    <title>Artboard 19</title>
    <desc>Created with Sketch.</desc>
    <defs></defs>
    <g id="Page-1" stroke="none" stroke-width="1" fill="none" fill-rule="evenodd" sketch:type="MSPage">
        <g id="Artboard-19" sketch:type="MSArtboardGroup" stroke="#5D5D5D">
            <g id="Imported-Layers" sketch:type="MSLayerGroup">
                <path d="M830.91696,694.71352 L856.635257,694.71352 L868.58846,687.812795 L843.776108,673.488805 L818.96347,687.812795 L830.91696,694.71352 L830.91696,694.71352 Z M843.776108,530.24919 L868.58846,515.924913 L843.776108,501.600923 L818.96347,515.924913 L843.776108,530.24919 L843.776108,530.24919 Z M794.151118,530.24919 L818.96347,544.572894 L843.776108,530.24919 L818.96347,515.924913 L794.151118,530.24919 L794.151118,530.24919 Z M843.776108,587.544864 L868.58846,573.22116 L843.776108,558.896884 L818.96347,573.22116 L843.776108,587.544864 L843.776108,587.544864 Z M794.151118,587.544864 L818.96347,601.868854 L843.776108,587.544864 L818.96347,573.22116 L794.151118,587.544864 L794.151118,587.544864 Z M843.776108,558.896884 L868.58846,544.572894 L843.776108,530.24919 L818.96347,544.572894 L843.776108,558.896884 L843.776108,558.896884 Z M794.151118,558.896884 L818.96347,573.22116 L843.776108,558.896884 L818.96347,544.572894 L794.151118,558.896884 L794.151118,558.896884 Z M248.275941,14.5852597 L223.463303,0.26126958 L198.650951,14.5852597 L223.463303,28.9095363 L248.275941,14.5852597 L248.275941,14.5852597 Z M198.650951,14.5852597 L223.463303,0.26126958 L173.838313,0.26126958 L198.650951,14.5852597 L198.650951,14.5852597 Z M1042.27607,530.24919 L1067.08871,515.924913 L1042.27607,501.600923 L1017.46343,515.924913 L1042.27607,530.24919 L1042.27607,530.24919 Z M198.650951,100.5292 L223.463303,86.2052102 L198.650951,71.8815066 L173.838313,86.2052102 L198.650951,100.5292 L198.650951,100.5292 Z M843.776108,272.417082 L868.58846,258.093092 L843.776108,243.769101 L818.96347,258.093092 L843.776108,272.417082 L843.776108,272.417082 Z M1042.27607,415.656983 L1067.08871,401.333279 L1042.27607,387.009002 L1017.46343,401.333279 L1042.27607,415.656983 L1042.27607,415.656983 Z M198.650951,71.8815066 L223.463303,57.55723 L198.650951,43.2332399 L173.838313,57.55723 L198.650951,71.8815066 L198.650951,71.8815066 Z M248.275941,43.2332399 L223.463303,28.9095363 L198.650951,43.2332399 L223.463303,57.55723 L248.275941,43.2332399 L248.275941,43.2332399 Z M198.650951,43.2332399 L223.463303,28.9095363 L198.650951,14.5852597 L173.838313,28.9095363 L198.650951,43.2332399 L198.650951,43.2332399 Z M1042.27607,444.305249 L1067.08871,429.980973 L1042.27607,415.656983 L1017.46343,429.980973 L1042.27607,444.305249 L1042.27607,444.305249 Z M992.651078,444.305249 L1017.46343,458.628953 L1042.27607,444.305249 L1017.46343,429.980973 L992.651078,444.305249 L992.651078,444.305249 Z M992.651078,501.600923 L1017.46343,515.924913 L1042.27607,501.600923 L1017.46343,487.27722 L992.651078,501.600923 L992.651078,501.600923 Z M992.651078,415.656983 L1017.46343,429.980973 L1042.27607,415.656983 L1017.46343,401.333279 L992.651078,415.656983 L992.651078,415.656983 Z M595.650871,387.009002 L570.83852,401.333279 L595.650871,415.656983 L620.46351,401.333279 L595.650871,387.009002 L595.650871,387.009002 Z" id="Stroke-3" sketch:type="MSShapeGroup"></path>
                <path d="M1042.27607,501.600923 L1067.08871,487.27722 L1042.27607,472.952943 L1017.46343,487.27722 L1042.27607,501.600923 L1042.27607,501.600923 Z M992.651078,472.952943 L1017.46343,487.27722 L1042.27607,472.952943 L1017.46343,458.628953 L992.651078,472.952943 L992.651078,472.952943 Z M248.275941,71.8815066 L223.463303,57.55723 L198.650951,71.8815066 L223.463303,86.2052102 L248.275941,71.8815066 L248.275941,71.8815066 Z M248.275941,243.769101 L223.463303,229.445111 L198.650951,243.769101 L223.463303,258.093092 L248.275941,243.769101 L248.275941,243.769101 Z M248.275941,100.5292 L223.463303,86.2052102 L198.650951,100.5292 L223.463303,114.85319 L248.275941,100.5292 L248.275941,100.5292 Z M198.650951,215.121121 L173.838313,229.445111 L198.650951,243.769101 L223.463303,229.445111 L198.650951,215.121121 L198.650951,215.121121 Z M198.650951,272.417082 L173.838313,286.741072 L198.650951,301.065062 L223.463303,286.741072 L198.650951,272.417082 L198.650951,272.417082 Z M248.275941,301.065062 L223.463303,286.741072 L198.650951,301.065062 L223.463303,315.389052 L248.275941,301.065062 L248.275941,301.065062 Z M248.275941,272.417082 L223.463303,258.093092 L198.650951,272.417082 L223.463303,286.741072 L248.275941,272.417082 L248.275941,272.417082 Z M248.275941,215.121121 L223.463303,200.797131 L198.650951,215.121121 L223.463303,229.445111 L248.275941,215.121121 L248.275941,215.121121 Z M198.650951,243.769101 L173.838313,258.093092 L198.650951,272.417082 L223.463303,258.093092 L198.650951,243.769101 L198.650951,243.769101 Z M248.275941,129.177181 L223.463303,114.85319 L198.650951,129.177181 L223.463303,143.501171 L248.275941,129.177181 L248.275941,129.177181 Z M198.650951,129.177181 L173.838313,143.501171 L198.650951,157.825161 L223.463303,143.501171 L198.650951,129.177181 L198.650951,129.177181 Z M198.650951,186.473141 L173.838313,200.797131 L198.650951,215.121121 L223.463303,200.797131 L198.650951,186.473141 L198.650951,186.473141 Z M198.650951,100.5292 L173.838313,114.85319 L198.650951,129.177181 L223.463303,114.85319 L198.650951,100.5292 L198.650951,100.5292 Z M248.275941,186.473141 L223.463303,172.149151 L198.650951,186.473141 L223.463303,200.797131 L248.275941,186.473141 L248.275941,186.473141 Z M198.650951,157.825161 L173.838313,172.149151 L198.650951,186.473141 L223.463303,172.149151 L198.650951,157.825161 L198.650951,157.825161 Z M248.275941,157.825161 L223.463303,143.501171 L198.650951,157.825161 L223.463303,172.149151 L248.275941,157.825161 L248.275941,157.825161 Z M1042.27607,472.952943 L1067.08871,458.628953 L1042.27607,444.305249 L1017.46343,458.628953 L1042.27607,472.952943 L1042.27607,472.952943 Z M645.275862,243.769101 L620.46351,229.445111 L595.650871,243.769101 L620.46351,258.093092 L645.275862,243.769101 L645.275862,243.769101 Z M595.650871,301.065062 L620.46351,286.741072 L595.650871,272.417082 L570.83852,286.741072 L595.650871,301.065062 L595.650871,301.065062 Z M645.275862,272.417082 L620.46351,258.093092 L595.650871,272.417082 L620.46351,286.741072 L645.275862,272.417082 L645.275862,272.417082 Z" id="Stroke-4" sketch:type="MSShapeGroup"></path>
                <path d="M1042.27607,215.121121 L1067.08871,200.797131 L1042.27607,186.473141 L1017.46343,200.797131 L1042.27607,215.121121 L1042.27607,215.121121 Z M1042.27607,186.473141 L1017.46343,172.149151 L992.651078,186.473141 L1017.46343,200.797131 L1042.27607,186.473141 L1042.27607,186.473141 Z M992.651078,243.769101 L1017.46343,258.093092 L1042.27607,243.769101 L1017.46343,229.445111 L992.651078,243.769101 L992.651078,243.769101 Z M1042.27607,272.417082 L1067.08871,258.093092 L1042.27607,243.769101 L1017.46343,258.093092 L1042.27607,272.417082 L1042.27607,272.417082 Z M992.651078,272.417082 L1017.46343,286.741072 L1042.27607,272.417082 L1017.46343,258.093092 L992.651078,272.417082 L992.651078,272.417082 Z M1042.27607,243.769101 L1067.08871,229.445111 L1042.27607,215.121121 L1017.46343,229.445111 L1042.27607,243.769101 L1042.27607,243.769101 Z M843.776108,129.177181 L868.58846,114.85319 L843.776108,100.5292 L818.96347,114.85319 L843.776108,129.177181 L843.776108,129.177181 Z M843.776108,43.2332399 L868.58846,28.9095363 L843.776108,14.5852597 L818.96347,28.9095363 L843.776108,43.2332399 L843.776108,43.2332399 Z M843.776108,243.769101 L818.96347,229.445111 L794.151118,243.769101 L818.96347,258.093092 L843.776108,243.769101 L843.776108,243.769101 Z M843.776108,157.825161 L868.58846,143.501171 L843.776108,129.177181 L818.96347,143.501171 L843.776108,157.825161 L843.776108,157.825161 Z M843.776108,157.825161 L818.96347,143.501171 L794.151118,157.825161 L818.96347,172.149151 L843.776108,157.825161 L843.776108,157.825161 Z M843.776108,215.121121 L868.58846,200.797131 L843.776108,186.473141 L818.96347,200.797131 L843.776108,215.121121 L843.776108,215.121121 Z M843.776108,243.769101 L868.58846,229.445111 L843.776108,215.121121 L818.96347,229.445111 L843.776108,243.769101 L843.776108,243.769101 Z M843.776108,215.121121 L818.96347,200.797131 L794.151118,215.121121 L818.96347,229.445111 L843.776108,215.121121 L843.776108,215.121121 Z M843.776108,186.473141 L818.96347,172.149151 L794.151118,186.473141 L818.96347,200.797131 L843.776108,186.473141 L843.776108,186.473141 Z M347.525921,243.769101 L322.713283,258.093092 L347.525921,272.417082 L372.338273,258.093092 L347.525921,243.769101 L347.525921,243.769101 Z M843.776108,43.2332399 L818.96347,28.9095363 L794.151118,43.2332399 L818.96347,57.55723 L843.776108,43.2332399 L843.776108,43.2332399 Z M198.650951,301.065062 L173.838313,315.389052 L198.650951,329.713042 L223.463303,315.389052 L198.650951,301.065062 L198.650951,301.065062 Z M843.776108,129.177181 L818.96347,114.85319 L794.151118,129.177181 L818.96347,143.501171 L843.776108,129.177181 L843.776108,129.177181 Z M1042.27607,186.473141 L1067.08871,172.149151 L1042.27607,157.825161 L1017.46343,172.149151 L1042.27607,186.473141 L1042.27607,186.473141 Z M843.776108,100.5292 L868.58846,86.2052102 L843.776108,71.8815066 L818.96347,86.2052102 L843.776108,100.5292 L843.776108,100.5292 Z M843.776108,100.5292 L818.96347,86.2052102 L794.151118,100.5292 L818.96347,114.85319 L843.776108,100.5292 L843.776108,100.5292 Z" id="Stroke-8" sketch:type="MSShapeGroup"></path>
                <path d="M198.650951,587.544864 L173.838313,601.868854 L198.650951,616.192844 L223.463303,601.868854 L198.650951,587.544864 L198.650951,587.544864 Z M198.650951,644.840824 L173.838313,659.164815 L198.650951,673.488805 L223.463303,659.164815 L198.650951,644.840824 L198.650951,644.840824 Z M198.650951,558.896884 L173.838313,573.22116 L198.650951,587.544864 L223.463303,573.22116 L198.650951,558.896884 L198.650951,558.896884 Z M248.275941,644.840824 L223.463303,630.516834 L198.650951,644.840824 L223.463303,659.164815 L248.275941,644.840824 L248.275941,644.840824 Z M1240.77603,415.656983 L1265.58867,401.333279 L1240.77603,387.009002 L1215.96368,401.333279 L1240.77603,415.656983 L1240.77603,415.656983 Z M1240.77603,215.121121 L1265.58867,200.797131 L1240.77603,186.473141 L1215.96368,200.797131 L1240.77603,215.121121 L1240.77603,215.121121 Z M1191.15104,186.473141 L1215.96368,200.797131 L1240.77603,186.473141 L1215.96368,172.149151 L1191.15104,186.473141 L1191.15104,186.473141 Z M1191.15104,157.825161 L1215.96368,172.149151 L1240.77603,157.825161 L1215.96368,143.501171 L1191.15104,157.825161 L1191.15104,157.825161 Z M1240.77603,186.473141 L1265.58867,172.149151 L1240.77603,157.825161 L1215.96368,172.149151 L1240.77603,186.473141 L1240.77603,186.473141 Z M1240.77603,129.177181 L1265.58867,114.85319 L1240.77603,100.5292 L1215.96368,114.85319 L1240.77603,129.177181 L1240.77603,129.177181 Z M1240.77603,157.825161 L1265.58867,143.501171 L1240.77603,129.177181 L1215.96368,143.501171 L1240.77603,157.825161 L1240.77603,157.825161 Z M1240.77603,100.5292 L1215.96368,86.2052102 L1191.15104,100.5292 L1215.96368,114.85319 L1240.77603,100.5292 L1240.77603,100.5292 Z M1191.15104,129.177181 L1215.96368,143.501171 L1240.77603,129.177181 L1215.96368,114.85319 L1191.15104,129.177181 L1191.15104,129.177181 Z M1240.77603,301.065062 L1265.58867,286.741072 L1240.77603,272.417082 L1215.96368,286.741072 L1240.77603,301.065062 L1240.77603,301.065062 Z M1191.15104,301.065062 L1215.96368,315.389052 L1240.77603,301.065062 L1215.96368,286.741072 L1191.15104,301.065062 L1191.15104,301.065062 Z M1191.15104,272.417082 L1215.96368,286.741072 L1240.77603,272.417082 L1215.96368,258.093092 L1191.15104,272.417082 L1191.15104,272.417082 Z M1240.77603,329.713042 L1265.58867,315.389052 L1240.77603,301.065062 L1215.96368,315.389052 L1240.77603,329.713042 L1240.77603,329.713042 Z M1191.15104,215.121121 L1215.96368,229.445111 L1240.77603,215.121121 L1215.96368,200.797131 L1191.15104,215.121121 L1191.15104,215.121121 Z M1191.15104,243.769101 L1215.96368,258.093092 L1240.77603,243.769101 L1215.96368,229.445111 L1191.15104,243.769101 L1191.15104,243.769101 Z M248.275941,329.713042 L223.463303,315.389052 L198.650951,329.713042 L223.463303,344.037032 L248.275941,329.713042 L248.275941,329.713042 Z M1240.77603,243.769101 L1265.58867,229.445111 L1240.77603,215.121121 L1215.96368,229.445111 L1240.77603,243.769101 L1240.77603,243.769101 Z M992.651078,558.896884 L1017.46343,573.22116 L1042.27607,558.896884 L1017.46343,544.572894 L992.651078,558.896884 L992.651078,558.896884 Z" id="Stroke-17" sketch:type="MSShapeGroup"></path>
                <path d="M893.401098,272.417082 L918.21345,258.093092 L893.401098,243.769101 L868.58846,258.093092 L893.401098,272.417082 L893.401098,272.417082 Z M893.401098,186.473141 L918.21345,172.149151 L893.401098,157.825161 L868.58846,172.149151 L893.401098,186.473141 L893.401098,186.473141 Z M893.401098,157.825161 L868.58846,143.501171 L843.776108,157.825161 L868.58846,172.149151 L893.401098,157.825161 L893.401098,157.825161 Z M893.401098,243.769101 L868.58846,229.445111 L843.776108,243.769101 L868.58846,258.093092 L893.401098,243.769101 L893.401098,243.769101 Z M893.401098,243.769101 L918.21345,229.445111 L893.401098,215.121121 L868.58846,229.445111 L893.401098,243.769101 L893.401098,243.769101 Z M347.525921,243.769101 L322.713283,229.445111 L297.900931,243.769101 L322.713283,258.093092 L347.525921,243.769101 L347.525921,243.769101 Z M347.525921,444.305249 L322.713283,429.980973 L297.900931,444.305249 L322.713283,458.628953 L347.525921,444.305249 L347.525921,444.305249 Z M297.900931,415.656983 L273.088293,429.980973 L297.900931,444.305249 L322.713283,429.980973 L297.900931,415.656983 L297.900931,415.656983 Z M297.900931,444.305249 L273.088293,458.628953 L297.900931,472.952943 L322.713283,458.628953 L297.900931,444.305249 L297.900931,444.305249 Z M347.525921,415.656983 L322.713283,401.333279 L297.900931,415.656983 L322.713283,429.980973 L347.525921,415.656983 L347.525921,415.656983 Z M347.525921,472.952943 L322.713283,458.628953 L297.900931,472.952943 L322.713283,487.27722 L347.525921,472.952943 L347.525921,472.952943 Z M297.900931,387.009002 L273.088293,401.333279 L297.900931,415.656983 L322.713283,401.333279 L297.900931,387.009002 L297.900931,387.009002 Z M347.525921,501.600923 L322.713283,487.27722 L297.900931,501.600923 L322.713283,515.924913 L347.525921,501.600923 L347.525921,501.600923 Z M297.900931,472.952943 L273.088293,487.27722 L297.900931,501.600923 L322.713283,487.27722 L297.900931,472.952943 L297.900931,472.952943 Z M297.900931,329.713042 L273.088293,344.037032 L297.900931,358.361022 L322.713283,344.037032 L297.900931,329.713042 L297.900931,329.713042 Z M297.900931,301.065062 L273.088293,315.389052 L297.900931,329.713042 L322.713283,315.389052 L297.900931,301.065062 L297.900931,301.065062 Z M347.525921,329.713042 L322.713283,315.389052 L297.900931,329.713042 L322.713283,344.037032 L347.525921,329.713042 L347.525921,329.713042 Z M347.525921,301.065062 L322.713283,286.741072 L297.900931,301.065062 L322.713283,315.389052 L347.525921,301.065062 L347.525921,301.065062 Z M297.900931,358.361022 L273.088293,372.685012 L297.900931,387.009002 L322.713283,372.685012 L297.900931,358.361022 L297.900931,358.361022 Z M297.900931,272.417082 L273.088293,286.741072 L297.900931,301.065062 L322.713283,286.741072 L297.900931,272.417082 L297.900931,272.417082 Z M347.525921,387.009002 L322.713283,372.685012 L297.900931,387.009002 L322.713283,401.333279 L347.525921,387.009002 L347.525921,387.009002 Z M347.525921,358.361022 L322.713283,344.037032 L297.900931,358.361022 L322.713283,372.685012 L347.525921,358.361022 L347.525921,358.361022 Z" id="Stroke-23" sketch:type="MSShapeGroup"></path>
                <path d="M297.900931,501.600923 L273.088293,515.924913 L297.900931,530.24919 L322.713283,515.924913 L297.900931,501.600923 L297.900931,501.600923 Z M310.76008,694.71352 L322.713283,687.812795 L297.900931,673.488805 L273.088293,687.812795 L285.041783,694.71352 L310.76008,694.71352 L310.76008,694.71352 Z M347.525921,673.488805 L322.713283,659.164815 L297.900931,673.488805 L322.713283,687.812795 L347.525921,673.488805 L347.525921,673.488805 Z M347.525921,530.24919 L322.713283,515.924913 L297.900931,530.24919 L322.713283,544.572894 L347.525921,530.24919 L347.525921,530.24919 Z M347.525921,644.840824 L322.713283,630.516834 L297.900931,644.840824 L322.713283,659.164815 L347.525921,644.840824 L347.525921,644.840824 Z M322.713283,687.812795 L310.76008,694.71352 L334.666773,694.71352 L322.713283,687.812795 L322.713283,687.812795 Z M297.900931,644.840824 L273.088293,659.164815 L297.900931,673.488805 L322.713283,659.164815 L297.900931,644.840824 L297.900931,644.840824 Z M297.900931,558.896884 L273.088293,573.22116 L297.900931,587.544864 L322.713283,573.22116 L297.900931,558.896884 L297.900931,558.896884 Z M297.900931,616.192844 L273.088293,630.516834 L297.900931,644.840824 L322.713283,630.516834 L297.900931,616.192844 L297.900931,616.192844 Z M297.900931,530.24919 L273.088293,544.572894 L297.900931,558.896884 L322.713283,544.572894 L297.900931,530.24919 L297.900931,530.24919 Z M347.525921,558.896884 L322.713283,544.572894 L297.900931,558.896884 L322.713283,573.22116 L347.525921,558.896884 L347.525921,558.896884 Z M347.525921,616.192844 L322.713283,601.868854 L297.900931,616.192844 L322.713283,630.516834 L347.525921,616.192844 L347.525921,616.192844 Z M347.525921,587.544864 L322.713283,573.22116 L297.900931,587.544864 L322.713283,601.868854 L347.525921,587.544864 L347.525921,587.544864 Z M297.900931,587.544864 L273.088293,601.868854 L297.900931,616.192844 L322.713283,601.868854 L297.900931,587.544864 L297.900931,587.544864 Z M347.525921,100.5292 L322.713283,86.2052102 L297.900931,100.5292 L322.713283,114.85319 L347.525921,100.5292 L347.525921,100.5292 Z M546.025881,616.192844 L521.21353,630.516834 L546.025881,644.840824 L570.83852,630.516834 L546.025881,616.192844 L546.025881,616.192844 Z M595.650871,644.840824 L570.83852,630.516834 L546.025881,644.840824 L570.83852,659.164815 L595.650871,644.840824 L595.650871,644.840824 Z M546.025881,644.840824 L521.21353,659.164815 L546.025881,673.488805 L570.83852,659.164815 L546.025881,644.840824 L546.025881,644.840824 Z M297.900931,43.2332399 L322.713283,28.9095363 L297.900931,14.5852597 L273.088293,28.9095363 L297.900931,43.2332399 L297.900931,43.2332399 Z M347.525921,43.2332399 L322.713283,28.9095363 L297.900931,43.2332399 L322.713283,57.55723 L347.525921,43.2332399 L347.525921,43.2332399 Z M347.525921,14.5852597 L322.713283,0.26126958 L297.900931,14.5852597 L322.713283,28.9095363 L347.525921,14.5852597 L347.525921,14.5852597 Z" id="Stroke-24" sketch:type="MSShapeGroup"></path>
                <path d="M595.650871,673.488805 L570.83852,659.164815 L546.025881,673.488805 L570.83852,687.812795 L595.650871,673.488805 L595.650871,673.488805 Z M347.525921,272.417082 L322.713283,258.093092 L297.900931,272.417082 L322.713283,286.741072 L347.525921,272.417082 L347.525921,272.417082 Z M570.83852,687.812795 L558.88503,694.71352 L582.791723,694.71352 L570.83852,687.812795 L570.83852,687.812795 Z M558.88503,694.71352 L570.83852,687.812795 L546.025881,673.488805 L521.21353,687.812795 L533.166733,694.71352 L558.88503,694.71352 L558.88503,694.71352 Z M297.900931,71.8815066 L322.713283,57.55723 L297.900931,43.2332399 L273.088293,57.55723 L297.900931,71.8815066 L297.900931,71.8815066 Z M297.900931,186.473141 L273.088293,200.797131 L297.900931,215.121121 L322.713283,200.797131 L297.900931,186.473141 L297.900931,186.473141 Z M297.900931,157.825161 L273.088293,172.149151 L297.900931,186.473141 L322.713283,172.149151 L297.900931,157.825161 L297.900931,157.825161 Z M347.525921,186.473141 L322.713283,172.149151 L297.900931,186.473141 L322.713283,200.797131 L347.525921,186.473141 L347.525921,186.473141 Z M297.900931,215.121121 L273.088293,229.445111 L297.900931,243.769101 L322.713283,229.445111 L297.900931,215.121121 L297.900931,215.121121 Z M297.900931,243.769101 L273.088293,258.093092 L297.900931,272.417082 L322.713283,258.093092 L297.900931,243.769101 L297.900931,243.769101 Z M347.525921,43.2332399 L372.338273,28.9095363 L347.525921,14.5852597 L322.713283,28.9095363 L347.525921,43.2332399 L347.525921,43.2332399 Z M347.525921,215.121121 L322.713283,200.797131 L297.900931,215.121121 L322.713283,229.445111 L347.525921,215.121121 L347.525921,215.121121 Z M297.900931,100.5292 L322.713283,86.2052102 L297.900931,71.8815066 L273.088293,86.2052102 L297.900931,100.5292 L297.900931,100.5292 Z M347.525921,71.8815066 L322.713283,57.55723 L297.900931,71.8815066 L322.713283,86.2052102 L347.525921,71.8815066 L347.525921,71.8815066 Z M347.525921,157.825161 L322.713283,143.501171 L297.900931,157.825161 L322.713283,172.149151 L347.525921,157.825161 L347.525921,157.825161 Z M297.900931,129.177181 L322.713283,114.85319 L297.900931,100.5292 L273.088293,114.85319 L297.900931,129.177181 L297.900931,129.177181 Z M297.900931,157.825161 L322.713283,143.501171 L297.900931,129.177181 L273.088293,143.501171 L297.900931,157.825161 L297.900931,157.825161 Z M347.525921,129.177181 L322.713283,114.85319 L297.900931,129.177181 L322.713283,143.501171 L347.525921,129.177181 L347.525921,129.177181 Z M297.900931,14.5852597 L322.713283,0.26126958 L273.088293,0.26126958 L297.900931,14.5852597 L297.900931,14.5852597 Z M1079.04191,694.71352 L1067.08871,687.812795 L1055.13522,694.71352 L1079.04191,694.71352 L1079.04191,694.71352 Z M397.150911,644.840824 L372.338273,630.516834 L347.525921,644.840824 L372.338273,659.164815 L397.150911,644.840824 L397.150911,644.840824 Z M397.150911,415.656983 L372.338273,401.333279 L347.525921,415.656983 L372.338273,429.980973 L397.150911,415.656983 L397.150911,415.656983 Z" id="Stroke-25" sketch:type="MSShapeGroup"></path>
                <path d="M521.21353,687.812795 L509.26004,694.71352 L533.166733,694.71352 L521.21353,687.812795 L521.21353,687.812795 Z M273.088293,687.812795 L261.13509,694.71352 L285.041783,694.71352 L273.088293,687.812795 L273.088293,687.812795 Z M496.400891,157.825161 L521.21353,143.501171 L496.400891,129.177181 L471.588253,143.501171 L496.400891,157.825161 L496.400891,157.825161 Z M546.025881,129.177181 L521.21353,114.85319 L496.400891,129.177181 L521.21353,143.501171 L546.025881,129.177181 L546.025881,129.177181 Z M546.025881,157.825161 L521.21353,143.501171 L496.400891,157.825161 L521.21353,172.149151 L546.025881,157.825161 L546.025881,157.825161 Z M496.400891,129.177181 L521.21353,114.85319 L496.400891,100.5292 L471.588253,114.85319 L496.400891,129.177181 L496.400891,129.177181 Z M496.400891,215.121121 L521.21353,200.797131 L496.400891,186.473141 L471.588253,200.797131 L496.400891,215.121121 L496.400891,215.121121 Z M546.025881,186.473141 L521.21353,172.149151 L496.400891,186.473141 L521.21353,200.797131 L546.025881,186.473141 L546.025881,186.473141 Z M496.400891,14.5852597 L521.21353,0.26126958 L471.58854,0.26126958 L496.400891,14.5852597 L496.400891,14.5852597 Z M496.400891,71.8815066 L521.21353,57.55723 L496.400891,43.2332399 L471.588253,57.55723 L496.400891,71.8815066 L496.400891,71.8815066 Z M496.400891,43.2332399 L521.21353,28.9095363 L496.400891,14.5852597 L471.588253,28.9095363 L496.400891,43.2332399 L496.400891,43.2332399 Z M546.025881,100.5292 L521.21353,86.2052102 L496.400891,100.5292 L521.21353,114.85319 L546.025881,100.5292 L546.025881,100.5292 Z M546.025881,43.2332399 L521.21353,28.9095363 L496.400891,43.2332399 L521.21353,57.55723 L546.025881,43.2332399 L546.025881,43.2332399 Z M546.025881,14.5852597 L521.21353,0.26126958 L496.400891,14.5852597 L521.21353,28.9095363 L546.025881,14.5852597 L546.025881,14.5852597 Z M496.400891,100.5292 L521.21353,86.2052102 L496.400891,71.8815066 L471.588253,86.2052102 L496.400891,100.5292 L496.400891,100.5292 Z M546.025881,71.8815066 L521.21353,57.55723 L496.400891,71.8815066 L521.21353,86.2052102 L546.025881,71.8815066 L546.025881,71.8815066 Z M546.025881,215.121121 L521.21353,200.797131 L496.400891,215.121121 L521.21353,229.445111 L546.025881,215.121121 L546.025881,215.121121 Z M546.025881,415.656983 L521.21353,401.333279 L496.400891,415.656983 L521.21353,429.980973 L546.025881,415.656983 L546.025881,415.656983 Z M496.400891,358.361022 L471.588253,372.685012 L496.400891,387.009002 L521.21353,372.685012 L496.400891,358.361022 L496.400891,358.361022 Z M546.025881,387.009002 L521.21353,372.685012 L496.400891,387.009002 L521.21353,401.333279 L546.025881,387.009002 L546.025881,387.009002 Z M546.025881,358.361022 L521.21353,344.037032 L496.400891,358.361022 L521.21353,372.685012 L546.025881,358.361022 L546.025881,358.361022 Z M496.400891,387.009002 L471.588253,401.333279 L496.400891,415.656983 L521.21353,401.333279 L496.400891,387.009002 L496.400891,387.009002 Z" id="Stroke-32" sketch:type="MSShapeGroup"></path>
                <path d="M496.400891,415.656983 L471.588253,429.980973 L496.400891,444.305249 L521.21353,429.980973 L496.400891,415.656983 L496.400891,415.656983 Z M546.025881,444.305249 L521.21353,429.980973 L496.400891,444.305249 L521.21353,458.628953 L546.025881,444.305249 L546.025881,444.305249 Z M496.400891,329.713042 L471.588253,344.037032 L496.400891,358.361022 L521.21353,344.037032 L496.400891,329.713042 L496.400891,329.713042 Z M496.400891,301.065062 L471.588253,315.389052 L496.400891,329.713042 L521.21353,315.389052 L496.400891,301.065062 L496.400891,301.065062 Z M496.400891,272.417082 L521.21353,258.093092 L496.400891,243.769101 L471.588253,258.093092 L496.400891,272.417082 L496.400891,272.417082 Z M546.025881,272.417082 L521.21353,258.093092 L496.400891,272.417082 L521.21353,286.741072 L546.025881,272.417082 L546.025881,272.417082 Z M546.025881,243.769101 L521.21353,229.445111 L496.400891,243.769101 L521.21353,258.093092 L546.025881,243.769101 L546.025881,243.769101 Z M546.025881,301.065062 L521.21353,286.741072 L496.400891,301.065062 L521.21353,315.389052 L546.025881,301.065062 L546.025881,301.065062 Z M496.400891,243.769101 L521.21353,229.445111 L496.400891,215.121121 L471.588253,229.445111 L496.400891,243.769101 L496.400891,243.769101 Z M496.400891,272.417082 L471.588253,286.741072 L496.400891,301.065062 L521.21353,286.741072 L496.400891,272.417082 L496.400891,272.417082 Z M546.025881,329.713042 L521.21353,315.389052 L496.400891,329.713042 L521.21353,344.037032 L546.025881,329.713042 L546.025881,329.713042 Z M496.400891,186.473141 L521.21353,172.149151 L496.400891,157.825161 L471.588253,172.149151 L496.400891,186.473141 L496.400891,186.473141 Z M297.900931,415.656983 L273.088293,401.333279 L248.275941,415.656983 L273.088293,429.980973 L297.900931,415.656983 L297.900931,415.656983 Z M297.900931,387.009002 L273.088293,372.685012 L248.275941,387.009002 L273.088293,401.333279 L297.900931,387.009002 L297.900931,387.009002 Z M248.275941,387.009002 L223.463303,401.333279 L248.275941,415.656983 L273.088293,401.333279 L248.275941,387.009002 L248.275941,387.009002 Z M248.275941,358.361022 L223.463303,372.685012 L248.275941,387.009002 L273.088293,372.685012 L248.275941,358.361022 L248.275941,358.361022 Z M297.900931,358.361022 L273.088293,344.037032 L248.275941,358.361022 L273.088293,372.685012 L297.900931,358.361022 L297.900931,358.361022 Z M248.275941,444.305249 L223.463303,458.628953 L248.275941,472.952943 L273.088293,458.628953 L248.275941,444.305249 L248.275941,444.305249 Z M248.275941,415.656983 L223.463303,429.980973 L248.275941,444.305249 L273.088293,429.980973 L248.275941,415.656983 L248.275941,415.656983 Z M297.900931,472.952943 L273.088293,458.628953 L248.275941,472.952943 L273.088293,487.27722 L297.900931,472.952943 L297.900931,472.952943 Z M297.900931,444.305249 L273.088293,429.980973 L248.275941,444.305249 L273.088293,458.628953 L297.900931,444.305249 L297.900931,444.305249 Z M248.275941,329.713042 L223.463303,344.037032 L248.275941,358.361022 L273.088293,344.037032 L248.275941,329.713042 L248.275941,329.713042 Z" id="Stroke-33" sketch:type="MSShapeGroup"></path>
                <path d="M1042.27607,43.2332399 L1067.08871,28.9095363 L1042.27607,14.5852597 L1017.46343,28.9095363 L1042.27607,43.2332399 L1042.27607,43.2332399 Z M1042.27607,14.5852597 L1067.08871,0.26126958 L1017.46343,0.26126958 L1042.27607,14.5852597 L1042.27607,14.5852597 Z M1042.27607,14.5852597 L1017.46343,0.26126958 L992.651078,14.5852597 L1017.46343,28.9095363 L1042.27607,14.5852597 L1042.27607,14.5852597 Z M1042.27607,43.2332399 L1017.46343,28.9095363 L992.651078,43.2332399 L1017.46343,57.55723 L1042.27607,43.2332399 L1042.27607,43.2332399 Z M1042.27607,71.8815066 L1067.08871,57.55723 L1042.27607,43.2332399 L1017.46343,57.55723 L1042.27607,71.8815066 L1042.27607,71.8815066 Z M943.026088,673.488805 L967.83844,659.164815 L943.026088,644.840824 L918.21345,659.164815 L943.026088,673.488805 L943.026088,673.488805 Z M248.275941,14.5852597 L273.088293,0.26126958 L223.463303,0.26126958 L248.275941,14.5852597 L248.275941,14.5852597 Z M248.275941,215.121121 L223.463303,229.445111 L248.275941,243.769101 L273.088293,229.445111 L248.275941,215.121121 L248.275941,215.121121 Z M893.401098,673.488805 L918.21345,687.812795 L943.026088,673.488805 L918.21345,659.164815 L893.401098,673.488805 L893.401098,673.488805 Z M930.16694,694.71352 L918.21345,687.812795 L906.260247,694.71352 L930.16694,694.71352 L930.16694,694.71352 Z M930.16694,694.71352 L955.885237,694.71352 L967.83844,687.812795 L943.026088,673.488805 L918.21345,687.812795 L930.16694,694.71352 L930.16694,694.71352 Z M297.900931,157.825161 L273.088293,143.501171 L248.275941,157.825161 L273.088293,172.149151 L297.900931,157.825161 L297.900931,157.825161 Z M297.900931,129.177181 L273.088293,114.85319 L248.275941,129.177181 L273.088293,143.501171 L297.900931,129.177181 L297.900931,129.177181 Z M248.275941,157.825161 L223.463303,172.149151 L248.275941,186.473141 L273.088293,172.149151 L248.275941,157.825161 L248.275941,157.825161 Z M248.275941,129.177181 L223.463303,143.501171 L248.275941,157.825161 L273.088293,143.501171 L248.275941,129.177181 L248.275941,129.177181 Z M297.900931,186.473141 L273.088293,172.149151 L248.275941,186.473141 L273.088293,200.797131 L297.900931,186.473141 L297.900931,186.473141 Z M297.900931,14.5852597 L273.088293,0.26126958 L248.275941,14.5852597 L273.088293,28.9095363 L297.900931,14.5852597 L297.900931,14.5852597 Z M248.275941,186.473141 L223.463303,200.797131 L248.275941,215.121121 L273.088293,200.797131 L248.275941,186.473141 L248.275941,186.473141 Z M297.900931,215.121121 L273.088293,200.797131 L248.275941,215.121121 L273.088293,229.445111 L297.900931,215.121121 L297.900931,215.121121 Z M297.900931,43.2332399 L273.088293,28.9095363 L248.275941,43.2332399 L273.088293,57.55723 L297.900931,43.2332399 L297.900931,43.2332399 Z M248.275941,43.2332399 L273.088293,28.9095363 L248.275941,14.5852597 L223.463303,28.9095363 L248.275941,43.2332399 L248.275941,43.2332399 Z" id="Stroke-35" sketch:type="MSShapeGroup"></path>
                <path d="M248.275941,71.8815066 L273.088293,57.55723 L248.275941,43.2332399 L223.463303,57.55723 L248.275941,71.8815066 L248.275941,71.8815066 Z M297.900931,100.5292 L273.088293,86.2052102 L248.275941,100.5292 L273.088293,114.85319 L297.900931,100.5292 L297.900931,100.5292 Z M248.275941,129.177181 L273.088293,114.85319 L248.275941,100.5292 L223.463303,114.85319 L248.275941,129.177181 L248.275941,129.177181 Z M248.275941,100.5292 L273.088293,86.2052102 L248.275941,71.8815066 L223.463303,86.2052102 L248.275941,100.5292 L248.275941,100.5292 Z M297.900931,71.8815066 L273.088293,57.55723 L248.275941,71.8815066 L273.088293,86.2052102 L297.900931,71.8815066 L297.900931,71.8815066 Z M1091.90106,530.24919 L1116.7137,544.572894 L1141.52605,530.24919 L1116.7137,515.924913 L1091.90106,530.24919 L1091.90106,530.24919 Z M1091.90106,243.769101 L1116.7137,258.093092 L1141.52605,243.769101 L1116.7137,229.445111 L1091.90106,243.769101 L1091.90106,243.769101 Z M1141.52605,558.896884 L1166.33869,544.572894 L1141.52605,530.24919 L1116.7137,544.572894 L1141.52605,558.896884 L1141.52605,558.896884 Z M1141.52605,587.544864 L1166.33869,573.22116 L1141.52605,558.896884 L1116.7137,573.22116 L1141.52605,587.544864 L1141.52605,587.544864 Z M1141.52605,501.600923 L1166.33869,487.27722 L1141.52605,472.952943 L1116.7137,487.27722 L1141.52605,501.600923 L1141.52605,501.600923 Z M1091.90106,587.544864 L1116.7137,601.868854 L1141.52605,587.544864 L1116.7137,573.22116 L1091.90106,587.544864 L1091.90106,587.544864 Z M1141.52605,530.24919 L1166.33869,515.924913 L1141.52605,501.600923 L1116.7137,515.924913 L1141.52605,530.24919 L1141.52605,530.24919 Z M1091.90106,501.600923 L1116.7137,515.924913 L1141.52605,501.600923 L1116.7137,487.27722 L1091.90106,501.600923 L1091.90106,501.600923 Z M1141.52605,673.488805 L1166.33869,659.164815 L1141.52605,644.840824 L1116.7137,659.164815 L1141.52605,673.488805 L1141.52605,673.488805 Z M1128.6669,694.71352 L1116.7137,687.812795 L1104.76021,694.71352 L1128.6669,694.71352 L1128.6669,694.71352 Z M1091.90106,472.952943 L1116.7137,487.27722 L1141.52605,472.952943 L1116.7137,458.628953 L1091.90106,472.952943 L1091.90106,472.952943 Z M1128.6669,694.71352 L1154.3852,694.71352 L1166.33869,687.812795 L1141.52605,673.488805 L1116.7137,687.812795 L1128.6669,694.71352 L1128.6669,694.71352 Z M1141.52605,616.192844 L1166.33869,601.868854 L1141.52605,587.544864 L1116.7137,601.868854 L1141.52605,616.192844 L1141.52605,616.192844 Z M1091.90106,644.840824 L1116.7137,659.164815 L1141.52605,644.840824 L1116.7137,630.516834 L1091.90106,644.840824 L1091.90106,644.840824 Z M1091.90106,616.192844 L1116.7137,630.516834 L1141.52605,616.192844 L1116.7137,601.868854 L1091.90106,616.192844 L1091.90106,616.192844 Z M1141.52605,644.840824 L1166.33869,630.516834 L1141.52605,616.192844 L1116.7137,630.516834 L1141.52605,644.840824 L1141.52605,644.840824 Z M1091.90106,673.488805 L1116.7137,687.812795 L1141.52605,673.488805 L1116.7137,659.164815 L1091.90106,673.488805 L1091.90106,673.488805 Z" id="Stroke-36" sketch:type="MSShapeGroup"></path>
                <path d="M546.025881,501.600923 L521.21353,515.924913 L546.025881,530.24919 L570.83852,515.924913 L546.025881,501.600923 L546.025881,501.600923 Z M595.650871,530.24919 L570.83852,515.924913 L546.025881,530.24919 L570.83852,544.572894 L595.650871,530.24919 L595.650871,530.24919 Z M595.650871,444.305249 L570.83852,429.980973 L546.025881,444.305249 L570.83852,458.628953 L595.650871,444.305249 L595.650871,444.305249 Z M546.025881,444.305249 L521.21353,458.628953 L546.025881,472.952943 L570.83852,458.628953 L546.025881,444.305249 L546.025881,444.305249 Z M1141.52605,243.769101 L1166.33869,229.445111 L1141.52605,215.121121 L1116.7137,229.445111 L1141.52605,243.769101 L1141.52605,243.769101 Z M546.025881,558.896884 L521.21353,573.22116 L546.025881,587.544864 L570.83852,573.22116 L546.025881,558.896884 L546.025881,558.896884 Z M595.650871,616.192844 L570.83852,601.868854 L546.025881,616.192844 L570.83852,630.516834 L595.650871,616.192844 L595.650871,616.192844 Z M546.025881,587.544864 L521.21353,601.868854 L546.025881,616.192844 L570.83852,601.868854 L546.025881,587.544864 L546.025881,587.544864 Z M1141.52605,14.5852597 L1166.33869,0.26126958 L1116.7137,0.26126958 L1141.52605,14.5852597 L1141.52605,14.5852597 Z M595.650871,587.544864 L570.83852,573.22116 L546.025881,587.544864 L570.83852,601.868854 L595.650871,587.544864 L595.650871,587.544864 Z M546.025881,415.656983 L521.21353,429.980973 L546.025881,444.305249 L570.83852,429.980973 L546.025881,415.656983 L546.025881,415.656983 Z M546.025881,530.24919 L521.21353,544.572894 L546.025881,558.896884 L570.83852,544.572894 L546.025881,530.24919 L546.025881,530.24919 Z M843.776108,71.8815066 L868.58846,57.55723 L843.776108,43.2332399 L818.96347,57.55723 L843.776108,71.8815066 L843.776108,71.8815066 Z M49.7756944,186.473141 L24.9633426,200.797131 L49.7756944,215.121121 L74.5883327,200.797131 L49.7756944,186.473141 L49.7756944,186.473141 Z M49.7756944,644.840824 L24.9633426,659.164815 L49.7756944,673.488805 L74.5883327,659.164815 L49.7756944,644.840824 L49.7756944,644.840824 Z M62.6351293,694.71352 L74.5883327,687.812795 L49.7756944,673.488805 L24.9633426,687.812795 L36.9168325,694.71352 L62.6351293,694.71352 L62.6351293,694.71352 Z M99.400971,673.488805 L74.5883327,659.164815 L49.7756944,673.488805 L74.5883327,687.812795 L99.400971,673.488805 L99.400971,673.488805 Z M74.5883327,687.812795 L62.6351293,694.71352 L86.541536,694.71352 L74.5883327,687.812795 L74.5883327,687.812795 Z M99.400971,644.840824 L74.5883327,630.516834 L49.7756944,644.840824 L74.5883327,659.164815 L99.400971,644.840824 L99.400971,644.840824 Z M49.7756944,358.361022 L24.9633426,372.685012 L49.7756944,387.009002 L74.5883327,372.685012 L49.7756944,358.361022 L49.7756944,358.361022 Z M49.7756944,329.713042 L24.9633426,344.037032 L49.7756944,358.361022 L74.5883327,344.037032 L49.7756944,329.713042 L49.7756944,329.713042 Z" id="Stroke-41" sketch:type="MSShapeGroup"></path>
                <path d="M1389.65129,329.713042 L1414.46364,315.389052 L1389.65129,301.065062 L1364.83865,315.389052 L1389.65129,329.713042 L1389.65129,329.713042 Z M1389.65129,301.065062 L1414.46364,286.741072 L1389.65129,272.417082 L1364.83865,286.741072 L1389.65129,301.065062 L1389.65129,301.065062 Z M1340.02601,301.065062 L1364.83865,315.389052 L1389.65129,301.065062 L1364.83865,286.741072 L1340.02601,301.065062 L1340.02601,301.065062 Z M1340.02601,272.417082 L1364.83865,286.741072 L1389.65129,272.417082 L1364.83865,258.093092 L1340.02601,272.417082 L1340.02601,272.417082 Z M1389.65129,272.417082 L1414.46364,258.093092 L1389.65129,243.769101 L1364.83865,258.093092 L1389.65129,272.417082 L1389.65129,272.417082 Z M1389.65129,243.769101 L1414.46364,229.445111 L1389.65129,215.121121 L1364.83865,229.445111 L1389.65129,243.769101 L1389.65129,243.769101 Z M1340.02601,243.769101 L1364.83865,258.093092 L1389.65129,243.769101 L1364.83865,229.445111 L1340.02601,243.769101 L1340.02601,243.769101 Z M1340.02601,358.361022 L1364.83865,372.685012 L1389.65129,358.361022 L1364.83865,344.037032 L1340.02601,358.361022 L1340.02601,358.361022 Z M1389.65129,415.656983 L1414.46364,401.333279 L1389.65129,387.009002 L1364.83865,401.333279 L1389.65129,415.656983 L1389.65129,415.656983 Z M1340.02601,387.009002 L1364.83865,401.333279 L1389.65129,387.009002 L1364.83865,372.685012 L1340.02601,387.009002 L1340.02601,387.009002 Z M1340.02601,415.656983 L1364.83865,429.980973 L1389.65129,415.656983 L1364.83865,401.333279 L1340.02601,415.656983 L1340.02601,415.656983 Z M1389.65129,387.009002 L1414.46364,372.685012 L1389.65129,358.361022 L1364.83865,372.685012 L1389.65129,387.009002 L1389.65129,387.009002 Z M1389.65129,358.361022 L1414.46364,344.037032 L1389.65129,329.713042 L1364.83865,344.037032 L1389.65129,358.361022 L1389.65129,358.361022 Z M1389.65129,444.305249 L1414.46364,429.980973 L1389.65129,415.656983 L1364.83865,429.980973 L1389.65129,444.305249 L1389.65129,444.305249 Z M1340.02601,329.713042 L1364.83865,344.037032 L1389.65129,329.713042 L1364.83865,315.389052 L1340.02601,329.713042 L1340.02601,329.713042 Z M1340.02601,673.488805 L1364.83865,687.812795 L1389.65129,673.488805 L1364.83865,659.164815 L1340.02601,673.488805 L1340.02601,673.488805 Z M1376.79214,694.71352 L1402.51015,694.71352 L1414.46364,687.812795 L1389.65129,673.488805 L1364.83865,687.812795 L1376.79214,694.71352 L1376.79214,694.71352 Z M1376.79214,694.71352 L1364.83865,687.812795 L1352.88516,694.71352 L1376.79214,694.71352 L1376.79214,694.71352 Z M992.651078,215.121121 L967.83844,200.797131 L943.026088,215.121121 L967.83844,229.445111 L992.651078,215.121121 L992.651078,215.121121 Z M99.400971,186.473141 L74.5883327,172.149151 L49.7756944,186.473141 L74.5883327,200.797131 L99.400971,186.473141 L99.400971,186.473141 Z M694.900852,472.952943 L670.0885,487.27722 L694.900852,501.600923 L719.71349,487.27722 L694.900852,472.952943 L694.900852,472.952943 Z M694.900852,444.305249 L670.0885,458.628953 L694.900852,472.952943 L719.71349,458.628953 L694.900852,444.305249 L694.900852,444.305249 Z" id="Stroke-44" sketch:type="MSShapeGroup"></path>
                <path d="M992.651078,558.896884 L1017.46343,544.572894 L992.651078,530.24919 L967.83844,544.572894 L992.651078,558.896884 L992.651078,558.896884 Z M943.026088,558.896884 L967.83844,573.22116 L992.651078,558.896884 L967.83844,544.572894 L943.026088,558.896884 L943.026088,558.896884 Z M943.026088,587.544864 L967.83844,601.868854 L992.651078,587.544864 L967.83844,573.22116 L943.026088,587.544864 L943.026088,587.544864 Z M992.651078,587.544864 L1017.46343,573.22116 L992.651078,558.896884 L967.83844,573.22116 L992.651078,587.544864 L992.651078,587.544864 Z M49.7756944,100.5292 L24.9633426,114.85319 L49.7756944,129.177181 L74.5883327,114.85319 L49.7756944,100.5292 L49.7756944,100.5292 Z M99.400971,100.5292 L74.5883327,86.2052102 L49.7756944,100.5292 L74.5883327,114.85319 L99.400971,100.5292 L99.400971,100.5292 Z M992.651078,71.8815066 L1017.46343,57.55723 L992.651078,43.2332399 L967.83844,57.55723 L992.651078,71.8815066 L992.651078,71.8815066 Z M49.7756944,71.8815066 L24.9633426,86.2052102 L49.7756944,100.5292 L74.5883327,86.2052102 L49.7756944,71.8815066 L49.7756944,71.8815066 Z M49.7756944,157.825161 L24.9633426,172.149151 L49.7756944,186.473141 L74.5883327,172.149151 L49.7756944,157.825161 L49.7756944,157.825161 Z M49.7756944,129.177181 L24.9633426,143.501171 L49.7756944,157.825161 L74.5883327,143.501171 L49.7756944,129.177181 L49.7756944,129.177181 Z M99.400971,157.825161 L74.5883327,143.501171 L49.7756944,157.825161 L74.5883327,172.149151 L99.400971,157.825161 L99.400971,157.825161 Z M49.7756944,14.5852597 L24.9633426,28.9095363 L49.7756944,43.2332399 L74.5883327,28.9095363 L49.7756944,14.5852597 L49.7756944,14.5852597 Z M99.400971,14.5852597 L74.5883327,0.26126958 L49.7756944,14.5852597 L74.5883327,28.9095363 L99.400971,14.5852597 L99.400971,14.5852597 Z M943.026088,501.600923 L967.83844,515.924913 L992.651078,501.600923 L967.83844,487.27722 L943.026088,501.600923 L943.026088,501.600923 Z M49.7756944,14.5852597 L74.5883327,0.26126958 L24.9633426,0.26126958 L49.7756944,14.5852597 L49.7756944,14.5852597 Z M99.400971,71.8815066 L74.5883327,57.55723 L49.7756944,71.8815066 L74.5883327,86.2052102 L99.400971,71.8815066 L99.400971,71.8815066 Z M99.400971,43.2332399 L74.5883327,28.9095363 L49.7756944,43.2332399 L74.5883327,57.55723 L99.400971,43.2332399 L99.400971,43.2332399 Z M744.525842,530.24919 L769.33848,544.572894 L794.151118,530.24919 L769.33848,515.924913 L744.525842,530.24919 L744.525842,530.24919 Z M99.400971,129.177181 L74.5883327,114.85319 L49.7756944,129.177181 L74.5883327,143.501171 L99.400971,129.177181 L99.400971,129.177181 Z M992.651078,215.121121 L1017.46343,200.797131 L992.651078,186.473141 L967.83844,200.797131 L992.651078,215.121121 L992.651078,215.121121 Z M992.651078,186.473141 L1017.46343,172.149151 L992.651078,157.825161 L967.83844,172.149151 L992.651078,186.473141 L992.651078,186.473141 Z" id="Stroke-48" sketch:type="MSShapeGroup"></path>
                <path d="M992.651078,329.713042 L1017.46343,315.389052 L992.651078,301.065062 L967.83844,315.389052 L992.651078,329.713042 L992.651078,329.713042 Z M943.026088,301.065062 L967.83844,315.389052 L992.651078,301.065062 L967.83844,286.741072 L943.026088,301.065062 L943.026088,301.065062 Z M992.651078,301.065062 L1017.46343,286.741072 L992.651078,272.417082 L967.83844,286.741072 L992.651078,301.065062 L992.651078,301.065062 Z M943.026088,358.361022 L967.83844,372.685012 L992.651078,358.361022 L967.83844,344.037032 L943.026088,358.361022 L943.026088,358.361022 Z M992.651078,358.361022 L1017.46343,344.037032 L992.651078,329.713042 L967.83844,344.037032 L992.651078,358.361022 L992.651078,358.361022 Z M446.775901,186.473141 L471.588253,172.149151 L446.775901,157.825161 L421.96355,172.149151 L446.775901,186.473141 L446.775901,186.473141 Z M49.7756944,644.840824 L24.9633426,630.516834 L0.150704337,644.840824 L24.9633426,659.164815 L49.7756944,644.840824 L49.7756944,644.840824 Z M49.7756944,616.192844 L24.9633426,601.868854 L0.150704337,616.192844 L24.9633426,630.516834 L49.7756944,616.192844 L49.7756944,616.192844 Z M24.9633426,687.812795 L13.0098528,694.71352 L36.9168325,694.71352 L24.9633426,687.812795 L24.9633426,687.812795 Z M49.7756944,673.488805 L24.9633426,659.164815 L0.150704337,673.488805 L24.9633426,687.812795 L49.7756944,673.488805 L49.7756944,673.488805 Z M49.7756944,530.24919 L24.9633426,515.924913 L0.150704337,530.24919 L24.9633426,544.572894 L49.7756944,530.24919 L49.7756944,530.24919 Z M49.7756944,558.896884 L24.9633426,544.572894 L0.150704337,558.896884 L24.9633426,573.22116 L49.7756944,558.896884 L49.7756944,558.896884 Z M49.7756944,587.544864 L24.9633426,573.22116 L0.150704337,587.544864 L24.9633426,601.868854 L49.7756944,587.544864 L49.7756944,587.544864 Z M1389.65129,272.417082 L1414.46364,286.741072 L1439.27628,272.417082 L1414.46364,258.093092 L1389.65129,272.417082 L1389.65129,272.417082 Z M1389.65129,215.121121 L1414.46364,229.445111 L1439.27628,215.121121 L1414.46364,200.797131 L1389.65129,215.121121 L1389.65129,215.121121 Z M1389.65129,301.065062 L1414.46364,315.389052 L1439.27628,301.065062 L1414.46364,286.741072 L1389.65129,301.065062 L1389.65129,301.065062 Z M1389.65129,243.769101 L1414.46364,258.093092 L1439.27628,243.769101 L1414.46364,229.445111 L1389.65129,243.769101 L1389.65129,243.769101 Z M1389.65129,387.009002 L1414.46364,401.333279 L1439.27628,387.009002 L1414.46364,372.685012 L1389.65129,387.009002 L1389.65129,387.009002 Z M1389.65129,358.361022 L1414.46364,372.685012 L1439.27628,358.361022 L1414.46364,344.037032 L1389.65129,358.361022 L1389.65129,358.361022 Z M1389.65129,329.713042 L1414.46364,344.037032 L1439.27628,329.713042 L1414.46364,315.389052 L1389.65129,329.713042 L1389.65129,329.713042 Z M1389.65129,71.8815066 L1414.46364,86.2052102 L1439.27628,71.8815066 L1414.46364,57.55723 L1389.65129,71.8815066 L1389.65129,71.8815066 Z M1389.65129,43.2332399 L1414.46364,57.55723 L1439.27628,43.2332399 L1414.46364,28.9095363 L1389.65129,43.2332399 L1389.65129,43.2332399 Z" id="Stroke-51" sketch:type="MSShapeGroup"></path>
                <path d="M1389.65129,415.656983 L1414.46364,429.980973 L1439.27628,415.656983 L1414.46364,401.333279 L1389.65129,415.656983 L1389.65129,415.656983 Z M1389.65129,14.5852597 L1414.46364,28.9095363 L1439.27628,14.5852597 L1414.46364,0.26126958 L1389.65129,14.5852597 L1389.65129,14.5852597 Z M1389.65129,157.825161 L1414.46364,172.149151 L1439.27628,157.825161 L1414.46364,143.501171 L1389.65129,157.825161 L1389.65129,157.825161 Z M1389.65129,186.473141 L1414.46364,200.797131 L1439.27628,186.473141 L1414.46364,172.149151 L1389.65129,186.473141 L1389.65129,186.473141 Z M1389.65129,100.5292 L1414.46364,114.85319 L1439.27628,100.5292 L1414.46364,86.2052102 L1389.65129,100.5292 L1389.65129,100.5292 Z M1389.65129,129.177181 L1414.46364,143.501171 L1439.27628,129.177181 L1414.46364,114.85319 L1389.65129,129.177181 L1389.65129,129.177181 Z M1426.41713,694.71352 L1414.46364,687.812795 L1402.51015,694.71352 L1426.41713,694.71352 L1426.41713,694.71352 Z M49.7756944,501.600923 L24.9633426,487.27722 L0.150704337,501.600923 L24.9633426,515.924913 L49.7756944,501.600923 L49.7756944,501.600923 Z M1389.65129,673.488805 L1414.46364,687.812795 L1439.27628,673.488805 L1414.46364,659.164815 L1389.65129,673.488805 L1389.65129,673.488805 Z M1389.65129,644.840824 L1414.46364,659.164815 L1439.27628,644.840824 L1414.46364,630.516834 L1389.65129,644.840824 L1389.65129,644.840824 Z M1389.65129,501.600923 L1414.46364,515.924913 L1439.27628,501.600923 L1414.46364,487.27722 L1389.65129,501.600923 L1389.65129,501.600923 Z M1389.65129,472.952943 L1414.46364,487.27722 L1439.27628,472.952943 L1414.46364,458.628953 L1389.65129,472.952943 L1389.65129,472.952943 Z M1389.65129,530.24919 L1414.46364,544.572894 L1439.27628,530.24919 L1414.46364,515.924913 L1389.65129,530.24919 L1389.65129,530.24919 Z M1389.65129,444.305249 L1414.46364,458.628953 L1439.27628,444.305249 L1414.46364,429.980973 L1389.65129,444.305249 L1389.65129,444.305249 Z M1389.65129,587.544864 L1414.46364,601.868854 L1439.27628,587.544864 L1414.46364,573.22116 L1389.65129,587.544864 L1389.65129,587.544864 Z M1389.65129,616.192844 L1414.46364,630.516834 L1439.27628,616.192844 L1414.46364,601.868854 L1389.65129,616.192844 L1389.65129,616.192844 Z M1389.65129,558.896884 L1414.46364,573.22116 L1439.27628,558.896884 L1414.46364,544.572894 L1389.65129,558.896884 L1389.65129,558.896884 Z M496.400891,644.840824 L471.588253,630.516834 L446.775901,644.840824 L471.588253,659.164815 L496.400891,644.840824 L496.400891,644.840824 Z M446.775901,644.840824 L421.96355,659.164815 L446.775901,673.488805 L471.588253,659.164815 L446.775901,644.840824 L446.775901,644.840824 Z M496.400891,673.488805 L471.588253,659.164815 L446.775901,673.488805 L471.588253,687.812795 L496.400891,673.488805 L496.400891,673.488805 Z M496.400891,358.361022 L471.588253,344.037032 L446.775901,358.361022 L471.588253,372.685012 L496.400891,358.361022 L496.400891,358.361022 Z M446.775901,587.544864 L421.96355,601.868854 L446.775901,616.192844 L471.588253,601.868854 L446.775901,587.544864 L446.775901,587.544864 Z" id="Stroke-52" sketch:type="MSShapeGroup"></path>
                <path d="M1340.02601,71.8815066 L1364.83865,86.2052102 L1389.65129,71.8815066 L1364.83865,57.55723 L1340.02601,71.8815066 L1340.02601,71.8815066 Z M1389.65129,14.5852597 L1364.83865,0.26126958 L1340.02601,14.5852597 L1364.83865,28.9095363 L1389.65129,14.5852597 L1389.65129,14.5852597 Z M1389.65129,14.5852597 L1414.46364,0.26126958 L1364.83865,0.26126958 L1389.65129,14.5852597 L1389.65129,14.5852597 Z M1389.65129,43.2332399 L1414.46364,28.9095363 L1389.65129,14.5852597 L1364.83865,28.9095363 L1389.65129,43.2332399 L1389.65129,43.2332399 Z M1389.65129,100.5292 L1414.46364,86.2052102 L1389.65129,71.8815066 L1364.83865,86.2052102 L1389.65129,100.5292 L1389.65129,100.5292 Z M1340.02601,129.177181 L1364.83865,143.501171 L1389.65129,129.177181 L1364.83865,114.85319 L1340.02601,129.177181 L1340.02601,129.177181 Z M1389.65129,186.473141 L1414.46364,172.149151 L1389.65129,157.825161 L1364.83865,172.149151 L1389.65129,186.473141 L1389.65129,186.473141 Z M1340.02601,157.825161 L1364.83865,172.149151 L1389.65129,157.825161 L1364.83865,143.501171 L1340.02601,157.825161 L1340.02601,157.825161 Z M1340.02601,100.5292 L1364.83865,114.85319 L1389.65129,100.5292 L1364.83865,86.2052102 L1340.02601,100.5292 L1340.02601,100.5292 Z M1340.02601,186.473141 L1364.83865,200.797131 L1389.65129,186.473141 L1364.83865,172.149151 L1340.02601,186.473141 L1340.02601,186.473141 Z M1389.65129,129.177181 L1414.46364,114.85319 L1389.65129,100.5292 L1364.83865,114.85319 L1389.65129,129.177181 L1389.65129,129.177181 Z M1389.65129,215.121121 L1414.46364,200.797131 L1389.65129,186.473141 L1364.83865,200.797131 L1389.65129,215.121121 L1389.65129,215.121121 Z M1389.65129,157.825161 L1414.46364,143.501171 L1389.65129,129.177181 L1364.83865,143.501171 L1389.65129,157.825161 L1389.65129,157.825161 Z M49.7756944,215.121121 L24.9633426,200.797131 L0.150704337,215.121121 L24.9633426,229.445111 L49.7756944,215.121121 L49.7756944,215.121121 Z M446.775901,329.713042 L421.96355,344.037032 L446.775901,358.361022 L471.588253,344.037032 L446.775901,329.713042 L446.775901,329.713042 Z M49.7756944,243.769101 L24.9633426,229.445111 L0.150704337,243.769101 L24.9633426,258.093092 L49.7756944,243.769101 L49.7756944,243.769101 Z M49.7756944,157.825161 L24.9633426,143.501171 L0.150704337,157.825161 L24.9633426,172.149151 L49.7756944,157.825161 L49.7756944,157.825161 Z M49.7756944,71.8815066 L24.9633426,57.55723 L0.150704337,71.8815066 L24.9633426,86.2052102 L49.7756944,71.8815066 L49.7756944,71.8815066 Z M49.7756944,100.5292 L24.9633426,86.2052102 L0.150704337,100.5292 L24.9633426,114.85319 L49.7756944,100.5292 L49.7756944,100.5292 Z M49.7756944,272.417082 L24.9633426,258.093092 L0.150704337,272.417082 L24.9633426,286.741072 L49.7756944,272.417082 L49.7756944,272.417082 Z M49.7756944,129.177181 L24.9633426,114.85319 L0.150704337,129.177181 L24.9633426,143.501171 L49.7756944,129.177181 L49.7756944,129.177181 Z M49.7756944,415.656983 L24.9633426,401.333279 L0.150704337,415.656983 L24.9633426,429.980973 L49.7756944,415.656983 L49.7756944,415.656983 Z" id="Stroke-54" sketch:type="MSShapeGroup"></path>
                <path d="M49.7756944,444.305249 L24.9633426,429.980973 L0.150704337,444.305249 L24.9633426,458.628953 L49.7756944,444.305249 L49.7756944,444.305249 Z M49.7756944,472.952943 L24.9633426,458.628953 L0.150704337,472.952943 L24.9633426,487.27722 L49.7756944,472.952943 L49.7756944,472.952943 Z M49.7756944,387.009002 L24.9633426,372.685012 L0.150704337,387.009002 L24.9633426,401.333279 L49.7756944,387.009002 L49.7756944,387.009002 Z M49.7756944,301.065062 L24.9633426,286.741072 L0.150704337,301.065062 L24.9633426,315.389052 L49.7756944,301.065062 L49.7756944,301.065062 Z M49.7756944,329.713042 L24.9633426,315.389052 L0.150704337,329.713042 L24.9633426,344.037032 L49.7756944,329.713042 L49.7756944,329.713042 Z M49.7756944,358.361022 L24.9633426,344.037032 L0.150704337,358.361022 L24.9633426,372.685012 L49.7756944,358.361022 L49.7756944,358.361022 Z M49.7756944,186.473141 L24.9633426,172.149151 L0.150704337,186.473141 L24.9633426,200.797131 L49.7756944,186.473141 L49.7756944,186.473141 Z M446.775901,215.121121 L471.588253,200.797131 L446.775901,186.473141 L421.96355,200.797131 L446.775901,215.121121 L446.775901,215.121121 Z M446.775901,243.769101 L471.588253,229.445111 L446.775901,215.121121 L421.96355,229.445111 L446.775901,243.769101 L446.775901,243.769101 Z M496.400891,129.177181 L471.588253,114.85319 L446.775901,129.177181 L471.588253,143.501171 L496.400891,129.177181 L496.400891,129.177181 Z M496.400891,186.473141 L471.588253,172.149151 L446.775901,186.473141 L471.588253,200.797131 L496.400891,186.473141 L496.400891,186.473141 Z M744.525842,301.065062 L719.71349,286.741072 L694.900852,301.065062 L719.71349,315.389052 L744.525842,301.065062 L744.525842,301.065062 Z M446.775901,157.825161 L471.588253,143.501171 L446.775901,129.177181 L421.96355,143.501171 L446.775901,157.825161 L446.775901,157.825161 Z M496.400891,157.825161 L471.588253,143.501171 L446.775901,157.825161 L471.588253,172.149151 L496.400891,157.825161 L496.400891,157.825161 Z M496.400891,215.121121 L471.588253,200.797131 L446.775901,215.121121 L471.588253,229.445111 L496.400891,215.121121 L496.400891,215.121121 Z M446.775901,301.065062 L421.96355,315.389052 L446.775901,329.713042 L471.588253,315.389052 L446.775901,301.065062 L446.775901,301.065062 Z M496.400891,329.713042 L471.588253,315.389052 L446.775901,329.713042 L471.588253,344.037032 L496.400891,329.713042 L496.400891,329.713042 Z M496.400891,301.065062 L471.588253,286.741072 L446.775901,301.065062 L471.588253,315.389052 L496.400891,301.065062 L496.400891,301.065062 Z M496.400891,243.769101 L471.588253,229.445111 L446.775901,243.769101 L471.588253,258.093092 L496.400891,243.769101 L496.400891,243.769101 Z M446.775901,243.769101 L421.96355,258.093092 L446.775901,272.417082 L471.588253,258.093092 L446.775901,243.769101 L446.775901,243.769101 Z M446.775901,272.417082 L421.96355,286.741072 L446.775901,301.065062 L471.588253,286.741072 L446.775901,272.417082 L446.775901,272.417082 Z M496.400891,272.417082 L471.588253,258.093092 L446.775901,272.417082 L471.588253,286.741072 L496.400891,272.417082 L496.400891,272.417082 Z" id="Stroke-55" sketch:type="MSShapeGroup"></path>
                <path d="M496.400891,43.2332399 L471.588253,28.9095363 L446.775901,43.2332399 L471.588253,57.55723 L496.400891,43.2332399 L496.400891,43.2332399 Z M446.775901,14.5852597 L471.588253,0.26126958 L421.96355,0.26126958 L446.775901,14.5852597 L446.775901,14.5852597 Z M496.400891,14.5852597 L471.588253,0.26126958 L446.775901,14.5852597 L471.588253,28.9095363 L496.400891,14.5852597 L496.400891,14.5852597 Z M49.7756944,14.5852597 L24.9633426,0.26126958 L0.150704337,14.5852597 L24.9633426,28.9095363 L49.7756944,14.5852597 L49.7756944,14.5852597 Z M446.775901,129.177181 L471.588253,114.85319 L446.775901,100.5292 L421.96355,114.85319 L446.775901,129.177181 L446.775901,129.177181 Z M446.775901,43.2332399 L471.588253,28.9095363 L446.775901,14.5852597 L421.96355,28.9095363 L446.775901,43.2332399 L446.775901,43.2332399 Z M446.775901,100.5292 L471.588253,86.2052102 L446.775901,71.8815066 L421.96355,86.2052102 L446.775901,100.5292 L446.775901,100.5292 Z M496.400891,100.5292 L471.588253,86.2052102 L446.775901,100.5292 L471.588253,114.85319 L496.400891,100.5292 L496.400891,100.5292 Z M446.775901,71.8815066 L471.588253,57.55723 L446.775901,43.2332399 L421.96355,57.55723 L446.775901,71.8815066 L446.775901,71.8815066 Z M496.400891,71.8815066 L471.588253,57.55723 L446.775901,71.8815066 L471.588253,86.2052102 L496.400891,71.8815066 L496.400891,71.8815066 Z M49.7756944,43.2332399 L24.9633426,28.9095363 L0.150704337,43.2332399 L24.9633426,57.55723 L49.7756944,43.2332399 L49.7756944,43.2332399 Z M49.7756944,43.2332399 L24.9633426,57.55723 L49.7756944,71.8815066 L74.5883327,57.55723 L49.7756944,43.2332399 L49.7756944,43.2332399 Z M645.275862,644.840824 L620.46351,659.164815 L645.275862,673.488805 L670.0885,659.164815 L645.275862,644.840824 L645.275862,644.840824 Z M694.900852,644.840824 L670.0885,630.516834 L645.275862,644.840824 L670.0885,659.164815 L694.900852,644.840824 L694.900852,644.840824 Z M694.900852,673.488805 L670.0885,659.164815 L645.275862,673.488805 L670.0885,687.812795 L694.900852,673.488805 L694.900852,673.488805 Z M658.13501,694.71352 L670.0885,687.812795 L645.275862,673.488805 L620.46351,687.812795 L632.417,694.71352 L658.13501,694.71352 L658.13501,694.71352 Z M670.0885,687.812795 L658.13501,694.71352 L682.04199,694.71352 L670.0885,687.812795 L670.0885,687.812795 Z M645.275862,587.544864 L620.46351,601.868854 L645.275862,616.192844 L670.0885,601.868854 L645.275862,587.544864 L645.275862,587.544864 Z M694.900852,616.192844 L670.0885,601.868854 L645.275862,616.192844 L670.0885,630.516834 L694.900852,616.192844 L694.900852,616.192844 Z M645.275862,616.192844 L620.46351,630.516834 L645.275862,644.840824 L670.0885,630.516834 L645.275862,616.192844 L645.275862,616.192844 Z M694.900852,587.544864 L670.0885,573.22116 L645.275862,587.544864 L670.0885,601.868854 L694.900852,587.544864 L694.900852,587.544864 Z" id="Stroke-56" sketch:type="MSShapeGroup"></path>
                <path d="M173.838313,687.812795 L161.884823,694.71352 L185.791803,694.71352 L173.838313,687.812795 L173.838313,687.812795 Z M149.025961,587.544864 L124.213323,601.868854 L149.025961,616.192844 L173.838313,601.868854 L149.025961,587.544864 L149.025961,587.544864 Z M149.025961,558.896884 L124.213323,573.22116 L149.025961,587.544864 L173.838313,573.22116 L149.025961,558.896884 L149.025961,558.896884 Z M198.650951,558.896884 L173.838313,544.572894 L149.025961,558.896884 L173.838313,573.22116 L198.650951,558.896884 L198.650951,558.896884 Z M149.025961,530.24919 L124.213323,544.572894 L149.025961,558.896884 L173.838313,544.572894 L149.025961,530.24919 L149.025961,530.24919 Z M149.025961,272.417082 L124.213323,286.741072 L149.025961,301.065062 L173.838313,286.741072 L149.025961,272.417082 L149.025961,272.417082 Z M198.650951,587.544864 L173.838313,573.22116 L149.025961,587.544864 L173.838313,601.868854 L198.650951,587.544864 L198.650951,587.544864 Z M1290.40102,444.305249 L1315.21366,429.980973 L1290.40102,415.656983 L1265.58867,429.980973 L1290.40102,444.305249 L1290.40102,444.305249 Z M149.025961,616.192844 L124.213323,630.516834 L149.025961,644.840824 L173.838313,630.516834 L149.025961,616.192844 L149.025961,616.192844 Z M198.650951,71.8815066 L173.838313,57.55723 L149.025961,71.8815066 L173.838313,86.2052102 L198.650951,71.8815066 L198.650951,71.8815066 Z M744.525842,673.488805 L769.33848,687.812795 L794.151118,673.488805 L769.33848,659.164815 L744.525842,673.488805 L744.525842,673.488805 Z M744.525842,644.840824 L769.33848,659.164815 L794.151118,644.840824 L769.33848,630.516834 L744.525842,644.840824 L744.525842,644.840824 Z M198.650951,272.417082 L173.838313,258.093092 L149.025961,272.417082 L173.838313,286.741072 L198.650951,272.417082 L198.650951,272.417082 Z M149.025961,43.2332399 L173.838313,28.9095363 L149.025961,14.5852597 L124.213323,28.9095363 L149.025961,43.2332399 L149.025961,43.2332399 Z M198.650951,43.2332399 L173.838313,28.9095363 L149.025961,43.2332399 L173.838313,57.55723 L198.650951,43.2332399 L198.650951,43.2332399 Z M198.650951,14.5852597 L173.838313,0.26126958 L149.025961,14.5852597 L173.838313,28.9095363 L198.650951,14.5852597 L198.650951,14.5852597 Z M149.025961,14.5852597 L173.838313,0.26126958 L124.213323,0.26126958 L149.025961,14.5852597 L149.025961,14.5852597 Z M744.525842,558.896884 L769.33848,573.22116 L794.151118,558.896884 L769.33848,544.572894 L744.525842,558.896884 L744.525842,558.896884 Z M794.151118,587.544864 L818.96347,573.22116 L794.151118,558.896884 L769.33848,573.22116 L794.151118,587.544864 L794.151118,587.544864 Z M794.151118,558.896884 L818.96347,544.572894 L794.151118,530.24919 L769.33848,544.572894 L794.151118,558.896884 L794.151118,558.896884 Z M794.151118,644.840824 L818.96347,630.516834 L794.151118,616.192844 L769.33848,630.516834 L794.151118,644.840824 L794.151118,644.840824 Z M744.525842,616.192844 L769.33848,630.516834 L794.151118,616.192844 L769.33848,601.868854 L744.525842,616.192844 L744.525842,616.192844 Z" id="Stroke-64" sketch:type="MSShapeGroup"></path>
                <path d="M794.151118,616.192844 L818.96347,601.868854 L794.151118,587.544864 L769.33848,601.868854 L794.151118,616.192844 L794.151118,616.192844 Z M744.525842,587.544864 L769.33848,601.868854 L794.151118,587.544864 L769.33848,573.22116 L744.525842,587.544864 L744.525842,587.544864 Z M794.151118,673.488805 L818.96347,659.164815 L794.151118,644.840824 L769.33848,659.164815 L794.151118,673.488805 L794.151118,673.488805 Z M149.025961,186.473141 L124.213323,200.797131 L149.025961,215.121121 L173.838313,200.797131 L149.025961,186.473141 L149.025961,186.473141 Z M198.650951,186.473141 L173.838313,172.149151 L149.025961,186.473141 L173.838313,200.797131 L198.650951,186.473141 L198.650951,186.473141 Z M198.650951,215.121121 L173.838313,200.797131 L149.025961,215.121121 L173.838313,229.445111 L198.650951,215.121121 L198.650951,215.121121 Z M198.650951,243.769101 L173.838313,229.445111 L149.025961,243.769101 L173.838313,258.093092 L198.650951,243.769101 L198.650951,243.769101 Z M149.025961,243.769101 L124.213323,258.093092 L149.025961,272.417082 L173.838313,258.093092 L149.025961,243.769101 L149.025961,243.769101 Z M149.025961,215.121121 L124.213323,229.445111 L149.025961,243.769101 L173.838313,229.445111 L149.025961,215.121121 L149.025961,215.121121 Z M149.025961,157.825161 L124.213323,172.149151 L149.025961,186.473141 L173.838313,172.149151 L149.025961,157.825161 L149.025961,157.825161 Z M149.025961,71.8815066 L173.838313,57.55723 L149.025961,43.2332399 L124.213323,57.55723 L149.025961,71.8815066 L149.025961,71.8815066 Z M198.650951,100.5292 L173.838313,86.2052102 L149.025961,100.5292 L173.838313,114.85319 L198.650951,100.5292 L198.650951,100.5292 Z M149.025961,71.8815066 L124.213323,86.2052102 L149.025961,100.5292 L173.838313,86.2052102 L149.025961,71.8815066 L149.025961,71.8815066 Z M198.650951,157.825161 L173.838313,143.501171 L149.025961,157.825161 L173.838313,172.149151 L198.650951,157.825161 L198.650951,157.825161 Z M149.025961,129.177181 L124.213323,143.501171 L149.025961,157.825161 L173.838313,143.501171 L149.025961,129.177181 L149.025961,129.177181 Z M198.650951,129.177181 L173.838313,114.85319 L149.025961,129.177181 L173.838313,143.501171 L198.650951,129.177181 L198.650951,129.177181 Z M149.025961,100.5292 L124.213323,114.85319 L149.025961,129.177181 L173.838313,114.85319 L149.025961,100.5292 L149.025961,100.5292 Z M198.650951,616.192844 L173.838313,601.868854 L149.025961,616.192844 L173.838313,630.516834 L198.650951,616.192844 L198.650951,616.192844 Z M1290.40102,673.488805 L1315.21366,659.164815 L1290.40102,644.840824 L1265.58867,659.164815 L1290.40102,673.488805 L1290.40102,673.488805 Z M1240.77603,673.488805 L1265.58867,687.812795 L1290.40102,673.488805 L1265.58867,659.164815 L1240.77603,673.488805 L1240.77603,673.488805 Z M1277.54216,694.71352 L1265.58867,687.812795 L1253.63518,694.71352 L1277.54216,694.71352 L1277.54216,694.71352 Z M1277.54216,694.71352 L1303.26017,694.71352 L1315.21366,687.812795 L1290.40102,673.488805 L1265.58867,687.812795 L1277.54216,694.71352 L1277.54216,694.71352 Z" id="Stroke-65" sketch:type="MSShapeGroup"></path>
                <path d="M1290.40102,243.769101 L1315.21366,258.093092 L1340.02601,243.769101 L1315.21366,229.445111 L1290.40102,243.769101 L1290.40102,243.769101 Z M1340.02601,272.417082 L1364.83865,258.093092 L1340.02601,243.769101 L1315.21366,258.093092 L1340.02601,272.417082 L1340.02601,272.417082 Z M1340.02601,301.065062 L1364.83865,286.741072 L1340.02601,272.417082 L1315.21366,286.741072 L1340.02601,301.065062 L1340.02601,301.065062 Z M1290.40102,272.417082 L1315.21366,286.741072 L1340.02601,272.417082 L1315.21366,258.093092 L1290.40102,272.417082 L1290.40102,272.417082 Z M1290.40102,587.544864 L1315.21366,601.868854 L1340.02601,587.544864 L1315.21366,573.22116 L1290.40102,587.544864 L1290.40102,587.544864 Z M1290.40102,616.192844 L1315.21366,630.516834 L1340.02601,616.192844 L1315.21366,601.868854 L1290.40102,616.192844 L1290.40102,616.192844 Z M1340.02601,616.192844 L1364.83865,601.868854 L1340.02601,587.544864 L1315.21366,601.868854 L1340.02601,616.192844 L1340.02601,616.192844 Z M1340.02601,644.840824 L1364.83865,630.516834 L1340.02601,616.192844 L1315.21366,630.516834 L1340.02601,644.840824 L1340.02601,644.840824 Z M149.025961,558.896884 L124.213323,544.572894 L99.400971,558.896884 L124.213323,573.22116 L149.025961,558.896884 L149.025961,558.896884 Z M1290.40102,644.840824 L1315.21366,659.164815 L1340.02601,644.840824 L1315.21366,630.516834 L1290.40102,644.840824 L1290.40102,644.840824 Z M1290.40102,558.896884 L1315.21366,573.22116 L1340.02601,558.896884 L1315.21366,544.572894 L1290.40102,558.896884 L1290.40102,558.896884 Z M1340.02601,558.896884 L1364.83865,544.572894 L1340.02601,530.24919 L1315.21366,544.572894 L1340.02601,558.896884 L1340.02601,558.896884 Z M1340.02601,587.544864 L1364.83865,573.22116 L1340.02601,558.896884 L1315.21366,573.22116 L1340.02601,587.544864 L1340.02601,587.544864 Z M1340.02601,673.488805 L1364.83865,659.164815 L1340.02601,644.840824 L1315.21366,659.164815 L1340.02601,673.488805 L1340.02601,673.488805 Z M1290.40102,673.488805 L1315.21366,687.812795 L1340.02601,673.488805 L1315.21366,659.164815 L1290.40102,673.488805 L1290.40102,673.488805 Z M1327.16715,694.71352 L1352.88516,694.71352 L1364.83865,687.812795 L1340.02601,673.488805 L1315.21366,687.812795 L1327.16715,694.71352 L1327.16715,694.71352 Z M1327.16715,694.71352 L1315.21366,687.812795 L1303.26017,694.71352 L1327.16715,694.71352 L1327.16715,694.71352 Z M1340.02601,186.473141 L1364.83865,172.149151 L1340.02601,157.825161 L1315.21366,172.149151 L1340.02601,186.473141 L1340.02601,186.473141 Z M1340.02601,157.825161 L1364.83865,143.501171 L1340.02601,129.177181 L1315.21366,143.501171 L1340.02601,157.825161 L1340.02601,157.825161 Z M1290.40102,157.825161 L1315.21366,172.149151 L1340.02601,157.825161 L1315.21366,143.501171 L1290.40102,157.825161 L1290.40102,157.825161 Z M1340.02601,215.121121 L1364.83865,200.797131 L1340.02601,186.473141 L1315.21366,200.797131 L1340.02601,215.121121 L1340.02601,215.121121 Z M1290.40102,186.473141 L1315.21366,200.797131 L1340.02601,186.473141 L1315.21366,172.149151 L1290.40102,186.473141 L1290.40102,186.473141 Z" id="Stroke-68" sketch:type="MSShapeGroup"></path>
                <path d="M1340.02601,129.177181 L1364.83865,114.85319 L1340.02601,100.5292 L1315.21366,114.85319 L1340.02601,129.177181 L1340.02601,129.177181 Z M1340.02601,100.5292 L1364.83865,86.2052102 L1340.02601,71.8815066 L1315.21366,86.2052102 L1340.02601,100.5292 L1340.02601,100.5292 Z M1290.40102,129.177181 L1315.21366,143.501171 L1340.02601,129.177181 L1315.21366,114.85319 L1290.40102,129.177181 L1290.40102,129.177181 Z M1290.40102,100.5292 L1315.21366,114.85319 L1340.02601,100.5292 L1315.21366,86.2052102 L1290.40102,100.5292 L1290.40102,100.5292 Z M1290.40102,215.121121 L1315.21366,229.445111 L1340.02601,215.121121 L1315.21366,200.797131 L1290.40102,215.121121 L1290.40102,215.121121 Z M99.400971,43.2332399 L74.5883327,57.55723 L99.400971,71.8815066 L124.213323,57.55723 L99.400971,43.2332399 L99.400971,43.2332399 Z M149.025961,100.5292 L124.213323,86.2052102 L99.400971,100.5292 L124.213323,114.85319 L149.025961,100.5292 L149.025961,100.5292 Z M99.400971,71.8815066 L74.5883327,86.2052102 L99.400971,100.5292 L124.213323,86.2052102 L99.400971,71.8815066 L99.400971,71.8815066 Z M99.400971,100.5292 L74.5883327,114.85319 L99.400971,129.177181 L124.213323,114.85319 L99.400971,100.5292 L99.400971,100.5292 Z M149.025961,71.8815066 L124.213323,57.55723 L99.400971,71.8815066 L124.213323,86.2052102 L149.025961,71.8815066 L149.025961,71.8815066 Z M99.400971,14.5852597 L124.213323,0.26126958 L74.5883327,0.26126958 L99.400971,14.5852597 L99.400971,14.5852597 Z M1290.40102,71.8815066 L1315.21366,86.2052102 L1340.02601,71.8815066 L1315.21366,57.55723 L1290.40102,71.8815066 L1290.40102,71.8815066 Z M149.025961,14.5852597 L124.213323,0.26126958 L99.400971,14.5852597 L124.213323,28.9095363 L149.025961,14.5852597 L149.025961,14.5852597 Z M149.025961,43.2332399 L124.213323,28.9095363 L99.400971,43.2332399 L124.213323,57.55723 L149.025961,43.2332399 L149.025961,43.2332399 Z M744.525842,157.825161 L769.33848,143.501171 L744.525842,129.177181 L719.71349,143.501171 L744.525842,157.825161 L744.525842,157.825161 Z M744.525842,43.2332399 L719.71349,28.9095363 L694.900852,43.2332399 L719.71349,57.55723 L744.525842,43.2332399 L744.525842,43.2332399 Z M744.525842,71.8815066 L719.71349,57.55723 L694.900852,71.8815066 L719.71349,86.2052102 L744.525842,71.8815066 L744.525842,71.8815066 Z M744.525842,71.8815066 L769.33848,57.55723 L744.525842,43.2332399 L719.71349,57.55723 L744.525842,71.8815066 L744.525842,71.8815066 Z M744.525842,100.5292 L769.33848,86.2052102 L744.525842,71.8815066 L719.71349,86.2052102 L744.525842,100.5292 L744.525842,100.5292 Z M744.525842,14.5852597 L719.71349,0.26126958 L694.900852,14.5852597 L719.71349,28.9095363 L744.525842,14.5852597 L744.525842,14.5852597 Z M1340.02601,71.8815066 L1364.83865,57.55723 L1340.02601,43.2332399 L1315.21366,57.55723 L1340.02601,71.8815066 L1340.02601,71.8815066 Z" id="Stroke-69" sketch:type="MSShapeGroup"></path>
                <path d="M744.525842,43.2332399 L769.33848,28.9095363 L744.525842,14.5852597 L719.71349,28.9095363 L744.525842,43.2332399 L744.525842,43.2332399 Z M744.525842,100.5292 L719.71349,86.2052102 L694.900852,100.5292 L719.71349,114.85319 L744.525842,100.5292 L744.525842,100.5292 Z M744.525842,14.5852597 L769.33848,0.26126958 L719.71349,0.26126958 L744.525842,14.5852597 L744.525842,14.5852597 Z M1340.02601,43.2332399 L1364.83865,28.9095363 L1340.02601,14.5852597 L1315.21366,28.9095363 L1340.02601,43.2332399 L1340.02601,43.2332399 Z M1340.02601,14.5852597 L1364.83865,0.26126958 L1315.21366,0.26126958 L1340.02601,14.5852597 L1340.02601,14.5852597 Z M1340.02601,14.5852597 L1315.21366,0.26126958 L1290.40102,14.5852597 L1315.21366,28.9095363 L1340.02601,14.5852597 L1340.02601,14.5852597 Z M1340.02601,43.2332399 L1315.21366,28.9095363 L1290.40102,43.2332399 L1315.21366,57.55723 L1340.02601,43.2332399 L1340.02601,43.2332399 Z M744.525842,129.177181 L719.71349,114.85319 L694.900852,129.177181 L719.71349,143.501171 L744.525842,129.177181 L744.525842,129.177181 Z M149.025961,129.177181 L124.213323,114.85319 L99.400971,129.177181 L124.213323,143.501171 L149.025961,129.177181 L149.025961,129.177181 Z M744.525842,129.177181 L769.33848,114.85319 L744.525842,100.5292 L719.71349,114.85319 L744.525842,129.177181 L744.525842,129.177181 Z M744.525842,157.825161 L719.71349,143.501171 L694.900852,157.825161 L719.71349,172.149151 L744.525842,157.825161 L744.525842,157.825161 Z M99.400971,43.2332399 L124.213323,28.9095363 L99.400971,14.5852597 L74.5883327,28.9095363 L99.400971,43.2332399 L99.400971,43.2332399 Z M149.025961,358.361022 L124.213323,344.037032 L99.400971,358.361022 L124.213323,372.685012 L149.025961,358.361022 L149.025961,358.361022 Z M99.400971,358.361022 L74.5883327,372.685012 L99.400971,387.009002 L124.213323,372.685012 L99.400971,358.361022 L99.400971,358.361022 Z M99.400971,329.713042 L74.5883327,344.037032 L99.400971,358.361022 L124.213323,344.037032 L99.400971,329.713042 L99.400971,329.713042 Z M149.025961,387.009002 L124.213323,372.685012 L99.400971,387.009002 L124.213323,401.333279 L149.025961,387.009002 L149.025961,387.009002 Z M744.525842,272.417082 L719.71349,258.093092 L694.900852,272.417082 L719.71349,286.741072 L744.525842,272.417082 L744.525842,272.417082 Z M744.525842,272.417082 L769.33848,258.093092 L744.525842,243.769101 L719.71349,258.093092 L744.525842,272.417082 L744.525842,272.417082 Z M99.400971,387.009002 L74.5883327,401.333279 L99.400971,415.656983 L124.213323,401.333279 L99.400971,387.009002 L99.400971,387.009002 Z M99.400971,301.065062 L74.5883327,315.389052 L99.400971,329.713042 L124.213323,315.389052 L99.400971,301.065062 L99.400971,301.065062 Z M149.025961,329.713042 L124.213323,315.389052 L99.400971,329.713042 L124.213323,344.037032 L149.025961,329.713042 L149.025961,329.713042 Z M99.400971,444.305249 L74.5883327,458.628953 L99.400971,472.952943 L124.213323,458.628953 L99.400971,444.305249 L99.400971,444.305249 Z" id="Stroke-71" sketch:type="MSShapeGroup"></path>
                <path d="M99.400971,472.952943 L74.5883327,487.27722 L99.400971,501.600923 L124.213323,487.27722 L99.400971,472.952943 L99.400971,472.952943 Z M99.400971,501.600923 L74.5883327,515.924913 L99.400971,530.24919 L124.213323,515.924913 L99.400971,501.600923 L99.400971,501.600923 Z M149.025961,501.600923 L124.213323,487.27722 L99.400971,501.600923 L124.213323,515.924913 L149.025961,501.600923 L149.025961,501.600923 Z M149.025961,530.24919 L124.213323,515.924913 L99.400971,530.24919 L124.213323,544.572894 L149.025961,530.24919 L149.025961,530.24919 Z M149.025961,415.656983 L124.213323,401.333279 L99.400971,415.656983 L124.213323,429.980973 L149.025961,415.656983 L149.025961,415.656983 Z M99.400971,415.656983 L74.5883327,429.980973 L99.400971,444.305249 L124.213323,429.980973 L99.400971,415.656983 L99.400971,415.656983 Z M149.025961,472.952943 L124.213323,458.628953 L99.400971,472.952943 L124.213323,487.27722 L149.025961,472.952943 L149.025961,472.952943 Z M149.025961,444.305249 L124.213323,429.980973 L99.400971,444.305249 L124.213323,458.628953 L149.025961,444.305249 L149.025961,444.305249 Z M744.525842,243.769101 L719.71349,229.445111 L694.900852,243.769101 L719.71349,258.093092 L744.525842,243.769101 L744.525842,243.769101 Z M744.525842,186.473141 L719.71349,172.149151 L694.900852,186.473141 L719.71349,200.797131 L744.525842,186.473141 L744.525842,186.473141 Z M149.025961,272.417082 L124.213323,258.093092 L99.400971,272.417082 L124.213323,286.741072 L149.025961,272.417082 L149.025961,272.417082 Z M149.025961,243.769101 L124.213323,229.445111 L99.400971,243.769101 L124.213323,258.093092 L149.025961,243.769101 L149.025961,243.769101 Z M99.400971,215.121121 L74.5883327,229.445111 L99.400971,243.769101 L124.213323,229.445111 L99.400971,215.121121 L99.400971,215.121121 Z M744.525842,243.769101 L769.33848,229.445111 L744.525842,215.121121 L719.71349,229.445111 L744.525842,243.769101 L744.525842,243.769101 Z M149.025961,215.121121 L124.213323,200.797131 L99.400971,215.121121 L124.213323,229.445111 L149.025961,215.121121 L149.025961,215.121121 Z M99.400971,186.473141 L74.5883327,200.797131 L99.400971,215.121121 L124.213323,200.797131 L99.400971,186.473141 L99.400971,186.473141 Z M99.400971,157.825161 L74.5883327,172.149151 L99.400971,186.473141 L124.213323,172.149151 L99.400971,157.825161 L99.400971,157.825161 Z M149.025961,157.825161 L124.213323,143.501171 L99.400971,157.825161 L124.213323,172.149151 L149.025961,157.825161 L149.025961,157.825161 Z M149.025961,186.473141 L124.213323,172.149151 L99.400971,186.473141 L124.213323,200.797131 L149.025961,186.473141 L149.025961,186.473141 Z M99.400971,243.769101 L74.5883327,258.093092 L99.400971,272.417082 L124.213323,258.093092 L99.400971,243.769101 L99.400971,243.769101 Z M744.525842,215.121121 L769.33848,200.797131 L744.525842,186.473141 L719.71349,200.797131 L744.525842,215.121121 L744.525842,215.121121 Z M99.400971,272.417082 L74.5883327,286.741072 L99.400971,301.065062 L124.213323,286.741072 L99.400971,272.417082 L99.400971,272.417082 Z" id="Stroke-72" sketch:type="MSShapeGroup"></path>
                <path d="M99.400971,530.24919 L74.5883327,544.572894 L99.400971,558.896884 L124.213323,544.572894 L99.400971,530.24919 L99.400971,530.24919 Z M744.525842,215.121121 L719.71349,200.797131 L694.900852,215.121121 L719.71349,229.445111 L744.525842,215.121121 L744.525842,215.121121 Z M149.025961,301.065062 L124.213323,286.741072 L99.400971,301.065062 L124.213323,315.389052 L149.025961,301.065062 L149.025961,301.065062 Z M744.525842,186.473141 L769.33848,172.149151 L744.525842,157.825161 L719.71349,172.149151 L744.525842,186.473141 L744.525842,186.473141 Z M99.400971,129.177181 L74.5883327,143.501171 L99.400971,157.825161 L124.213323,143.501171 L99.400971,129.177181 L99.400971,129.177181 Z" id="Stroke-73" sketch:type="MSShapeGroup"></path>
            </g>
        </g>
    </g>
</svg>