<svg width="310" height="200" viewBox="0 0 310 200" xmlns="http://www.w3.org/2000/svg"><title>Artboard 19</title><g stroke="#5D5D5D" fill="none" fill-rule="evenodd"><path d="M830.917 694.714h25.718l11.953-6.9-24.812-14.325-24.813 14.32 11.954 6.9zm12.86-164.465l24.81-14.328-24.81-14.324-24.814 14.324 24.813 14.324zm-49.626 0l24.816 14.32 24.813-14.324-24.814-14.325-24.812 14.325zm49.63 57.292l24.81-14.324-24.812-14.324-24.813 14.324 24.813 14.326zm-49.626 0l24.813 14.324 24.813-14.325-24.814-14.323-24.812 14.324zm49.626-28.648l24.81-14.324-24.81-14.323-24.814 14.323 24.813 14.325zm-49.626 0l24.813 14.324 24.813-14.324-24.814-14.324-24.812 14.324zM248.277 14.584L223.463.26 198.65 14.586l24.813 14.325 24.813-14.322zm-49.625 0L223.464.26H173.84l24.812 14.325zm843.626 515.665l24.813-14.328-24.81-14.324-24.814 14.324 24.813 14.324zM198.65 100.53l24.813-14.325-24.812-14.323-24.81 14.323 24.814 14.324zm645.126 171.887l24.812-14.324-24.812-14.324-24.813 14.32 24.813 14.324zm198.5 143.24l24.813-14.324-24.817-14.324-24.813 14.32 24.814 14.324zM198.65 71.882l24.813-14.325-24.812-14.324-24.81 14.324 24.814 14.325zm49.626-28.65L223.463 28.91 198.65 43.233l24.813 14.324 24.813-14.324zm-49.625 0l24.816-14.322-24.812-14.325L173.84 28.91l24.813 14.323zm843.63 401.073l24.812-14.324-24.813-14.32-24.814 14.324 24.813 14.325zm-49.626 0l24.813 14.324 24.813-14.328-24.814-14.324-24.812 14.324zm0 57.296l24.813 14.328 24.813-14.324-24.814-14.323-24.815 14.32zm0-85.94l24.813 14.324 24.813-14.323-24.814-14.324-24.812 14.324zm-397-28.65l-24.81 14.325 24.81 14.324 24.814-14.325-24.813-14.324z"/><path d="M1042.276 501.6l24.813-14.323-24.817-14.324-24.813 14.324 24.814 14.324zm-49.625-28.647l24.816 14.324 24.813-14.324-24.814-14.324-24.812 14.32zM248.28 71.883l-24.813-14.326-24.812 14.325 24.813 14.323 24.813-14.323zm0 171.886l-24.813-14.328-24.812 14.324 24.813 14.323 24.813-14.324zm0-143.24L223.467 86.2l-24.812 14.324 24.813 14.323 24.813-14.324zm-49.63 114.59l-24.812 14.325 24.813 14.324 24.816-14.328-24.812-14.324zm0 57.297l-24.81 14.323 24.813 14.325 24.813-14.324-24.812-14.32zm49.626 28.648l-24.813-14.324-24.812 14.328 24.816 14.324 24.813-14.324zm0-28.648l-24.813-14.324-24.812 14.324 24.816 14.324 24.813-14.32zm0-57.296l-24.813-14.32-24.812 14.325 24.816 14.325 24.813-14.325zm-49.625 28.65l-24.81 14.326 24.814 14.324 24.813-14.325-24.812-14.324zm49.63-114.59l-24.814-14.324-24.812 14.324 24.813 14.323 24.813-14.323zm-49.626 0L173.84 143.5l24.813 14.325 24.813-14.324-24.812-14.32zm0 57.296L173.84 200.8l24.814 14.323 24.813-14.323-24.812-14.325zm0-85.944l-24.812 14.324 24.814 14.324 24.813-14.324-24.813-14.324zm49.626 85.944l-24.814-14.324-24.812 14.322 24.813 14.324 24.813-14.324zm-49.626-28.648L173.84 172.15l24.813 14.323 24.813-14.324-24.812-14.328zm49.626 0L223.462 143.5l-24.812 14.325 24.814 14.324 24.813-14.328zm794 315.128l24.812-14.324-24.814-14.326-24.813 14.324 24.813 14.323zm-397-229.184l-24.813-14.326-24.813 14.324 24.814 14.323 24.812-14.322zm-49.626 57.294l24.814-14.324-24.813-14.323-24.81 14.323 24.81 14.327zm49.626-28.648l-24.812-14.324-24.813 14.324 24.814 14.324 24.81-14.323z"/><path d="M1042.276 215.12l24.813-14.323-24.817-14.324-24.813 14.324 24.814 14.324zm0-28.647l-24.813-14.324-24.812 14.32 24.816 14.324 24.813-14.324zM992.65 243.77l24.813 14.323 24.813-14.324-24.813-14.328-24.812 14.324zm49.626 28.647l24.813-14.324-24.817-14.324-24.813 14.32 24.814 14.324zm-49.625 0l24.816 14.324 24.813-14.32-24.814-14.324-24.812 14.324zm49.63-28.648l24.812-14.328-24.813-14.324-24.814 14.324 24.813 14.324zm-198.5-114.596l24.81-14.324-24.812-14.323-24.813 14.323 24.813 14.325zm0-85.944l24.81-14.32-24.812-14.326-24.813 14.325 24.813 14.32zm0 200.537l-24.814-14.325-24.812 14.324 24.813 14.323 24.813-14.326zm0-85.945l24.81-14.322-24.813-14.324-24.813 14.324 24.813 14.325zm0 0L818.962 143.5l-24.812 14.325 24.816 14.324 24.813-14.328zm0 57.296l24.81-14.324-24.812-14.324-24.813 14.324 24.813 14.324zm0 28.65l24.81-14.326-24.812-14.324-24.813 14.325 24.813 14.324zm0-28.65l-24.814-14.324-24.812 14.324 24.813 14.325 24.813-14.324zm0-28.648l-24.814-14.324-24.812 14.323 24.813 14.323 24.813-14.324zm-496.25 57.296l-24.814 14.323 24.813 14.323 24.81-14.324-24.812-14.324zM843.777 43.23l-24.815-14.32-24.813 14.323 24.813 14.324 24.813-14.324zM198.65 301.066l-24.81 14.325 24.813 14.325 24.813-14.324-24.812-14.325zm645.126-171.888l-24.813-14.324-24.812 14.324 24.816 14.324 24.813-14.322zm198.5 57.296l24.813-14.324-24.817-14.326-24.813 14.324 24.814 14.323zm-198.5-85.944l24.812-14.326-24.812-14.323-24.813 14.326 24.813 14.324zm0 0l-24.813-14.326-24.812 14.324 24.816 14.323 24.813-14.32z"/><path d="M198.65 587.545l-24.81 14.325 24.813 14.323 24.813-14.324-24.812-14.328zm0 57.296l-24.812 14.328 24.813 14.324 24.816-14.324-24.812-14.324zm0-85.94l-24.81 14.32 24.813 14.327 24.813-14.324-24.812-14.322zm49.626 85.944l-24.813-14.323-24.812 14.324 24.816 14.325 24.813-14.325zm992.5-229.183l24.813-14.324-24.817-14.324-24.812 14.325 24.813 14.324zm0-200.536l24.813-14.323-24.817-14.323-24.812 14.324 24.813 14.325zm-49.625-28.647l24.817 14.324 24.812-14.323-24.813-14.324-24.813 14.323zm0-28.648l24.817 14.323 24.812-14.325-24.813-14.324-24.813 14.325zm49.63 28.647l24.812-14.324-24.813-14.325-24.813 14.324 24.812 14.325zm0-57.296l24.812-14.323-24.813-14.324-24.813 14.323 24.812 14.324zm0 28.65l24.812-14.325-24.813-14.323-24.813 14.326 24.812 14.325zm0-57.297l-24.813-14.325-24.813 14.324 24.814 14.325 24.812-14.324zm-49.626 28.647l24.814 14.322 24.812-14.323-24.813-14.326-24.813 14.324zm49.626 171.886l24.812-14.324-24.813-14.323-24.814 14.322 24.812 14.325zm-49.626 0l24.814 14.324 24.812-14.324-24.813-14.324-24.813 14.325zm0-28.648l24.814 14.323 24.812-14.32-24.813-14.325-24.813 14.324zm49.626 57.295l24.812-14.324-24.814-14.326-24.812 14.324 24.812 14.322zm-49.63-114.595l24.814 14.325 24.812-14.324-24.812-14.324-24.813 14.324zm0 28.65l24.814 14.323 24.812-14.322-24.812-14.326-24.813 14.325zM248.276 329.71l-24.813-14.323-24.812 14.322 24.816 14.322 24.813-14.324zm992.5-85.943l24.813-14.326-24.817-14.322-24.812 14.325 24.813 14.324zM992.65 558.895l24.813 14.324 24.813-14.325-24.813-14.324-24.812 14.325zm-99.25-286.48l24.813-14.323L893.4 243.77l-24.812 14.323 24.813 14.324zm0-85.943l24.813-14.324-24.812-14.326-24.81 14.324 24.81 14.324zm0-28.648L868.59 143.5l-24.812 14.325 24.812 14.324 24.813-14.328zm0 85.944l-24.812-14.326-24.812 14.324 24.812 14.323 24.812-14.32zm0 0l24.813-14.326L893.4 215.12l-24.812 14.325L893.4 243.77zm-545.874 0l-24.813-14.326L297.9 243.77l24.813 14.323 24.813-14.324zm0 200.534l-24.813-14.324-24.812 14.325 24.816 14.324L347.53 444.3zM297.9 415.657l-24.81 14.323 24.813 14.325 24.813-14.324-24.812-14.32zm0 28.648l-24.81 14.325 24.813 14.323 24.813-14.324-24.812-14.328zm49.626-28.648l-24.813-14.324-24.812 14.324 24.816 14.324 24.813-14.32zm0 57.296l-24.813-14.324-24.813 14.32 24.814 14.323 24.813-14.324zM297.9 387.01l-24.812 14.323 24.813 14.324 24.816-14.324L297.9 387.01zm49.626 114.59l-24.813-14.323L297.9 501.6l24.813 14.325 24.813-14.324zM297.9 472.954l-24.812 14.324L297.9 501.6l24.813-14.323-24.812-14.324zm0-143.24l-24.812 14.324L297.9 358.36l24.813-14.323-24.812-14.324zm0-28.648l-24.81 14.324 24.813 14.323 24.813-14.324-24.812-14.328zm49.626 28.648l-24.813-14.324-24.812 14.323 24.816 14.324 24.813-14.324zm0-28.648l-24.813-14.324-24.812 14.325 24.816 14.324 24.813-14.322zM297.9 358.36l-24.812 14.325L297.9 387.01l24.813-14.325L297.9 358.36zm0-85.943l-24.81 14.323 24.813 14.325 24.813-14.324-24.812-14.32zm49.626 114.592l-24.813-14.328L297.9 387.01l24.813 14.323 24.813-14.324zm0-28.65l-24.813-14.326L297.9 358.36l24.813 14.325 24.813-14.324z"/><path d="M297.9 501.6l-24.812 14.325L297.9 530.25l24.813-14.325L297.9 501.6zm12.86 193.114l11.953-6.9L297.9 673.49l-24.81 14.322 11.953 6.9h25.718zm36.766-21.225l-24.813-14.328L297.9 673.49l24.813 14.323 24.813-14.324zm0-143.24l-24.813-14.328L297.9 530.25l24.813 14.323 24.813-14.324zm0 114.59l-24.813-14.326L297.9 644.84l24.813 14.325 24.813-14.324zm-24.813 42.97l-11.953 6.9h23.907l-11.954-6.9zM297.9 644.84l-24.812 14.325L297.9 673.49l24.813-14.325L297.9 644.84zm0-85.943l-24.81 14.323 24.813 14.325 24.813-14.324-24.812-14.32zm0 57.296l-24.812 14.324L297.9 644.84l24.813-14.323-24.812-14.324zm0-85.944l-24.812 14.32 24.813 14.324 24.816-14.324-24.815-14.32zm49.626 28.644l-24.813-14.324-24.812 14.325 24.816 14.324 24.813-14.325zm0 57.296l-24.813-14.323L297.9 616.19l24.814 14.325 24.813-14.324zm0-28.647l-24.813-14.324-24.812 14.323 24.816 14.324 24.813-14.326zm-49.625 0l-24.81 14.326 24.815 14.32 24.813-14.323-24.812-14.326zm49.63-487.016l-24.814-14.325L297.9 100.53l24.813 14.323 24.813-14.324zm198.5 515.663l-24.813 14.325 24.812 14.324 24.812-14.326-24.813-14.324zm49.624 28.65l-24.81-14.324-24.814 14.324 24.812 14.325 24.81-14.324zm-49.624 0l-24.813 14.324 24.812 14.324 24.81-14.325-24.812-14.324zM297.9 43.233l24.813-14.323L297.9 14.586 273.09 28.91l24.81 14.323zm49.626 0L322.713 28.91 297.9 43.233l24.813 14.324 24.813-14.324zm0-28.648L322.713.26 297.9 14.586l24.813 14.325 24.813-14.322z"/><path d="M595.65 673.49l-24.81-14.325-24.814 14.324 24.813 14.32 24.81-14.324zM347.527 272.416l-24.813-14.324-24.812 14.324 24.813 14.324 24.813-14.323zM570.84 687.813l-11.955 6.9h23.907l-11.953-6.9zm-11.955 6.9l11.954-6.9-24.817-14.324-24.812 14.32 11.954 6.9h25.718zM297.9 71.883l24.813-14.325L297.9 43.233l-24.81 14.324 24.81 14.325zm0 114.59L273.088 200.8l24.812 14.32 24.813-14.323-24.812-14.324zm0-28.647l-24.81 14.324 24.813 14.323 24.813-14.324-24.812-14.328zm49.626 28.648l-24.813-14.324-24.812 14.323 24.816 14.324 24.813-14.324zM297.9 215.12l-24.812 14.325L297.9 243.77l24.813-14.325L297.9 215.12zm0 28.65l-24.812 14.323 24.813 14.324 24.816-14.324L297.9 243.77zm49.626-200.537l24.812-14.323-24.812-14.325-24.813 14.325 24.813 14.323zm0 171.888l-24.813-14.32-24.813 14.32 24.813 14.326 24.813-14.324zM297.9 100.53l24.813-14.325L297.9 71.882l-24.81 14.323 24.81 14.325zm49.626-28.648l-24.813-14.325L297.9 71.882l24.813 14.323 24.813-14.323zm0 85.943L322.713 143.5 297.9 157.826l24.813 14.324 24.813-14.325zM297.9 129.177l24.813-14.324L297.9 100.53l-24.812 14.323 24.813 14.324zm0 28.648l24.813-14.324-24.813-14.32-24.81 14.32 24.813 14.326zm49.626-28.648l-24.813-14.324-24.812 14.324 24.816 14.324 24.813-14.32zM297.9 14.585L322.714.26H273.09l24.81 14.326zm781.142 680.13l-11.953-6.902-11.958 6.9h23.907zm-681.89-49.874l-24.814-14.32-24.812 14.324 24.812 14.325 24.813-14.325zm0-229.18l-24.814-14.324-24.812 14.324 24.812 14.323 24.813-14.323zm124.062 272.155l-11.954 6.9h23.907l-11.953-6.9zm-248.126 0l-11.953 6.9h23.907l-11.954-6.9zM496.4 157.825l24.814-14.324-24.814-14.32-24.81 14.32 24.813 14.326zm49.626-28.648l-24.812-14.324-24.813 14.324 24.817 14.324 24.812-14.32zm0 28.648L521.214 143.5 496.4 157.826l24.814 14.324 24.812-14.325zM496.4 129.177l24.814-14.324L496.4 100.53l-24.812 14.323 24.813 14.324zm0 85.944l24.814-14.32-24.813-14.324-24.81 14.324 24.81 14.32zm49.626-28.644l-24.812-14.324-24.813 14.324 24.817 14.324 24.812-14.324zM496.4 14.586L521.215.26H471.59l24.81 14.325zm0 57.296l24.814-14.325L496.4 43.233l-24.81 14.324 24.81 14.325zm0-28.65l24.814-14.322L496.4 14.585 471.59 28.91l24.81 14.323zm49.626 57.297L521.214 86.2 496.4 100.53l24.814 14.323 24.812-14.324zm0-57.3l-24.812-14.32L496.4 43.232l24.814 14.324 24.812-14.324zm0-28.648L521.214.26 496.4 14.586l24.814 14.325 24.812-14.322zM496.4 100.53l24.814-14.325L496.4 71.882l-24.81 14.323 24.81 14.325zm49.626-28.648l-24.812-14.325L496.4 71.882l24.814 14.323 24.812-14.323zm0 143.24l-24.812-14.325L496.4 215.12l24.814 14.325 24.812-14.324zm0 200.535l-24.812-14.324-24.813 14.324 24.817 14.324 24.812-14.32zM496.4 358.36l-24.812 14.325L496.4 387.01l24.814-14.325L496.4 358.36zm49.626 28.65l-24.812-14.325L496.4 387.01l24.814 14.323 24.812-14.324zm0-28.65l-24.812-14.323L496.4 358.36l24.814 14.325 24.812-14.324zM496.4 387.01l-24.812 14.323 24.813 14.324 24.817-14.324L496.4 387.01z"/><path d="M496.4 415.657l-24.81 14.323 24.813 14.325 24.814-14.324-24.813-14.32zm49.626 28.648l-24.812-14.324L496.4 444.31l24.817 14.324 24.812-14.324zM496.4 329.713l-24.812 14.324L496.4 358.36l24.814-14.323-24.813-14.324zm0-28.648l-24.81 14.325 24.813 14.323 24.814-14.324-24.813-14.328zm0-28.648l24.814-14.324L496.4 243.77l-24.812 14.323 24.813 14.324zm49.626 0l-24.812-14.324-24.813 14.324 24.817 14.324 24.812-14.32zm0-28.648l-24.812-14.328L496.4 243.77l24.814 14.323 24.812-14.324zm0 57.292l-24.812-14.324-24.813 14.324 24.817 14.324 24.812-14.326zM496.4 243.77l24.814-14.325L496.4 215.12l-24.812 14.325L496.4 243.77zm0 28.647l-24.81 14.323 24.813 14.325 24.814-14.324-24.813-14.32zm49.626 57.296l-24.812-14.324-24.814 14.32 24.815 14.323 24.812-14.324zM496.4 186.473l24.814-14.324L496.4 157.82l-24.81 14.324 24.81 14.323zM297.9 415.657l-24.812-14.324-24.812 14.324 24.812 14.324 24.812-14.32zm0-28.648l-24.812-14.328-24.812 14.324 24.812 14.323 24.812-14.32zm-49.624 0l-24.813 14.32 24.813 14.324 24.812-14.324-24.812-14.323zm0-28.65l-24.813 14.322 24.813 14.324 24.812-14.325-24.812-14.323zm49.625 0l-24.81-14.326-24.81 14.324 24.81 14.324 24.81-14.325zM248.28 444.3l-24.814 14.324 24.813 14.323 24.81-14.324L248.28 444.3zm0-28.648l-24.814 14.324 24.813 14.324 24.81-14.324-24.812-14.322zm49.624 57.296l-24.813-14.32-24.81 14.323 24.81 14.324 24.814-14.324zm0-28.647L273.09 429.98l-24.812 14.325 24.812 14.324 24.813-14.328zM248.28 329.71l-24.814 14.325 24.813 14.324 24.81-14.325-24.81-14.324zm793.997-286.48l24.813-14.32-24.815-14.326-24.813 14.325 24.813 14.32zm0-28.646L1067.09.26h-49.627l24.813 14.325zm0 0L1017.463.26 992.65 14.586l24.813 14.325 24.813-14.322zm0 28.648l-24.813-14.323-24.812 14.32 24.814 14.325 24.813-14.324zm0 28.65l24.813-14.326-24.815-14.324-24.813 14.324 24.813 14.325zm-99.25 601.606l24.812-14.326-24.814-14.324-24.813 14.325 24.813 14.324zM248.277 14.583L273.087.26H223.46l24.813 14.325zm0 200.536l-24.814 14.323 24.813 14.324 24.812-14.326-24.812-14.323zM893.4 673.49l24.813 14.323 24.813-14.324-24.813-14.328L893.4 673.49zm36.767 21.224l-11.954-6.9-11.953 6.9h23.907zm0 0h25.718l11.953-6.9-24.812-14.325-24.813 14.32 11.954 6.9zM297.9 157.824L273.088 143.5l-24.812 14.326 24.812 14.324 24.813-14.325zm0-28.647l-24.812-14.324-24.812 14.324 24.812 14.324 24.812-14.32zm-49.624 28.648l-24.813 14.324 24.813 14.32 24.812-14.324-24.812-14.325zm0-28.648L223.463 143.5l24.813 14.325 24.812-14.324-24.812-14.32zm49.625 57.296l-24.81-14.323-24.81 14.323 24.81 14.324 24.815-14.324zm0-171.888L273.09.26l-24.812 14.325L273.09 28.91l24.81-14.325zm-49.62 171.888l-24.813 14.324 24.813 14.324 24.812-14.32-24.813-14.323zm49.62 28.647l-24.812-14.323-24.812 14.324 24.812 14.328L297.9 215.12zm0-171.887L273.09 28.91l-24.812 14.323 24.812 14.324 24.81-14.324zm-49.624 0l24.812-14.323-24.812-14.325-24.813 14.325 24.813 14.323zm0 28.65l24.812-14.326-24.812-14.324-24.813 14.324 24.813 14.325zM297.9 100.53l-24.81-14.326-24.812 14.324 24.812 14.323 24.81-14.32zm-49.624 28.647l24.812-14.324-24.812-14.324-24.813 14.32 24.813 14.324zm0-28.648L273.088 86.2 248.276 71.88l-24.813 14.323 24.813 14.324zM297.9 71.88l-24.81-14.323-24.812 14.325 24.812 14.323 24.81-14.323zm794 458.367l24.814 14.323 24.812-14.324-24.812-14.325-24.813 14.327zm0-286.48l24.814 14.323 24.812-14.324-24.812-14.325-24.813 14.327zm49.626 315.127l24.813-14.324-24.817-14.324-24.812 14.323 24.813 14.32zm0 28.648l24.813-14.324-24.817-14.323-24.812 14.324 24.813 14.322zm0-85.944l24.813-14.323-24.817-14.324-24.812 14.327 24.813 14.324zm-49.625 85.945l24.817 14.324 24.812-14.325-24.813-14.324-24.813 14.325zm49.63-57.296l24.812-14.325-24.813-14.324-24.813 14.325 24.812 14.324zM1091.9 501.6l24.814 14.325 24.812-14.324-24.812-14.32-24.814 14.32zm49.626 171.89l24.813-14.325-24.817-14.324-24.812 14.328 24.813 14.324zm-12.86 21.224l-11.952-6.9-11.954 6.9h23.907zm-36.765-221.76l24.817 14.323 24.812-14.324-24.813-14.324-24.813 14.32zm36.77 221.76h25.718l11.954-6.9-24.813-14.325-24.813 14.32 11.953 6.9zm12.86-78.52l24.81-14.325-24.812-14.328-24.812 14.324 24.812 14.323zm-49.63 28.646l24.815 14.325 24.812-14.324-24.812-14.32-24.813 14.324zm0-28.647l24.815 14.324 24.812-14.324-24.812-14.324-24.813 14.32zm49.627 28.648l24.813-14.32-24.816-14.324-24.812 14.324 24.812 14.323zm-49.625 28.65l24.816 14.326 24.812-14.324-24.812-14.324-24.813 14.324z"/><path d="M546.026 501.6l-24.812 14.325 24.812 14.324 24.813-14.328-24.817-14.324zm49.625 28.65l-24.81-14.325-24.81 14.324 24.812 14.32 24.81-14.324zm0-85.945l-24.81-14.324-24.81 14.328 24.812 14.324 24.81-14.324zm-49.62 0l-24.813 14.324 24.812 14.32 24.812-14.324L546.03 444.3zm595.5-200.536l24.812-14.328-24.813-14.324-24.813 14.324 24.812 14.324zm-595.5 315.124l-24.813 14.324 24.812 14.324 24.812-14.324-24.813-14.322zm49.624 57.296l-24.81-14.323-24.814 14.323 24.812 14.325 24.81-14.324zm-49.624-28.647l-24.813 14.324 24.812 14.323 24.81-14.323-24.812-14.325zm595.5-572.96L1166.34.26h-49.626l24.812 14.325zm-545.88 572.96l-24.81-14.322-24.814 14.328 24.813 14.324 24.81-14.324zm-49.624-171.886l-24.812 14.324 24.812 14.328 24.813-14.324-24.817-14.323zm0 114.592l-24.812 14.32 24.812 14.324 24.813-14.324-24.817-14.323zm297.75-458.37l24.812-14.327-24.812-14.324-24.813 14.324 24.813 14.325zm-794 114.59l-24.813 14.323 24.813 14.324 24.812-14.324-24.812-14.324zm0 458.37l-24.813 14.32 24.813 14.324 24.812-14.325-24.812-14.324zm12.86 49.87l11.952-6.9-24.812-14.325-24.813 14.323 11.954 6.9h25.718zM99.4 673.49l-24.81-14.326-24.814 14.326 24.812 14.323L99.4 673.49zm-24.81 14.322l-11.953 6.9h23.907l-11.954-6.9zM99.4 644.84l-24.81-14.322-24.814 14.322 24.812 14.325L99.4 644.84zM49.777 358.36l-24.813 14.325 24.813 14.324L74.59 372.68l-24.815-14.324zm0-28.647l-24.813 14.324 24.813 14.324 24.813-14.32-24.813-14.323z"/><path d="M1389.65 329.713l24.814-14.324-24.813-14.328-24.81 14.324 24.81 14.323zm0-28.648l24.814-14.324-24.813-14.32-24.81 14.324 24.81 14.325zm-49.624 0l24.813 14.324 24.81-14.328-24.81-14.324-24.817 14.324zm0-28.648l24.813 14.324 24.81-14.32-24.81-14.324-24.817 14.324zm49.625 0l24.817-14.324-24.813-14.324-24.81 14.32 24.81 14.324zm0-28.648l24.817-14.328-24.813-14.324-24.81 14.324 24.81 14.324zm-49.62 0l24.812 14.32 24.81-14.324-24.81-14.325-24.813 14.325zm0 114.59l24.812 14.322 24.81-14.324-24.81-14.324-24.813 14.324zm49.624 57.294l24.814-14.324-24.813-14.323-24.81 14.323 24.81 14.325zm-49.624-28.648l24.812 14.323 24.81-14.324-24.81-14.325-24.813 14.325zm0 28.647l24.812 14.324 24.81-14.324-24.81-14.324-24.813 14.323zm49.624-28.648l24.814-14.325-24.813-14.323-24.81 14.325 24.81 14.324zm0-28.65l24.814-14.323-24.813-14.324-24.81 14.323 24.81 14.325zm0 85.945l24.814-14.323-24.813-14.323-24.81 14.324 24.81 14.324zm-49.624-114.59l24.812 14.324 24.81-14.324-24.81-14.324-24.814 14.323zm0 343.776l24.812 14.323 24.81-14.327-24.81-14.325-24.814 14.323zm36.765 21.224h25.718l11.954-6.9-24.813-14.325-24.81 14.323 11.952 6.9zm0 0l-11.953-6.9-11.955 6.9h23.907zM992.652 215.12l-24.814-14.323-24.812 14.324 24.812 14.328 24.813-14.324zM99.4 186.474L74.587 172.15l-24.812 14.323 24.812 14.324L99.4 186.473zm595.5 286.48l-24.814 14.324L694.9 501.6l24.813-14.323-24.812-14.324zm0-28.648l-24.814 14.324 24.813 14.323 24.81-14.324L694.9 444.3z"/><path d="M992.65 558.897l24.813-14.324-24.812-14.324-24.81 14.32 24.814 14.324zm-49.624 0l24.812 14.324 24.812-14.32-24.81-14.323-24.813 14.324zm0 28.648l24.812 14.324 24.813-14.328-24.81-14.324-24.81 14.324zm49.625 0l24.816-14.324-24.812-14.32-24.812 14.324 24.814 14.325zM49.78 100.53l-24.813 14.323 24.813 14.324 24.812-14.324L49.78 100.53zm49.625 0L74.59 86.204 49.776 100.53l24.812 14.323L99.4 100.53zM992.65 71.88l24.813-14.325L992.65 43.23l-24.81 14.325 24.81 14.325zm-942.874 0L24.963 86.205l24.813 14.324L74.588 86.2 49.776 71.88zm0 85.943L24.963 172.15l24.813 14.323 24.812-14.324-24.812-14.328zm0-28.648L24.963 143.5l24.813 14.325L74.588 143.5l-24.812-14.323zm49.624 28.65L74.59 143.5l-24.812 14.325L74.59 172.15l24.81-14.326zM49.777 14.585L24.963 28.91l24.813 14.323L74.588 28.91 49.776 14.585zm49.625 0L74.59.26 49.776 14.586 74.588 28.91 99.4 14.585zM943.027 501.6l24.812 14.325 24.81-14.325-24.814-14.323-24.812 14.324zM49.777 14.586L74.587.26H24.963l24.813 14.325zM99.4 71.882L74.59 57.557 49.776 71.882l24.812 14.323L99.4 71.882zm0-28.65L74.59 28.91 49.776 43.233l24.812 14.324L99.4 43.233zM744.527 530.25l24.812 14.323 24.81-14.324-24.81-14.328-24.814 14.324zM99.4 129.176l-24.81-14.323-24.812 14.324 24.81 14.323L99.4 129.178zm893.25 85.944l24.813-14.323-24.812-14.324-24.81 14.324 24.814 14.324zm0-28.647l24.813-14.324-24.812-14.328-24.81 14.324 24.814 14.323zm0 143.24l24.813-14.324-24.812-14.328-24.81 14.324 24.814 14.323zm-49.624-28.648l24.812 14.324 24.813-14.328-24.81-14.324-24.81 14.324zm49.625 0l24.816-14.324-24.812-14.32-24.812 14.324 24.814 14.325zm-49.62 57.295l24.812 14.327 24.812-14.324-24.812-14.323-24.812 14.323zm49.625 0l24.813-14.32-24.812-14.325-24.812 14.324 24.814 14.322zM446.777 186.476l24.812-14.324-24.815-14.324-24.812 14.324 24.812 14.322zm-397 458.368L24.964 630.52.15 644.84l24.813 14.325 24.813-14.324zm0-28.647L24.963 601.87.15 616.192l24.813 14.324 24.813-14.324zm-24.813 71.62l-11.953 6.9h23.91l-11.953-6.9zm24.813-14.324L24.964 659.17.15 673.49l24.813 14.323 24.813-14.324zm0-143.24L24.964 515.93.15 530.25l24.813 14.323 24.813-14.324zm0 28.648l-24.813-14.323L.15 558.897l24.813 14.324 24.813-14.32zm0 28.65l-24.814-14.33L.15 587.546l24.813 14.324 24.813-14.325zM1389.65 272.42l24.814 14.324 24.812-14.322-24.812-14.323-24.813 14.323zm0-57.296l24.814 14.326 24.812-14.325-24.812-14.323-24.813 14.323zm0 85.946l24.814 14.323 24.812-14.325-24.812-14.324-24.813 14.326zm0-57.297l24.814 14.323 24.812-14.324-24.812-14.326-24.813 14.324zm0 143.24l24.814 14.323 24.812-14.324-24.812-14.326-24.813 14.324zm0-28.65l24.814 14.325 24.812-14.324-24.812-14.322-24.813 14.324zm0-28.647l24.814 14.324 24.812-14.324-24.812-14.324-24.813 14.322zm0-257.83l24.814 14.322 24.812-14.323-24.812-14.325-24.813 14.325zm0-28.65l24.814 14.324 24.812-14.324-24.812-14.323-24.813 14.323z"/><path d="M1389.65 415.657l24.814 14.324 24.812-14.32-24.812-14.324-24.813 14.324zm0-401.072l24.814 14.325 24.812-14.325L1414.464.26l-24.813 14.325zm0 143.24l24.814 14.324 24.812-14.328-24.812-14.324-24.813 14.324zm0 28.648l24.814 14.324 24.812-14.324-24.812-14.324-24.813 14.32zm0-85.944l24.814 14.32 24.812-14.324-24.812-14.325-24.813 14.325zm0 28.644l24.814 14.324 24.812-14.324-24.812-14.324-24.813 14.324zm36.767 565.537l-11.953-6.9-11.954 6.9h23.907zM49.777 501.6l-24.814-14.323L.15 501.6l24.813 14.325L49.776 501.6zM1389.65 673.49l24.814 14.323 24.812-14.324-24.812-14.328-24.813 14.324zm0-28.65l24.814 14.325 24.812-14.324-24.812-14.32-24.813 14.324zm0-143.24l24.814 14.325 24.812-14.324-24.812-14.32-24.813 14.324zm0-28.647l24.814 14.324 24.812-14.324-24.812-14.324-24.813 14.32zm0 57.296l24.814 14.32 24.812-14.324-24.812-14.325-24.813 14.325zm0-85.948l24.814 14.324 24.812-14.325-24.812-14.323-24.813 14.324zm0 143.24l24.814 14.324 24.812-14.325-24.812-14.323-24.813 14.324zm0 28.648l24.814 14.325 24.812-14.324-24.812-14.322-24.813 14.323zm0-57.295l24.814 14.324 24.812-14.325-24.812-14.324-24.813 14.325zM496.4 644.84l-24.812-14.323-24.812 14.324 24.812 14.328L496.4 644.84zm-49.624 0l-24.812 14.325 24.812 14.324 24.812-14.328-24.812-14.324zm49.625 28.65l-24.81-14.325-24.81 14.324 24.81 14.32 24.81-14.32zm0-315.13l-24.81-14.323-24.81 14.324 24.81 14.328 24.81-14.326zm-49.62 229.185l-24.812 14.324 24.812 14.32 24.812-14.324-24.813-14.325z"/><path d="M1340.026 71.882l24.813 14.323 24.81-14.323-24.81-14.325-24.817 14.325zm49.625-57.297L1364.84.26l-24.814 14.325 24.813 14.325 24.81-14.325zm0 0L1414.468.26h-49.625l24.81 14.325zm0 28.648l24.817-14.323-24.813-14.325-24.81 14.325 24.81 14.323zm0 57.296l24.817-14.328-24.813-14.323-24.81 14.323 24.81 14.324zm-49.62 28.644l24.812 14.324 24.81-14.324-24.81-14.324-24.813 14.324zm49.624 57.296l24.814-14.323-24.813-14.325-24.81 14.324 24.81 14.323zm-49.624-28.647l24.812 14.324 24.81-14.325-24.81-14.324-24.813 14.324zm0-57.296l24.812 14.323 24.81-14.323-24.81-14.325-24.813 14.324zm0 85.943l24.812 14.325 24.81-14.324-24.81-14.32-24.813 14.322zm49.624-57.295l24.814-14.324-24.813-14.32-24.81 14.322 24.81 14.325zm0 85.944l24.814-14.326-24.813-14.324-24.81 14.325 24.81 14.324zm0-57.298l24.814-14.324-24.813-14.324-24.81 14.324 24.81 14.326zM49.777 215.12l-24.813-14.323L.15 215.12l24.813 14.325 24.813-14.324zm397 114.593l-24.812 14.324 24.812 14.324 24.812-14.32-24.815-14.324zm-397-85.944L24.964 229.44.15 243.77l24.813 14.323 24.813-14.324zm0-85.948L24.963 143.5.15 157.826l24.813 14.324 24.813-14.325zm0-85.943L24.963 57.557.15 71.882l24.813 14.323 24.813-14.323zm0 28.647L24.963 86.204.15 100.53l24.813 14.323 24.813-14.324zm0 171.887L24.964 258.09.15 272.418l24.813 14.324 24.813-14.322zm0-143.24L24.964 114.85.15 129.178 24.964 143.5l24.813-14.323zm0 286.48L24.964 401.33.15 415.658l24.813 14.324 24.813-14.322z"/><path d="M49.776 444.305L24.963 429.98.15 444.306l24.813 14.324 24.813-14.325zm0 28.648L24.963 458.63.15 472.952l24.813 14.324 24.813-14.324zm0-85.944L24.963 372.68.15 387.01l24.813 14.323 24.813-14.324zm0-85.948L24.963 286.74.15 301.066l24.813 14.324 24.813-14.325zm0 28.648l-24.813-14.32L.15 329.712l24.813 14.324 24.813-14.324zm0 28.65l-24.813-14.324L.15 358.36l24.813 14.325 24.813-14.324zm0-171.888L24.963 172.15.15 186.472l24.813 14.324 24.813-14.324zm397 28.648l24.812-14.322-24.812-14.324-24.812 14.324 24.812 14.324zm0 28.65l24.812-14.324-24.812-14.324-24.812 14.325 24.812 14.324zM496.4 129.177l-24.812-14.324-24.812 14.324 24.812 14.324 24.812-14.32zm0 57.296l-24.81-14.322-24.812 14.325L471.59 200.8l24.813-14.325zm248.126 114.592l-24.813-14.324-24.812 14.327 24.816 14.324 24.813-14.325zm-297.75-143.24l24.812-14.324-24.812-14.32-24.812 14.323 24.812 14.326zm49.625 0L471.59 143.5l-24.812 14.325 24.812 14.324 24.813-14.328zm0 57.296l-24.81-14.32-24.812 14.324 24.812 14.326 24.81-14.326zm-49.62 85.947l-24.813 14.324 24.812 14.323 24.81-14.324-24.812-14.326zm49.624 28.648L471.59 315.39l-24.812 14.323 24.812 14.324 24.813-14.324zm0-28.648L471.59 286.74l-24.812 14.325 24.812 14.324 24.813-14.328zm0-57.296l-24.812-14.325-24.81 14.324 24.81 14.322 24.81-14.32zm-49.624 0l-24.813 14.323 24.812 14.324 24.81-14.324-24.81-14.324zm0 28.647l-24.813 14.324 24.812 14.326 24.81-14.324-24.81-14.32zm49.624 0l-24.812-14.324-24.81 14.324 24.81 14.324 24.814-14.322z"/><path d="M496.4 43.233L471.59 28.91l-24.812 14.323 24.812 14.324 24.81-14.324zm-49.624-28.648L471.588.26h-49.624l24.812 14.325zm49.625 0L471.59.26l-24.812 14.325L471.59 28.91l24.81-14.325zm-446.62 0L24.962.26.15 14.586 24.964 28.91l24.813-14.325zm397 114.592l24.81-14.324-24.812-14.324-24.812 14.32 24.812 14.324zm0-85.944l24.81-14.323-24.813-14.325-24.812 14.325 24.812 14.323zm0 57.296L471.59 86.2 446.78 71.88l-24.812 14.323 24.812 14.324zm49.624 0L471.59 86.2l-24.812 14.324 24.812 14.323 24.81-14.32zM446.78 71.88l24.81-14.327L446.78 43.23l-24.812 14.324 24.812 14.325zm49.624 0L471.59 57.555 446.778 71.88l24.812 14.324L496.4 71.88zM49.777 43.23L24.963 28.91.15 43.233l24.813 14.324 24.813-14.324zm0 0L24.963 57.558l24.813 14.325 24.812-14.325-24.812-14.324zm595.5 601.61l-24.812 14.323 24.812 14.324 24.813-14.327-24.814-14.324zm49.625 0l-24.812-14.325-24.812 14.324 24.813 14.326 24.81-14.324zm0 28.647L670.09 659.16l-24.812 14.324 24.813 14.323 24.81-14.323zm-36.765 21.222l11.953-6.9-24.812-14.326-24.812 14.323 11.953 6.9h25.715zm11.953-6.9l-11.953 6.9h23.907l-11.954-6.9zm-24.812-100.27l-24.812 14.324 24.812 14.323 24.813-14.323-24.81-14.325zm49.625 28.65l-24.812-14.326-24.81 14.323 24.814 14.325 24.81-14.324zm-49.624 0l-24.815 14.322 24.812 14.324 24.812-14.324-24.815-14.324zm49.622-28.65l-24.812-14.32-24.81 14.324 24.812 14.324 24.81-14.326zM173.836 687.81l-11.953 6.9h23.907l-11.953-6.9zm-24.812-100.27l-24.813 14.325 24.814 14.322 24.812-14.324-24.812-14.325zm0-28.647l-24.813 14.324 24.814 14.326 24.812-14.324-24.812-14.324zm49.625 0l-24.81-14.324-24.814 14.323 24.812 14.324 24.81-14.32zm-49.624-28.648l-24.813 14.322 24.813 14.324 24.812-14.323-24.814-14.324zm0-257.834l-24.813 14.325 24.813 14.325 24.812-14.324-24.814-14.323zm49.625 315.13l-24.81-14.32-24.812 14.325 24.812 14.324 24.813-14.328zM1290.4 444.3l24.815-14.325-24.813-14.323-24.81 14.324 24.81 14.325zM149.028 616.193l-24.813 14.323 24.813 14.324 24.812-14.32-24.815-14.324zm49.625-544.31l-24.812-14.33-24.812 14.326 24.812 14.324 24.813-14.323zM744.528 673.49l24.812 14.32 24.813-14.323-24.812-14.325-24.81 14.324zm0-28.65l24.812 14.323 24.813-14.324-24.812-14.325-24.81 14.324zM198.65 272.416l-24.812-14.324-24.812 14.324 24.812 14.324 24.813-14.322zM149.027 43.233L173.84 28.91l-24.813-14.325-24.813 14.325 24.813 14.323zm49.625 0L173.84 28.91l-24.812 14.323 24.812 14.324 24.813-14.324zm0-28.648L173.84.26l-24.812 14.325L173.84 28.91l24.813-14.325zm-49.624 0L173.838.26h-49.625l24.813 14.325zm595.5 544.312l24.812 14.324 24.813-14.32-24.812-14.324-24.81 14.324zm49.625 28.648l24.813-14.324-24.812-14.32-24.812 14.324 24.813 14.325zm0-28.648l24.813-14.324-24.812-14.324-24.812 14.32 24.813 14.324zm0 85.944l24.813-14.32-24.812-14.324-24.812 14.324 24.813 14.323zm-49.624-28.644l24.81 14.324 24.812-14.325-24.812-14.324-24.81 14.325z"/><path d="M794.15 616.193l24.813-14.324-24.812-14.328-24.81 14.324 24.814 14.323zm-49.624-28.648l24.812 14.324 24.813-14.328-24.81-14.324-24.81 14.324zm49.625 85.944l24.816-14.328-24.812-14.324-24.812 14.324 24.814 14.324zM149.03 186.47l-24.813 14.324 24.813 14.324 24.812-14.323-24.813-14.324zm49.625 0l-24.813-14.32-24.812 14.323 24.812 14.324 24.813-14.324zm0 28.648l-24.812-14.323-24.81 14.324 24.81 14.324 24.814-14.324zm0 28.65l-24.812-14.325-24.81 14.324 24.81 14.322 24.814-14.326zm-49.624 0l-24.813 14.323 24.813 14.326 24.81-14.324-24.81-14.323zm0-28.65l-24.813 14.325 24.813 14.324 24.81-14.326-24.81-14.322zm0-57.295l-24.813 14.324 24.813 14.322 24.81-14.326-24.81-14.325zm0-85.943l24.81-14.325-24.81-14.324-24.813 14.326L149.03 71.88zm49.625 28.647L173.84 86.203l-24.812 14.324 24.812 14.323 24.813-14.323zm-49.626-28.65L124.214 86.2l24.813 14.324L173.84 86.2l-24.813-14.324zm49.624 85.943L173.84 143.5l-24.812 14.325 24.812 14.324 24.813-14.328zm-49.624-28.648L124.212 143.5l24.813 14.325 24.812-14.324-24.812-14.32zm49.624 0L173.84 114.85l-24.81 14.325 24.81 14.324 24.814-14.326zm-49.624-28.648l-24.814 14.323 24.813 14.324 24.81-14.322-24.81-14.324zm49.624 515.663l-24.814-14.32-24.812 14.323 24.812 14.324 24.813-14.324zm1091.746 57.3l24.814-14.325-24.813-14.324-24.81 14.326 24.81 14.324zm-49.624 0l24.813 14.323 24.81-14.324-24.81-14.326-24.817 14.324zm36.766 21.224l-11.953-6.9-11.958 6.9h23.907zm0 0h25.718l11.954-6.9-24.813-14.323-24.81 14.322 11.955 6.9z"/><path d="M1290.4 243.77l24.814 14.323 24.812-14.324-24.812-14.328-24.813 14.324zm49.626 28.647l24.813-14.324-24.817-14.324-24.812 14.32 24.813 14.324zm0 28.648l24.813-14.324-24.817-14.32-24.812 14.324 24.813 14.325zm-49.625-28.648l24.817 14.324 24.812-14.32-24.813-14.324-24.813 14.324zm0 315.128l24.817 14.324 24.812-14.328-24.813-14.324-24.813 14.324zm0 28.648l24.817 14.324 24.812-14.324-24.813-14.324-24.813 14.32zm49.63 0l24.812-14.324-24.813-14.328-24.813 14.324 24.812 14.323zm0 28.648l24.812-14.32-24.813-14.324-24.813 14.324 24.812 14.323zm-1191-85.94l-24.814-14.324-24.816 14.32 24.813 14.325 24.813-14.32zm1141.37 85.94l24.814 14.325 24.812-14.324-24.812-14.32-24.813 14.324zm0-85.943l24.814 14.324 24.812-14.32-24.812-14.324L1290.4 558.9zm49.626 0l24.813-14.324-24.817-14.324-24.812 14.32 24.813 14.324zm0 28.648l24.813-14.324-24.817-14.32-24.812 14.324 24.813 14.325zm0 85.944l24.813-14.328-24.817-14.324-24.812 14.324 24.813 14.324zm-49.625 0l24.817 14.32 24.812-14.324-24.813-14.325-24.813 14.325zm36.77 21.22h25.718l11.954-6.9-24.813-14.324-24.813 14.323 11.953 6.9zm0 0l-11.953-6.9-11.954 6.9h23.908zm12.86-508.24l24.81-14.324-24.812-14.325-24.812 14.325 24.812 14.323zm0-28.65l24.81-14.322-24.812-14.324-24.812 14.324 24.812 14.326zm-49.626 0l24.814 14.326 24.812-14.325-24.813-14.323-24.813 14.324zm49.626 57.298l24.812-14.324-24.813-14.324-24.814 14.324 24.812 14.324zm-49.626-28.648l24.814 14.324 24.812-14.324-24.813-14.324-24.813 14.322z"/><path d="M1340.026 129.177l24.813-14.324-24.817-14.324-24.812 14.32 24.813 14.324zm0-28.648L1364.84 86.2l-24.817-14.323-24.812 14.323 24.813 14.324zm-49.625 28.644l24.817 14.324 24.812-14.324-24.813-14.324-24.813 14.324zm0-28.648l24.817 14.323 24.812-14.324-24.813-14.325-24.813 14.325zm0 114.59l24.817 14.325 24.812-14.323-24.813-14.324-24.813 14.324zM99.4 43.234L74.59 57.557 99.4 71.882l24.813-14.325L99.4 43.233zm49.626 57.296l-24.813-14.325L99.4 100.53l24.813 14.323 24.813-14.324zM99.4 71.88L74.59 86.205 99.4 100.53l24.813-14.325L99.4 71.882zm0 28.647l-24.81 14.325 24.81 14.325 24.813-14.324L99.4 100.53zm49.626-28.648L124.213 57.55 99.4 71.882l24.813 14.323 24.813-14.323zM99.4 14.582L124.214.26H74.588L99.4 14.586zm1191 57.297l24.814 14.324 24.812-14.323-24.812-14.323L1290.4 71.88zM149.027 14.586L124.213.26 99.4 14.586l24.813 14.325 24.813-14.322zm0 28.648L124.213 28.91 99.4 43.233l24.813 14.324 24.813-14.324zm595.5 114.592L769.34 143.5l-24.813-14.322-24.813 14.324 24.813 14.325zm0-114.592L719.713 28.91 694.9 43.233l24.813 14.324 24.813-14.324zm0 28.65l-24.813-14.326L694.9 71.882l24.813 14.323 24.813-14.323zm0 0l24.812-14.326-24.815-14.324-24.813 14.324 24.813 14.325zm0 28.646l24.812-14.327-24.815-14.323-24.813 14.324 24.813 14.324zm0-85.947L719.713.26 694.9 14.586l24.813 14.325 24.813-14.322zm595.5 57.297l24.813-14.324-24.814-14.324-24.812 14.324 24.812 14.325z"/><path d="M744.526 43.233l24.812-14.323-24.812-14.325-24.813 14.325 24.813 14.323zm0 57.296L719.713 86.2 694.9 100.53l24.813 14.323 24.813-14.324zm0-85.948L769.338.26h-49.625l24.813 14.325zm595.5 28.648l24.813-14.322-24.817-14.326-24.812 14.325 24.813 14.322zm0-28.647L1364.84.26h-49.626l24.812 14.325zm0 0L1315.214.26 1290.4 14.586l24.814 14.325 24.812-14.322zm0 28.648l-24.812-14.32-24.814 14.32 24.815 14.324 24.812-14.324zm-595.5 85.946l-24.813-14.324-24.812 14.325 24.816 14.324 24.813-14.323zm-595.5 0l-24.813-14.324L99.4 129.178l24.813 14.324 24.813-14.32zm595.5 0l24.812-14.324-24.812-14.323-24.813 14.322 24.813 14.325zm0 28.648L719.713 143.5 694.9 157.826l24.813 14.324 24.813-14.325zM99.4 43.234l24.813-14.324L99.4 14.585 74.59 28.91 99.4 43.233zm49.626 315.127l-24.813-14.32L99.4 358.36l24.813 14.325 24.813-14.324zm-49.625 0L74.59 372.69 99.4 387.01l24.813-14.325L99.4 358.36zm0-28.644L74.59 344.04l24.81 14.32 24.813-14.323L99.4 329.713zm49.63 57.296l-24.814-14.324L99.4 387.01l24.813 14.323 24.813-14.324zm595.5-114.592l-24.814-14.324-24.812 14.324 24.813 14.324 24.813-14.322zm0 0l24.81-14.324-24.812-14.324-24.813 14.322 24.813 14.324zM99.4 387.01l-24.81 14.322 24.81 14.325 24.813-14.324L99.4 387.01zm0-85.945L74.59 315.39l24.81 14.322 24.813-14.324L99.4 301.064zm49.626 28.648l-24.813-14.324L99.4 329.71l24.813 14.324 24.813-14.324zM99.4 444.305L74.59 458.63l24.81 14.322 24.813-14.324L99.4 444.304z"/><path d="M99.4 472.953l-24.81 14.324L99.4 501.6l24.813-14.323L99.4 472.953zm0 28.648L74.59 515.93 99.4 530.25l24.813-14.325L99.4 501.6zm49.626 0l-24.813-14.32L99.4 501.6l24.813 14.325 24.813-14.324zm0 28.65l-24.813-14.322L99.4 530.25l24.813 14.323 24.813-14.324zm0-114.59l-24.813-14.324-24.813 14.32 24.813 14.325 24.813-14.32zm-49.625 0l-24.81 14.32 24.81 14.327 24.814-14.324L99.4 415.658zm49.63 57.296l-24.814-14.324-24.816 14.32 24.813 14.325 24.813-14.324zm0-28.648l-24.814-14.324L99.4 444.306l24.813 14.324 24.813-14.325zm595.5-200.536l-24.814-14.324L694.9 243.77l24.813 14.323 24.813-14.324zm0-57.296l-24.814-14.324-24.812 14.322 24.813 14.324 24.813-14.324zm-595.5 85.944l-24.814-14.324-24.816 14.32 24.813 14.325 24.813-14.32zm0-28.648l-24.814-14.326L99.4 243.77l24.813 14.323 24.813-14.324zM99.4 215.12l-24.81 14.326L99.4 243.77l24.813-14.325L99.4 215.12zm645.126 28.65l24.812-14.325-24.812-14.324-24.813 14.328 24.813 14.324zm-595.5-28.65l-24.813-14.323L99.4 215.12l24.813 14.325 24.813-14.324zM99.4 186.474l-24.81 14.323L99.4 215.12l24.813-14.323L99.4 186.473zm0-28.648L74.59 172.15l24.81 14.322 24.813-14.324L99.4 157.824zm49.626 0L124.213 143.5 99.4 157.826l24.813 14.324 24.813-14.325zm0 28.648l-24.813-14.324L99.4 186.472l24.813 14.324 24.813-14.324zM99.4 243.77l-24.81 14.322 24.81 14.325 24.813-14.324L99.4 243.77zm645.126-28.65l24.812-14.323-24.812-14.324-24.813 14.324 24.813 14.324zM99.4 272.418L74.59 286.74l24.81 14.326 24.813-14.324L99.4 272.418z"/><path d="M99.4 530.25l-24.81 14.322 24.81 14.325 24.813-14.324L99.4 530.25zm645.126-315.13l-24.813-14.323L694.9 215.12l24.813 14.325 24.813-14.324zm-595.5 85.945l-24.813-14.324L99.4 301.07l24.813 14.324 24.813-14.324zm595.5-114.592l24.812-14.324-24.812-14.328-24.813 14.324 24.813 14.323zM99.4 129.177L74.59 143.5l24.81 14.326 24.813-14.324L99.4 129.178z"/></g></svg>