<svg viewBox="0 0 500 500" xmlns="http://www.w3.org/2000/svg" fill-rule="evenodd" clip-rule="evenodd" stroke-linejoin="round" stroke-miterlimit="1.414"><path d="M155.885 130v40l-17.32-10-17.32-10 34.64-20zm34.64-20v40l-34.64 20v-40l34.64-20z" fill="#E38E00" stroke-width=".85" stroke="#492E00"/><path d="M225.167 90.145v40.29l-34.892 20.145v-40.29l34.892-20.144z" fill="#E38E00" stroke-width=".846" stroke="#492E00"/><path d="M225.167 170v40l-17.32-10-17.32-10 34.64-20zm69.283-80v40l-34.642 20v-40l34.64-20zm103.922 20v40l-34.64 20v-40l34.64-20zm0 0l34.64 20-34.64 20v-40zM363.73 90v40l-34.64 20v-40l34.64-20zm-69.28 80v40l-34.642 20v-40l34.64-20zm34.64-20v40l-34.64 20v-40l34.64-20z" fill="#E38E00" stroke-width=".85" stroke="#492E00"/><path d="M363.73 130v40l-34.64 20v-40l34.64-20z" fill="#E38E00" stroke-width=".85" stroke="#492E00"/><path d="M225.166 90v40l34.64 20v-40l-34.64-20zm69.282 0v40l34.64 20v-40l-34.64-20zm34.642 20v40l34.64 20v-40l-34.64-20zm-103.924 60v40l34.64 20v-40l-34.64-20z" fill="#FFD081" stroke-width=".85" stroke="#492E00"/><path d="M121.244 150l34.64-20-34.64-20-34.64 20 34.64 20m34.64-20l34.64-20-34.64-20-34.64 20 34.64 20" fill="#FFA000" stroke-width=".85" stroke-linecap="square" stroke="#492E00"/><path d="M190.275 110.29l34.892-20.144L190.275 70l-34.892 20.146 34.892 20.145" fill="#FFA000" stroke-width=".846" stroke-linecap="square" stroke="#492E00"/><path d="M225.418 90.436L260.31 70.29l-34.892-20.144-34.892 20.145 34.892 20.147" fill="#FFA000" stroke-width=".846" stroke-linecap="square" stroke="#492E00"/><path d="M225.418 90.436L260.31 70.29l-34.892-20.144-34.892 20.145 34.892 20.147" fill="#FFA000" stroke-width=".846" stroke-linecap="square" stroke="#492E00"/><path d="M259.557 70.436L294.45 50.29l-34.893-20.144-34.892 20.145 34.892 20.147" fill="#FFA000" stroke-width=".846" stroke-linecap="square" stroke="#492E00"/><path d="M190.526 190l34.64-20-34.64-20-34.64 20 34.64 20m69.282-80l34.64-20-34.64-20-34.64 20 34.64 20" fill="#FFA000" stroke-width=".85" stroke-linecap="square" stroke="#492E00"/><path d="M294.45 90l34.64-20-34.64-20-34.642 20 34.64 20" fill="#FFA000" stroke-width=".85" stroke-linecap="square" stroke="#492E00"/><path d="M329.09 110l34.64-20-34.64-20-34.64 20 34.64 20m34.64 20l34.642-20-34.64-20-34.642 20 34.64 20m-103.922 60l34.64-20-34.64-20-34.64 20 34.64 20" fill="#FFA000" stroke-width=".85" stroke-linecap="square" stroke="#492E00"/><path d="M294.45 170l34.64-20-34.64-20-34.642 20 34.64 20m-69.28 0l34.64-20-34.64-20-34.64 20 34.64 20" fill="#FFA000" stroke-width=".85" stroke-linecap="square" stroke="#492E00"/><path d="M225.167 170l34.64-20-34.64-20-34.64 20 34.64 20" fill="#FFA000" stroke-width=".85" stroke-linecap="square" stroke="#492E00"/><path d="M259.808 250L51.962 130v240l207.846 120V250z" fill="#C4C4C4" stroke-width=".85" stroke="#3C3C3C"/><path d="M259.807 250l207.846-120v240L259.807 490V250z" fill="#8A8A8A" stroke-width=".85" stroke="#3C3C3C"/><path d="M51.962 130L259.808 10l207.846 120-207.846 120L51.962 130zm34.64 0L259.81 30l173.205 100L259.81 230 86.603 130z" fill="#D7D7D7" stroke-width=".85" stroke="#3C3C3C"/></svg>