<svg viewBox="0 0 500 500" xmlns="http://www.w3.org/2000/svg" fill-rule="evenodd" clip-rule="evenodd" stroke-linejoin="bevel" stroke-miterlimit="1.414"><path d="M103.923 160l155.885 90m0 0v194.417" fill="none" stroke-width="5.002" stroke-dasharray="23.93,11.97,0,0" stroke="#595959"/><path d="M259.808 492.887L49.462 371.443V128.557L259.808 7.113l210.346 121.444v242.886L259.808 492.887zm0-5.774l205.346-118.556V131.443L259.808 12.887 54.462 131.443v237.114l205.346 118.556z" fill="#595959"/><path d="M415.692 160v60l51.962-30v-60l-51.962 30z" fill="none" stroke-width="5" stroke-linecap="square" stroke-linejoin="round" stroke="#595959"/><path d="M415.692 220v60l51.962-30v-60l-51.962 30z" fill="none" stroke-width="5" stroke-linecap="square" stroke-linejoin="round" stroke="#595959"/><path d="M415.692 280v60l51.962-30v-60l-51.962 30zm-311.77-120v60l51.963-30v-60l-51.962 30zm52.213-30.145v60l51.962-30v-60l-51.962 30z" fill="none" stroke-width="5" stroke-linecap="square" stroke-linejoin="round" stroke="#595959"/><path d="M207.846 100v60l51.962-30V70l-51.962 30zm207.842 60v60l-51.962-30v-60l51.962 30z" fill="none" stroke-width="5" stroke-linecap="square" stroke-linejoin="round" stroke="#595959"/><path d="M363.728 130v60l-51.962-30v-60l51.962 30z" fill="none" stroke-width="5" stroke-linecap="square" stroke-linejoin="round" stroke="#595959"/><path d="M311.77 100v60l-51.963-30V70l51.962 30zM103.923 220v60l51.962-30v-60l-51.962 30zm311.765 0v60l-51.962-30v-60l51.962 30z" fill="none" stroke-width="5" stroke-linecap="square" stroke-linejoin="round" stroke="#595959"/><path d="M415.688 280v60l-51.962-30v-60l51.962 30zm-311.765 0v60l51.962-30v-60l-51.962 30zm311.77 60v60l51.96-30v-60l-51.96 30z" fill="none" stroke-width="5" stroke-linecap="square" stroke-linejoin="round" stroke="#595959"/><path d="M260.843 493.485l-55.497-32.042V397.36l1.465-.845 55.5 32.042v64.082l-1.466.844zm-3.535-7.815v-54.227l-46.962-27.113v54.227l46.962 27.113z" fill="#595959"/><path d="M258.772 493.485l-1.465-.846v-64.084l55.497-32.042 1.465.846v64.083l-55.5 32.042zm3.535-7.815l46.962-27.113V404.33l-46.964 27.113v54.227z" fill="#595959"/><path d="M310.734 463.485l-1.465-.846v-64.084l55.495-32.042 1.465.846v64.083l-55.496 32.042zm3.535-7.815l46.96-27.113V374.33l-46.96 27.113v54.227z" fill="#595959"/><path d="M362.695 433.485l-1.465-.846v-64.084l55.497-32.042 1.465.846v64.083l-55.497 32.042zm3.535-7.815l46.962-27.113V344.33l-46.962 27.113v54.227zm-157.35 37.815l-55.496-32.042V367.36l1.465-.845 55.495 32.042v64.082l-1.465.844zm-3.534-7.815v-54.227l-46.962-27.113v54.227l46.962 27.113z" fill="#595959"/><path d="M156.92 433.485l-55.497-32.042V337.36l1.465-.845 55.497 32.042v64.082l-1.465.844zm-3.535-7.815v-54.227l-46.962-27.113v54.227l46.962 27.113z" fill="#595959"/><path d="M104.958 403.485L49.46 371.443V307.36l1.466-.845 55.497 32.042v64.082l-1.465.844zm-3.535-7.815v-54.227L54.46 314.33v54.227l46.963 27.113z" fill="#595959"/><path d="M104.958 343.485L49.46 311.443V247.36l1.466-.845 55.497 32.042v64.082l-1.465.844zm-3.535-7.815v-54.227L54.46 254.33v54.227l46.963 27.113z" fill="#595959"/><path d="M104.958 283.485L49.46 251.443V187.36l1.466-.845 55.497 32.042v64.082l-1.465.844zm-3.535-7.815v-54.227L54.46 194.33v54.227l46.963 27.113z" fill="#595959"/><path d="M104.958 223.485L49.46 191.443V127.36l1.466-.845 55.497 32.042v64.082l-1.465.844zm-3.535-7.815v-54.227L54.46 134.33v54.227l46.963 27.113z" fill="#595959"/><path d="M103.923 160l51.962-30-51.962-30-51.96 30 51.96 30z" fill="none" stroke-width="5" stroke-linecap="square" stroke-linejoin="round" stroke="#595959"/><path d="M103.923 160l51.962-30-51.962-30-51.96 30 51.96 30z" fill="none" stroke-width="5" stroke-linecap="square" stroke-linejoin="round" stroke="#595959"/><path d="M103.923 100l51.962 30 51.96-30-51.96-30-51.962 30z" fill="none" stroke-width="5" stroke-linecap="square" stroke-linejoin="round" stroke="#595959"/><path d="M155.885 70l51.962 30 51.96-30-51.96-30-51.962 30z" fill="none" stroke-width="5" stroke-linecap="square" stroke-linejoin="round" stroke="#595959"/><path d="M207.846 40l51.962 30 51.96-30-51.96-30-51.962 30zm51.962 30l51.962 30 51.96-30-51.96-30-51.962 30z" fill="none" stroke-width="5" stroke-linecap="square" stroke-linejoin="round" stroke="#595959"/><path d="M311.77 100l51.96 30 51.962-30-51.96-30-51.963 30zm51.96 30l51.963 30 51.96-30-51.96-30-51.962 30zM103.923 340l51.962 30 51.96-30-51.96-30-51.962 30zm311.77 0l-51.963 30-51.96-30 51.96-30 51.962 30z" fill="none" stroke-width="5" stroke-linecap="square" stroke-linejoin="round" stroke="#595959"/><path d="M155.885 370l51.962 30 51.96-30-51.96-30-51.962 30zm207.845 0l-51.96 30-51.962-30 51.96-30 51.963 30z" fill="none" stroke-width="5" stroke-linecap="square" stroke-linejoin="round" stroke="#595959"/><path d="M207.846 400l51.962 30 51.96-30-51.96-30-51.962 30z" fill="none" stroke-width="5" stroke-linecap="square" stroke-linejoin="round" stroke="#595959"/><path d="M415.692 160l-155.884 90" fill="none" stroke-width="5" stroke-dasharray="10,5,0,0" stroke="#595959"/></svg>