<svg viewBox="0 0 600 700" xmlns="http://www.w3.org/2000/svg" fill-rule="evenodd" clip-rule="evenodd" stroke-linejoin="bevel" stroke-miterlimit="1.414"><path d="M153.923 151.133l155.885 90M309.808 241.133V435.55" fill="none" stroke-width="5.0020236" stroke-dasharray="23.93,11.97,0,0" stroke="#595959"/><path d="M309.808 484.02L99.462 362.574V119.69L309.808-1.756 520.154 119.69v242.885L309.808 484.02zm0-5.775L515.154 359.69V122.574L309.808 4.02 104.462 122.574V359.69l205.346 118.555z" fill="#595959"/><path d="M465.692 151.132v60l51.962-30v-60l-51.962 30z" fill="none" stroke-width="5" stroke-linecap="square" stroke-linejoin="round" stroke="#595959"/><path d="M465.692 211.132v60l51.962-30v-60l-51.962 30z" fill="none" stroke-width="5" stroke-linecap="square" stroke-linejoin="round" stroke="#595959"/><path d="M465.692 271.132v60l51.962-30v-60l-51.962 30zM153.923 151.132v60l51.962-30v-60l-51.962 30zM206.135 120.988v60l51.962-30v-60l-51.962 30z" fill="none" stroke-width="5" stroke-linecap="square" stroke-linejoin="round" stroke="#595959"/><path d="M257.846 91.132v60l51.962-30v-60l-51.962 30zM465.688 151.132v60l-51.962-30v-60l51.962 30z" fill="none" stroke-width="5" stroke-linecap="square" stroke-linejoin="round" stroke="#595959"/><path d="M413.728 121.132v60l-51.962-30v-60l51.962 30z" fill="none" stroke-width="5" stroke-linecap="square" stroke-linejoin="round" stroke="#595959"/><path d="M361.77 91.132v60l-51.963-30v-60l51.962 30zM153.923 211.132v60l51.962-30v-60l-51.962 30zM465.688 211.132v60l-51.962-30v-60l51.962 30z" fill="none" stroke-width="5" stroke-linecap="square" stroke-linejoin="round" stroke="#595959"/><path d="M465.688 271.132v60l-51.962-30v-60l51.962 30zM153.923 271.132v60l51.962-30v-60l-51.962 30zM465.692 331.132v60l51.962-30v-60l-51.962 30z" fill="none" stroke-width="5" stroke-linecap="square" stroke-linejoin="round" stroke="#595959"/><path d="M310.843 484.617l-55.497-32.042v-64.082l1.465-.846 55.498 32.042v64.08l-1.465.847zm-3.535-7.815v-54.227l-46.962-27.113v54.227l46.962 27.112z" fill="#595959"/><path d="M308.772 484.617l-1.465-.846v-64.08l55.497-32.043 1.465.846v64.082l-55.498 32.042zm3.535-7.815l46.962-27.113V395.46l-46.963 27.113v54.227z" fill="#595959"/><path d="M360.734 454.617l-1.465-.846v-64.08l55.496-32.043 1.465.846v64.082l-55.496 32.042zm3.535-7.815l46.96-27.113V365.46l-46.96 27.113v54.227z" fill="#595959"/><path d="M412.695 424.617l-1.465-.846v-64.08l55.497-32.043 1.465.846v64.082l-55.497 32.042zm3.535-7.815l46.962-27.113V335.46l-46.962 27.113v54.227zM258.88 454.617l-55.496-32.042v-64.082l1.465-.846 55.496 32.042v64.08l-1.465.847zm-3.534-7.815v-54.227l-46.962-27.113v54.227l46.962 27.112z" fill="#595959"/><path d="M206.92 424.617l-55.497-32.042v-64.082l1.465-.846 55.497 32.042v64.08l-1.465.847zm-3.535-7.815v-54.227l-46.962-27.113v54.227l46.962 27.112z" fill="#595959"/><path d="M154.958 394.618L99.46 362.575v-64.082l1.466-.846 55.497 32.043v64.082l-1.465.846zm-3.535-7.815v-54.228l-46.962-27.113v54.228l46.963 27.113z" fill="#595959"/><path d="M154.958 334.618L99.46 302.575v-64.082l1.466-.846 55.497 32.043v64.082l-1.465.846zm-3.535-7.815v-54.228l-46.962-27.113v54.228l46.963 27.113z" fill="#595959"/><path d="M154.958 274.618L99.46 242.575v-64.082l1.466-.846 55.497 32.043v64.082l-1.465.846zm-3.535-7.815v-54.228l-46.962-27.113v54.228l46.963 27.113z" fill="#595959"/><path d="M154.958 214.617L99.46 182.575v-64.082l1.466-.846 55.497 32.042v64.08l-1.465.847zm-3.535-7.815v-54.227l-46.962-27.113v54.227l46.963 27.112z" fill="#595959"/><path d="M153.923 151.132l51.962-30-51.962-30-51.96 30 51.96 30z" fill="none" stroke-width="5" stroke-linecap="square" stroke-linejoin="round" stroke="#595959"/><path d="M153.923 151.132l51.962-30-51.962-30-51.96 30 51.96 30z" fill="none" stroke-width="5" stroke-linecap="square" stroke-linejoin="round" stroke="#595959"/><path d="M153.923 91.132l51.962 30 51.96-30-51.96-30-51.962 30zM205.885 61.132l51.962 30 51.96-30-51.96-30-51.962 30z" fill="none" stroke-width="5" stroke-linecap="square" stroke-linejoin="round" stroke="#595959"/><path d="M257.846 31.132l51.962 30 51.96-30-51.96-30-51.962 30z" fill="none" stroke-width="5" stroke-linecap="square" stroke-linejoin="round" stroke="#595959"/><path d="M309.808 61.132l51.962 30 51.96-30-51.96-30-51.962 30z" fill="none" stroke-width="5" stroke-linecap="square" stroke-linejoin="round" stroke="#595959"/><path d="M361.77 91.132l51.96 30 51.962-30-51.96-30-51.963 30zM413.73 121.132l51.963 30 51.96-30-51.96-30-51.962 30zM153.923 331.132l51.962 30 51.96-30-51.96-30-51.962 30zM465.692 331.132l-51.962 30-51.96-30 51.96-30 51.962 30zM205.885 361.132l51.962 30 51.96-30-51.96-30-51.962 30z" fill="none" stroke-width="5" stroke-linecap="square" stroke-linejoin="round" stroke="#595959"/><path d="M413.73 361.132l-51.96 30-51.962-30 51.96-30 51.963 30zM257.846 391.132l51.962 30 51.96-30-51.96-30-51.962 30z" fill="none" stroke-width="5" stroke-linecap="square" stroke-linejoin="round" stroke="#595959"/><path d="M465.692 151.132l-155.884 90" fill="none" stroke-width="5" stroke-dasharray="10,5,0,0" stroke="#595959"/><path d="M259.808 490v260" fill="none" stroke-width="6.22" stroke-dasharray="12.44,6.22,0,0" stroke="#595959" transform="matrix(.82152 0 0 .7859 96.37 97.07)"/><path d="M259.808 490v260" fill="none" stroke-width="5.4" stroke-dasharray="10.79,5.4,0,0" stroke="#595959" transform="matrix(1.00408 0 0 .84217 48.94 69.506)"/></svg>