<svg width="100" height="140" viewBox="0 0 100 140" xmlns="http://www.w3.org/2000/svg"><title>home-logo</title><defs><filter x="-50%" y="-50%" width="200%" height="200%" filterUnits="objectBoundingBox" id="a"><feOffset dy="1" in="SourceAlpha" result="shadowOffsetInner1"/><feGaussianBlur stdDeviation="3" in="shadowOffsetInner1" result="shadowBlurInner1"/><feComposite in="shadowBlurInner1" in2="SourceAlpha" operator="arithmetic" k2="-1" k3="1" result="shadowInnerInner1"/><feColorMatrix values="0 0 0 0 0.957722151 0 0 0 0 0.560369344 0 0 0 0 0 0 0 0 0.591536458 0" in="shadowInnerInner1" result="shadowMatrixInner1"/><feMerge><feMergeNode in="SourceGraphic"/><feMergeNode in="shadowMatrixInner1"/></feMerge></filter><filter x="-50%" y="-50%" width="200%" height="200%" filterUnits="objectBoundingBox" id="b"><feOffset dy="1" in="SourceAlpha" result="shadowOffsetInner1"/><feGaussianBlur stdDeviation="3" in="shadowOffsetInner1" result="shadowBlurInner1"/><feComposite in="shadowBlurInner1" in2="SourceAlpha" operator="arithmetic" k2="-1" k3="1" result="shadowInnerInner1"/><feColorMatrix values="0 0 0 0 0.957722151 0 0 0 0 0.560369344 0 0 0 0 0 0 0 0 0.591536458 0" in="shadowInnerInner1" result="shadowMatrixInner1"/><feMerge><feMergeNode in="SourceGraphic"/><feMergeNode in="shadowMatrixInner1"/></feMerge></filter><filter x="-50%" y="-50%" width="200%" height="200%" filterUnits="objectBoundingBox" id="c"><feOffset dy="1" in="SourceAlpha" result="shadowOffsetInner1"/><feGaussianBlur stdDeviation="3" in="shadowOffsetInner1" result="shadowBlurInner1"/><feComposite in="shadowBlurInner1" in2="SourceAlpha" operator="arithmetic" k2="-1" k3="1" result="shadowInnerInner1"/><feColorMatrix values="0 0 0 0 0.957722151 0 0 0 0 0.560369344 0 0 0 0 0 0 0 0 0.591536458 0" in="shadowInnerInner1" result="shadowMatrixInner1"/><feMerge><feMergeNode in="SourceGraphic"/><feMergeNode in="shadowMatrixInner1"/></feMerge></filter><linearGradient x1="3.022%" y1="-179.018%" x2="74.036%" y2="298.596%" id="d"><stop stop-color="#787878" offset="0%"/><stop stop-color="#474747" offset="100%"/></linearGradient><filter x="-50%" y="-50%" width="200%" height="200%" filterUnits="objectBoundingBox" id="e"><feOffset dy="1" in="SourceAlpha" result="shadowOffsetInner1"/><feGaussianBlur stdDeviation="1" in="shadowOffsetInner1" result="shadowBlurInner1"/><feComposite in="shadowBlurInner1" in2="SourceAlpha" operator="arithmetic" k2="-1" k3="1" result="shadowInnerInner1"/><feColorMatrix values="0 0 0 0 0 0 0 0 0 0 0 0 0 0 0 0 0 0 0.17715976 0" in="shadowInnerInner1" result="shadowMatrixInner1"/><feMerge><feMergeNode in="SourceGraphic"/><feMergeNode in="shadowMatrixInner1"/></feMerge></filter></defs><g fill="none" fill-rule="evenodd"><g fill="#F7B44F"><path d="M28.698 58.234c.738-5.498 3.668-15.897 14.917-24.893V.91C5.94 28.85 1.36 63.565.91 74.663l27.788-16.43" filter="url(#a)" transform="translate(4 3)"/><path d="M49.746 33.186C54.3 36.586 62.42 44.4 64.49 58.11L92.2 74.45C88.18 29.546 59.53 7.18 49.747.8v32.384" filter="url(#b)" transform="translate(4 3)"/><path d="M61.725 63.6c-5.128 2.033-16.08 4.876-29.837-.12L4.346 79.76c42.37 17.84 75.18 5.02 85.064.162L61.725 63.6" filter="url(#c)" transform="translate(4 3)"/></g><path d="M11.675 120.696c.98 0 1.825.173 2.54.52.712.346 1.304.815 1.773 1.407.47.59.815 1.284 1.04 2.08.224.794.336 1.65.336 2.568 0 1.41-.26 2.74-.78 4s-1.228 2.344-2.126 3.272c-.897.928-1.957 1.66-3.18 2.2-1.224.54-2.55.81-3.977.81-.18 0-.5-.003-.96-.014-.46-.01-.98-.056-1.572-.137-.59-.082-1.218-.204-1.88-.367-.664-.162-1.29-.39-1.882-.672L6.3 114.125l4.74-.736-1.897 7.892c.408-.185.816-.328 1.224-.43.41-.103.847-.153 1.316-.153zM7.7 133.786c.713 0 1.385-.173 2.018-.52.63-.346 1.177-.81 1.636-1.39.458-.582.82-1.24 1.086-1.974.265-.734.397-1.5.397-2.294 0-.98-.163-1.743-.49-2.294-.325-.55-.927-.826-1.804-.826-.285 0-.658.05-1.116.153-.46.11-.872.32-1.24.65l-2.018 8.38c.12.02.23.04.32.062.09.02.19.035.29.045.1.012.22.017.362.017h.55zm15.414 3.334h-4.526l3.823-16.088h4.56l-3.85 16.088zm2.203-18.046c-.633 0-1.203-.188-1.713-.566-.51-.376-.765-.953-.765-1.728 0-.428.08-.83.26-1.208.17-.377.4-.703.68-.98.287-.274.618-.493.996-.656.376-.163.78-.245 1.207-.245.632 0 1.202.19 1.712.57.51.38.764.956.764 1.73 0 .43-.087.83-.26 1.21-.173.376-.403.703-.688.98-.286.273-.618.493-.995.655-.377.164-.78.245-1.207.245zm6.3-2.05l4.74-.733-1.16 4.748h5.076l-.917 3.73H34.31l-1.347 5.63c-.122.468-.2.907-.23 1.314-.03.408.02.76.154 1.056.132.296.362.525.688.688.326.164.775.246 1.346.246.49 0 .97-.048 1.43-.14.46-.09.922-.22 1.39-.38l.336 3.484c-.61.226-1.273.42-1.987.583-.715.162-1.56.244-2.54.244-1.407 0-2.497-.21-3.27-.628-.777-.417-1.328-.99-1.654-1.713-.326-.72-.47-1.552-.428-2.49.04-.94.183-1.927.428-2.967l2.997-12.662zm8.81 13.673c0-1.386.224-2.692.672-3.915.442-1.223 1.09-2.294 1.92-3.212.836-.917 1.85-1.64 3.044-2.17 1.19-.53 2.522-.797 3.99-.797.92 0 1.74.087 2.462.26.724.174 1.38.403 1.972.69l-1.56 3.547c-.408-.163-.83-.31-1.27-.444-.44-.132-.974-.198-1.606-.198-1.528 0-2.73.514-3.608 1.544-.878 1.03-1.316 2.432-1.316 4.206 0 1.04.225 1.88.674 2.524.448.642 1.274.963 2.477.963.593 0 1.163-.06 1.714-.184.55-.12 1.04-.27 1.468-.45l.337 3.64c-.574.222-1.2.42-1.884.595-.682.173-1.512.26-2.49.26-1.264 0-2.334-.184-3.21-.55-.877-.368-1.6-.86-2.173-1.484-.57-.622-.984-1.35-1.238-2.187-.258-.836-.386-1.713-.386-2.63zm20.278 6.852c-1.08 0-2.018-.17-2.814-.49-.79-.33-1.45-.79-1.97-1.38-.52-.59-.91-1.29-1.173-2.098-.264-.806-.397-1.698-.397-2.677 0-1.223.2-2.447.596-3.67.397-1.224.983-2.325 1.76-3.303.774-.98 1.722-1.78 2.843-2.402 1.12-.62 2.404-.932 3.852-.932 1.06 0 1.993.163 2.8.49.804.325 1.467.784 1.987 1.375.52.59.91 1.29 1.176 2.093.265.806.397 1.7.397 2.677 0 1.224-.193 2.448-.58 3.67-.39 1.225-.96 2.326-1.713 3.305-.754.978-1.7 1.78-2.83 2.4-1.13.623-2.44.934-3.93.934zm2.264-13.098c-.68 0-1.27.193-1.78.58-.51.388-.94.878-1.286 1.47-.348.59-.608 1.237-.78 1.94-.174.705-.26 1.373-.26 2.004 0 1.04.162 1.84.49 2.402.325.56.916.84 1.772.84.672 0 1.264-.194 1.774-.58.51-.39.938-.878 1.285-1.47.347-.59.607-1.238.78-1.94.174-.706.26-1.373.26-2.005 0-1.04-.163-1.84-.49-2.4-.325-.564-.917-.844-1.773-.844zm20.302.49c-.408-.103-.81-.2-1.208-.292-.4-.09-.985-.136-1.76-.136-.285 0-.6.024-.948.075-.347.05-.633.106-.857.17l-2.966 12.36H70.98l3.67-15.235c.878-.285 1.862-.556 2.953-.81 1.09-.255 2.32-.382 3.685-.382.51 0 1.076.045 1.698.137.622.093 1.167.24 1.636.445l-1.346 3.67zm1.04 5.872c0-1.306.23-2.57.688-3.794.46-1.222 1.107-2.31 1.944-3.257.835-.948 1.85-1.714 3.042-2.295 1.192-.58 2.512-.87 3.96-.87.714 0 1.377.102 1.99.306.61.204 1.145.5 1.604.886.46.388.817.862 1.07 1.423.256.56.384 1.197.384 1.91 0 1.142-.255 2.11-.765 2.907-.51.795-1.22 1.442-2.128 1.94-.908.5-1.984.863-3.227 1.087-1.243.225-2.6.337-4.07.337.145.857.456 1.464.935 1.82.48.358 1.24.536 2.28.536.653 0 1.315-.056 1.988-.168.672-.112 1.304-.28 1.896-.505l.335 3.58c-.57.227-1.3.43-2.188.614-.888.186-1.85.278-2.89.278-1.265 0-2.33-.18-3.198-.537-.867-.357-1.57-.84-2.11-1.452-.54-.61-.933-1.326-1.178-2.14-.245-.817-.368-1.683-.368-2.6zm8.9-6.608c-1.04 0-1.952.37-2.737 1.116-.785.743-1.3 1.727-1.544 2.95 1.265-.04 2.285-.148 3.06-.32.775-.174 1.377-.383 1.805-.628.427-.246.713-.51.856-.796.143-.287.215-.573.215-.858 0-.978-.55-1.467-1.65-1.467z" fill="url(#d)" filter="url(#e)"/></g></svg>