<?xml version="1.0" encoding="UTF-8" standalone="no"?>
<svg width="316px" height="39px" viewBox="0 0 316 39" version="1.1" xmlns="http://www.w3.org/2000/svg" xmlns:xlink="http://www.w3.org/1999/xlink" xmlns:sketch="http://www.bohemiancoding.com/sketch/ns">
    <!-- Generator: Sketch 3.3.3 (12072) - http://www.bohemiancoding.com/sketch -->
    <title>bitcore-playground-logo</title>
    <desc>Created with Sketch.</desc>
    <defs></defs>
    <g id="Page-1" stroke="none" stroke-width="1" fill="none" fill-rule="evenodd" sketch:type="MSPage">
        <g id="bitcore-playground-logo" sketch:type="MSArtboardGroup">
            <path d="M63.9632012,13.9557229 C64.9686517,13.9557229 65.8376156,14.1325301 66.5706997,14.4861446 C67.3034805,14.8394578 67.910997,15.3180723 68.3926426,15.9210843 C68.8742883,16.5240964 69.2303664,17.2313253 69.4605736,18.0424699 C69.6910841,18.8536145 69.806036,19.7271084 69.806036,20.6629518 C69.806036,22.0978916 69.5391291,23.4548193 69.005012,24.7337349 C68.4711982,26.0129518 67.7432703,27.1256024 66.8218348,28.071988 C65.9003994,29.0180723 64.8115405,29.7668675 63.554955,30.3180723 C62.2983694,30.8689759 60.9371441,31.1445783 59.4712793,31.1445783 C59.2826246,31.1445783 58.9529339,31.1394578 58.4816006,31.1289157 C58.0105706,31.1186747 57.4712973,31.071988 56.8637808,30.9885542 C56.2565676,30.9054217 55.6126547,30.7807229 54.932042,30.6144578 C54.2514294,30.4478916 53.6075165,30.2192771 53,29.928012 L58.4345886,7.24849398 L63.3035165,6.5 L61.356006,14.548494 C61.7748679,14.3611446 62.1937297,14.2156627 62.6125916,14.111747 C63.0314535,14.0078313 63.4815556,13.9557229 63.9632012,13.9557229 L63.9632012,13.9557229 Z M59.8795255,27.3075301 C60.6126096,27.3075301 61.3035345,27.1307229 61.9529069,26.7771084 C62.601976,26.4237952 63.1621772,25.9506024 63.6335105,25.3578313 C64.1045405,24.7650602 64.4763904,24.0942771 64.7487568,23.3457831 C65.0208198,22.596988 65.157003,21.8171687 65.157003,21.0060241 C65.157003,20.0078313 64.9895796,19.2277108 64.6544294,18.6662651 C64.3192793,18.1048193 63.7014505,17.8240964 62.8009429,17.8240964 C62.507952,17.8240964 62.1257898,17.8759036 61.6544565,17.9798193 C61.1831231,18.0840361 60.7591051,18.3024096 60.3820991,18.635241 L58.309021,27.1828313 C58.4345886,27.2036145 58.5443844,27.2243976 58.6387117,27.2451807 C58.733039,27.2659639 58.8325225,27.2816265 58.9371622,27.2918675 C59.0418018,27.3024096 59.1676727,27.3075301 59.3141682,27.3075301 L59.8795255,27.3075301 L59.8795255,27.3075301 Z M75.711958,30.7078313 L71.0626216,30.7078313 L74.9894895,14.2987952 L79.6697628,14.2987952 L75.711958,30.7078313 L75.711958,30.7078313 Z M77.9736907,12.3024096 C77.3243183,12.3024096 76.738033,12.1099398 76.2145315,11.7253012 C75.69103,11.3403614 75.4292793,10.753012 75.4292793,9.9626506 C75.4292793,9.52590361 75.5181471,9.11506024 75.6961862,8.73042169 C75.8742252,8.34578313 76.1095886,8.01295181 76.4028829,7.73222892 C76.6961772,7.45150602 77.0364835,7.22771084 77.4238018,7.06144578 C77.8114234,6.89518072 78.2248258,6.81174699 78.6646156,6.81174699 C79.313988,6.81174699 79.9002733,7.00421687 80.4237748,7.38885542 C80.9472763,7.77379518 81.209027,8.36114458 81.209027,9.15150602 C81.209027,9.58825301 81.1201592,9.99909639 80.9421201,10.3837349 C80.7640811,10.7686747 80.5284144,11.1012048 80.2354234,11.3819277 C79.9421291,11.6629518 79.6018228,11.8864458 79.2145045,12.0527108 C78.8268829,12.2192771 78.4134805,12.3024096 77.9736907,12.3024096 L77.9736907,12.3024096 Z M84.4446667,10.2123494 L89.3135946,9.46355422 L88.1200961,14.2987952 L93.3344865,14.2987952 L92.3921231,18.1048193 L87.208973,18.1048193 L85.8268198,23.8448795 C85.7012523,24.3231928 85.6226967,24.7701807 85.5914565,25.1861446 C85.5599129,25.6021084 85.6120811,25.9608434 85.7482643,26.2623494 C85.8844474,26.5641566 86.1201141,26.7978916 86.4552643,26.9644578 C86.7901111,27.1307229 87.2508288,27.2138554 87.8374174,27.2138554 C88.339991,27.2138554 88.8267928,27.1671687 89.2981261,27.073494 C89.7691562,26.9801205 90.2456456,26.85 90.7272913,26.6837349 L91.0727538,30.2400602 C90.4446126,30.4686747 89.764,30.6662651 89.0309159,30.8328313 C88.2981351,30.9990964 87.4288679,31.0822289 86.4237207,31.0822289 C84.9787838,31.0822289 83.8583814,30.8689759 83.0625135,30.4427711 C82.2666456,30.0162651 81.7012883,29.4340361 81.3661381,28.6957831 C81.0312913,27.9575301 80.8844925,27.1099398 80.9263483,26.1533133 C80.9682042,25.1966867 81.115003,24.1879518 81.3661381,23.1274096 L84.4446667,10.2123494 L84.4446667,10.2123494 Z M93.4915976,24.1569277 C93.4915976,22.7424699 93.7221081,21.4114458 94.1828258,20.1635542 C94.6435435,18.9159639 95.3032282,17.8240964 96.1618799,16.888253 C97.0205315,15.9524096 98.0623784,15.2138554 99.2874204,14.6731928 C100.512462,14.1325301 101.879147,13.8620482 103.386868,13.8620482 C104.329231,13.8620482 105.172111,13.9506024 105.915508,14.1274096 C106.659207,14.3042169 107.33436,14.5379518 107.941877,14.8292169 L106.339829,18.4478916 C105.920967,18.2816265 105.486333,18.1307229 105.036231,17.9954819 C104.585826,17.8605422 104.03624,17.7927711 103.386868,17.7927711 C101.816363,17.7927711 100.580706,18.3177711 99.6801982,19.3680723 C98.7796907,20.4183735 98.3292853,21.8481928 98.3292853,23.6575301 C98.3292853,24.7183735 98.5597958,25.5762048 99.0205135,26.2313253 C99.4812312,26.8864458 100.329267,27.2138554 101.564925,27.2138554 C102.172138,27.2138554 102.758727,27.151506 103.324084,27.0268072 C103.889441,26.9021084 104.392015,26.7460843 104.831805,26.5587349 L105.177267,30.2710843 C104.590982,30.5 103.947069,30.7027108 103.245529,30.8795181 C102.543988,31.0563253 101.690492,31.1445783 100.685345,31.1445783 C99.3869039,31.1445783 98.2874294,30.9575301 97.3869219,30.5831325 C96.4864144,30.2087349 95.743018,29.7045181 95.1567327,29.0701807 C94.5701441,28.4358434 94.1461261,27.6921687 93.8843754,26.8394578 C93.6226246,25.9870482 93.4915976,25.0927711 93.4915976,24.1569277 L93.4915976,24.1569277 Z M114.318526,31.1445783 C113.208739,31.1445783 112.245447,30.9783133 111.428652,30.6454819 C110.611856,30.3126506 109.936399,29.8448795 109.402586,29.2415663 C108.868468,28.6385542 108.465378,27.9262048 108.193012,27.1048193 C107.920949,26.2834337 107.784766,25.373494 107.784766,24.375 C107.784766,23.1274096 107.988889,21.8795181 108.397438,20.6316265 C108.805685,19.3837349 109.407742,18.2608434 110.20361,17.2623494 C110.999477,16.2641566 111.973081,15.4478916 113.125027,14.8135542 C114.27667,14.1792169 115.596039,13.8620482 117.083135,13.8620482 C118.171994,13.8620482 119.130129,14.0286145 119.957237,14.3611446 C120.784649,14.6939759 121.465261,15.1620482 121.999075,15.7650602 C122.533192,16.3680723 122.936282,17.0804217 123.208649,17.9021084 C123.480712,18.723494 123.616895,19.6334337 123.616895,20.6316265 C123.616895,21.8795181 123.417928,23.1274096 123.019994,24.375 C122.622363,25.6228916 122.035775,26.7460843 121.260835,27.7442771 C120.486198,28.7424699 119.517447,29.5587349 118.355189,30.1930723 C117.192931,30.8274096 115.847477,31.1445783 114.318526,31.1445783 L114.318526,31.1445783 Z M116.643345,17.7927711 C115.952117,17.7927711 115.344904,17.9903614 114.821402,18.3855422 C114.297598,18.7807229 113.858111,19.2798193 113.502033,19.8828313 C113.145955,20.4861446 112.879048,21.1463855 112.701009,21.8638554 C112.52297,22.5813253 112.433799,23.2623494 112.433799,23.9072289 C112.433799,24.9677711 112.601526,25.7840361 112.936372,26.3560241 C113.271523,26.928012 113.878736,27.2138554 114.758315,27.2138554 C115.449544,27.2138554 116.056757,27.0162651 116.580258,26.6213855 C117.104063,26.2262048 117.543853,25.7271084 117.899628,25.1237952 C118.255706,24.5207831 118.522916,23.8605422 118.700652,23.1427711 C118.878691,22.4253012 118.967862,21.7442771 118.967862,21.0996988 C118.967862,20.0388554 118.800135,19.2225904 118.465288,18.6506024 C118.130138,18.0786145 117.522925,17.7927711 116.643345,17.7927711 L116.643345,17.7927711 Z M137.501514,18.2918675 C137.082652,18.1879518 136.669249,18.0891566 136.2607,17.9954819 C135.852453,17.9021084 135.250396,17.8551205 134.454529,17.8551205 C134.161234,17.8551205 133.8367,17.8813253 133.480622,17.9331325 C133.124544,17.985241 132.831553,18.0424699 132.601042,18.1048193 L129.554057,30.7078313 L124.87348,30.7078313 L128.642934,15.1722892 C129.543745,14.8813253 130.554048,14.6057229 131.67445,14.3457831 C132.794853,14.0858434 134.056595,13.9557229 135.459676,13.9557229 C135.983177,13.9557229 136.564306,14.0024096 137.203063,14.0960843 C137.84182,14.189759 138.402021,14.3403614 138.883667,14.548494 L137.501514,18.2918675 L137.501514,18.2918675 Z M138.569748,24.2816265 C138.569748,22.9506024 138.805111,21.6611446 139.276444,20.413253 C139.747778,19.1653614 140.412619,18.0581325 141.27127,17.0909639 C142.129922,16.1237952 143.171769,15.3439759 144.396811,14.7512048 C145.621853,14.1584337 146.977922,13.8620482 148.464715,13.8620482 C149.197799,13.8620482 149.878411,13.9662651 150.506553,14.1740964 C151.134997,14.3819277 151.684583,14.6837349 152.155916,15.0786145 C152.626946,15.4737952 152.99364,15.9575301 153.25539,16.5295181 C153.517141,17.1012048 153.648168,17.7512048 153.648168,18.4792169 C153.648168,19.6436747 153.386114,20.6316265 152.862613,21.4427711 C152.339111,22.2539157 151.611486,22.9141566 150.679435,23.4237952 C149.747384,23.9331325 148.642754,24.3024096 147.36524,24.5310241 C146.08803,24.7599398 144.695261,24.8743976 143.187237,24.8743976 C143.334036,25.7478916 143.653414,26.3665663 144.145372,26.7304217 C144.637634,27.0942771 145.41773,27.276506 146.485661,27.276506 C147.155961,27.276506 147.836574,27.2192771 148.527802,27.1048193 C149.218727,26.9903614 149.868099,26.8186747 150.475312,26.5900602 L150.820775,30.2400602 C150.234489,30.4686747 149.485634,30.6768072 148.574814,30.8638554 C147.663691,31.0512048 146.674315,31.1445783 145.606081,31.1445783 C144.30764,31.1445783 143.213625,30.9626506 142.323429,30.5987952 C141.433538,30.2346386 140.711069,29.7409639 140.156024,29.1168675 C139.600979,28.4930723 139.197889,27.7650602 138.946754,26.9331325 C138.695315,26.1012048 138.569748,25.2174699 138.569748,24.2816265 L138.569748,24.2816265 Z M147.711006,17.5433735 C146.642772,17.5433735 145.705565,17.9228916 144.899384,18.6819277 C144.093204,19.4409639 143.564243,20.4445783 143.313108,21.6921687 C144.61155,21.6506024 145.658553,21.5415663 146.45442,21.364759 C147.250288,21.1879518 147.868117,20.9746988 148.307604,20.7253012 C148.747393,20.4756024 149.040688,20.2054217 149.187486,19.9141566 C149.333982,19.6228916 149.407381,19.3319277 149.407381,19.0406627 C149.407381,18.0424699 148.841721,17.5433735 147.711006,17.5433735 L147.711006,17.5433735 Z" id="Imported-Layers-Copy-17" fill="#FFFFFF" sketch:type="MSShapeGroup"></path>
            <g id="Imported-Layers-Copy-18" sketch:type="MSLayerGroup" transform="translate(0.000000, -0.500000)" fill="#F9AB3D">
                <path d="M27.4713886,24.6905012 L39.6122318,32.6773846 C37.9578285,12.9512476 25.3932103,3.16454066 21.1740394,0.41463761 L21.1740394,14.4678232 C23.0681985,15.8760719 26.4221253,19.0992388 27.4713886,24.6905012" id="Fill-1" sketch:type="MSShapeGroup"></path>
                <path d="M0.0684533625,32.4696102 L12.232299,24.5590883 C12.7188883,22.0569163 14.1839641,18.0843408 18.5199164,14.5921326 L18.5199164,0.511421412 C2.27668369,12.6102845 0.271051418,27.6215409 0.0684533625,32.4696102" id="Fill-2" sketch:type="MSShapeGroup"></path>
                <path d="M12.7905496,27.3702582 L1.52114335,34.6983014 C19.5567938,42.3273512 33.5971044,37.0868191 38.1462712,34.8989724 L26.8892509,27.4927918 C24.8783104,28.3869321 19.5629867,30.0961873 12.7905496,27.3702582" id="Fill-3" sketch:type="MSShapeGroup"></path>
            </g>
            <path d="M171.5,5.5 L171.5,33.5178509" id="Line" stroke="#FFFFFF" stroke-linecap="square" opacity="0.201142724" sketch:type="MSShapeGroup"></path>
            <path d="M193.098,22.107 L189.402,22.107 L189.402,27 L187.785,27 L187.785,12.468 L193.098,12.468 C194.680008,12.468 195.848996,12.8529961 196.605,13.623 C197.361004,14.3930038 197.739,15.5689921 197.739,17.151 C197.739,20.4550165 196.192015,22.107 193.098,22.107 L193.098,22.107 Z M189.402,20.679 L193.077,20.679 C195.07901,20.679 196.08,19.5030118 196.08,17.151 C196.08,16.0309944 195.842002,15.2085026 195.366,14.6835 C194.889998,14.1584974 194.127005,13.896 193.077,13.896 L189.402,13.896 L189.402,20.679 Z M200.966,27 L200.966,11.922 L202.541,11.922 L202.541,27 L200.966,27 Z M213.979,19.671 L213.979,25.047 C214.021,25.5650026 214.426996,25.8729995 215.197,25.971 L215.134,27.21 C214.027994,27.21 213.195003,26.9300028 212.635,26.37 C211.374993,26.9300028 210.115006,27.21 208.855,27.21 C207.888995,27.21 207.154002,26.9370027 206.65,26.391 C206.145997,25.8449973 205.894,25.0610051 205.894,24.039 C205.894,23.0169949 206.152997,22.2645024 206.671,21.7815 C207.189002,21.2984976 208.000994,21.0010006 209.107,20.889 L212.404,20.574 L212.404,19.671 C212.404,18.9569964 212.250001,18.4460015 211.942,18.138 C211.633998,17.8299985 211.214002,17.676 210.682,17.676 C209.561994,17.676 208.400006,17.7459993 207.196,17.886 L206.545,17.949 L206.482,16.752 C208.022007,16.4439985 209.386994,16.29 210.577,16.29 C211.767006,16.29 212.631497,16.5629973 213.1705,17.109 C213.709502,17.6550027 213.979,18.5089942 213.979,19.671 L213.979,19.671 Z M207.511,23.955 C207.511,25.2430064 208.042994,25.887 209.107,25.887 C210.059005,25.887 210.996995,25.7260016 211.921,25.404 L212.404,25.236 L212.404,21.771 L209.296,22.065 C208.665997,22.1210003 208.211001,22.3029985 207.931,22.611 C207.650998,22.9190015 207.511,23.3669971 207.511,23.955 L207.511,23.955 Z M216.87,16.5 L218.445,16.5 L221.07,25.635 L221.763,25.635 L224.409,16.5 L225.984,16.5 L221.616,31.662 L220.041,31.662 L221.406,27 L219.852,27 L216.87,16.5 Z M232.718,31.935 C231.037991,31.935 229.865503,31.7075023 229.2005,31.2525 C228.535496,30.7974977 228.203,29.968006 228.203,28.764 C228.203,28.1899971 228.328998,27.7245018 228.581,27.3675 C228.833001,27.0104982 229.259997,26.6080022 229.862,26.16 C229.469998,25.8939987 229.274,25.4110035 229.274,24.711 C229.274,24.4729988 229.448998,24.0320032 229.799,23.388 L229.988,23.052 C228.881994,22.5479975 228.329,21.491008 228.329,19.881 C228.329,17.486988 229.637986,16.29 232.256,16.29 C232.928003,16.29 233.550997,16.3599993 234.125,16.5 L234.44,16.563 L237.548,16.479 L237.548,17.823 L235.553,17.781 C236.015002,18.2430023 236.246,18.9429953 236.246,19.881 C236.246,21.1970066 235.920503,22.1174974 235.2695,22.6425 C234.618496,23.1675026 233.593007,23.43 232.193,23.43 C231.814998,23.43 231.472001,23.4020003 231.164,23.346 C230.911998,23.9620031 230.786,24.3609991 230.786,24.543 C230.786,24.9770022 230.918998,25.2464995 231.185,25.3515 C231.451001,25.4565005 232.255993,25.509 233.6,25.509 C234.944006,25.509 235.909997,25.7189979 236.498,26.139 C237.086002,26.5590021 237.38,27.3779939 237.38,28.596 C237.38,30.8220111 235.826015,31.935 232.718,31.935 L232.718,31.935 Z M229.757,28.638 C229.757,29.3800037 229.963497,29.8944986 230.3765,30.1815 C230.789502,30.4685014 231.552494,30.612 232.6655,30.612 C233.778505,30.612 234.576497,30.4580015 235.0595,30.15 C235.542502,29.8419985 235.784,29.3275036 235.784,28.6065 C235.784,27.8854964 235.609001,27.420001 235.259,27.21 C234.908998,26.9999989 234.223005,26.895 233.201,26.895 L230.933,26.79 C230.470997,27.1260017 230.1595,27.4199987 229.9985,27.672 C229.837499,27.9240013 229.757,28.245998 229.757,28.638 L229.757,28.638 Z M230.4605,21.645 C230.831501,21.9950018 231.443995,22.17 232.298,22.17 C233.152004,22.17 233.760998,21.9950018 234.125,21.645 C234.489001,21.2949982 234.671,20.7035042 234.671,19.8705 C234.671,19.0374958 234.489001,18.4460018 234.125,18.096 C233.760998,17.7459982 233.152004,17.571 232.298,17.571 C231.443995,17.571 230.831501,17.7494982 230.4605,18.1065 C230.089498,18.4635018 229.904,19.0549959 229.904,19.881 C229.904,20.7070041 230.089498,21.2949982 230.4605,21.645 L230.4605,21.645 Z M240.333999,27 L240.333999,16.5 L241.887999,16.5 L241.887999,17.928 C243.106005,17.0879958 244.386993,16.5350013 245.730999,16.269 L245.730999,17.865 C245.142996,17.9770006 244.530503,18.1519988 243.893499,18.39 C243.256496,18.6280012 242.770001,18.8379991 242.433999,19.02 L241.908999,19.293 L241.908999,27 L240.333999,27 Z M248.831999,17.571 C249.518003,16.7169957 250.676491,16.29 252.307499,16.29 C253.938507,16.29 255.093496,16.7169957 255.772499,17.571 C256.451503,18.4250043 256.790999,19.8109904 256.790999,21.729 C256.790999,23.6470096 256.469003,25.0399957 255.824999,25.908 C255.180996,26.7760043 254.005008,27.21 252.296999,27.21 C250.588991,27.21 249.413003,26.7760043 248.768999,25.908 C248.124996,25.0399957 247.802999,23.6470096 247.802999,21.729 C247.802999,19.8109904 248.145996,18.4250043 248.831999,17.571 L248.831999,17.571 Z M249.976499,24.921 C250.347501,25.5370031 251.124493,25.845 252.307499,25.845 C253.490505,25.845 254.263997,25.540503 254.627999,24.9315 C254.992001,24.322497 255.173999,23.2480077 255.173999,21.708 C255.173999,20.1679923 254.971001,19.1075029 254.564999,18.5265 C254.158997,17.9454971 253.406505,17.655 252.307499,17.655 C251.208494,17.655 250.452501,17.9454971 250.039499,18.5265 C249.626497,19.1075029 249.419999,20.1644923 249.419999,21.6975 C249.419999,23.2305077 249.605497,24.3049969 249.976499,24.921 L249.976499,24.921 Z M266.779999,16.5 L268.354999,16.5 L268.354999,27 L266.779999,27 L266.779999,26.265 C265.729994,26.8950032 264.694004,27.21 263.671999,27.21 C262.243992,27.21 261.295502,26.8390037 260.826499,26.097 C260.357497,25.3549963 260.122999,23.98301 260.122999,21.981 L260.122999,16.5 L261.697999,16.5 L261.697999,21.96 C261.697999,23.4860076 261.830998,24.5079974 262.096999,25.026 C262.363,25.5440026 262.964994,25.803 263.902999,25.803 C264.365001,25.803 264.833997,25.7365007 265.309999,25.6035 C265.786002,25.4704993 266.149998,25.3410006 266.401999,25.215 L266.779999,25.026 L266.779999,16.5 Z M273.828999,27 L272.253999,27 L272.253999,16.5 L273.807999,16.5 L273.807999,17.235 C274.942005,16.6049968 276.026994,16.29 277.062999,16.29 C278.463006,16.29 279.404497,16.6679962 279.887499,17.424 C280.370501,18.1800038 280.611999,19.5239903 280.611999,21.456 L280.611999,27 L279.057999,27 L279.057999,21.498 C279.057999,20.0419927 278.9145,19.0445027 278.627499,18.5055 C278.340498,17.9664973 277.728004,17.697 276.789999,17.697 C276.341997,17.697 275.869502,17.7634993 275.372499,17.8965 C274.875497,18.0295007 274.494,18.1589994 274.227999,18.285 L273.828999,18.474 L273.828999,27 Z M292.469999,11.922 L292.469999,27 L290.915999,27 L290.915999,26.286 C289.837994,26.9020031 288.774004,27.21 287.723999,27.21 C287.163996,27.21 286.674001,27.1400007 286.253999,27 C285.833997,26.8599993 285.442001,26.6080018 285.077999,26.244 C284.321995,25.4879962 283.943999,24.0915102 283.943999,22.0545 C283.943999,20.0174898 284.283496,18.5475045 284.962499,17.6445 C285.641502,16.7414955 286.764991,16.29 288.332999,16.29 C289.145003,16.29 290.005994,16.3809991 290.915999,16.563 L290.915999,11.922 L292.469999,11.922 Z M287.009999,25.656 C287.262,25.7540005 287.587497,25.803 287.986499,25.803 C288.385501,25.803 288.833496,25.7365007 289.330499,25.6035 C289.827501,25.4704993 290.215998,25.3410006 290.495999,25.215 L290.915999,25.026 L290.915999,17.907 C290.019994,17.7389992 289.187003,17.655 288.416999,17.655 C287.352994,17.655 286.611001,17.9944966 286.190999,18.6735 C285.770997,19.3525034 285.560999,20.4059929 285.560999,21.834 C285.560999,23.4580081 285.805996,24.5499972 286.295999,25.11 C286.52,25.3760013 286.757998,25.5579995 287.009999,25.656 L287.009999,25.656 Z" id="Playground" fill="#FFFFFF" sketch:type="MSShapeGroup"></path>
        </g>
    </g>
</svg>