<?xml version="1.0" encoding="UTF-8" standalone="no"?>
<svg width="316px" height="39px" viewBox="0 0 316 39" version="1.1" xmlns="http://www.w3.org/2000/svg" xmlns:xlink="http://www.w3.org/1999/xlink" xmlns:sketch="http://www.bohemiancoding.com/sketch/ns">
    <!-- Generator: Sketch 3.3.3 (12072) - http://www.bohemiancoding.com/sketch -->
    <title>bitcore-playground-logo</title>
    <desc>Created with Sketch.</desc>
    <defs></defs>
    <g id="Page-1" stroke="none" stroke-width="1" fill="none" fill-rule="evenodd" sketch:type="MSPage">
        <g id="bitcore-playground-logo" sketch:type="MSArtboardGroup">
            <path d="M61.1837914,15.2456031 C62.0260497,15.2456031 62.7539743,15.3937132 63.3680733,15.6899334 C63.9819183,15.9859012 64.4908303,16.386833 64.8943012,16.8919717 C65.2977722,17.3971103 65.5960561,17.9895507 65.788899,18.6690404 C65.9819959,19.3485301 66.0782903,20.0802495 66.0782903,20.8641984 C66.0782903,22.0662367 65.8547044,23.2029249 65.4072785,24.2742629 C64.9601066,25.3458533 64.3503269,26.2779124 63.5784473,27.0706924 C62.8065678,27.8632202 61.8944389,28.4904803 60.8418066,28.9522204 C59.7891742,29.4137082 58.6488861,29.6445783 57.4209421,29.6445783 C57.2629075,29.6445783 56.9867281,29.6402889 56.5918957,29.6314578 C56.1973174,29.622879 55.7455722,29.5837699 55.2366602,29.5138781 C54.7280022,29.4442386 54.1886012,29.3397794 53.6184571,29.2005004 C53.048313,29.0609691 52.508912,28.8694604 52,28.6254699 L56.5525141,9.62700779 L60.6311785,9 L58.9997635,15.742163 C59.350641,15.5852218 59.7015184,15.4633527 60.0523958,15.3763033 C60.4032733,15.289254 60.7803204,15.2456031 61.1837914,15.2456031 L61.1837914,15.2456031 Z M57.7629269,26.4303118 C58.3770259,26.4303118 58.9558086,26.2822017 59.4997829,25.9859816 C60.0435032,25.6900137 60.5127796,25.2936237 60.907612,24.7970638 C61.3021903,24.3005039 61.6136861,23.7385939 61.8418454,23.1115861 C62.0697506,22.484326 62.1838302,21.8310773 62.1838302,21.1515875 C62.1838302,20.3154089 62.0435808,19.6619079 61.7628281,19.1915889 C61.4820753,18.72127 60.9645247,18.4861106 60.2101764,18.4861106 C59.96474,18.4861106 59.6446056,18.5295091 59.2497732,18.6165585 C58.8549408,18.7038601 58.4997441,18.88679 58.183929,19.1656003 L56.4473271,26.3258526 C56.5525141,26.3432625 56.6444892,26.3606723 56.7235065,26.3780822 C56.8025238,26.3954921 56.8858603,26.4086126 56.9735162,26.4171914 C57.061172,26.4260224 57.1666131,26.4303118 57.2893313,26.4303118 L57.7629269,26.4303118 L57.7629269,26.4303118 Z M71.0256367,29.2787186 L67.1309226,29.2787186 L70.4204303,15.5329922 L74.3410601,15.5329922 L71.0256367,29.2787186 L71.0256367,29.2787186 Z M72.9202733,13.860635 C72.3762989,13.860635 71.8851721,13.6994044 71.4466389,13.3771956 C71.0081056,13.0547345 70.7888389,12.5627163 70.7888389,11.9006364 C70.7888389,11.5347768 70.8632829,11.1906163 71.0124248,10.8684075 C71.1615668,10.5461987 71.3587289,10.2673884 71.6044194,10.0322289 C71.8501098,9.79706946 72.1351818,9.60959791 72.4596355,9.47031892 C72.7843432,9.33103993 73.1306473,9.26114811 73.4990559,9.26114811 C74.0430303,9.26114811 74.5341571,9.42237869 74.9726903,9.74458752 C75.4112236,10.0670487 75.6304903,10.5590668 75.6304903,11.2211467 C75.6304903,11.5870064 75.5560463,11.9311668 75.4069043,12.2533756 C75.2577624,12.5758368 75.0603462,12.8543947 74.8149098,13.0895542 C74.5692194,13.324966 74.2841474,13.5121852 73.9596937,13.6514642 C73.634986,13.7909955 73.2886819,13.860635 72.9202733,13.860635 L72.9202733,13.860635 Z M78.3409613,12.1098072 L82.4196257,11.4825471 L81.4198409,15.5329922 L85.7878966,15.5329922 L84.9984859,18.72127 L80.6565999,18.72127 L79.4987806,23.5296754 C79.3935936,23.9303548 79.3277882,24.3047933 79.3016185,24.6532431 C79.2751947,25.0016929 79.3188956,25.3022025 79.4329752,25.5547718 C79.5470549,25.8075934 79.7444711,26.0033914 80.0252238,26.1429228 C80.3057225,26.2822017 80.6916623,26.3518412 81.1830431,26.3518412 C81.6040453,26.3518412 82.0118355,26.3127321 82.4066679,26.2342615 C82.8012462,26.1560432 83.2003979,26.0470423 83.6038688,25.9077633 L83.8932601,28.8868703 C83.367071,29.0783789 82.7969269,29.2438989 82.1828279,29.3834302 C81.5689829,29.5227092 80.8408042,29.5923487 79.9988,29.5923487 C78.7883872,29.5923487 77.8498345,29.4137082 77.183142,29.0566797 C76.5164494,28.6993988 76.0428538,28.21167 75.7621011,27.593241 C75.4816024,26.974812 75.3586301,26.2647919 75.3936924,25.463433 C75.4287548,24.6620742 75.551727,23.8170645 75.7621011,22.9286563 L78.3409613,12.1098072 L78.3409613,12.1098072 Z M85.9195074,23.7910758 C85.9195074,22.6061951 86.1126044,21.4912062 86.4985441,20.4458568 C86.8844839,19.4007597 87.4370968,18.4861106 88.1563829,17.7021616 C88.8756689,16.9182126 89.7484162,16.2995313 90.7746247,15.8466223 C91.8008333,15.3937132 92.9456948,15.1671325 94.2087011,15.1671325 C94.9981118,15.1671325 95.704186,15.2413137 96.3269235,15.3894238 C96.9499152,15.5375339 97.5154859,15.7333319 98.024398,15.9773225 L96.6823743,19.0086591 C96.3314969,18.8693801 95.9674076,18.7429693 95.5903604,18.6296789 C95.2130592,18.5166409 94.7526755,18.4598696 94.2087011,18.4598696 C92.8931013,18.4598696 91.8580001,18.8996582 91.1036517,19.7794876 C90.3493033,20.659317 89.9720021,21.8570659 89.9720021,23.3727342 C89.9720021,24.2613948 90.165099,24.9799936 90.5510388,25.5287831 C90.9369786,26.0775726 91.647372,26.3518412 92.6824732,26.3518412 C93.1911311,26.3518412 93.682512,26.2996116 94.1561076,26.1951524 C94.6297032,26.0906931 95.0507053,25.9599929 95.4191139,25.8030517 L95.7085052,28.912859 C95.2173785,29.1046199 94.6779774,29.2744292 94.0903022,29.4225393 C93.5026269,29.5706494 92.7876602,29.6445783 91.945656,29.6445783 C90.8579613,29.6445783 89.9369398,29.4878894 89.1825914,29.1742594 C88.428243,28.8606293 87.8055054,28.4382507 87.3143787,27.906871 C86.8229978,27.3754914 86.4678011,26.7525207 86.2485344,26.0382112 C86.0292678,25.324154 85.9195074,24.5750248 85.9195074,23.7910758 L85.9195074,23.7910758 Z M103.366069,29.6445783 C102.436409,29.6445783 101.629467,29.5052993 100.945243,29.226489 C100.261019,28.9476787 99.6951945,28.5558304 99.2480227,28.0504394 C98.8005968,27.5453007 98.4629312,26.948571 98.234772,26.2605025 C98.0068668,25.572434 97.8927872,24.8101843 97.8927872,23.9737534 C97.8927872,22.9286563 98.0637796,21.8833069 98.4060185,20.8379575 C98.7480033,19.7926081 99.252342,18.8519702 99.9190345,18.0155393 C100.585727,17.1793607 101.401307,16.4955816 102.366284,15.964202 C103.331006,15.4328223 104.436232,15.1671325 105.681961,15.1671325 C106.59409,15.1671325 107.396713,15.3066638 108.089575,15.5852218 C108.782691,15.8640321 109.352836,16.2561328 109.800007,16.7612714 C110.247433,17.2664101 110.585099,17.8631398 110.813258,18.5514607 C111.041163,19.2395292 111.155243,20.0017789 111.155243,20.8379575 C111.155243,21.8833069 110.98857,22.9286563 110.655224,23.9737534 C110.322131,25.0191028 109.83075,25.9599929 109.181589,26.7961715 C108.532682,27.6323501 107.721167,28.3161292 106.747552,28.8475089 C105.773937,29.3788885 104.64686,29.6445783 103.366069,29.6445783 L103.366069,29.6445783 Z M105.313553,18.4598696 C104.734516,18.4598696 104.225858,18.6253896 103.787325,18.9564295 C103.348538,19.2874694 102.980383,19.7055587 102.682099,20.2106974 C102.383815,20.7160884 102.160229,21.2691673 102.011087,21.8701864 C101.861945,22.4712055 101.787247,23.0416943 101.787247,23.581905 C101.787247,24.4703133 101.927751,25.1540924 102.208249,25.6332424 C102.489002,26.1123924 102.99766,26.3518412 103.734477,26.3518412 C104.313514,26.3518412 104.822172,26.1863213 105.260705,25.8555337 C105.699493,25.5244937 106.067901,25.1064044 106.365931,24.6010135 C106.664215,24.0958748 106.888055,23.5427959 107.036943,22.9415244 C107.186085,22.3405053 107.260783,21.7700165 107.260783,21.2300581 C107.260783,20.3413976 107.120279,19.6576185 106.839781,19.1784685 C106.559028,18.6993184 106.05037,18.4598696 105.313553,18.4598696 L105.313553,18.4598696 Z M122.786284,18.8779589 C122.435406,18.7909095 122.089102,18.7081495 121.746863,18.6296789 C121.404879,18.5514607 120.90054,18.5120992 120.233847,18.5120992 C119.988157,18.5120992 119.716297,18.5340508 119.418013,18.5774493 C119.119729,18.6211002 118.874292,18.6690404 118.681196,18.72127 L116.128759,29.2787186 L112.207875,29.2787186 L115.365518,16.2647115 C116.120121,16.0209733 116.966444,15.7901032 117.904997,15.5723537 C118.843549,15.3546041 119.900501,15.2456031 121.075852,15.2456031 C121.514385,15.2456031 122.001192,15.2847123 122.536274,15.3631828 C123.071356,15.4416534 123.540632,15.5678119 123.944103,15.742163 L122.786284,18.8779589 L122.786284,18.8779589 Z M123.681136,23.8955351 C123.681136,22.7805462 123.878298,21.700377 124.27313,20.6550276 C124.667962,19.6096782 125.224895,18.6821609 125.944181,17.8719709 C126.663467,17.061781 127.536214,16.4085322 128.562423,15.9119724 C129.588631,15.4154125 130.7246,15.1671325 131.970075,15.1671325 C132.584174,15.1671325 133.154318,15.2544342 133.680507,15.428533 C134.206951,15.6026317 134.667334,15.8554533 135.062167,16.186241 C135.456745,16.5172809 135.763922,16.922502 135.983188,17.401652 C136.202455,17.8805497 136.312215,18.4250498 136.312215,19.0349001 C136.312215,20.0103577 136.092694,20.8379575 135.654161,21.5174472 C135.215628,22.1969369 134.606102,22.7500158 133.82533,23.1769362 C133.044558,23.6036043 132.119217,23.912945 131.049054,24.1044536 C129.979144,24.2962145 128.812432,24.392095 127.549172,24.392095 C127.672144,25.1238143 127.939685,25.6420735 128.351794,25.9468724 C128.764158,26.2516714 129.417639,26.4043232 130.312236,26.4043232 C130.873742,26.4043232 131.443886,26.356383 132.022923,26.2605025 C132.601705,26.164622 133.14568,26.0208013 133.654338,25.8292927 L133.943729,28.8868703 C133.452602,29.0783789 132.825291,29.25273 132.062304,29.4094189 C131.299063,29.56636 130.470271,29.6445783 129.575419,29.6445783 C128.487725,29.6445783 127.571276,29.4921788 126.825567,29.1873799 C126.080111,28.8823286 125.474904,28.468781 125.009947,27.9459802 C124.54499,27.4234316 124.207325,26.8135814 123.996951,26.1166818 C123.786323,25.4197822 123.681136,24.6794841 123.681136,23.8955351 L123.681136,23.8955351 Z M131.338699,18.2509511 C130.443847,18.2509511 129.658756,18.5688705 128.983425,19.2047094 C128.308094,19.8405483 127.864987,20.6812686 127.654613,21.7263657 C128.742308,21.6915459 129.619374,21.6002072 130.286067,21.4520971 C130.952759,21.303987 131.47031,21.1253466 131.838464,20.9164281 C132.206873,20.7072573 132.452563,20.4809289 132.575536,20.2369383 C132.698254,19.9929478 132.75974,19.7492095 132.75974,19.505219 C132.75974,18.6690404 132.28589,18.2509511 131.338699,18.2509511 L131.338699,18.2509511 Z" id="Imported-Layers-Copy-17" fill="#FFFFFF" sketch:type="MSShapeGroup"></path>
            <g id="Imported-Layers-Copy-18" sketch:type="MSLayerGroup" fill="#F9AB3D">
                <path d="M39.6122318,32.6773846 C37.9578285,12.9512476 25.3932103,3.16454066 21.1740394,0.41463761 L21.1740394,14.4678232 C23.0681985,15.8760719 26.4221253,19.0992388 27.4713886,24.6905012 L39.6122318,32.6773846 Z" id="Fill-1" sketch:type="MSShapeGroup"></path>
                <path d="M12.232299,24.5590883 C12.7188883,22.0569163 14.1839641,18.0843408 18.5199164,14.5921326 L18.5199164,0.511421412 C2.27668369,12.6102845 0.271051418,27.6215409 0.0684533625,32.4696102 L12.232299,24.5590883 Z" id="Fill-2" sketch:type="MSShapeGroup"></path>
                <path d="M1.52114335,34.6983014 C19.5567938,42.3273512 33.5971044,37.0868191 38.1462712,34.8989724 L26.8892509,27.4927918 C24.8783104,28.3869321 19.5629867,30.0961873 12.7905496,27.3702582 L1.52114335,34.6983014 Z" id="Fill-3" sketch:type="MSShapeGroup"></path>
            </g>
            <path d="M156.5,8.5 L156.5,31.586792" id="Line" stroke="#FFFFFF" stroke-linecap="square" opacity="0.181728078" sketch:type="MSShapeGroup"></path>
            <text id="Playground" sketch:type="MSTextLayer" font-family="Titillium Web" font-size="22" font-weight="normal" letter-spacing="0.5" fill="#FFFFFF">
                <tspan x="172" y="27.11">Playground</tspan>
            </text>
        </g>
    </g>
</svg>