<svg viewBox="0 0 300 300" xmlns="http://www.w3.org/2000/svg" fill-rule="evenodd" clip-rule="evenodd" stroke-linecap="round" stroke-linejoin="round" stroke-miterlimit="1.414"><path d="M49.845 210.46v4.37c0 1.692.902 3.255 2.368 4.1 12.62 7.288 71.936 41.534 86.347 49.854 1.956 1.13 4.366 1.13 6.322 0l130.227-75.186c1.055-.61 1.706-1.738 1.706-2.958v-5.744L146.05 263.11h-8.66l-87.545-52.65z" fill="#E4E4E4"/><path d="M183.492 23.648s-.95-.55-1.962-1.133c-1.465-.846-3.27-.845-4.736 0L50.27 95.563c-2.082 1.203-3.365 3.426-3.365 5.83V206.53c0 1.22.65 2.348 1.707 2.958l1.63.94 3.344 1.932-2.35-107.353 4.33-7.5 127.926-73.86z" fill="#E4E4E4"/><path d="M179.977 23.523c1.04-.6 2.324-.6 3.364 0 1.043.6 1.684 1.71 1.684 2.913V129.71c0 3.65-1.947 7.024-5.108 8.85-21.472 12.395-104.282 60.206-125.634 72.533-1.04.6-2.322.6-3.363 0-1.04-.6-1.683-1.71-1.683-2.913V102.713c0-2.293 1.223-4.412 3.21-5.56 17.91-10.34 105.485-60.9 127.532-73.63z" fill="#616161"/><path d="M51.505 213.522c-1.04-.6-1.682-1.71-1.682-2.913 0-1.204.64-2.314 1.682-2.915l128.41-74.138c3.16-1.825 7.056-1.825 10.217 0l85.108 49.138c1.04.6 1.682 1.71 1.682 2.913 0 1.2-.64 2.31-1.682 2.912l-128.72 74.32c-2.97 1.713-6.627 1.713-9.595 0l-85.42-49.318z" fill="#F5F5F5"/><path d="M159.042 220.61l38.97-22.5 25.982 15-38.97 22.5-25.982-15z" fill="#DEDEDE"/><path d="M62.685 199.978l5.424 3.13 103.92-60-5.423-3.13-103.923 60z" fill="#5D5D5D"/><path d="M55.12 102.687v97.922l125.572-72.5V30.185l-125.573 72.5z" fill="#868686" stroke="#878787"/><path d="M92.845 146.025l1.98-1.225 1.588 7.237c.14.743.284 1.466.438 2.17.155.703.3 1.426.44 2.17l.09-.057c.17-.934.347-1.86.53-2.78.185-.92.36-1.84.53-2.757l2.096-9.515 1.75-1.082 2.095 6.922c.185.685.37 1.377.553 2.076.184.7.37 1.407.553 2.122l.092-.057c.138-.916.276-1.82.414-2.71.14-.89.285-1.79.44-2.7l1.587-9.2 1.84-1.14-3.13 17.04-2.303 1.423-2.28-7.684c-.138-.5-.264-.99-.38-1.48-.115-.49-.234-.99-.356-1.496l-.092.057c-.122.66-.25 1.31-.38 1.95-.13.643-.257 1.29-.38 1.95l-2.233 10.478-2.28 1.41-3.2-13.125zm18.095-11.195l1.98-1.224 1.59 7.236c.138.743.284 1.466.437 2.17.154.703.3 1.426.438 2.17l.092-.057c.17-.934.345-1.86.53-2.78.184-.92.36-1.84.53-2.757l2.094-9.515 1.75-1.082 2.097 6.925c.184.684.368 1.376.553 2.075.183.7.367 1.406.55 2.12l.093-.056c.138-.914.276-1.816.415-2.708.138-.892.284-1.792.437-2.7l1.59-9.202 1.84-1.14-3.13 17.04-2.303 1.425-2.28-7.686c-.137-.498-.264-.99-.38-1.48-.114-.49-.233-.988-.356-1.495l-.092.056c-.123.66-.25 1.31-.38 1.95-.13.642-.257 1.29-.38 1.95l-2.233 10.477-2.277 1.41-3.2-13.123zm18.098-11.195l1.98-1.225 1.588 7.237c.138.744.284 1.466.438 2.17.153.704.3 1.426.437 2.17l.094-.057c.17-.934.346-1.86.53-2.78.184-.92.36-1.84.53-2.756l2.095-9.516 1.75-1.082 2.093 6.923c.185.682.37 1.374.553 2.073.184.7.368 1.407.553 2.122l.09-.057c.14-.915.277-1.818.415-2.71.138-.89.284-1.79.438-2.7l1.588-9.2 1.843-1.14-3.13 17.04-2.304 1.425-2.28-7.684c-.138-.5-.265-.99-.38-1.48-.115-.49-.234-.99-.357-1.496l-.092.057c-.12.66-.25 1.31-.38 1.95-.13.643-.256 1.29-.38 1.95l-2.232 10.478-2.28 1.41-3.2-13.125z" fill="#fff" fill-rule="nonzero"/><path d="M120.07 238.11l-8.16-4.712 8.16-4.712c2.715 1.576 5.377 3.246 8.147 4.72l-8.146 4.703zm-9.092-5.25l-7.723-4.46 21.416-12.364 2.31 1.423c1.697 1.043 3.358 2.15 5.08 3.15l-3.38 1.95h-.058c-.18.01-.338.12-.417.276l-17.042 9.84c-.09.07-.13.087-.182.182zm25.902-4.456l-7.68 4.435c-.04-.047-.084-.085-.136-.117-2.66-1.535-5.263-3.17-7.963-4.632l7.63-4.404c2.716 1.577 5.38 3.247 8.15 4.717zm-34.558-.543l-7.728-4.46 14.74-8.51c2.545 1.478 5.044 3.04 7.63 4.44l-14.46 8.35c-.09.072-.13.087-.182.182zm43.193-4.44l-7.69 4.44-.008-.012c-.044-.072-.104-.126-.175-.17-2.632-1.52-5.21-3.137-7.878-4.587l7.893-4.556 2.663 1.64c1.738 1.073 3.44 2.204 5.195 3.246zm-51.853-.56L86 218.44l8.322-4.805c.052-.016.102-.04.147-.073.015-.012.03-.025.045-.04l4.246-2.45 2.51 1.547c1.61.99 3.186 2.035 4.814 2.993l-12.24 7.068c-.092.073-.13.09-.183.184zm60.275-4.303l-7.402 4.274-5.69-3.506c-.732-.45-1.45-.924-2.185-1.37l7.393-4.267.01.007 2.567 1.582c1.77 1.09 3.502 2.248 5.307 3.28zm-20.877 1.476l7.66-4.422c-1.723-1-3.384-2.105-5.08-3.15l-2.31-1.423-7.66 4.422c.616.375 1.22.77 1.834 1.15l5.546 3.416.01.007zm-15.065-1.297l6.376-3.68.013-.01c.03-.022.065-.04.1-.056l2.708-1.564c-1.614-.95-3.177-1.987-4.773-2.97l-2.548-1.57-.058-.044-9.445 5.453c2.586 1.4 5.085 2.963 7.63 4.44zm75.447-22.987l-38.57 22.27-.007-.01c-.042-.07-.098-.123-.164-.168l-5.544-3.417c-.704-.433-1.395-.89-2.105-1.313l38.537-22.25 2.71 1.67c1.722 1.062 3.41 2.182 5.146 3.218zM85 217.86l-7.792-4.498 8.16-4.71c2.59 1.5 5.13 3.09 7.76 4.515L85 217.86zm56.72-2.828l7.66-4.422c-1.723-1-3.384-2.106-5.08-3.15l-2.31-1.424-7.66 4.422c.616.376 1.22.77 1.834 1.15l5.546 3.417.01.007zm-34.627-.003l1.94-1.12c.03-.026.067-.046.105-.06l5.333-3.08c-1.625-.96-3.202-2.005-4.81-2.996l-2.51-1.548-7.39 4.266c.687.412 1.357.852 2.038 1.272l5.296 3.264zm21.105-2.187l4.838-2.793c.033-.024.068-.044.107-.06l2.707-1.564c-1.614-.95-3.178-1.987-4.773-2.97-.85-.524-1.7-1.048-2.55-1.57l-.057-.044-7.67 4.428c.723.43 1.425.893 2.14 1.334l5.258 3.24zm-51.99-.06l-3.768-2.175 8.096-4.675c1.254.74 2.516 1.467 3.798 2.158l-8.126 4.693zm17.952-.213l7.632-4.405c-2.634-1.422-5.175-3.01-7.764-4.514l-7.632 4.408c2.633 1.422 5.175 3.012 7.764 4.514zm21.32-2.383l7.652-4.418c-1.628-.96-3.204-2.005-4.813-2.996l-2.513-1.548-7.662 4.424c.687.413 1.356.853 2.038 1.273l5.296 3.264zm34.9-.155l7.934-4.58c-1.723-1-3.384-2.106-5.08-3.15l-2.31-1.424-7.933 4.58c.618.376 1.22.77 1.836 1.15 1.848 1.14 3.697 2.278 5.546 3.417l.01.007zm-13.522-2.188l4.838-2.793c.033-.023.07-.043.107-.06l2.708-1.563c-1.613-.95-3.177-1.987-4.772-2.97-.85-.524-1.7-1.048-2.55-1.57l-.056-.044-7.67 4.428c.723.43 1.426.894 2.14 1.335l5.258 3.24zm-34.038-.273l7.632-4.404c-2.634-1.422-5.175-3.012-7.764-4.515l-7.63 4.406c2.632 1.426 5.172 3.016 7.762 4.516zm-13.608-6.644c1.25.742 2.507 1.473 3.784 2.166l-7.628 4.406c-1.245-.724-2.48-1.466-3.72-2.204l7.564-4.367zm34.928 4.262l7.652-4.418c-1.628-.96-3.204-2.004-4.813-2.995l-2.513-1.548-7.662 4.424c.687.414 1.356.854 2.038 1.274l5.296 3.264zm35.175-.313l7.66-4.422c-1.724-1-3.384-2.106-5.08-3.15l-2.31-1.424-7.66 4.42c.616.377 1.22.77 1.834 1.15 1.846 1.14 3.695 2.28 5.544 3.418l.01.007zm-13.796-2.03l5.11-2.95c.032-.026.067-.046.106-.063l2.707-1.562c-1.614-.95-3.178-1.987-4.773-2.97-.85-.524-1.698-1.048-2.548-1.57l-.057-.044-7.944 4.586c.725.43 1.427.893 2.143 1.334l5.257 3.24zm-34.04-.273l7.63-4.405c-2.633-1.423-5.174-3.012-7.763-4.515l-7.63 4.405c2.63 1.426 5.172 3.015 7.762 4.516zm-13.61-6.643c1.252.74 2.51 1.47 3.79 2.16l-7.63 4.407c-1.248-.724-2.484-1.467-3.724-2.202l7.563-4.366zm34.93 4.26l7.925-4.577c-1.628-.957-3.204-2.002-4.813-2.993l-2.51-1.548-7.937 4.58c.687.413 1.356.853 2.038 1.273l5.296 3.264zm35.174-.314l7.66-4.422c-1.723-1-3.384-2.106-5.08-3.15l-2.31-1.424-7.66 4.422c.616.376 1.22.77 1.834 1.15 1.848 1.14 3.696 2.278 5.545 3.417l.01.006zm-13.522-2.188l4.833-2.79.01-.008c.032-.023.066-.042.102-.057l2.707-1.562c-1.615-.95-3.178-1.986-4.774-2.97l-2.548-1.57-.057-.043-7.67 4.428c.723.43 1.425.893 2.14 1.334l5.258 3.24zm-34.313-.115l7.63-4.406c-2.633-1.422-5.174-3.01-7.764-4.514l-7.63 4.405c2.632 1.426 5.173 3.015 7.763 4.516zm-13.61-6.644c1.25.74 2.508 1.47 3.785 2.164l-7.628 4.405c-1.247-.723-2.483-1.466-3.723-2.2l7.567-4.37zm99.64-2.53l-11.707 6.76-5.643-3.477c-.746-.46-1.48-.944-2.23-1.398l11.698-6.754.01.008 2.567 1.582c1.77 1.09 3.503 2.248 5.307 3.28zm-64.437 6.63l7.652-4.416c-1.628-.957-3.204-2.002-4.812-2.993l-2.512-1.55-7.66 4.426c.685.412 1.355.853 2.037 1.273l5.296 3.263zm34.9-.153l7.66-4.422c-1.722-1-3.383-2.106-5.08-3.15l-2.308-1.424-7.66 4.423c.615.376 1.22.77 1.833 1.15 1.848 1.14 3.696 2.278 5.545 3.417l.01.007zm-13.52-2.188l4.837-2.794c.033-.025.07-.045.108-.062l2.707-1.562c-1.615-.95-3.178-1.987-4.774-2.97-.847-.524-1.697-1.048-2.546-1.57l-.058-.044-7.67 4.428c.723.43 1.425.893 2.14 1.334l5.258 3.24zm-34.314-.116l7.63-4.406c-2.633-1.422-5.174-3.01-7.764-4.514l-7.63 4.405c2.632 1.424 5.173 3.014 7.763 4.515zm-13.608-6.644c1.25.74 2.506 1.472 3.783 2.165l-7.628 4.405c-1.245-.724-2.48-1.467-3.72-2.202l7.565-4.367zm35.2 4.103l7.653-4.42c-1.627-.957-3.204-2.002-4.812-2.993l-2.512-1.55-4.24 2.45-.02.017c-.053.048-.116.08-.184.1l-3.217 1.858c.686.412 1.355.853 2.037 1.273l5.296 3.264zm34.902-.156l7.113-4.106c-1.723-1-3.384-2.105-5.08-3.15l-2.31-1.423-7.112 4.106c.615.376 1.22.77 1.833 1.15 1.848 1.14 3.697 2.278 5.545 3.417l.01.007zm28.918-6.118l-7.107 4.102c-.042-.073-.1-.13-.17-.177l-3.348-2.063 6.996-4.094c1.2.76 2.397 1.524 3.63 2.23zm-42.44 3.93l4.838-2.794c.034-.025.07-.045.108-.06l2.707-1.565c-1.614-.95-3.178-1.986-4.773-2.97l-2.55-1.57-.056-.043-7.67 4.428c.722.43 1.424.893 2.14 1.334l5.257 3.24zm-34.313-.116l7.63-4.404c-2.633-1.426-5.174-3.016-7.763-4.516l-7.63 4.405c2.63 1.424 5.172 3.014 7.762 4.515zm-13.61-6.643c1.252.74 2.51 1.47 3.79 2.16l-7.633 4.41c-1.245-.725-2.48-1.468-3.72-2.203l7.563-4.366zm69.557 4.264l7.66-4.422c-1.723-1-3.384-2.106-5.08-3.15l-2.31-1.424-7.66 4.422c.616.376 1.22.77 1.834 1.15l5.547 3.417.01.007zm-34.353-.16l7.652-4.42c-1.628-.957-3.204-2.002-4.813-2.993l-2.512-1.55-7.66 4.426c.686.412 1.356.853 2.04 1.273l5.294 3.263zm64.438-6.632l-8.346 4.82-.005-.012c-.04-.07-.1-.12-.164-.165l-3.4-2.095 8.227-4.814c1.22.774 2.436 1.55 3.69 2.268zm-43.06 4.288l4.29-2.477c.033-.026.07-.046.107-.062l3.797-2.192c-1.725-1-3.387-2.107-5.085-3.154l-2.308-1.422-8.2 4.734c.723.43 1.426.893 2.14 1.334l5.258 3.24zm-34.313-.116l7.63-4.406c-2.633-1.422-5.175-3.01-7.764-4.514l-7.63 4.406c2.632 1.422 5.174 3.012 7.763 4.514zm-13.608-6.644c1.25.74 2.506 1.472 3.783 2.165l-7.628 4.405c-1.247-.722-2.482-1.465-3.722-2.2l7.567-4.37zm78.1 4.425l8.238-4.82-.664-.413-2.567-1.582-.01-.007-8.285 4.782c.71.423 1.4.88 2.105 1.313l1.183.728zm-8.544-.16l7.658-4.422c-1.723-1-3.384-2.106-5.08-3.15l-2.31-1.424-7.66 4.42c.616.377 1.22.77 1.834 1.15l5.546 3.418.01.007zm-34.355-.16l7.378-4.26c-1.627-.96-3.203-2.004-4.81-2.995l-2.513-1.55-3.963 2.29c-.007.006-.014.012-.02.02-.058.048-.12.08-.19.1l-3.215 1.857c.686.412 1.356.853 2.04 1.273l5.294 3.264zm56.712-2.17c-.042-.073-.1-.13-.17-.177l-3.46-2.132 7.743-4.53c.02-.013.04-.025.056-.04.05-.038.093-.087.124-.142l3.934 2.27-8.227 4.75zm-69.647-.29l7.63-4.405c-2.632-1.425-5.173-3.015-7.762-4.516l-7.63 4.404c2.63 1.426 5.172 3.016 7.762 4.516zm-13.607-6.644c1.25.74 2.507 1.47 3.784 2.165l-7.628 4.404c-1.245-.724-2.48-1.467-3.72-2.2l7.565-4.37zm48.456 6.453l3.756-2.17c.033-.024.068-.044.107-.06l3.527-2.037c-1.628-.957-3.205-2.002-4.813-2.993l-2.567-1.582-.006-.004-7.396 4.27c.615.377 1.22.772 1.833 1.15 1.85 1.14 3.697 2.28 5.546 3.418l.014.01zm33.866-9.558l-12.765 7.37c-.005-.002-.008-.004-.01-.007-1.85-1.14-3.7-2.278-5.547-3.418-.614-.378-1.218-.773-1.834-1.15l12.248-7.07c.092-.073.13-.088.183-.184l7.724 4.46zm-47.393 7.367l4.84-2.793c.03-.026.067-.047.105-.063l2.98-1.72c-1.62-.943-3.183-1.98-4.778-2.964l-2.425-1.495c-.04-.027-.077-.058-.11-.093l-4.247 2.453c-.017.017-.035.032-.054.047-.05.036-.1.06-.16.076l-3.485 2.015c.687.412 1.357.853 2.04 1.273l5.295 3.264zm-12.66-2.617l7.63-4.405c-2.633-1.425-5.174-3.015-7.764-4.516l-7.632 4.406c2.634 1.422 5.176 3.01 7.765 4.514zm34.585-.04l4.026-2.325c.03-.02.06-.04.093-.053l3.26-1.883c-1.628-.96-3.204-2.004-4.812-2.995l-2.566-1.583-.007-.005-7.39 4.267c.71.422 1.4.876 2.102 1.31l5.295 3.263zm-48.194-6.603c1.253.74 2.51 1.47 3.79 2.16l-7.633 4.407c-1.245-.724-2.48-1.467-3.72-2.2l7.564-4.368zm35.195 4.108l7.16-4.135c-1.65-.958-3.24-2.017-4.866-3.02-.823-.506-1.645-1.012-2.467-1.52l-3.49 2.016-.023.02c-.056.05-.12.084-.19.105l-3.463 2c.705.415 1.388.867 2.085 1.296l5.24 3.23.014.01zm29.812-7.212l-8.426 4.864-5.295-3.264c-.702-.433-1.392-.887-2.1-1.31l7.912-4.57c.037-.028.08-.052.112-.087.026-.027.05-.06.07-.094l7.727 4.463zM172.1 167.57l7.866-4.542c-2.61-1.413-5.13-2.99-7.698-4.478-.052.027-.108.044-.167.054-.032.004-.037.004-.062.004l-7.702 4.448c2.634 1.422 5.176 3.01 7.765 4.514zm-13.606-6.645c1.25.74 2.505 1.472 3.782 2.165l-7.628 4.404c-1.247-.722-2.482-1.465-3.72-2.2l7.566-4.37zm47.684-3.102l-12.99 7.5-.015-.01c-1.776-1.094-3.552-2.19-5.328-3.283-.667-.41-1.322-.843-1.994-1.245l12.73-7.35 7.6 4.388zm-39.024-1.897c1.25.74 2.505 1.47 3.782 2.164l-7.628 4.404c-1.245-.724-2.48-1.467-3.72-2.2l7.566-4.368zm13.842 6.507l7.148-4.127c-1.747-1.01-3.43-2.13-5.147-3.19l-2.376-1.464-7.387 4.267c2.633 1.42 5.175 3.01 7.764 4.512zm16.583-9.575l-8.446 4.876c-.02-.018-.043-.035-.067-.05l-5.546-3.42c-.635-.39-1.26-.8-1.9-1.19l8.167-4.714 7.79 4.498zm-21.786-1.922c1.258.74 2.523 1.464 3.81 2.15l-7.637 4.408c-1.245-.724-2.48-1.467-3.718-2.2l7.544-4.358zm12.993-3.154l-8.16 4.712c-1.248-.72-2.484-1.46-3.72-2.2l8.115-4.685 3.765 2.17z" fill="#5D5D5D"/><path d="M122.618 106.165l8.48.843c-1.156-13.132-9.932-15.067-12.878-15.342v9.815c1.323.247 3.665 1.19 4.398 4.686zm-19.138 16.12l8.495-10.27c.34-1.936 1.363-5.282 4.39-9.412V92.77c-11.343 14.783-12.744 26.05-12.886 29.514zm8.885-8.525l-7.87 9.514c12.596-1.705 22.4-10.84 25.578-14.142l-7.862-.783c-1.402 1.407-5.114 4.673-9.844 5.41z" fill="#FABD53"/><path d="M46.793 132.016c-1.04-.6-1.682-1.712-1.682-2.913 0-1.202.643-2.313 1.684-2.914l89.436-51.64c3.162-1.825 7.057-1.825 10.218 0l125.634 72.535c1.04.6 1.682 1.71 1.682 2.913 0 1.202-.64 2.312-1.682 2.913l-91.337 52.735c-1.986 1.147-4.433 1.147-6.42 0l-127.532-73.63z" fill="url(#a)" transform="rotate(120 53.006 275.042)"/><defs><linearGradient id="a" x2="1" gradientUnits="userSpaceOnUse" gradientTransform="rotate(-87.436 206.012 15.825) scale(293.0464)"><stop offset="0%" stop-color="#E97900"/><stop offset="100%" stop-color="#FFA900"/></linearGradient></defs></svg>