<svg viewBox="0 0 600 1019" xmlns="http://www.w3.org/2000/svg" fill-rule="evenodd" clip-rule="evenodd" stroke-linecap="square" stroke-linejoin="round" stroke-miterlimit="1.414"><path d="M102.462 1218.157l207.846 120 207.846-120v-240l-207.846-120-207.846 120v240z" fill="#fff"/><path d="M310.308 1343.93L97.462 1221.043V975.27l212.846-122.887L523.154 975.27v245.772L310.308 1343.93zm0-11.547l202.846-117.114V981.04L310.308 863.93 107.462 981.042v234.226l202.846 117.113z" fill="#595959"/><path d="M312.27 1337.024v-240L104 978.55m208.27 118.474l204.428-118.027" fill="#fff" stroke-width="10" stroke="#595959"/><path d="M156.385 1007.024v240m311.768-240v240" fill="none" stroke-width="2" stroke="#4F4F4F"/><path d="M102.462 939.844l207.846 120 207.846-120v-240l-207.846-120-207.846 120v240z" fill="#fff"/><path d="M310.308 1065.617L97.462 942.73V696.958L310.308 574.07l212.846 122.887V942.73l-212.846 122.887zm0-11.547l202.846-117.113V702.73L310.308 585.618 107.462 702.732V936.96l202.846 117.112z" fill="#595959"/><path d="M312.27 1058.71v-240L104 700.237M312.27 818.71l204.428-118.026" fill="#fff" stroke-width="10" stroke="#595959"/><path d="M104.423 758.71l207.846 120 207.84-120" fill="none" stroke-width="2" stroke="#4F4F4F"/><path d="M104.423 818.71l207.846 120 207.84-120" fill="none" stroke-width="2" stroke="#4F4F4F"/><path d="M104.423 878.71l207.846 120 207.84-120m-363.73-150v240m311.77-240v240m-259.81-210v240m207.848-240v240m-155.884-210v240m103.922-240v240" fill="none" stroke-width="2" stroke="#4F4F4F"/><path d="M102.462 659.844l207.846 120 207.846-120v-240l-207.846-120-207.846 120v240z" fill="#fff"/><path d="M310.308 785.618L97.462 662.73V416.958L310.308 294.07l212.846 122.887V662.73L310.308 785.62zm0-11.547l202.846-117.11V422.73L310.308 305.62 107.462 422.73v234.227L310.308 774.07z" fill="#595959"/><path d="M312.27 778.71v-240L104 420.237M312.27 538.71l204.428-118.026" fill="#fff" stroke-width="10" stroke="#595959"/><path d="M104.423 478.71l207.846 120 207.84-120" fill="none" stroke-width="2" stroke="#4F4F4F"/><path d="M104.423 538.71l207.846 120 207.84-120" fill="none" stroke-width="2" stroke="#4F4F4F"/><path d="M104.423 598.71l207.846 120 207.84-120m-363.73-150v240m311.77-240v240m-259.81-210v240m207.848-240v240m-155.884-210v240m103.922-240v240" fill="none" stroke-width="2" stroke="#4F4F4F"/><path d="M103.924 365.72l207.846 120 207.846-120v-240L311.77 5.72l-207.846 120v240z" fill="#fff"/><path d="M311.77 491.493L98.924 368.606V122.832L311.77-.055l212.846 122.887v245.774L311.77 491.493zm0-11.548l202.846-117.113V128.606L311.77 11.493 108.924 128.606v234.226L311.77 479.945z" fill="#595959"/><path d="M313.73 484.587v-240L105.46 126.112m208.27 118.475L518.16 126.56" fill="#fff" stroke-width="10" stroke="#595959"/><path d="M105.885 184.587l207.846 120 207.85-120" fill="none" stroke-width="2" stroke="#4F4F4F"/><path d="M105.885 244.587l207.846 120 207.85-120" fill="none" stroke-width="2" stroke="#4F4F4F"/><path d="M105.885 304.587l207.846 120 207.85-120m-363.73-150v240m311.77-240v240m-259.807-210v240m207.845-240v240m-155.884-210v240m103.923-240v240" fill="none" stroke-width="2" stroke="#4F4F4F"/><ellipse cx="315.625" cy="1201.45" rx="38.497" ry="14.096" fill="#595959" transform="translate(-6 -1086)"/><path d="M259.808 490v260" fill="none" stroke-width="5.42" stroke-linecap="butt" stroke-linejoin="bevel" stroke-dasharray="10.84,5.42,0,0" stroke="#595959" transform="matrix(1.00408 0 0 .83346 48.94 -507.225)"/></svg>