<svg viewBox="0 0 600 1000" xmlns="http://www.w3.org/2000/svg" fill-rule="evenodd" clip-rule="evenodd" stroke-linecap="square" stroke-linejoin="round" stroke-miterlimit="1.414"><path d="M101.962 1200.003l207.846 120 207.846-120v-240l-207.846-120-207.846 120v240z" fill="#fff"/><path d="M309.808 1322.89L99.462 1201.445V958.56l210.346-121.444L520.154 958.56v242.886L309.808 1322.89zm0-5.775l205.346-118.556V961.44L309.808 842.89 104.462 961.444v237.114l205.346 118.555z" fill="#595959"/><path d="M311.77 1318.87v-240l-207.847-120m207.847 120l207.845-120" fill="#fff" stroke-width="5" stroke="#595959"/><path d="M101.962 920.002l207.846 120 207.846-120v-240l-207.846-120-207.846 120v240z" fill="#fff"/><path d="M309.808 1042.89L99.462 921.445V678.56l210.346-121.444L520.154 678.56v242.886L309.808 1042.89zm0-5.775L515.154 918.56V681.444L309.808 562.89 104.462 681.444V918.56l205.346 118.555z" fill="#595959"/><path d="M311.77 1038.87v-240l-207.847-120m207.847 120l207.845-120" fill="#fff" stroke-width="5" stroke="#595959"/><path d="M309.808 561.755L99.462 440.31V197.425L309.808 75.98l210.346 121.445V440.31L309.808 561.755zm0-5.774L515.154 437.43V200.31L309.808 81.755 104.462 200.31v237.115L309.808 555.98z" fill="#595959"/><path d="M311.77 557.735v-240l-207.847-120m207.847 120l207.845-120" fill="none" stroke-width="5" stroke="#383838"/><path d="M101.962 641.132l207.846 120 207.846-120v-240l-207.846-120-207.846 120v240z" fill="#fff"/><path d="M309.808 764.02L99.462 642.574V399.69l210.346-121.445L520.154 399.69v242.885L309.808 764.02zm0-5.774L515.154 639.69V402.574L309.808 284.02 104.462 402.574V639.69l205.346 118.555z" fill="#595959"/><path d="M311.77 760V520L103.922 400M311.77 520l207.845-120" fill="#fff" stroke-width="5" stroke="#595959"/><path d="M101.962 362.264l207.846 120 207.846-120v-240l-207.846-120-207.846 120v240z" fill="#fff"/><path d="M309.808 485.15L99.462 363.708V120.82L309.808-.622 520.154 120.82v242.887L309.808 485.15zm0-5.773L515.154 360.82V123.708L309.808 5.15 104.462 123.708V360.82l205.346 118.557z" fill="#595959"/><path d="M311.77 481.132v-240l-207.847-120m207.847 120l207.845-120" fill="#fff" stroke-width="5" stroke="#595959"/><ellipse cx="315.625" cy="1201.45" rx="38.497" ry="14.096" fill="none" stroke-width="5" stroke="#484848" transform="translate(-6 -1105)"/><path d="M259.808 490v260" fill="none" stroke-width="5.29" stroke-linecap="butt" stroke-linejoin="bevel" stroke-dasharray="10.58,5.29,0,0" stroke="#595959" transform="matrix(1.00408 0 0 .88302 48.94 -550.513)"/></svg>