<?xml version="1.0" standalone="no"?>
<!DOCTYPE svg PUBLIC "-//W3C//DTD SVG 1.1//EN" "http://www.w3.org/Graphics/SVG/1.1/DTD/svg11.dtd">
<svg width="100%" height="100%" viewBox="0 0 600 1000" version="1.1" xmlns="http://www.w3.org/2000/svg" xmlns:xlink="http://www.w3.org/1999/xlink" xml:space="preserve" style="fill-rule:evenodd;clip-rule:evenodd;stroke-linecap:square;stroke-linejoin:round;stroke-miterlimit:1.41421;">
    <g transform="matrix(1,0,0,1,-0,-1200)">
        <g id="Layer1" transform="matrix(1,0,0,1,-200,600)">
            <g transform="matrix(1,0,0,1,0.5,558.024)">
                <g transform="matrix(1,0,0,1,0,880)">
                    <g transform="matrix(1,0,0,1,250,11.1325)">
                        <path d="M51.962,350L259.808,470L467.654,350L467.654,110L259.808,-10L51.962,110L51.962,350Z" style="fill:white;"/>
                        <path d="M259.808,475.774L46.962,352.887L46.962,107.113L259.808,-15.774L472.654,107.113L472.654,352.887L259.808,475.774ZM259.808,464.227L462.654,347.113L462.654,112.887L259.808,-4.227L56.962,112.887L56.962,347.113L259.808,464.227Z" style="fill:rgb(89,89,89);"/>
                    </g>
                    <g transform="matrix(1,0,0,1,200,0)">
                        <path d="M311.769,480L311.769,240L103.499,121.525" style="fill:white;stroke-width:10px;stroke:rgb(89,89,89);"/>
                    </g>
                    <g transform="matrix(1,0,0,1,200,0)">
                        <path d="M311.769,240L516.198,121.973" style="fill:white;stroke-width:10px;stroke:rgb(89,89,89);"/>
                    </g>
                </g>
                <g transform="matrix(1,0,0,1,200,-600)">
                    <path d="M155.885,1630L155.885,1870" style="fill:none;stroke-width:2px;stroke:rgb(79,79,79);"/>
                </g>
                <g transform="matrix(-1,0,0,1,823.538,-600)">
                    <path d="M155.885,1630L155.885,1870" style="fill:none;stroke-width:2px;stroke:rgb(79,79,79);"/>
                </g>
            </g>
            <g transform="matrix(1,0,0,1,0.5,279.711)">
                <g transform="matrix(1,0,0,1,0,880)">
                    <g transform="matrix(1,0,0,1,250,11.1325)">
                        <path d="M51.962,350L259.808,470L467.654,350L467.654,110L259.808,-10L51.962,110L51.962,350Z" style="fill:white;"/>
                        <path d="M259.808,475.773L46.962,352.887L46.962,107.113L259.808,-15.773L472.654,107.113L472.654,352.887L259.808,475.773ZM259.808,464.226L462.654,347.113L462.654,112.887L259.808,-4.226L56.962,112.887L56.962,347.113L259.808,464.226Z" style="fill:rgb(89,89,89);"/>
                    </g>
                    <g transform="matrix(1,0,0,1,200,0)">
                        <path d="M311.769,480L311.769,240L103.499,121.525" style="fill:white;stroke-width:10px;stroke:rgb(89,89,89);"/>
                    </g>
                    <g transform="matrix(1,0,0,1,200,0)">
                        <path d="M311.769,240L516.198,121.973" style="fill:white;stroke-width:10px;stroke:rgb(89,89,89);"/>
                    </g>
                </g>
                <g transform="matrix(1,0,0,1,200,-600)">
                    <path d="M103.923,1660L311.769,1780L519.615,1660" style="fill:none;stroke-width:2px;stroke:rgb(79,79,79);"/>
                </g>
                <g transform="matrix(1,0,0,1,200,-540)">
                    <path d="M103.923,1660L311.769,1780L519.615,1660" style="fill:none;stroke-width:2px;stroke:rgb(79,79,79);"/>
                </g>
                <g transform="matrix(1,0,0,1,200,-480)">
                    <path d="M103.923,1660L311.769,1780L519.615,1660" style="fill:none;stroke-width:2px;stroke:rgb(79,79,79);"/>
                </g>
                <g transform="matrix(1,0,0,1,200,-600)">
                    <path d="M155.885,1630L155.885,1870" style="fill:none;stroke-width:2px;stroke:rgb(79,79,79);"/>
                </g>
                <g transform="matrix(-1,0,0,1,823.538,-600)">
                    <path d="M155.885,1630L155.885,1870" style="fill:none;stroke-width:2px;stroke:rgb(79,79,79);"/>
                </g>
                <g transform="matrix(1,0,0,1,200,-600)">
                    <path d="M207.846,1660L207.846,1900" style="fill:none;stroke-width:2px;stroke:rgb(79,79,79);"/>
                </g>
                <g transform="matrix(-1,0,0,1,823.538,-600)">
                    <path d="M207.846,1660L207.846,1900" style="fill:none;stroke-width:2px;stroke:rgb(79,79,79);"/>
                </g>
                <g transform="matrix(1,0,0,1,200,-600)">
                    <path d="M259.808,1690L259.808,1930" style="fill:none;stroke-width:2px;stroke:rgb(79,79,79);"/>
                </g>
                <g transform="matrix(-1,0,0,1,823.538,-600)">
                    <path d="M259.808,1690L259.808,1930" style="fill:none;stroke-width:2px;stroke:rgb(79,79,79);"/>
                </g>
            </g>
            <g transform="matrix(1,0,0,1,0.5,-0.288675)">
                <g transform="matrix(1,0,0,1,0,880)">
                    <g transform="matrix(1,0,0,1,250,11.1325)">
                        <path d="M51.962,350L259.808,470L467.654,350L467.654,110L259.808,-10L51.962,110L51.962,350Z" style="fill:white;"/>
                        <path d="M259.808,475.774L46.962,352.887L46.962,107.113L259.808,-15.773L472.654,107.113L472.654,352.887L259.808,475.774ZM259.808,464.227L462.654,347.113L462.654,112.887L259.808,-4.226L56.962,112.887L56.962,347.113L259.808,464.227Z" style="fill:rgb(89,89,89);"/>
                    </g>
                    <g transform="matrix(1,0,0,1,200,0)">
                        <path d="M311.769,480L311.769,240L103.499,121.525" style="fill:white;stroke-width:10px;stroke:rgb(89,89,89);"/>
                    </g>
                    <g transform="matrix(1,0,0,1,200,0)">
                        <path d="M311.769,240L516.198,121.973" style="fill:white;stroke-width:10px;stroke:rgb(89,89,89);"/>
                    </g>
                </g>
                <g transform="matrix(1,0,0,1,200,-600)">
                    <path d="M103.923,1660L311.769,1780L519.615,1660" style="fill:none;stroke-width:2px;stroke:rgb(79,79,79);"/>
                </g>
                <g transform="matrix(1,0,0,1,200,-540)">
                    <path d="M103.923,1660L311.769,1780L519.615,1660" style="fill:none;stroke-width:2px;stroke:rgb(79,79,79);"/>
                </g>
                <g transform="matrix(1,0,0,1,200,-480)">
                    <path d="M103.923,1660L311.769,1780L519.615,1660" style="fill:none;stroke-width:2px;stroke:rgb(79,79,79);"/>
                </g>
                <g transform="matrix(1,0,0,1,200,-600)">
                    <path d="M155.885,1630L155.885,1870" style="fill:none;stroke-width:2px;stroke:rgb(79,79,79);"/>
                </g>
                <g transform="matrix(-1,0,0,1,823.538,-600)">
                    <path d="M155.885,1630L155.885,1870" style="fill:none;stroke-width:2px;stroke:rgb(79,79,79);"/>
                </g>
                <g transform="matrix(1,0,0,1,200,-600)">
                    <path d="M207.846,1660L207.846,1900" style="fill:none;stroke-width:2px;stroke:rgb(79,79,79);"/>
                </g>
                <g transform="matrix(-1,0,0,1,823.538,-600)">
                    <path d="M207.846,1660L207.846,1900" style="fill:none;stroke-width:2px;stroke:rgb(79,79,79);"/>
                </g>
                <g transform="matrix(1,0,0,1,200,-600)">
                    <path d="M259.808,1690L259.808,1930" style="fill:none;stroke-width:2px;stroke:rgb(79,79,79);"/>
                </g>
                <g transform="matrix(-1,0,0,1,823.538,-600)">
                    <path d="M259.808,1690L259.808,1930" style="fill:none;stroke-width:2px;stroke:rgb(79,79,79);"/>
                </g>
            </g>
            <g transform="matrix(1,0,0,1,0.5,-294.413)">
                <g transform="matrix(1,0,0,1,0,880)">
                    <g transform="matrix(1,0,0,1,250,11.1325)">
                        <path d="M51.962,350L259.808,470L467.654,350L467.654,110L259.808,-10L51.962,110L51.962,350Z" style="fill:white;"/>
                        <path d="M259.808,475.774L46.962,352.887L46.962,107.113L259.808,-15.774L472.654,107.113L472.654,352.887L259.808,475.774ZM259.808,464.226L462.654,347.113L462.654,112.887L259.808,-4.226L56.962,112.887L56.962,347.113L259.808,464.226Z" style="fill:rgb(89,89,89);"/>
                    </g>
                    <g transform="matrix(1,0,0,1,200,0)">
                        <path d="M311.769,480L311.769,240L103.499,121.525" style="fill:white;stroke-width:10px;stroke:rgb(89,89,89);"/>
                    </g>
                    <g transform="matrix(1,0,0,1,200,0)">
                        <path d="M311.769,240L516.198,121.973" style="fill:white;stroke-width:10px;stroke:rgb(89,89,89);"/>
                    </g>
                </g>
                <g transform="matrix(1,0,0,1,200,-600)">
                    <path d="M103.923,1660L311.769,1780L519.615,1660" style="fill:none;stroke-width:2px;stroke:rgb(79,79,79);"/>
                </g>
                <g transform="matrix(1,0,0,1,200,-540)">
                    <path d="M103.923,1660L311.769,1780L519.615,1660" style="fill:none;stroke-width:2px;stroke:rgb(79,79,79);"/>
                </g>
                <g transform="matrix(1,0,0,1,200,-480)">
                    <path d="M103.923,1660L311.769,1780L519.615,1660" style="fill:none;stroke-width:2px;stroke:rgb(79,79,79);"/>
                </g>
                <g transform="matrix(1,0,0,1,200,-600)">
                    <path d="M155.885,1630L155.885,1870" style="fill:none;stroke-width:2px;stroke:rgb(79,79,79);"/>
                </g>
                <g transform="matrix(-1,0,0,1,823.538,-600)">
                    <path d="M155.885,1630L155.885,1870" style="fill:none;stroke-width:2px;stroke:rgb(79,79,79);"/>
                </g>
                <g transform="matrix(1,0,0,1,200,-600)">
                    <path d="M207.846,1660L207.846,1900" style="fill:none;stroke-width:2px;stroke:rgb(79,79,79);"/>
                </g>
                <g transform="matrix(-1,0,0,1,823.538,-600)">
                    <path d="M207.846,1660L207.846,1900" style="fill:none;stroke-width:2px;stroke:rgb(79,79,79);"/>
                </g>
                <g transform="matrix(1,0,0,1,200,-600)">
                    <path d="M259.808,1690L259.808,1930" style="fill:none;stroke-width:2px;stroke:rgb(79,79,79);"/>
                </g>
                <g transform="matrix(-1,0,0,1,823.538,-600)">
                    <path d="M259.808,1690L259.808,1930" style="fill:none;stroke-width:2px;stroke:rgb(79,79,79);"/>
                </g>
            </g>
            <g transform="matrix(1,0,0,1,194,-505)">
                <ellipse cx="315.625" cy="1201.45" rx="38.497" ry="14.096" style="fill:rgb(89,89,89);"/>
            </g>
            <g transform="matrix(1.00408,0,0,0.833457,248.94,73.775)">
                <path d="M259.808,490L259.808,750" style="fill:none;stroke-width:5.42px;stroke-linecap:butt;stroke-linejoin:bevel;stroke-dasharray:10.84,5.42,0,0;stroke:rgb(89,89,89);"/>
            </g>
        </g>
    </g>
</svg>
