<svg viewBox="0 0 600 1000" xmlns="http://www.w3.org/2000/svg" fill-rule="evenodd" clip-rule="evenodd" stroke-linecap="square" stroke-linejoin="round" stroke-miterlimit="1.414"><path d="M102.943 1180.566l207.846 120 207.844-120v-240l-207.846-120-207.847 120v240z" fill="#fff"/><path d="M310.79 1303.454L100.442 1182.01V939.124L310.79 817.68l210.345 121.444v242.886L310.79 1303.454zm0-5.774l205.345-118.556V942.01L310.79 823.454 105.442 942.01v237.114L310.79 1297.68z" fill="#595959"/><path d="M312.75 1299.434v-240L104.48 940.96m208.27 118.474l204.43-118.027" fill="#fff" stroke-width="5" stroke="#595959"/><path d="M104.904 999.434l207.846 120 207.846-120m-363.73-30v240M468.634 969.434v240M208.827 999.434v240M416.673 999.434v240" fill="none" stroke-width="2" stroke="#4F4F4F"/><path d="M102.943 899.433l207.846 120 207.844-120v-240l-207.846-120-207.847 120v240z" fill="#fff"/><path d="M310.79 1022.32L100.442 900.877V657.992L310.79 536.548 521.134 657.99v242.887L310.79 1022.32zm0-5.774L516.135 897.99V660.88L310.79 542.32 105.442 660.877v237.115l205.346 118.557z" fill="#595959"/><path d="M312.75 1018.3v-240L104.48 659.827M312.75 778.3l204.43-118.026" fill="#fff" stroke-width="5" stroke="#595959"/><path d="M104.904 718.3l207.846 120 207.846-120" fill="none" stroke-width="2" stroke="#4F4F4F"/><path d="M104.904 778.3l207.846 120 207.846-120" fill="none" stroke-width="2" stroke="#4F4F4F"/><path d="M104.904 838.3l207.846 120 207.846-120m-363.73-150v240m311.768-240v240m-259.807-210v240M416.673 718.3v240M260.79 748.3v240M364.71 748.3v240" fill="none" stroke-width="2" stroke="#4F4F4F"/><g><path d="M102.943 620.566l207.846 120 207.844-120v-240l-207.846-120-207.847 120v240z" fill="#fff"/><path d="M310.79 743.453L100.442 622.01V379.122L310.79 257.68l210.345 121.443V622.01L310.79 743.452zm0-5.774L516.135 619.12V382.01L310.79 263.452 105.442 382.01v237.113L310.79 737.68z" fill="#595959"/><path d="M312.75 739.434v-240L104.48 380.96m208.27 118.474l204.43-118.027" fill="#fff" stroke-width="5" stroke="#595959"/><path d="M104.904 439.434l207.846 120 207.846-120" fill="none" stroke-width="2" stroke="#4F4F4F"/><path d="M104.904 499.434l207.846 120 207.846-120" fill="none" stroke-width="2" stroke="#4F4F4F"/><path d="M104.904 559.434l207.846 120 207.846-120m-363.73-150v240m311.768-240v240m-259.807-210v240M416.673 439.434v240M260.79 469.434v240M364.71 469.434v240" fill="none" stroke-width="2" stroke="#4F4F4F"/></g><g><path d="M102.462 346.72l207.846 120 207.846-120v-240l-207.846-120-207.846 120v240z" fill="#fff"/><path d="M310.308 469.606L99.962 348.162V105.277L310.308-16.168l210.346 121.444v242.886L310.308 469.607zm0-5.774l205.346-118.555V108.16L310.308-10.394 104.962 108.162v237.115l205.346 118.555z" fill="#595959"/><path d="M312.27 465.587v-240L104 107.112m208.27 118.475L516.697 107.56" fill="#fff" stroke-width="5" stroke="#595959"/><path d="M104.423 165.587l207.846 120 207.844-120" fill="none" stroke-width="2" stroke="#4F4F4F"/><path d="M104.423 225.587l207.846 120 207.844-120" fill="none" stroke-width="2" stroke="#4F4F4F"/><path d="M104.423 285.587l207.846 120 207.844-120m-363.73-150v240m311.77-240v240m-259.808-210v240M416.192 165.587v240M260.308 195.587v240M364.23 195.587v240" fill="none" stroke-width="2" stroke="#4F4F4F"/></g><g transform="translate(-6 -1105)"><ellipse cx="315.625" cy="1201.45" rx="38.497" ry="14.096" fill="none" stroke-width="5" stroke="#484848"/></g><g><path d="M259.808 490v260" fill="none" stroke-width="5.29" stroke-linecap="butt" stroke-linejoin="bevel" stroke-dasharray="10.58,5.29,0,0" stroke="#595959" transform="matrix(1.00408 0 0 .88302 48.94 -550.513)"/></g></svg>