<svg viewBox="0 0 251 171" xmlns="http://www.w3.org/2000/svg" fill-rule="evenodd" clip-rule="evenodd" stroke-linejoin="round" stroke-miterlimit="1.414"><path d="M9.39 48.258v76.8l38.8-22.4v-89.6l-38.8 22.4v12.8z" fill="#fff" stroke="#4e4d4c"/><path d="M45.418 88.258v-57.6l-33.256 19.2v57.6l33.256-19.2z" fill="#fff" stroke-width=".5" stroke="#4e4d4c"/><path d="M3.85 32.258v89.6l5.54 3.2v-89.6l-5.54-3.2z" fill="#fff" stroke="#4e4d4c"/><path d="M48.19 13.058l-5.544-3.2-38.797 22.4 5.54 3.2" fill="none" stroke="#4e4d4c"/><path d="M28.922 100.98c-1.602.93-2.903 3.224-2.903 5.118 0 1.894 1.3 2.678 2.9 1.748 1.6-.93 2.9-3.222 2.9-5.117s-1.3-2.68-2.91-1.75z" fill="none" stroke-width=".5" stroke="#4e4d4c"/><path d="M24.98 35.434v.02l8.23-5.06v-.02c.01-.006.02-.012.03-.02.604-.37 1.093-1.352 1.093-2.194 0-.84-.49-1.223-1.092-.853-.04.027-.08.056-.12.09l-7.89 4.88c-.08.023-.16.06-.25.113-.6.37-1.09 1.354-1.09 2.196 0 .84.49 1.223 1.09.853l.01-.01z" fill="none" stroke-width=".5" stroke="#656565"/><path d="M29.524 104.68l2.308 1.132 47.93 27.26m53.884-28.392l-2.308 1.132-47.93 27.26" fill="none" stroke-dasharray="5,2,0,0" stroke="#595959"/><g fill="#595959" fill-rule="nonzero"><path d="M176.46 47.537c-.166.434-.363.847-.59 1.238-.226.39-.433.65-.62.78-.172.117-.27.072-.294-.137-.056-.484.104-1.187.48-2.11.374-.92.798-1.543 1.272-1.868.266-.183.447-.19.544-.025-.158.45-.42 1.157-.79 2.122m-5.72 5.695c-.208.143-.33.057-.366-.26-.037-.316.082-.837.355-1.56.28-.726.55-1.297.82-1.714.17-.258.32-.44.48-.542.05-.03.08-.05.1-.057.11-.05.18.01.2.18.05.39-.11 1.08-.47 2.07-.36.99-.72 1.62-1.1 1.87m-2.74-1.19c-.18.12-.31.27-.41.45-.09.18-.12.36-.1.54.04.29.19.46.45.48-.13.49-.32.98-.54 1.47-.23.48-.49.83-.8 1.04-.37.23-.58.15-.63-.25-.04-.41.03-.95.24-1.62.37-1.23.81-2.01 1.3-2.35.32-.22.51-.16.58.18l-.06.04zm15.13-11.27c-.18.12-.37.27-.57.46-.06.05-.12.13-.17.22l-.13.21c-.03.05-.06.14-.1.25-.03.11-.06.2-.08.26s-.04.17-.08.34l-.09.37c-.16.63-.41 1.33-.76 2.09-.34.76-.65 1.23-.91 1.4-.13.093-.21.025-.24-.204-.05-.43.05-1.06.28-1.9.24-.83.49-1.47.75-1.92.04-.07.06-.12.06-.143 0-.03-.02-.03-.05-.01-.38.26-.67.51-.88.747-.21.24-.4.58-.57 1.025-.13.343-.243.745-.34 1.204-.48 1.435-.92 2.29-1.31 2.56-.13.09-.205.05-.225-.13-.04-.336.07-.99.33-1.96.26-.98.5-1.638.714-1.98l-.108.07-.54.36c-.15.1-.29.26-.45.49-.15.227-.254.445-.32.654-.09-.17-.24-.232-.45-.192-.21.04-.432.14-.662.3-.49.33-.92.81-1.29 1.43-.37.62-.64 1.25-.8 1.88l-.01.04-.08.227c-.185.51-.33.88-.43 1.11-.196.42-.43.85-.71 1.28-.28.43-.57.75-.86.95l-.09.06c.435-.62.79-1.314 1.076-2.09.287-.774.4-1.417.34-1.93-.07-.62-.347-.76-.83-.43-.51.35-1.05 1.17-1.623 2.46.28-.92.52-1.52.71-1.798l-.32.22c-.422.29-.71.573-.87.853-.07.15-.18.49-.312 1.038-.05.196-.113.477-.195.846-.254.73-.56 1.213-.91 1.454-.2.14-.36.17-.49.106.11-.46.15-.85.11-1.173-.1-.85-.57-.98-1.43-.39-.51.35-.95.82-1.33 1.43-.222.364-.41.73-.56 1.086l.01-.01c-.35.85-.944 2.323-1.7 3.405-.75 1.085-1.49 1.87-2.21 2.37-1.16.8-1.81.6-1.95-.6-.09-.77.04-1.68.38-2.724s.83-2.04 1.478-2.99c.646-.95 1.33-1.68 2.067-2.18.557-.38.856-.377.9.02.03.252-.063.552-.28.9-.22.34-.464.61-.744.8-.1.07-.19.115-.274.14-.07.17-.1.31-.09.41.01.1.07.15.18.14.11-.004.24-.06.4-.17.336-.23.65-.55.94-.95.29-.4.48-.78.56-1.135.04-.19.056-.347.04-.468-.04-.33-.243-.48-.62-.45-.38.03-.895.27-1.56.72-.66.45-1.31 1.08-1.95 1.88-.64.8-1.153 1.62-1.55 2.45-.39.83-.683 1.64-.88 2.43-.193.79-.26 1.47-.2 2.024.17 1.47 1.1 1.63 2.79.47.725-.5 1.42-1.12 2.09-1.86.664-.746 1.2-1.5 1.61-2.26.066-.125.124-.24.18-.35 0 .06.006.115.012.17.044.42.193.656.443.706.25.05.555-.05.914-.294.56-.385 1-.837 1.33-1.357.32-.52.58-1.103.79-1.76.18.01.4-.063.64-.23.21-.14.42-.37.63-.69-.11.49-.23 1.066-.36 1.718-.4 1.9-.67 3.04-.83 3.423l.52-.35c.14-.1.26-.2.35-.295.09-.09.16-.23.224-.4s.148-.5.24-.992l.4-2.18c.13.27.538.17 1.228-.3s1.26-1.09 1.72-1.844c.28-.47.54-.99.78-1.56-.005.18 0 .35.02.51.07.62.35.76.83.43.697-.48 1.377-1.68 2.04-3.6-.105.505-.133.97-.085 1.385.06.56.29.703.676.44.5-.34 1.04-1.24 1.63-2.7-.03.286-.037.51-.02.674.03.28.11.45.24.52.13.063.29.03.483-.1.19-.13.35-.267.49-.4.138-.14.32-.39.54-.76.23-.37.48-.87.78-1.498l-.44 1.96c-.28 1.243-.716 2.07-1.3 2.47-.15.1-.28.145-.384.134-.11-.01-.17-.08-.18-.21-.03-.24.02-.43.14-.557-.04-.04-.11-.06-.2-.058-.09.007-.2.05-.33.14-.12.087-.23.222-.31.406-.085.19-.12.35-.1.5.03.285.18.405.45.36.27-.04.59-.19.95-.43.36-.25.702-.57 1.04-.98.33-.41.6-.83.803-1.27.21-.44.37-.955.5-1.55.05-.2.11-.48.18-.834.07-.36.12-.58.14-.68l.16-.794c.09-.433.205-.93.34-1.48.175-.66.365-1.133.57-1.413l-.44.306z"/><path d="M168.412 56.014c-2.447 1.833-4.796 3.78-6.454 5.418-.69.683-.866 1.35-.648 1.76 2.816-2.914 4.21-4.083 6.267-5.782.364-.302.655-.743.773-1.17l.062-.226m9.16-5.567c.073-.35-.01-.313-.322-.18-1.708.737-3.587 1.842-5.848 3.632-.38.3-.694.75-.753 1.17 0 0 2.83-2.58 6.92-4.63z"/></g><g fill="none" stroke="#656565"><path d="M178.044 126.43l71.262-41.144-44.54-25.715-71.26 41.15 44.538 25.72z"/><path d="M178.044 126.43v3.427l-44.538-25.714v-3.43m44.538 29.144l71.262-41.143v-3.428"/><path d="M192.89 104.143l8.908 5.143 14.846-8.572-8.908-5.143-14.846 8.58zm-26.723 12L231.49 78.43 204.767 63l-65.323 37.714 26.723 15.43z" stroke-width=".5"/><path d="M189.92 102.43l-2.968-1.716 17.815-10.285 2.97 1.71m-35.63 20.57l-26.724-15.43m32.66 12L151.32 93.85m32.668 12L157.26 90.43m29.692 10.284L163.198 87m29.692 10.286L169.136 83.57m29.694 10.287l-23.755-13.714m29.692 10.287l-23.754-13.716m32.662 12l-26.723-15.428m32.66 12l-26.722-15.43m32.662 12L198.83 66.43m-53.447 37.713l65.323-37.714m-59.386 41.14l65.324-37.72M157.26 111l65.322-37.714m-59.384 41.144l65.323-37.716" stroke-width=".5"/><path d="M133.506 100.714V45.857l71.26-41.143V59.57l-71.26 41.144z"/><path d="M139.444 90.43V49.285L198.83 15v41.143L139.443 90.43z" stroke-width=".5"/></g><path d="M35.08 63.45c-.178.463-.387.902-.628 1.32-.24.415-.46.692-.66.828-.184.126-.288.078-.314-.144-.06-.516.11-1.264.51-2.245.4-.99.85-1.65 1.356-2 .283-.2.476-.2.58-.03-.17.48-.45 1.23-.844 2.26m-6.087 6.06c-.22.15-.352.06-.39-.28-.04-.34.087-.89.378-1.67.3-.77.58-1.38.87-1.83.18-.28.34-.47.51-.58.05-.03.08-.05.11-.06.12-.05.19.01.21.19.05.41-.12 1.15-.5 2.21-.38 1.05-.77 1.72-1.17 1.99m-2.92-1.27c-.19.13-.33.29-.43.48-.1.19-.13.38-.11.57.04.312.2.484.48.514-.14.53-.34 1.05-.58 1.57-.24.52-.53.89-.85 1.116-.4.25-.62.16-.67-.27-.05-.43.03-1 .25-1.72.4-1.31.86-2.14 1.39-2.502.34-.23.54-.17.62.19l-.07.05zm16.1-11.99c-.19.13-.39.29-.61.49-.06.06-.13.14-.19.23s-.1.17-.14.23c-.03.06-.07.15-.11.27-.04.12-.06.22-.08.28l-.09.36-.1.4c-.17.676-.44 1.418-.81 2.227-.36.81-.69 1.31-.96 1.497-.14.1-.23.03-.26-.215-.05-.46.05-1.13.3-2.02.25-.89.52-1.57.8-2.045.04-.074.06-.125.06-.154 0-.03-.02-.03-.05-.01-.41.28-.72.54-.94.79-.22.254-.42.617-.6 1.09-.14.365-.26.79-.36 1.28-.518 1.53-.98 2.44-1.4 2.73-.14.096-.22.05-.24-.14-.04-.354.072-1.052.35-2.09.28-1.034.53-1.74.76-2.102l-.11.08-.58.38c-.15.11-.31.28-.47.52-.16.247-.276.48-.34.7-.097-.18-.257-.25-.48-.21-.23.046-.46.15-.71.32-.52.36-.977.87-1.37 1.53-.395.66-.68 1.33-.854 2.01l-.01.04-.085.24c-.19.536-.35.93-.46 1.176-.2.45-.452.9-.75 1.36-.3.46-.6.795-.92 1.01l-.09.063c.46-.654.84-1.394 1.15-2.22.3-.824.42-1.51.35-2.054-.076-.66-.37-.81-.88-.46-.545.37-1.12 1.248-1.73 2.62.3-.98.55-1.612.76-1.91l-.347.24c-.45.31-.76.62-.92.91-.08.16-.192.53-.336 1.11-.05.202-.12.502-.205.9-.27.772-.59 1.29-.97 1.55-.214.142-.39.18-.52.11.12-.49.16-.91.12-1.25-.106-.91-.61-1.05-1.52-.42-.546.37-1.02.88-1.42 1.53-.24.39-.44.77-.594 1.16v-.02c-.364.9-1 2.473-1.8 3.63-.8 1.15-1.585 1.99-2.36 2.52-1.24.85-1.93.633-2.076-.64-.1-.826.04-1.79.4-2.9.36-1.11.89-2.176 1.57-3.186.68-1.01 1.42-1.78 2.2-2.317.59-.4.91-.393.955.02.03.276-.067.59-.297.96-.23.368-.5.65-.797.858-.11.08-.205.13-.292.16-.075.186-.11.33-.095.44.01.11.078.16.19.157.118-.005.26-.065.427-.18.36-.25.693-.585 1.002-1.014.31-.43.51-.834.6-1.21.04-.2.06-.365.04-.494-.04-.35-.26-.51-.66-.48-.4.032-.953.29-1.657.77-.705.484-1.4 1.152-2.08 2.01-.683.852-1.233 1.72-1.65 2.61-.42.883-.733 1.75-.94 2.59-.21.842-.28 1.56-.21 2.16.18 1.57 1.167 1.732 2.965.5.77-.53 1.51-1.19 2.22-1.98.71-.795 1.28-1.597 1.712-2.41.07-.13.13-.25.19-.37 0 .064.003.125.01.185.05.445.21.695.476.75.26.05.59-.05.97-.315.6-.41 1.07-.89 1.41-1.44.34-.55.62-1.18.84-1.875.2.01.43-.07.68-.25.22-.15.447-.394.677-.73-.11.524-.24 1.13-.38 1.826-.42 2.023-.716 3.24-.88 3.65l.55-.38c.15-.11.274-.21.37-.317.09-.11.17-.25.24-.43s.15-.537.254-1.065l.425-2.32c.13.28.56.18 1.3-.33.73-.5 1.34-1.158 1.83-1.96.292-.498.57-1.05.83-1.66-.01.19 0 .372.012.542.072.66.37.814.88.463.74-.51 1.464-1.784 2.17-3.83-.11.54-.14 1.03-.09 1.477.07.6.31.75.72.47.534-.362 1.11-1.32 1.74-2.87-.03.3-.04.54-.02.717.03.3.113.486.253.556.14.07.31.04.52-.1.2-.14.373-.28.52-.43.14-.14.333-.41.573-.8.237-.39.51-.92.824-1.59l-.47 2.08c-.3 1.33-.76 2.21-1.38 2.63-.16.11-.3.16-.41.15-.114-.01-.18-.086-.194-.22-.03-.26.023-.458.16-.595-.05-.05-.12-.07-.22-.06-.1.002-.217.05-.35.142-.136.09-.247.236-.336.43-.09.2-.122.375-.104.533.03.3.193.43.48.38.29-.046.624-.2 1.006-.46.38-.265.75-.61 1.103-1.045.357-.43.64-.88.86-1.35.22-.466.397-1.015.53-1.65.05-.21.11-.51.19-.89.077-.38.126-.62.15-.72.02-.1.08-.38.17-.843.1-.46.22-.99.37-1.575.18-.71.38-1.21.604-1.51l-.47.32z" fill="#595959" fill-rule="nonzero"/><circle cx="86.572" cy="137.901" r="30.306" fill="#fff" stroke="#4e4d4c"/><path d="M93.962 139.694l11.714 7.706c-1.597-19.033-13.72-28.475-17.79-31.128v13.56c1.827 1.357 5.063 4.467 6.076 9.862zm-26.44 7.505l11.736-7.64c.47-2.42 1.883-6.25 6.067-9.62v-13.58c-15.672 11.68-17.607 26.16-17.803 30.84zm12.275-4.92l-10.873 7.07c17.4 7.36 30.948 2.3 35.337.19l-10.86-7.15c-1.94.86-7.07 2.51-13.6-.12z" fill="#4e4d4c"/></svg>