<svg viewBox="0 0 300 300" xmlns="http://www.w3.org/2000/svg" fill-rule="evenodd" clip-rule="evenodd" stroke-linecap="round" stroke-linejoin="round" stroke-miterlimit="1.414"><ellipse cx="149.389" cy="148.75" rx="136.399" ry="41.25" fill="none" stroke-width="2.03" stroke-dasharray="2.03,4.07,0,0" stroke="#717171" transform="matrix(1 0 0 .96687 1 -4.37)"/><circle cx="151.678" cy="150.183" r="71.393" fill="#525252" transform="matrix(.618 0 0 .618 58.17 26.77)"/><path d="M180.26 137.4c-.24.143-.483.284-.724.426-1.182.676-2.38 1.322-3.596 1.925-2.594 1.288-5.27 2.39-8.01 3.28-3.094 1-6.266 1.726-9.478 2.14-1.717.224-3.443.35-5.172.4-.39.01-.78.016-1.172.018-1.95-.002-3.898-.107-5.837-.332-4.69-.543-9.31-1.748-13.704-3.575-2.023-.84-4.004-1.813-5.9-2.942-.494-.293-.984-.6-1.464-.92-.16-.107-.322-.218-.48-.33-.087-.06-.183-.122-.256-.2-.056-.06-.1-.13-.133-.205 0-.006-.004-.013-.006-.02v-.003l-.002-.003v-.003c-.005-.01-.008-.02-.012-.034-.017-.055-.023-.087-.026-.125-.002-.025-.004-.05-.004-.075v-.018c.003-.292.01-.584.016-.876.05-1.837.153-3.67.333-5.498.342-3.468.94-6.907 1.816-10.267 1-3.83 2.363-7.552 4.086-11.083 1.963-4.023 4.39-7.788 7.204-11.195 2.905-3.516 6.222-6.667 9.864-9.307.997-.72 2.016-1.405 3.066-2.032.333-.197.667-.39 1.006-.576.105-.057.204-.11.308-.163.076-.04.155-.085.236-.116l.007-.003h.004l.016-.006c.002 0 .006 0 .01-.004h.008l.002-.003h.007l.002-.002h.012l.004-.003h.006l.003-.002h.01v-.003h.012l.003-.002h.008l.003-.002h.02l.004-.003h.014l.01-.002h.02v-.002h.003c.02 0 .04 0 .06.003.015 0 .03 0 .044.004h.01c.05.007.1.02.147.04.017.007.032.015.047.023.008.004.016.008.023.014l.024.012c.238.15.474.3.71.453 1.586 1.034 3.14 2.126 4.64 3.296 2.913 2.27 5.643 4.806 8.117 7.603 2.792 3.155 5.253 6.64 7.3 10.38 2.53 4.623 4.425 9.625 5.63 14.81.503 2.17.887 4.368 1.143 6.584.196 1.708.318 3.426.347 5.147.012.76.007 1.52-.027 2.278l-.02.363c-.007.108-.008.22-.032.323l-.003.01V137l-.002.005V137l-.003.005v.006l-.006.016c-.038.12-.107.225-.197.304-.004.006-.01.008-.013.012-.026.022-.054.042-.084.06z" fill="#FFBD4B"/><path d="M177.03 134.867c-.02.018-.044.034-.07.05l-.633.37c-1.035.59-2.08 1.157-3.146 1.684-2.27 1.128-4.61 2.094-7.007 2.87-2.706.877-5.483 1.51-8.293 1.875-1.504.194-3.013.306-4.527.35-.34.007-.683.012-1.025.014-1.707-.003-3.41-.095-5.108-.29-4.103-.476-8.15-1.53-11.992-3.13-1.77-.737-3.504-1.587-5.163-2.574-.433-.257-.86-.524-1.28-.805-.143-.093-.284-.19-.423-.29-.075-.053-.16-.105-.224-.174l-.025-.03 24.39-14.08 24.528 14.162zm-24.34-45.234l-.014-.002h.005l.01.004z" fill="#F9B133"/><path d="M128.19 134.728v-.043l-.002-.016.015-.768c.043-1.608.134-3.213.293-4.812.3-3.032.822-6.04 1.59-8.98.874-3.353 2.067-6.61 3.575-9.7 1.72-3.52 3.84-6.815 6.305-9.797 2.543-3.077 5.444-5.833 8.632-8.143.87-.63 1.762-1.23 2.682-1.78.29-.172.583-.34.88-.504.09-.05.177-.095.27-.143l.1-.054v30.686l-24.338 14.05z" fill="#E89C0B"/><path d="M176.86 134.728c.002-.014.002-.03.002-.043l.002-.016-.015-.768c-.045-1.608-.136-3.213-.295-4.812-.298-3.032-.82-6.04-1.59-8.982-.874-3.35-2.067-6.61-3.575-9.7-1.716-3.518-3.84-6.813-6.302-9.795-2.543-3.077-5.444-5.834-8.632-8.143-.87-.63-1.762-1.23-2.68-1.78-.292-.172-.585-.34-.882-.504-.09-.05-.178-.095-.27-.143l-.1-.054v30.686l24.337 14.05z" fill="#DA9209"/><path d="M166.96 129.407c-.126.07-.25.14-.377.208-.614.33-1.236.648-1.868.944-1.348.63-2.74 1.17-4.162 1.606-1.608.49-3.257.847-4.926 1.05-.892.11-1.79.173-2.687.197-.204.004-.406.007-.61.008-1.012 0-2.025-.052-3.033-.162-2.437-.267-4.84-.86-7.122-1.755-1.05-.413-2.08-.89-3.066-1.443-.258-.144-.513-.294-.76-.45-.086-.054-.17-.108-.253-.164-.045-.03-.094-.06-.132-.097-.03-.03-.053-.064-.07-.1l-.003-.01v-.005l-.007-.016c-.01-.028-.012-.044-.014-.06v-.05l.007-.43c.026-.9.08-1.8.174-2.695.18-1.7.49-3.387.945-5.035.52-1.878 1.228-3.705 2.123-5.436 1.02-1.974 2.28-3.82 3.743-5.492 1.51-1.725 3.234-3.27 5.127-4.565.516-.353 1.046-.69 1.59-.996.174-.096.348-.19.524-.282l.16-.08c.04-.02.08-.042.124-.057h.005c.002 0 .005 0 .007-.004h.006v-.002h.007v-.002h.015l.003-.002h.008v-.002h.014v-.002h.012l.002-.002h.02l.002-.002h.03c.01 0 .017 0 .024.003h.006c.025.004.05.01.075.02l.026.01.012.008.013.007.37.222c.823.507 1.63 1.043 2.41 1.617 1.514 1.112 2.933 2.356 4.22 3.73 1.45 1.546 2.73 3.255 3.792 5.09 1.315 2.267 2.3 4.72 2.926 7.264.262 1.064.46 2.142.594 3.23.102.837.166 1.68.18 2.524.007.372.005.745-.013 1.117l-.01.178c-.005.053-.006.108-.018.16l-.002.003v.006h-.002v.005l-.004.008c-.02.058-.055.11-.102.15-.002 0-.005.003-.006.005l-.044.03z" fill="#F88D00"/><path d="M198.33 171.903h-.002" fill="#FFFCFC" fill-rule="nonzero"/><path d="M89.894 197.13v.002m130.39-.002v.002m-130.39-.002v.002m130.39-.002v.002m-22.39-8.032" fill="#464646" fill-rule="nonzero"/><path d="M42.993 194.47v-72.047l34.664 20.013v72.047L42.993 194.47zM259.568 194.73v-72.047l-34.664 20.013v72.047l34.664-20.013z" fill="#464646"/><path d="M47.044 186.843v-55l26.67 15.778v55.003l-26.67-15.78zM255.517 187.104v-55l-26.67 15.778v55l26.67-15.778z" fill="#868686"/><g fill="#fff" fill-rule="nonzero"><path d="M63.786 161.7c-.13.188-.285.332-.463.433-.178.1-.34.115-.486.046-.135-.066-.212-.19-.23-.375-.045-.43.08-.835.374-1.215.296-.38.63-.48 1-.305.21.1.35.257.428.475-.124.208-.33.52-.62.94m-4.485-.736c-.164-.077-.26-.256-.288-.537-.03-.28.064-.58.28-.898.213-.32.426-.52.638-.6.13-.055.252-.053.37.003.034.016.06.03.077.045.086.063.137.17.153.32.035.345-.088.744-.37 1.195-.28.452-.568.608-.86.47m-2.15-3.42c-.142-.068-.25-.073-.32-.016-.073.055-.1.164-.084.325.025.263.143.526.352.79-.108.26-.25.48-.43.653-.177.174-.387.203-.63.088-.294-.156-.46-.414-.496-.772-.037-.357.024-.71.182-1.053.29-.623.63-.843 1.02-.66.247.12.398.34.453.668l-.05-.024zm11.86 4.92c-.14-.066-.29-.12-.45-.162-.05-.01-.097-.01-.14.01-.044.02-.08.036-.104.05-.027.013-.055.05-.084.106-.03.057-.05.103-.062.136-.013.034-.035.098-.065.19l-.07.214c-.128.35-.326.664-.598.944-.272.28-.51.372-.713.276-.108-.05-.17-.177-.19-.38-.04-.382.03-.793.214-1.235.184-.44.38-.713.59-.82.03-.02.043-.04.04-.064-.002-.024-.014-.04-.037-.052-.3-.14-.53-.214-.694-.218-.164-.004-.313.09-.446.283-.103.15-.193.36-.268.633-.378.688-.72.96-1.03.813-.1-.048-.16-.15-.176-.305-.03-.297.057-.71.26-1.233.205-.525.392-.824.56-.897l-.083-.04-.423-.21c-.113-.052-.23-.06-.348-.02-.12.04-.204.115-.25.223-.07-.215-.19-.403-.357-.564-.167-.163-.34-.287-.52-.37-.384-.184-.72-.2-1.01-.05-.292.15-.5.397-.63.745l-.007.02c-.02.03-.04.065-.064.103-.143.23-.256.387-.338.473-.15.157-.336.277-.555.36-.22.083-.446.07-.677-.04l-.068-.03c.34-.09.62-.308.843-.657.22-.35.31-.75.263-1.203-.055-.548-.272-.912-.65-1.09-.4-.19-.824-.04-1.273.452.22-.463.406-.716.558-.758l-.254-.12c-.33-.157-.56-.197-.68-.117-.06.045-.14.22-.25.52-.036.11-.087.27-.15.484-.2.343-.437.45-.71.318-.16-.074-.287-.195-.384-.36.085-.26.113-.533.084-.82-.076-.75-.45-1.286-1.12-1.603-.4-.19-.748-.218-1.043-.086-.177.08-.322.195-.437.343 0-.002.002-.004.003-.005-.27.35-.74.963-1.33 1.126-.59.164-1.168.11-1.737-.16-.914-.432-1.424-1.18-1.532-2.24-.07-.686.03-1.282.297-1.79.268-.505.654-.837 1.16-.996.503-.158 1.042-.1 1.617.17.435.207.67.482.705.828.023.227-.05.377-.22.45-.17.073-.364.057-.584-.047-.078-.038-.15-.084-.214-.137-.057.07-.08.15-.072.238.01.09.056.18.14.277.085.094.19.17.313.23.265.124.512.162.74.11.228-.05.375-.177.44-.378.032-.11.042-.22.03-.327-.028-.293-.19-.598-.486-.917-.295-.318-.7-.6-1.22-.846-.52-.247-1.03-.347-1.53-.3-.504.045-.91.215-1.217.51-.308.293-.54.66-.693 1.102-.153.44-.204.91-.154 1.404.133 1.306.86 2.273 2.186 2.9.57.27 1.115.417 1.638.44.522.023.944-.078 1.264-.304.052-.036.097-.073.14-.11.002.048.006.097.01.147.04.37.156.69.352.956.196.266.434.466.716.6.44.207.787.255 1.04.143.255-.113.462-.333.622-.66.146.177.314.31.503.4.163.077.328.09.498.037-.082.29-.176.627-.283 1.014-.31 1.13-.525 1.77-.648 1.93l.405.192c.11.053.202.082.273.087.07.004.13-.03.178-.108.05-.077.11-.264.19-.563l.314-1.34c.097.322.416.613.957.87.54.255.99.295 1.35.12.22-.11.423-.28.61-.51-.004.133 0 .27.015.413.056.55.272.912.65 1.09.547.26 1.08-.06 1.6-.96-.082.3-.104.637-.067 1.007.05.496.227.815.53.96.393.185.82-.025 1.28-.63-.023.196-.03.365-.016.508.023.246.085.455.19.626.102.17.228.292.377.362.15.07.28.115.384.13.106.017.247-.016.424-.1.176-.084.378-.24.607-.466l-.343 1.132c-.222.718-.562.97-1.018.753-.118-.056-.22-.137-.302-.24-.083-.106-.13-.215-.142-.328-.022-.215.016-.316.114-.304-.034-.073-.088-.15-.16-.23-.073-.08-.158-.142-.257-.19-.1-.046-.18-.035-.247.033-.065.07-.09.17-.078.3.025.25.144.48.356.692.213.21.46.384.74.517.283.134.555.193.816.177.26-.015.473-.1.634-.257.16-.157.29-.41.39-.76.036-.114.082-.278.138-.493.056-.215.092-.35.108-.405.016-.054.06-.21.13-.47s.16-.542.267-.85c.136-.36.285-.557.448-.588l-.347-.166zM52.47 160.22v.002m197.622.258"/><path d="M57.474 161.024c-1.92-.788-3.76-1.398-5.062-1.622-.542-.094-.68.27-.508.787 2.208.276 3.302.63 4.915 1.166.284.095.51.013.604-.213l.05-.12m7.183 3.962c.058-.207-.008-.255-.252-.433-1.34-.974-2.813-1.816-4.586-2.468-.3-.11-.546-.044-.593.23 0 0 2.227.565 5.43 2.67zm182.565-8.425c-.134.348-.292.68-.474.993-.182.314-.35.522-.5.625-.137.095-.216.06-.236-.108-.044-.39.084-.953.385-1.692.302-.74.643-1.24 1.024-1.5.216-.147.36-.154.44-.02-.127.36-.34.927-.637 1.7m-4.597 4.575c-.168.115-.266.046-.295-.208-.03-.253.067-.67.287-1.252.22-.582.438-1.04.655-1.375.133-.207.26-.352.38-.435.036-.024.062-.04.08-.045.09-.038.14.01.157.145.035.313-.09.868-.38 1.666-.288.795-.583 1.296-.883 1.502m-2.204-.95c-.143.098-.253.22-.326.363-.074.143-.103.288-.086.434.028.236.15.366.364.39-.11.393-.256.786-.44 1.176-.18.39-.397.67-.645.84-.304.19-.473.123-.51-.2-.038-.324.025-.757.187-1.3.298-.983.646-1.612 1.045-1.885.254-.173.41-.125.465.145l-.052.036zm12.16-9.05c-.143.098-.297.22-.46.368-.052.047-.1.106-.144.178-.046.07-.08.13-.108.173-.027.046-.055.115-.084.208-.03.093-.052.165-.064.214-.013.05-.036.142-.067.274l-.073.303c-.13.506-.332 1.065-.61 1.675-.28.61-.523.986-.73 1.13-.11.074-.176.02-.198-.163-.04-.346.035-.853.222-1.523.188-.67.39-1.184.604-1.54.03-.057.045-.096.043-.118-.003-.02-.016-.024-.04-.008-.305.21-.542.41-.71.6-.17.192-.32.465-.458.82-.106.277-.197.6-.274.968-.386 1.154-.738 1.84-1.055 2.057-.104.07-.164.036-.18-.104-.03-.27.058-.795.267-1.576.21-.78.4-1.31.575-1.586l-.087.06-.434.288c-.116.08-.235.21-.358.393-.123.183-.21.358-.258.526-.072-.137-.193-.19-.364-.156-.17.032-.35.112-.533.24-.393.268-.74.65-1.037 1.15-.298.498-.512 1-.644 1.51l-.007.03-.068.183c-.146.406-.262.702-.346.888-.154.338-.344.68-.57 1.027-.224.347-.455.6-.692.764l-.07.047c.35-.493.637-1.052.864-1.673.228-.622.318-1.138.27-1.548-.056-.497-.278-.613-.665-.347-.41.28-.845.94-1.305 1.977.227-.737.418-1.217.573-1.44l-.26.178c-.34.234-.572.463-.696.687-.06.118-.145.395-.254.83-.04.156-.092.382-.157.678-.205.586-.448.976-.73 1.17-.162.11-.293.138-.392.084.09-.37.118-.684.088-.943-.078-.68-.46-.784-1.148-.312-.41.28-.767.665-1.07 1.15-.182.295-.33.586-.448.874 0-.004 0-.007.002-.01-.278.68-.758 1.866-1.363 2.734-.604.868-1.2 1.502-1.782 1.902-.936.642-1.46.482-1.57-.478-.07-.62.03-1.35.305-2.186.275-.837.67-1.637 1.187-2.398.516-.762 1.07-1.345 1.658-1.75.445-.304.686-.3.722.013.023.205-.052.446-.226.722-.173.276-.373.49-.598.645-.08.056-.155.095-.22.116-.06.14-.084.25-.075.33.01.08.06.12.146.116.087-.004.194-.05.32-.137.273-.187.525-.44.76-.765.233-.323.384-.627.45-.912.033-.15.044-.274.033-.37-.03-.265-.198-.386-.5-.362-.304.026-.72.22-1.25.584-.534.364-1.057.868-1.57 1.512-.517.644-.93 1.3-1.248 1.967-.315.668-.552 1.32-.71 1.954-.157.635-.21 1.176-.158 1.624.136 1.18.883 1.308 2.24.377.584-.4 1.144-.898 1.68-1.496.536-.596.968-1.2 1.296-1.813.053-.098.1-.19.144-.28.002.048.005.094.01.14.04.336.16.524.36.564.2.04.446-.04.735-.236.45-.31.805-.672 1.066-1.09.26-.416.472-.888.636-1.413.15.008.323-.054.516-.187.167-.114.337-.3.51-.554l-.29 1.375c-.316 1.524-.538 2.44-.664 2.748l.416-.285c.115-.08.21-.158.28-.237.073-.077.134-.184.184-.32.05-.136.114-.403.193-.8l.322-1.75c.1.218.426.136.98-.244s1.015-.873 1.38-1.48c.228-.374.437-.79.63-1.25-.006.144 0 .28.013.41.057.495.28.61.667.345.56-.383 1.106-1.345 1.64-2.886-.085.406-.108.777-.07 1.112.052.447.234.564.546.35.4-.275.838-.996 1.31-2.163-.023.227-.028.407-.015.538.025.227.09.366.195.42.106.052.235.026.388-.08.153-.104.284-.212.393-.32.11-.11.254-.313.435-.61.18-.295.39-.695.625-1.2l-.352 1.57c-.228 1-.576 1.66-1.044 1.98-.12.083-.225.12-.31.112-.086-.007-.134-.063-.146-.165-.022-.195.017-.344.117-.447-.034-.034-.09-.05-.163-.045-.074.004-.162.04-.263.11-.1.07-.185.178-.253.326-.066.148-.092.28-.08.4.027.227.15.32.366.287.217-.035.47-.152.76-.35.288-.198.567-.46.834-.786s.484-.665.65-1.016c.164-.352.297-.767.398-1.243.038-.16.086-.382.143-.67l.11-.542c.02-.075.063-.287.135-.636.072-.348.163-.744.274-1.187.14-.53.29-.91.46-1.135l-.358.244zm-18.378 18.9"/><path d="M240.75 163.367c-1.966 1.472-3.855 3.036-5.188 4.35-.556.55-.696 1.085-.52 1.413 2.263-2.34 3.385-3.278 5.038-4.644.293-.242.526-.596.62-.938.018-.06.035-.122.05-.18m7.366-4.478c.058-.28-.01-.25-.26-.142-1.372.593-2.883 1.48-4.7 2.92-.307.24-.56.6-.607.938 0 0 2.28-2.07 5.565-3.715z"/></g><path d="M42.996 122.428l4.223-2.307 34.22 20.135-3.785 2.185-34.66-20.012zM259.565 122.69l-4.223-2.308-34.223 20.133 3.784 2.185 34.66-20.01z" fill="#7B7B7B"/><path d="M77.657 142.437l3.792-2.19v72.08l-3.794 2.19v-72.08zM224.904 142.698l-3.792-2.19v72.08l3.792 2.19v-72.08z" fill="#606060"/></svg>