<svg viewBox="0 0 310 200" xmlns="http://www.w3.org/2000/svg" fill-rule="evenodd" clip-rule="evenodd" stroke-linejoin="round" stroke-miterlimit="1.414"><path d="M55.737 85.358v92.045l-46.5-26.846V43.17l46.5 26.847v15.34z" fill="#fff" stroke-width=".995" stroke="#4E4D4C"/><path d="M12.56 133.298V64.264l39.855 23.012v69.033L12.56 133.295z" fill="#fff" stroke-width=".503" stroke="#4E4D4C"/><path d="M22.85 103.974l.002.002v-.002" fill="#5C544C" fill-rule="nonzero"/><path d="M62.38 66.18v107.387l-6.643 3.835V70.016l6.643-3.835z" fill="#fff" stroke-width=".995" stroke="#4E4D4C"/><path d="M109.78 193.23l1.577-.686L144.107 176" fill="none" stroke-width=".53" stroke-dasharray="2.66,1.06,0,0" stroke="#595959" transform="matrix(1.75405 0 0 2.0032 -130.18 -309.394)"/><path d="M9.238 43.17l6.642-3.835 46.5 26.846-6.643 3.837" fill="none" stroke-width=".995" stroke="#4E4D4C"/><circle cx="75.102" cy="252.109" r="4.281" fill="none" stroke-width=".43" stroke="#4E4D4C" transform="matrix(.81285 .4716 0 .96095 -28.718 -125.02)"/><path d="M107.524 194.48L144.107 176" fill="none" stroke-width=".66" stroke-dasharray="3.31,1.32,0,0" stroke="#595959" transform="matrix(-1.40837 0 0 1.60957 326.197 -240.49)"/><path d="M108.08 179.233v.022H95.885v-.022h-.045c-.892 0-1.616-.724-1.616-1.616 0-.893.724-1.617 1.616-1.617.065 0 .128.004.19.01l11.69.033c.12-.028.244-.043.37-.043.893 0 1.618.724 1.618 1.617 0 .892-.725 1.617-1.617 1.617h-.01z" fill="none" stroke-width=".39" stroke="#656565" transform="matrix(.80895 .49734 0 1.13 -50.378 -186.294)"/><path d="M39.492 108.365c-.226.324-.492.57-.798.744-.306.17-.585.196-.837.08-.233-.114-.366-.328-.398-.647-.08-.74.14-1.437.643-2.092.507-.654 1.08-.83 1.72-.525.36.17.605.443.736.818-.213.36-.57.9-1.07 1.62m-7.725-1.274c-.28-.133-.446-.44-.495-.925-.05-.483.113-.998.48-1.547.37-.55.738-.895 1.103-1.035.222-.09.435-.087.638.01.06.028.105.053.135.077.15.11.238.294.264.55.06.597-.153 1.284-.637 2.06-.484.78-.98 1.048-1.484.808m-3.704-5.893c-.243-.116-.426-.124-.55-.027-.125.098-.173.285-.144.563.046.453.25.906.61 1.36-.186.45-.43.826-.74 1.125-.306.3-.67.35-1.086.152-.508-.27-.793-.716-.856-1.33-.062-.62.043-1.224.315-1.82.5-1.072 1.086-1.45 1.756-1.132.427.202.688.585.78 1.148l-.085-.04zM48.5 109.69c-.243-.117-.5-.21-.778-.28-.085-.023-.165-.017-.24.016-.076.032-.135.06-.18.084-.043.024-.09.085-.14.183-.05.1-.086.177-.108.235-.022.058-.06.168-.112.328l-.122.368c-.216.602-.558 1.143-1.027 1.625-.467.48-.876.64-1.226.47-.184-.086-.294-.305-.33-.654-.067-.658.058-1.366.373-2.126.316-.76.654-1.23 1.014-1.41.053-.035.077-.07.073-.114-.004-.04-.026-.07-.065-.09-.514-.243-.913-.37-1.195-.375-.283-.005-.54.157-.77.488-.177.257-.33.62-.46 1.09-.65 1.186-1.24 1.653-1.774 1.4-.176-.083-.276-.258-.304-.525-.054-.514.096-1.223.45-2.127.35-.904.67-1.42.963-1.545l-.144-.067-.73-.36c-.195-.093-.395-.104-.6-.036-.206.07-.35.196-.433.382-.12-.37-.325-.695-.612-.974-.287-.277-.585-.49-.896-.638-.66-.313-1.24-.34-1.74-.085-.503.256-.864.684-1.085 1.284l-.013.035-.112.18c-.245.396-.44.67-.58.816-.26.268-.58.474-.957.617-.378.144-.766.12-1.165-.068l-.116-.055c.584-.154 1.068-.53 1.45-1.132.383-.6.534-1.292.455-2.073-.096-.945-.47-1.572-1.12-1.88-.69-.328-1.42-.07-2.194.777.382-.797.703-1.232.964-1.304l-.437-.207c-.573-.27-.963-.337-1.17-.2-.104.077-.247.376-.43.896-.066.185-.154.463-.264.832-.343.586-.75.767-1.225.543-.27-.13-.49-.336-.66-.62.15-.45.2-.92.15-1.413-.13-1.296-.774-2.217-1.93-2.766-.69-.327-1.29-.376-1.796-.148-.306.138-.557.336-.754.592l.004-.01c-.465.604-1.273 1.658-2.29 1.94-1.015.28-2.013.188-2.993-.277-1.57-.744-2.45-2.032-2.636-3.86-.12-1.183.05-2.21.51-3.08.462-.873 1.127-1.445 1.995-1.718.87-.27 1.797-.173 2.79.297.745.354 1.15.83 1.21 1.425.04.39-.087.65-.38.774-.29.126-.626.1-1.005-.08-.135-.065-.258-.144-.37-.235-.098.12-.14.256-.124.41.017.154.097.312.243.474.146.162.326.293.54.395.456.216.88.28 1.273.193.395-.087.647-.305.76-.652.055-.19.073-.376.054-.56-.05-.505-.33-1.03-.84-1.58s-1.21-1.037-2.104-1.46c-.892-.425-1.77-.597-2.636-.52-.866.08-1.564.372-2.094.878-.53.507-.93 1.14-1.194 1.9-.264.76-.353 1.566-.267 2.42.228 2.25 1.483 3.916 3.765 4.998.98.467 1.92.72 2.82.76.902.04 1.628-.132 2.18-.52.09-.063.167-.127.24-.19.005.082.01.166.02.252.064.64.266 1.19.604 1.65.336.458.748.803 1.233 1.033.757.36 1.355.442 1.793.25.438-.194.794-.573 1.07-1.136.252.305.54.535.867.69.28.133.565.154.857.064-.14.5-.304 1.082-.486 1.75-.533 1.942-.905 3.05-1.118 3.32l.7.33c.193.093.35.144.472.152.12.01.223-.053.307-.184.08-.13.19-.454.322-.97l.54-2.31c.168.56.718 1.06 1.65 1.503.932.443 1.706.51 2.322.207.38-.188.73-.48 1.055-.877-.01.23-.003.47.022.714.096.944.47 1.57 1.12 1.88.942.447 1.86-.105 2.757-1.656-.143.52-.18 1.098-.116 1.735.086.852.392 1.403.916 1.65.675.32 1.41-.04 2.205-1.08-.04.335-.05.626-.028.873.04.424.147.784.325 1.078.176.296.394.504.65.626.258.122.48.198.662.226.183.028.426-.03.73-.174.305-.145.654-.412 1.05-.8l-.593 1.948c-.382 1.236-.966 1.668-1.753 1.295-.204-.097-.377-.235-.52-.416-.143-.18-.225-.368-.245-.563-.036-.37.03-.544.198-.523-.06-.126-.15-.257-.276-.395-.124-.135-.27-.245-.44-.325-.17-.08-.312-.062-.425.055-.114.117-.16.29-.136.515.044.432.248.83.613 1.193.365.364.79.66 1.276.892.485.23.953.332 1.403.306.45-.026.814-.174 1.092-.443.278-.27.5-.706.67-1.31.064-.195.144-.477.24-.847.097-.37.16-.603.186-.697.028-.096.103-.366.224-.813.12-.446.274-.933.46-1.46.233-.624.49-.962.77-1.014l-.596-.284zm-29.18 42.45l.003.006-.003-.006" fill="#595959" fill-rule="nonzero"/><path d="M28.618 107.193c-3.307-1.36-6.48-2.414-8.72-2.802-.935-.16-1.17.467-.877 1.36 3.808.48 5.69 1.09 8.47 2.017.494.164.886.023 1.045-.366.03-.07.057-.14.085-.206m12.373 6.832c.1-.357-.014-.44-.436-.746-2.307-1.68-4.845-3.134-7.9-4.26-.514-.19-.937-.076-1.018.397 0 0 3.834.974 9.35 4.607zm170.91-29.15c-.214.553-.465 1.08-.754 1.58-.29.5-.556.83-.794.992-.22.15-.345.094-.376-.172-.07-.62.134-1.516.61-2.69.48-1.177 1.02-1.972 1.627-2.387.34-.233.57-.243.694-.03-.2.572-.536 1.474-1.01 2.705m-7.293 7.267c-.266.184-.422.074-.468-.33-.05-.403.103-1.07.45-1.992.35-.925.697-1.653 1.04-2.186.21-.328.41-.558.604-.69.055-.038.097-.062.125-.072.14-.06.224.017.25.232.056.498-.145 1.38-.6 2.65-.46 1.267-.927 2.064-1.404 2.39m-3.498-1.52c-.23.158-.403.35-.52.58-.117.228-.163.458-.136.69.044.378.236.584.577.62-.176.63-.41 1.254-.7 1.874-.29.62-.63 1.065-1.026 1.336-.48.3-.75.194-.808-.32-.06-.517.04-1.205.297-2.067.473-1.565 1.026-2.565 1.658-3 .405-.275.65-.2.74.23l-.083.058zm19.296-14.37c-.23.158-.473.353-.733.587-.08.074-.156.167-.227.28-.07.115-.127.206-.168.276-.042.07-.086.18-.133.328-.047.15-.08.263-.1.342-.02.08-.057.223-.107.434-.05.21-.09.37-.115.48-.204.807-.527 1.696-.97 2.666-.442.97-.828 1.57-1.158 1.795-.174.12-.278.035-.31-.26-.065-.546.053-1.354.35-2.42.3-1.065.618-1.882.958-2.45.05-.09.072-.15.068-.184-.004-.034-.024-.04-.06-.014-.487.334-.863.653-1.13.956-.267.303-.51.738-.726 1.303-.168.44-.313.95-.435 1.538-.614 1.837-1.173 2.927-1.675 3.272-.165.112-.26.057-.286-.166-.05-.43.092-1.264.424-2.506.332-1.242.636-2.083.912-2.522l-.137.094-.69.46c-.183.124-.372.333-.566.623-.196.29-.33.568-.41.835-.114-.218-.307-.302-.578-.25-.27.05-.553.178-.846.38-.624.426-1.172 1.036-1.645 1.828-.472.792-.813 1.593-1.022 2.403l-.012.045-.105.29c-.23.646-.415 1.117-.55 1.412-.244.54-.545 1.083-.902 1.634-.357.55-.723.954-1.1 1.21l-.11.078c.553-.788 1.01-1.675 1.37-2.664.363-.99.506-1.81.43-2.462-.09-.79-.442-.974-1.057-.553-.65.445-1.34 1.493-2.07 3.142.36-1.173.663-1.936.91-2.29l-.413.283c-.54.37-.91.734-1.106 1.09-.096.188-.23.628-.404 1.32-.062.25-.145.61-.25 1.08-.323.932-.708 1.55-1.156 1.858-.257.176-.464.22-.62.135.14-.588.185-1.088.137-1.5-.124-1.08-.732-1.25-1.823-.5-.65.445-1.216 1.055-1.696 1.83-.29.466-.527.93-.713 1.386 0-.004.003-.01.004-.014-.44 1.084-1.204 2.97-2.16 4.35-.96 1.38-1.905 2.387-2.83 3.022-1.486 1.018-2.316.763-2.49-.765-.115-.99.046-2.148.482-3.48.435-1.33 1.063-2.603 1.883-3.813.82-1.21 1.698-2.137 2.634-2.778.706-.485 1.087-.478 1.144.02.038.326-.08.71-.357 1.15-.276.437-.593.78-.95 1.025-.13.09-.246.15-.35.185-.094.22-.133.395-.118.524.014.13.09.19.23.183.135-.007.305-.08.507-.217.43-.296.832-.7 1.203-1.214.373-.514.61-.997.718-1.45.052-.24.07-.436.05-.59-.047-.422-.31-.613-.792-.576-.48.037-1.142.345-1.985.923-.842.58-1.672 1.38-2.49 2.402-.816 1.023-1.476 2.066-1.98 3.127-.5 1.06-.873 2.096-1.123 3.106-.25 1.01-.335 1.87-.253 2.584.216 1.88 1.4 2.082 3.556.604.925-.634 1.813-1.426 2.663-2.375.85-.95 1.537-1.91 2.058-2.885.086-.16.16-.305.23-.447.003.075.01.15.017.22.06.537.252.837.57.9.32.065.708-.06 1.166-.375.716-.49 1.28-1.068 1.694-1.73.413-.664.75-1.414 1.01-2.25.24.012.512-.087.82-.297.264-.18.533-.474.81-.88-.135.63-.288 1.358-.46 2.19-.503 2.424-.855 3.88-1.056 4.37l.66-.452c.184-.126.333-.25.447-.376.115-.124.21-.295.29-.51.08-.217.18-.64.307-1.274l.512-2.782c.158.345.678.216 1.558-.387s1.61-1.387 2.192-2.35c.36-.595.69-1.258.997-1.988-.01.228-.003.445.02.65.09.79.444.974 1.058.553.89-.61 1.758-2.14 2.604-4.592-.132.648-.168 1.237-.107 1.77.082.712.37.9.865.56.638-.437 1.33-1.584 2.08-3.44-.037.362-.045.647-.024.857.036.36.138.582.306.666.167.085.373.044.616-.123.243-.166.45-.337.623-.51.173-.175.403-.497.69-.967.288-.47.618-1.107.99-1.91l-.56 2.497c-.36 1.59-.912 2.64-1.655 3.15-.192.132-.356.19-.49.177-.136-.016-.213-.105-.232-.268-.035-.31.026-.546.186-.71-.057-.055-.144-.08-.26-.072-.12.008-.26.066-.42.176-.16.11-.293.283-.4.518-.106.235-.15.447-.127.636.04.36.234.513.58.457.344-.054.745-.24 1.204-.554.457-.314.9-.73 1.324-1.25.426-.517.77-1.056 1.032-1.616s.473-1.218.633-1.976c.06-.254.135-.61.226-1.065.09-.458.15-.745.175-.865l.21-1.01c.114-.556.26-1.186.436-1.89.22-.845.462-1.447.727-1.805l-.564.387zm-27.57 28.442" fill="#595959" fill-rule="nonzero"/><path d="M201.634 95.69c-3.123 2.34-6.12 4.822-8.235 6.912-.885.872-1.108 1.723-.83 2.245 3.593-3.717 5.373-5.208 7.996-7.376.465-.382.835-.946.986-1.49l.08-.29m11.687-7.102c.092-.446-.015-.4-.413-.228-2.178.937-4.575 2.346-7.46 4.63-.485.385-.885.957-.96 1.493 0 0 3.622-3.285 8.832-5.897z" fill="#595959" fill-rule="nonzero"/><path d="M213.923 185.527l90.92-52.492-56.825-32.807-90.92 52.492 56.825 32.807z" fill="none" stroke-width=".998" stroke="#656565"/><path d="M213.923 185.527v4.375L157.1 157.094v-4.374m56.823 37.182l90.92-52.492v-4.375" fill="none" stroke-width=".998" stroke="#656565"/><path d="M232.865 157.094l11.365 6.56 18.94-10.934-11.363-6.562-18.942 10.936zm-34.095 15.31l83.342-48.117-34.094-19.685-83.34 48.118 34.092 19.684z" fill="none" stroke-width=".506" stroke="#656565"/><path d="M229.076 154.907l-3.787-2.187 22.73-13.123 3.785 2.187" fill="none" stroke-width=".506" stroke="#656565"/><path d="M206.348 168.03l-34.096-19.685" fill="none" stroke-width=".504" stroke="#656565"/><path d="M213.923 163.656L179.83 143.97m41.67 15.31l-34.095-19.683m37.883 13.123l-30.306-17.497m37.883 13.123l-30.307-17.498m37.882 13.122l-30.305-17.496m37.883 13.123L217.712 122.1m41.67 15.31l-34.094-19.685m41.672 15.31l-34.095-19.684m41.67 15.31L240.44 108.98m-68.187 48.117l83.342-48.117m-75.764 52.49l83.34-48.116m-75.764 52.493l83.342-48.118m-75.765 52.492l83.342-48.118" fill="none" stroke-width=".506" stroke="#656565"/><path d="M157.1 152.72V82.73l90.918-52.49v69.988l-90.92 52.492z" fill="none" stroke-width=".998" stroke="#656565"/><path d="M164.677 139.597V87.105l75.764-43.743v52.492l-75.76 43.743z" fill="none" stroke-width=".506" stroke="#656565"/><circle cx="221.703" cy="167.426" r="55.426" fill="#fff" stroke-width="1.53" stroke="#4E4D4C" transform="translate(-22.485 -65.472) scale(.65533)"/><path d="M131.66 46.395l14.04 9.236c-1.914-22.81-16.443-34.124-21.32-37.304v16.25c2.19 1.63 6.067 5.356 7.28 11.82zM99.973 55.39l14.065-9.146c.563-2.894 2.257-7.488 7.27-11.526V18.436c-18.78 13.99-21.1 31.35-21.335 36.955zm14.71-5.896l-13.03 8.474c20.855 8.822 37.09 2.762 42.35.232l-13.016-8.564c-2.325 1.034-8.47 3.01-16.303-.142z" fill="#4E4D4C"/></svg>