<svg viewBox="0 0 300 300" xmlns="http://www.w3.org/2000/svg" fill-rule="evenodd" clip-rule="evenodd" stroke-linecap="round" stroke-linejoin="round" stroke-miterlimit="1.414"><circle cx="151.678" cy="150.183" r="71.393" fill="#525252" transform="matrix(.9713 0 0 .9713 63.87 -58.37)"/><path d="M255.762 115.51l-1.138.666c-1.858 1.063-3.74 2.078-5.652 3.027-4.077 2.02-8.284 3.756-12.59 5.15-4.862 1.576-9.848 2.714-14.896 3.368-2.7.35-5.412.553-8.13.63-.614.014-1.228.02-1.84.026-3.065-.004-6.128-.17-9.176-.522-7.372-.853-14.638-2.748-21.542-5.62-3.18-1.322-6.293-2.85-9.273-4.624-.777-.462-1.546-.943-2.302-1.447-.253-.17-.507-.343-.757-.52-.136-.096-.285-.19-.4-.314-.09-.095-.16-.205-.21-.323l-.01-.032v-.004l-.003-.003-.002-.005-.016-.053c-.026-.087-.036-.138-.04-.197-.004-.04-.006-.08-.006-.12l-.002-.026c.006-.46.016-.92.026-1.378.08-2.888.243-5.77.526-8.643.538-5.45 1.477-10.855 2.855-16.136 1.573-6.02 3.717-11.872 6.424-17.42 3.086-6.325 6.898-12.243 11.323-17.597 4.567-5.53 9.78-10.48 15.504-14.63 1.565-1.132 3.168-2.21 4.818-3.193.523-.31 1.048-.615 1.582-.907.164-.09.32-.17.483-.256.12-.064.244-.136.372-.184l.01-.004.005-.005c.01-.002.017-.004.025-.008l.016-.004.003-.002H211.758l.003-.004h.006l.003-.002.006-.002h.003l.006-.002h.01l.005-.003h.003l.006-.002.003-.002h.006l.003-.003h.006l.003-.002h.006l.004-.002h.006l.003-.002h.01l.005-.002h.003l.007-.002h.01l.006-.002h.01l.007-.002h.01l.014-.002h.002l.016-.003h.13c.025 0 .05.005.07.01h.017c.077.01.153.033.227.064.026.01.05.024.074.036.013.006.025.012.037.02l.038.02c.37.237.743.474 1.113.713 2.493 1.627 4.932 3.344 7.293 5.183 4.58 3.566 8.87 7.554 12.76 11.95 4.39 4.96 8.255 10.436 11.474 16.317 3.974 7.264 6.953 15.127 8.846 23.277.792 3.408 1.395 6.864 1.796 10.347.31 2.684.502 5.385.548 8.09.02 1.19.012 2.387-.042 3.578-.01.19-.02.38-.032.572-.01.167-.012.343-.05.506l-.004.015v.002l-.002.01-.002.007-.002.004-.002.01-.002.007v.002c-.004.007-.006.016-.008.022-.06.187-.168.355-.31.48l-.02.016c-.042.034-.086.066-.132.093z" fill="#FFBD4B"/><path d="M250.446 111.766c-.033.03-.07.054-.11.077-.33.195-.663.39-.995.582-1.625.93-3.27 1.82-4.943 2.65-3.568 1.768-7.248 3.286-11.016 4.506-4.253 1.38-8.62 2.377-13.033 2.95-2.363.304-4.736.48-7.114.55-.537.01-1.074.02-1.612.02-2.68-.002-5.36-.147-8.027-.455-6.45-.747-12.81-2.404-18.848-4.917-2.784-1.16-5.507-2.495-8.115-4.046-.68-.403-1.354-.823-2.015-1.264-.223-.148-.443-.3-.662-.456-.12-.084-.25-.166-.352-.275l-.04-.046 38.336-22.13 38.55 22.257zM212.19 40.67l-.022-.003h.008l.013.004z" fill="#F5A517"/><path d="M173.51 111.548l-.002-.068-.003-.024.023-1.205c.07-2.524.212-5.047.46-7.56.47-4.767 1.292-9.497 2.498-14.12 1.375-5.266 3.252-10.39 5.62-15.243 2.7-5.532 6.036-10.71 9.908-15.397 3.996-4.838 8.556-9.17 13.566-12.8 1.37-.99 2.77-1.934 4.215-2.796.458-.272.918-.538 1.384-.794l.42-.225c.054-.027.108-.056.16-.085v48.233l-38.25 22.085z" fill="#F9B133"/><path d="M250.18 111.548l.002-.068.002-.024-.022-1.205c-.07-2.524-.212-5.047-.46-7.56-.47-4.767-1.293-9.497-2.5-14.12-1.374-5.266-3.25-10.39-5.62-15.243-2.7-5.532-6.034-10.71-9.906-15.397-3.997-4.838-8.557-9.17-13.567-12.8-1.37-.99-2.77-1.934-4.217-2.796-.457-.272-.918-.538-1.384-.794l-.423-.225c-.053-.027-.107-.056-.16-.085v48.233l38.252 22.085z" fill="#E89C0C"/><path d="M173.448 165.437l-.57.315c-.93.502-1.872.982-2.83 1.43-2.04.955-4.146 1.775-6.3 2.434-2.435.744-4.93 1.282-7.458 1.59-1.35.166-2.71.26-4.07.298-.307.006-.614.01-.92.012-1.535-.002-3.068-.08-4.594-.247-3.69-.405-7.327-1.3-10.783-2.657-1.592-.625-3.15-1.347-4.642-2.185-.387-.22-.772-.446-1.15-.684-.127-.08-.254-.162-.38-.246-.067-.045-.142-.09-.2-.148-.044-.044-.08-.096-.104-.152l-.006-.015v-.002h-.002l-.01-.027c-.013-.04-.018-.065-.02-.093-.002-.018-.003-.037-.003-.055v-.013c.002-.217.007-.434.012-.65.04-1.365.12-2.727.263-4.084.27-2.575.74-5.13 1.43-7.624.786-2.845 1.86-5.61 3.214-8.232 1.545-2.988 3.453-5.784 5.668-8.314 2.286-2.612 4.895-4.952 7.76-6.912.784-.535 1.586-1.044 2.412-1.51.262-.146.525-.29.792-.428.082-.042.16-.08.242-.12.06-.03.122-.065.186-.088l.005-.002.013-.005c.002 0 .005 0 .008-.002H151.424l.003-.003h.005l.002-.002h.01l.003-.002h.005l.003-.002h.023l.002-.003h.007l.003-.002h.012l.006-.002h.024V127h.05c.012 0 .024.002.035.004h.008c.04.006.077.016.114.03l.036.018.018.01.02.01c.185.11.37.223.556.336 1.247.77 2.468 1.58 3.65 2.45 2.292 1.684 4.44 3.568 6.386 5.645 2.197 2.344 4.133 4.93 5.744 7.71 1.99 3.432 3.48 7.147 4.43 10.998.395 1.61.697 3.245.898 4.89.155 1.27.25 2.545.274 3.823.01.563.006 1.128-.02 1.69-.006.09-.01.18-.017.27-.005.08-.006.163-.025.24l-.002.007v.005l-.002.003v.002l-.002.004v.003l-.005.012c-.03.086-.086.165-.157.224l-.01.008c-.02.016-.043.03-.066.044z" fill="url(#a)" transform="translate(56.35 -68.796) scale(1.038)"/><g transform="matrix(.11 0 0 .11 18.362 99.426)"><path d="M4.995 509C2.79 509 1 510.8 1 513v47c0 2.21 1.792 4 3.995 4h10.01c2.206 0 3.995-1.8 3.995-4v-47c0-2.21-1.792-4-3.995-4H4.995z" fill="#FFFCFC"/><clipPath id="b"><path d="M4.995 509C2.79 509 1 510.8 1 513v47c0 2.21 1.792 4 3.995 4h10.01c2.206 0 3.995-1.8 3.995-4v-47c0-2.21-1.792-4-3.995-4H4.995z"/></clipPath><g clip-path="url(#b)"><path fill="#D6D6D6" fill-rule="nonzero" d="M-4 504h28v65H-4z"/></g></g><g transform="matrix(.11 0 0 .11 18.362 99.426)"><path d="M4.995 377C2.79 377 1 378.8 1 381v47c0 2.21 1.792 4 3.995 4h10.01c2.206 0 3.995-1.8 3.995-4v-47c0-2.21-1.792-4-3.995-4H4.995z" fill="#FFFCFC"/><clipPath id="c"><path d="M4.995 377C2.79 377 1 378.8 1 381v47c0 2.21 1.792 4 3.995 4h10.01c2.206 0 3.995-1.8 3.995-4v-47c0-2.21-1.792-4-3.995-4H4.995z"/></clipPath><g clip-path="url(#c)"><path fill="#D6D6D6" fill-rule="nonzero" d="M-4 372h28v65H-4z"/></g></g><g transform="matrix(.11 0 0 .11 18.362 99.426)"><path d="M4 227c-2.21 0-4 1.8-4 4.002v61.996C0 295.208 1.79 297 4 297h13c2.21 0 4-1.8 4-4.002v-61.996c0-2.21-1.79-4.002-4-4.002H4z" fill="#FFFCFC"/><clipPath id="d"><path d="M4 227c-2.21 0-4 1.8-4 4.002v61.996C0 295.208 1.79 297 4 297h13c2.21 0 4-1.8 4-4.002v-61.996c0-2.21-1.79-4.002-4-4.002H4z"/></clipPath><g clip-path="url(#d)"><path fill="#D6D6D6" fill-rule="nonzero" d="M-5 222h31v80H-5z"/></g></g><g transform="matrix(.11 0 0 .11 18.362 99.426)"><path d="M514.004 0C512.344 0 511 1.344 511 3v9c0 1.657 1.35 3 3.004 3h117.992c1.66 0 3.004-1.344 3.004-3V3c0-1.657-1.35-3-3.004-3H514.004z" fill="#FFFCFC"/><clipPath id="e"><path d="M514.004 0C512.344 0 511 1.344 511 3v9c0 1.657 1.35 3 3.004 3h117.992c1.66 0 3.004-1.344 3.004-3V3c0-1.657-1.35-3-3.004-3H514.004z"/></clipPath><g clip-path="url(#e)"><path fill="#D6D6D6" fill-rule="nonzero" d="M506-5h134v25H506z"/></g></g><g transform="matrix(.11 0 0 .11 18.362 99.426)"><path d="M123 8C60.04 8 9 59.042 9 122v1358c0 62.96 51.04 114 114 114h521c62.96 0 114-51.04 114-114V122C758 59.04 706.96 8 644 8H123z" fill="#FFFCFC"/><clipPath id="f"><path d="M123 8C60.04 8 9 59.042 9 122v1358c0 62.96 51.04 114 114 114h521c62.96 0 114-51.04 114-114V122C758 59.04 706.96 8 644 8H123z"/></clipPath><g clip-path="url(#f)"><path fill="#474747" fill-rule="nonzero" d="M4 3h759v1596H4z"/></g></g><g transform="matrix(.11 0 0 .11 18.362 99.767)"><path fill="#fff" d="M62 236h640v1136H62z"/><clipPath id="g"><path d="M62 236h640v1136H62z"/></clipPath><g clip-path="url(#g)"><path fill="#F4F4F4" fill-rule="nonzero" d="M57 231h650v1146H57z"/></g></g><g transform="matrix(.11 0 0 .11 18.362 99.426)"><path d="M331 129c-8.837 0-16 7.162-16 16 0 8.837 7.165 16 16 16h106c8.837 0 16-7.162 16-16 0-8.837-7.165-16-16-16H331z" fill="#FFFCFC"/><clipPath id="h"><path d="M331 129c-8.837 0-16 7.162-16 16 0 8.837 7.165 16 16 16h106c8.837 0 16-7.162 16-16 0-8.837-7.165-16-16-16H331z"/></clipPath><g clip-path="url(#h)"><path fill="#D6D6D6" fill-rule="nonzero" d="M310 124h148v42H310z"/></g></g><g transform="matrix(.11 0 0 .11 18.362 99.426)"><path d="M383 100c8.284 0 15-6.716 15-15 0-8.284-6.716-15-15-15-8.284 0-15 6.716-15 15 0 8.284 6.716 15 15 15z" fill="#FFFCFC"/><clipPath id="i"><path d="M383 100c8.284 0 15-6.716 15-15 0-8.284-6.716-15-15-15-8.284 0-15 6.716-15 15 0 8.284 6.716 15 15 15z"/></clipPath><g clip-path="url(#i)"><path fill="#D6D6D6" fill-rule="nonzero" d="M363 65h40v40h-40z"/></g></g><path d="M41.204 173.01l.002.003s0-.002-.002-.003" fill="#FFFCFC" fill-rule="nonzero"/><g fill="#464646" fill-rule="nonzero"><path d="M69.822 175.013c-.316.637-.688 1.2-1.116 1.69-.428.492-.82.757-1.172.795-.326.035-.51-.157-.557-.576-.105-.974.197-2.126.905-3.454.71-1.33 1.51-2.042 2.408-2.138.503-.055.845.127 1.028.545-.298.676-.797 1.722-1.496 3.138m-10.808 4.513c-.394.043-.626-.254-.694-.89-.07-.635.155-1.487.672-2.556.517-1.068 1.03-1.85 1.54-2.342.31-.307.608-.476.894-.507.08-.007.143-.007.185.003.21.032.335.217.37.555.086.784-.21 1.918-.89 3.4-.677 1.484-1.37 2.263-2.075 2.34m-5.182-5.23c-.34.037-.596.174-.77.412-.174.237-.24.538-.2.903.063.595.347 1.064.85 1.407-.258.78-.602 1.505-1.03 2.174-.43.67-.937 1.035-1.52 1.098-.712.036-1.11-.352-1.2-1.164-.087-.81.06-1.744.44-2.798.702-1.91 1.52-2.914 2.458-3.016.6-.064.963.26 1.095.97l-.122.013zm28.59-4.77c-.34.036-.702.117-1.088.24-.12.04-.23.114-.336.22-.107.11-.19.196-.25.265-.063.068-.128.19-.198.37-.07.178-.12.317-.15.416-.03.1-.083.282-.157.55l-.17.614c-.303 1.018-.782 2.055-1.438 3.11-.655 1.057-1.227 1.61-1.716 1.664-.26.028-.412-.188-.462-.648-.093-.867.08-1.96.522-3.28.44-1.32.913-2.254 1.418-2.8.072-.09.106-.163.1-.217-.006-.054-.036-.08-.09-.073-.72.078-1.278.227-1.673.448-.395.22-.754.656-1.075 1.306-.25.506-.465 1.14-.645 1.9-.91 2.19-1.737 3.325-2.482 3.406-.245.026-.386-.137-.424-.488-.075-.677.135-1.79.627-3.342s.942-2.535 1.35-2.948l-.203.022-1.02.09c-.272.03-.552.175-.84.44-.287.263-.49.558-.605.886-.17-.42-.455-.707-.857-.863-.4-.155-.82-.21-1.254-.162-.924.1-1.737.533-2.437 1.3s-1.205 1.66-1.514 2.678l-.02.06c-.047.102-.1.215-.155.34-.344.754-.616 1.293-.815 1.616-.36.584-.807 1.132-1.336 1.64-.53.51-1.072.794-1.63.854l-.162.018c.818-.69 1.495-1.612 2.03-2.765.536-1.153.748-2.243.637-3.27-.137-1.245-.66-1.818-1.57-1.72-.964.104-1.987 1.063-3.07 2.877.534-1.426.983-2.296 1.348-2.61l-.612.067c-.802.088-1.348.31-1.64.67-.143.194-.343.73-.6 1.605-.09.314-.214.774-.368 1.38-.48 1.102-1.05 1.688-1.714 1.76-.38.04-.687-.07-.922-.332.208-.748.277-1.446.207-2.095-.184-1.706-1.084-2.47-2.7-2.296-.965.104-1.803.523-2.514 1.257-.43.442-.78.923-1.055 1.44l.008-.015c-.654 1.224-1.784 3.358-3.205 4.58-1.42 1.22-2.818 1.904-4.19 2.052-2.2.238-3.43-.847-3.69-3.255-.168-1.556.07-3.13.716-4.727.645-1.595 1.575-2.938 2.79-4.027 1.216-1.09 2.516-1.71 3.9-1.86 1.048-.112 1.613.224 1.698 1.01.054.513-.122.976-.53 1.39-.41.414-.88.65-1.41.706-.19.02-.362.012-.517-.026-.137.248-.195.473-.173.676.02.203.134.358.338.466.204.108.455.146.754.114.637-.07 1.23-.325 1.78-.768.55-.442.905-.952 1.063-1.53.076-.31.1-.586.075-.83-.07-.663-.462-1.17-1.174-1.525-.71-.353-1.692-.463-2.942-.33-1.25.137-2.48.61-3.69 1.427-1.21.814-2.187 1.79-2.93 2.932-.742 1.14-1.3 2.35-1.67 3.63-.37 1.276-.494 2.477-.373 3.6.32 2.962 2.076 4.27 5.27 3.926 1.37-.15 2.686-.56 3.946-1.238 1.26-.676 2.276-1.51 3.048-2.505.124-.16.234-.314.337-.464.006.113.015.227.027.34.09.845.373 1.45.845 1.817.473.367 1.048.514 1.728.44 1.06-.114 1.896-.485 2.51-1.112.61-.627 1.11-1.447 1.495-2.46.354.22.758.307 1.213.258.392-.042.792-.245 1.2-.608-.198.813-.425 1.76-.68 2.84-.745 3.154-1.267 5.006-1.564 5.558l.978-.105c.27-.03.492-.087.66-.174.17-.086.314-.256.43-.508.118-.252.27-.792.454-1.62l.758-3.673c.235.645 1.004.897 2.308.757 1.304-.14 2.387-.676 3.248-1.603.532-.574 1.024-1.27 1.476-2.088-.013.33-.002.656.033.98.133 1.243.655 1.816 1.565 1.72 1.318-.145 2.603-1.666 3.856-4.565-.196.842-.25 1.683-.16 2.52.12 1.124.55 1.646 1.283 1.567.943-.102 1.97-1.205 3.083-3.308-.057.502-.07.917-.04 1.244.055.563.206.978.455 1.246.25.267.554.38.914.342.36-.04.668-.113.924-.223.255-.11.596-.39 1.022-.84.425-.448.914-1.107 1.466-1.974l-.828 3.21c-.535 2.042-1.353 3.122-2.453 3.24-.285.03-.528-.02-.728-.156-.202-.136-.315-.332-.343-.59-.053-.486.04-.784.275-.89-.084-.13-.213-.238-.387-.33-.175-.09-.38-.122-.62-.097-.237.026-.434.167-.592.424-.157.257-.22.534-.19.83.064.57.35.96.86 1.17.51.213 1.106.283 1.785.21.68-.074 1.334-.31 1.964-.716.63-.403 1.137-.906 1.526-1.51.387-.602.7-1.395.937-2.38.09-.323.2-.784.336-1.38.134-.596.22-.97.26-1.126l.31-1.317c.17-.723.384-1.53.645-2.42.324-1.06.684-1.743 1.077-2.045l-.835.09zm-40.24 18.277v.003s0-.002 0-.003"/><path d="M54.61 182.234c-4.628.79-9.067 1.903-12.202 3.187-1.307.538-1.637 1.605-1.226 2.61 5.324-2.424 7.96-3.11 11.847-4.074.687-.172 1.236-.688 1.46-1.362l.12-.36m16.926-.75c.138-.58-.02-.602-.61-.69-3.227-.47-6.78-.43-11.052.483-.72.154-1.312.658-1.425 1.385 0 0 5.366-1.763 13.085-1.177z"/></g><g><path d="M223.027 366.765l-113.74 77.92" fill="none" stroke-width="2.27" stroke-dasharray="2.27,4.55,0,0" stroke="#CBCBCB" transform="matrix(.9747 0 0 .7725 -5.058 -193.18)"/></g><defs><radialGradient id="a" cx="0" cy="0" r="1" gradientUnits="userSpaceOnUse" gradientTransform="rotate(-35.113 314.362 -159.84) scale(36.4098)"><stop offset="0%" stop-color="#FFA300"/><stop offset="100%" stop-color="#FF6E00"/></radialGradient></defs></svg>