<svg viewBox="0 0 251 171" xmlns="http://www.w3.org/2000/svg" fill-rule="evenodd" clip-rule="evenodd" stroke-linejoin="round" stroke-miterlimit="1.414"><path d="M9.39 48.258v76.8l38.8-22.4v-89.6l-38.8 22.4v12.8z" fill="#fff" stroke="#4e4d4c"/><path d="M45.418 88.258v-57.6l-33.256 19.2v57.6l33.256-19.2z" fill="#fff" stroke-width=".5" stroke="#4e4d4c"/><path d="M3.85 32.258v89.6l5.54 3.2v-89.6l-5.54-3.2z" fill="#fff" stroke="#4e4d4c"/><path d="M48.19 13.058l-5.544-3.2-38.797 22.4 5.54 3.2" fill="none" stroke="#4e4d4c"/><path d="M28.922 100.98c-1.602.93-2.903 3.224-2.903 5.118 0 1.894 1.3 2.678 2.9 1.748 1.603-.93 2.904-3.222 2.904-5.117s-1.3-2.68-2.904-1.75z" fill="none" stroke-width=".5" stroke="#4e4d4c"/><path d="M24.98 35.434v.02l8.23-5.06v-.02c.01-.006.02-.012.03-.02.604-.37 1.093-1.352 1.093-2.194 0-.84-.49-1.223-1.092-.853-.04.027-.083.056-.125.09l-7.89 4.88c-.08.023-.165.06-.25.113-.603.37-1.092 1.354-1.092 2.196 0 .84.49 1.223 1.092.853l.008-.008z" fill="none" stroke-width=".5" stroke="#656565"/><path d="M29.524 104.68l2.308 1.132 47.93 27.26m53.884-28.392l-2.308 1.132-47.93 27.26" fill="none" stroke-dasharray="5,2,0,0" stroke="#595959"/><g fill="#595959" fill-rule="nonzero"><path d="M176.46 47.537c-.166.434-.363.847-.59 1.238-.226.39-.433.65-.62.78-.172.117-.27.072-.294-.137-.056-.484.104-1.187.48-2.11.374-.92.798-1.543 1.272-1.868.266-.183.447-.19.544-.025-.158.45-.42 1.157-.79 2.122m-5.72 5.695c-.208.143-.33.057-.366-.26-.037-.316.082-.837.355-1.56.277-.726.548-1.297.818-1.714.164-.258.322-.44.473-.542.043-.03.076-.05.098-.057.11-.05.176.01.195.18.045.39-.112 1.082-.47 2.075-.36.994-.725 1.62-1.1 1.875m-2.74-1.19c-.18.123-.316.274-.408.453-.092.18-.127.36-.106.542.033.296.183.458.45.485-.137.495-.32.984-.547 1.47-.227.487-.495.836-.804 1.047-.377.236-.588.153-.634-.25-.047-.405.03-.945.233-1.62.37-1.227.803-2.01 1.3-2.35.315-.217.507-.157.577.18l-.065.044zm15.124-11.263c-.18.123-.37.276-.575.46-.06.057-.12.13-.176.22-.056.088-.1.16-.132.215-.032.055-.066.14-.103.257-.037.114-.064.203-.08.265s-.044.175-.083.34l-.09.378c-.16.632-.414 1.33-.76 2.09-.347.76-.65 1.23-.91 1.406-.135.094-.217.026-.243-.203-.05-.43.044-1.064.277-1.9.235-.834.485-1.474.75-1.918.04-.07.058-.12.055-.147-.002-.027-.018-.03-.047-.01-.38.26-.676.51-.885.748-.21.24-.4.58-.57 1.023-.13.344-.245.746-.34 1.205-.48 1.437-.92 2.292-1.313 2.562-.13.09-.205.046-.225-.13-.038-.336.073-.99.333-1.964.26-.975.5-1.634.715-1.978l-.108.074-.54.36c-.144.098-.29.26-.444.49-.15.227-.256.445-.32.654-.09-.17-.24-.236-.45-.196-.213.04-.434.14-.664.297-.49.335-.918.813-1.29 1.434-.37.62-.636 1.25-.8 1.884l-.01.037-.082.228c-.182.508-.326.876-.43 1.108-.193.42-.428.848-.708 1.28-.28.43-.568.748-.862.95l-.086.06c.433-.618.79-1.313 1.074-2.088.284-.775.396-1.418.337-1.93-.07-.62-.348-.763-.83-.433-.51.348-1.052 1.17-1.624 2.463.282-.92.52-1.518.712-1.796l-.323.222c-.425.29-.714.575-.868.855-.076.146-.182.49-.317 1.034-.05.194-.115.475-.197.844-.254.73-.557 1.215-.907 1.456-.202.14-.364.174-.488.107.11-.46.146-.85.11-1.174-.098-.848-.575-.98-1.43-.393-.51.35-.953.827-1.33 1.434-.226.364-.412.727-.558 1.086l.004-.01c-.344.85-.942 2.326-1.694 3.408-.75 1.083-1.49 1.87-2.216 2.37-1.164.798-1.815.598-1.953-.6-.086-.774.04-1.683.38-2.726s.835-2.04 1.478-2.988c.643-.95 1.33-1.676 2.064-2.18.554-.38.853-.373.898.018.03.257-.064.557-.28.9-.217.345-.465.613-.745.806-.102.07-.193.117-.275.144-.073.174-.104.31-.093.412.012.1.072.15.18.144.108-.005.24-.062.4-.17.336-.232.65-.55.942-.952.29-.403.477-.782.56-1.136.04-.188.054-.342.04-.463-.038-.33-.245-.48-.62-.45-.378.03-.897.27-1.558.722-.66.453-1.312 1.08-1.952 1.883-.64.802-1.157 1.62-1.55 2.45-.393.834-.687 1.645-.883 2.437-.196.79-.262 1.466-.198 2.025.17 1.474 1.097 1.632 2.786.474.727-.497 1.423-1.12 2.09-1.86.666-.745 1.203-1.498 1.612-2.26.066-.124.124-.24.178-.35.003.06.008.116.014.172.048.42.197.656.447.706.25.05.556-.048.915-.294.56-.386 1.003-.838 1.327-1.358.323-.52.587-1.107.79-1.762.187.01.4-.067.64-.232.21-.142.42-.372.636-.69-.105.492-.225 1.064-.36 1.716-.394 1.9-.67 3.042-.827 3.426l.516-.355c.144-.1.26-.198.35-.295.09-.096.165-.23.227-.4s.142-.5.24-.997l.4-2.18c.125.27.532.17 1.222-.304s1.262-1.088 1.718-1.844c.28-.466.54-.985.78-1.557-.006.18 0 .35.018.51.07.617.348.762.83.432.697-.477 1.377-1.677 2.04-3.598-.105.507-.133.97-.085 1.387.064.558.29.705.678.44.5-.343 1.043-1.24 1.63-2.698-.03.285-.036.51-.02.673.03.28.11.455.24.52.132.067.293.034.484-.096.19-.13.353-.264.49-.4.134-.137.315-.39.54-.758.225-.37.483-.868.776-1.496l-.44 1.956c-.282 1.246-.714 2.07-1.296 2.47-.15.102-.28.148-.386.137-.105-.01-.165-.08-.18-.21-.027-.242.02-.43.146-.557-.043-.042-.11-.06-.203-.056-.093.005-.202.05-.328.137-.126.087-.23.222-.314.406-.083.184-.116.35-.1.498.033.283.185.403.455.36.27-.044.585-.19.944-.436.36-.244.705-.57 1.04-.977.33-.406.6-.83.806-1.267.206-.44.372-.955.497-1.55.047-.198.106-.477.178-.834.07-.357.118-.582.138-.676l.165-.794c.09-.435.203-.93.34-1.48.173-.663.363-1.135.57-1.415l-.44.304z"/><path d="M168.412 56.014c-2.447 1.833-4.796 3.78-6.454 5.418-.69.683-.866 1.35-.648 1.76 2.816-2.914 4.21-4.083 6.267-5.782.364-.302.655-.743.773-1.17l.062-.226m9.16-5.567c.073-.35-.01-.313-.322-.18-1.708.737-3.587 1.842-5.848 3.632-.38.3-.694.75-.753 1.17 0 0 2.836-2.578 6.92-4.625z"/></g><g fill="none" stroke="#656565"><path d="M178.044 126.43l71.262-41.144-44.54-25.715-71.26 41.146 44.538 25.715z"/><path d="M178.044 126.43v3.427l-44.538-25.714v-3.43m44.538 29.144l71.262-41.143v-3.428"/><path d="M192.89 104.143l8.908 5.143 14.846-8.572-8.908-5.143-14.846 8.575zm-26.723 12L231.49 78.43 204.767 63l-65.323 37.714 26.723 15.43z" stroke-width=".5"/><path d="M189.92 102.43l-2.968-1.716 17.815-10.285 2.97 1.71m-35.63 20.573l-26.724-15.428m32.66 12l-26.722-15.43m32.664 12L157.26 90.43m29.692 10.284L163.198 87m29.692 10.286L169.136 83.57m29.694 10.287l-23.755-13.714m29.692 10.287l-23.754-13.716m32.662 12l-26.723-15.428m32.66 12l-26.722-15.43m32.662 12L198.83 66.43m-53.447 37.713l65.323-37.714m-59.386 41.14l65.324-37.714M157.26 111l65.322-37.714m-59.384 41.144l65.323-37.716" stroke-width=".5"/><path d="M133.506 100.714V45.857l71.26-41.143V59.57l-71.26 41.144z"/><path d="M139.444 90.43V49.285L198.83 15v41.143L139.443 90.43z" stroke-width=".5"/></g><path d="M35.08 63.45c-.178.463-.387.902-.628 1.32-.24.415-.46.692-.66.828-.184.126-.288.078-.314-.144-.06-.516.11-1.264.51-2.245.4-.984.85-1.647 1.356-1.994.283-.194.476-.202.58-.025-.17.48-.45 1.23-.844 2.26m-6.087 6.063c-.22.152-.352.06-.39-.277-.04-.336.087-.89.378-1.662.294-.77.58-1.38.87-1.824.175-.272.34-.464.504-.575.046-.03.08-.05.104-.06.118-.05.188.015.208.194.048.414-.12 1.15-.5 2.21-.383 1.056-.773 1.72-1.17 1.994m-2.92-1.268c-.19.13-.335.292-.432.483-.098.19-.136.38-.114.574.036.315.196.487.48.517-.146.526-.34 1.047-.58 1.565-.244.517-.53.89-.858 1.114-.4.25-.624.16-.674-.27-.05-.43.034-1.003.248-1.722.395-1.308.856-2.14 1.384-2.504.336-.23.542-.167.616.192l-.07.046zm16.102-11.99c-.19.13-.395.294-.612.49-.067.06-.13.14-.19.233s-.106.17-.14.23c-.035.057-.072.15-.112.27-.04.125-.067.22-.085.286l-.09.362-.096.4c-.17.673-.44 1.415-.81 2.224-.368.81-.69 1.31-.966 1.498-.145.1-.232.027-.26-.216-.053-.46.045-1.133.294-2.022.25-.89.517-1.57.8-2.043.04-.075.06-.126.057-.155-.004-.028-.02-.032-.05-.01-.407.277-.72.542-.944.795-.222.254-.424.617-.605 1.09-.14.365-.262.793-.363 1.282-.513 1.532-.98 2.442-1.398 2.73-.14.094-.218.048-.24-.138-.04-.358.077-1.056.354-2.092.277-1.036.53-1.738.76-2.104l-.113.078-.575.382c-.153.105-.31.28-.473.52-.16.244-.273.476-.34.7-.094-.183-.254-.253-.48-.21-.227.043-.46.148-.707.316-.52.357-.977.866-1.372 1.526-.393.66-.68 1.33-.852 2.005l-.01.04-.086.242c-.193.537-.346.93-.46 1.177-.202.45-.454.903-.752 1.363-.298.46-.603.796-.917 1.01l-.09.064c.46-.654.84-1.394 1.143-2.22.3-.824.42-1.51.358-2.054-.075-.66-.37-.813-.88-.46-.544.37-1.12 1.246-1.73 2.622.3-.98.553-1.616.76-1.91l-.346.235c-.45.31-.76.613-.923.91-.08.157-.192.524-.336 1.102-.05.207-.12.507-.207.9-.27.777-.592 1.294-.965 1.55-.214.147-.387.185-.52.113.118-.49.157-.907.118-1.25-.104-.904-.61-1.043-1.52-.42-.544.374-1.016.883-1.417 1.528-.24.39-.44.775-.594 1.158 0-.004.002-.008.004-.012-.366.904-1.003 2.477-1.803 3.63-.8 1.15-1.587 1.99-2.36 2.52-1.24.85-1.932.637-2.078-.64-.097-.822.04-1.79.4-2.9.366-1.11.89-2.172 1.574-3.182.684-1.01 1.417-1.782 2.197-2.317.59-.403.908-.397.956.02.03.272-.068.59-.298.96-.23.364-.496.65-.794.854-.107.074-.205.125-.292.154-.078.185-.11.33-.098.438.012.108.076.16.19.154.116-.006.257-.066.425-.18.36-.248.694-.586 1.003-1.015.31-.428.51-.832.598-1.21.045-.2.06-.363.044-.492-.04-.35-.26-.51-.66-.48-.402.032-.954.29-1.658.77-.704.484-1.397 1.152-2.078 2.006-.683.854-1.233 1.723-1.65 2.61-.42.885-.733 1.75-.94 2.59-.21.844-.28 1.56-.21 2.157.18 1.57 1.167 1.737 2.965.505.773-.53 1.514-1.19 2.223-1.98.71-.793 1.282-1.595 1.717-2.407.07-.13.132-.254.19-.372.003.064.007.125.014.185.05.448.21.698.475.75.266.055.59-.05.973-.312.597-.41 1.068-.89 1.413-1.444.344-.554.625-1.18.84-1.877.2.01.43-.073.686-.248.22-.152.445-.396.675-.734-.11.525-.24 1.133-.383 1.827-.42 2.023-.713 3.238-.88 3.647l.55-.378c.153-.106.277-.21.372-.314.094-.104.174-.246.24-.427.066-.18.15-.535.256-1.063l.427-2.32c.132.287.565.18 1.3-.324.734-.503 1.343-1.157 1.83-1.96.298-.497.575-1.05.83-1.66-.007.192 0 .373.018.543.077.66.37.813.884.462.742-.51 1.466-1.786 2.172-3.83-.112.54-.142 1.03-.09 1.475.068.595.308.75.72.468.533-.364 1.11-1.32 1.737-2.87-.032.3-.04.54-.02.715.03.3.114.485.254.555.14.07.312.036.515-.103.202-.14.376-.28.52-.426.144-.144.336-.413.576-.806.237-.39.513-.92.824-1.59l-.467 2.08c-.3 1.33-.762 2.206-1.38 2.63-.162.11-.3.16-.41.148-.114-.01-.178-.085-.194-.22-.03-.26.023-.457.156-.594-.048-.046-.12-.066-.22-.06-.097.006-.213.054-.347.146-.134.09-.245.235-.334.43-.09.197-.125.374-.107.532.033.3.194.428.482.38.288-.045.623-.2 1.005-.462.384-.262.752-.61 1.107-1.042.355-.432.64-.882.86-1.35.22-.466.395-1.015.53-1.648.05-.212.11-.508.187-.89.077-.38.126-.62.148-.72.02-.1.08-.38.175-.844.095-.464.217-.99.364-1.577.182-.707.384-1.21.605-1.508l-.47.323z" fill="#595959" fill-rule="nonzero"/><circle cx="86.572" cy="137.901" r="30.306" fill="#fff" stroke="#4e4d4c"/><path d="M93.962 139.694l11.714 7.706c-1.597-19.033-13.72-28.475-17.79-31.128v13.56c1.827 1.357 5.063 4.467 6.076 9.862zm-26.44 7.505l11.736-7.635c.47-2.414 1.883-6.247 6.067-9.616v-13.586C69.653 128.04 67.718 142.522 67.522 147.2zm12.275-4.92l-10.873 7.07c17.4 7.36 30.948 2.302 35.337.19l-10.86-7.144c-1.94.862-7.07 2.512-13.6-.12z" fill="#4e4d4c"/></svg>