<svg viewBox="0 0 300 300" xmlns="http://www.w3.org/2000/svg" fill-rule="evenodd" clip-rule="evenodd" stroke-linecap="round" stroke-linejoin="round" stroke-miterlimit="1.414"><path d="M0 300h10.377" fill="#464646" stroke-width=".5" stroke="#000" stroke-opacity=".271"/><path d="M25.76 136.04v97.92l125.573-72.5V63.54L25.76 136.04z" fill="#868686" stroke-width="2" stroke="#333"/><path d="M66.752 133.54v97.92l125.573-72.5V61.04l-125.573 72.5z" fill="#EDEDED" fill-opacity=".749" stroke-width="2" stroke-dasharray="2,4,0,0" stroke="#343434"/><path d="M108.032 136.04v97.92l125.573-72.5V63.54l-125.573 72.5z" fill="#EDEDED" fill-opacity=".749" stroke-width="2" stroke-dasharray="2,4,0,0" stroke="#343434"/><path d="M153.354 136.04v97.92l125.573-72.5V63.54l-125.573 72.5z" fill="#EDEDED" fill-opacity=".749" stroke-width="2" stroke-dasharray="2,4,0,0" stroke="#343434"/><path d="M53.596 152.427l8.48.843c-1.155-13.13-9.93-15.066-12.877-15.342v9.816c1.32.244 3.66 1.187 4.393 4.683zm-19.138 16.12l8.495-10.268c.34-1.94 1.364-5.288 4.392-9.418v-9.834C36 153.816 34.6 165.082 34.458 168.548zm8.886-8.523l-7.87 9.513c12.595-1.706 22.4-10.84 25.578-14.143l-7.862-.783c-1.405 1.41-5.117 4.68-9.846 5.417z" fill="#FABD53"/></svg>