<svg viewBox="0 0 159 159" xmlns="http://www.w3.org/2000/svg" fill-rule="evenodd" clip-rule="evenodd" stroke-linejoin="round" stroke-miterlimit="1.414"><path d="M87.396 60.88c-.01 2.546-7.498 4.613-16.72 4.613-9.227 0-16.718-2.07-16.718-4.617 0-.047.002-.094.007-.14v-2.493h33.443v2.637h-.012z" fill="#fff" stroke-width=".6" stroke="#5C544C" transform="matrix(3.3364 0 0 3.34372 -155.658 -80.078)"/><path d="M135.962 114.78c.018.147.025.294.025.446 0 8.494-24.98 15.392-55.748 15.392-30.77 0-55.75-6.898-55.75-15.392 0-.204.015-.408.043-.61h-.024l.03-.044c.237-1.554 1.31-3.052 3.1-4.455l10.543-15.17 84.655-.352 10.546 15.976c1.375 1.2 2.233 2.46 2.504 3.76l.303.45h-.23z" fill="#fff" stroke-width="2.004" stroke="#5C544C"/><path d="M122.79 94.575c-.024 6.465-19.038 11.714-42.453 11.714-23.432 0-42.454-5.26-42.454-11.73 0-.12.005-.237.018-.357v-10h84.926V94.57h-.03z" fill="#fff" stroke-width="2.006" stroke="#5C544C"/><circle cx="110.307" cy="82.177" r="6.724" fill="#fff" stroke-width=".43" stroke="#5C544C" transform="matrix(6.29572 0 0 1.7386 -614.02 -58.824)"/><path d="M65.826 46.76h.02c8.322 0 15.08 6.758 15.08 15.08 0 8.325-6.758 15.083-15.08 15.083h-.02V46.76z" fill="#fff" stroke-width=".998" stroke="#5C544C"/><path d="M96.017 46.534h-.02c-8.322 0-15.08 6.758-15.08 15.08 0 8.325 6.758 15.083 15.08 15.083h.02V46.534z" fill="#fff" stroke-width=".998" stroke="#5C544C"/><path d="M79.815 92.25c-.295 0-.59-.002-.884-.004l.01-1c.447.003.895.003 1.34.002.46-.002.92-.006 1.38-.012.457-.007.91-.016 1.37-.026l.45-.012.44-.013.03 1c-.914.027-1.826.046-2.74.057-.464.004-.93.006-1.394.007zm-2.893-.033c-1.61-.036-3.218-.103-4.825-.196l-.19-.01.062-1c.35.027.704.046 1.06.066 1.302.067 2.61.116 3.91.146l-.022 1zm9.033-.112l-.048-1c.377-.017.753-.037 1.13-.057 1.28-.075 2.56-.168 3.838-.28l.088.996c-1.29.114-2.58.207-3.87.282l-1.138.06zm-16.052-.237c-1.655-.133-3.307-.3-4.956-.5l-.04-.006.125-.992c.413.052.827.1 1.24.147 1.236.137 2.472.255 3.71.355-.026.332-.052.664-.08.996zm23.06-.3l-.107-.996c.435-.046.87-.097 1.305-.15 1.17-.142 2.33-.303 3.49-.484l.14-.023.16.987c-.303.05-.606.095-.908.14-.784.117-1.57.225-2.356.325-.572.07-1.145.138-1.72.2zm-30.05-.477c-1.464-.212-2.924-.462-4.377-.75l-.35-.073-.224-.047.205-.98.916.186c.355.07.71.136 1.065.2.97.175 1.94.334 2.912.478l-.146.99zm37.013-.53l-.18-.98c.267-.05.534-.1.8-.152.684-.136 1.366-.278 2.045-.433.65-.146 1.29-.304 1.927-.47l.074-.02.257.967c-.237.063-.476.123-.714.184-1.006.25-2.02.477-3.036.685-.388.077-.777.153-1.167.225zm-43.93-.783c-1.573-.38-3.128-.826-4.657-1.356l-.19-.067.332-.942c.15.055.3.107.45.16 1.412.48 2.846.884 4.295 1.235l-.235.973zm50.79-.86l-.295-.957c.226-.07.44-.14.66-.21.78-.258 1.56-.533 2.32-.844.528-.216 1.048-.45 1.56-.7l.045-.022.45.895-.27.13c-.463.22-.93.426-1.406.62-.693.283-1.396.537-2.104.777-.317.105-.635.208-.955.307zm-57.53-1.307c-.794-.348-1.572-.73-2.32-1.168-.7-.41-1.364-.88-1.96-1.425l-.068-.063-.04-.037.692-.72c.09.086.183.17.278.253.086.074.174.147.262.218 1.075.85 2.306 1.48 3.557 2.026l-.4.916zm64.05-1.55l-.55-.835c.116-.076.23-.153.34-.233.147-.105.292-.213.433-.326.13-.105.26-.214.38-.327.1-.09.194-.18.286-.276.51-.518.957-1.152 1.074-1.884.025-.145.03-.29.03-.44h.007c-.017-.087-.017-.18-.03-.27-.022-.146-.06-.29-.106-.43l-.01-.055-.7-3.525.98-.197.695 3.5c.025.077.047.155.068.234.043.18.073.362.09.547l.002.02.014.072.01.11-.016.108c0 .062-.003.123-.007.184-.016.202-.046.4-.096.597-.25.998-.925 1.833-1.68 2.504-.12.103-.24.205-.366.304-.155.124-.314.243-.476.36-.124.085-.247.17-.37.252zM43.59 83.13c-.1-.256-.18-.52-.22-.79-.074-.458-.05-.92.067-1.37l.53-3.026.984.173-.535 3.063c-.015.06-.03.12-.042.18-.01.052-.02.104-.024.157-.025.204-.027.408 0 .612.03.2.084.39.155.58l.02.043-.928.374zm71.818-1.39l.4-.006v-.48l-.4.486zm-70.112-5.595l-.985-.172.86-4.924.988.17-.862 4.925zm68.776-.647l-.976-4.904.98-.195.976 4.902-.98.196zm-67.57-6.25l-.984-.17.862-4.926.985.175-.862 4.925zm66.204-.616l-.976-4.9.98-.196.976 4.904-.98.195zM47.71 62.357l-.985-.172.862-4.924.985.17-.864 4.928zm63.63-.588l-.976-4.906.983-.194.975 4.904-.98.195zm-62.426-6.31l-.985-.175.86-4.925.982.176-.862 4.925zm61.056-.56l-.975-4.904.98-.195.976 4.906-.98.195zm-59.85-6.337l-.984-.173.862-4.922.985.173-.862 4.926zm58.484-.53l-.975-4.902.98-.194.97 4.904-.98.197zM51.328 41.67l-.986-.173.863-4.925.985.172-.862 4.926zm55.91-.5l-.976-4.903.98-.195.977 4.904-.986.195zm-54.704-6.396l-.985-.172.86-4.925.982.172-.862 4.92zm53.338-.468l-.976-4.904.98-.195.977 4.904-.98.198zm-52.13-6.427l-.986-.176.36-2.048c.01-.038.017-.077.032-.113.064-.146.196-.255.35-.29.04-.008.08-.007.118-.01l2.92.053-.017 1-2.498-.046-.285 1.626zm50.764-.44l-.048-.246-3.947-.073.02-1 4.35.08c.04.007.078.008.11.017.15.036.277.14.34.28.015.033.02.07.034.106l.128.638-.98.196zm-5.995-.357l-4.994-.093.02-1 4.998.095c-.005.334-.01.667-.02 1zm-6.993-.13l-5-.094.02-1 4.998.093c-.005.334-.01.667-.017 1zm-7-.132l-4.998-.092.017-1 5 .092-.02 1zm-6.998-.13l-5-.093.02-1 5 .092-.02 1zm-7-.13l-5-.093.02-1 4.998.092c-.006.333-.012.666-.02 1zm-6.998-.13l-5-.094.02-1 4.998.093-.018 1z" fill="#5C544C" fill-rule="nonzero"/><path fill="#fff" stroke-width=".31" stroke="#5C544C" d="M109.834 57.934h1.017v7.93h-1.012z" transform="matrix(3.32748 0 0 3.1337 -286.304 -123.895)"/><circle cx="110.307" cy="82.177" r="6.724" fill="#fff" transform="matrix(3.81647 0 0 1.05395 -341.743 -61.324)"/><path d="M78.917 32.873c-1.625-.002-3.25-.055-4.872-.144l-.153-.01.058-1c.364.02.727.04 1.09.055 1.29.056 2.58.087 3.872.093h.007l-.007 1zm2.01-.014l-.02-1c.422-.01.843-.02 1.264-.036 1.15-.038 2.3-.097 3.45-.176l.26-.02.07 1c-.4.03-.795.054-1.193.08-.85.05-1.7.09-2.55.115-.426.013-.85.024-1.276.032zm-9.04-.28c-1.656-.137-3.305-.33-4.947-.57l-.055-.01.15-.988c.29.044.582.085.874.126 1.34.182 2.69.326 4.043.44h.01c-.028.333-.054.665-.08 1zm16.067-.127l-.1-.995c.344-.034.686-.07 1.03-.11 1.284-.147 2.564-.325 3.84-.54l.05-.01.17.984c-.283.05-.57.096-.854.142-.932.146-1.867.274-2.805.385-.443.05-.887.1-1.33.144zm-23.057-.786c-1.616-.298-3.22-.67-4.793-1.14l-.123-.04.3-.955.532.16c1.378.394 2.774.71 4.18.975l.09.02-.18.982zm30.03-.265l-.206-.978c.25-.05.49-.106.73-.16 1.357-.313 2.69-.68 4-1.144l.02-.006.34.94c-.2.073-.402.142-.61.21-1.08.36-2.18.658-3.284.92-.328.076-.657.15-.986.22zm-36.87-1.583c-.947-.373-1.88-.804-2.733-1.36-.61-.4-1.184-.867-1.625-1.45l-.026-.03.808-.59c.043.06.088.115.134.172.385.454.865.818 1.367 1.135.736.466 1.53.83 2.336 1.155l.1.04-.367.93zm43.643-.55l-.428-.904c.103-.05.205-.1.307-.153.223-.117.45-.238.67-.368.2-.12.393-.243.583-.376.138-.098.272-.198.403-.305.09-.07.176-.147.26-.226.436-.403.835-.91.898-1.52v-.015l.997.08c-.005.065-.013.13-.023.196-.026.15-.06.3-.11.445-.27.78-.864 1.406-1.5 1.905-.115.09-.23.177-.35.26-.17.117-.34.23-.515.335-.233.14-.472.27-.713.4-.16.082-.32.164-.485.24zm-47.576-4.35l-.972-.236c.015-.063.034-.126.053-.19.043-.128.092-.253.15-.375.372-.767 1.032-1.364 1.72-1.844.166-.118.338-.23.512-.336.233-.14.47-.275.713-.4.257-.136.52-.26.783-.383l.418.91c-.15.07-.3.14-.45.214l-.282.148c-.665.352-1.32.75-1.862 1.276-.336.327-.635.713-.766 1.17l-.013.047zm49.7-.963l-.092-.1c-.074-.077-.074-.077-.15-.153-.474-.45-1.018-.814-1.59-1.13-.7-.39-1.435-.706-2.182-.992l-.042-.016.35-.94.412.16c.815.33 1.616.697 2.367 1.156.604.37 1.178.797 1.65 1.326l.03.033c-.25.22-.502.44-.753.658zm-44.51-2.607l-.327-.944c.165-.057.332-.113.498-.168.637-.206 1.28-.395 1.928-.566.787-.207 1.58-.388 2.378-.555l.09-.02.2.98c-.27.054-.54.112-.81.17-1.1.25-2.194.535-3.274.875-.226.073-.452.147-.677.225zm38.59-.406c-.218-.065-.435-.126-.652-.186-.218-.06-.437-.12-.656-.176-1.11-.282-2.23-.52-3.356-.728l-.15-.027.176-.988c.31.054.617.112.924.172 1.34.266 2.668.58 3.98.963l.02.006-.287.96zm-31.88-1.226l-.162-.988.803-.13c1.33-.2 2.664-.366 4.003-.5l.185-.016.095.995c-.354.035-.707.07-1.06.11-1.116.123-2.23.27-3.34.443l-.524.086zm25.106-.21c-.276-.04-.554-.078-.832-.115-.376-.05-.752-.096-1.13-.14-.98-.114-1.96-.208-2.943-.288l-.028-.002.076-.997c.315.024.628.052.942.08 1.355.123 2.707.28 4.054.473l.003.002c-.05.33-.097.66-.146.99zm-18.2-.592l-.07-.998c.395-.027.79-.052 1.185-.075 1.18-.065 2.36-.108 3.54-.13l.297-.005.016 1c-.42.006-.843.015-1.264.026-.845.026-1.69.06-2.533.107-.39.025-.78.05-1.17.077zm11.282-.084c-.36-.02-.723-.037-1.085-.053-.425-.016-.85-.03-1.277-.044-.87-.023-1.74-.035-2.61-.036l.003-1c1.628.005 3.255.046 4.88.13l.144.007-.055 1z" fill="#5C544C" fill-rule="nonzero"/></svg>