<svg viewBox="0 0 139 139" xmlns="http://www.w3.org/2000/svg" fill-rule="evenodd" clip-rule="evenodd" stroke-linejoin="round" stroke-miterlimit="1.414"><path d="M87.396 60.88c-.01 2.546-7.498 4.613-16.72 4.613-9.227 0-16.718-2.07-16.718-4.617 0-.047.002-.094.007-.14v-2.493h33.443v2.637h-.012z" fill="#fff" stroke-width=".3" stroke="#5C544C" transform="matrix(3.3364 0 0 3.34372 -164.6 -87.2)"/><path d="M127.02 107.657c.02.148.026.295.026.447 0 8.494-24.98 15.392-55.748 15.392-30.764 0-55.744-6.898-55.744-15.392 0-.204.014-.408.042-.61h-.024l.03-.044c.237-1.554 1.31-3.052 3.1-4.455l10.543-15.17 84.655-.352 10.547 15.976c1.375 1.19 2.233 2.45 2.504 3.754l.306.45h-.232z" fill="#fff" stroke-width=".984" stroke="#626262"/><path d="M113.85 87.453c-.025 6.465-19.04 11.714-42.454 11.714-23.432 0-42.454-5.254-42.454-11.724 0-.12.005-.238.018-.358v-10h84.92v10.368h-.03z" fill="#fff" stroke-width=".99" stroke="#5C544C"/><circle cx="110.307" cy="82.177" r="6.724" fill="#fff" stroke-width=".22" stroke="#5C544C" transform="matrix(6.29572 0 0 1.7386 -622.96 -65.946)"/><g stroke="#5C544C"><path d="M56.885 39.638h.02c8.322 0 15.08 6.758 15.08 15.08 0 8.325-6.758 15.083-15.08 15.083h-.02V39.64z" fill="#fff" stroke-width=".998"/><path d="M87.076 39.412h-.02c-8.322 0-15.08 6.758-15.08 15.08 0 8.325 6.758 15.083 15.08 15.083h.02V39.412z" fill="#fff" stroke-width=".998"/><path d="M106.864 74.61v.078c0 5.486-16.127 9.94-35.99 9.94-19.864 0-35.99-4.454-35.99-9.94 0-.068.003-.137.007-.205l.006-.03c.016-.168.045-.338.09-.504l9.683-55.33 51.262.96 10.78 54.18c.084.25.133.495.15.745l.02.102h-.015z" fill="none" stroke-width=".997" stroke-dasharray="2.56,1.02,0,0"/><path fill="#fff" stroke-width=".31" d="M109.834 57.934h1.017v7.93h-1.013z" transform="matrix(3.32748 0 0 3.1337 -295.245 -131.017)"/><circle cx="110.307" cy="82.177" r="6.724" fill="#fff" stroke-width=".36" stroke-dasharray="1.79,0.71,0,0" transform="matrix(3.81647 0 0 1.05395 -350.684 -68.446)"/></g></svg>