<svg viewBox="0 0 159 159" xmlns="http://www.w3.org/2000/svg" fill-rule="evenodd" clip-rule="evenodd" stroke-linejoin="round" stroke-miterlimit="1.414"><path d="M87.396 60.88c-.01 2.546-7.498 4.613-16.72 4.613-9.227 0-16.718-2.07-16.718-4.617 0-.047.002-.094.007-.14v-2.493h33.443v2.637h-.012z" fill="#fff" stroke-width=".6" stroke="#5C544C" transform="matrix(3.3364 0 0 3.34372 -155.658 -80.078)"/><path d="M135.962 114.78c.018.147.025.294.025.446 0 8.494-24.98 15.392-55.748 15.392-30.77 0-55.75-6.898-55.75-15.392 0-.204.01-.408.04-.61h-.03l.03-.044c.23-1.554 1.31-3.052 3.1-4.455l10.54-15.17 84.65-.352 10.54 15.976c1.37 1.2 2.23 2.46 2.5 3.76l.3.45h-.23z" fill="#fff" stroke-width="2.004" stroke="#5C544C"/><path d="M122.79 94.575c-.024 6.465-19.038 11.714-42.453 11.714-23.432 0-42.454-5.26-42.454-11.73 0-.12.005-.24.018-.36v-10h84.93v10.37h-.03z" fill="#fff" stroke-width="2.006" stroke="#5C544C"/><circle cx="110.307" cy="82.177" r="6.724" fill="#fff" stroke-width=".43" stroke="#5C544C" transform="matrix(6.29572 0 0 1.7386 -614.02 -58.824)"/><path d="M65.826 46.76h.02c8.322 0 15.08 6.758 15.08 15.08 0 8.325-6.758 15.083-15.08 15.083h-.02V46.76z" fill="#fff" stroke-width=".998" stroke="#5C544C"/><path d="M96.017 46.534h-.02c-8.322 0-15.08 6.758-15.08 15.08 0 8.325 6.758 15.083 15.08 15.083h.02V46.534z" fill="#fff" stroke-width=".998" stroke="#5C544C"/><path d="M79.815 92.25c-.295 0-.59-.002-.884-.004l.01-1c.45.003.9.003 1.34.002.46-.002.92-.006 1.38-.012.46-.007.91-.016 1.37-.026l.45-.012.44-.013.03 1c-.91.027-1.82.046-2.74.057-.46.004-.93.006-1.39.007zm-2.893-.033c-1.61-.036-3.218-.103-4.825-.196l-.19-.01.062-1c.35.03.7.05 1.06.07 1.3.07 2.61.12 3.91.15l-.03 1zm9.033-.112l-.048-1c.377-.017.753-.037 1.13-.057 1.28-.075 2.56-.168 3.838-.28l.088.996c-1.29.114-2.58.207-3.87.282l-1.138.06zm-16.052-.237c-1.655-.133-3.307-.3-4.956-.5l-.04-.006.125-.992c.413.052.827.1 1.24.147 1.236.137 2.472.255 3.71.355-.026.332-.052.664-.08.996zm23.06-.3l-.107-.996c.435-.046.87-.097 1.305-.15 1.17-.142 2.33-.303 3.49-.484l.14-.023.16.987c-.3.05-.6.095-.9.14-.78.117-1.57.225-2.35.325-.57.07-1.14.138-1.72.2zm-30.05-.477c-1.464-.21-2.924-.46-4.377-.75l-.35-.07-.224-.04.205-.98.916.19c.355.07.71.14 1.065.2.97.18 1.94.34 2.912.48l-.146.99zm37.013-.53l-.18-.98.8-.15c.684-.13 1.366-.28 2.045-.43.65-.14 1.29-.3 1.93-.47l.08-.02.26.97c-.23.07-.47.13-.71.19-1 .25-2.02.48-3.03.69-.39.08-.78.16-1.17.23zm-43.93-.78c-1.573-.38-3.128-.82-4.657-1.35l-.19-.06.33-.94c.15.06.3.11.45.16 1.41.48 2.84.89 4.29 1.24l-.24.98zm50.79-.86l-.295-.95c.23-.07.44-.14.66-.21.78-.25 1.56-.53 2.32-.84.53-.21 1.05-.45 1.56-.7l.05-.02.45.9-.27.13c-.46.22-.93.43-1.4.62-.69.29-1.39.54-2.1.78-.31.11-.63.21-.95.31zm-57.53-1.3c-.794-.34-1.572-.73-2.32-1.16-.7-.41-1.364-.88-1.96-1.42l-.068-.06-.04-.03.692-.72c.09.09.183.17.278.26.086.077.174.15.262.22 1.075.85 2.306 1.48 3.557 2.027l-.4.91zm64.05-1.55l-.55-.83c.116-.07.23-.15.34-.23.147-.1.292-.21.433-.32.13-.1.26-.21.38-.32.1-.09.19-.18.28-.27.51-.517.95-1.15 1.07-1.883.02-.144.03-.29.03-.44-.02-.086-.02-.18-.03-.27-.02-.145-.06-.29-.11-.43l-.01-.054-.7-3.525.98-.196.69 3.5c.02.075.04.153.07.23.04.18.07.36.09.547v.02l.01.07.01.11-.02.11c0 .06-.005.12-.01.182-.015.2-.045.4-.095.6-.25 1-.928 1.83-1.68 2.502-.12.11-.24.21-.37.31-.15.125-.31.244-.473.36l-.37.25zM43.59 83.13c-.1-.256-.18-.52-.22-.79-.074-.458-.05-.92.067-1.37l.53-3.026.984.173-.53 3.063c-.01.06-.03.12-.04.18-.01.052-.02.104-.02.157-.02.204-.02.408 0 .612.03.2.09.39.16.58l.02.04-.93.37zm71.818-1.39l.4-.006v-.48l-.4.486zm-70.112-5.595l-.985-.172.86-4.924.99.17-.86 4.92zm68.776-.647l-.976-4.904.98-.195.976 4.9-.98.19zm-67.57-6.25l-.984-.17.862-4.926.985.175-.862 4.925zm66.204-.616l-.976-4.9.98-.196.976 4.904-.98.195zM47.71 62.357l-.985-.172.862-4.924.985.17-.864 4.93zm63.63-.588l-.976-4.91.983-.2.975 4.9-.98.19zm-62.426-6.31l-.985-.18.86-4.93.98.17-.86 4.92zm61.056-.56l-.975-4.91.98-.2.976 4.9-.98.19zm-59.85-6.34l-.984-.18.862-4.93.985.17-.862 4.92zm58.484-.53l-.975-4.91.98-.2.97 4.9-.98.19zm-57.276-6.36l-.986-.18.863-4.93.985.17-.862 4.92zm55.91-.5l-.976-4.91.98-.2.977 4.9-.99.19zm-54.704-6.4l-.985-.18.86-4.93.98.17-.86 4.92zm53.338-.47l-.976-4.91.98-.2.977 4.9-.98.2zm-52.13-6.43l-.986-.18.36-2.05c.01-.04.017-.08.032-.11.064-.15.196-.26.35-.29.04-.01.08-.01.118-.01l2.92.05-.017 1-2.5-.05-.29 1.62zm50.764-.44l-.048-.25-3.947-.08.02-1 4.35.08c.04 0 .08 0 .11.01.15.03.28.14.34.28.02.03.02.07.04.1l.13.63-.98.194zm-5.995-.36l-4.99-.09.02-1 5 .09c0 .33-.01.66-.02 1zm-6.99-.13l-5-.1.02-1 5 .09c0 .33-.01.67-.01 1zm-7-.13l-5-.1.02-1 5 .09-.02 1zm-7-.13l-5-.1.02-1 5 .09-.02 1zm-7-.13l-5-.1.02-1 5 .09-.02 1zm-6.99-.13l-5-.1.02-1 5 .09-.01 1z" fill="#5C544C" fill-rule="nonzero"/><path fill="#fff" stroke-width=".31" stroke="#5C544C" d="M109.834 57.934h1.017v7.93h-1.01z" transform="matrix(3.32748 0 0 3.1337 -286.304 -123.895)"/><circle cx="110.307" cy="82.177" r="6.724" fill="#fff" transform="matrix(3.81647 0 0 1.05395 -341.743 -61.324)"/><path d="M78.917 32.873c-1.625-.002-3.25-.055-4.872-.144l-.153-.01.058-1c.364.02.727.04 1.09.05 1.29.05 2.58.08 3.872.09h.007l-.01 1zm2.01-.014l-.02-1c.422-.01.843-.02 1.264-.04 1.15-.04 2.3-.1 3.45-.18l.26-.02.07 1c-.4.03-.79.05-1.19.08-.85.05-1.7.09-2.55.11l-1.27.03zm-9.04-.28c-1.656-.14-3.305-.33-4.947-.57l-.055-.01.15-.99.874.12c1.34.18 2.69.32 4.04.44h.01l-.08 1zm16.067-.13l-.1-1c.344-.04.686-.07 1.03-.11 1.284-.15 2.564-.33 3.84-.54l.05-.01.17.98c-.283.05-.57.09-.854.14-.932.14-1.867.27-2.805.38-.443.05-.887.1-1.33.14zm-23.057-.79c-1.616-.3-3.22-.67-4.793-1.14l-.123-.04.3-.96.54.16c1.38.39 2.78.71 4.18.97l.09.02-.18.98zm30.03-.27l-.206-.98c.25-.05.49-.11.73-.16 1.36-.32 2.69-.68 4-1.15l.02-.01.34.94c-.2.07-.4.14-.61.21-1.08.36-2.18.65-3.28.92-.33.07-.65.15-.98.22zm-36.87-1.59c-.947-.38-1.88-.81-2.733-1.36-.61-.4-1.184-.87-1.625-1.45l-.03-.03.81-.59c.04.06.09.11.13.17.38.45.86.81 1.36 1.13.73.46 1.53.83 2.33 1.15l.1.04-.37.93zm43.643-.55l-.428-.91c.103-.05.205-.1.307-.16.22-.12.45-.24.67-.37.2-.12.39-.244.58-.377.14-.1.27-.2.4-.307.09-.07.17-.147.26-.226.43-.404.83-.91.9-1.52v-.01l.99.08-.03.195c-.03.15-.06.3-.11.446-.27.78-.87 1.408-1.5 1.907-.12.09-.23.18-.35.26-.17.12-.34.23-.52.335-.24.14-.47.27-.72.4-.16.08-.32.165-.49.24zM54.124 24.9l-.972-.236c.015-.063.034-.126.053-.19.043-.128.092-.253.15-.375.372-.77 1.032-1.37 1.72-1.85.166-.12.338-.23.512-.34.233-.14.47-.27.713-.4.257-.14.52-.26.783-.38l.418.91-.45.21-.28.15c-.66.35-1.32.75-1.86 1.27-.33.326-.63.71-.76 1.17l-.01.046zm49.7-.963l-.092-.1-.15-.153c-.474-.45-1.018-.814-1.59-1.13-.7-.39-1.435-.706-2.182-.99l-.042-.018.35-.94.412.16c.815.33 1.616.695 2.367 1.154.604.37 1.178.796 1.65 1.325l.03.034c-.25.22-.502.44-.753.65zm-44.51-2.607l-.327-.942.498-.167c.637-.2 1.28-.39 1.928-.56.787-.21 1.58-.39 2.378-.55l.09-.02.2.98-.81.17c-1.1.25-2.19.54-3.27.88-.22.07-.45.15-.67.23zm38.59-.404c-.218-.065-.435-.126-.652-.186-.218-.06-.437-.12-.656-.176-1.11-.285-2.23-.52-3.356-.73l-.15-.028.176-.99c.31.055.617.113.924.173 1.34.26 2.668.58 3.98.96l.02.01-.287.96zM66.024 19.7l-.162-.988.803-.13c1.33-.2 2.664-.367 4.003-.5l.185-.017.095.996c-.354.04-.707.07-1.06.11-1.116.13-2.23.27-3.34.45l-.524.08zm25.106-.21c-.276-.04-.554-.078-.832-.115-.376-.05-.752-.095-1.13-.14-.98-.113-1.96-.207-2.943-.287l-.028-.003.076-.99c.315.023.628.05.942.08 1.355.122 2.707.28 4.054.472l-.15.99zm-18.2-.59l-.07-1c.395-.027.79-.05 1.185-.075 1.18-.064 2.36-.107 3.54-.13l.297-.004.016 1-1.264.03c-.845.03-1.69.06-2.533.11-.39.03-.78.05-1.17.08zm11.282-.086c-.36-.02-.723-.04-1.085-.056-.425-.015-.85-.03-1.277-.043-.87-.023-1.74-.035-2.61-.036l.003-1c1.628.01 3.255.05 4.88.13l.144.01-.055 1z" fill="#5C544C" fill-rule="nonzero"/></svg>