<svg viewBox="0 0 300 300" xmlns="http://www.w3.org/2000/svg" fill-rule="evenodd" clip-rule="evenodd" stroke-linejoin="round" stroke-miterlimit="1.414"><path d="M253.934 233.17c-.06 15.33-45.05 27.775-100.45 27.775-55.444 0-100.45-12.458-100.45-27.8 0-.284.01-.567.04-.85V217.29h200.932v15.88h-.072z" fill="#CECECE"/><path d="M253.99 217.486c.03.266.044.532.044.804 0 15.297-44.984 27.72-100.39 27.72-55.398 0-100.382-12.423-100.382-27.72 0-.367.025-.734.076-1.095h-.044l.057-.082c.428-2.8 2.36-5.496 5.58-8.022l18.99-27.32 152.444-.63 18.995 28.77c2.475 2.15 4.02 4.42 4.507 6.77l.544.81h-.417z" fill="#DFDFDF"/><path d="M230.272 181.104c-.046 11.642-34.286 21.093-76.45 21.093-42.198 0-76.452-9.46-76.452-21.112 0-.215.01-.43.032-.644v-18.004h152.925v18.67h-.055z" fill="#CECECE"/><circle cx="110.307" cy="82.177" r="6.724" fill="#DFDFDF" transform="matrix(11.33723 0 0 3.13085 -1096.564 -95.136)"/><g fill="#F4A100"><path d="M151.646 112.29h6.44v42.683h-6.44z"/><path d="M125.658 86.957h.038c15.835 0 28.693 12.86 28.693 28.694 0 15.845-12.86 28.7-28.697 28.7h-.038V86.96zm58.57-.43h-.04c-15.834 0-28.693 12.86-28.693 28.694 0 15.845 12.86 28.7 28.693 28.7h.037V86.53z"/><path d="M221.36 160.703v.15c0 10.437-30.687 18.91-68.48 18.91-37.796 0-68.48-8.473-68.48-18.91 0-.13.006-.26.013-.392h-.003l.007-.05c.03-.32.086-.645.17-.96l18.425-105.275L200.552 56l20.513 103.092c.16.47.253.94.282 1.418l.04.193h-.028z" fill-opacity=".761"/><circle cx="110.307" cy="82.177" r="6.724" transform="matrix(7.26172 0 0 2.00538 -649.232 -109.43)"/></g></svg>