<svg viewBox="0 0 300 300" xmlns="http://www.w3.org/2000/svg" fill-rule="evenodd" clip-rule="evenodd" stroke-linejoin="round" stroke-miterlimit="1.414"><circle cx="112.21" cy="856.785" r="56.785" fill="#F4F4F4" stroke-width="1.31" stroke="#636363" transform="rotate(-15 -4263.684 816.132) scale(1.53003)"/><path d="M150.504 219.33l-.03-1.558c.386-.007.77-.018 1.154-.03 1.005-.037 2.01-.092 3.012-.17 1.154-.092 2.305-.215 3.452-.36l.067-.01.203 1.547c-.32.04-.637.08-.955.115-.882.102-1.764.19-2.65.26-.877.07-1.758.12-2.64.158-.537.02-1.076.038-1.616.047zm-3.152-.013c-2.615-.064-5.22-.295-7.81-.65l-.047-.005.22-1.544c.43.063.863.116 1.297.17.98.116 1.962.215 2.946.292 1.13.087 2.26.143 3.394.178h.038l-.038 1.56zm14.13-1.046l-.274-1.533c.404-.073.808-.148 1.212-.224 1.013-.202 2.025-.418 3.03-.66 1.013-.245 2.02-.515 3.022-.8l.242-.07.438 1.497c-.375.108-.75.213-1.126.317-.88.24-1.764.468-2.653.675-.882.208-1.768.395-2.655.57-.412.08-.824.155-1.237.23zm-25.1-.114c-2.464-.46-4.898-1.055-7.303-1.767l-.35-.105.45-1.494c.383.116.764.23 1.146.34 1.074.303 2.152.587 3.24.842.95.223 1.91.423 2.87.61l.233.042c-.096.51-.19 1.022-.288 1.533zm35.776-2.627l-.503-1.478c.344-.116.687-.238 1.03-.36.963-.347 1.917-.71 2.863-1.097 1.073-.438 2.132-.908 3.183-1.397l.07-.032.665 1.41c-.29.137-.58.27-.875.406-.812.364-1.627.718-2.45 1.055-.83.34-1.666.66-2.505.97-.49.178-.984.354-1.477.523zm-46.424-.23c-1.304-.465-2.595-.96-3.87-1.498-1.044-.438-2.076-.906-3.1-1.393l-.3-.146.677-1.403 1.05.496c1.007.463 2.02.91 3.05 1.327.9.366 1.807.71 2.72 1.04l.298.106c-.175.49-.35.98-.523 1.47zm56.553-4.13l-.728-1.38c.336-.18.673-.36 1.01-.543.873-.483 1.74-.98 2.59-1.495.97-.587 1.924-1.202 2.866-1.835l.137-.093.878 1.29c-.286.194-.574.386-.863.576-.728.478-1.462.945-2.206 1.396-.75.454-1.504.89-2.267 1.318-.47.26-.942.514-1.417.765zm-66.63-.343c-1.344-.728-2.665-1.494-3.96-2.305-.84-.524-1.668-1.07-2.487-1.628l-.27-.186.886-1.283c.317.218.635.433.955.648.925.614 1.857 1.21 2.807 1.78.83.5 1.673.98 2.522 1.448l.29.157-.743 1.372zm75.952-5.545l-.934-1.25c.26-.193.52-.39.778-.59.887-.687 1.762-1.39 2.616-2.117.853-.725 1.686-1.472 2.503-2.236l.006-.006 1.07 1.134c-.316.296-.637.588-.957.88-.637.573-1.283 1.14-1.94 1.69-.66.556-1.33 1.094-2.007 1.626-.377.293-.756.583-1.138.87zm-85.223-.428c-1.107-.844-2.19-1.716-3.248-2.622-.864-.74-1.707-1.503-2.537-2.28l-.214-.205 1.074-1.13c.27.258.546.514.82.77.717.657 1.444 1.303 2.188 1.932.847.716 1.712 1.41 2.592 2.09l.268.204-.945 1.24zm93.51-6.845l-1.117-1.087c.253-.26.505-.522.754-.784.666-.71 1.32-1.43 1.96-2.165.727-.84 1.432-1.697 2.12-2.57l.232-.293 1.23.96c-.254.322-.51.643-.765.964-1.073 1.324-2.19 2.61-3.35 3.862-.35.372-.703.745-1.06 1.11zm-101.744-.49c-.98-1.025-1.934-2.074-2.854-3.155-.745-.873-1.463-1.768-2.167-2.676l-.112-.148 1.24-.948c.207.272.417.54.63.81.695.878 1.41 1.742 2.145 2.587.644.737 1.304 1.46 1.976 2.17l.27.28-1.127 1.08zm108.803-7.98l-1.273-.903c.216-.304.428-.61.64-.917.624-.915 1.23-1.84 1.813-2.783.51-.825.998-1.663 1.476-2.506l.177-.32 1.362.76c-.198.357-.4.71-.6 1.06-.855 1.47-1.756 2.91-2.704 4.32-.296.43-.592.86-.893 1.288zM91.16 189c-1.437-2.06-2.75-4.2-3.963-6.396l-.172-.315 1.37-.747c.194.355.39.71.585 1.06.564.99 1.145 1.968 1.753 2.93.53.838 1.08 1.663 1.642 2.478l.065.095-1.278.894zm121.46-8.92l-1.396-.695c.167-.335.33-.672.494-1.01.414-.875.818-1.758 1.2-2.65.435-1.02.845-2.05 1.235-3.09l.122-.33 1.463.54c-.14.38-.28.755-.425 1.13-.62 1.586-1.286 3.15-2.008 4.69-.225.474-.452.945-.685 1.414zm-127.033-.597c-1.154-2.36-2.158-4.795-3.038-7.272l1.47-.52c.13.37.265.738.4 1.106.155.41.313.82.47 1.227.324.81.657 1.616 1.008 2.414.346.794.71 1.578 1.087 2.36l.002.003c-.468.23-.936.457-1.402.684zm131.172-9.623l-1.488-.468c.116-.37.228-.736.34-1.104.315-1.07.612-2.144.88-3.226.234-.95.446-1.904.642-2.862l.055-.276 1.53.304-.23 1.122c-.367 1.673-.788 3.33-1.264 4.974-.15.513-.305 1.025-.467 1.535zm-135.195-.643c-.768-2.514-1.386-5.07-1.88-7.65l1.53-.294c.084.434.17.866.258 1.298.09.434.186.866.283 1.298.368 1.596.786 3.175 1.255 4.743l.046.15c-.497.153-.995.304-1.49.457zm137.698-10.097l-1.542-.23c.063-.416.12-.832.178-1.25.144-1.118.27-2.238.364-3.36.08-.988.14-1.976.183-2.967l.003-.095 1.558.058c-.01.323-.027.646-.044.968-.047.868-.106 1.734-.184 2.598-.076.86-.173 1.72-.28 2.578-.072.567-.152 1.135-.236 1.7zm-140.093-.67c-.16-1.17-.3-2.345-.41-3.522-.132-1.438-.216-2.88-.26-4.324l1.558-.05c.013.408.03.813.046 1.22.022.43.046.86.073 1.29.06.864.13 1.726.22 2.587.09.865.2 1.726.32 2.587-.515.07-1.03.143-1.546.215zm139.33-10.316c-.003-.363-.008-.726-.016-1.09-.01-.428-.023-.86-.04-1.287-.038-.86-.086-1.722-.155-2.58-.07-.867-.156-1.73-.254-2.59l-.017-.142 1.547-.184c.04.344.078.687.115 1.03.103 1.027.19 2.055.253 3.086.07 1.17.106 2.34.122 3.51v.24c-.518.004-1.04.008-1.558.01zm-138.463-.66l-1.56-.027c.008-.43.02-.86.03-1.288.04-1.015.092-2.027.17-3.037.09-1.15.21-2.298.35-3.443l.013-.094 1.547.202c-.06.45-.11.898-.16 1.347-.088.842-.166 1.686-.227 2.53-.06.848-.1 1.696-.134 2.546-.012.42-.023.843-.03 1.264zm137.55-10.082c-.062-.378-.127-.755-.194-1.13-.08-.434-.164-.866-.25-1.3-.35-1.714-.756-3.412-1.224-5.098l1.5-.418c.397 1.432.756 2.87 1.07 4.323.22 1.03.413 2.062.59 3.1l.044.27c-.513.082-1.024.17-1.537.252zm-136.538-.654l-1.538-.266c.06-.348.123-.694.188-1.04.217-1.123.454-2.24.722-3.353.234-.97.49-1.935.76-2.895l.113-.386 1.497.43c-.114.397-.224.79-.335 1.19-.435 1.616-.817 3.247-1.145 4.89-.092.477-.18.95-.263 1.43zm133.97-9.824c-.103-.318-.212-.636-.32-.953-.145-.415-.292-.83-.44-1.245-.305-.82-.62-1.638-.95-2.447-.33-.806-.676-1.603-1.033-2.397l-.06-.13 1.416-.65c.145.315.286.63.425.946.474 1.093.928 2.192 1.35 3.306.373.982.723 1.972 1.055 2.97l.04.12c-.496.16-.99.323-1.483.484zm-131.3-.62l-1.475-.506c.124-.357.248-.713.375-1.068.34-.934.69-1.864 1.066-2.784.427-1.05.882-2.088 1.356-3.117l.156-.335 1.412.66c-.17.363-.334.724-.5 1.086-.676 1.523-1.303 3.06-1.88 4.625-.173.48-.343.957-.508 1.44zm127.153-9.332c-.165-.322-.333-.643-.502-.962-.202-.378-.407-.755-.615-1.13-.834-1.49-1.717-2.947-2.65-4.375l-.123-.183 1.3-.863c.202.303.4.61.598.916.547.86 1.08 1.726 1.59 2.606.588 1.012 1.147 2.04 1.686 3.076l.106.205-1.388.71zm-122.89-.576l-1.38-.726c.177-.34.358-.677.54-1.012.478-.87.97-1.73 1.48-2.58.584-.97 1.193-1.926 1.82-2.87l.2-.3 1.296.872c-.223.33-.44.658-.66.99-.902 1.396-1.757 2.818-2.57 4.27-.244.45-.49.902-.73 1.356zm117.237-8.608c-.264-.365-.534-.723-.805-1.082-.256-.335-.515-.67-.775-1-1.045-1.317-2.133-2.596-3.265-3.84l-.035-.036 1.148-1.058c.303.33.6.663.897.998.66.754 1.31 1.518 1.94 2.296.726.895 1.425 1.807 2.106 2.734l.054.07c-.42.307-.84.613-1.262.918zm-111.5-.524l-1.25-.93c.23-.31.463-.617.697-.924.694-.898 1.403-1.784 2.138-2.65.642-.76 1.304-1.503 1.974-2.236l.227-.246 1.144 1.06c-.263.286-.525.573-.785.86-1.112 1.243-2.18 2.52-3.208 3.833-.315.41-.63.82-.937 1.234zm104.484-7.66c-.247-.248-.496-.492-.746-.736-.3-.288-.603-.577-.91-.862-1.22-1.134-2.48-2.225-3.774-3.276l-.323-.26.978-1.216c.33.265.658.53.984.8.876.725 1.735 1.468 2.576 2.233.738.67 1.456 1.36 2.166 2.06l.153.152-1.1 1.103zM100.8 99.12l-1.09-1.113c.287-.282.577-.562.867-.84.833-.785 1.678-1.555 2.544-2.3.763-.656 1.538-1.292 2.324-1.917l.184-.144.964 1.227c-.282.22-.56.442-.838.667-1.303 1.06-2.567 2.163-3.796 3.31-.388.365-.774.735-1.156 1.11zm89.2-6.524c-.292-.212-.585-.42-.88-.63-.34-.24-.683-.474-1.026-.708-1.38-.928-2.787-1.81-4.224-2.645l-.348-.2.776-1.353c.362.208.724.418 1.084.63.973.582 1.934 1.18 2.88 1.803.827.546 1.64 1.112 2.447 1.69l.206.15c-.306.42-.612.84-.917 1.262zm-80.94-.412l-.91-1.266c.37-.267.745-.526 1.12-.785.96-.653 1.93-1.287 2.916-1.894.864-.533 1.74-1.04 2.624-1.537l.763 1.36c-.37.207-.738.418-1.106.628-.368.217-.734.435-1.1.655-1.09.666-2.16 1.356-3.215 2.074-.366.25-.73.504-1.093.763zm71.752-5.235c-.323-.166-.648-.33-.972-.49-.373-.183-.747-.364-1.123-.54-1.508-.707-3.036-1.36-4.588-1.965l-.363-.138.556-1.456c.39.15.774.3 1.16.453.92.37 1.834.756 2.74 1.163 1.033.464 2.054.957 3.066 1.467l.232.118-.71 1.39zm-62.516-.32l-.693-1.4c.376-.185.753-.37 1.132-.55.936-.444 1.88-.87 2.832-1.277 1.08-.458 2.17-.885 3.27-1.29l.538 1.462c-.393.145-.786.293-1.177.443-.407.16-.812.32-1.218.485-1.204.497-2.395 1.024-3.572 1.58-.372.18-.743.36-1.112.544zm52.568-3.843c-.354-.116-.708-.23-1.062-.34-.4-.123-.798-.245-1.2-.363-1.607-.465-3.227-.875-4.865-1.232l-.318-.067.32-1.526c.39.08.776.166 1.16.253.974.225 1.944.465 2.906.727 1.1.3 2.188.628 3.272.977l.27.09-.486 1.48zm-42.57-.21l-.475-1.484c.31-.1.62-.194.93-.29.73-.218 1.46-.425 2.19-.625l.206.754-.2-.756c.442-.115.883-.23 1.324-.34 1.03-.253 2.06-.487 3.1-.696 1.027-.207 2.06-.386 3.097-.552l.19-.028.234 1.54c-.35.054-.7.112-1.047.17-1.6.274-3.186.594-4.763.973-1.447.35-2.88.748-4.302 1.183l-.483.15zm32.097-2.36c-.397-.064-.8-.125-1.2-.186-.417-.06-.833-.114-1.253-.17-1.68-.21-3.367-.36-5.058-.452l-.15-.008.077-1.557c.34.015.68.037 1.02.057 1.01.07 2.016.153 3.02.262 1.145.122 2.283.278 3.42.454l.374.06c-.08.514-.164 1.027-.25 1.54zm-18.44-.51l-.165-1.552c.366-.038.734-.074 1.102-.108 1.026-.09 2.052-.165 3.082-.213 1.17-.056 2.336-.08 3.506-.08h.18l-.01 1.56c-.343-.002-.686 0-1.03.003-.86.01-1.716.033-2.574.073-.86.04-1.72.1-2.58.17-.505.046-1.007.092-1.51.147z" fill="#5C544C" fill-rule="nonzero"/><path fill="#F5A617" d="M40.743 155.282l206.796-55.41 11.714 43.724-206.795 55.41z"/><path d="M78.424 178.638l-.528-1.972 3.696-.99-4.227-15.776-3.696.99-.53-1.97 9.637-2.583.528 1.97-3.698.992 4.227 15.774 3.698-.99.528 1.97-9.636 2.583zm14.758-1.023l10.427-2.794.585 2.196-10.426 2.793zm16.682-12.475l-5.648-10.823 4.427 16.224-1.997.537-5.284-19.72 2.688-.72 6.012 11.202-.418-12.7 2.588-.695 5.283 19.72-1.995.534-4.252-16.165.494 12.098-1.898.51zm16.472-7.742l-4.418-8.696.498 9.747 3.92-1.053zm3.75 7.397l-2.803-5.537-4.757 1.274.314 6.204-2.193.588-.674-20.954 2.488-.667 9.895 18.484-2.267.608zm6.016-1.612l-5.284-19.72 4.386-1.174c1.693-.456 3.203-.213 4.53.727 1.324.94 2.26 2.427 2.807 4.465l1.73 6.458c.54 2.006.466 3.738-.217 5.198-.683 1.458-1.87 2.416-3.564 2.87l-4.387 1.175zm1.714-2.573l2.07-.554c1.084-.29 1.815-.9 2.19-1.83.377-.928.368-2.13-.028-3.61l-1.77-6.607c-.405-1.513-1.006-2.585-1.8-3.217-.794-.633-1.735-.804-2.82-.514l-2.07.554 4.228 15.775zm12.704-1.29l-5.284-19.72 9.934-2.66.53 1.97-7.692 2.062 1.604 5.99 6.755-1.81.535 1.996-6.755 1.81 2.088 7.79 7.69-2.062.53 1.972-9.935 2.662zm14.758-1.023l10.427-2.794.587 2.194-10.426 2.793zm17.778-7.695l-4.755-17.747-4.41 1.182-.53-1.972 11.094-2.972.528 1.972-4.436 1.19L185.3 150l-2.244.602zm10.724-2.874l-5.284-19.718 2.243-.6 2.15 8.035 5.15-1.38-2.15-8.037 2.242-.6 5.284 19.718-2.243.6-2.596-9.686-5.15 1.38 2.594 9.687-2.242.6zm14.418-3.863l-.53-1.972 3.7-.99-4.228-15.776-3.698.99-.528-1.97 9.637-2.583.53 1.972-3.696.99 4.227 15.775 3.698-.99.528 1.974-9.637 2.582zm19.41-4.963c-1.02.273-2.075.344-3.168.214-1.09-.13-2.055-.41-2.89-.837l.155-2.078c.937.473 1.882.76 2.834.867.95.103 1.872.037 2.76-.2.986-.265 1.674-.77 2.063-1.517.39-.747.443-1.648.16-2.7-.236-.886-.673-1.517-1.312-1.893-.637-.374-1.85-.71-3.636-1.005-1.986-.314-3.444-.79-4.373-1.43-.93-.642-1.57-1.627-1.93-2.96-.42-1.576-.3-2.933.364-4.07.664-1.14 1.793-1.92 3.386-2.348.938-.25 1.925-.296 2.965-.134 1.038.163 1.924.462 2.658.9l-.077 2.082c-.9-.465-1.787-.773-2.664-.925-.878-.152-1.694-.127-2.45.075-.87.234-1.484.675-1.838 1.324-.354.65-.41 1.425-.168 2.33.224.837.666 1.437 1.328 1.797.66.36 1.916.68 3.77.958 1.906.282 3.31.737 4.21 1.368.9.63 1.525 1.603 1.878 2.918.47 1.758.345 3.294-.377 4.606-.724 1.313-1.94 2.197-3.648 2.655z" fill="#fff" fill-rule="nonzero"/></svg>