<svg viewBox="0 0 159 160" xmlns="http://www.w3.org/2000/svg" fill-rule="evenodd" clip-rule="evenodd" stroke-linejoin="round" stroke-miterlimit="1.414"><circle cx="112.21" cy="856.785" r="56.785" fill="#fff" stroke-width="2.04" stroke="#626262" transform="rotate(-15 -2789.886 582.84) scale(.98115)"/><path d="M79.216 128.247l-.02-1c.248-.004.495-.01.74-.02.645-.023 1.29-.058 1.932-.108.74-.06 1.478-.14 2.214-.24l.043-.01.13.99c-.203.02-.407.05-.61.07-.566.06-1.132.12-1.7.16-.562.04-1.127.07-1.692.1l-1.037.03zm-2.02-.01c-1.678-.04-3.35-.188-5.01-.415l-.03-.004.14-.99c.278.04.555.074.833.11.62.073 1.25.137 1.88.186.72.056 1.45.092 2.17.114h.02l-.03 1zm9.06-.67l-.176-.984c.26-.047.518-.095.777-.144.65-.13 1.3-.27 1.943-.43.65-.16 1.296-.33 1.938-.52l.155-.05.28.96c-.24.07-.48.13-.72.2-.566.15-1.132.3-1.702.43-.56.13-1.13.25-1.7.36-.26.05-.53.1-.79.14zm-16.095-.074c-1.58-.295-3.14-.677-4.68-1.133l-.22-.067.29-.958c.25.074.49.146.74.217.69.195 1.38.377 2.08.54.61.143 1.23.27 1.84.39l.15.028-.18.983zm22.95-1.685l-.32-.947c.22-.07.44-.15.66-.23.62-.22 1.23-.45 1.84-.7.69-.28 1.37-.58 2.04-.89l.05-.02.43.91c-.18.09-.37.18-.56.26-.52.24-1.04.46-1.57.68-.53.22-1.07.43-1.6.63-.31.11-.63.23-.95.34zm-29.77-.148c-.83-.297-1.66-.615-2.48-.96-.67-.28-1.33-.58-1.99-.893l-.19-.093.44-.9.67.318c.65.297 1.3.583 1.96.85.58.236 1.16.457 1.75.67l.19.066-.33.942zm36.27-2.648l-.46-.884c.22-.115.44-.23.65-.348.56-.31 1.12-.628 1.66-.96.63-.376 1.24-.77 1.84-1.176l.09-.06.56.827c-.18.13-.37.25-.55.37-.46.31-.94.61-1.41.9-.48.29-.96.57-1.45.85-.3.17-.6.33-.91.49zm-42.73-.22c-.86-.466-1.71-.957-2.54-1.477-.53-.337-1.07-.687-1.59-1.045l-.17-.12.57-.822.62.416c.59.393 1.19.775 1.8 1.14.53.322 1.07.63 1.62.93l.19.1c-.16.293-.31.586-.47.88zm48.71-3.555l-.6-.802c.17-.124.34-.25.5-.378.57-.44 1.13-.892 1.68-1.358.55-.47 1.08-.95 1.61-1.44l.01-.01.69.72c-.2.19-.41.37-.61.56-.41.37-.82.73-1.24 1.08-.42.36-.85.7-1.28 1.04-.24.18-.48.37-.73.55zm-54.65-.275c-.71-.54-1.4-1.1-2.08-1.68-.55-.476-1.09-.965-1.62-1.464l-.13-.13.69-.726c.18.166.35.33.53.494.46.422.93.836 1.41 1.24.54.46 1.1.904 1.66 1.34l.17.13-.6.796zm59.97-4.39l-.71-.696c.17-.167.33-.335.49-.503.43-.455.85-.917 1.26-1.388.47-.538.92-1.088 1.36-1.647l.15-.19.79.617c-.16.207-.32.413-.49.62-.69.848-1.4 1.673-2.15 2.475-.22.24-.45.478-.68.713zm-65.24-.313c-.63-.66-1.24-1.33-1.83-2.03-.48-.56-.94-1.14-1.39-1.72l-.07-.1.79-.61.41.52c.45.56.91 1.11 1.38 1.65.41.47.84.94 1.27 1.39l.17.18-.72.69zm69.77-5.12l-.81-.58.41-.59c.4-.59.79-1.18 1.16-1.79.33-.53.64-1.07.95-1.61l.12-.21.88.48c-.12.23-.25.45-.38.68-.55.94-1.12 1.86-1.73 2.77-.19.27-.38.55-.57.82zm-74.25-.35c-.92-1.32-1.76-2.69-2.54-4.1l-.11-.2.88-.48.38.68c.36.63.73 1.26 1.12 1.88.34.54.7 1.06 1.06 1.59l.04.06-.82.57zm77.89-5.72l-.89-.45.32-.65c.27-.57.53-1.13.77-1.7.28-.66.54-1.32.79-1.99l.08-.21.94.34-.27.72c-.39 1.02-.82 2.02-1.29 3.01-.14.3-.29.6-.44.9zm-81.46-.38c-.74-1.52-1.38-3.08-1.95-4.67l.95-.34c.09.23.17.47.26.71.1.26.2.52.31.78.21.52.42 1.03.65 1.55.23.5.46 1.01.7 1.51l-.892.44zm84.12-6.18l-.95-.3.22-.71c.2-.69.39-1.38.57-2.07.15-.61.29-1.22.41-1.84l.04-.18.98.19-.15.72c-.23 1.07-.5 2.13-.81 3.19-.09.33-.19.65-.3.98zm-86.7-.41c-.49-1.62-.89-3.26-1.2-4.91l.98-.19c.05.28.11.55.17.83l.18.83c.24 1.02.51 2.03.81 3.04l.03.09-.96.29zm88.3-6.48l-.99-.15.12-.8c.1-.72.18-1.44.24-2.16.06-.63.09-1.27.12-1.9l.01-.06 1 .04c-.003.2-.013.41-.03.62-.03.55-.062 1.11-.112 1.66-.05.55-.11 1.1-.18 1.65-.047.36-.1.73-.15 1.09zm-89.84-.43c-.1-.75-.19-1.51-.26-2.26-.09-.93-.14-1.85-.17-2.78l1-.04.03.78c.01.28.03.55.05.83.04.55.08 1.11.14 1.66.06.55.13 1.1.2 1.66l-.99.13zm89.35-6.62l-.01-.7-.03-.83c-.02-.55-.05-1.11-.1-1.66-.04-.56-.1-1.11-.16-1.66l-.01-.1 1-.12c.03.22.05.44.08.66.07.66.12 1.32.16 1.98.05.75.07 1.5.08 2.25v.15h-1zm-88.79-.43l-1-.02c0-.28.01-.55.02-.83.02-.65.06-1.3.11-1.95.06-.74.13-1.48.22-2.21l.01-.06.99.13c-.03.28-.07.57-.1.86-.06.54-.11 1.08-.14 1.62-.04.54-.06 1.09-.082 1.63-.01.27-.02.54-.02.81zm88.2-6.47c-.04-.25-.08-.49-.12-.73l-.16-.84c-.22-1.1-.48-2.19-.78-3.27l.966-.27c.257.92.487 1.84.687 2.78.14.66.27 1.32.38 1.98l.03.174-.99.16zm-87.56-.42l-.98-.17.12-.67c.14-.72.29-1.44.46-2.15.15-.62.32-1.24.49-1.86l.07-.25.96.27-.21.76c-.28 1.04-.522 2.09-.732 3.14-.06.31-.115.61-.17.92zm85.92-6.3l-.2-.61c-.09-.27-.19-.54-.28-.8-.2-.53-.4-1.05-.61-1.57-.214-.52-.436-1.03-.665-1.54l-.04-.09.91-.42.27.61c.303.7.594 1.4.865 2.12.24.63.464 1.26.677 1.9l.03.08-.95.31zm-84.2-.4l-.94-.33.24-.69c.22-.6.45-1.2.69-1.79.273-.676.57-1.34.87-2l.1-.216.904.424-.32.69c-.43.98-.84 1.965-1.21 2.967-.11.31-.22.615-.325.92zm81.54-5.99l-.32-.62c-.13-.24-.26-.49-.39-.73-.54-.96-1.1-1.89-1.7-2.81l-.08-.12.83-.556.386.59c.35.55.69 1.104 1.02 1.67.38.65.738 1.31 1.08 1.97l.07.13-.89.46zm-78.82-.36l-.88-.47c.11-.22.23-.437.35-.65.3-.56.62-1.11.95-1.656.374-.623.77-1.235 1.17-1.84l.13-.19.83.556-.42.635c-.58.898-1.13 1.81-1.65 2.74-.157.29-.314.58-.467.87zm75.18-5.52c-.17-.24-.34-.47-.51-.7-.17-.214-.33-.43-.5-.64-.67-.845-1.37-1.665-2.09-2.46l-.02-.026.74-.68c.2.21.39.426.58.64.43.484.84.974 1.25 1.473.47.575.92 1.16 1.35 1.754l.04.04-.81.58zm-71.5-.34l-.8-.59.45-.59c.45-.578.9-1.146 1.37-1.7.42-.488.84-.96 1.27-1.43l.147-.16.73.68-.51.55c-.71.8-1.4 1.62-2.06 2.46-.2.26-.4.524-.6.79zm67-4.916c-.15-.16-.31-.315-.47-.47l-.582-.554c-.78-.727-1.59-1.427-2.42-2.1l-.204-.167.623-.78.63.51c.56.47 1.113.942 1.65 1.433.475.43.936.87 1.39 1.32l.1.1-.707.705zm-62.46-.303l-.7-.72.56-.54c.54-.5 1.08-1 1.63-1.47.49-.42.99-.83 1.49-1.23l.12-.09.62.78c-.18.14-.36.28-.54.43-.83.68-1.64 1.38-2.43 2.12-.25.23-.49.47-.74.71zm57.2-4.19c-.18-.14-.37-.27-.56-.4-.22-.16-.44-.31-.66-.46-.88-.6-1.78-1.16-2.71-1.7l-.22-.13.5-.87.7.4c.63.37 1.24.75 1.85 1.15.53.35 1.05.71 1.568 1.08l.134.1c-.195.27-.39.54-.587.81zm-51.91-.26l-.58-.81.72-.51c.62-.42 1.24-.83 1.87-1.22.56-.34 1.12-.67 1.69-.99l.49.87c-.24.13-.47.27-.71.4l-.703.42c-.7.43-1.39.87-2.06 1.33-.24.163-.47.325-.7.49zm46.01-3.36c-.2-.11-.41-.21-.62-.31-.24-.12-.48-.24-.72-.35-.96-.46-1.94-.87-2.94-1.26l-.23-.09.36-.94c.25.09.5.19.75.29.59.24 1.18.48 1.76.74.663.29 1.32.61 1.97.94l.15.07-.46.89zm-40.09-.21l-.44-.9.73-.35c.6-.29 1.2-.56 1.816-.82.69-.297 1.39-.57 2.095-.83l.348.94-.75.28-.78.31c-.77.32-1.53.66-2.29 1.018-.24.11-.47.23-.71.343zm33.71-2.46l-.68-.22c-.25-.08-.51-.16-.77-.23-1.03-.3-2.07-.56-3.12-.79l-.2-.05.21-.98c.25.05.497.1.74.16.62.14 1.248.3 1.86.47.71.19 1.407.4 2.1.62l.177.06-.31.95zm-27.3-.14l-.3-.96.6-.18c.47-.14.94-.273 1.41-.4l.13.48-.13-.48.85-.214c.66-.16 1.32-.31 1.99-.444.66-.137 1.32-.25 1.99-.358l.12-.02.15.99c-.22.036-.45.07-.67.11-1.02.18-2.04.38-3.05.627-.92.226-1.84.48-2.75.76l-.31.097zM85.57 39l-.77-.12-.8-.11c-1.08-.13-2.16-.23-3.243-.29l-.097-.004.05-.994c.216.01.434.03.653.04.65.05 1.29.1 1.94.17.74.08 1.47.18 2.19.29l.24.04-.16.99zm-11.82-.32l-.104-.995c.24-.024.47-.05.71-.07.66-.06 1.32-.105 1.98-.136.75-.04 1.5-.05 2.25-.05h.12l-.007 1h-.66c-.55 0-1.1.02-1.65.04-.56.02-1.11.06-1.66.11-.33.02-.65.05-.97.09z" fill="#5C544C" fill-rule="nonzero"/><path fill="#fff" stroke-width="2.002" stroke="#626262" d="M8.83 87.177l132.61-35.533 7.514 28.04-132.61 35.532z"/><path d="M32.994 102.152l-.34-1.264 2.372-.635-2.71-10.116-2.37.635-.34-1.265 6.18-1.656.34 1.27-2.373.64 2.71 10.12 2.372-.63.34 1.27-6.18 1.66zm9.464-.655l6.686-1.792.377 1.406-6.68 1.8zm10.697-8l-3.622-6.94 2.84 10.403-1.28.343-3.39-12.645 1.724-.462 3.855 7.183-.268-8.15 1.66-.45 3.388 12.64-1.28.34-2.727-10.36.317 7.75-1.217.32zm10.563-4.965l-2.833-5.577.32 6.25 2.513-.673zm2.405 4.743l-1.798-3.55-3.05.817.2 3.978-1.405.377-.433-13.437 1.596-.427 6.344 11.853-1.454.39zm3.857-1.033l-3.388-12.645 2.813-.754c1.085-.29 2.054-.135 2.904.468.85.61 1.45 1.56 1.8 2.87l1.11 4.14c.34 1.29.29 2.4-.14 3.34-.44.94-1.2 1.55-2.29 1.84l-2.82.76zm1.1-1.65l1.327-.356c.695-.186 1.164-.578 1.405-1.172.24-.596.235-1.368-.02-2.316L72.66 82.51c-.26-.968-.645-1.655-1.154-2.06-.51-.406-1.112-.516-1.808-.33l-1.327.356 2.71 10.116zm8.146-.828L75.838 77.12l6.37-1.707.34 1.264L77.614 78l1.03 3.84 4.33-1.162.343 1.28-4.33 1.162 1.338 4.995 4.932-1.322.338 1.265-6.37 1.706zm9.464-.654l6.686-1.793.377 1.407-6.686 1.79zm11.4-4.936l-3.05-11.38-2.83.757-.337-1.26 7.113-1.9.34 1.27-2.847.76 3.04 11.38-1.44.39zm6.876-1.844l-3.388-12.644 1.44-.385 1.38 5.16 3.303-.88-1.38-5.15 1.44-.38 3.39 12.65-1.44.39-1.66-6.21-3.3.89 1.67 6.21-1.44.39zm9.246-2.476l-.338-1.264 2.37-.636-2.71-10.116-2.37.635-.34-1.264 6.18-1.66.34 1.26-2.37.63 2.71 10.11 2.37-.64.338 1.26-6.18 1.66zm12.448-3.184c-.655.176-1.332.222-2.032.138-.7-.082-1.318-.26-1.854-.536l.1-1.33c.6.302 1.207.486 1.818.554.61.067 1.2.025 1.77-.127.633-.17 1.074-.5 1.323-.98.25-.48.284-1.06.104-1.73-.16-.57-.44-.98-.85-1.22s-1.19-.46-2.34-.65c-1.28-.2-2.21-.51-2.81-.92-.6-.41-1.01-1.05-1.24-1.9-.27-1.01-.2-1.88.23-2.61.42-.73 1.15-1.24 2.17-1.51.6-.16 1.23-.19 1.9-.09.66.1 1.23.29 1.7.57l-.05 1.33c-.58-.3-1.15-.5-1.71-.6-.57-.1-1.09-.08-1.57.05-.56.15-.96.433-1.18.85-.23.42-.27.92-.11 1.5.14.54.42.92.85 1.15.42.23 1.23.437 2.41.615 1.22.18 2.12.47 2.7.874.58.407.98 1.03 1.21 1.87.3 1.13.22 2.115-.25 2.957-.47.84-1.25 1.41-2.34 1.7z" fill="#626262" fill-rule="nonzero"/></svg>