<svg viewBox="0 0 159 160" xmlns="http://www.w3.org/2000/svg" fill-rule="evenodd" clip-rule="evenodd" stroke-linejoin="round" stroke-miterlimit="1.414"><circle cx="112.21" cy="856.785" r="56.785" fill="#fff" stroke-width="2.04" stroke="#626262" transform="rotate(-15 -2789.886 582.84) scale(.98115)"/><path d="M79.216 128.247l-.02-1c.248-.004.495-.01.74-.02.645-.023 1.29-.058 1.932-.108.74-.06 1.478-.14 2.214-.237l.043-.006.13.992c-.203.026-.407.05-.61.074-.566.064-1.132.12-1.7.165-.562.044-1.127.076-1.692.1-.345.014-.69.025-1.037.03zm-2.02-.01c-1.678-.04-3.35-.188-5.01-.415l-.03-.004.14-.99c.278.04.555.074.833.11.622.073 1.252.137 1.883.186.724.056 1.45.092 2.177.114h.025c-.01.334-.017.667-.025 1zm9.06-.67l-.176-.984c.26-.047.518-.095.777-.144.65-.13 1.3-.27 1.943-.43.65-.156 1.296-.33 1.938-.512l.155-.045.28.96c-.24.07-.48.137-.72.204-.566.154-1.132.3-1.702.433-.56.133-1.13.253-1.7.365-.26.05-.53.1-.79.144zm-16.095-.074c-1.58-.295-3.14-.677-4.68-1.133l-.22-.067.29-.958c.243.074.487.146.732.217.69.195 1.38.377 2.077.54.61.143 1.224.27 1.84.39l.15.028c-.06.327-.12.655-.184.983zm22.947-1.685l-.323-.947c.22-.07.44-.15.66-.23.618-.22 1.23-.45 1.837-.7.688-.28 1.367-.58 2.04-.895l.044-.02.428.905c-.184.087-.37.173-.56.26-.52.233-1.042.46-1.57.676-.532.22-1.07.425-1.606.623-.317.112-.633.225-.95.333zm-29.77-.148c-.836-.297-1.664-.615-2.48-.96-.67-.28-1.333-.58-1.99-.893l-.192-.093.435-.9.67.318c.646.297 1.297.583 1.956.85.577.236 1.16.457 1.745.67l.19.066-.333.942zm36.265-2.648l-.467-.884c.218-.115.434-.23.65-.348.56-.31 1.115-.628 1.66-.96.624-.376 1.235-.77 1.84-1.176l.087-.06.56.827c-.184.13-.37.25-.554.37-.467.31-.938.61-1.415.9-.48.29-.963.57-1.452.846-.3.167-.603.33-.91.492zm-42.73-.22c-.86-.466-1.71-.957-2.54-1.477-.536-.337-1.07-.687-1.592-1.045l-.173-.12.568-.822.614.416c.59.393 1.19.775 1.8 1.14.53.322 1.07.63 1.615.93l.185.1c-.16.293-.317.586-.476.88zm48.707-3.555l-.6-.802c.168-.124.333-.25.5-.378.568-.44 1.13-.892 1.677-1.358.546-.47 1.08-.95 1.604-1.44l.003-.003.686.727c-.2.19-.41.376-.614.563-.41.37-.823.73-1.244 1.087-.42.356-.85.7-1.285 1.042-.242.186-.485.372-.73.555zm-54.65-.275c-.71-.54-1.405-1.1-2.083-1.68-.553-.476-1.094-.965-1.626-1.464l-.137-.13.69-.726c.175.166.35.33.527.494.46.422.925.836 1.402 1.24.542.46 1.097.904 1.66 1.34l.173.13-.606.796zm59.965-4.39l-.715-.696c.162-.167.323-.335.483-.503.428-.455.848-.917 1.257-1.388.467-.538.92-1.088 1.36-1.647l.15-.19.787.617c-.16.207-.325.413-.49.62-.69.848-1.404 1.673-2.15 2.475-.223.24-.45.478-.68.713zm-65.243-.313c-.63-.66-1.24-1.33-1.83-2.03-.48-.56-.94-1.133-1.39-1.715l-.07-.095.79-.607c.133.174.268.346.403.52.447.562.905 1.116 1.377 1.658.41.475.835.938 1.266 1.394l.172.18-.722.69zm69.77-5.12l-.817-.58c.14-.197.275-.39.41-.59.4-.587.79-1.18 1.164-1.785.325-.53.64-1.067.945-1.608l.114-.205.873.486c-.125.23-.254.454-.383.68-.548.943-1.126 1.865-1.734 2.77-.19.276-.38.552-.572.825zm-74.256-.35c-.922-1.32-1.764-2.69-2.542-4.1l-.11-.2.88-.48c.124.227.25.454.375.68.36.634.732 1.26 1.122 1.88.34.54.693 1.066 1.054 1.59l.043.06c-.274.19-.548.38-.82.572zm77.888-5.72l-.895-.445.316-.648c.267-.563.526-1.13.77-1.7.28-.655.543-1.316.793-1.983l.077-.21.94.346c-.09.244-.18.485-.273.726-.397 1.02-.825 2.02-1.288 3.01-.145.302-.29.604-.44.905zm-81.46-.38c-.74-1.516-1.385-3.078-1.95-4.666l.944-.335c.084.237.17.473.257.71.1.262.2.524.303.786.207.52.42 1.036.645 1.55.225.507.46 1.01.7 1.51v.003l-.897.44zm84.114-6.174l-.953-.3c.075-.236.147-.47.22-.707.2-.686.39-1.375.563-2.07.15-.608.286-1.22.412-1.834l.034-.178.98.193c-.048.24-.098.48-.148.72-.234 1.073-.504 2.136-.81 3.19-.096.33-.195.657-.3.984zm-86.694-.41c-.494-1.614-.89-3.253-1.207-4.908l.982-.19c.052.28.107.556.164.833.058.28.12.556.18.833.237 1.02.505 2.034.806 3.04l.03.095-.958.294zm88.3-6.477l-.99-.147c.04-.267.078-.534.114-.802.093-.716.173-1.434.234-2.154.053-.634.09-1.268.118-1.903l.002-.06 1 .036c-.008.206-.018.413-.03.62-.03.556-.067 1.11-.117 1.665-.05.55-.11 1.102-.18 1.652-.046.364-.097.728-.15 1.09zm-89.837-.43c-.104-.75-.194-1.503-.264-2.258-.084-.922-.14-1.847-.17-2.773l1-.033.03.783c.016.278.03.554.05.83.04.556.082 1.11.14 1.66.06.555.13 1.107.204 1.66l-.99.137zm89.346-6.615l-.01-.7c-.01-.276-.015-.55-.026-.827-.024-.55-.055-1.105-.1-1.656-.043-.556-.098-1.11-.16-1.66l-.012-.092.995-.12c.026.22.05.44.074.66.066.66.12 1.32.16 1.98.047.75.07 1.5.08 2.25v.155l-1 .006zm-88.79-.426l-1-.018c.004-.275.01-.55.02-.826.023-.65.057-1.3.107-1.947.057-.738.134-1.474.225-2.208l.01-.06.99.13c-.037.287-.07.575-.1.863-.058.54-.108 1.08-.147 1.622-.04.544-.065 1.088-.086 1.633-.01.27-.017.54-.02.81zm88.205-6.466c-.04-.243-.082-.485-.125-.726l-.16-.834c-.225-1.1-.486-2.187-.786-3.27l.963-.266c.255.92.485 1.84.685 2.773.14.66.266 1.324.38 1.988l.028.174c-.33.054-.657.11-.986.163zm-87.557-.42l-.984-.17.12-.668c.14-.72.29-1.438.465-2.15.15-.623.315-1.24.49-1.857l.07-.25.96.277-.214.763c-.28 1.04-.525 2.085-.735 3.14-.06.304-.115.61-.17.915zm85.913-6.3l-.207-.61c-.09-.268-.185-.534-.28-.8-.195-.526-.396-1.05-.608-1.57-.212-.517-.434-1.028-.663-1.537l-.04-.084.91-.418.27.607c.305.7.596 1.404.867 2.12.24.63.462 1.263.675 1.902l.026.078-.95.31zm-84.2-.398l-.945-.325.24-.685c.217-.6.443-1.196.683-1.786.275-.675.567-1.34.87-2l.1-.215.906.423-.32.693c-.432.978-.834 1.965-1.204 2.967-.11.306-.22.613-.327.922zm81.54-5.985l-.323-.617c-.13-.242-.262-.484-.395-.725-.535-.957-1.1-1.89-1.7-2.807l-.078-.117.833-.554c.13.195.257.392.384.59.35.55.69 1.104 1.02 1.67.377.647.735 1.306 1.08 1.97l.07.13-.89.46zm-78.806-.37l-.885-.465c.11-.218.23-.435.344-.65.306-.557.62-1.11.948-1.654.376-.622.767-1.234 1.168-1.84l.13-.19.83.557-.42.635c-.58.896-1.127 1.808-1.647 2.74-.157.29-.314.58-.467.87zm75.18-5.52c-.17-.233-.343-.463-.517-.693-.164-.214-.33-.43-.497-.64-.67-.845-1.368-1.665-2.094-2.46l-.023-.026.736-.68c.194.213.385.427.575.64.424.485.84.975 1.245 1.474.465.574.913 1.16 1.35 1.753l.033.046-.81.587zm-71.5-.335l-.802-.59.448-.592c.445-.576.9-1.144 1.37-1.7.413-.486.837-.963 1.267-1.433l.147-.156.733.68c-.17.183-.337.367-.504.55-.71.798-1.394 1.617-2.053 2.46-.202.26-.403.525-.6.79zm67-4.914c-.158-.157-.318-.314-.478-.47-.194-.185-.388-.37-.584-.553-.782-.727-1.59-1.427-2.42-2.1l-.206-.167.626-.78c.21.17.422.34.63.51.56.47 1.113.945 1.65 1.436.475.43.936.87 1.39 1.32l.1.097-.707.708zm-62.46-.302l-.7-.716.556-.54c.534-.503 1.076-.997 1.63-1.475.49-.42.986-.83 1.49-1.23l.118-.09.62.784c-.18.14-.36.285-.54.43-.834.68-1.645 1.386-2.433 2.12-.25.236-.496.473-.74.713zm57.2-4.186c-.188-.137-.376-.27-.565-.405-.22-.155-.44-.306-.66-.456-.886-.594-1.788-1.16-2.71-1.695l-.224-.13.497-.867c.233.134.465.27.696.405.623.372 1.24.755 1.846 1.155.53.35 1.05.713 1.568 1.083l.133.097c-.195.27-.39.54-.587.81zm-51.91-.262l-.585-.813c.238-.17.478-.337.72-.503.613-.42 1.235-.826 1.868-1.215.555-.34 1.117-.67 1.684-.987l.49.873c-.238.133-.474.268-.71.403l-.706.42c-.696.43-1.383.87-2.06 1.33-.234.163-.47.325-.7.49zm46.01-3.358c-.207-.106-.415-.21-.623-.314-.24-.118-.48-.234-.72-.348-.967-.452-1.947-.87-2.942-1.26l-.232-.088.358-.934c.25.095.498.192.745.29.59.238 1.177.485 1.757.746.663.296 1.32.612 1.967.94l.15.075-.458.89zm-40.09-.206l-.444-.895.726-.35c.6-.284 1.203-.56 1.814-.82.69-.293 1.39-.57 2.095-.83l.346.94c-.252.094-.504.19-.755.285-.26.102-.52.206-.78.31-.772.32-1.536.658-2.29 1.015-.24.113-.477.23-.714.346zm33.71-2.462c-.227-.074-.454-.147-.68-.218-.257-.08-.513-.157-.77-.233-1.03-.298-2.07-.56-3.12-.79l-.204-.043.207-.98c.25.053.497.107.744.163.623.144 1.245.298 1.862.466.704.19 1.402.4 2.097.623l.174.056-.31.95zm-27.3-.134l-.303-.953c.198-.063.398-.123.597-.184.47-.14.938-.273 1.408-.4l.13.482L66.67 39l.85-.215c.66-.162 1.32-.312 1.986-.446.66-.134 1.322-.25 1.986-.355l.123-.018.15.987c-.226.034-.45.07-.674.108-1.024.178-2.042.383-3.053.626-.927.224-1.846.48-2.758.76l-.31.095zm20.584-1.514c-.253-.042-.51-.08-.77-.12-.265-.038-.532-.074-.8-.11-1.08-.133-2.16-.23-3.246-.29l-.096-.005.05-.994c.216.01.434.024.653.037.646.046 1.29.1 1.936.17.733.08 1.463.18 2.192.29l.24.04-.16.988zm-11.82-.32l-.107-.996c.236-.025.47-.048.708-.07.66-.058 1.32-.106 1.98-.137.75-.035 1.5-.05 2.25-.05h.114l-.004 1c-.22 0-.44 0-.66.002-.55.004-1.1.02-1.65.044-.554.023-1.106.06-1.658.11-.323.025-.645.055-.968.09z" fill="#5C544C" fill-rule="nonzero"/><path fill="#fff" stroke-width="2.002" stroke="#626262" d="M8.83 87.177l132.61-35.533 7.514 28.04-132.61 35.532z"/><path d="M32.994 102.152l-.34-1.264 2.372-.635-2.71-10.116-2.37.635-.34-1.265 6.18-1.656.34 1.27-2.373.636 2.71 10.117 2.372-.635.34 1.264-6.18 1.656zm9.464-.655l6.686-1.792.377 1.406-6.68 1.798zm10.697-8l-3.622-6.94 2.84 10.403-1.28.343-3.39-12.645 1.724-.462 3.855 7.183-.268-8.15 1.66-.445 3.388 12.644-1.28.343-2.727-10.365.317 7.756-1.217.327zm10.563-4.965l-2.833-5.577.32 6.25 2.513-.673zm2.405 4.743l-1.798-3.55-3.05.817.2 3.978-1.405.377-.433-13.437 1.596-.427 6.344 11.853-1.454.39zm3.857-1.033l-3.388-12.645 2.813-.754c1.085-.29 2.054-.135 2.904.468.85.608 1.45 1.56 1.8 2.87l1.11 4.14c.34 1.286.29 2.397-.14 3.333-.44.935-1.2 1.55-2.29 1.84l-2.815.754zm1.1-1.65l1.327-.356c.695-.186 1.164-.578 1.405-1.172.24-.596.235-1.368-.02-2.316L72.66 82.51c-.26-.968-.645-1.655-1.154-2.06-.51-.406-1.112-.516-1.808-.33l-1.327.356 2.71 10.116zm8.146-.828L75.838 77.12l6.37-1.707.34 1.264L77.614 78l1.03 3.84 4.33-1.162.343 1.28-4.33 1.162 1.338 4.995 4.932-1.322.338 1.265-6.37 1.706zm9.464-.654l6.686-1.793.377 1.407-6.686 1.79zm11.4-4.936l-3.05-11.38-2.83.757-.337-1.26 7.113-1.904.34 1.266-2.847.76 3.043 11.38-1.438.388zm6.876-1.844l-3.388-12.644 1.44-.385 1.38 5.16 3.303-.886-1.38-5.153 1.44-.385 3.39 12.647-1.44.386-1.662-6.21-3.304.884 1.667 6.21-1.44.386zm9.246-2.476l-.338-1.264 2.37-.636-2.71-10.116-2.37.635-.34-1.264 6.18-1.66.34 1.263-2.37.635 2.71 10.116 2.37-.636.338 1.266-6.18 1.656zm12.448-3.184c-.655.176-1.332.222-2.032.138-.7-.082-1.318-.26-1.854-.536l.1-1.33c.6.302 1.207.486 1.818.554.61.067 1.2.025 1.77-.127.633-.17 1.074-.5 1.323-.98.25-.48.284-1.055.104-1.73-.16-.57-.44-.973-.848-1.214-.41-.24-1.187-.456-2.333-.645-1.273-.2-2.208-.506-2.804-.917-.596-.41-1.01-1.043-1.238-1.896-.27-1.01-.195-1.88.23-2.61.426-.73 1.15-1.233 2.172-1.507.6-.16 1.234-.19 1.9-.085.666.103 1.234.294 1.705.575l-.05 1.335c-.576-.297-1.146-.494-1.708-.592-.564-.098-1.087-.08-1.57.048-.56.15-.954.435-1.18.85-.227.418-.264.917-.108 1.496.142.537.426.922.85 1.153.423.23 1.23.436 2.417.614 1.224.18 2.124.473 2.7.878.58.405.98 1.028 1.206 1.87.3 1.13.22 2.113-.243 2.955-.464.84-1.244 1.407-2.34 1.7z" fill="#626262" fill-rule="nonzero"/></svg>