<svg viewBox="0 0 300 300" xmlns="http://www.w3.org/2000/svg" fill-rule="evenodd" clip-rule="evenodd" stroke-linecap="round" stroke-linejoin="round" stroke-miterlimit="1.414"><path d="M74.8 167.094v52.54l80.892 46.704v-52.54L74.8 167.093z" fill="#A8A8A8"/><path d="M82.315 192.594l-3.83 11.39c4.025.043 8.078.092 12.357.232l-8.527-11.622zm11.23 13.68l-1.374 11.94c3.947-.797 7.92-1.593 12.135-2.347l-10.76-9.592zm36.763 20.354l6.633 10.022c2.508-3.148 5.038-6.315 7.778-9.605l-14.41-.417zm-20.775-7.892l2.48 11.76c3.488-2.006 7.005-4.02 10.764-6.07l-13.244-5.69z" fill="#F5A617"/><path d="M236.444 167.026v52.54L155.55 266.27v-52.54l80.894-46.704z" fill="#C2C2C2"/><path d="M75.14 177.423s8.53 26.6 34.218 41.135c25.687 14.533 45.97 5.162 45.97 5.162" fill="none" stroke-width="1.007" stroke="#DBDBDB"/><path d="M65.735 167.026l89.817-51.856 89.817 51.856-89.82 51.856-89.816-51.856z" fill="#CBCBCB"/><path d="M155.552 225.907l89.817-51.856v-7.03l-89.82 51.856v7.032z" fill="#7D7D7D"/><path d="M94.883 167.026L155.553 132l60.67 35.026-60.67 35.027-60.67-35.027z" fill="#D6D6D6"/><path d="M95.474 167.026L156.144 132l2.91 36.706-30.335 17.514-33.247-19.194z" fill="#949494"/><path d="M216.904 167.026L156.234 132l-3.062 36.794 30.335 17.513 33.397-19.28z" fill="#888"/><path d="M89.04 168.354s-.56 1.363-3.266 1.433c-2.47.065-3.135-1.386-3.154-1.43v-57.603h6.406v57.6h.013zm69.73 40.606s-.562 1.364-3.266 1.434c-2.47.064-3.135-1.386-3.154-1.432h-.002v-57.6h6.408v57.6h.013z" fill="#979797"/><path d="M156.53 225.37l-75.41-43.536-14.408-8.32v-7.03l89.817 51.855v7.03z" fill="#878787"/><path d="M230.49 168.292s-.56 1.363-3.264 1.434c-2.47.064-3.135-1.387-3.154-1.432l-.002-.002v-57.6h6.407v57.6h.013z" fill="#979797"/><path d="M185.676 747.4c-10.707 0-19.4-8.694-19.4-19.4 0-10.707 8.693-19.4 19.4-19.4v38.8z" fill="#F5A617" stroke-width=".97" stroke-linecap="butt" stroke="#696969" transform="matrix(0 .78856 -.7748 .44733 763.426 -247.096)"/><path d="M185.676 747.4c-10.707 0-19.4-8.694-19.4-19.4 0-10.707 8.693-19.4 19.4-19.4v38.8z" fill="#F5A617" stroke-width=".97" stroke-linecap="butt" stroke="#DB9200" transform="matrix(0 .78856 -.7748 .44733 763.426 -247.096)"/><path d="M166.277 736l-11.085-16" fill="#F5A617" stroke-width=".95" stroke-linecap="butt" stroke="#DB9200" transform="matrix(0 .9384 -.67873 .39187 699.158 -219.562)"/><path d="M166.277 736h-19.4m19.4 0l-13.857 14.4" fill="#F5A617" stroke-width=".97" stroke-linecap="butt" stroke="#DB9200" transform="matrix(0 .78856 -.7748 .44733 769.862 -235.466)"/><path d="M80.892 107.59l78.888-70.927 15.913 8.098-79.833 71.474-14.968-8.642z" fill="#F5A617"/><path d="M175.693 44.76v36.904L95.86 127.756v-11.523l79.833-71.472z" fill="#F5A617"/><path d="M80.892 119.12c0 .01.354 7.145 8.66 9.108 2.982.705 6.21-.396 6.303-.47l.005-.002v-11.523l-14.968-8.642v11.53z" fill="#E59900"/><path d="M95.793 116.568l79.936-71.87 16.122 8.207-80.893 72.42-15.168-8.757z" fill="#E7E7E7"/><path d="M191.853 52.905v37.393L110.96 137v-11.675l80.893-72.42z" fill="#CCC"/><path d="M95.793 128.25c.002.01.36 7.24 8.775 9.23 3.022.713 6.295-.402 6.388-.476l.004-.003v-11.674l-15.167-8.757v11.68z" fill="#DBDBDB"/><path d="M110.97 125.238l80.927-72.76 16.324 8.306-81.895 73.32-15.355-8.866z" fill="#F5A617"/><path d="M208.22 60.784v37.858l-81.896 47.282v-11.82l81.897-73.32z" fill="#F5A617"/><path d="M110.97 137.065c0 .01.363 7.33 8.883 9.344 3.06.72 6.372-.408 6.467-.484l.004-.003v-11.82l-15.355-8.866v11.827z" fill="#E59900"/><g><path d="M126.455 134.108l81.55-73.32 16.45 8.37-82.527 73.883-15.473-8.93z" fill="#E7E7E7"/><path d="M224.455 69.158v38.15l-82.527 47.645V143.04l82.527-73.882z" fill="#CCC"/><path d="M126.455 146.025c.002.01.366 7.387 8.952 9.416 3.083.73 6.422-.407 6.517-.483l.004-.003V143.04l-15.473-8.932v11.917z" fill="#DBDBDB"/></g><g><path d="M142.037 142.954l82.037-73.76 16.55 8.422L157.6 151.94l-15.565-8.986z" fill="#F5A617"/><path d="M240.623 77.616v38.376l-83.02 47.932V151.94l83.02-74.324z" fill="#DE9400"/><path d="M142.037 154.943c0 .01.368 7.43 9.005 9.472 3.102.733 6.46-.412 6.556-.488l.004-.003V151.94l-15.565-8.986v11.99z" fill="#E59900"/></g></svg>