<svg viewBox="0 0 159 159" xmlns="http://www.w3.org/2000/svg" fill-rule="evenodd" clip-rule="evenodd" stroke-linecap="round" stroke-linejoin="round" stroke-miterlimit="1.414"><path d="M24.775 88.418v34.495l53.11 30.663V119.08l-53.11-30.662z" fill="#fff" stroke-width="2.003" stroke="#626262"/><path d="M59.88 356.773l-1.375 4.116c1.31.06 2.627.13 4.018.24l-2.642-4.36z" fill="none" stroke-width=".52" stroke="#626262" transform="matrix(2.01523 -.07076 .06298 1.7934 -113.432 -530.446)"/><path d="M59.88 356.773l-1.375 4.116c1.31.06 2.627.13 4.018.24l-2.642-4.36z" fill="none" stroke-width=".52" stroke="#626262" transform="matrix(1.95633 -.4888 .435 1.741 -235.257 -477.73)"/><path d="M59.88 356.773l-1.375 4.116c1.31.06 2.627.13 4.018.24l-2.642-4.36z" fill="none" stroke-width=".52" stroke="#626262" transform="matrix(1.18282 -1.63312 1.45337 1.05263 -528.13 -150.25)"/><path d="M59.88 356.773l-1.375 4.116c1.31.06 2.627.13 4.018.24l-2.642-4.36z" fill="none" stroke-width=".52" stroke="#626262" transform="matrix(1.70075 -1.08332 .9641 1.51355 -398.223 -352.8)"/><path d="M130.903 88.373v34.495l-53.11 30.663v-34.49l53.11-30.66z" fill="#fff" stroke-width="2.003" stroke="#626262"/><path d="M25 95.2s5.6 17.464 22.465 27.006c16.864 9.542 30.18 3.39 30.18 3.39" fill="none" stroke-width=".997" stroke="#626262"/><path d="M18.824 88.374l58.97-34.046 58.97 34.046-58.97 34.045-58.97-34.05z" fill="#fff" stroke-width="2" stroke="#626262"/><path d="M77.794 127.03l58.97-34.045-.002-4.616-58.97 34.04v4.614z" fill="#fff" stroke-width="2" stroke="#626262"/><path d="M37.96 88.373l39.834-22.997 39.832 22.997-39.832 22.997L37.96 88.373z" fill="#fff" stroke-width=".999" stroke="#626262"/><path d="M34.124 89.245s-.367.895-2.143.94c-1.62.043-2.05-.91-2.07-.94V51.428h4.21v37.817h.01zm45.78 26.66s-.367.895-2.142.94c-1.622.043-2.058-.91-2.07-.94h-.002V78.088h4.207v37.817h.008z" fill="#fff" stroke-width="2.003" stroke-linecap="butt" stroke="#626262"/><path d="M77.794 127.03l-58.97-34.045V88.37l58.97 34.044v4.617z" fill="#fff" stroke-width="2" stroke="#626262"/><path d="M126.994 89.204s-.368.895-2.143.94c-1.62.043-2.05-.91-2.07-.94V51.387h4.21v37.817h.01z" fill="#fff" stroke-width="2.003" stroke-linecap="butt" stroke="#626262"/><path d="M185.676 747.4c-10.707 0-19.4-8.694-19.4-19.4 0-10.707 8.693-19.4 19.4-19.4v38.8z" fill="none" stroke-width="1.48" stroke-linecap="butt" stroke="#696969" transform="matrix(0 .51773 -.5087 .2937 476.892 -183.518)"/><path d="M185.676 747.4c-10.707 0-19.4-8.694-19.4-19.4 0-10.707 8.693-19.4 19.4-19.4v38.8z" fill="none" stroke-width="1.48" stroke-linecap="butt" stroke="#696969" transform="matrix(0 .51773 -.5087 .2937 476.892 -183.518)"/><path d="M166.277 736l-11.085-16" fill="none" stroke-width="1.44" stroke-linecap="butt" stroke="#626262" transform="matrix(0 .6161 -.44562 .25728 434.642 -165.44)"/><path d="M166.277 736h-19.4m19.4 0l-13.857 14.4" fill="none" stroke-width="1.48" stroke-linecap="butt" stroke="#626262" transform="matrix(0 .51773 -.5087 .2937 481.063 -175.883)"/><path d="M27.95 49.97L80.43 2.783 91.016 8.17l-53.11 47.55-9.957-5.75z" fill="#fff" stroke-width="2.003" stroke="#626262"/><path d="M91.016 8.17v24.552l-53.11 30.662V55.72l53.11-47.55zM27.95 57.64c0 .006.234 4.753 5.76 6.06 1.984.467 4.132-.265 4.194-.314l.002-.002V55.72l-9.957-5.75v7.67z" fill="#fff" stroke-width="2.003" stroke="#626262"/><g fill="#fff" stroke-width="2.003" stroke="#626262"><path d="M38.483 55.346L90.963 8.16l10.587 5.388-53.11 47.548-9.957-5.75zm63.067-41.798v24.55L48.44 68.762v-7.664l53.11-47.548z"/><path d="M38.483 63.016c0 .007.235 4.754 5.76 6.06 1.985.468 4.133-.264 4.195-.313l.002-.002V61.1l-9.957-5.75v7.67z"/></g><g fill="#fff" stroke-width="2.003" stroke="#626262"><path d="M48.54 60.464l52.482-47.185 10.586 5.38-53.11 47.55-9.957-5.75zm63.068-41.798v24.55L58.498 73.88v-7.666l53.11-47.548z"/><path d="M48.54 68.134c.002.007.236 4.754 5.76 6.06 1.986.468 4.134-.264 4.196-.313h.002v-7.66l-9.957-5.75v7.67z"/></g><g fill="#fff" stroke-width="2.003" stroke="#626262"><path d="M59.03 65.838l52.48-47.185 10.586 5.387-53.11 47.548-9.957-5.75zm63.066-41.798v24.55l-53.11 30.663v-7.665l53.11-47.548z"/><path d="M59.03 73.508c0 .007.234 4.754 5.76 6.06 1.984.468 4.132-.264 4.194-.313l.002-.002v-7.665l-9.957-5.75v7.67z"/></g><g fill="#fff" stroke-width="2.003" stroke="#626262"><path d="M69.692 71.26l52.48-47.186 10.587 5.387-53.11 47.55-9.96-5.75z"/><path d="M132.76 29.46v24.552L79.65 84.674V77.01l53.11-47.55zM69.692 78.93c0 .006.235 4.753 5.76 6.06 1.985.467 4.133-.265 4.195-.314l.002-.002V77.01l-9.96-5.75v7.67z"/></g><path d="M61.22 101.4l14.006-8.086m19.25 8.086L80.47 93.314" fill="none" stroke="#626262"/></svg>