<svg viewBox="0 0 154 154" xmlns="http://www.w3.org/2000/svg" fill-rule="evenodd" clip-rule="evenodd" stroke-linecap="round" stroke-linejoin="round" stroke-miterlimit="1.414"><path d="M23.834 88.14v34.495l53.11 30.663v-34.496L23.834 88.14z" fill="#fff" stroke-width=".997" stroke="#626262"/><path d="M59.88 356.773l-1.375 4.116c1.31.064 2.627.134 4.018.24l-2.642-4.36z" fill="none" stroke-width=".52" stroke="#626262" transform="matrix(2.01523 -.07076 .06298 1.7934 -114.373 -530.723)"/><path d="M59.88 356.773l-1.375 4.116c1.31.064 2.627.134 4.018.24l-2.642-4.36z" fill="none" stroke-width=".52" stroke="#626262" transform="matrix(1.95633 -.4888 .435 1.741 -236.198 -478.008)"/><path d="M59.88 356.773l-1.375 4.116c1.31.064 2.627.134 4.018.24l-2.642-4.36z" fill="none" stroke-width=".52" stroke="#626262" transform="matrix(1.18282 -1.63312 1.45337 1.05263 -529.07 -150.53)"/><path d="M59.88 356.773l-1.375 4.116c1.31.064 2.627.134 4.018.24l-2.642-4.36z" fill="none" stroke-width=".52" stroke="#626262" transform="matrix(1.70075 -1.08332 .9641 1.51355 -399.164 -353.08)"/><path d="M129.962 88.096v34.495l-53.11 30.666V118.76l53.11-30.663z" fill="#fff" stroke-width=".997" stroke="#626262"/><path d="M24.057 94.92s5.602 17.466 22.466 27.008c16.865 9.542 30.18 3.39 30.18 3.39" fill="none" stroke-width=".997" stroke="#626262"/><path d="M17.883 88.096l58.97-34.046 58.97 34.046-58.97 34.045L17.883 88.1z" fill="#fff" stroke="#626262"/><path d="M76.852 126.754l58.97-34.046v-4.616l-58.97 34.045v4.617z" fill="#fff" stroke="#626262"/><path d="M37.02 88.095l39.832-22.997 39.832 22.997-39.832 22.997L37.02 88.095z" fill="#fff" stroke-width=".999" stroke="#626262"/><path d="M31.277 88.095s-.368.895-2.144.94c-1.622.043-2.058-.91-2.07-.94V50.278h4.205v37.817h.01zm47.687 27.532s-.368.895-2.144.94c-1.622.043-2.058-.91-2.07-.94V77.81h4.205v37.817h.01z" fill="#fff" stroke-width=".997" stroke-linecap="butt" stroke="#626262"/><path d="M76.852 126.754l-58.97-34.046v-4.616l58.97 34.045v4.617z" fill="#fff" stroke="#626262"/><path d="M126.053 88.927s-.368.895-2.144.94c-1.625.043-2.06-.91-2.074-.94V51.11h4.206v37.817h.01z" fill="#fff" stroke-width=".997" stroke-linecap="butt" stroke="#626262"/><path d="M185.676 747.4c-10.707 0-19.4-8.694-19.4-19.4 0-10.707 8.693-19.4 19.4-19.4v38.8z" fill="none" stroke-width="1.48" stroke-linecap="butt" stroke="#696969" transform="matrix(0 .51773 -.5087 .2937 475.95 -183.795)"/><path d="M185.676 747.4c-10.707 0-19.4-8.694-19.4-19.4 0-10.707 8.693-19.4 19.4-19.4v38.8z" fill="none" stroke-width="1.48" stroke-linecap="butt" stroke="#696969" transform="matrix(0 .51773 -.5087 .2937 475.95 -183.795)"/><path d="M166.277 736l-11.085-16" fill="none" stroke-width="1.44" stroke-linecap="butt" stroke="#626262" transform="matrix(0 .6161 -.44562 .25728 433.7 -165.718)"/><path d="M166.277 736h-19.4m19.4 0l-13.857 14.4" fill="none" stroke-width="1.48" stroke-linecap="butt" stroke="#626262" transform="matrix(0 .51773 -.5087 .2937 480.122 -176.16)"/><path d="M27.008 49.69l52.48-47.184 10.587 5.387-53.11 47.548-9.957-5.75z" fill="#fff" stroke-width=".997" stroke="#626262"/><path d="M90.075 7.893v24.55l-53.11 30.663V55.44l53.11-47.547zM27.008 57.36c0 .008.235 4.755 5.76 6.06 1.985.47 4.133-.263 4.195-.312l.002-.002V55.44l-9.957-5.75v7.67z" fill="#fff" stroke-width=".997" stroke="#626262"/><g fill="#fff" stroke-width=".999" stroke="#626262"><path d="M36.964 55.54L90.06 7.803l10.71 5.45-53.73 48.104-10.076-5.817z"/><path d="M100.77 13.253V38.09L47.04 69.113v-7.755l53.73-48.104zM36.964 63.3c0 .007.24 4.81 5.83 6.13 2.006.474 4.18-.266 4.242-.316l.003-.002v-7.755L36.96 55.54v7.76z"/></g><g fill="#fff" stroke-width=".999" stroke="#626262"><path d="M47.66 60.96l53.097-47.738 10.71 5.45-53.73 48.104L47.66 60.96z"/><path d="M111.467 18.672V43.51l-53.73 31.02v-7.754l53.73-48.104zM47.66 68.72c.002.006.24 4.808 5.83 6.13 2.007.473 4.18-.267 4.243-.317l.003-.002V66.78L47.66 60.96v7.76z"/></g><g fill="#fff" stroke-width=".999" stroke="#626262"><path d="M58.04 66.915L111.667 18.7l10.817 5.506L68.216 72.79 58.04 66.914z"/><path d="M122.483 24.206V49.29L68.216 80.623V72.79l54.267-48.584zM58.04 74.75c.002.008.242 4.86 5.888 6.193 2.027.48 4.222-.27 4.285-.32h.003V72.79L58.04 66.913v7.836z"/></g><path d="M68.165 72.798l54.216-48.744 10.94 5.565-54.866 49.116-10.287-5.94zm65.152-43.178v25.36L78.452 86.658v-7.92l54.865-49.118zm-65.152 51.1c0 .008.244 4.912 5.952 6.26 2.05.485 4.27-.27 4.332-.32v-7.923l-10.287-5.94v7.924z" fill="#fff" stroke="#626262"/><path d="M60.278 101.123l14.006-8.086m19.25 8.086l-14.006-8.086" fill="none" stroke="#626262"/></svg>