<svg viewBox="0 0 600 594" xmlns="http://www.w3.org/2000/svg" fill-rule="evenodd" clip-rule="evenodd" stroke-linejoin="bevel" stroke-miterlimit="1.414"><path d="M103.924 959.72l207.846 120 207.846-120v-240l-207.846-120-207.846 120v240z" fill="#fff"/><path d="M311.77 1085.494L98.924 962.607V716.833L311.77 593.946l212.846 122.887v245.774L311.77 1085.494zm0-11.548l202.846-117.113V722.607L311.77 605.494 108.924 722.607v234.226l202.846 117.113zm-1.962-576.926L99.462 375.575V132.69L309.808 11.245 520.154 132.69v242.885L309.808 497.02zm0-5.774L515.154 372.69V135.575L309.808 17.02 104.462 135.575V372.69l205.346 118.555z" fill="#595959"/><path d="M309.808 499.906L96.962 377.02V131.245L309.808 8.358l212.846 122.885V377.02L309.808 499.905zm0-11.548l202.846-117.113V137.02L309.808 19.905 106.962 137.02v234.225l202.846 117.113z" fill="#595959"/><path d="M259.808 490v260" fill="none" stroke-width="5.42" stroke-dasharray="10.84,5.42,0,0" stroke="#595959" transform="matrix(1.00408 0 0 .83346 48.94 86.775)"/><path d="M259.808 490v260" fill="none" stroke-width="9.15" stroke-dasharray="18.3,9.15,0,0" stroke="#595959" transform="matrix(.6198 0 0 .46154 148.778 -332.02)"/><path d="M136.603 356.398L311.77 457.53l175.166-101.132V154.133L311.77 53 136.603 154.133v202.265z" fill="#fff"/><path d="M311.77 460.417L134.103 357.84V152.69L311.77 50.112 489.436 152.69v205.15L311.77 460.418zm0-5.773l172.666-99.69V155.576L311.77 55.886l-172.667 99.69v199.378l172.667 99.69z" fill="#595959"/><path d="M311.77 53v199.968" fill="none" stroke-width="4.996" stroke-linecap="square" stroke-linejoin="round" stroke="#595959"/><path d="M484.974 353L311.77 253S133.9 354.243 134.526 355.33" fill="none" stroke-width="5" stroke-linecap="square" stroke-linejoin="round" stroke="#595959"/><path d="M281.594 152.686l82.136 47.422 82.137-47.422V57.843L363.73 10.42l-82.136 47.423v94.843z" fill="#fff"/><path d="M363.73 202.994l-84.636-48.865V56.4L363.73 7.534 448.367 56.4v97.73l-84.637 48.864zm0-5.773l79.637-45.97V59.29L363.73 13.31l-79.636 45.978v91.957l79.636 45.978z" fill="#595959"/><path d="M231.39 793.593L311.77 840l79.85-46.102" fill="none" stroke-width="5.07" stroke-linecap="square" stroke-linejoin="round" stroke="#595959" transform="matrix(.98868 0 0 .9833 55.923 -722.983)"/><path d="M363.73 197.935V103" fill="none" stroke-width="5.003" stroke-linecap="square" stroke-linejoin="round" stroke="#595959"/><path d="M80.262 287.642l58.302 33.66 58.3-33.66v-67.32l-58.3-33.662-58.302 33.66v67.322z" fill="#fff"/><path d="M138.564 324.19l-60.802-35.105v-70.208l60.802-35.103 60.8 35.103v70.208l-60.8 35.104zm0-5.774l55.8-32.218v-64.434l-55.8-32.217-55.802 32.217v64.434l55.802 32.218z" fill="#595959"/><path d="M231.39 793.593L311.77 840l79.85-46.102" fill="none" stroke-width="7.14" stroke-linecap="square" stroke-linejoin="round" stroke="#595959" transform="matrix(.70178 0 0 .69797 -79.922 -333.92)"/><path d="M138.564 319.76v-67.386" fill="none" stroke-width="5" stroke-linecap="square" stroke-linejoin="round" stroke="#595959"/><path d="M377.623 440.917l38.07 21.98 38.068-21.98v-43.96L415.7 374.98l-38.07 21.972v43.96z" fill="#fff"/><path d="M415.692 465.783l-40.57-23.423v-46.845l40.57-23.423 40.57 23.423v46.845l-40.57 23.423zm0-5.774l35.57-20.54V398.4l-35.57-20.536-35.57 20.536v41.07l35.57 20.538z" fill="#595959"/><path d="M231.39 793.593L311.77 840l79.85-46.102" fill="none" stroke-width="10.94" stroke-linecap="square" stroke-linejoin="round" stroke="#595959" transform="matrix(.45824 0 0 .45575 273.028 35.055)"/><path d="M415.692 461.89v-44.002" fill="none" stroke-width="4.999" stroke-linecap="square" stroke-linejoin="round" stroke="#595959"/><path d="M250.774 303.962l58.302 33.66 58.3-33.66v-67.32l-58.3-33.66-58.302 33.66v67.32z" fill="#fff"/><path d="M309.076 340.51l-60.802-35.104v-70.208l60.802-35.104 60.8 35.104v70.208l-60.8 35.103zm0-5.774l55.8-32.217v-64.44l-55.8-32.22-55.802 32.22v64.43l55.802 32.214z" fill="#595959"/><path d="M231.39 793.593L311.77 840l79.85-46.102" fill="none" stroke-width="7.14" stroke-linecap="square" stroke-linejoin="round" stroke="#595959" transform="matrix(.70178 0 0 .69797 90.59 -317.6)"/><path d="M309.076 336.08v-67.386" fill="none" stroke-width="5" stroke-linecap="square" stroke-linejoin="round" stroke="#595959"/><path d="M333.422 329.523l35.002 20.208 35-20.2v-40.42l-35-20.21-35.002 20.21v40.42z" fill="#fff"/><path d="M368.424 352.617l-37.502-21.65v-43.304l37.502-21.652 37.5 21.66v43.306l-37.5 21.65zm0-5.773l32.5-18.765v-37.53l-32.5-18.77-32.502 18.76v37.53l32.502 18.763z" fill="#595959"/><path d="M231.39 793.593L311.77 840l79.85-46.102" fill="none" stroke-width="11.9" stroke-linecap="square" stroke-linejoin="round" stroke="#595959" transform="matrix(.4213 0 0 .41903 237.255 -43.634)"/><path d="M368.424 348.805V308.35" fill="none" stroke-width="5" stroke-linecap="square" stroke-linejoin="round" stroke="#595959"/><path d="M216.55 328.6l35.003 20.207 35-20.208v-40.42l-35-20.21-35.002 20.21v40.42z" fill="#fff"/><path d="M251.553 351.693l-37.502-21.65V286.74l37.51-21.654 37.5 21.652v43.302l-37.5 21.65zm0-5.773l32.5-18.765v-37.53l-32.5-18.764-32.502 18.77v37.53l32.51 18.77z" fill="#595959"/><path d="M231.39 793.593L311.77 840l79.85-46.102" fill="none" stroke-width="11.9" stroke-linecap="square" stroke-linejoin="round" stroke="#595959" transform="matrix(.4213 0 0 .41903 120.384 -44.558)"/><path d="M251.553 347.88v-40.455" fill="none" stroke-width="5" stroke-linecap="square" stroke-linejoin="round" stroke="#595959"/><path d="M389.366 340.472L408 351.23l18.63-10.758v-21.515L408 308.2l-18.634 10.757v21.515z" fill="#fff"/><path d="M408 354.117l-21.134-12.2v-24.403l21.133-12.2 21.13 12.2v24.402l-21.13 12.2zm0-5.774l16.13-9.314V320.4L408 311.086l-16.134 9.314v18.63L408 348.342z" fill="#595959"/><path d="M231.39 793.593L311.77 840l79.85-46.102" fill="none" stroke-width="22.35" stroke-linecap="square" stroke-linejoin="round" stroke="#595959" transform="matrix(.22428 0 0 .22306 338.173 141.827)"/><path d="M408 350.737V329.2" fill="none" stroke-width="5.001" stroke-linecap="square" stroke-linejoin="round" stroke="#595959"/><path d="M484.974 153l28.513-16.462" fill="none" stroke-width="5" stroke-linecap="square" stroke-linejoin="round" stroke="#595959"/><path d="M136.224 151.65l-29.652-17.12" fill="none" stroke-width="4.999" stroke-linecap="square" stroke-linejoin="round" stroke="#595959"/><path d="M196.906 340.472l18.633 10.758 18.63-10.758v-21.515L215.54 308.2l-18.634 10.757v21.515z" fill="#fff"/><path d="M215.54 354.117l-21.134-12.2v-24.403l21.133-12.2 21.13 12.2v24.402l-21.13 12.2zm0-5.774l16.13-9.314V320.4l-16.13-9.314-16.134 9.314v18.63l16.133 9.313z" fill="#595959"/><path d="M231.39 793.593L311.77 840l79.85-46.102" fill="none" stroke-width="22.35" stroke-linecap="square" stroke-linejoin="round" stroke="#595959" transform="matrix(.22428 0 0 .22306 145.713 141.827)"/><path d="M215.54 350.737V329.2" fill="none" stroke-width="5.001" stroke-linecap="square" stroke-linejoin="round" stroke="#595959"/></svg>