<svg viewBox="0 0 600 600" xmlns="http://www.w3.org/2000/svg" fill-rule="evenodd" clip-rule="evenodd" stroke-linecap="square" stroke-linejoin="round" stroke-miterlimit="1.414"><path d="M101.962 962.265l207.846 120 207.846-120v-240l-207.846-120-207.846 120v240z" fill="#fff"/><path d="M309.808 1085.152L99.462 963.708V720.822l210.346-121.444 210.346 121.444v242.886l-210.346 121.444zm0-5.774l205.346-118.556V723.708L309.808 605.152 104.462 723.708v237.114l205.346 118.556z" fill="#595959"/><ellipse cx="315.625" cy="1201.45" rx="38.497" ry="14.096" fill="none" stroke-width="5" stroke="#484848" transform="translate(-6 -1069.01)"/><path d="M309.808 484.02L99.462 362.575V119.69L309.808-1.755 520.154 119.69v242.885L309.808 484.02zm0-5.774L515.154 359.69V122.575L309.808 4.02 104.462 122.575V359.69l205.346 118.555z" fill="#595959"/><path d="M309.808 484.02L99.462 362.575V119.69L309.808-1.755 520.154 119.69v242.885L309.808 484.02zm0-5.774L515.154 359.69V122.575L309.808 4.02 104.462 122.575V359.69l205.346 118.555z" fill="#595959"/><path d="M259.808 490v260" fill="none" stroke-width="5.29" stroke-linecap="butt" stroke-linejoin="bevel" stroke-dasharray="10.58,5.29,0,0" stroke="#595959" transform="matrix(1.00408 0 0 .88302 48.94 49.487)"/><path d="M259.808 490v260" fill="none" stroke-width="4.67" stroke-linecap="butt" stroke-linejoin="bevel" stroke-dasharray="9.33,4.67,0,0" stroke="#595959" transform="matrix(1.11565 0 0 1.02544 19.954 -621.333)"/><path d="M311.77 480V240L103.922 120M311.77 240l207.845-120M311.77 240l207.845-120" fill="none" stroke-width="5" stroke="#595959"/></svg>