<svg xmlns="http://www.w3.org/2000/svg" xmlns:xlink="http://www.w3.org/1999/xlink" viewBox="0 0 300 300" fill-rule="evenodd" clip-rule="evenodd" stroke-linejoin="round" stroke-miterlimit="1.414"><circle cx="151.678" cy="150.183" r="71.393" transform="matrix(.71 0 0 .71 25.396 43.077)" fill="url(#a)"/><defs><linearGradient id="b"><stop offset="0" stop-color="#ffb41b"/><stop offset="1" stop-color="#ff8805"/></linearGradient><radialGradient xlink:href="#b" id="a" cx="151.678" cy="150.183" fx="151.678" fy="150.183" r="71.393" gradientUnits="userSpaceOnUse"/><linearGradient id="c"><stop offset="0" stop-color="#ffb41b"/><stop offset="1" stop-color="#ff8805"/></linearGradient><linearGradient id="d"><stop offset="0" stop-color="#ffb41b"/><stop offset="1" stop-color="#ff8805"/></linearGradient></defs><path d="M111.83 106.334c3.647-37.613 12.066-63.946 21.87-63.946 13.142 0 23.797 47.338 23.797 105.732 0 58.395-10.655 105.733-23.798 105.733-9.39 0-17.51-24.16-21.383-59.252" fill="none" stroke="#000" stroke-width=".948" stroke-dasharray="3.7903352, 3.7903352"/><path d="M177.888 122.174c3.6.528 7.082 1.115 10.437 1.758 29.398 5.633 48.893 15.516 48.893 26.765 0 17.522-47.296 31.727-105.64 31.727-58.342 0-105.64-14.205-105.64-31.727 0-12.96 25.875-24.104 62.955-29.03" fill="none" stroke="#000" stroke-width="1.047" stroke-dasharray="4.18749078, 4.18749078"/><path d="M150.09 99.914c32.575-17.828 60.49-23.38 69.347-11.8 12.052 15.756-15.753 57.27-62.104 92.724-46.352 35.453-93.697 51.42-105.75 35.664-8.816-11.527 3.698-36.84 29.2-63.48" fill="none" stroke="#000" stroke-width="1.024" stroke-dasharray="4.09501797, 4.09501797"/></svg>