<svg viewBox="0 0 300 300" xmlns="http://www.w3.org/2000/svg" fill-rule="evenodd" clip-rule="evenodd" stroke-linejoin="round" stroke-miterlimit="1.414"><circle cx="151.678" cy="150.183" r="71.393" fill="#525252" transform="translate(-37.51 -45.73) scale(1.247)"/><path d="M208.903 177.55c-.487.286-.975.57-1.462.857-2.38 1.364-4.8 2.67-7.25 3.886-5.234 2.596-10.64 4.824-16.165 6.615-6.244 2.022-12.647 3.484-19.13 4.324-3.465.45-6.95.707-10.437.807l-2.365.03c-3.934-.01-7.866-.22-11.78-.67-9.467-1.1-18.797-3.53-27.663-7.22-4.084-1.7-8.08-3.66-11.908-5.94-1-.594-1.986-1.21-2.956-1.857-.324-.218-.65-.44-.97-.67-.175-.12-.367-.244-.516-.4-.114-.12-.204-.26-.268-.414l-.015-.04v-.007l-.002-.006v-.005c-.01-.023-.017-.045-.024-.07-.036-.11-.05-.176-.054-.252-.006-.052-.008-.103-.008-.152l-.003-.037c.008-.586.02-1.176.033-1.766.1-3.707.31-7.41.674-11.097.69-7 1.898-13.94 3.668-20.72 2.02-7.734 4.772-15.25 8.248-22.375 3.965-8.12 8.86-15.72 14.54-22.594 5.866-7.1 12.56-13.46 19.91-18.784 2.01-1.453 4.067-2.837 6.186-4.1.674-.4 1.348-.79 2.03-1.166.214-.117.414-.22.624-.33.154-.08.313-.175.477-.238l.014-.008.007-.003.03-.01c.007-.004.015-.004.02-.007l.005-.003h.004l.008-.003.005-.003h.006l.005-.002.007-.003h.013l.004-.005h.008l.01-.002h.006l.005-.004.005-.005h.006l.005-.004h.01l.002-.002h.02l.006-.004h.014l.006-.005h.005l.008-.004h.035l.007-.002h.01l.015-.002h.06l.002-.003h.12c.032 0 .062.004.09.01h.02c.1.016.2.043.293.084.034.014.065.03.095.046.016.007.03.015.047.026l.048.023c.478.303.956.61 1.43.915 3.2 2.09 6.334 4.297 9.366 6.658 5.88 4.58 11.39 9.7 16.38 15.345 5.637 6.37 10.603 13.4 14.736 20.956 5.105 9.33 8.93 19.425 11.362 29.89 1.015 4.377 1.79 8.815 2.305 13.29.398 3.444.644 6.912.703 10.386.028 1.53.017 3.065-.052 4.595l-.04.736c-.013.216-.015.44-.064.65l-.004.02-.003.016-.003.01-.002.005v.01l-.005.01-.01.03c-.077.24-.216.455-.398.615-.01.007-.02.012-.027.02-.053.044-.11.084-.17.12z" fill="#FFBD4B"/><path d="M202.076 172.746c-.044.036-.09.07-.14.1-.427.25-.854.5-1.28.746-2.088 1.195-4.2 2.337-6.35 3.4-4.58 2.273-9.307 4.223-14.146 5.79-5.462 1.77-11.067 3.048-16.737 3.783-3.034.392-6.08.62-9.135.706-.69.02-1.38.03-2.07.03-3.444 0-6.884-.19-10.31-.58-8.28-.96-16.447-3.085-24.202-6.312-3.575-1.487-7.07-3.203-10.42-5.194-.874-.52-1.737-1.06-2.586-1.624-.287-.19-.57-.387-.85-.586-.154-.11-.323-.214-.453-.353-.018-.02-.035-.04-.05-.06l49.224-28.416 49.51 28.58zM152.95 81.45c.086.014-.03-.003-.03-.003h.012l.017.004z" fill="#F5A517"/><path d="M103.28 172.466l-.002-.087-.003-.04c.008-.516.018-1.03.03-1.548.087-3.245.27-6.484.59-9.71.603-6.123 1.66-12.197 3.207-18.13 1.766-6.765 4.175-13.34 7.218-19.577 3.466-7.104 7.75-13.754 12.72-19.77 5.134-6.21 10.99-11.775 17.422-16.435 1.757-1.272 3.558-2.484 5.413-3.59.587-.35 1.18-.69 1.777-1.02.183-.1.36-.192.543-.29l.207-.107V144.1l-49.122 28.36z" fill="#F9B133"/><path d="M201.733 172.466l.003-.087.003-.04-.03-1.548c-.09-3.245-.28-6.484-.6-9.71-.603-6.123-1.658-12.197-3.207-18.13-1.766-6.765-4.175-13.34-7.217-19.577-3.467-7.104-7.75-13.754-12.72-19.77-5.13-6.21-10.988-11.775-17.42-16.435-1.76-1.272-3.56-2.484-5.415-3.59-.586-.35-1.177-.69-1.776-1.02-.18-.1-.36-.192-.54-.29l-.21-.107V144.1l49.12 28.36z" fill="#E89C0C"/><path d="M173.448 165.437l-.57.315c-.93.502-1.872.982-2.83 1.43-2.04.955-4.146 1.775-6.3 2.434-2.435.744-4.93 1.282-7.458 1.59-1.35.166-2.71.26-4.07.298-.307.006-.614.01-.92.012-1.535-.002-3.068-.08-4.594-.247-3.69-.41-7.327-1.3-10.783-2.66-1.592-.63-3.15-1.35-4.642-2.19-.38-.22-.77-.445-1.15-.683l-.38-.246c-.06-.044-.14-.09-.2-.147-.04-.045-.08-.097-.1-.153l-.003-.014v-.004l-.01-.027c-.014-.04-.02-.065-.02-.093-.003-.018-.004-.037-.004-.055v-.014c0-.218.007-.435.01-.65.04-1.366.12-2.728.265-4.085.27-2.574.74-5.13 1.43-7.623.787-2.844 1.86-5.61 3.215-8.23 1.543-2.99 3.45-5.785 5.666-8.315 2.285-2.612 4.894-4.952 7.76-6.912.783-.535 1.585-1.044 2.41-1.51.26-.146.525-.29.79-.428l.244-.12c.06-.03.12-.065.187-.088l.006-.002.014-.005h.02l.004-.002h.006l.002-.002h.043l.004-.003h.005l.005-.003h.013l.006-.002h.073c.012 0 .024.002.035.004h.007c.04.006.08.016.116.03l.036.018.02.01.02.01c.184.11.37.223.555.336 1.248.77 2.47 1.58 3.65 2.45 2.29 1.684 4.44 3.568 6.387 5.645 2.197 2.344 4.133 4.93 5.744 7.71 1.99 3.432 3.48 7.147 4.43 10.998.395 1.61.697 3.25.898 4.89.158 1.27.25 2.55.277 3.83.01.562.008 1.127-.02 1.69l-.015.27c-.004.08-.005.162-.024.24l-.004.006v.005l-.002.003v.007l-.006.01c-.03.09-.086.168-.157.227l-.01.007c-.02.015-.04.03-.064.043z" fill="url(#a)" transform="translate(-47.165 -59.117) scale(1.333)"/><defs><radialGradient id="a" cx="0" cy="0" r="1" gradientUnits="userSpaceOnUse" gradientTransform="rotate(-35 314.364 -159.837) scale(36.41)"><stop offset="0%" stop-color="#FFA300"/><stop offset="100%" stop-color="#FF6E00"/></radialGradient></defs></svg>