<svg viewBox="0 0 300 300" xmlns="http://www.w3.org/2000/svg" fill-rule="evenodd" clip-rule="evenodd" stroke-linejoin="round" stroke-miterlimit="1.414"><path d="M149.39 68.75l-8.66 5 86.602 50 8.66-5-86.602-50z" fill="#EAEAEA"/><path d="M149.39 68.75l8.66 5-86.603 50-8.66-5 86.602-50z" fill="#EAEAEA"/><path d="M132.07 63.75l17.32 10 17.32-10-17.32-10-17.32 10z" fill="#FABD53"/><path d="M149.39 73.75v20l-17.32-10v-20l17.32 10z" fill="#FBB12E"/><path d="M149.39 73.75v20l17.32-10v-20l-17.32 10z" fill="#F0A41D"/><path d="M149.39 78.358l17.32 10 17.32-10-17.32-10-17.32 10z" fill="#FABD53"/><path d="M166.71 88.358v20l-17.32-10v-20l17.32 10z" fill="#FBB12E"/><path d="M166.71 88.358v20l17.32-10v-20l-17.32 10z" fill="#F0A41D"/><path d="M114.688 78.358l17.32 10 17.32-10-17.32-10-17.32 10z" fill="#FABD53"/><path d="M132.008 88.358v20l-17.32-10v-20l17.32 10z" fill="#FBB12E"/><path d="M132.008 88.358v20l17.32-10v-20l-17.32 10z" fill="#F0A41D"/><path d="M132.07 93.75l17.32 10 17.32-10-17.32-10-17.32 10z" fill="#FABD53"/><path d="M149.39 103.75v20l-17.32-10v-20l17.32 10z" fill="#FBB12E"/><path d="M149.39 103.75v20l17.32-10v-20l-17.32 10z" fill="#F0A41D"/><path d="M166.71 93.722l17.32 10 17.32-10-17.32-10-17.32 10z" fill="#FABD53"/><path d="M184.03 103.722v20l-17.32-10v-20l17.32 10z" fill="#FBB12E"/><path d="M184.03 103.722v20l17.322-10v-20l-17.32 10z" fill="#F0A41D"/><path d="M149.343 109.725l17.32 10 17.32-10-17.32-10-17.32 10z" fill="#FABD53"/><path d="M166.664 119.725v20l-17.32-10v-20l17.32 10z" fill="#FBB12E"/><path d="M166.664 119.725v20l17.32-10v-20l-17.32 10z" fill="#F0A41D"/><path d="M184.03 110.588l17.32 10 17.32-10-17.32-10-17.32 10z" fill="#FABD53"/><path d="M201.35 120.588v20l-17.32-10v-20l17.32 10z" fill="#FBB12E"/><path d="M201.35 120.588v20l17.322-10v-20l-17.32 10z" fill="#F0A41D"/><path d="M166.63 128.05l17.322 10 17.32-10-17.32-10-17.32 10z" fill="#FABD53"/><path d="M183.952 138.05v20l-17.32-10v-20l17.32 10z" fill="#FBB12E"/><path d="M183.952 138.05v20l17.32-10v-20l-17.32 10z" fill="#F0A41D"/><path d="M97.38 93.722l17.32 10 17.32-10-17.32-10-17.32 10z" fill="#FABD53"/><path d="M114.7 103.722v20l-17.32-10v-20l17.32 10z" fill="#FBB12E"/><path d="M114.7 103.722v20l17.322-10v-20l-17.32 10z" fill="#F0A41D"/><path d="M114.734 109.92l17.32 10 17.32-10-17.32-10-17.32 10z" fill="#FABD53"/><path d="M132.055 119.92v20l-17.32-10v-20l17.32 10z" fill="#FBB12E"/><path d="M132.055 119.92v20l17.32-10v-20l-17.32 10z" fill="#F0A41D"/><path d="M132.07 128.05l17.32 10 17.32-10-17.32-10-17.32 10z" fill="#FABD53"/><path d="M149.39 138.05v20l-17.32-10v-20l17.32 10z" fill="#FBB12E"/><path d="M149.39 138.05v20l17.32-10v-20l-17.32 10z" fill="#F0A41D"/><path d="M149.39 145.987l17.32 10 17.32-10-17.32-10-17.32 10z" fill="#FABD53"/><path d="M166.71 155.987v20l-17.32-10v-20l17.32 10z" fill="#FBB12E"/><path d="M166.71 155.987v20l17.32-10v-20l-17.32 10z" fill="#F0A41D"/><path d="M80.107 110.588l17.32 10 17.32-10-17.32-10-17.32 10z" fill="#FABD53"/><path d="M97.428 120.588v20l-17.32-10v-20l17.32 10z" fill="#FBB12E"/><path d="M97.428 120.588v20l17.32-10v-20l-17.32 10z" fill="#F0A41D"/><path d="M97.428 128.05l17.32 10 17.32-10-17.32-10-17.32 10z" fill="#FABD53"/><path d="M114.748 138.05v20l-17.32-10v-20l17.32 10z" fill="#FBB12E"/><path d="M114.75 138.05v20l17.32-10v-20l-17.32 10z" fill="#F0A41D"/><path d="M115.204 145.987l17.32 10 17.32-10-17.32-10-17.32 10z" fill="#FABD53"/><path d="M132.524 155.987v20l-17.32-10v-20l17.32 10z" fill="#FBB12E"/><path d="M132.524 155.987v20l17.32-10v-20l-17.32 10z" fill="#F0A41D"/><g><path d="M132.07 161.25l17.32 10 17.32-10-17.32-10-17.32 10z" fill="#FABD53"/><path d="M149.39 171.25v20l-17.32-10v-20l17.32 10z" fill="#FBB12E"/><path d="M149.39 171.25v20l17.32-10v-20l-17.32 10z" fill="#F0A41D"/></g><g><path d="M62.787 200.395l86.602 50V168.75l-86.606-50v81.645z" fill="#D3D3D3"/><path d="M235.096 200.732l-85.706 49.483V168.75l85.706-49.482v81.464z" fill="#C5C5C5"/><path d="M149.39 168.75l8.66-5-86.603-50-8.66 5 86.602 50z" fill="#EAEAEA"/><path d="M149.39 168.75l-8.66-5 86.602-50 8.66 5-86.602 50z" fill="#EAEAEA"/></g></svg>