<?xml version="1.0" standalone="no"?>
<!DOCTYPE svg PUBLIC "-//W3C//DTD SVG 1.1//EN" "http://www.w3.org/Graphics/SVG/1.1/DTD/svg11.dtd">
<svg width="100%" height="100%" viewBox="0 0 600 600" version="1.1" xmlns="http://www.w3.org/2000/svg" xmlns:xlink="http://www.w3.org/1999/xlink" xml:space="preserve" style="fill-rule:evenodd;clip-rule:evenodd;stroke-linejoin:bevel;stroke-miterlimit:1.41421;">
    <g id="Layer1" transform="matrix(1,0,0,1,-200,600)">
        <g transform="matrix(1,0,0,1,250,11.1325)">
            <path d="M259.808,472.887L49.462,351.443L49.462,108.557L259.808,-12.887L470.154,108.557L470.154,351.443L259.808,472.887ZM259.808,467.113L465.154,348.557L465.154,111.443L259.808,-7.113L54.462,111.443L54.462,348.557L259.808,467.113Z" style="fill:rgb(89,89,89);"/>
        </g>
        <g transform="matrix(1,0,0,1,250,11.1325)">
            <path d="M259.808,475.773L46.962,352.887L46.962,107.113L259.808,-15.773L472.654,107.113L472.654,352.887L259.808,475.773ZM259.808,464.226L462.654,347.113L462.654,112.887L259.808,-4.226L56.962,112.887L56.962,347.113L259.808,464.226Z" style="fill:rgb(89,89,89);"/>
        </g>
        <g transform="matrix(1,0,0,1,250,-588.868)">
            <path d="M259.808,472.887L49.462,351.443L49.462,108.557L259.808,-12.887L470.154,108.557L470.154,351.443L259.808,472.887ZM259.808,467.113L465.154,348.557L465.154,111.443L259.808,-7.113L54.462,111.443L54.462,348.557L259.808,467.113Z" style="fill:rgb(89,89,89);"/>
        </g>
        <g transform="matrix(0.619803,0,0,0.461538,348.778,-345.021)">
            <path d="M259.808,490L259.808,750" style="fill:none;stroke-width:9.15px;stroke-dasharray:18.3,9.15,0,0;stroke:rgb(89,89,89);"/>
        </g>
        <g transform="matrix(1,0,0,1,200,-1100)">
            <path d="M311.769,980L311.769,740L103.923,620" style="fill:none;stroke-width:5px;stroke-linecap:square;stroke-linejoin:round;stroke:rgb(89,89,89);"/>
        </g>
        <g transform="matrix(1,0,0,1,200,-1100)">
            <path d="M311.769,740L519.615,620" style="fill:none;stroke-width:5px;stroke-linecap:square;stroke-linejoin:round;stroke:rgb(89,89,89);"/>
        </g>
        <g transform="matrix(0.39518,0,0,0.39518,461.06,1.37346)">
            <g>
                <g>
                    <path d="M51.962,350L259.808,470L467.654,350L467.654,110L259.808,-10L51.962,110L51.962,350Z" style="fill:white;"/>
                    <path d="M259.808,477.305L45.635,353.652L45.635,106.348L259.808,-17.305L473.98,106.348L473.98,353.652L259.808,477.305ZM259.808,462.695L461.327,346.348L461.327,113.652L259.808,-2.695L58.288,113.652L58.288,346.348L259.808,462.695Z" style="fill:rgb(89,89,89);"/>
                </g>
            </g>
        </g>
    </g>
</svg>
