<svg viewBox="0 0 600 600" xmlns="http://www.w3.org/2000/svg" fill-rule="evenodd" clip-rule="evenodd" stroke-linejoin="bevel" stroke-miterlimit="1.414"><path d="M309.808 1084.02L99.462 962.576V719.69l210.346-121.444L520.154 719.69v242.886L309.808 1084.02zm0-5.774L515.154 959.69V722.573L309.808 604.02 104.462 722.574V959.69l205.346 118.555z" fill="#595959"/><path d="M309.808 1084.02L99.462 962.576V719.69l210.346-121.444L520.154 719.69v242.886L309.808 1084.02zm0-5.774L515.154 959.69V722.573L309.808 604.02 104.462 722.574V959.69l205.346 118.555zm0-594.226L99.462 362.574V119.69L309.808-1.756 520.154 119.69v242.885L309.808 484.02zm0-5.775L515.154 359.69V122.574L309.808 4.02 104.462 122.574V359.69l205.346 118.555z" fill="#595959"/><path d="M259.808 490v260" fill="none" stroke-width="4.67" stroke-dasharray="9.33,4.67,0,0" stroke="#595959" transform="matrix(1.11565 0 0 1.02544 19.954 -21.333)"/><path d="M311.77 480V240L103.922 120M311.77 240l207.845-120" fill="none" stroke-width="5" stroke-linecap="square" stroke-linejoin="round" stroke="#595959"/></svg>