<svg viewBox="0 0 600 594" xmlns="http://www.w3.org/2000/svg" fill-rule="evenodd" clip-rule="evenodd" stroke-linejoin="bevel" stroke-miterlimit="1.414"><path d="M309.808 1086.906L96.962 964.02V718.246L309.808 595.36l212.846 122.886V964.02l-212.846 122.886zm0-11.547l202.846-117.116V724.02L309.808 606.907 106.962 724.02v234.226l202.846 117.113zm1.962-583.58L98.924 368.892V123.12L311.77.23l212.846 122.89v245.773L311.77 491.78zm0-11.548L514.616 363.12V128.892L311.77 11.78 108.924 128.893V363.12L311.77 480.232z" fill="#595959"/><path d="M259.808 490v260" fill="none" stroke-width="9.15" stroke-dasharray="18.3,9.15,0,0" stroke="#595959" transform="matrix(.6198 0 0 .46154 148.778 254.98)"/><path d="M311.77 980V740L103.922 626.93" fill="none" stroke-width="5.09" stroke-linecap="square" stroke-linejoin="round" stroke="#595959" transform="matrix(-.9741 0 0 -.99136 620.845 988.425)"/><path d="M311.77 740l207.845-120" fill="none" stroke-width="5.28" stroke-linecap="square" stroke-linejoin="round" stroke="#595959" transform="matrix(-.97633 0 0 -.91547 616.16 930.434)"/><path d="M281.594 739.686l82.137 47.422 82.14-47.422v-94.843l-82.137-47.42-82.136 47.42v94.843z" fill="#fff"/><path d="M363.73 789.995l-84.636-48.865V643.4l84.637-48.865 84.64 48.865v97.73l-84.636 48.865zm0-5.774l79.637-45.975v-91.957L363.73 600.31l-79.635 45.977v91.957l79.637 45.978z" fill="#595959"/><path d="M133.707 382.803L346.41 260M168.348 402.803L381.05 280M200.02 424.517l212.702-122.803m-180.196 144.6L445.228 323.51M269.41 465.312l209.415-120.906m3.285 38.397L269.41 260m178.06 142.803L234.77 280M415.8 424.517L210.65 306.075m172.643 140.24l-205.84-118.843" fill="none" stroke-width="2" stroke-linejoin="miter" stroke-miterlimit="10" stroke="#595959"/><path d="M133.707 382.804L346.41 260" fill="none" stroke-width="2.05" stroke-linejoin="miter" stroke-miterlimit="10" stroke="#595959" transform="matrix(-.97716 0 0 .97307 477.064 92.82)"/><path d="M279.58 25.044V270.65M244.94 45.044V290.65M210.3 61.615l-.002 245.607m-35.13-228.355v245.608M140.273 101.31v245.607m-34.895-20.147L318.08 203.967M105.378 286.77L318.08 163.968m-215.67 84.517l205.147-118.442M99.784 209.435L315.16 85.088" fill="none" stroke-width="2" stroke-linejoin="miter" stroke-miterlimit="10" stroke="#595959"/><path d="M133.707 382.804l220.89-127.55" fill="none" stroke-width="2.05" stroke-linejoin="miter" stroke-miterlimit="10" stroke="#595959" transform="matrix(.48858 -.84625 -.8427 -.48653 359.036 467.392)"/><path d="M354.427 26.09v245.607m34.64-225.607v245.607M423.71 71.783V312.45m35.13-220.333V332.51m34.893-223.292v243m28.197-28.268L315.926 205.012m203.69 77.6l-203.69-117.6m203.688 77.6L326.45 131.09m193.164 70.958L318.846 86.134" fill="none" stroke-width="2" stroke-linejoin="miter" stroke-miterlimit="10" stroke="#595959"/><path d="M147.067 375.576l207.53-120.322" fill="none" stroke-width="2.05" stroke-linejoin="miter" stroke-miterlimit="10" stroke="#595959" transform="matrix(-.48858 -.84625 .8427 -.48653 274.97 468.438)"/><path d="M436.076 245c0-65.248-52.893-118.14-118.14-118.14-65.246 0-118.14 52.892-118.14 118.14 0 65.247 52.894 118.14 118.14 118.14 65.247 0 118.14-52.893 118.14-118.14" fill="#fff" fill-rule="nonzero"/><path d="M316.665 364.64h-.39l-.39-.002-.39-.004-.39-.005-.388-.008-.388-.007-.39-.007-.39-.01-.388-.01-.387-.013-.387-.012-.39-.014-.386-.016-.385-.017-.386-.018-.385-.02-.386-.02-.387-.02-.385-.024-.383-.025-.384-.025-.383-.026-.385-.03-.383-.026-.383-.032-.382-.03-.383-.032-.38-.032-.382-.036-.382-.035-.38-.037-.38-.038-.38-.04-.38-.04-.38-.04-.377-.044-.377-.044-.38-.046-.377-.047-.377-.044-.377-.047-.377-.05-.378-.053-.377-.05-.374-.054-.374-.055-.376-.054-.375-.057-.372-.057-.375-.06-.373-.06-.374-.06-.37-.064-.375-.064-.37-.065-.372-.064-.372-.067-.37-.07-.37-.07-.37-.068-.37-.072-.37-.072-.367-.074-.368-.074-.37-.076-.367-.078-.366-.08-.368-.078-.366-.08-.368-.082-.365-.082-.367-.083-.362-.085-.365-.086-.364-.087-.364-.09-.363-.09-.363-.09-.362-.09-.36-.093-.362-.094-.362-.095-.36-.095-.36-.1-.357-.098-.36-.098-.358-.1-.358-.1-.357-.103-.357-.104-.356-.105-.358-.105-.358-.106-.356-.11-.354-.107-.355-.11-.353-.11-.353-.112-.352-.112-.35-.114-.355-.115-.35-.117-.352-.116-.35-.117-.35-.12-.35-.118-.348-.123-.35-.122-.347-.124-.348-.123-.348-.125-.35-.126-.345-.128-.345-.13-.345-.128-.344-.13-.342-.132-.346-.132-.34-.135-.343-.134-.344-.135-.342-.135-.34-.138-.34-.14-.342-.14-.34-.14-.34-.14-.337-.144-.34-.143-.336-.143-.338-.146-.336-.144-.337-.148-.336-.148-.334-.15-.335-.15-.333-.153-.332-.152-.334-.154-.332-.152-.33-.156-.333-.156-.33-.156-.33-.158-.33-.16-.33-.16-.325-.16-.327-.163-.33-.165-.324-.164-.327-.165-.325-.167-.324-.167-.324-.166-.325-.17-.32-.17-.326-.17-.322-.17-.32-.175-.32-.174-.32-.173-.32-.176-.32-.177-.32-.177-.315-.18-.32-.178-.315-.18-.317-.18-.314-.184-.316-.18-.315-.184-.315-.184-.313-.185-.313-.188-.313-.188-.31-.187-.31-.19-.31-.19-.31-.19-.31-.194-.308-.193-.307-.193-.307-.196-.307-.195-.306-.197-.305-.197-.307-.2-.304-.2-.3-.2-.305-.2-.303-.203-.3-.203-.3-.203-.303-.204-.297-.206-.3-.207-.296-.206-.298-.208-.298-.21-.297-.21-.296-.21-.294-.214-.294-.21-.294-.214-.294-.216-.29-.213-.293-.217-.29-.216-.29-.216-.29-.22-.29-.22-.285-.22-.288-.22-.287-.22-.286-.223-.286-.222-.284-.224-.284-.225-.284-.23-.282-.224-.28-.23-.282-.226-.28-.23-.28-.23-.278-.23-.28-.233-.276-.232-.277-.234-.275-.232-.275-.236-.275-.234-.276-.236-.274-.236-.274-.24-.27-.237-.27-.24-.272-.243-.27-.24-.267-.243-.268-.243-.27-.245-.266-.244-.267-.243-.265-.246-.266-.246-.264-.248-.263-.248-.26-.25-.263-.25-.26-.25-.26-.253-.26-.25-.26-.254-.257-.254-.256-.254-.257-.253-.256-.257-.253-.257-.254-.257-.252-.26-.253-.26-.25-.26-.252-.26-.25-.26-.25-.263-.247-.263-.246-.262-.248-.265-.246-.265-.246-.267-.244-.266-.243-.267-.244-.27-.24-.267-.246-.27-.242-.27-.24-.27-.238-.273-.237-.272-.238-.272-.238-.273-.236-.276-.234-.276-.234-.277-.235-.276-.232-.277-.23-.278-.23-.28-.23-.28-.23-.28-.23-.282-.226-.282-.227-.28-.226-.285-.224-.282-.224-.285-.224-.286-.224-.287-.22-.284-.22-.29-.222-.29-.218-.284-.22-.29-.215-.29-.217-.29-.217-.29-.214-.294-.213-.29-.215-.294-.214-.294-.21-.297-.21-.294-.21-.296-.21-.298-.207-.297-.208-.3-.206-.298-.206-.3-.206-.298-.204-.3-.202-.302-.203-.302-.2-.302-.2-.302-.2-.305-.198-.304-.198-.306-.197-.304-.196-.306-.194-.307-.194-.308-.193-.31-.19-.307-.195-.31-.188-.31-.19-.313-.188-.312-.19-.31-.185-.314-.185-.312-.185-.314-.184-.315-.182-.315-.182-.315-.18-.315-.18-.317-.18-.316-.178-.316-.178-.318-.177-.318-.175-.32-.176-.32-.174-.322-.172-.322-.17-.322-.17-.32-.17-.324-.17-.323-.17-.326-.166-.326-.165-.325-.166-.326-.167-.327-.163-.327-.162-.328-.16-.327-.162-.33-.158-.33-.16-.33-.157-.33-.154-.33-.154-.332-.154-.33-.152-.333-.153-.334-.15-.335-.15-.336-.15-.335-.148-.336-.148-.336-.146-.337-.145-.338-.145-.338-.144-.337-.14-.34-.143-.337-.14-.34-.14-.34-.138-.34-.138-.342-.136-.34-.134-.343-.134-.344-.134-.343-.133-.343-.13-.344-.13-.344-.132-.347-.126-.347-.128-.346-.128-.346-.127-.347-.123-.347-.122-.35-.122-.35-.122-.347-.12-.35-.12-.35-.118-.35-.117-.35-.116-.355-.115-.35-.116-.354-.113-.354-.11-.35-.11-.356-.11-.354-.11-.356-.107-.356-.106-.354-.105-.358-.104-.356-.103-.358-.102-.356-.1-.36-.1-.358-.1-.36-.1-.36-.094-.358-.096-.36-.094-.36-.094-.363-.093-.36-.09-.362-.09-.362-.09-.363-.088-.365-.088-.365-.086-.362-.084-.365-.084-.366-.083-.365-.08-.366-.083-.366-.08-.368-.076-.367-.08-.37-.073-.367-.074-.37-.074-.367-.075-.37-.072-.37-.07-.37-.07-.37-.066-.37-.067-.372-.068-.37-.063-.372-.066-.374-.062-.372-.062-.373-.06-.374-.057-.376-.06-.372-.056-.376-.055-.375-.053-.375-.055-.374-.054-.377-.05-.377-.05-.376-.047-.376-.048-.377-.046-.38-.045-.376-.043-.38-.043-.376-.04-.38-.044-.378-.04-.38-.037-.38-.037-.383-.036-.38-.035-.382-.032-.38-.03-.383-.03-.38-.03-.383-.03-.384-.028-.384-.025-.384-.024-.385-.023-.383-.022-.384-.023-.385-.02-.385-.018-.385-.02-.385-.014-.388-.016-.385-.013-.387-.013-.387-.01-.387-.01-.39-.01-.386-.01-.39-.005-.388-.005-.39-.004-.388-.004-.39v-1.56l.004-.39.003-.39.003-.388.007-.39.01-.388.01-.387.01-.386.01-.39.015-.386.014-.385.014-.388.015-.388.02-.386.017-.385.02-.386.022-.386.02-.385.025-.387.025-.385.027-.383.028-.384.03-.38.03-.384.03-.382.033-.38.033-.383.037-.38.036-.38.036-.38.037-.382.04-.378.04-.382.042-.38.042-.378.044-.38.045-.377.047-.378.048-.38.048-.375.05-.376.05-.376.054-.377.053-.374.052-.375.055-.374.057-.375.06-.372.057-.375.06-.375.064-.37.062-.375.064-.373.062-.372.068-.37.068-.37.067-.373.07-.37.07-.37.07-.37.074-.37.07-.368.075-.368.075-.37.08-.368.076-.368.08-.366.08-.367.08-.366.084-.365.085-.366.084-.364.083-.366.088-.363.09-.363.09-.363.09-.36.09-.364.093-.36.094-.364.095-.36.095-.36.096-.36.098-.36.1-.36.1-.357.1-.36.104-.358.103-.358.105-.357.105-.356.106-.355.107-.355.11-.354.11-.354.11-.355.113-.35.113-.354.114-.353.114-.352.115-.35.114-.35.12-.352.118-.35.12-.35.122-.35.122-.35.123-.347.123-.348.126-.348.126-.347.128-.347.127-.345.13-.346.13-.345.133-.344.133-.343.134-.343.136-.344.136-.34.137-.342.136-.34.137-.342.14-.34.14-.34.143-.34.14-.337.146-.34.146-.337.145-.338.146-.335.15-.336.146-.336.15-.335.15-.335.15-.334.154-.332.154-.334.156-.332.155-.33.157-.332.158-.33.16-.33.157-.33.162-.328.16-.33.16-.327.163-.328.164-.327.165-.325.164-.324.167-.326.17-.324.17-.323.17-.322.17-.32.17-.322.173-.322.174-.32.177-.322.175-.318.176-.32.178-.318.178-.318.18-.318.18-.316.18-.316.182-.315.184-.315.183-.315.185-.313.185-.313.186-.315.186-.31.19-.313.188-.31.19-.31.192-.308.19-.31.194-.308.195-.308.195-.307.196-.305.196-.306.197-.305.196-.304.2-.303.2-.305.2-.3.203-.303.202-.3.204-.303.205-.3.205-.298.206-.3.21-.3.207-.295.21-.298.21-.296.208-.293.212-.294.213-.295.214-.295.213-.292.215-.29.218-.29.215-.29.218-.29.22-.29.218-.288.22-.29.225-.287.22-.285.224-.285.223-.286.224-.285.225-.284.227-.284.226-.282.227-.282.23-.28.228-.28.23-.28.233-.28.232-.276.232-.28.234-.274.235-.277.234-.276.235-.276.237-.274.237-.272.236-.272.24-.272.238-.27.24-.27.244-.27.24-.27.245-.266.244-.268.244-.267.247-.266.246-.267.248-.263.248-.265.25-.262.25-.264.248-.26.25-.26.252-.26.253-.26.254-.26.256-.257.256-.258.254-.255.257-.257.256-.253.257-.253.26-.254.26-.25.26-.252.26-.25.262-.253.26-.246.263-.25.264-.25.264-.246.264-.246.264-.247.267-.243.27-.245.267-.243.268-.243.27-.24.27-.242.27-.24.272-.238.274-.24.27-.237.277-.236.273-.235.274-.237.277-.233.28-.232.276-.233.278-.23.278-.23.28-.23.28-.23.283-.23.28-.226.282-.227.284-.227.284-.224.284-.225.286-.223.285-.222.286-.222.288-.22.287-.22.29-.22.29-.22.29-.215.29-.216.29-.216.29-.215.295-.215.293-.214.294-.21.295-.212.297-.21.296-.21.296-.21.297-.21.298-.206.3-.207.298-.205.302-.204.3-.206.3-.203.304-.2.304-.203.3-.2.304-.2.305-.197.305-.197.304-.196.306-.196.308-.192.306-.195.308-.19.31-.193.31-.19.31-.192.31-.19.31-.187.31-.188.315-.187.312-.186.313-.185.315-.184.315-.182.313-.183.317-.18.316-.18.32-.18.316-.18.32-.176.32-.178.32-.176.32-.173.32-.173.32-.172.324-.172.324-.17.32-.17.326-.17.324-.168.325-.167.324-.167.327-.164.326-.164.328-.163.327-.16.33-.16.33-.16.327-.16.33-.16.33-.158.334-.157.33-.155.334-.154.334-.153.333-.153.334-.152.336-.152.335-.15.335-.147.337-.15.335-.147.337-.147.336-.144.34-.143.335-.143.34-.14.34-.142.34-.14.34-.14.343-.136.342-.137.342-.136.342-.134.34-.135.346-.134.344-.13.344-.132.346-.13.345-.128.345-.127.348-.126.347-.125.347-.125.347-.124.35-.12.35-.12.347-.123.35-.12.352-.117.35-.116.35-.116.354-.115.35-.114.353-.114.353-.112.354-.11.356-.11.354-.108.356-.11.356-.105.357-.103.354-.104.358-.103.357-.104.357-.102.357-.1.36-.096.36-.098.36-.1.358-.095.362-.094.36-.092.362-.093.362-.09.363-.09.363-.09.363-.09.363-.084.365-.086.363-.085.37-.086.363-.083.367-.08.364-.082.367-.078.368-.08.368-.075.37-.076.367-.074.368-.074.37-.07.37-.07.37-.072.37-.07.37-.068.373-.067.372-.064.37-.065.375-.063.37-.062.373-.06.373-.06.375-.06.375-.057.375-.056.375-.055.375-.056.376-.053.376-.052.377-.052.374-.048.377-.05.378-.046.377-.048.38-.045.377-.044.38-.043.38-.042.377-.037.38-.04.38-.037.38-.037.383-.035.382-.033.38-.036.382-.03.383-.03.383-.03.383-.028.384-.028.384-.025.383-.027.383-.024.385-.024.386-.02.387-.02.385-.02.386-.018.385-.017.388-.015.39-.015.386-.012.387-.01.387-.01.39-.01.39-.008.387-.007.39-.005.388-.005.39-.004h1.56l.388.004.39.004.39.005.387.006.39.007.387.01.387.01.39.01.386.013.386.014.387.017.384.018.387.017.387.02.387.02.384.02.386.024.384.023.384.026.384.024.384.027.382.028.383.03.382.032.38.03.382.036.38.034.382.035.38.038.38.038.38.04.38.04.38.04.38.045.378.044.377.044.38.046.376.046.377.05.376.048.377.052.375.05.375.055.374.056.375.055.373.058.375.056.373.06.375.06.374.06.373.063.373.063.37.065.37.066.374.068.37.07.37.068.37.07.37.07.37.074.37.075.367.075.37.077.367.076.368.08.367.078.367.083.365.08.366.083.365.085.365.085.364.085.363.086.363.09.363.088.363.09.362.092.36.093.362.092.36.096.36.096.36.097.36.098.36.098.358.1.358.1.357.104.358.102.358.104.358.105.356.108.355.11.356.107.356.11.35.11.355.11.353.115.35.113.354.115.35.116.35.116.35.12.353.118.35.12.348.12.35.123.35.126.346.124.347.125.346.126.348.128.346.13.344.128.347.13.344.133.345.13.344.135.34.133.344.136.343.135.34.136.34.14.342.14.34.14.337.14.34.144.338.144.338.144.337.147.336.147.336.15.336.147.335.15.333.15.334.15.333.153.332.153.332.156.332.155.33.158.33.156.33.16.33.16.33.16.326.16.328.163.327.163.327.163.328.164.325.167.325.167.323.17.325.17.323.167.324.172.322.17.32.173.32.173.32.173.32.176.32.178.32.177.315.18.317.18.317.18.318.18.315.183.316.182.315.183.314.184.312.185.312.188.312.188.31.19.31.19.31.19.31.19.31.193.308.192.306.195.31.194.306.197.305.197.308.198.306.2.303.2.3.198.304.202.304.2.3.204.3.204.302.203.296.205.3.207.298.205.298.21.297.21.296.21.296.21.293.21.293.212.293.214.294.216.29.215.292.216.29.217.29.217.29.22.288.22.287.22.287.22.287.22.287.223.286.224.284.227.284.224.283.228.284.227.28.227.282.23.28.23.28.23.277.23.28.23.276.235.277.232.276.233.275.237.276.235.276.236.273.238.273.24.273.24.27.238.27.24.27.242.27.242.267.243.27.245.266.244.264.246.265.246.266.246.264.247.263.25.26.247.265.253.26.25.26.252.26.25.257.255.257.254.256.253.257.256.256.254.256.257.253.26.253.26.253.257.25.26.25.26.25.26.25.265.25.26.247.265.246.263.246.268.245.265.244.267.244.267.243.267.243.27.24.27.242.27.24.27.238.274.237.272.238.272.238.274.236.275.233.277.236.277.23.276.233.28.232.275.23.28.232.28.228.28.23.28.226.284.228.282.226.284.224.283.224.283.223.286.225.286.22.287.22.285.222.29.218.287.22.29.217.29.217.29.214.29.214.294.213.294.215.293.214.295.21.294.21.294.21.296.21.298.207.297.21.3.205.298.206.3.207.3.205.3.202.3.202.303.2.3.2.307.2.303.198.303.198.304.197.306.195.306.196.305.195.308.193.308.193.31.19.31.19.31.19.31.19.312.187.31.186.313.185.313.186.313.184.315.183.315.183.314.18.316.18.317.18.318.18.318.175.318.176.32.176.32.176.32.174.32.172.324.17.322.17.323.17.322.17.326.17.323.166.327.165.325.165.326.165.327.164.327.162.33.16.328.16.33.16.327.157.33.16.33.155.333.153.33.155.332.152.334.153.332.152.334.15.335.15.334.15.335.145.337.148.336.144.338.145.337.142.34.143.337.14.34.142.34.14.34.137.34.138.342.138.34.135.34.136.346.133.342.133.343.132.345.13.346.13.345.127.345.128.347.127.346.125.348.123.348.123.35.124.348.12.35.12.35.12.35.12.35.116.352.115.35.115.353.115.354.113.354.112.35.11.356.11.354.11.355.106.355.106.357.105.356.105.357.103.357.104.358.096.358.1.358.1.36.098.36.096.36.098.36.093.36.095.362.093.36.09.364.09.36.09.364.087.365.088.364.086.365.084.364.084.365.082.364.08.366.08.368.08.366.077.367.078.37.075.37.076.367.07.368.075.37.07.37.07.37.07.37.07.372.068.37.067.37.063.373.064.372.063.374.062.37.06.375.058.377.06.373.056.374.055.375.055.373.05.375.054.376.05.377.05.378.048.377.048.38.046.376.044.38.043.38.043.38.04.38.043.38.04.38.035.38.036.38.037.38.035.38.032.383.032.382.03.382.03.384.03.384.027.384.025.382.023.384.024.385.022.383.023.385.02.385.02.385.02.385.012.387.016.387.012.383.013.387.012.39.01.387.01.39.008.386.007.39.005.388.003.39.004.39v.39l.003.39-.002.39v.39l-.005.39-.003.39-.005.39-.007.387-.01.39-.008.386-.01.39-.012.387-.014.386-.014.387-.016.385-.014.388-.02.385-.018.386-.02.386-.022.386-.022.385-.024.386-.025.384-.026.382-.03.384-.03.384-.03.382-.03.382-.033.382-.033.382-.035.382-.037.38-.036.382-.038.38-.04.38-.04.38-.043.38-.043.377-.043.38-.044.376-.047.38-.05.376-.047.376-.05.376-.05.377-.054.378-.05.374-.057.375-.055.373-.058.375-.06.372-.057.375-.06.374-.062.373-.06.37-.064.374-.063.37-.066.372-.066.372-.07.37-.067.37-.07.37-.07.37-.075.37-.07.368-.078.368-.075.368-.078.368-.078.367-.08.367-.08.366-.08.366-.085.364-.085.366-.084.365-.086.364-.088.366-.088.363-.09.362-.09.362-.09.36-.094.362-.093.36-.093.36-.098.36-.097.36-.1.36-.1.36-.1.357-.1.36-.102.358-.103.356-.106.357-.106.358-.107.354-.107.355-.11.355-.11.353-.11.355-.112.352-.113.355-.113.352-.114.35-.115.354-.116.353-.12.35-.118.35-.12.35-.12.35-.124.348-.123.35-.124.346-.127.35-.127.346-.128.346-.127.346-.13.346-.13.344-.13.344-.134.344-.132.344-.135.342-.135.343-.138.34-.138.343-.138.34-.14.34-.14.34-.142.34-.143.338-.144.338-.146.337-.144.337-.148.337-.146.333-.15.336-.15.333-.15.335-.15.333-.155.335-.153.332-.156.33-.154.333-.157.33-.16.33-.158.33-.158.33-.16.33-.163.327-.162.328-.163.327-.164.327-.165.324-.164.324-.168.326-.17.325-.17.322-.17.324-.17.32-.17.323-.173.32-.175.323-.176.32-.176.32-.177.317-.177.318-.18.318-.18.318-.18.318-.18.316-.182.316-.183.315-.183.315-.185.314-.185.31-.186.314-.187.31-.19.312-.19.31-.19.31-.19.31-.192.31-.193.307-.195.307-.195.306-.196.305-.197.307-.197.306-.197.304-.2.305-.2.302-.2.302-.204.302-.2.3-.206.302-.205.3-.205.298-.206.298-.21.3-.206.295-.21.298-.21.296-.21.293-.21.296-.214.293-.213.293-.212.29-.215.294-.217.29-.217.292-.22.29-.22.29-.217.287-.22.288-.22.29-.223.284-.225.287-.22.287-.227.285-.225.285-.226.282-.227.28-.227.28-.23.28-.227.28-.23.284-.232.28-.23.277-.233.278-.23.277-.237.277-.235.276-.236.275-.238.275-.238.274-.237.27-.24.273-.24.272-.24.27-.242.268-.243.27-.242.27-.245.265-.244.267-.246.267-.246.265-.245.264-.248.263-.25.263-.25.262-.25.26-.25.263-.252.26-.253.258-.253.26-.252.257-.254.258-.256.256-.257.256-.255.255-.258.256-.26.254-.26.25-.26.253-.258.25-.265.25-.26.25-.264.248-.263.25-.265.246-.265.247-.264.245-.267.245-.27.244-.27.243-.267.242-.27.24-.27.242-.27.24-.273.24-.272.238-.272.237-.275.237-.272.234-.275.235-.277.233-.277.233-.278.232-.28.23-.277.233-.28.23-.28.23-.282.23-.28.23-.28.223-.285.227-.284.224-.283.225-.285.223-.284.22-.287.223-.288.22-.287.22-.29.22-.288.22-.29.216-.29.215-.293.217-.29.213-.293.216-.294.214-.294.21-.294.213-.297.212-.295.21-.296.207-.298.207-.297.206-.3.208-.298.208-.303.205-.3.203-.3.203-.304.2-.303.202-.3.2-.305.2-.305.2-.305.195-.304.197-.305.195-.31.195-.305.193-.307.192-.31.192-.31.19-.31.192-.31.19-.31.187-.313.188-.313.188-.313.186-.314.185-.313.184-.315.18-.313.185-.318.182-.317.18-.318.178-.316.18-.32.176-.32.18-.32.175-.32.173-.32.174-.32.176-.322.17-.324.172-.323.17-.323.17-.323.166-.324.167-.326.168-.327.166-.327.164-.328.163-.327.16-.327.162-.33.16-.33.16-.328.16-.33.155-.334.157-.33.156-.334.154-.33.154-.334.153-.334.15-.334.153-.336.15-.336.147-.335.148-.335.147-.337.147-.337.146-.34.143-.337.142-.34.142-.337.14-.34.14-.34.14-.342.137-.34.136-.343.136-.342.135-.344.136-.342.132-.344.13-.346.132-.343.13-.345.128-.348.127-.346.126-.347.126-.347.125-.35.125-.347.12-.35.123-.348.12-.35.12-.353.116-.35.116-.352.117-.353.114-.35.116-.354.113-.355.11-.35.11-.355.11-.356.11-.354.11-.356.104-.356.105-.355.104-.36.104-.357.1-.358.103-.358.1-.36.098-.36.1-.36.097-.36.094-.36.094-.36.093-.364.092-.36.09-.364.09-.364.09-.363.088-.363.086-.364.085-.365.085-.363.085-.366.082-.364.083-.365.078-.366.08-.368.078-.366.08-.37.075-.368.074-.37.073-.368.072-.37.072-.37.07-.37.07-.372.067-.372.065-.37.064-.373.066-.372.064-.372.062-.373.062-.374.058-.372.06-.375.057-.376.055-.376.055-.376.056-.377.053-.375.05-.377.053-.376.05-.378.048-.38.048-.38.047-.376.044-.378.043-.38.043-.38.042-.38.04-.38.04-.38.037-.38.036-.383.035-.38.037-.382.033-.38.032-.382.03-.383.03-.383.028-.384.028-.384.025-.386.024-.385.024-.386.023-.384.02-.385.02-.385.02-.387.017-.385.016-.386.016-.386.013-.388.012-.388.012-.387.01-.387.01-.39.006-.387.007-.39.006-.39.003-.39.004-.39.002h-.387zm0-5h.373l.375-.002.374-.003.373-.004.373-.004.372-.005.373-.01.372-.007.372-.01.37-.01.373-.013.372-.015.37-.016.37-.017.37-.018.37-.017.37-.02.37-.02.367-.023.37-.022.368-.024.367-.026.365-.026.368-.028.366-.03.367-.03.366-.03.367-.03.367-.033.366-.036.365-.035.365-.037.363-.037.364-.037.362-.04.363-.04.363-.044.363-.043.366-.044.362-.045.36-.047.362-.047.36-.048.36-.05.36-.052.36-.05.36-.054.36-.056.36-.055.356-.056.358-.057.358-.06.36-.06.355-.06.356-.06.357-.065.356-.063.356-.067.354-.067.354-.067.355-.068.354-.07.35-.07.353-.073.353-.074.353-.074.35-.074.352-.077.352-.077.35-.077.35-.08.35-.08.35-.082.348-.083.35-.083.347-.084.35-.084.344-.09.348-.085.347-.09.345-.09.346-.09.344-.093.346-.092.344-.093.344-.097.344-.094.344-.098.342-.098.342-.1.343-.098.34-.102.344-.1.34-.105.34-.104.34-.105.34-.104.338-.106.337-.11.338-.11.337-.11.337-.11.336-.113.335-.112.336-.115.336-.115.336-.117.335-.117.333-.12.334-.117.333-.12.332-.12.33-.123.33-.124.33-.125.33-.124.33-.126.33-.125.33-.13.328-.13.33-.13.326-.13.327-.132.327-.133.325-.133.327-.134.324-.136.326-.136.324-.137.323-.14.324-.14.32-.14.323-.142.322-.142.32-.143.32-.145.32-.144.32-.145.32-.15.318-.147.318-.15.318-.15.316-.15.318-.152.316-.152.316-.153.313-.156.314-.156.314-.157.314-.16.313-.157.31-.16.314-.16.31-.16.31-.163.31-.163.31-.163.308-.162.31-.167.307-.164.305-.17.307-.165.306-.17.306-.17.304-.17.302-.172.305-.173.304-.172.3-.175.3-.174.3-.177.304-.177.3-.177.298-.18.3-.18.3-.18.298-.18.296-.184.298-.186.296-.183.294-.183.296-.186.295-.186.29-.187.295-.19.293-.188.29-.19.29-.19.293-.194.29-.193.29-.194.29-.196.286-.195.287-.197.286-.197.286-.198.286-.198.286-.2.284-.2.283-.202.284-.2.28-.204.284-.202.28-.206.28-.205.28-.206.28-.207.278-.208.28-.21.276-.21.278-.21.275-.21.276-.21.275-.216.274-.213.273-.212.272-.215.273-.216.27-.217.272-.22.27-.215.27-.22.27-.22.265-.22.27-.22.266-.225.267-.222.267-.224.265-.224.263-.226.263-.226.262-.227.262-.225.26-.23.26-.227.26-.23.26-.23.26-.23.256-.233.257-.234.258-.233.257-.235.254-.233.256-.24.254-.236.25-.238.253-.24.25-.238.252-.24.25-.24.25-.24.247-.244.25-.242.245-.243.246-.246.246-.245.243-.247.243-.247.244-.247.244-.248.242-.25.24-.25.242-.25.24-.25.238-.252.238-.25.237-.254.24-.253.235-.253.236-.254.235-.256.234-.257.23-.256.234-.258.23-.26.23-.26.232-.26.23-.26.226-.263.23-.26.227-.263.224-.262.225-.265.222-.265.224-.265.224-.267.22-.266.223-.267.22-.268.22-.27.22-.27.22-.27.215-.27.216-.273.216-.272.216-.27.216-.274.213-.274.213-.272.212-.275.21-.278.21-.277.21-.278.208-.277.208-.28.207-.28.207-.28.205-.28.203-.282.205-.282.2-.28.204-.283.203-.284.2-.287.2-.284.197-.286.198-.288.197-.285.197-.287.193-.29.194-.288.195-.29.192-.29.19-.29.19-.29.19-.293.19-.292.19-.293.187-.294.187-.294.186-.296.185-.297.184-.297.18-.296.184-.298.182-.298.18-.298.18-.3.18-.3.178-.3.177-.3.176-.3.175-.303.174-.302.173-.302.174-.302.172-.304.17-.303.17-.305.17-.307.167-.306.167-.307.167-.307.166-.308.166-.31.163-.307.164-.312.16-.31.16-.31.16-.31.16-.314.16-.31.155-.314.156-.316.156-.313.157-.315.155-.315.152-.317.153-.315.15-.317.15-.316.15-.318.147-.32.146-.317.147-.32.146-.32.144-.32.143-.32.144-.323.143-.32.14-.325.14-.32.138-.325.14-.325.136-.323.134-.325.136-.325.132-.327.134-.325.13-.327.132-.33.13-.325.13-.328.127-.33.13-.33.125-.33.124-.33.122-.33.122-.332.12-.33.124-.334.12-.33.12-.336.116-.334.12-.333.114-.333.115-.335.113-.337.112-.336.112-.337.112-.336.11-.338.107-.337.11-.34.104-.34.106-.34.105-.337.104-.34.102-.342.104-.34.1-.34.1-.342.1-.344.098-.342.096-.344.097-.343.095-.344.095-.346.09-.344.094-.347.09-.345.09-.346.09-.346.086-.347.086-.35.087-.347.084-.347.082-.35.082-.35.08-.348.082-.35.08-.35.076-.35.078-.353.075-.35.075-.354.073-.35.072-.352.072-.356.07-.353.07-.353.07-.353.066-.356.065-.355.066-.355.065-.357.06-.355.063-.356.062-.357.058-.356.06-.358.057-.36.057-.358.054-.36.055-.36.05-.358.054-.36.05-.36.05-.36.05-.36.046-.362.046-.36.046-.364.046-.363.043-.363.04-.363.04-.363.04-.366.04-.362.04-.365.036-.365.035-.363.034-.365.033-.367.033-.366.03-.367.03-.368.025-.366.028-.368.027-.368.026-.368.024-.368.022-.37.022-.37.02-.368.02-.37.02-.37.014-.37.018-.37.013-.37.01-.37.013-.372.012-.372.01-.372.01-.373.006-.37.008-.373.004-.373.003-.373.004-.372.002-.373v-.75l-.002-.374-.003-.37-.003-.375-.005-.373-.01-.372-.006-.372-.01-.372-.01-.373-.01-.37-.013-.37-.013-.37-.014-.37-.018-.37-.015-.37-.02-.37-.017-.37-.02-.37-.023-.37-.022-.37-.024-.367-.025-.368-.028-.366-.028-.37-.027-.366-.03-.366-.03-.368-.034-.366-.033-.367-.033-.366-.036-.363-.035-.365-.037-.365-.04-.363-.04-.365-.04-.364-.04-.364-.044-.36-.045-.364-.046-.36-.047-.364-.046-.36-.05-.36-.05-.362-.05-.36-.052-.36-.053-.36-.055-.36-.056-.357-.057-.36-.057-.358-.06-.356-.058-.357-.062-.356-.062-.358-.06-.357-.067-.355-.063-.355-.065-.354-.066-.355-.07-.354-.068-.353-.07-.353-.073-.354-.072-.353-.073-.353-.077-.353-.075-.35-.078-.35-.077-.35-.08-.35-.08-.35-.08-.35-.084-.35-.084-.348-.085-.35-.085-.347-.086-.346-.088-.346-.09-.35-.09-.345-.09-.345-.093-.345-.09-.344-.096-.343-.094-.345-.096-.344-.096-.342-.098-.343-.1-.344-.1-.34-.1-.343-.103-.34-.103-.34-.103-.34-.104-.34-.107-.338-.108-.34-.11-.34-.106-.336-.11-.34-.112-.337-.112-.335-.113-.338-.116-.336-.115-.335-.116-.336-.12-.334-.116-.333-.12-.334-.12-.333-.123-.33-.122-.333-.12-.332-.125-.33-.126-.33-.127-.33-.127-.33-.127-.328-.13-.33-.13-.327-.13-.327-.13-.327-.135-.327-.132-.33-.136-.324-.135-.325-.136-.323-.138-.325-.138-.324-.14-.322-.14-.323-.14-.32-.144-.323-.143-.32-.143-.32-.145-.32-.147-.32-.146-.317-.15-.32-.15-.317-.15-.316-.15-.317-.15-.317-.15-.316-.157-.315-.155-.315-.154-.313-.157-.315-.158-.31-.158-.315-.16-.312-.16-.31-.16-.313-.162-.31-.164-.31-.164-.31-.165-.307-.165-.308-.167-.308-.168-.308-.17-.307-.167-.304-.17-.306-.17-.305-.172-.305-.173-.302-.174-.303-.173-.303-.175-.3-.175-.302-.177-.3-.18-.302-.178-.3-.18-.297-.18-.3-.182-.297-.183-.3-.182-.296-.184-.296-.185-.297-.187-.293-.187-.295-.187-.294-.19-.292-.19-.293-.19-.29-.193-.294-.19-.29-.193-.29-.194-.288-.194-.29-.194-.287-.197-.287-.196-.287-.2-.287-.197-.285-.2-.283-.2-.284-.2-.283-.204-.286-.2-.28-.207-.283-.204-.28-.206-.28-.208-.28-.206-.28-.208-.278-.208-.28-.21-.277-.21-.277-.21-.277-.212-.276-.213-.276-.215-.274-.214-.274-.212-.273-.217-.27-.215-.27-.217-.27-.22-.27-.217-.27-.22-.27-.22-.27-.222-.266-.22-.265-.225-.268-.224-.265-.224-.265-.225-.263-.225-.264-.228-.264-.23-.26-.226-.264-.227-.262-.23-.26-.23-.258-.233-.26-.234-.256-.23-.258-.235-.256-.233-.255-.235-.255-.235-.254-.238-.254-.238-.252-.238-.25-.24-.252-.238-.25-.24-.25-.243-.25-.242-.25-.242-.248-.244-.246-.244-.247-.246-.245-.246-.246-.246-.245-.246-.243-.248-.242-.25-.242-.25-.24-.248-.242-.25-.24-.252-.238-.253-.24-.25-.236-.257-.236-.256-.236-.254-.236-.255-.234-.258-.234-.256-.234-.258-.232-.26-.23-.258-.23-.26-.23-.26-.23-.26-.23-.264-.226-.263-.227-.264-.225-.265-.225-.265-.225-.266-.224-.264-.22-.267-.223-.27-.222-.266-.22-.27-.22-.27-.22-.27-.217-.27-.217-.27-.218-.274-.217-.272-.215-.273-.212-.272-.214-.274-.214-.276-.21-.275-.213-.278-.21-.277-.21-.278-.21-.278-.205-.28-.21-.28-.203-.28-.21-.28-.202-.284-.206-.28-.203-.285-.2-.282-.2-.283-.2-.286-.2-.285-.2-.285-.2-.286-.195-.287-.197-.287-.197-.29-.194-.29-.192-.29-.193-.29-.192-.29-.19-.294-.19-.29-.19-.295-.188-.29-.188-.295-.186-.295-.186-.294-.185-.295-.183-.296-.183-.295-.18-.3-.185-.298-.18-.3-.18-.3-.18-.298-.178-.3-.177-.302-.175-.302-.176-.302-.178-.303-.173-.305-.173-.302-.173-.305-.17-.307-.17-.305-.17-.306-.167-.306-.167-.308-.166-.308-.166-.308-.166-.31-.163-.31-.165-.31-.162-.31-.16-.312-.162-.31-.157-.314-.158-.313-.157-.314-.158-.313-.156-.314-.155-.317-.153-.314-.153-.317-.15-.316-.15-.318-.152-.318-.148-.32-.148-.32-.148-.32-.147-.32-.143-.32-.146-.32-.143-.32-.142-.323-.142-.32-.14-.324-.14-.323-.138-.325-.137-.325-.137-.324-.136-.326-.134-.323-.135-.326-.133-.328-.132-.327-.13-.33-.13-.328-.13-.33-.126-.328-.128-.33-.127-.33-.125-.33-.124-.333-.122-.33-.123-.333-.12-.332-.12-.332-.12-.333-.118-.334-.118-.335-.116-.334-.116-.337-.115-.336-.112-.336-.112-.337-.11-.336-.11-.34-.112-.336-.106-.34-.11-.338-.104-.34-.104-.34-.105-.34-.106-.343-.1-.34-.102-.34-.1-.343-.097-.342-.097-.343-.098-.344-.094-.345-.094-.343-.096-.346-.092-.343-.092-.347-.09-.346-.09-.347-.088-.348-.088-.347-.086-.35-.086-.346-.084-.35-.084-.347-.08-.35-.084-.35-.08-.35-.078-.35-.08-.352-.075-.35-.077-.35-.074-.354-.074-.353-.073-.35-.073-.353-.07-.354-.07-.355-.068-.355-.068-.355-.067-.357-.066-.355-.064-.356-.063-.355-.062-.356-.06-.36-.06-.358-.06-.358-.056-.358-.058-.358-.055-.36-.056-.36-.052-.36-.05-.36-.054-.36-.05-.363-.047-.36-.05-.362-.046-.362-.044-.362-.045-.362-.043-.363-.04-.363-.04-.363-.04-.366-.04-.362-.04-.364-.035-.365-.034-.366-.034-.365-.033-.367-.03-.366-.03-.367-.03-.364-.03-.368-.026-.367-.027-.366-.024-.368-.025-.37-.025-.368-.02-.37-.02-.368-.02-.37-.018-.37-.018-.373-.016-.37-.016-.37-.012-.373-.012-.37-.01-.373-.01-.37-.01-.373-.006-.372-.007-.373-.006-.372-.005h-.375l-.374-.003h-.75l-.37.003h-.375l-.375.006-.37.006-.376.006-.373.006-.37.01-.37.01-.373.01-.372.013-.37.014-.37.016-.37.014-.37.018-.37.02-.37.017-.37.02-.37.02-.367.024-.368.024-.37.023-.37.027-.364.027-.368.03-.367.03-.364.03-.365.03-.366.035-.365.035-.366.034-.365.035-.365.038-.365.04-.365.04-.363.04-.363.042-.365.043-.36.044-.364.045-.36.046-.36.048-.36.05-.36.05-.36.052-.36.05-.36.054-.36.055-.36.056-.358.056-.358.057-.357.06-.357.06-.355.06-.357.06-.356.065-.355.062-.354.065-.354.067-.358.066-.353.07-.355.07-.353.07-.354.07-.354.073-.35.073-.353.074-.35.078-.35.076-.35.08-.35.08-.35.08-.35.082-.35.08-.348.085-.35.084-.346.087-.348.086-.35.088-.344.09-.346.09-.346.09-.345.09-.345.093-.343.095-.345.095-.344.094-.344.097-.344.098-.342.1-.34.098-.343.102-.34.1-.34.105-.34.104-.34.105-.34.105-.34.11-.337.105-.338.11-.337.11-.337.11-.335.114-.337.11-.336.116-.336.114-.334.115-.334.116-.333.12-.334.118-.333.12-.332.12-.332.123-.332.125-.33.125-.33.124-.33.125-.33.127-.327.127-.328.13-.33.13-.326.13-.328.132-.326.133-.326.133-.325.132-.325.136-.323.138-.324.137-.323.138-.324.14-.323.14-.322.142-.32.142-.32.143-.32.144-.32.145-.32.145-.32.15-.316.147-.318.148-.317.152-.318.15-.315.15-.317.154-.314.154-.314.155-.313.155-.315.157-.314.157-.313.157-.31.16-.313.16-.31.16-.31.163-.31.162-.31.163-.308.166-.308.166-.308.166-.307.167-.307.167-.306.17-.306.17-.304.17-.302.173-.305.172-.304.173-.304.176-.302.176-.3.175-.302.178-.3.18-.298.178-.3.18-.3.18-.297.183-.296.182-.297.183-.296.184-.295.186-.294.186-.296.185-.29.187-.295.19-.294.188-.29.19-.29.19-.292.194-.29.192-.29.192-.29.194-.285.196-.288.196-.287.195-.286.2-.286.2-.285.2-.284.2-.283.2-.284.2-.28.203-.284.203-.28.206-.28.208-.28.204-.28.21-.28.205-.28.21-.275.21-.277.21-.276.21-.276.212-.275.213-.273.213-.275.213-.272.215-.273.217-.27.217-.272.218-.27.218-.27.22-.27.22-.266.22-.27.22-.267.223-.265.22-.266.226-.265.226-.265.225-.263.227-.263.228-.262.227-.26.23-.26.227-.26.23-.26.23-.26.23-.257.233-.256.234-.256.234-.257.235-.254.236-.255.236-.25.236-.254.237-.253.24-.25.237-.252.24-.25.24-.25.242-.246.242-.247.242-.248.243-.247.244-.246.247-.245.245-.243.247-.245.245-.243.248-.24.25-.243.25-.24.25-.24.25-.24.25-.238.252-.237.253-.238.255-.235.253-.236.255-.234.256-.234.256-.233.258-.233.256-.23.26-.23.258-.23.26-.23.26-.228.263-.23.26-.224.265-.227.263-.225.262-.223.265-.224.265-.223.267-.22.265-.224.266-.22.27-.22.266-.218.27-.22.27-.216.27-.217.27-.215.273-.215.272-.216.274-.214.275-.21.275-.212.274-.21.274-.21.276-.21.277-.21.28-.207.28-.206.28-.207.28-.205.28-.204.28-.202.282-.202.282-.203.284-.203.283-.2.285-.2.285-.197.286-.198.29-.197.286-.197.288-.193.288-.195.29-.195.288-.192.29-.19.29-.192.292-.19.29-.19.293-.187.293-.19.294-.186.295-.186.294-.184.295-.184.297-.184.297-.183.298-.183.297-.18.3-.18.296-.18.3-.175.3-.178.3-.177.3-.176.303-.173.302-.174.304-.174.302-.17.305-.173.306-.17.305-.17.303-.168.307-.168.307-.166.308-.166.308-.166.308-.163.31-.16.31-.162.31-.162.31-.16.313-.16.31-.158.314-.157.312-.155.315-.156.314-.157.315-.153.314-.152.316-.15.317-.153.318-.15.316-.15.32-.147.32-.146.316-.147.32-.146.32-.145.32-.144.32-.142.322-.142.322-.14.323-.14.322-.137.322-.14.325-.135.324-.137.326-.136.325-.132.328-.134.326-.13.328-.13.328-.13.328-.13.327-.128.33-.128.33-.126.33-.125.33-.124.33-.122.333-.123.332-.12.33-.12.333-.12.334-.117.334-.117.335-.117.334-.116.336-.114.335-.112.337-.112.335-.112.336-.11.337-.108.337-.11.34-.105.338-.105.34-.106.34-.105.338-.103.34-.102.34-.1.344-.1.34-.1.343-.098.344-.096.343-.096.344-.095.346-.094.343-.092.343-.094.346-.09.344-.09.347-.09.35-.087.345-.086.347-.085.348-.084.35-.08.346-.083.35-.08.35-.082.35-.08.35-.076.35-.08.35-.074.353-.075.352-.07.352-.074.352-.07.353-.07.352-.072.354-.07.354-.066.355-.065.354-.065.355-.064.356-.064.357-.063.356-.06.358-.06.36-.06.355-.056.358-.056.36-.055.357-.054.36-.055.36-.05.36-.05.36-.05.36-.05.36-.047.36-.047.364-.046.36-.044.362-.043.36-.043.364-.04.363-.04.364-.04.363-.037.365-.036.365-.035.364-.033.366-.034.367-.034.366-.028.366-.03.365-.028.366-.028.37-.026.365-.026.368-.024.368-.022.37-.022.37-.02.368-.02.37-.017.37-.017.37-.016.37-.014.37-.013.373-.012.37-.01.37-.01.375-.008.372-.01.372-.006.372-.005.373-.003.374-.004.372-.002.376v.75l.003.372.004.373.003.376.006.372.007.372.01.373.007.373.01.372.01.372.013.37.014.37.016.373.016.37.015.37.016.37.02.37.02.37.023.367.022.37.024.367.025.368.026.368.03.367.026.366.032.367.03.365.03.366.034.367.034.365.037.364.036.366.04.365.04.364.04.364.04.362.04.363.044.362.043.36.045.364.047.36.047.363.048.36.05.36.05.36.053.36.054.36.053.36.055.356.057.36.057.357.06.358.06.357.06.358.06.357.065.355.063.356.065.355.066.354.067.355.07.353.07.354.07.354.07.355.076.35.07.353.077.353.075.35.078.35.077.35.08.353.08.348.08.35.084.35.082.35.084.346.086.348.086.35.086.347.09.347.09.346.09.344.092.346.092.343.093.346.093.342.096.343.095.344.097.34.1.345.1.34.1.343.103.34.103.34.103.342.105.337.107.34.107.338.11.34.106.336.11.34.113.337.11.337.114.336.115.334.114.336.117.334.118.334.117.334.12.334.12.332.12.334.124.33.12.332.125.33.126.33.127.33.127.33.125.33.13.328.13.327.13.326.13.327.135.325.133.326.136.325.135.325.135.324.14.325.14.323.14.32.137.324.14.32.144.323.145.32.144.322.145.317.146.32.146.318.148.32.15.317.15.317.15.318.152.315.153.316.153.313.155.314.154.314.156.313.157.314.158.31.16.314.16.312.162.31.162.31.16.31.164.31.166.308.164.308.167.307.168.306.17.306.168.306.17.304.173.304.17.305.175.3.173.304.173.302.176.304.178.3.177.3.177.3.18.3.18.3.18.3.182.296.182.297.184.295.183.295.183.295.186.294.186.292.188.294.187.294.19.292.19.293.193.29.19.29.193.29.195.29.195.287.193.29.197.287.197.284.198.287.198.286.2.284.2.286.2.284.204.282.203.282.203.282.204.28.205.283.207.28.205.28.207.28.208.275.21.278.21.277.21.277.214.275.21.273.213.276.215.274.215.272.215.272.216.272.216.27.22.27.217.27.22.27.22.267.223.267.22.266.225.267.225.265.223.265.226.265.227.263.225.263.23.26.226.263.23.26.23.26.23.26.23.26.234.258.232.256.233.256.234.256.237.255.235.256.238.253.237.252.238.254.24.25.24.25.24.252.24.25.243.247.243.25.245.247.244.246.245.246.246.244.247.244.248.242.247.242.248.243.25.24.25.24.25.24.252.24.253.237.253.237.253.236.257.237.254.234.258.237.256.233.255.233.256.23.26.23.258.23.26.23.26.23.26.23.263.227.263.228.264.226.264.226.265.224.265.224.264.222.266.224.27.22.266.22.27.22.268.22.27.217.272.22.27.218.274.215.272.214.274.213.273.213.274.214.276.21.275.213.278.21.277.21.278.208.278.208.28.207.28.206.28.203.28.205.284.202.28.203.285.2.282.202.285.2.286.2.287.2.285.197.286.195.29.196.286.197.29.195.29.192.29.192.29.192.29.19.292.19.293.19.295.187.29.187.296.188.296.186.296.184.295.184.297.185.295.182.297.18.3.18.3.18.298.18.3.177.3.178.302.177.302.175.3.176.303.174.304.173.302.172.304.17.307.17.307.17.307.166.306.17.307.165.308.167.308.164.31.163.31.163.31.162.31.16.312.16.31.16.314.157.31.16.314.155.313.155.315.155.315.153.317.153.316.152.318.15.317.15.318.15.318.147.32.148.32.146.32.144.32.146.32.143.32.14.324.143.323.14.324.14.324.14.324.137.323.136.326.135.326.134.327.133.326.133.328.132.327.13.33.13.326.128.33.13.33.125.33.128.33.124.33.123.333.124.33.12.333.12.332.12.333.12.333.118.335.117.334.116.334.115.335.115.336.112.336.112.338.11.337.11.337.11.338.11.34.106.338.105.34.107.34.103.34.104.34.1.343.1.34.1.343.1.344.097.343.098.343.095.344.098.344.093.346.094.346.092.347.09.345.09.345.09.348.085.35.09.346.083.35.084.348.085.35.084.35.08.35.082.35.08.35.076.35.078.353.075.352.073.35.074.353.073.353.072.353.07.353.07.353.067.356.067.354.067.355.066.356.063.357.063.357.062.356.06.358.06.357.058.36.057.358.055.36.056.36.058.36.053.36.05.36.054.36.05.36.048.36.05.363.046.364.046.36.044.364.043.363.043.364.04.363.04.364.04.365.037.365.035.364.035.365.035.364.032.364.03.365.032.367.03.368.03.366.024.37.026.368.027.368.024.368.024.368.02.37.022.37.02.37.017.37.018.37.016.37.016.37.014.373.01.372.012.37.01.373.01.373.007.373.004.374.006.373.005.373.003.373.002h.375z" fill="#595959"/><path d="M317.172 316.593h-.69l-.69-.003-.693-.005-.696-.01-.697-.01-.698-.013-.7-.017-.7-.02-.702-.02-.703-.025-.706-.028-.707-.03-.71-.032-.707-.036-.713-.04-.712-.04-.713-.046-.717-.046-.716-.05-.72-.053-.718-.06-.72-.06-.724-.06-.724-.068-.726-.068-.726-.07-.73-.077-.728-.078-.73-.08-.732-.086-.368-.043-.367-.044-.364-.046-.368-.045-.37-.047-.368-.045-.37-.048-.367-.05-.368-.05-.37-.05-.37-.052-.37-.053-.37-.053-.37-.055-.37-.055-.37-.055-.373-.056-.37-.058-.373-.06-.375-.06-.373-.06-.373-.06-.375-.06-.373-.063-.373-.065-.375-.064-.375-.064-.372-.067-.375-.068-.375-.067-.375-.07-.375-.068-.377-.07-.373-.073-.377-.074-.378-.074-.377-.074-.377-.075-.377-.076-.38-.078-.373-.078-.378-.08-.38-.08-.378-.08-.38-.08-.376-.083-.38-.084-.38-.085-.38-.085-.38-.087-.38-.086-.38-.09-.38-.087-.382-.09-.38-.09-.382-.094-.38-.09-.382-.094-.382-.093-.382-.096-.384-.095-.382-.096-.383-.1-.383-.1-.384-.1-.384-.1-.384-.104-.384-.104-.384-.105-.383-.104-.386-.107-.384-.11-.387-.107-.385-.11-.386-.11-.386-.11-.385-.114-.385-.115-.385-.112-.388-.115-.385-.117-.387-.117-.385-.12-.387-.12-.387-.12-.386-.12-.387-.125-.388-.124-.39-.124-.39-.125-.386-.126-.387-.126-.39-.128-.388-.13-.388-.133-.387-.132-.39-.132-.388-.136-.39-.135-.39-.135-.388-.138-.39-.14-.39-.14-.39-.14-.39-.14-.39-.146-.39-.142-.39-.146-.39-.146-.39-.145-.393-.148-.39-.15-.39-.15-.393-.153-.39-.154-.392-.152-.39-.157-.393-.153-.39-.16-.394-.157-.392-.16-.392-.16-.393-.162-.39-.163-.393-.165-.393-.166-.394-.164-.392-.17-.392-.168-.392-.17-.394-.17-.393-.174-.392-.174-.393-.174-.392-.176-.394-.177-.393-.18-.392-.18-.393-.18-.394-.18-.392-.184-.393-.184-.394-.184-.394-.186-.395-.188-.394-.19-.393-.19-.394-.19-.394-.193-.395-.194-.394-.194-.393-.196-.394-.198-.395-.2-.393-.198-.394-.2-.393-.203-.397-.203-.394-.205-.395-.207-.395-.206-.395-.21-.395-.21-.394-.21-.393-.214-1.702-.92-.003-1.61v-.152l.002-.208.003-.263.006-.315.008-.368.013-.418.015-.47.02-.52.012-.28.014-.29.018-.303.015-.316.017-.325.018-.34.023-.35.024-.36.023-.376.026-.383.03-.395.027-.41.034-.418.036-.428.036-.44.04-.453.04-.46.044-.472.045-.48.05-.495.05-.502.054-.513.057-.523.06-.53.063-.545.065-.552.068-.56.072-.574.074-.58.077-.59.08-.6.084-.607.088-.617.09-.625.096-.634.098-.644.1-.654.108-.66.11-.67.114-.676.117-.686.12-.694.124-.702.13-.71.132-.716.14-.724.142-.733.145-.74.15-.745.078-.376.08-.38.08-.38.08-.38.082-.384.083-.386.083-.388.086-.388.087-.39.086-.392.09-.394.09-.395.092-.4.093-.396.095-.4.094-.404.096-.402.1-.404.097-.408.1-.408.103-.41.103-.41.104-.414.106-.414.107-.415.11-.42.11-.418.11-.422.114-.42.116-.423.117-.424.117-.426.117-.427.12-.428.12-.43.123-.432.125-.432.126-.435.13-.436.13-.437.13-.437.13-.438.133-.44.137-.443.135-.444.138-.444.14-.446.14-.448.142-.45.145-.448.144-.45.15-.45.147-.452.15-.455.155-.453.153-.456.155-.456.156-.457.16-.46.16-.46.16-.46.163-.46.163-.464.168-.466.17-.465.17-.467.17-.468.173-.466.177-.47.177-.47.18-.47.18-.47.18-.474.185-.473.186-.473.19-.476.19-.477.19-.476.192-.475.195-.478.195-.478.2-.48.2-.48.2-.484.205-.482.205-.48.208-.485.21-.486.212-.484.21-.485.218-.485.217-.486.218-.487.22-.488.224-.49.225-.49.227-.49.227-.49.23-.49.23-.49.236-.49.238-.494.24-.492.24-.492.242-.494.245-.495.248-.494.248-.495.25-.494.254-.495.256-.497.257-.496.26-.496.26-.498.265-.497.266-.496.267-.5.27-.497.3-.548.306-.55.307-.55.31-.55.313-.55.316-.55.32-.553.323-.55.327-.552.328-.55.333-.55.336-.553.34-.552.34-.55.347-.553.35-.553.35-.552.357-.552.358-.55.362-.553.364-.552.37-.552.37-.553.374-.55.378-.553.38-.55.384-.552.39-.55.39-.553.393-.55.396-.55.4-.552.404-.55.406-.55.41-.55.414-.55.417-.548.42-.548.424-.55.426-.546.43-.545.432-.548.437-.547.44-.548.442-.545.446-.546.45-.544.45-.544.458-.543.458-.546.463-.542.465-.542.47-.54.47-.54.477-.54.48-.54.48-.54.485-.54.487-.536.492-.537.495-.535.5-.534.5-.535.505-.532.508-.532.512-.53.515-.533.517-.53.52-.53.528-.527.53-.528.53-.528.534-.524.536-.525.542-.526.543-.52.274-.263.277-.26.276-.26.275-.26.278-.26.28-.26.278-.26.278-.26.28-.257.28-.26.283-.258.282-.26.282-.256.283-.257.286-.257.286-.257.286-.256.287-.257.287-.254.29-.255.29-.253.29-.256.294-.254.295-.256.292-.254.294-.253.297-.253.296-.253.298-.252.3-.253.296-.25.3-.254.3-.25.3-.25.3-.253.305-.25.304-.25.305-.25.305-.25.304-.25.306-.246.31-.25.307-.25.31-.246.31-.248.31-.246.312-.247.312-.246.313-.246.316-.242.316-.246.317-.244.316-.244.316-.244.32-.246.32-.242.32-.243.32-.244.322-.243.324-.24.323-.242.324-.24.325-.24.326-.24.327-.24.326-.24.33-.237.33-.24.33-.236.33-.24.33-.235.335-.238.333-.237.333-.236.338-.235.335-.234.338-.234.34-.234.337-.232.34-.232.34-.234.342-.232.34-.232.343-.23.345-.233.344-.23.346-.23.346-.23.347-.23.348-.23.35-.228.35-.228.35-.227.35-.226.354-.228.353-.225.356-.226.355-.225.355-.225.356-.224.358-.224.358-.224.36-.222.358-.222 2.627 4.255-.352.22-.35.214-.35.217-.35.22-.347.22-.345.22-.347.22-.344.22-.344.22-.344.22-.343.22-.34.223-.34.22-.34.225-.34.223-.34.223-.338.224-.336.223-.338.225-.336.225-.334.227-.334.226-.333.227-.33.227-.33.227-.33.23-.33.228-.33.23-.328.227-.327.23-.327.23-.326.23-.324.23-.323.23-.323.233-.32.233-.323.23-.32.23-.32.236-.318.234-.32.233-.315.233-.316.236-.314.233-.316.236-.313.236-.314.236-.31.237-.312.235-.31.235-.31.24-.307.237-.308.24-.308.238-.308.24-.305.24-.306.24-.304.24-.304.24-.302.24-.3.244-.302.24-.298.242-.3.243-.297.242-.297.243-.298.244-.295.24-.296.245-.295.243-.293.244-.294.246-.292.245-.29.246-.29.248-.29.246-.288.248-.288.247-.287.247-.285.247-.286.248-.285.248-.284.248-.28.25-.283.25-.28.247-.28.25-.28.25-.278.25-.28.252-.277.25-.275.25-.276.25-.272.25-.276.255-.27.25-.273.254-.272.25-.27.253-.27.253-.27.255-.267.254-.266.256-.266.253-.53.51-.528.507-.526.51-.518.512-.518.512-.513.513-.51.515-.507.514-.504.516-.504.517-.497.516-.495.52-.492.518-.488.52-.484.52-.48.522-.48.52-.474.524-.473.523-.468.525-.468.525-.462.524-.46.526-.454.527-.453.526-.45.527-.445.528-.443.53-.44.53-.436.53-.436.527-.43.532-.427.53-.423.53-.42.53-.418.532-.414.53-.41.533-.408.533-.404.532-.4.532-.4.533-.395.534-.39.533-.39.534-.384.535-.38.532-.38.536-.374.534-.373.535-.37.533-.366.536-.363.533-.36.534-.356.535-.353.534-.35.535-.348.535-.342.533-.34.536-.34.535-.333.534-.33.535-.328.532-.325.534-.323.534-.317.533-.317.534-.31.534-.31.534-.305.533-.302.53-.3.533-.297.532-.293.53-.29.53-.264.486-.26.484-.258.483-.256.485-.256.483-.252.484-.25.48-.25.485-.245.48-.244.482-.243.48-.24.48-.238.48-.236.48-.234.48-.233.48-.23.48-.23.48-.227.474-.223.48-.224.475-.22.476-.218.473-.217.476-.213.472-.213.474-.21.473-.21.473-.206.475-.207.47-.202.472-.203.47-.2.47-.2.47-.194.467-.194.468-.19.467-.194.465-.19.466-.187.466-.187.462-.184.462-.183.463-.18.46-.18.46-.176.46-.176.46-.174.46-.172.457-.17.456-.17.456-.166.453-.165.453-.164.453-.162.452-.16.45-.16.45-.156.45-.157.448-.154.447-.15.448-.153.444-.15.445-.15.443-.145.44-.145.44-.142.44-.142.44-.14.44-.138.433-.136.435-.134.437-.134.433-.132.43-.132.432-.13.43-.128.427-.126.426-.125.425-.125.425-.123.423-.122.42-.118.42-.12.42-.116.42-.116.415-.114.415-.113.413-.112.414-.11.41-.11.41-.104.407-.106.407-.104.406-.105.404-.1.4-.1.4-.1.402-.098.397-.098.395-.095.396-.095.392-.093.393-.093.39-.09.388-.09.39-.09.384-.086.385-.086.38-.084.38-.085.38-.083.376-.08.376-.08.373-.08.37-.077.374-.078.367-.076.366-.15.73-.142.72-.14.712-.133.707-.13.7-.127.69-.122.682-.118.675-.114.667-.11.66-.105.652-.104.64-.1.635-.093.627-.094.618-.09.61-.085.6-.08.59-.08.585-.076.573-.073.564-.07.554-.066.546-.06.537-.063.525-.057.517-.055.506-.05.497-.05.487-.048.48-.044.465-.043.455-.04.445-.038.437-.035.423-.035.415-.03.405-.03.392-.027.38-.023.37-.025.36-.022.346-.02.335-.018.326-.017.313-.015.3-.014.29-.014.276-.01.263-.02.495-.015.444-.006.2.203.107.384.204.385.2.386.2.385.2.383.2.384.195.385.196.384.196.384.19.382.193.384.19.382.19.384.187.385.19.384.184.383.185.384.185.383.182.384.18.382.18.382.18.383.177.384.18.382.173.382.174.382.174.383.173.38.17.38.17.384.17.382.166.382.166.382.164.38.163.38.164.383.16.382.16.38.16.382.16.38.156.382.157.38.155.38.155.38.153.38.15.38.15.38.15.38.15.38.146.38.15.38.143.38.144.38.143.38.144.38.14.378.14.38.14.376.137.38.138.378.137.38.134.377.135.377.132.378.133.38.13.376.13.38.128.376.127.38.128.376.126.377.122.376.122.377.122.376.122.376.12.375.12.378.117.374.117.377.114.375.116.374.115.374.112.374.11.374.11.374.11.375.11.374.11.375.107.373.106.376.105.373.106.373.103.373.1.37.103.374.1.375.1.37.098.374.1.37.095.373.095.37.095.373.094.373.092.37.09.37.09.37.092.373.087.37.09.37.085.37.088.37.084.37.084.368.086.37.08.368.083.37.08.367.08.366.08.368.077.368.078.366.076.367.077.367.073.366.074.367.074.366.07.366.075.367.07.365.07.365.068.365.068.364.066.365.065.365.067.363.063.364.065.362.062.363.062.363.06.36.06.365.06.36.06.363.054.36.057.362.057.36.055.363.056.36.052.36.05.36.052.36.052.36.05.36.05.357.048.358.046.36.048.357.047.357.045.356.044.356.043.356.043.355.042.712.082.71.08.71.075.708.07.706.07.705.066.703.064.703.06.7.058.7.055.7.05.7.05.694.046.694.04.693.04.69.04.69.035.69.03.688.03.685.028.685.024.683.02.68.02.68.015.68.015.678.01.674.01.673.004.673.003h.67l.67-.003.666-.004.666-.007.664-.01.663-.01.66-.015.656-.017.658-.02.656-.02.653-.023.65-.026.65-.03.65-.028.646-.033.643-.035.643-.038.642-.038.637-.042.638-.043.635-.045.633-.048.632-.05.63-.05.627-.055.625-.056.625-.057.62-.06.622-.06.617-.064.616-.064.614-.066.61-.068.612-.07.606-.074.605-.075.605-.075.602-.078.6-.08.596-.08.596-.083.592-.084.59-.087.59-.09.585-.088.584-.09.58-.094.58-.094.58-.094.575-.097.573-.098.572-.1.567-.1.566-.103.562-.104.56-.104.56-.107.558-.107.554-.11.55-.108.55-.112.546-.114.544-.114.542-.114.54-.117.536-.116.533-.12.53-.117.53-.12.527-.12.526-.124.52-.123.52-.126.515-.124.516-.126.51-.127.51-.128.506-.13.503-.13.5-.13.498-.13.497-.134.49-.134.49-.134.487-.134.483-.136.482-.136.476-.136.474-.138.473-.137.47-.137.466-.14.465-.14.46-.14.46-.14.454-.14.452-.14.45-.145.446-.143.443-.143.44-.143.44-.144.435-.145.432-.143.428-.144.425-.145.423-.146.42-.144.416-.145.41-.145.41-.146.408-.146.402-.146.4-.146.398-.146.394-.146.39-.146.388-.146.385-.147.38-.144.38-.147.372-.148.37-.146.37-.147.364-.145.36-.146.36-.146.354-.145.35-.144.35-.145.342-.142.34-.145.338-.143.333-.145.332-.144.326-.14.322-.142.32-.14.317-.142.313-.14.31-.14.304-.14.303-.14.296-.14.19-.086.187-.09.185-.09.184-.086.183-.088.18-.09.177-.087.176-.09.174-.088.17-.088.342-.175.33-.175.326-.174.316-.173.31-.172.305-.172.297-.17.29-.17.284-.168.276-.167.27-.168.264-.164.257-.164.25-.16.242-.16.234-.157.23-.156.225-.153.216-.15.21-.15.206-.146.197-.144.19-.144.187-.14.18-.135.17-.133.168-.13.162-.128.155-.127.147-.123.142-.118.137-.116.13-.112.127-.108.12-.105.113-.1.108-.1.103-.093.098-.09.09-.086.087-.08.08-.077.07-.07.138-.135.11-.115.092-.095.07-.075.05-.055.028-.03.028-.033 3.793 3.258-.052.06-.07.083-.09.102-.116.12-.134.14-.157.16-.176.177-.102.098-.103.1-.11.104-.116.105-.12.114-.128.114-.133.12-.14.124-.144.127-.15.13-.157.134-.164.137-.17.143-.176.143-.182.146-.187.15-.194.152-.2.155-.207.157-.213.16-.22.165-.23.164-.23.166-.24.17-.248.17-.253.175-.26.177-.268.178-.272.18-.28.18-.287.182-.294.184-.3.185-.31.186-.316.187-.322.19-.328.188-.336.19-.345.19-.35.19-.357.194-.367.192-.37.19-.19.097-.19.095-.194.097-.194.096-.197.096-.197.098-.2.097-.204.096-.203.096-.204.095-.314.145-.315.145-.32.146-.323.146-.325.146-.33.147-.334.146-.338.147-.34.15-.343.148-.35.148-.35.15-.352.15-.36.15-.36.15-.363.15-.37.148-.368.153-.377.15-.376.15-.38.152-.387.15-.386.15-.39.153-.395.15-.398.15-.4.15-.405.154-.408.15-.41.15-.412.152-.416.15-.42.15-.423.15-.425.15-.43.15-.43.15-.436.15-.44.148-.44.15-.446.147-.448.15-.45.146-.454.148-.456.146-.46.148-.462.145-.465.146-.47.144-.47.144-.475.144-.477.143-.48.142-.484.142-.485.14-.49.14-.49.14-.497.14-.5.14-.5.14-.502.136-.505.135-.51.137-.51.137-.515.134-.517.136-.52.132-.523.13-.525.13-.528.13-.53.13-.533.128-.534.125-.54.126-.54.124-.543.125-.548.122-.55.123-.55.118-.555.122-.555.117-.56.116-.56.115-.564.116-.565.112-.57.112-.57.11-.573.11-.575.107-.578.106-.582.107-.583.104-.588.104-.586.1-.593.1-.592.096-.594.096-.597.095-.6.095-.604.09-.604.09-.604.09-.61.086-.61.086-.614.083-.615.08-.618.08-.62.078-.622.076-.625.074-.627.072-.628.07-.633.067-.63.067-.636.066-.634.063-.64.06-.64.06-.64.057-.646.055-.647.05-.648.053-.653.048-.652.047-.656.044-.656.042-.66.036-.66.038-.662.036-.664.034-.665.03-.668.03-.67.026-.67.025-.675.022-.675.02-.676.017-.68.015-.68.01-.683.01-.682.005-.686.005h-.688z" fill="#595959"/><path d="M319.62 280.656h-.425l-.425-.002-.424-.005-.42-.008-.423-.007-.42-.008-.42-.012-.417-.012-.417-.014-.42-.016-.412-.016-.414-.018-.413-.02-.41-.022-.41-.02-.407-.025-.406-.026-.405-.03-.405-.027-.4-.03-.404-.032-.4-.032-.398-.033-.396-.037-.397-.036-.394-.038-.395-.037-.39-.04-.39-.042-.388-.043-.387-.043-.385-.046-.384-.045-.38-.046-.38-.05-.38-.047-.376-.05-.376-.052-.37-.05-.373-.052-.37-.054-.368-.053-.37-.056-.364-.055-.363-.06-.36-.055-.36-.06-.358-.06-.356-.06-.356-.06-.35-.063-.352-.062-.346-.063-.348-.065-.344-.065-.342-.065-.34-.066-.34-.068-.337-.067-.333-.065-.332-.067-.33-.068-.33-.07-.326-.07-.323-.07-.322-.07-.32-.072-.318-.07-.315-.07-.313-.072-.313-.072-.31-.073-.306-.072-.303-.073-.303-.074-.597-.145-.587-.148-.578-.15-.568-.15-.56-.147-.55-.15-.538-.15-.53-.148-.52-.148-.508-.148-.5-.148-.487-.146-.476-.145-.466-.142-.454-.142-.444-.14-.432-.14-.42-.138-.41-.135-.397-.134-.384-.132-.373-.127-.362-.124-.35-.123-.335-.12-.325-.115-.31-.114-.3-.11-.286-.105-.273-.1-.26-.1-.245-.094-.232-.09-.22-.084-.396-.157-.338-.136-.285-.115-.225-.096-.165-.07-1.826-.787.266-2.467.07-.638.076-.633.076-.634.082-.626.08-.623.087-.62.086-.62.09-.612.092-.612.096-.607.098-.604.1-.6.104-.598.103-.595.108-.594.11-.587.11-.585.116-.58.115-.58.12-.575.12-.57.123-.57.125-.563.127-.563.13-.56.133-.555.132-.554.136-.55.14-.546.14-.543.144-.54.142-.537.147-.534.148-.532.15-.526.153-.525.153-.52.155-.52.16-.515.158-.513.162-.508.16-.505.165-.505.166-.498.17-.5.17-.494.17-.49.173-.488.175-.486.176-.48.177-.48.18-.475.18-.47.183-.47.184-.468.183-.466.188-.46.188-.457.19-.453.19-.452.192-.448.192-.445.194-.443.194-.44.198-.438.198-.434.2-.433.2-.428.2-.426.203-.42.202-.42.204-.42.206-.41.208-.413.21-.407.207-.405.21-.4.212-.4.21-.396.212-.393.21-.39.215-.39.215-.384.218-.38.216-.382.218-.375.218-.374.218-.37.22-.367.22-.366.22-.362.22-.36.223-.357.22-.355.226-.35.222-.35.223-.346.227-.344.222-.34.224-.338.225-.335.225-.332.227-.33.225-.327.227-.323.227-.32.228-.322.228-.316.227-.314.228-.31.23-.31.23-.304.225-.303.23-.3.226-.3.23-.295.23-.294.23-.29.226-.287.23-.285.226-.283.23-.28.227-.278.23-.275.225-.272.227-.27.227-.267.226-.265.225-.26.228-.26.224-.26.225-.254.225-.253.225-.25.224-.246.226-.244.22-.242.224-.24.222-.238.222-.236.222-.232.22-.23.22-.228.22-.225.218-.225.218-.22.22-.217.216-.215.215-.213.216-.212.213-.208.215-.207.21-.204.215-.203.21-.198.21-.197.21-.196.21-.193.206-.19.205-.188.205-.186.203-.184.203-.18.203-.18.2-.175.2-.174.2-.172.197-.17.197-.168.194-.165.195-.162.193-.16.192-.16.19-.157.19-.152.187-.153.185-.15.184-.15.183-.146.36-.283.355-.276.35-.267.342-.26.338-.25.33-.244.322-.236.316-.227.308-.217.3-.212.297-.2.285-.195.277-.188.27-.18.26-.17.252-.163.242-.156.234-.148.224-.14.216-.133.206-.127.196-.12.188-.11.177-.104.165-.097.157-.09.145-.082.14-.075.23-.13.192-.1.146-.078 1.413-.72 1.466.973.25.167.253.17.247.167.25.17.246.167.246.168.245.17.243.17.245.17.24.17.24.172.242.172.237.17.24.17.234.174.236.174.236.172.234.173.232.173.232.174.23.174.23.176.23.176.227.174.228.175.227.178.224.176.224.175.223.176.222.18.22.176.22.178.22.18.218.176.218.18.217.18.216.18.213.177.213.18.213.18.21.18.21.18.21.18.21.182.207.18.206.18.205.182.204.18.205.183.202.18.2.184.2.18.2.185.2.182.2.184.196.184.197.183.194.184.196.185.194.185.193.187.19.185.19.186.192.185.19.188.374.37.37.37.37.376.365.374.363.375.358.375.355.376.35.377.346.377.345.376.34.377.338.38.333.38.33.377.33.38.322.38.32.38.316.38.313.383.31.382.306.382.304.382.3.38.296.383.295.383.29.382.29.383.283.385.28.383.28.387.276.383.272.384.267.384.265.383.263.387.26.383.256.385.254.384.252.383.247.384.245.383.24.385.24.384.236.38.232.383.23.382.228.384.225.38.222.382.22.382.214.38.215.382.21.38.21.38.205.38.203.38.2.378.196.378.195.38.19.376.19.374.186.375.184.374.184.376.18.375.176.374.173.372.172.372.168.37.167.37.165.37.162.37.158.37.16.366.154.366.15.367.15.366.147.363.144.363.145.36.14.36.14.36.137.36.134.358.13.356.132.355.126.354.125.353.124.353.12.35.12.35.12.348.114.35.112.345.112.346.108.343.108.342.105.34.104.34.1.338.1.338.098.334.097.334.094.33.092.33.092.33.086.33.088.326.084.323.085.323.082.32.08.32.08.318.073.318.075.312.074.313.07.31.07.31.07.308.066.306.067.303.064.303.06.3.06.297.06.297.06.296.055.29.054.29.054.29.052.286.052.282.05.282.048.28.048.277.045.278.042.273.043.273.043.27.04.267.04.265.04.263.037.26.036.258.034.256.033.252.034.25.03.25.06.49.057.48.054.47.047.46.045.45.043.44.037.428.033.42.03.406.03.396.024.385.023.374.02.36.016.354.015.337.012.327.01.315.01.303.006.29.005.275.004.263.003.25v.658l-.002.196-.003.18-.003.17-.007.29-.008.235-.008.177-.084 1.59-1.527.764-.226.11-.226.114-.226.11-.224.11-.227.11-.227.107-.227.106-.228.107-.228.104-.225.103-.228.105-.227.1-.227.103-.23.102-.227.1-.227.097-.227.098-.228.1-.23.095-.226.096-.226.095-.23.096-.227.093-.23.09-.227.093-.23.09-.227.09-.228.09-.23.088-.454.175-.457.17-.458.17-.457.162-.458.162-.46.157-.457.155-.457.153-.457.148-.457.148-.457.14-.46.144-.456.136-.457.135-.458.13-.458.13-.456.125-.46.122-.457.12-.457.116-.458.114-.456.112-.457.107-.458.106-.456.103-.455.1-.456.095-.455.096-.456.094-.455.087-.454.088-.452.085-.454.08-.452.08-.453.074-.453.074-.45.073-.452.068-.45.068-.45.064-.45.062-.45.06-.45.055-.445.054-.447.054-.446.05-.446.048-.445.044-.444.043-.443.04-.443.04-.444.037-.442.034-.44.034-.44.03-.44.028-.438.028-.44.024-.436.022-.437.018-.434.02-.435.014-.433.016-.435.012-.43.01-.432.01-.43.006-.428.005-.427.005-.427.003zm-.006-5h.407l.41-.005.406-.002.41-.005.408-.008.41-.01.412-.012.41-.014.414-.016.412-.017.416-.018.414-.02.415-.026.416-.024.418-.03.42-.03.418-.03.418-.032.42-.034.42-.035.42-.04.42-.04.42-.046.424-.044.42-.047.423-.048.424-.052.423-.055.425-.055.423-.058.425-.06.427-.064.425-.064.426-.067.427-.07.427-.07.427-.078.43-.074.426-.078.428-.083.427-.085.43-.086.43-.09.426-.092.43-.093.427-.096.427-.1.43-.103.43-.103.43-.107.426-.11.43-.113.43-.114.427-.117.43-.12.43-.124.43-.127.428-.127.43-.13.43-.135.43-.136.43-.14.426-.143.428-.143.43-.146.427-.152.43-.154.426-.157.43-.16.427-.163.21-.08.214-.086.213-.083.213-.084.214-.087.213-.086.214-.09.214-.09.212-.085.213-.09.212-.09.212-.092.213-.09.212-.094.212-.095.212-.095.213-.093.21-.095.21-.097.212-.097.212-.098.21-.1.213-.1.136-.063v-.315l-.002-.225v-.24l-.006-.25-.006-.264-.01-.276-.01-.29-.01-.298-.015-.315-.015-.324-.02-.335-.02-.346-.023-.36-.026-.367-.028-.38-.03-.39-.037-.4-.038-.41-.04-.423-.046-.43-.046-.44-.054-.45-.056-.46-.03-.234-.03-.236-.032-.238-.03-.24-.036-.244-.034-.244-.036-.246-.038-.25-.038-.25-.04-.254-.04-.256-.042-.256-.043-.26-.045-.262-.046-.263-.047-.267-.048-.266-.05-.27-.05-.272-.055-.274-.053-.275-.054-.277-.056-.28-.058-.28-.058-.283-.06-.284-.063-.29-.062-.29-.063-.287-.068-.292-.068-.292-.07-.295-.07-.298-.073-.297-.075-.3-.076-.3-.078-.302-.08-.305-.08-.305-.08-.308-.086-.31-.085-.31-.087-.313-.09-.313-.09-.314-.092-.316-.093-.318-.096-.318-.1-.32-.096-.323-.1-.32-.104-.326-.108-.325-.107-.326-.108-.327-.11-.33-.114-.33-.115-.33-.116-.332-.118-.332-.12-.334-.122-.337-.124-.337-.128-.337-.13-.338-.13-.34-.132-.34-.136-.342-.137-.34-.14-.345-.14-.345-.145-.344-.147-.345-.147-.345-.15-.348-.152-.348-.154-.348-.157-.35-.16-.35-.162-.35-.163-.353-.168-.35-.17-.354-.172-.352-.173-.355-.176-.356-.18-.354-.18-.356-.18-.357-.187-.355-.19-.356-.19-.358-.193-.358-.196-.357-.197-.358-.202-.36-.203-.36-.207-.36-.208-.36-.212-.36-.213-.36-.217-.36-.22-.36-.222-.36-.225-.36-.227-.363-.23-.362-.233-.36-.235-.364-.24-.36-.24-.362-.243-.364-.248-.36-.25-.362-.254-.363-.257-.36-.26-.363-.262-.363-.263-.36-.267-.364-.272-.36-.274-.36-.276-.36-.28-.36-.282-.363-.287-.362-.29-.36-.292-.36-.294-.357-.3-.36-.3-.36-.307-.357-.308-.357-.31-.36-.316-.357-.318-.358-.32-.358-.325-.356-.328-.354-.33-.355-.338-.353-.337-.354-.34-.352-.347-.352-.348-.352-.35-.352-.357-.352-.177-.174-.18-.176-.18-.175-.18-.174-.184-.175-.185-.173-.185-.174-.184-.174-.185-.175-.186-.173-.188-.17-.19-.176-.19-.172-.19-.172-.19-.174-.192-.172-.194-.172-.192-.172-.196-.172-.194-.173-.198-.17-.196-.17-.2-.17-.2-.17-.2-.173-.2-.17-.204-.17-.203-.17-.202-.17-.205-.168-.208-.17-.206-.17-.21-.17-.207-.165-.21-.17-.21-.167-.212-.167-.212-.166-.213-.17-.215-.166-.215-.164-.215-.167-.218-.17-.218-.164-.22-.165-.22-.164-.22-.165-.223-.165-.223-.164-.223-.164-.225-.164-.228-.163-.225-.163-.23-.164-.228-.162-.23-.16-.233-.164-.232-.16-.232-.16-.233-.163-.17-.115-.1.056-.174.105-.182.11-.192.12-.2.124-.21.135-.22.14-.23.147-.236.155-.244.163-.253.17-.263.178-.268.184-.278.194-.282.2-.29.21-.298.216-.304.225-.312.233-.318.24-.323.247-.33.26-.337.265-.168.135-.172.136-.174.14-.174.14-.175.145-.176.148-.18.148-.18.15-.18.152-.182.154-.182.157-.183.157-.185.162-.188.16-.187.165-.19.167-.19.17-.19.172-.192.174-.192.176-.195.177-.194.18-.197.183-.196.184-.197.186-.2.19-.2.19-.2.195-.2.196-.2.197-.204.2-.204.203-.206.204-.205.208-.205.21-.207.21-.207.213-.206.217-.21.22-.207.22-.208.223-.21.225-.21.227-.21.23-.214.232-.21.236-.213.235-.21.242-.216.24-.212.245-.214.248-.212.248-.212.253-.215.25-.213.256-.216.26-.214.26-.214.265-.216.266-.214.268-.215.272-.214.273-.215.275-.215.278-.215.28-.215.285-.215.284-.215.29-.215.29-.215.293-.215.295-.213.3-.215.3-.215.304-.214.306-.212.31-.214.31-.212.314-.213.317-.213.32-.213.323-.212.324-.21.326-.21.33-.21.332-.213.336-.21.34-.21.34-.207.342-.21.347-.206.346-.21.35-.204.353-.206.355-.205.36-.206.36-.203.365-.202.366-.2.37-.2.374-.2.375-.2.377-.2.38-.198.384-.197.388-.197.39-.196.39-.195.395-.192.397-.193.4-.19.405-.19.406-.19.41-.187.41-.188.416-.185.416-.184.42-.184.424-.184.427-.18.43-.18.43-.178.437-.178.436-.177.44-.174.445-.173.448-.172.45-.17.452-.17.455-.166.458-.168.46-.163.467-.163.467-.162.47-.16.474-.158.478-.157.478-.155.484-.155.485-.152.488-.15.493-.15.494-.145.496-.144.503-.145.5-.14.51-.142.51-.136.512-.136.516-.132.52-.133.522-.13.527-.128.528-.127.53-.127.538-.12.538-.12.542-.12.545-.114.547-.116.553-.112.554-.11.557-.107.56-.104.565-.103.57-.1.57-.098.572-.097.578-.093.58-.09.584-.09.587-.085.594-.085.593-.08.597-.08.6-.077.603-.07.582.1.04.23.086.244.092.258.096.27.1.282.103.294.108.31.11.32.115.33.115.347.12.356.122.368.124.38.13.39.13.403.13.412.133.425.135.435.136.447.14.456.137.47.14.475.143.49.14.496.143.51.143.517.143.527.144.537.143.547.143.556.142.564.143.576.14.288.072.293.07.296.07.295.07.3.068.3.07.303.068.304.07.308.066.31.068.31.067.314.065.315.067.315.064.32.065.322.064.322.064.323.063.327.065.33.062.33.063.334.06.334.062.337.06.338.06.34.057.34.057.345.057.344.056.35.057.346.055.35.055.352.053.353.052.357.05.356.05.358.05.36.05.362.047.363.045.36.046.367.046.367.044.37.04.37.042.372.042.372.04.374.037.374.04.377.036.38.034.38.034.38.033.382.03.383.03.386.03.386.028.387.026.39.025.387.022.392.022.39.02.395.02.395.016.393.015.397.017.398.013.398.012.4.01.4.01.4.004.405.006.402.005h.81z" fill="#595959"/><path fill="#595959" d="M315.574 146.23h5v53.906h-5zm-82.07 148.878l-2.296-4.442 44.58-23.044 2.294 4.442-44.58 23.044zm167.673-.015L355.54 270.72l2.355-4.413 45.638 24.374-2.356 4.415z"/><path d="M404.25 292.894l-5-.016v-.244l-.003-.318-.004-.205-.005-.233-.005-.268-.008-.3-.01-.33-.015-.36-.015-.39-.02-.42-.02-.446-.025-.476-.03-.504-.032-.532-.036-.555-.042-.587-.046-.613-.024-.314-.028-.323-.026-.328-.03-.337-.03-.34-.03-.348-.034-.355-.034-.362-.034-.366-.038-.372-.04-.378-.04-.386-.04-.39-.045-.396-.042-.403-.047-.408-.05-.415-.05-.42-.05-.425-.054-.43-.057-.437-.058-.442-.06-.445-.06-.453-.064-.458-.065-.463-.066-.47-.07-.473-.07-.48-.075-.482-.077-.49-.077-.494-.08-.5-.084-.505-.083-.51-.09-.514-.09-.52-.09-.523-.094-.53-.096-.533-.1-.537-.103-.54-.103-.548-.107-.55-.11-.556-.112-.56-.113-.567-.116-.567-.12-.573-.123-.577-.124-.58-.13-.586-.13-.59-.136-.59-.136-.597-.14-.6-.143-.606-.147-.608-.148-.613-.152-.616-.155-.62-.158-.62-.16-.628-.165-.63-.167-.635-.17-.636-.174-.64-.178-.644-.18-.646-.185-.65-.186-.654-.19-.657-.193-.66-.198-.66-.2-.668-.206-.667-.208-.67-.21-.676-.216-.676-.22-.678-.223-.683-.225-.683-.23-.686-.233-.688-.24-.692-.24-.695-.248-.698-.25-.7-.252-.7-.127-.352-.13-.352-.13-.352-.13-.353-.133-.353-.133-.355-.134-.355-.134-.356-.14-.356-.137-.356-.14-.356-.137-.358-.14-.358-.142-.358-.143-.358-.142-.36-.145-.36-.146-.358-.148-.362-.147-.36-.15-.362-.15-.36-.15-.363-.152-.366-.152-.363-.152-.362-.156-.366-.157-.364-.156-.364-.16-.365-.16-.364-.16-.366-.162-.365-.163-.367-.163-.366-.166-.366-.168-.368-.168-.368-.17-.368-.17-.37-.17-.367-.17-.37-.174-.37-.174-.37-.176-.37-.175-.37-.178-.37-.18-.37-.18-.372-.18-.37-.183-.373-.185-.37-.184-.373-.185-.373-.186-.37-.19-.374-.19-.374-.19-.373-.19-.374-.194-.376-.193-.373-.196-.375-.197-.373-.198-.374-.198-.377-.2-.374-.202-.375-.203-.374-.205-.375-.205-.374-.207-.377-.208-.375-.208-.375-.212-.376-.21-.375-.215-.377-.213-.377-.215-.377-.22-.378-.215-.376-.22-.377-.22-.377-.223-.376-.224-.377-.225-.376-.225-.378-.227-.377-.23-.38-.23-.376-.232-.375-.23-.378-.234-.38-.237-.375-.238-.377-.24-.376-.238-.378-.24-.378-.242-.377-.244-.375-.245-.377-.246-.376-.25-.376-.25-.377-.247-.38-.253-.376-.254-.377-.255-.374-.254-.376-.256-.378-.26-.378-.26-.377-.262-.376-.264-.378-.263-.375-.265-.377-.267-.375-.27-.377-.27-.375-.27-.374-.275-.376-.274-.374-.277-.375-.277-.373-.278-.375-.28-.376-.28-.372-.286-.374-.286-.374-.285-.374-.287-.374-.29-.373-.29-.373-.292-.372-.29-.37-.296-.374-.296-.37-.3-.37-.3-.373-.3-.372-.304-.37-.304-.37-.304-.37-.308-.37-.308-.37-.31-.37-.313-.37-.314-.37-.315-.367-.316-.37-.318-.368-.32-.366-.322-.37-.322-.366-.324-.365-.325-.368-.327-.366-.328-.366-.33-.364-.333-.364-.334-.365-.336-.362-.337-.365-.337-.364-.34-.364-.343-.362-.344-.36-.344-.364-.348-.36-.35-.36-.35-.36-.35-.36-.354-.36-.354-.36-.36-.357-.357-.358-.36-.36-.363-.355-.363-.357-.365-.356-.367-.356-.368-.353-.37-.355-.373-.353-.374-.356-.374-.353-.378-.352-.38-.35-.38-.352-.38-.35-.385-.35-.385-.35-.387-.35-.39-.348-.39-.348-.39-.348-.396-.346-.395-.346-.4-.346-.4-.344-.4-.344-.4-.344-.408-.342-.406-.343-.407-.342-.41-.34-.414-.34-.413-.34-.416-.34-.415-.337-.42-.338-.42-.338-.423-.335-.425-.336-.427-.334-.43-.334-.43-.333-.43-.333-.434-.332-.435-.33-.437-.33-.44-.33-.44-.33-.443-.328-.443-.327-.446-.327-.45-.326-.45-.325-.45-.324-.453-.324-.456-.322-.457-.322-.46-.322-.462-.32-.462-.32-.465-.318-.468-.318-.47-.317-.47-.315-.472-.315-.475-.315-.477-.313-.48-.313-.48-.314-.48-.31-.486-.312-.486-.308-.49-.31-.49-.305-.49-.307-.5-.307 2.632-4.253.502.312.506.314.5.316.504.316.5.316.496.318.497.32.492.32.49.32.49.323.488.324.487.326.484.325.48.325.48.327.48.327.475.328.477.33.472.33.47.33.47.332.464.333.465.334.462.335.46.334.46.336.46.338.453.337.454.338.45.34.45.34.448.34.446.34.443.343.442.345.44.344.436.344.436.347.436.346.433.35.43.345.43.35.43.347.424.35.423.35.422.35.42.353.42.353.414.353.415.354.412.354.41.354.41.358.408.353.406.36.404.356.4.357.402.36.397.357.4.363.393.36.394.36.392.362.387.36.39.363.384.362.386.363.382.365.38.366.38.363.377.367.376.366.375.367.373.368.37.367.37.37.366.368.368.37.363.37.364.37.357.37.36.372.356.37.356.373.352.373.353.374.35.373.348.373.348.375.346.374.346.373.342.377.34.376.338.376.337.377.335.376.333.377.332.378.33.38.33.38.328.376.325.38.325.38.322.38.32.38.32.38.318.38.317.382.314.38.314.382.31.38.31.382.31.382.306.383.306.382.303.382.302.384.302.383.3.384.297.384.296.383.295.385.293.385.292.384.29.385.288.385.287.386.286.386.283.387.283.386.28.385.28.387.278.386.278.385.274.387.272.387.272.386.27.387.27.387.266.388.267.388.264.387.263.387.262.39.26.386.258.387.258.39.256.386.256.385.254.39.253.387.25.39.25.387.247.39.246.386.244.388.244.39.243.387.24.39.24.386.236.388.236.39.237.387.233.39.233.386.232.388.23.39.228.386.227.387.225.39.226.39.223.385.222.387.22.387.22.385.216.387.217.387.214.385.215.387.21.385.212.387.21.386.208.387.208.385.208.387.204.383.203.386.203.384.202.384.2.384.197.384.198.383.196.383.196.384.192.383.193.383.193.384.19.382.188.38.19.382.185.382.186.382.185.382.182.38.18.38.18.38.18.38.178.38.177.38.177.377.173.378.175.38.172.377.17.378.17.38.167.375.17.376.164.375.166.375.164.378.163.373.16.378.16.375.16.374.157.373.16.373.154.372.156.372.155.372.153.37.153.37.15.37.15.37.148.37.146.37.146.365.146.368.144.368.142.37.143.365.14.365.14.366.138.365.138.366.14.364.135.362.133.363.132.362.133.36.132.364.26.72.255.72.252.713.248.712.245.71.24.707.234.706.232.702.228.7.224.697.22.694.217.69.214.69.21.685.208.682.203.68.2.676.196.672.19.67.19.667.187.665.18.66.18.657.176.654.17.65.17.647.164.643.162.64.157.633.156.634.153.628.148.623.147.62.145.617.14.613.136.61.135.603.132.6.127.596.126.59.122.59.12.583.116.58.115.573.112.57.11.566.107.56.104.557.1.55.1.55.098.543.092.535.093.535.09.527.085.522.086.518.08.514.08.508.08.502.076.5.074.49.07.49.07.482.07.476.063.472.062.466.062.46.058.455.06.45.054.443.05.437.053.434.05.425.05.42.046.416.045.408.043.405.04.395.04.39.04.386.034.38.037.372.032.366.033.36.03.353.03.348.03.34.027.335.026.33.045.632.043.61.037.58.034.553.03.525.027.497.023.468.02.44.017.41.013.38.013.348.008.32.01.288.004.26.004.226.003.35.002.22-.002.075z" fill="#595959"/></svg>