<svg viewBox="0 0 600 594" xmlns="http://www.w3.org/2000/svg" fill-rule="evenodd" clip-rule="evenodd" stroke-linejoin="bevel" stroke-miterlimit="1.414"><path d="M309.808 1086.906L96.962 964.02V718.246L309.808 595.36l212.846 122.886V964.02l-212.846 122.886zm0-11.547l202.846-117.12V724.02L309.808 606.907 106.962 724.02v234.226l202.846 117.113zm1.962-583.58L98.924 368.89V123.12L311.77.23l212.846 122.89v245.773L311.77 491.78zm0-11.55l202.846-117.11V128.89L311.77 11.78 108.924 128.893V363.12L311.77 480.232z" fill="#595959"/><path d="M259.808 490v260" fill="none" stroke-width="9.15" stroke-dasharray="18.3,9.15,0,0" stroke="#595959" transform="matrix(.6198 0 0 .46154 148.778 254.98)"/><path d="M311.77 980V740L103.922 626.93" fill="none" stroke-width="5.09" stroke-linecap="square" stroke-linejoin="round" stroke="#595959" transform="matrix(-.9741 0 0 -.99136 620.845 988.425)"/><path d="M311.77 740l207.845-120" fill="none" stroke-width="5.28" stroke-linecap="square" stroke-linejoin="round" stroke="#595959" transform="matrix(-.97633 0 0 -.91547 616.16 930.434)"/><path d="M281.594 739.686l82.137 47.422 82.14-47.422v-94.843l-82.13-47.42-82.13 47.42v94.843z" fill="#fff"/><path d="M363.73 789.995l-84.636-48.865V643.4l84.637-48.865 84.64 48.865v97.73l-84.63 48.865zm0-5.774l79.637-45.97v-91.96l-79.637-45.98-79.635 45.98v91.96l79.637 45.98z" fill="#595959"/><path d="M133.707 382.803L346.41 260M168.348 402.803L381.05 280M200.02 424.517l212.702-122.803m-180.196 144.6L445.228 323.51M269.41 465.312l209.415-120.906m3.285 38.397L269.41 260m178.06 142.803L234.77 280M415.8 424.517L210.65 306.075m172.643 140.24l-205.84-118.843" fill="none" stroke-width="2" stroke-linejoin="miter" stroke-miterlimit="10" stroke="#595959"/><path d="M133.707 382.804L346.41 260" fill="none" stroke-width="2.05" stroke-linejoin="miter" stroke-miterlimit="10" stroke="#595959" transform="matrix(-.97716 0 0 .97307 477.064 92.82)"/><path d="M279.58 25.044V270.65M244.94 45.044V290.65M210.3 61.615l-.002 245.607m-35.13-228.355v245.608M140.273 101.31v245.607m-34.895-20.147L318.08 203.967M105.378 286.77L318.08 163.968m-215.67 84.517l205.147-118.442M99.784 209.435L315.16 85.088" fill="none" stroke-width="2" stroke-linejoin="miter" stroke-miterlimit="10" stroke="#595959"/><path d="M133.707 382.804l220.89-127.55" fill="none" stroke-width="2.05" stroke-linejoin="miter" stroke-miterlimit="10" stroke="#595959" transform="matrix(.48858 -.84625 -.8427 -.48653 359.036 467.392)"/><path d="M354.427 26.09v245.607m34.64-225.607v245.607M423.71 71.783V312.45m35.13-220.333V332.51m34.893-223.292v243m28.197-28.268L315.926 205.012m203.69 77.6l-203.69-117.6m203.688 77.6L326.45 131.09m193.164 70.958L318.846 86.134" fill="none" stroke-width="2" stroke-linejoin="miter" stroke-miterlimit="10" stroke="#595959"/><path d="M147.067 375.576l207.53-120.322" fill="none" stroke-width="2.05" stroke-linejoin="miter" stroke-miterlimit="10" stroke="#595959" transform="matrix(-.48858 -.84625 .8427 -.48653 274.97 468.438)"/><path d="M436.076 245c0-65.248-52.893-118.14-118.14-118.14-65.246 0-118.14 52.892-118.14 118.14 0 65.247 52.894 118.14 118.14 118.14 65.247 0 118.14-52.893 118.14-118.14" fill="#fff" fill-rule="nonzero"/><path d="M316.665 364.64h-.39l-.39-.002-.39-.004-.39-.005-.388-.01-.388-.01-.39-.01-.39-.01-.39-.01-.39-.02-.39-.01-.39-.02-.39-.02-.39-.02-.39-.02-.39-.02-.39-.02-.39-.02-.39-.03-.38-.03-.39-.02-.39-.03-.38-.03-.38-.03-.38-.03-.38-.03-.388-.03-.38-.03-.38-.04-.385-.036-.38-.04-.38-.04-.38-.04-.38-.04-.38-.04-.376-.043-.38-.043-.38-.05-.38-.045-.377-.047-.38-.05-.378-.05-.38-.05-.38-.05-.378-.06-.375-.06-.378-.05-.38-.06-.37-.056-.38-.06-.374-.06-.374-.06-.37-.06-.37-.06-.37-.07-.37-.06-.37-.063-.37-.07-.37-.07-.37-.07-.37-.07-.37-.07-.364-.075-.367-.07-.37-.076-.37-.077-.366-.08-.37-.08-.367-.08-.37-.08-.367-.086-.37-.08-.36-.085-.365-.084-.365-.09-.366-.09-.36-.09-.367-.09-.36-.09-.36-.09-.36-.094-.36-.1-.36-.094-.36-.1-.36-.1-.36-.1-.35-.1-.36-.1-.355-.103-.36-.105-.356-.105-.36-.104-.36-.104-.35-.11-.36-.104-.356-.11-.35-.11-.35-.112-.355-.11-.35-.11-.356-.115-.35-.115-.353-.114-.35-.116-.35-.12-.35-.12-.346-.12-.35-.12-.35-.12-.345-.12-.35-.13-.35-.12-.348-.13-.34-.13-.343-.13-.346-.13-.34-.134-.343-.13-.34-.14-.345-.132-.343-.134-.34-.137-.34-.14-.34-.14-.344-.14-.34-.14-.34-.14-.33-.15-.34-.14-.34-.14-.34-.15-.334-.15-.34-.15-.34-.15-.337-.15-.338-.15-.33-.15-.336-.15-.333-.157-.33-.15-.33-.16-.33-.16-.33-.158-.33-.16-.33-.16-.33-.16-.326-.16-.33-.16-.33-.17-.324-.17-.327-.17-.32-.17-.325-.166-.32-.168-.326-.17-.32-.17-.33-.17-.32-.17-.32-.176-.32-.17-.32-.175-.32-.176-.32-.175-.32-.17-.316-.18-.32-.18-.32-.18-.32-.18-.31-.18-.314-.18-.31-.186-.314-.18-.31-.19-.31-.19-.32-.19-.31-.19-.31-.19-.31-.19-.31-.19-.31-.198-.31-.195-.31-.19-.3-.192-.31-.195-.31-.2-.303-.198-.31-.2-.306-.2-.3-.2-.305-.2-.3-.203-.3-.2-.3-.2-.304-.208-.3-.2-.3-.21-.294-.21-.3-.2-.296-.21-.293-.21-.296-.21-.294-.218-.297-.21-.29-.21-.293-.22-.29-.21-.29-.214-.29-.214-.29-.22-.29-.22-.29-.22-.284-.22-.285-.22-.286-.22-.284-.22-.286-.22-.284-.225-.28-.22-.287-.23-.28-.225-.28-.23-.28-.228-.28-.23-.28-.23-.28-.23-.28-.237-.275-.23-.28-.23-.274-.23-.272-.23-.273-.23-.274-.24-.28-.235-.28-.24-.27-.24-.27-.24-.27-.24-.27-.24-.27-.246-.27-.24-.27-.24-.26-.248-.263-.242-.266-.24-.26-.242-.26-.25-.26-.247-.26-.25-.262-.25-.26-.25-.26-.25-.26-.25-.26-.254-.25-.255-.256-.26-.254-.254-.25-.26-.25-.25-.253-.26-.25-.26-.255-.26-.25-.26-.25-.26-.25-.26-.25-.266-.245-.266-.25-.266-.25-.26-.25-.266-.25-.268-.24-.27-.247-.27-.244-.27-.24-.264-.247-.27-.24-.27-.24-.27-.24-.272-.24-.27-.24-.27-.236-.27-.24-.274-.237-.272-.235-.276-.234-.276-.233-.28-.23-.28-.23-.28-.23-.28-.23-.28-.23-.28-.23-.28-.22-.28-.23-.29-.223-.28-.225-.285-.22-.285-.223-.29-.22-.284-.22-.29-.22-.29-.22-.28-.22-.29-.215-.29-.216-.29-.22-.29-.217-.29-.21-.29-.213-.295-.214-.3-.21-.3-.21-.294-.21-.293-.21-.3-.207-.294-.21-.3-.208-.3-.206-.3-.21-.3-.203-.3-.202-.308-.203-.3-.2-.3-.2-.3-.2-.308-.2-.302-.2-.304-.194-.3-.193-.304-.19-.303-.196-.31-.19-.31-.19-.31-.195-.31-.19-.31-.19-.313-.19-.31-.19-.31-.186-.313-.19-.31-.187-.31-.184-.313-.18-.314-.185-.31-.18-.31-.18-.32-.18-.318-.17-.32-.178-.32-.18-.32-.17-.32-.18-.32-.173-.322-.177-.32-.17-.32-.17-.32-.17-.32-.17-.328-.17-.33-.16-.327-.16-.323-.165-.324-.166-.33-.166-.33-.17-.33-.16-.33-.162-.33-.153-.33-.16-.33-.156-.33-.15-.33-.15-.33-.155-.33-.15-.33-.15-.335-.15-.33-.15-.34-.15-.33-.15-.338-.145-.34-.15-.33-.145-.34-.143-.34-.14-.337-.14-.34-.14-.337-.14-.34-.14-.34-.14-.34-.14-.34-.13-.34-.13-.34-.13-.345-.136-.34-.13-.344-.13-.344-.13-.34-.13-.35-.123-.343-.125-.346-.13-.346-.13-.344-.123-.35-.12-.35-.123-.35-.12-.35-.12-.35-.12-.35-.117-.35-.115-.35-.12-.356-.11-.35-.11-.36-.115-.355-.11-.35-.11-.36-.11-.355-.11-.36-.108-.36-.11-.358-.11-.36-.104-.357-.1-.36-.103-.36-.1-.36-.1-.35-.1-.36-.1-.36-.093-.36-.1-.36-.096-.36-.09-.36-.09-.36-.09-.366-.09-.36-.09-.36-.09-.366-.08-.37-.084-.365-.087-.366-.087-.366-.084-.36-.08-.363-.085-.362-.08-.366-.08-.37-.08-.37-.075-.363-.072-.37-.073-.368-.08-.37-.07-.37-.07-.37-.07-.37-.065-.37-.07-.37-.067-.37-.06-.377-.07-.37-.063-.374-.06-.37-.06-.375-.056-.38-.06-.37-.06-.373-.053-.374-.05-.378-.058-.377-.054-.377-.05-.38-.05-.375-.05-.38-.05-.376-.05-.38-.045-.377-.04-.38-.04-.38-.04-.38-.045-.373-.04-.38-.038-.38-.034-.38-.035-.38-.04-.384-.033-.38-.03-.38-.03-.38-.03-.39-.03-.38-.03-.38-.026-.385-.026-.383-.023-.38-.02-.384-.02-.39-.02-.386-.02-.39-.02-.386-.01-.39-.013-.386-.017-.39-.01-.387-.01-.388-.01-.39-.01-.39-.01-.39-.005-.39-.003-.39v-.38l-.006-.39v-1.56l.008-.39.004-.39V242l.01-.39.01-.39.01-.387.01-.39.01-.39.01-.383.014-.383.015-.387.014-.39.02-.385.018-.383.02-.39.02-.39.02-.385.027-.387.026-.384.03-.384.03-.385.03-.38.03-.384.03-.38.03-.38.038-.382.04-.38.033-.38.035-.38.037-.38.04-.37.04-.38.046-.38.04-.37.044-.38.044-.37.047-.38.045-.38.05-.37.05-.37.05-.376.06-.373.05-.37.05-.374.06-.374.056-.38.06-.37.06-.375.06-.376.06-.37.06-.38.066-.37.062-.377.064-.37.063-.37.07-.38.07-.37.07-.37.07-.37.07-.37.07-.363.07-.37.08-.37.08-.37.08-.37.08-.366.08-.37.08-.36.083-.36.084-.368.086-.36.083-.37.09-.364.09-.365.09-.364.09-.36.09-.36.094-.36.095-.364.097-.36.1-.36.098-.36.097-.36.1-.36.1-.36.1-.36.107-.36.104-.36.1-.356.105-.355.106-.36.11-.357.11-.36.11-.357.11-.357.11-.35.113-.357.113-.35.118-.35.114-.35.114-.35.12-.35.12-.35.12-.35.124-.35.12-.35.12-.35.12-.345.13-.35.13-.347.125-.35.13-.35.13-.345.13-.344.135-.345.133-.34.14-.342.132-.34.134-.34.14-.34.14-.34.134-.34.14-.34.14-.34.144-.34.14-.34.146-.34.148-.334.146-.34.15-.33.15-.34.15-.333.15-.336.15-.336.15-.338.15-.33.15-.33.157-.333.16-.33.155-.33.16-.33.16-.33.16-.33.16-.33.16-.33.16-.33.16-.328.16-.328.166-.32.16-.32.17-.33.17-.325.17-.325.17-.32.17-.32.17-.32.17-.32.17-.32.18-.32.17-.32.18-.32.174-.32.18-.32.18-.32.18-.315.18-.316.18-.314.183-.318.18-.31.18-.31.184-.318.188-.315.183-.31.19-.316.19-.31.19-.31.193-.306.19-.31.19-.31.194-.308.193-.31.195-.305.2-.306.196-.31.2-.3.2-.3.2-.31.2-.3.2-.3.2-.3.207-.31.207-.3.21-.3.2-.3.21-.3.207-.3.21-.3.21-.3.21-.29.21-.29.218-.297.218-.293.214-.29.212-.29.22-.29.212-.29.22-.29.22-.29.22-.29.22-.29.23-.29.22-.29.225-.28.22-.288.23-.284.23-.28.23-.28.225-.28.226-.28.23-.28.23-.28.23-.28.23-.28.235-.28.23-.28.234-.277.234-.276.23-.28.24-.28.24-.27.24-.27.233-.27.24-.27.237-.27.24-.27.242-.27.24-.27.243-.26.247-.27.24-.27.246-.264.242-.266.25-.27.25-.26.25-.26.25-.26.248-.26.25-.26.256-.26.252-.26.25-.26.255-.258.257-.26.25-.25.252-.255.253-.252.26-.25.26-.26.26-.25.26-.255.26-.25.26-.25.26-.243.26-.25.262-.25.264-.24.26-.25.26-.248.266-.245.27-.244.268-.24.27-.246.27-.24.27-.24.27-.24.27-.24.274-.24.27-.24.28-.234.27-.236.276-.24.27-.235.28-.23.28-.23.28-.23.275-.23.28-.23.28-.23.28-.23.28-.23.287-.226.286-.23.29-.223.284-.223.29-.22.282-.23.29-.22.29-.22.28-.22.29-.22.29-.22.29-.214.29-.217.29-.215.29-.212.296-.21.295-.22.29-.21.29-.21.3-.21.296-.21.29-.21.295-.21.293-.205.3-.21.3-.205.3-.2.3-.206.3-.2.304-.2.307-.2.3-.2.305-.2.3-.194.3-.2.3-.19.31-.2.305-.19.31-.19.31-.19.31-.19.31-.19.31-.19.31-.19.31-.19.31-.19.318-.188.316-.186.31-.19.313-.18.318-.18.31-.18.315-.18.315-.18.32-.18.312-.18.32-.18.32-.177.32-.174.32-.18.32-.17.32-.17.323-.17.326-.17.32-.17.325-.17.323-.17.326-.165.32-.166.33-.16.324-.167.32-.16.33-.16.33-.16.33-.16.33-.16.33-.16.33-.16.33-.16.33-.15.34-.16.33-.154.332-.156.33-.15.336-.15.34-.15.335-.15.34-.15.335-.145.33-.148.336-.14.34-.144.337-.14.34-.14.34-.14.34-.14.34-.14.35-.14.34-.14.34-.135.34-.137.34-.13.35-.13.345-.13.34-.13.343-.13.35-.13.344-.123.35-.12.35-.13.347-.124.35-.124.35-.12.35-.12.35-.126.35-.12.35-.11.35-.11.35-.114.35-.116.35-.11.36-.114.353-.112.352-.11.352-.11.35-.107.355-.11.354-.106.36-.1.355-.103.36-.11.358-.106.357-.1.357-.1.36-.095.36-.092.36-.1.36-.09.36-.098.36-.09.36-.09.36-.09.36-.09.365-.09.36-.09.363-.08.37-.087.36-.085.37-.08.365-.08.363-.08.367-.09.37-.077.366-.08.37-.08.37-.077.367-.07.37-.07.37-.07.37-.07.37-.07.37-.07.37-.07.37-.068.375-.062.37-.066.38-.07.37-.06.37-.06.37-.06.37-.06.374-.056.38-.058.37-.053.38-.053.38-.05.38-.05.37-.05.377-.045.377-.05.38-.046.38-.05.38-.043.38-.045.38-.04.38-.04.38-.04.38-.04.38-.034.38-.03.38-.03.38-.037.38-.04.38-.03.38-.03.38-.03.382-.03.38-.03.38-.02.38-.03.385-.03.386-.026.387-.02.39-.02.386-.02.39-.02.384-.01.39-.018.39-.015.386-.01.387-.01.388-.01.39-.01.39-.01.385-.005.39-.01.386-.003h1.955l.39.002h.78l.39.01.39.005.383.01.383.01.39.01.39.015.38.017.386.018.38.02.384.02.386.02.39.02.383.02.39.02.38.03.384.026.38.02.385.03.38.03.38.03.385.03.38.03.38.038.38.03.38.04.38.034.38.04.38.04.38.04.38.04.38.04.38.045.376.044.38.045.38.05.38.05.37.05.38.054.376.05.37.055.37.06.38.06.37.06.376.058.373.06.375.06.378.06.377.06.37.065.37.07.37.07.377.07.37.07.37.07.37.07.37.07.37.073.37.074.37.08.37.08.37.074.37.08.36.08.37.082.366.08.366.08.367.087.36.088.37.088.36.086.367.09.367.09.363.09.36.09.36.094.36.095.36.094.36.096.36.1.36.1.36.1.36.1.36.1.356.11.36.1.36.1.36.11.357.102.36.11.356.104.354.11.35.11.35.11.35.115.35.11.355.115.35.115.35.115.35.12.355.12.35.12.35.12.35.13.35.13.346.125.35.13.346.124.35.13.35.13.35.13.345.13.34.13.35.13.34.14.34.13.345.13.34.134.34.13.34.14.34.14.34.14.335.14.34.14.34.15.34.144.338.15.338.15.34.15.34.14.335.15.33.15.33.15.334.15.332.155.33.15.33.154.33.16.33.16.33.16.33.16.33.16.325.16.33.16.33.16.322.16.33.16.324.17.324.165.33.17.33.17.32.17.32.17.32.17.32.17.32.177.32.17.32.18.32.18.32.174.316.18.316.18.31.18.32.18.315.18.313.18.312.187.313.18.31.19.31.185.317.19.31.19.31.19.31.19.31.19.31.19.31.19.31.19.31.197.302.2.3.2.3.2.307.2.3.2.3.197.306.205.3.2.3.204.3.2.3.208.293.202.3.21.3.205.29.21.294.21.298.21.3.21.29.21.294.214.29.21.297.213.29.21.29.22.29.215.29.22.29.22.29.22.29.22.29.22.283.22.29.22.29.222.282.225.286.226.28.23.286.225.28.23.28.23.28.23.28.23.28.23.28.23.275.24.275.23.274.23.276.233.275.235.278.236.272.24.272.24.27.24.27.24.27.24.27.24.27.24.27.25.27.245.267.246.262.25.266.244.27.24.264.25.26.25.26.25.27.25.26.25.26.26.26.25.254.25.253.253.26.254.253.258.254.253.254.26.25.26.25.26.256.257.25.26.25.26.25.26.25.263.25.26.247.264.248.268.246.27.245.27.245.262.24.268.24.27.24.27.24.27.24.27.24.27.24.273.234.27.24.27.24.28.24.27.23.276.233.274.23.276.236.28.23.27.23.28.23.28.23.28.23.28.23.284.23.28.225.286.222.28.223.288.225.29.223.284.22.286.22.287.22.29.22.29.22.29.22.29.214.29.21.29.216.296.213.29.215.29.21.296.21.29.21.29.21.297.21.3.205.296.21.3.205.296.2.3.21.3.206.3.2.3.206.3.2.3.2.302.2.302.2.305.2.304.2.304.19.31.197.302.197.307.192.31.19.31.19.31.19.31.19.31.19.31.184.31.19.315.19.312.183.31.19.316.182.314.185.31.18.314.18.318.18.32.18.32.17.32.176.32.18.32.18.32.175.32.17.322.17.32.17.323.17.32.17.324.17.324.165.325.164.324.17.325.164.327.16.325.16.33.16.327.16.33.16.322.16.33.16.33.15.33.15.33.154.33.15.333.156.33.15.33.15.34.15.33.15.334.14.336.15.34.14.34.147.34.14.34.14.34.14.34.14.34.14.34.14.34.133.34.14.34.135.34.136.346.135.34.13.34.13.348.13.346.13.345.13.35.13.345.126.35.122.35.124.35.12.35.124.35.12.35.12.35.12.35.12.35.117.35.12.35.113.353.113.354.117.355.11.35.11.353.11.35.11.353.106.35.106.357.104.354.107.36.106.36.104.356.094.36.1.358.1.36.1.36.09.36.1.36.09.36.092.36.093.36.09.36.09.36.09.366.086.364.09.363.083.366.08.36.08.367.08.364.08.37.08.37.08.366.08.367.07.37.074.37.08.366.07.366.07.37.07.37.07.37.07.37.07.37.06.37.07.37.066.37.063.373.066.377.06.37.06.37.06.38.06.374.05.374.06.38.056.372.05.37.058.377.05.375.05.38.05.372.05.38.05.374.04.38.04.38.05.38.04.38.04.38.04.38.036.38.04.38.04.38.03.38.03.39.036.383.03.38.03.38.03.384.02.38.023.387.02.39.023.39.02.382.02.387.02.38.02.383.02.387.01.39.013.39.01.38.01.39.02.39.01.384.01.39.005.386.01.39v.77l.003.39v1.56l-.005.39-.007.39-.004.39-.01.39-.01.39-.01.39-.01.39-.01.39-.01.387-.014.39-.016.383-.01.386-.02.383-.02.39-.02.387-.025.388-.02.38-.025.38-.028.385-.027.38-.03.385-.03.382-.03.38-.03.383-.033.38-.03.38-.04.385-.034.38-.03.38-.04.38-.04.38-.04.38-.048.38-.045.38-.044.38-.045.373-.04.38-.05.377-.05.376-.05.38-.05.374-.056.38-.05.375-.057.375-.053.374-.06.37-.06.37-.06.376-.06.376-.066.37-.06.37-.065.37-.063.37-.068.37-.07.37-.07.37-.065.37-.07.37-.07.37-.075.37-.07.37-.073.37-.078.37-.08.37-.08.37-.08.363-.08.366-.08.363-.08.36-.082.367-.08.37-.09.36-.09.364-.09.36-.09.36-.09.36-.09.36-.09.36-.09.36-.093.36-.09.36-.1.36-.1.36-.1.36-.1.354-.1.36-.1.356-.104.36-.104.36-.106.36-.11.35-.11.36-.11.352-.11.35-.11.353-.11.354-.114.35-.114.353-.115.35-.12.35-.114.35-.12.35-.12.35-.12.35-.12.35-.125.35-.12.35-.127.347-.13.35-.125.35-.13.343-.128.344-.13.35-.13.347-.13.346-.13.347-.13.34-.138.343-.134.34-.14.34-.137.34-.14.34-.14.34-.14.34-.14.34-.15.336-.15.34-.14.34-.14.34-.15.335-.15.33-.15.33-.15.334-.15.34-.15.34-.154.332-.15.337-.16.33-.152.336-.16.33-.16.33-.16.33-.16.33-.16.33-.16.33-.16.33-.162.327-.16.33-.166.327-.17.325-.17.322-.17.323-.17.32-.17.32-.17.32-.17.32-.17.32-.175.32-.18.32-.18.32-.18.32-.177.32-.18.32-.18.32-.18.32-.18.317-.18.316-.184.318-.186.31-.182.32-.19.31-.185.318-.19.31-.19.31-.19.31-.19.31-.19.31-.19.31-.19.3-.19.31-.197.308-.193.3-.194.308-.2.307-.195.303-.2.303-.2.3-.2.3-.2.304-.2.3-.204.3-.204.3-.2.3-.202.3-.21.3-.204.295-.21.3-.21.3-.21.29-.21.296-.21.29-.216.29-.21.29-.213.29-.22.29-.21.294-.22.29-.22.29-.22.29-.22.283-.22.29-.223.285-.225.29-.22.29-.222.283-.23.29-.23.28-.23.28-.22.28-.23.28-.23.28-.23.28-.23.28-.23.273-.232.28-.23.276-.24.275-.23.274-.24.273-.24.277-.24.273-.24.27-.24.27-.24.27-.24.27-.243.27-.24.27-.24.27-.25.26-.245.264-.24.27-.25.267-.243.26-.243.265-.25.266-.25.26-.25.26-.25.263-.258.26-.25.26-.25.26-.25.254-.257.26-.254.254-.26.252-.255.253-.26.258-.26.256-.26.25-.26.25-.26.25-.26.25-.26.25-.26.25-.265.25-.267.24-.27.25-.264.244-.27.247-.27.25-.27.243-.27.24-.27.24-.27.24-.27.24-.28.24-.27.24-.27.24-.28.24-.27.234-.275.23-.28.233-.28.23-.27.23-.28.23-.274.23-.28.23-.28.23-.28.23-.28.23-.28.22-.285.23-.285.22-.285.22-.29.22-.285.22-.29.22-.283.22-.29.22-.29.22-.29.22-.29.22-.29.216-.294.22-.29.21-.3.218-.294.22-.29.21-.3.21-.298.21-.292.21-.29.21-.3.205-.3.21-.3.21-.3.208-.3.207-.3.206-.3.2-.307.2-.3.2-.3.2-.3.2-.308.2-.305.196-.31.2-.306.193-.31.197-.304.2-.305.19-.31.193-.31.19-.31.194-.31.19-.31.182-.312.19-.315.19-.314.19-.314.18-.31.18-.32.18-.31.19-.317.18-.32.18-.32.18-.32.18-.32.173-.32.18-.32.18-.32.174-.32.17-.32.18-.32.17-.328.17-.323.17-.32.17-.32.165-.328.17-.326.168-.33.163-.33.16-.33.165-.325.16-.33.16-.33.16-.33.16-.326.16-.33.157-.335.16-.33.153-.338.15-.33.16-.332.154-.33.15-.332.15-.333.15-.335.15-.33.15-.33.145-.338.143-.34.15-.34.14-.34.144-.34.143-.333.14-.34.14-.34.14-.34.137-.34.14-.345.14-.34.13-.346.14-.347.13-.346.13-.342.13-.345.13-.34.13-.35.123-.344.123-.344.13-.35.12-.35.13-.348.12-.35.12-.35.12-.35.12-.357.12-.35.116-.35.12-.353.114-.35.12-.35.113-.358.11-.35.11-.35.11-.355.11-.355.11-.35.1-.354.105-.35.1-.36.1-.36.1-.36.1-.354.1-.36.1-.36.1-.36.095-.36.095-.36.095-.36.09-.36.09-.36.09-.366.09-.364.09-.366.09-.363.083-.364.09-.368.083-.36.085-.365.08-.364.08-.37.08-.365.08-.37.08-.366.08-.37.077-.37.073-.37.07-.37.077-.37.07-.37.07-.37.07-.37.066-.372.065-.37.065-.373.07-.37.06-.37.063-.37.06-.38.06-.37.06-.375.053-.37.05-.38.06-.38.055-.374.05-.38.05-.38.055-.375.05-.38.047-.38.05-.38.05-.375.04-.38.045-.38.04-.38.04-.38.04-.38.04-.38.04-.38.038-.386.04-.38.04-.38.03-.38.033-.38.03-.384.03-.38.026-.385.03-.382.02-.383.022-.388.026-.385.024-.384.02-.388.02-.39.02-.39.02-.386.01-.39.015-.384.01-.385.016-.39.01-.39.01-.38.01-.39.01-.39.01-.39.01h-.39l-.39.004-.39.003h-.382zm0-5h.373l.375-.002.374-.003.373-.004h.745l.373-.01h.372l.372-.01.37-.01.373-.01.372-.01.37-.01.37-.02.37-.02.37-.02.37-.02.37-.02.367-.02.37-.02.368-.02.367-.02.36-.02.37-.03.36-.03.36-.03.36-.03.36-.03.36-.03.37-.04.36-.03.363-.04.367-.034.366-.035.36-.04.36-.04.36-.042.36-.042.365-.042.36-.044.36-.048.36-.05.36-.05.36-.05.36-.05.36-.05.36-.053.36-.05.36-.056.355-.055.36-.06.36-.06.36-.06.356-.06.357-.06.36-.067.35-.063.354-.07.36-.07.353-.07.35-.07.36-.07.35-.07.356-.076.355-.07.35-.074.35-.07.355-.08.35-.08.35-.075.35-.08.35-.08.35-.08.35-.09.35-.084.34-.084.35-.088.346-.09.35-.09.34-.09.348-.09.35-.09.34-.09.35-.09.343-.094.34-.1.345-.093.346-.1.34-.1.34-.1.35-.1.34-.1.345-.1.34-.103.34-.104.34-.105.34-.106.335-.11.34-.11.338-.11.34-.11.34-.11.336-.11.333-.11.34-.12.33-.116.333-.12.33-.11.33-.12.335-.12.335-.12.34-.12.33-.12.33-.12.33-.125.33-.13.33-.124.33-.127.33-.13.33-.13.33-.13.33-.13.324-.13.324-.135.327-.13.323-.134.32-.14.324-.137.32-.133.325-.14.323-.14.32-.14.32-.14.322-.14.32-.14.32-.14.32-.15.32-.14.32-.15.313-.15.32-.15.32-.15.317-.15.32-.15.313-.15.314-.15.31-.16.31-.16.31-.16.315-.16.313-.153.31-.16.315-.16.31-.16.31-.168.31-.16.31-.164.31-.162.31-.167.31-.16.3-.17.31-.165.307-.17.31-.17.303-.17.308-.173.3-.176.305-.17.3-.18.3-.175.3-.18.3-.18.3-.18.3-.18.3-.18.3-.18.3-.18.29-.184.297-.187.29-.18.294-.186.3-.18.3-.19.29-.19.3-.19.29-.19.29-.19.29-.19.293-.195.29-.193.29-.19.29-.192.287-.192.29-.193.288-.196.283-.197.284-.2.29-.2.285-.2.28-.21.28-.2.28-.2.284-.205.28-.2.28-.2.28-.208.28-.208.275-.21.28-.21.28-.21.28-.21.276-.21.276-.21.277-.22.273-.215.27-.21.275-.213.27-.22.27-.212.276-.22.27-.21.27-.22.27-.22.265-.22.27-.22.265-.227.27-.22.263-.23.27-.224.26-.22.26-.226.26-.226.26-.223.26-.23.26-.23.26-.23.26-.23.26-.23.252-.23.26-.236.26-.23.25-.24.255-.235.26-.24.256-.233.25-.24.258-.24.25-.236.253-.24.25-.24.25-.24.248-.246.25-.24.247-.24.245-.246.24-.242.24-.25.245-.25.246-.246.24-.25.25-.25.24-.25.24-.25.24-.25.24-.25.236-.25.24-.26.24-.253.24-.25.236-.253.235-.254.235-.26.23-.257.237-.26.23-.26.23-.26.23-.26.23-.26.23-.26.23-.26.226-.265.23-.26.225-.26.22-.264.228-.26.224-.264.22-.265.22-.265.22-.27.22-.27.22-.27.22-.27.216-.27.213-.274.215-.27.216-.27.216-.27.21-.272.216-.276.216-.274.21-.28.21-.28.21-.277.21-.275.21-.28.21-.28.21-.28.203-.28.2-.286.21-.28.2-.28.21-.28.2-.28.2-.286.2-.28.193-.288.2-.29.2-.283.2-.29.19-.29.197-.29.19-.29.19-.29.19-.29.19-.29.19-.3.19-.29.19-.295.19-.29.185-.296.186-.29.19-.3.188-.298.18-.296.19-.3.185-.3.18-.294.18-.3.18-.3.17-.3.18-.3.18-.3.17-.302.175-.3.17-.3.174-.3.17-.302.17-.3.17-.31.17-.3.17-.31.17-.303.16-.31.163-.31.168-.31.164-.302.166-.31.16-.31.16-.31.16-.31.16-.31.16-.31.153-.31.156-.318.16-.31.156-.32.152-.316.15-.32.15-.317.15-.312.15-.32.15-.32.15-.32.144-.314.15-.32.144-.32.144-.32.14-.32.147-.326.142-.32.14-.327.14-.32.14-.328.14-.33.135-.32.136-.33.136-.32.13-.33.13-.322.13-.33.13-.33.13-.33.13-.33.13-.33.13-.33.12-.33.127-.33.12-.33.12-.33.12-.33.12-.34.12-.33.12-.34.113-.334.12-.33.118-.337.11-.33.11-.34.115-.335.11-.34.113-.335.11-.34.106-.335.11-.34.104-.34.107-.34.11-.34.11-.34.11-.34.1-.34.1-.34.1-.342.1-.34.1-.34.097-.346.1-.347.098-.35.096-.347.09-.343.09-.34.09-.347.09-.35.09-.345.086-.35.09-.35.09-.344.09-.35.08-.35.08-.35.08-.35.083-.35.08-.35.072-.35.08-.35.073-.35.08-.35.075-.35.07-.35.07-.36.07-.354.07-.356.07-.352.064-.35.067-.356.066-.35.06-.356.06-.357.065-.36.06-.36.055-.355.06-.357.06-.36.053-.36.057-.36.054-.36.05-.36.06-.36.05-.36.05-.36.05-.36.04-.36.043-.36.05-.364.05-.363.04-.36.04-.366.04-.36.04-.37.04-.364.04-.37.035-.36.032-.36.03-.37.03-.37.03-.363.03-.37.03-.37.03-.365.03-.37.024-.37.02-.37.023-.37.02-.37.025-.37.02-.367.02-.37.02-.37.016-.37.02-.37.01-.37.01-.37.016-.37.017-.37.01-.375.01-.373.005-.37.01-.372.004-.375.004-.38v-.37l.005-.374v-1.495l-.01-.37-.005-.37-.01-.37-.006-.37-.01-.37-.01-.37-.01-.37-.01-.37-.01-.37-.017-.37-.015-.37-.02-.37-.02-.37-.018-.37-.02-.37-.02-.37-.02-.37-.02-.36-.025-.37-.024-.367-.03-.37-.03-.36-.03-.365-.03-.37-.03-.363-.036-.37-.034-.366-.034-.36-.04-.368-.04-.36-.04-.36-.04-.37-.04-.36-.04-.363-.04-.36-.05-.37-.05-.36-.045-.36-.045-.36-.05-.36-.05-.36-.05-.36-.05-.36-.06-.36-.05-.36-.053-.353-.06-.36-.052-.36-.06-.36-.06-.356-.06-.35-.064-.358-.06-.357-.07-.36-.06-.35-.066-.354-.06-.35-.07-.35-.064-.353-.07-.35-.075-.355-.07-.357-.08-.35-.08-.355-.07-.35-.08-.35-.08-.35-.08-.35-.08-.35-.08-.35-.08-.35-.08-.35-.084-.35-.08-.346-.086-.35-.09-.343-.09-.35-.09-.346-.09-.34-.096-.344-.09-.345-.098-.34-.096-.34-.097-.346-.1-.34-.093-.34-.1-.34-.1-.34-.1-.35-.107-.34-.1-.34-.105-.34-.104-.34-.1-.335-.11-.34-.11-.34-.104-.34-.11-.34-.11-.335-.112-.34-.113-.34-.12-.336-.11-.33-.12-.338-.12-.34-.12-.332-.12-.33-.12-.334-.12-.33-.12-.33-.12-.33-.124-.33-.12-.33-.13-.33-.127-.33-.13-.33-.13-.33-.13-.33-.13-.33-.13-.327-.133-.33-.134-.33-.132-.33-.136-.327-.14-.327-.14-.32-.134-.32-.14-.32-.14-.328-.14-.32-.143-.325-.142-.32-.14-.32-.145-.32-.15-.32-.15-.32-.15-.32-.15-.32-.15-.314-.15-.315-.15-.316-.15-.318-.16-.32-.155-.317-.16-.313-.16-.317-.16-.31-.157-.315-.16-.31-.16-.31-.16-.316-.16-.31-.165-.31-.167-.31-.163-.307-.16-.306-.167-.31-.17-.31-.17-.3-.17-.303-.17-.31-.17-.31-.17-.3-.17-.302-.176-.3-.17-.302-.17-.3-.18-.304-.175-.3-.18-.304-.18-.3-.18-.295-.18-.3-.18-.3-.183-.3-.18-.296-.18-.295-.183-.297-.183-.3-.187-.295-.187-.293-.19-.293-.19-.29-.19-.29-.19-.29-.19-.29-.193-.29-.192-.29-.193-.29-.194-.29-.19-.29-.2-.285-.2-.29-.2-.28-.2-.287-.2-.283-.2-.286-.2-.285-.2-.28-.21-.285-.2-.28-.21-.28-.205-.28-.21-.28-.21-.28-.21-.28-.21-.28-.21-.27-.21-.27-.21-.28-.215-.273-.215-.277-.21-.276-.213-.28-.216-.27-.214-.27-.216-.27-.22-.27-.213-.27-.22-.27-.22-.27-.224-.266-.22-.266-.225-.27-.22-.264-.223-.26-.226-.26-.223-.267-.227-.27-.23-.26-.224-.26-.23-.26-.23-.26-.23-.26-.23-.26-.23-.254-.23-.258-.235-.257-.23-.25-.235-.257-.234-.25-.24-.257-.24-.25-.23-.25-.24-.25-.24-.25-.24-.25-.25-.25-.24-.25-.24-.25-.244-.25-.246-.25-.244-.246-.25-.24-.247-.24-.25-.25-.25-.247-.25-.243-.25-.24-.25-.24-.25-.24-.25-.24-.25-.24-.25-.23-.254-.24-.26-.235-.253-.23-.253-.234-.26-.23-.255-.233-.257-.234-.26-.23-.26-.23-.26-.23-.26-.23-.26-.23-.268-.225-.266-.227-.264-.223-.26-.228-.27-.23-.26-.22-.27-.22-.267-.226-.27-.22-.264-.22-.27-.22-.27-.22-.27-.22-.27-.22-.27-.22-.276-.22-.27-.21-.278-.215-.27-.21-.27-.21-.275-.21-.28-.214-.276-.21-.28-.21-.28-.21-.275-.205-.28-.21-.28-.204-.28-.21-.28-.2-.287-.21-.28-.208-.29-.2-.284-.2-.283-.2-.284-.2-.29-.2-.284-.2-.283-.197-.285-.2-.287-.19-.29-.196-.29-.19-.29-.192-.29-.19-.29-.19-.296-.19-.29-.19-.294-.19-.29-.19-.298-.18-.3-.185-.3-.184-.29-.18-.3-.182-.292-.18-.3-.18-.3-.18-.3-.18-.3-.18-.295-.18-.3-.18-.3-.175-.3-.175-.3-.174-.305-.17-.302-.17-.3-.17-.31-.17-.31-.17-.3-.17-.31-.17-.304-.17-.31-.17-.307-.16-.306-.164-.31-.163-.31-.164-.31-.16-.31-.16-.313-.16-.31-.16-.31-.153-.31-.155-.314-.16-.31-.16-.31-.155-.32-.15-.314-.152-.318-.15-.31-.15-.32-.15-.32-.15-.32-.146-.32-.15-.32-.15-.32-.143-.32-.15-.32-.14-.32-.14-.325-.144-.32-.14-.33-.14-.323-.14-.323-.14-.323-.14-.325-.14-.32-.133-.327-.137-.327-.13-.33-.13-.33-.13-.33-.13-.33-.13-.33-.124-.33-.13-.33-.128-.33-.127-.33-.13-.335-.126-.33-.12-.33-.12-.33-.12-.33-.12-.333-.12-.33-.12-.338-.12-.33-.115-.333-.12-.33-.11-.34-.12-.34-.11-.336-.11-.34-.11-.334-.106-.34-.11-.34-.1-.34-.1-.34-.106-.34-.11-.34-.1-.34-.105-.34-.1-.34-.1-.34-.1-.343-.09-.343-.095-.343-.09-.34-.093-.344-.09-.34-.09-.345-.09-.342-.09-.348-.09-.35-.09-.35-.083-.35-.09-.35-.086-.35-.085-.345-.08-.35-.088-.35-.08-.35-.076-.35-.08-.354-.072-.35-.077-.35-.075-.354-.078-.35-.07-.35-.072-.357-.07-.356-.07-.355-.07-.36-.07-.354-.06-.357-.064-.355-.064-.354-.06-.36-.06-.355-.06-.36-.06-.36-.06-.36-.057-.36-.055-.36-.056-.36-.06-.36-.055-.36-.05-.36-.057-.36-.05-.36-.046-.36-.05-.36-.05-.366-.05-.366-.04-.36-.05-.36-.04-.36-.04-.367-.04-.366-.04-.36-.04-.363-.033-.362-.04-.36-.033-.363-.03-.364-.03-.365-.03-.367-.03-.37-.03-.367-.023-.37-.03-.37-.02-.37-.022-.37-.03-.368-.02-.37-.02-.37-.02-.37-.02-.37-.02-.37-.013-.37-.01-.37-.015-.378-.013-.37-.01-.37-.01-.37-.01-.375-.004-.37-.007-.37-.01-.37-.01h-.38l-.37-.006h-1.494l-.372.01-.37.004-.373.01-.37.005-.37.01-.37.01-.374.01-.375.01-.37.017-.37.01-.37.012-.37.02-.37.02-.37.02-.37.02-.37.02-.37.026-.37.024-.37.02-.37.03-.36.03-.37.03-.37.03-.36.03-.366.03-.37.032-.37.035-.366.03-.365.034-.363.04-.367.04-.36.04-.364.04-.36.04-.37.04-.36.05-.366.046-.36.043-.36.05-.36.05-.36.05-.36.05-.36.05-.36.055-.36.054-.36.056-.36.057-.355.06-.36.06-.358.06-.358.06-.36.06-.36.064-.357.06-.355.06-.354.064-.36.067-.35.07-.36.07-.353.07-.356.07-.355.077-.35.072-.35.075-.35.08-.35.07-.35.08-.35.08-.35.08-.35.08-.35.08-.35.084-.35.087-.35.086-.35.086-.35.085-.346.09-.345.09-.346.09-.346.09-.35.095-.34.095-.343.1-.343.09-.35.1-.34.1-.34.1-.34.1-.35.1-.34.1-.34.1-.34.106-.34.11-.34.103-.34.11-.34.11-.34.11-.337.11-.34.11-.33.116-.336.11-.34.113-.34.114-.33.11-.335.115-.33.12-.34.114-.334.12-.33.12-.33.123-.33.12-.33.126-.33.125-.33.13-.33.13-.328.124-.33.13-.33.13-.326.13-.33.13-.326.135-.325.13-.33.13-.32.14-.32.14-.32.137-.323.14-.325.14-.32.14-.325.14-.32.14-.32.146-.32.14-.32.15-.32.143-.32.15-.313.15-.316.15-.32.15-.32.15-.316.15-.316.156-.31.15-.314.158-.31.155-.316.16-.313.16-.31.152-.31.16-.31.16-.31.16-.31.164-.31.164-.31.16-.31.163-.31.16-.31.17-.31.165-.31.17-.303.17-.31.17-.31.17-.3.174-.307.17-.307.174-.306.173-.3.176-.3.17-.304.173-.3.18-.297.173-.3.18-.3.18-.298.18-.297.18-.295.185-.296.18-.295.19-.29.187-.3.187-.29.19-.294.19-.295.19-.29.19-.29.19-.29.197-.29.19-.29.19-.29.2-.285.2-.29.193-.29.194-.28.2-.287.2-.29.2-.284.2-.286.2-.283.2-.28.202-.282.2-.28.21-.28.21-.28.2-.28.21-.28.204-.28.21-.27.21-.277.21-.273.21-.277.216-.28.213-.276.213-.278.21-.27.212-.27.218-.27.22-.27.22-.27.22-.27.22-.27.22-.27.22-.27.22-.27.223-.264.22-.27.227-.262.23-.27.22-.264.23-.263.23-.26.227-.26.23-.26.223-.26.23-.26.23-.26.23-.257.232-.26.23-.26.23-.253.23-.253.23-.258.236-.25.237-.256.233-.25.24-.25.24-.25.24-.25.24-.25.24-.245.24-.243.24-.25.247-.25.24-.24.247-.244.24-.24.25-.24.25-.24.25-.24.25-.25.25-.24.25-.24.25-.24.25-.24.25-.235.25-.238.26-.236.26-.238.25-.238.256-.233.255-.23.26-.23.256-.23.26-.23.26-.23.26-.23.26-.227.26-.23.26-.226.27-.23.26-.22.26-.225.265-.227.26-.224.27-.22.26-.225.27-.22.27-.22.267-.22.27-.22.27-.21.27-.22.27-.21.278-.215.27-.214.28-.214.278-.21.272-.21.27-.21.277-.21.272-.21.278-.21.28-.205.28-.21.28-.202.28-.208.28-.2.28-.2.28-.2.28-.204.288-.2.28-.2.29-.2.285-.193.29-.2.29-.2.285-.193.29-.194.287-.193.29-.2.29-.19.29-.19.29-.19.3-.19.29-.19.295-.19.294-.19.295-.19.296-.19.29-.187.3-.187.298-.187.3-.185.3-.18.292-.18.3-.18.292-.18.3-.17.3-.18.3-.178.3-.176.302-.173.3-.17.302-.177.3-.17.31-.176.31-.17.31-.17.303-.17.308-.165.306-.163.3-.164.31-.168.31-.163.31-.16.31-.16.31-.16.31-.16.31-.16.31-.154.313-.152.31-.155.32-.15.32-.16.32-.15.312-.15.317-.15.32-.15.32-.15.312-.15.32-.15.32-.14.317-.147.32-.15.32-.146.32-.14.32-.144.32-.144.32-.14.32-.14.32-.13.32-.14.328-.137.32-.14.325-.14.32-.137.33-.138.33-.13.33-.13.33-.13.33-.13.323-.123.33-.13.33-.13.33-.13.33-.13.33-.12.335-.127.33-.12.33-.12.336-.12.332-.118.33-.12.333-.116.34-.112.33-.116.34-.11.33-.11.34-.11.336-.11.34-.11.34-.11.34-.11.336-.104.34-.1.34-.104.34-.104.34-.1.34-.1.35-.1.34-.1.345-.1.342-.098.344-.094.342-.1.34-.095.34-.09.343-.096.35-.09.34-.09.35-.09.35-.088.34-.087.346-.09.35-.083.35-.08.34-.084.35-.08.35-.08.35-.08.35-.076.35-.08.35-.076.356-.07.35-.07.35-.074.35-.07.35-.07.35-.07.35-.07.36-.06.356-.06.35-.063.36-.063.353-.06.36-.07.357-.06.36-.06.36-.06.356-.054.36-.056.36-.05.358-.052.36-.052.36-.05.36-.05.36-.05.36-.05.36-.05.36-.044.366-.042.36-.047.36-.042.36-.04.366-.04.36-.04.37-.04.364-.035.362-.034.367-.033.36-.03.364-.04.37-.034.37-.03.367-.03.364-.03.37-.03.37-.024.37-.03.37-.03.37-.02.37-.02.37-.02.37-.02.37-.015.37-.016.37-.018.37-.014.37-.01.374-.016.37-.01.37-.01.37-.01.375-.01.37-.006.373-.01.37v3.01l.007.37.01.37.01.37.004.37.01.373.01.37.017.37.014.37.02.37.016.37.01.37.02.37.02.37.02.37.02.364.02.37.03.368.024.368.022.37.03.37.025.367.03.37.03.37.03.362.034.36.036.365.035.36.04.367.04.365.04.36.04.36.04.36.04.36.047.365.04.36.047.36.045.36.05.36.046.36.05.36.05.36.056.36.05.36.055.36.054.36.057.36.05.356.06.36.06.356.06.36.06.356.064.353.06.352.064.355.07.35.07.352.07.352.07.355.07.357.07.356.08.35.07.355.08.35.073.35.08.35.075.35.08.36.08.35.08.35.086.35.08.35.086.346.088.35.088.35.09.345.09.35.09.346.09.348.09.35.098.344.09.35.094.34.096.345.096.345.097.34.1.346.1.34.1.343.106.34.103.34.1.343.11.34.11.34.107.335.11.34.108.336.11.34.115.34.11.334.11.336.115.33.11.338.113.33.12.338.12.335.12.33.12.333.12.333.12.33.12.33.127.33.12.33.13.33.13.33.12.33.13.33.13.33.13.32.13.327.138.326.13.33.13.324.138.33.14.325.14.33.14.32.14.32.138.324.14.32.145.32.147.32.14.32.144.32.144.32.15.32.144.32.15.32.15.32.15.32.154.315.156.31.15.313.15.318.15.314.155.31.15.31.16.31.16.317.16.31.16.31.16.31.16.31.163.31.163.305.166.31.17.31.17.306.17.306.164.308.17.31.175.306.17.3.175.3.173.3.17.3.174.3.18.3.18.3.18.3.18.3.18.3.18.3.18.3.185.3.18.29.18.292.18.296.185.294.183.29.19.295.186.29.19.29.19.294.195.29.19.29.19.29.2.29.193.29.19.29.2.29.2.28.2.29.2.286.2.28.2.283.2.28.203.28.2.284.2.28.21.28.2.28.21.28.207.28.2.28.21.275.21.274.21.28.21.275.213.27.21.272.21.27.213.277.21.27.212.27.216.28.21.27.22.27.22.27.22.27.22.26.22.266.22.265.226.268.223.27.22.268.226.266.22.26.23.26.23.26.223.26.23.26.23.26.23.26.23.26.23.26.23.256.232.26.23.25.24.256.24.253.24.254.236.255.235.254.24.25.24.25.24.253.24.25.24.245.242.25.24.25.24.243.244.246.243.245.247.24.25.24.25.24.25.244.25.24.25.24.25.24.25.24.256.234.255.24.255.24.26.23.253.24.26.24.257.23.26.237.26.23.26.23.26.23.26.23.26.23.26.23.26.225.26.224.262.23.267.224.27.222.26.22.263.222.27.22.27.22.27.22.27.22.262.22.27.212.27.22.27.22.27.217.27.214.276.21.27.215.27.21.274.21.28.212.28.21.278.21.28.21.273.21.28.21.28.2.28.2.28.2.28.205.28.2.29.2.28.2.29.2.285.2.29.2.285.192.29.19.29.19.283.198.29.2.29.194.29.19.29.19.29.19.29.19.293.19.298.19.29.183.295.186.292.19.3.183.297.184.293.185.292.18.3.18.3.18.3.18.3.18.3.175.3.18.3.174.3.17.3.175.303.174.303.17.3.17.31.17.31.17.31.17.31.162.305.17.31.17.31.165.31.16.31.16.31.16.31.165.31.16.31.16.31.16.31.16.31.16.316.153.31.16.316.153.31.157.318.153.313.15.32.15.32.15.32.15.32.15.32.15.32.146.32.145.32.15.32.142.32.14.325.145.324.14.32.14.324.14.32.136.325.14.322.13.325.13.327.14.33.13.33.13.33.13.33.13.324.13.33.13.33.126.33.126.33.126.33.124.33.123.33.12.33.12.33.12.334.12.334.114.33.12.34.113.335.116.333.115.34.11.34.11.332.11.335.11.337.11.34.11.34.11.34.11.34.106.34.105.34.102.34.1.345.1.34.1.343.1.345.1.345.1.345.096.343.095.346.094.35.093.34.09.346.09.344.09.344.09.345.085.35.09.34.084.35.086.35.084.35.08.35.08.35.08.35.08.35.075.35.08.354.076.35.076.35.08.357.072.356.07.35.07.358.07.35.064.357.07.358.07.356.07.357.06.36.063.35.06.353.06.36.06.36.06.36.055.36.06.36.05.36.06.36.06.36.05.36.055.36.05.36.05.36.05.364.04.367.05.36.05.37.043.366.04.36.04.368.04.365.04.37.04.36.03.37.037.366.036.365.03.368.03.36.034.37.03.37.03.365.02.37.026.37.025.365.026.37.02.366.02.37.02.37.02.37.017.37.02.37.01.37.015.37.018.37.01.37.01.37.01.377.01h.755l.37.01h.37l.378.006h.75z" fill="#595959"/><path d="M317.172 316.593h-.69l-.69-.003-.693-.005-.7-.01-.7-.01-.7-.013-.7-.017-.7-.02-.7-.02-.71-.025-.71-.028-.71-.03-.71-.032-.71-.036-.72-.04-.72-.04-.72-.046-.72-.046-.71-.05-.72-.053-.72-.06-.72-.06-.72-.06-.73-.07-.724-.07-.73-.07-.73-.08-.73-.08-.73-.08-.73-.09-.37-.05-.363-.05-.37-.05-.37-.05-.37-.05-.37-.05-.37-.05-.37-.05-.37-.05-.37-.05-.37-.05-.37-.06-.37-.05-.37-.06-.37-.057-.37-.056-.37-.058-.37-.058-.374-.06-.37-.06-.37-.06-.374-.06-.37-.06-.38-.064-.38-.068-.374-.07-.37-.06-.37-.07-.375-.065-.374-.07-.373-.07-.38-.07-.38-.07-.37-.077-.38-.074-.374-.07-.38-.07-.38-.076-.38-.078-.38-.08-.372-.08-.38-.08-.38-.08-.38-.08-.38-.08-.375-.087-.38-.088-.38-.088-.38-.08-.38-.09-.38-.085-.38-.09-.38-.09-.385-.09-.38-.09-.38-.097-.38-.09-.387-.09-.38-.09-.39-.09-.382-.094-.38-.095-.39-.1-.38-.1-.38-.1-.38-.1-.387-.102-.39-.107-.383-.104-.38-.1-.39-.11-.39-.11-.385-.104-.383-.11-.39-.11-.388-.11-.39-.11-.384-.114-.39-.11-.39-.116-.387-.12-.386-.12-.39-.12-.386-.12-.384-.12-.39-.12-.39-.123-.39-.12-.39-.128-.39-.128-.39-.124-.387-.13-.39-.13-.388-.13-.388-.13-.39-.13-.39-.13-.387-.137-.39-.13-.39-.136-.39-.14-.39-.14-.39-.14-.39-.14-.39-.14-.39-.145-.39-.145-.39-.15-.39-.15-.39-.144-.39-.15-.39-.15-.39-.15-.397-.155-.39-.156-.39-.15-.39-.158-.39-.15-.39-.16-.39-.156-.393-.16-.393-.16-.39-.16-.39-.162-.39-.16-.39-.164-.39-.163-.39-.17-.394-.17-.39-.17-.393-.17-.394-.173-.39-.18-.39-.173-.39-.176-.394-.18-.394-.18-.39-.18-.394-.18-.39-.18-.396-.185-.39-.185-.393-.18-.394-.185-.394-.187-.396-.19-.39-.19-.39-.19-.398-.19-.396-.196-.39-.19-.39-.194-.4-.2-.398-.2-.39-.196-.39-.2-.39-.207-.4-.2-.393-.2-.4-.206-.393-.204-.39-.21-.398-.21-.395-.21-.39-.22-1.7-.92-.004-1.61v-.62l.006-.32.01-.37.01-.42.01-.47.02-.52.01-.28.015-.29.02-.3.014-.316.02-.322.015-.34.02-.35.02-.36.02-.375.026-.38.03-.394.024-.41.04-.415.034-.43.04-.44.04-.45.04-.46.04-.47.05-.48.05-.492.05-.506.05-.51.056-.525.06-.53.06-.545.066-.55.07-.56.074-.57.08-.58.08-.59.08-.6.087-.603.088-.615.09-.625.093-.636.1-.64.1-.65.108-.66.11-.67.12-.674.12-.686.12-.696.128-.7.13-.71.13-.712.14-.72.14-.735.15-.74.15-.744.08-.37.08-.38.08-.38.08-.38.083-.386.08-.39.08-.39.09-.39.09-.39.082-.39.09-.4.09-.398.09-.4.097-.4.09-.4.095-.405.1-.4.1-.4.096-.41.1-.41.105-.41.1-.41.104-.415.11-.41.1-.414.11-.42.11-.42.11-.42.115-.42.113-.425.12-.424.12-.423.12-.43.12-.425.12-.43.12-.43.128-.435.13-.43.13-.437.13-.434.13-.433.13-.44.13-.44.14-.44.137-.45.137-.44.14-.446.14-.44.146-.45.147-.45.147-.45.15-.45.15-.455.15-.455.155-.45.154-.46.156-.46.156-.46.16-.46.16-.46.16-.46.16-.46.162-.46.17-.465.17-.465.17-.47.17-.466.17-.466.18-.47.17-.47.18-.47.18-.47.18-.477.19-.47.188-.47.19-.477.19-.48.19-.47.196-.478.193-.474.194-.48.2-.48.2-.48.2-.48.205-.48.2-.48.206-.49.21-.486.217-.48.21-.49.22-.487.215-.487.22-.488.22-.487.222-.49.222-.49.22-.49.22-.49.23-.49.23-.49.236-.49.237-.5.24-.49.24-.495.24-.494.25-.49.25-.493.25-.5.25-.493.25-.494.254-.5.253-.5.26-.494.26-.5.267-.496.264-.496.27-.5.27-.5.3-.55.31-.55.307-.55.31-.55.31-.55.316-.55.32-.556.32-.55.33-.55.327-.55.332-.55.333-.558.34-.55.34-.55.345-.556.35-.55.35-.55.36-.557.355-.55.362-.55.36-.55.37-.553.37-.55.374-.55.38-.558.38-.55.387-.55.39-.55.39-.55.394-.55.397-.55.4-.56.405-.55.406-.55.41-.55.413-.55.41-.55.42-.544.426-.55.425-.543.43-.55.438-.55.437-.547.44-.55.44-.544.45-.546.45-.54.45-.543.46-.54.46-.55.46-.54.46-.54.47-.54.47-.54.477-.54.48-.54.48-.54.487-.54.49-.54.495-.537.495-.538.5-.534.5-.533.5-.534.51-.536.51-.53.52-.53.51-.53.52-.53.53-.53.53-.53.53-.53.54-.52.535-.53.544-.528.542-.52.274-.26.28-.26.278-.26.275-.26.28-.26.28-.26.28-.26.276-.26.28-.256.28-.26.283-.26.28-.26.28-.25.28-.256.287-.26.29-.26.29-.255.29-.26.285-.26.29-.252.29-.253.29-.26.29-.26.3-.26.29-.25.29-.26.3-.25.292-.26.295-.25.3-.253.3-.25.3-.255.3-.25.3-.25.3-.25.306-.25.302-.25.3-.25.303-.25.306-.25.306-.246.31-.25.31-.25.31-.25.31-.24.31-.245.31-.245.31-.25.31-.24.316-.24.314-.247.32-.247.32-.242.315-.244.32-.246.32-.242.32-.247.32-.25.32-.247.322-.24.32-.24.324-.24.327-.24.325-.24.33-.24.33-.24.33-.238.33-.24.33-.24.33-.24.33-.24.33-.24.33-.235.336-.236.34-.24.336-.24.34-.23.34-.232.34-.23.34-.23.34-.23.34-.234.34-.23.34-.23.345-.23.346-.23.348-.23.35-.23.344-.23.35-.23.35-.227.35-.23.35-.23.35-.22.35-.23.35-.224.357-.22.352-.227.35-.23.354-.223.36-.227.357-.22.36-.223.36-.22 2.63 4.256-.35.22-.35.21-.35.217-.35.22-.35.22-.344.22-.347.22-.345.22-.35.22-.345.22-.34.22-.34.22-.34.22-.34.227-.34.22-.34.22-.34.23-.336.22-.34.227-.34.224-.34.23-.33.228-.333.23-.33.23-.33.23-.33.23-.33.23-.33.23-.33.226-.33.23-.33.23-.327.23-.33.23-.323.23-.33.23-.32.236-.33.23-.32.23-.32.236-.32.24-.32.23-.313.233-.32.24-.32.237-.316.234-.314.24-.31.24-.31.24-.31.234-.31.24-.31.24-.31.24-.304.24-.31.24-.31.24-.302.24-.3.24-.3.24-.302.24-.3.24-.3.243-.3.24-.293.24-.3.247-.295.24-.3.243-.3.245-.29.24-.294.24-.3.24-.29.24-.29.24-.29.25-.29.25-.29.25-.29.248-.29.25-.29.246-.283.244-.28.25-.29.245-.284.25-.283.25-.28.25-.28.25-.28.245-.28.25-.28.25-.275.25-.28.25-.277.25-.275.25-.27.25-.276.25-.274.258-.27.25-.28.253-.27.25-.27.25-.27.252-.27.26-.26.26-.264.255-.27.255-.53.51-.53.505-.53.51-.516.51-.52.514-.516.51-.51.517-.507.518-.505.516-.5.52-.5.52-.494.52-.49.52-.49.52-.486.52-.48.523-.48.52-.47.525-.47.52-.47.524-.467.527-.46.52-.46.523-.45.53-.454.52-.45.52-.445.53-.44.53-.44.53-.432.53-.435.525-.43.53-.43.53-.425.53-.42.53-.42.53-.41.53-.41.53-.41.535-.404.532-.4.53-.4.53-.4.536-.39.533-.39.53-.38.54-.38.53-.38.533-.37.534-.37.54-.37.53-.364.532-.36.53-.36.53-.36.537-.352.533-.35.536-.346.534-.34.533-.34.54-.34.536-.338.534-.33.54-.33.53-.33.54-.32.535-.32.53-.32.536-.31.534-.31.53-.307.54-.302.53-.3.533-.29.53-.292.53-.29.53-.26.49-.26.484-.256.48-.26.49-.257.48-.255.49-.25.48-.25.482-.248.48-.24.485-.243.48-.24.48-.24.48-.236.48-.238.48-.238.48-.23.48-.23.48-.225.47-.22.48-.22.47-.22.48-.22.472-.22.48-.21.47-.216.474-.21.47-.21.47-.204.474-.207.47-.2.47-.2.47-.2.47-.2.47-.2.466-.195.466-.19.47-.194.464-.19.468-.187.467-.19.46-.18.46-.188.46-.18.46-.18.46-.18.46-.176.46-.174.46-.17.454-.17.453-.17.46-.165.456-.162.456-.162.454-.162.453-.16.45-.16.45-.152.45-.155.45-.157.45-.15.45-.15.445-.15.44-.15.44-.15.44-.15.44-.14.44-.14.44-.14.44-.14.437-.136.43-.133.43-.134.433-.14.43-.13.436-.13.43-.126.43-.125.426-.125.422-.12.43-.12.42-.12.42-.12.42-.12.42-.115.42-.12.414-.114.414-.112.41-.11.42-.11.41-.11.41-.1.405-.106.41-.1.408-.11.404-.1.4-.1.4-.1.4-.1.393-.096.396-.09.393-.096.39-.09.392-.095.39-.09.39-.09.39-.09.38-.086.385-.08.38-.085.38-.08.38-.08.372-.08.38-.08.372-.08.37-.08.37-.08.36-.073.363-.15.73-.14.72-.14.713-.134.71-.13.7-.126.69-.123.686-.12.67-.116.67-.11.66-.1.652-.11.64-.1.635-.094.63-.094.62-.09.61-.08.6-.08.59-.08.586-.076.573-.072.562-.07.553-.07.547-.06.53-.06.52-.057.52-.054.51-.05.495-.05.49-.05.48-.043.463-.04.458-.04.445-.04.44-.04.42-.035.416-.03.4-.03.39-.023.38-.02.37-.03.36-.02.346-.02.34-.02.33-.014.316-.017.3-.01.29-.02.278-.01.266-.02.5-.01.44-.005.2.206.107.39.2.39.2.385.2.383.2.38.2.38.193.39.2.38.198.39.19.38.197.38.19.38.19.38.19.386.19.387.185.38.18.383.183.386.18.385.18.38.18.38.18.38.173.385.18.38.17.38.177.38.175.385.177.38.17.38.17.38.17.38.17.38.17.38.162.38.16.38.16.384.16.385.16.38.16.38.16.38.16.38.16.38.157.38.157.38.155.38.15.38.15.38.15.38.15.38.142.38.15.38.14.38.15.38.14.38.14.38.14.38.14.38.14.37.14.38.14.38.133.38.136.38.13.38.13.377.136.38.13.38.13.38.123.38.13.38.13.374.125.38.124.38.12.374.12.38.12.376.12.374.12.38.115.373.11.373.11.37.117.373.12.374.11.37.11.375.11.37.11.38.11.38.11.37.106.374.1.375.11.37.1.37.1.37.1.37.104.376.1.374.1.37.1.37.1.37.1.37.094.37.096.376.1.376.09.37.09.37.09.37.09.37.09.37.09.37.085.37.09.37.08.37.084.37.08.37.08.37.08.37.08.365.08.365.08.37.076.37.08.363.08.367.077.365.07.366.077.368.075.366.07.37.075.363.07.366.07.366.068.365.07.36.07.37.067.36.07.365.064.364.06.36.06.36.064.36.06.36.06.362.06.36.06.36.05.36.057.36.06.36.056.36.06.36.05.36.05.36.05.36.05.36.05.36.05.36.05.356.05.36.05.36.046.35.048.36.043.356.04.354.04.354.04.71.084.71.08.71.073.705.07.704.07.707.065.704.063.7.06.7.06.7.055.7.05.7.05.69.05.69.04.69.04.69.04.69.036.69.03.69.03.685.03.685.028.684.02.68.02.68.015.68.015.68.01.67.01.67.007.67.008h2.022l.665-.01.663-.01.664-.01.66-.02.65-.014.66-.02.65-.02.65-.02.65-.025.65-.03.65-.03.647-.035.64-.033.64-.04.64-.032.64-.044.64-.04.63-.046.63-.05.635-.05.63-.05.626-.058.626-.06.627-.054.62-.06.62-.06.616-.06.613-.07.612-.06.61-.07.61-.07.61-.07.61-.074.61-.07.6-.08.6-.08.595-.08.6-.08.59-.088.59-.09.59-.09.59-.086.585-.09.58-.1.58-.1.58-.095.58-.1.57-.1.57-.1.57-.1.567-.108.56-.11.56-.104.56-.106.56-.11.56-.11.55-.11.55-.11.546-.112.543-.11.54-.116.54-.113.534-.115.532-.12.53-.117.53-.12.525-.12.53-.124.52-.12.52-.123.515-.12.52-.125.51-.125.51-.127.51-.13.5-.13.5-.13.5-.13.494-.14.49-.136.49-.133.486-.135.488-.135.485-.14.48-.136.476-.14.47-.14.47-.138.466-.14.46-.14.46-.14.46-.14.46-.14.45-.14.45-.15.447-.14.44-.14.44-.144.44-.145.43-.143.43-.14.43-.14.426-.145.42-.148.42-.147.42-.15.41-.145.41-.15.405-.143.4-.145.4-.14.4-.145.39-.15.39-.142.39-.15.388-.15.38-.144.38-.15.37-.146.37-.15.37-.146.366-.14.36-.148.36-.143.355-.15.35-.15.35-.14.34-.14.34-.147.337-.145.33-.145.33-.144.33-.14.32-.14.32-.14.32-.14.31-.14.31-.14.305-.14.3-.14.298-.14.19-.082.19-.09.19-.09.18-.083.182-.09.18-.09.18-.085.18-.09.17-.085.17-.09.347-.174.33-.176.32-.174.31-.173.31-.17.304-.17.293-.17.29-.17.28-.17.277-.162.27-.17.265-.16.26-.165.25-.16.25-.16.232-.16.23-.154.22-.15.217-.15.21-.15.204-.15.195-.14.19-.145.19-.14.18-.14.17-.13.17-.13.16-.13.153-.13.145-.12.14-.12.136-.114.13-.11.125-.11.12-.106.11-.1.11-.1.104-.09.094-.09.09-.08.087-.08.08-.08.07-.07.14-.135.11-.117.09-.098.07-.072.05-.052.03-.03.03-.03 3.792 3.26-.05.06-.07.08-.09.105-.116.12-.133.14-.158.16-.17.17-.1.095-.1.1-.11.104-.12.1-.12.11-.13.12-.13.12-.14.12-.14.126-.15.13-.157.138-.167.135-.17.145-.17.14-.18.146-.19.15-.19.15-.2.157-.21.154-.21.16-.22.168-.23.17-.23.17-.24.17-.25.17-.253.177-.26.18-.264.18-.27.18-.28.18-.288.18-.295.18-.3.184-.31.183-.313.184-.32.19-.33.19-.332.19-.343.19-.35.19-.358.193-.364.19-.37.19-.19.1-.19.09-.2.097-.195.094-.2.1-.193.1-.2.1-.203.09-.204.1-.204.094-.313.144-.32.147-.32.14-.324.15-.32.148-.33.15-.33.143-.34.14-.34.15-.35.15-.35.15-.35.15-.35.15-.36.15-.36.15-.36.15-.37.15-.368.15-.38.15-.38.15-.38.15-.39.15-.385.15-.39.15-.392.15-.394.15-.4.15-.407.158-.41.15-.41.15-.41.15-.416.15-.42.15-.422.15-.42.15-.43.15-.43.15-.44.15-.44.15-.44.15-.45.142-.45.15-.45.142-.458.15-.454.147-.46.143-.468.142-.468.15-.47.14-.47.146-.475.144-.48.15-.48.14-.49.143-.48.14-.49.14-.49.14-.5.14-.5.14-.5.14-.502.136-.503.13-.51.14-.51.14-.514.134-.52.14-.52.13-.52.13-.53.13-.53.13-.53.13-.53.13-.53.124-.54.13-.54.12-.547.13-.55.122-.55.123-.55.12-.55.126-.55.12-.56.11-.56.11-.567.12-.567.11-.57.12-.57.11-.574.11-.58.11-.58.102-.58.106-.588.11-.59.103-.586.1-.596.1-.59.093-.596.094-.597.09-.6.095-.606.09-.603.09-.602.09-.61.083-.61.09-.613.08-.615.08-.62.08-.62.08-.62.07-.626.07-.625.07-.62.07-.63.07-.63.067-.64.064-.63.062-.64.06-.64.06-.64.054-.65.05-.65.05-.65.056-.657.047-.65.043-.66.04-.66.04-.66.037-.66.04-.66.04-.66.03-.664.03-.67.03-.67.027-.67.02-.678.02-.678.02-.677.013-.68.017-.68.01-.685.01h-.68l-.69.005h-.69z" fill="#595959"/><path d="M319.62 280.656h-.425l-.425-.002-.424-.005-.42-.01-.423-.01-.42-.01-.42-.01-.417-.01-.417-.02-.42-.02-.42-.02-.42-.02-.42-.02-.41-.03-.41-.02-.41-.03-.41-.02-.41-.03-.41-.03-.4-.03-.41-.03-.4-.04-.4-.037-.4-.033-.4-.037-.4-.04-.395-.037-.39-.04-.39-.04-.39-.04-.385-.04-.385-.05-.38-.043-.38-.05-.38-.05-.38-.043-.38-.05-.374-.05-.37-.05-.37-.05-.37-.054-.363-.055-.37-.05-.362-.058-.37-.06-.36-.05-.36-.06-.36-.06-.35-.06-.35-.06-.35-.06-.355-.06-.344-.07-.346-.06-.343-.07-.346-.06-.34-.067-.34-.07-.334-.068-.33-.066-.335-.07-.33-.07-.33-.07-.33-.07-.322-.07-.32-.07-.32-.072-.32-.07-.31-.07-.31-.07-.313-.07-.31-.077-.31-.07-.3-.073-.3-.07-.6-.144-.58-.143-.58-.15-.57-.15-.56-.15-.55-.15-.54-.15-.53-.147-.52-.15-.51-.15-.5-.143-.484-.14-.474-.14-.47-.14-.456-.14-.446-.14-.43-.14-.42-.14-.41-.14-.4-.138-.39-.13-.37-.13-.36-.126-.35-.123-.33-.12-.322-.11-.31-.115-.3-.11-.286-.108-.27-.1-.26-.1-.25-.098-.23-.09-.22-.08-.395-.16-.34-.13-.285-.113-.222-.098-.162-.07-1.824-.78.267-2.47.07-.64.08-.636.07-.63.08-.63.08-.62.09-.62.085-.62.09-.61.096-.617.09-.606.1-.603.1-.6.11-.6.1-.594.11-.6.11-.59.11-.584.11-.58.113-.58.12-.573.12-.57.128-.57.12-.56.13-.56.13-.56.133-.56.13-.555.13-.55.14-.55.14-.54.15-.54.14-.533.147-.534.143-.53.15-.53.158-.52.158-.52.154-.52.16-.52.16-.517.16-.51.16-.503.166-.506.16-.495.17-.5.17-.494.17-.49.18-.49.18-.482.178-.48.178-.48.18-.475.18-.47.182-.47.18-.47.18-.464.182-.46.19-.457.19-.45.19-.45.194-.45.19-.45.19-.44.19-.44.2-.437.2-.44.2-.433.2-.422.2-.43.203-.42.2-.42.2-.42.21-.41.21-.42.21-.41.21-.41.21-.4.21-.4.21-.395.22-.39.21-.39.21-.39.216-.39.214-.38.22-.38.22-.376.213-.37.212-.37.22-.36.22-.368.22-.36.22-.36.22-.36.22-.355.226-.35.22-.35.22-.35.23-.34.22-.34.23-.34.22-.34.224-.33.23-.33.226-.327.23-.32.23-.32.23-.32.23-.316.22-.315.23-.31.23-.31.23-.308.22-.3.23-.3.23-.3.23-.294.23-.29.23-.29.225-.286.23-.29.23-.28.23-.28.23-.28.23-.272.22-.27.23-.27.226-.267.23-.263.224-.26.224-.26.226-.26.225-.254.225-.25.224-.25.22-.246.225-.25.22-.24.227-.24.22-.24.22-.237.23-.234.22-.23.22-.23.22-.23.22-.226.22-.22.22-.22.215-.216.218-.21.217-.214.214-.21.21-.21.21-.203.22-.2.21-.193.21-.2.21-.195.21-.2.204-.19.206-.187.206-.19.2-.184.2-.18.21-.18.2-.173.2-.177.2-.17.2-.17.2-.17.19-.167.2-.16.19-.16.194-.16.19-.158.19-.15.19-.155.19-.15.18-.15.18-.143.36-.283.356-.27.35-.265.34-.26.337-.25.33-.246.32-.237.31-.226.31-.22.3-.213.298-.2.287-.2.278-.183.27-.18.26-.17.25-.162.24-.155.23-.15.22-.14.218-.13.205-.13.2-.12.19-.11.174-.103.16-.1.156-.09.143-.08.14-.076.23-.13.19-.1.143-.08 1.41-.72 1.462.97.25.17.255.17.243.17.25.17.25.17.246.17.24.17.24.17.25.17.24.17.24.17.244.17.24.17.24.17.235.176.237.175.238.17.235.17.23.17.23.175.23.173.23.173.23.18.23.18.23.175.23.176.225.178.224.18.222.172.225.18.22.17.22.18.22.18.213.177.22.18.218.18.213.18.217.176.215.18.215.18.21.18.21.18.21.18.21.18.21.18.205.18.2.19.2.18.203.185.204.18.2.186.2.18.2.19.2.18.2.18.2.19.2.18.19.187.197.18.195.18.195.19.19.185.19.187.19.19.19.19.374.37.37.37.37.38.364.374.366.38.36.373.356.373.35.37.342.38.34.374.34.37.34.38.332.38.33.38.33.38.32.38.32.38.32.38.314.385.31.38.307.38.31.38.3.38.29.38.296.385.29.38.29.38.284.386.28.38.28.39.277.38.27.388.264.38.27.386.26.383.26.38.25.39.25.383.25.383.248.386.247.39.24.386.24.39.238.38.23.384.23.38.23.385.226.38.22.38.22.38.21.38.21.38.21.38.21.38.208.38.2.38.2.38.193.38.196.38.19.37.19.37.19.38.185.374.19.376.18.372.18.375.174.37.17.37.168.37.17.37.165.37.16.37.16.37.16.366.154.364.15.37.15.37.148.365.15.36.146.36.14.36.14.36.14.36.137.36.13.36.13.353.13.35.126.356.12.356.12.35.12.35.12.35.116.35.11.34.11.346.11.34.11.343.106.34.104.34.1.333.1.34.095.334.1.333.09.33.093.33.09.33.085.33.09.32.08.323.085.32.08.32.08.32.08.312.07.32.076.312.075.31.07.31.07.31.07.31.07.302.066.304.063.3.06.3.06.298.06.294.06.296.05.29.05.29.06.29.05.287.05.28.05.28.044.28.05.28.043.273.045.27.04.276.046.27.04.27.04.27.04.263.04.26.035.256.038.26.03.25.036.25.03.25.06.49.06.48.05.47.044.46.04.45.046.44.04.42.034.42.03.41.03.396.02.383.02.373.02.36.015.36.014.336.01.33.01.316.01.3.003.29v.547l.007.25v1.2l-.01.29-.005.232-.01.18-.083 1.59-1.527.764-.226.11-.224.11-.225.11-.23.11-.23.11-.23.11-.224.103-.23.11-.23.1-.223.107-.23.107-.222.1-.23.102-.23.1-.23.1-.23.092-.226.1-.23.1-.23.094-.22.095-.224.09-.23.1-.23.1-.23.09-.226.094-.23.09-.23.09-.23.09-.23.086-.455.177-.46.17-.46.17-.46.16-.456.16-.46.156-.46.155-.453.15-.453.15-.46.15-.46.14-.46.145-.453.14-.46.14-.46.13-.46.13-.46.12-.46.127-.455.12-.457.112-.46.114-.46.11-.456.105-.46.105-.46.1-.454.1-.458.1-.458.098-.457.095-.454.09-.45.085-.45.088-.457.08-.45.08-.457.075-.455.078-.45.07-.455.07-.45.07-.45.063-.45.06-.45.06-.45.058-.444.057-.45.05-.45.05-.45.047-.45.044-.44.04-.446.04-.443.04-.442.04-.44.037-.44.03-.44.03-.44.025-.44.03-.44.024-.437.02-.44.02-.43.02-.43.01-.432.016-.432.01-.43.01-.43.01-.43.006-.43.006-.43.01h-.425zm-.006-5h.407l.41-.005h.82l.41-.01.41-.01.41-.01.41-.01.42-.01.42-.01.42-.01.42-.02.42-.02.42-.02.42-.03.42-.03.42-.03.42-.03.42-.03.42-.03.42-.04.42-.04.42-.05.428-.04.42-.045.42-.047.425-.05.42-.055.428-.06.427-.05.423-.06.43-.064.423-.067.424-.07.43-.07.43-.07.425-.08.43-.07.425-.08.43-.08.43-.08.43-.085.43-.09.42-.09.43-.094.43-.096.425-.1.43-.105.43-.1.43-.11.43-.11.43-.11.43-.12.43-.12.43-.12.43-.126.43-.126.43-.126.43-.13.43-.13.43-.133.43-.14.43-.145.422-.14.43-.144.426-.15.43-.15.422-.16.43-.16.43-.16.21-.08.21-.09.21-.08.212-.086.213-.084.21-.085.21-.09.22-.09.21-.08.21-.09.21-.09.21-.09.216-.09.21-.096.21-.095.22-.09.214-.09.21-.1.21-.1.21-.095.21-.095.21-.1.214-.1.14-.067v-.78l-.005-.25-.005-.264-.01-.275-.01-.29-.01-.3-.016-.315-.017-.32-.02-.334-.02-.343-.025-.36-.02-.365-.03-.38-.03-.39-.04-.4-.04-.41-.04-.42-.045-.43-.044-.44-.05-.45-.055-.46-.03-.23-.03-.23-.03-.24-.03-.24-.036-.25-.034-.246-.04-.245-.04-.25-.04-.25-.04-.26-.04-.255-.04-.258-.045-.26-.04-.26-.04-.267-.04-.27-.05-.267-.05-.27-.05-.27-.053-.28-.05-.275-.05-.276-.055-.28-.06-.28-.06-.284-.06-.286-.062-.29-.063-.29-.06-.29-.07-.29-.07-.29-.07-.3-.07-.3-.07-.297-.08-.3-.074-.3-.08-.304-.08-.303-.08-.307-.08-.31-.083-.31-.09-.31-.09-.315-.09-.312-.09-.316-.09-.316-.09-.32-.094-.316-.1-.32-.094-.324-.1-.32-.103-.326-.105-.323-.11-.324-.11-.33-.11-.33-.117-.33-.114-.33-.115-.336-.12-.33-.12-.333-.12-.336-.13-.34-.13-.34-.13-.335-.13-.34-.13-.34-.133-.345-.13-.34-.14-.346-.14-.346-.144-.346-.146-.345-.144-.346-.15-.35-.154-.35-.157-.35-.158-.35-.16-.35-.163-.35-.16-.35-.17-.35-.17-.36-.17-.35-.17-.352-.18-.36-.18-.355-.18-.355-.18-.36-.186-.357-.19-.36-.19-.36-.197-.36-.195-.36-.2-.36-.2-.36-.2-.36-.21-.36-.21-.36-.21-.36-.21-.36-.217-.36-.22-.36-.22-.36-.224-.36-.23-.36-.23-.36-.23-.36-.237-.36-.24-.36-.24-.36-.245-.36-.245-.36-.25-.367-.25-.36-.258-.36-.26-.36-.26-.36-.26-.36-.27-.366-.27-.36-.27-.36-.28-.36-.28-.36-.28-.365-.286-.36-.29-.36-.29-.36-.295-.36-.3-.36-.3-.36-.307-.36-.31-.36-.31-.36-.318-.35-.32-.36-.32-.36-.327-.35-.33-.353-.33-.355-.34-.35-.34-.355-.34-.35-.348-.35-.348-.352-.35-.35-.36-.35-.177-.173-.18-.18-.18-.174-.18-.173-.182-.176-.182-.177-.186-.172-.186-.17-.185-.18-.186-.17-.19-.17-.19-.176-.19-.174-.19-.17-.19-.177-.19-.17-.198-.17-.19-.17-.2-.17-.19-.17-.2-.17-.2-.17-.2-.17-.2-.17-.2-.17-.2-.17-.207-.17-.204-.17-.2-.17-.205-.17-.21-.17-.205-.17-.21-.17-.21-.165-.21-.17-.21-.17-.21-.17-.216-.165-.212-.17-.215-.163-.214-.16-.216-.17-.22-.17-.22-.164-.22-.165-.22-.16-.22-.163-.223-.166-.22-.165-.22-.16-.223-.16-.23-.16-.227-.168-.23-.16-.23-.16-.23-.16-.23-.168-.23-.16-.23-.16-.236-.168-.17-.11-.1.057-.18.11-.18.11-.192.12-.2.12-.21.13-.22.14-.23.15-.236.15-.247.163-.252.17-.26.176-.265.18-.274.195-.282.2-.29.21-.296.216-.305.227-.31.233-.32.24-.32.248-.33.26-.332.267-.17.133-.17.14-.17.14-.173.14-.18.145-.177.146-.18.15-.18.15-.18.15-.18.156-.18.16-.184.157-.186.16-.19.16-.187.164-.19.17-.19.17-.19.17-.194.18-.19.176-.196.18-.196.18-.193.18-.193.18-.192.184-.2.19-.2.19-.2.19-.2.2-.2.2-.2.2-.202.2-.204.2-.205.21-.206.21-.21.21-.208.21-.203.216-.21.22-.21.22-.207.23-.21.228-.21.228-.21.23-.22.23-.21.24-.21.23-.21.24-.213.24-.21.25-.21.25-.21.245-.21.254-.215.25-.21.252-.215.26-.214.26-.213.27-.214.27-.213.27-.21.27-.214.277-.21.275-.216.28-.216.28-.22.29-.213.28-.213.29-.21.29-.22.29-.216.297-.21.3-.21.3-.22.305-.21.304-.21.31-.214.31-.21.313-.21.318-.22.32-.21.326-.21.32-.21.33-.21.33-.21.33-.217.34-.21.34-.21.34-.21.347-.21.342-.21.35-.21.35-.206.35-.2.352-.206.36-.21.36-.2.364-.206.37-.2.37-.2.375-.2.374-.2.38-.2.38-.2.383-.196.39-.2.39-.19.39-.19.39-.195.4-.19.4-.19.4-.19.406-.19.41-.183.41-.19.413-.187.417-.183.42-.18.42-.183.426-.18.43-.18.43-.176.44-.18.435-.18.44-.178.447-.175.45-.17.45-.17.453-.17.45-.16.456-.167.46-.16.463-.16.47-.16.47-.16.47-.155.48-.153.48-.15.484-.155.48-.15.49-.15.49-.15.5-.143.495-.143.503-.145.5-.14.51-.14.51-.14.51-.134.51-.13.52-.132.526-.13.53-.13.525-.12.53-.13.54-.12.54-.12.542-.12.542-.116.55-.12.55-.11.554-.11.56-.108.56-.102.56-.1.57-.1.57-.1.576-.09.58-.093.58-.09.58-.09.59-.086.59-.084.59-.08.6-.08.6-.08.6-.07.58.1.04.23.082.24.09.26.094.27.1.286.108.29.108.31.11.32.114.33.118.348.12.353.12.37.127.38.13.39.13.403.13.417.133.42.133.433.133.444.14.455.137.47.14.472.15.49.14.5.14.51.142.52.14.53.144.538.14.55.146.558.14.563.14.58.14.29.07.29.07.294.07.293.07.3.07.3.07.302.07.303.07.31.07.31.063.31.06.31.06.315.07.315.07.32.06.326.064.32.066.323.06.325.07.33.06.33.06.333.06.336.064.34.06.34.06.34.05.34.06.35.057.34.06.35.06.35.05.35.058.35.054.35.056.353.05.36.05.36.05.36.05.36.047.363.043.36.047.366.05.37.04.37.04.37.04.37.05.372.04.374.034.373.04.38.04.38.04.38.03.38.033.38.03.38.03.384.03.383.03.384.026.39.03.39.02.39.02.39.02.4.02.395.01.392.02.395.02.4.014.396.01.4.01.4.01.4.005.407.006.403.006h.81z" fill="#595959"/><path fill="#595959" d="M315.574 146.23h5v53.906h-5zm-82.07 148.878l-2.296-4.442 44.58-23.044 2.294 4.442-44.58 23.044zm167.673-.015L355.54 270.72l2.355-4.413 45.638 24.374-2.356 4.42z"/><path d="M404.25 292.894l-5-.016v-.244l-.003-.318-.004-.205-.005-.23-.005-.27-.008-.3-.01-.33-.015-.36-.015-.39-.02-.42-.02-.44-.025-.47-.03-.5-.032-.53-.036-.55-.042-.58-.046-.61-.024-.31-.028-.32-.026-.32-.03-.332-.03-.34-.03-.35-.034-.352-.034-.36-.034-.364-.038-.37-.04-.38-.04-.38-.04-.39-.045-.4-.04-.402-.04-.41-.05-.414-.05-.42-.05-.424-.05-.43-.05-.436-.05-.44-.06-.444-.06-.45-.06-.457-.06-.46-.06-.47-.07-.475-.07-.48-.07-.48-.08-.49-.07-.5-.08-.5-.085-.51-.084-.51-.09-.51-.09-.52-.09-.53-.093-.53-.1-.53-.1-.54-.1-.54-.1-.543-.11-.55-.11-.56-.114-.56-.114-.567-.117-.565-.12-.578-.13-.577-.125-.58-.13-.59-.13-.59-.132-.59-.137-.6-.14-.6-.14-.61-.148-.61-.15-.613-.15-.612-.16-.62-.16-.62-.16-.63-.16-.63-.163-.633-.17-.64-.17-.64-.18-.646-.18-.645-.19-.65-.19-.656-.19-.654-.195-.66-.2-.66-.2-.67-.21-.667-.205-.67-.21-.672-.216-.68-.22-.67-.227-.687-.225-.68-.23-.68-.23-.686-.24-.69-.24-.7-.25-.7-.25-.7-.25-.7-.13-.35-.13-.354-.13-.35-.13-.353-.13-.353-.133-.36-.137-.35-.136-.36-.14-.356-.137-.353-.14-.357-.14-.36-.14-.36-.14-.36-.14-.36-.15-.36-.15-.36-.143-.356-.15-.367-.15-.36-.15-.36-.15-.36-.15-.36-.15-.36-.15-.37-.156-.36-.15-.37-.16-.36-.16-.365-.16-.363-.16-.36-.16-.37-.17-.37-.164-.37-.16-.363-.16-.364-.17-.37-.17-.365-.17-.37-.17-.37-.17-.367-.17-.37-.178-.37-.174-.37-.177-.37-.17-.37-.18-.37-.18-.37-.18-.37-.18-.37-.18-.373-.19-.37-.18-.377-.186-.377-.187-.37-.19-.373-.19-.374-.19-.38-.19-.37-.19-.377-.196-.37-.2-.375-.193-.378-.194-.375-.2-.38-.2-.37-.205-.375-.204-.377-.204-.37-.21-.376-.21-.38-.206-.38-.21-.38-.22-.37-.21-.375-.213-.377-.212-.38-.215-.38-.22-.38-.216-.374-.22-.377-.22-.373-.227-.38-.22-.374-.225-.378-.23-.38-.23-.377-.23-.38-.23-.38-.23-.375-.23-.375-.23-.38-.24-.374-.24-.375-.24-.373-.24-.38-.24-.375-.245-.374-.247-.372-.244-.38-.24-.37-.25-.37-.25-.38-.25-.38-.256-.373-.257-.38-.254-.374-.25-.373-.26-.38-.26-.375-.26-.375-.26-.37-.26-.38-.27-.377-.262-.376-.27-.37-.27-.38-.27-.37-.27-.377-.275-.376-.27-.37-.276-.373-.278-.37-.28-.37-.28-.378-.28-.377-.29-.376-.287-.37-.285-.375-.287-.375-.29-.373-.29-.37-.293-.37-.29-.37-.3-.374-.3-.37-.3-.37-.3-.37-.3-.37-.3-.37-.305-.37-.306-.37-.31-.37-.31-.37-.31-.37-.31-.37-.31-.37-.32-.364-.317-.37-.32-.37-.32-.366-.32-.37-.325-.37-.323-.366-.323-.37-.33-.36-.33-.37-.33-.365-.334-.367-.334-.366-.33-.36-.334-.36-.334-.366-.34-.37-.347-.36-.345-.36-.344-.36-.346-.36-.35-.36-.35-.36-.35-.36-.356-.36-.357-.36-.36-.36-.357-.36-.36-.36-.368-.36-.36-.36-.363-.353-.37-.358-.37-.36-.37-.352-.375-.35-.37-.36-.372-.356-.38-.35-.38-.35-.38-.35-.38-.35-.384-.35-.39-.35-.39-.35-.39-.35-.39-.35-.39-.346-.394-.35-.4-.35-.4-.343-.4-.343-.4-.34-.4-.345-.408-.34-.41-.345-.41-.34-.41-.34-.416-.34-.417-.34-.417-.34-.413-.34-.42-.34-.42-.34-.42-.34-.426-.33-.426-.34-.43-.332-.43-.34-.43-.332-.435-.33-.436-.33-.44-.33-.44-.33-.44-.33-.44-.327-.445-.33-.44-.325-.45-.326-.45-.33-.45-.325-.454-.33-.46-.32-.455-.32-.46-.32-.462-.32-.46-.32-.468-.32-.47-.32-.47-.32-.47-.32-.47-.31-.475-.31-.48-.313-.48-.314-.48-.31-.48-.31-.49-.31-.486-.31-.49-.31-.49-.304-.49-.31-.5-.306 2.63-4.252.502.31.5.317.5.32.503.314.5.316.493.313.5.32.495.32.49.32.49.327.49.32.49.325.48.33.48.325.48.325.48.33.473.327.47.33.473.33.47.33.47.33.467.33.463.335.46.33.46.336.46.336.46.34.458.33.45.34.45.34.45.34.45.34.444.34.444.346.444.345.44.347.44.348.43.343.44.34.43.35.43.35.43.35.43.35.422.35.425.35.42.35.42.35.42.357.418.35.41.357.41.36.41.358.41.36.41.356.407.36.405.36.4.36.4.36.4.36.4.364.39.36.398.36.39.36.387.36.39.36.385.36.384.36.38.365.38.36.38.36.38.366.376.37.375.366.37.366.37.366.37.37.365.37.37.37.364.37.36.37.35.37.36.37.36.37.354.376.35.37.354.374.35.37.35.377.345.375.35.377.346.37.34.38.34.38.34.37.336.375.33.376.333.38.34.38.33.38.33.38.33.376.323.38.326.38.32.38.32.38.32.38.32.38.314.38.315.38.32.38.31.38.31.383.31.38.303.39.31.38.3.382.303.38.3.387.3.38.29.39.3.38.29.383.29.39.29.384.29.384.288.383.29.387.284.39.285.387.28.39.28.387.28.385.28.386.28.38.27.39.27.39.272.38.27.382.27.384.264.384.263.39.265.39.26.388.26.39.26.384.256.39.26.39.254.385.256.384.26.39.252.39.25.39.25.384.246.39.24.385.25.39.24.39.24.382.24.39.24.388.24.39.232.39.24.386.23.39.23.38.234.39.23.39.23.385.23.39.224.39.223.39.227.385.22.386.22.39.22.386.22.39.22.39.21.385.217.39.21.38.21.385.21.38.21.39.21.385.21.39.204.384.2.384.2.38.2.38.2.38.197.388.198.384.2.38.197.385.19.38.196.38.19.38.19.38.19.38.19.38.187.386.18.388.18.38.18.38.18.38.18.38.18.38.18.38.177.38.18.377.17.38.176.38.17.375.17.38.17.38.17.38.17.38.16.37.17.38.165.374.16.373.16.38.16.375.16.372.154.37.16.376.15.373.152.37.16.37.15.37.15.37.15.37.15.37.15.37.144.37.145.36.15.366.14.37.146.37.14.365.14.37.14.36.14.364.14.365.14.367.14.36.133.37.13.36.132.36.132.367.26.72.26.72.253.71.25.71.24.71.24.703.236.704.23.7.227.7.22.694.22.69.22.69.218.69.21.688.21.684.2.68.2.67.195.676.19.67.19.67.184.665.18.66.18.654.18.655.17.65.17.645.165.65.16.64.155.634.156.63.15.63.15.62.145.62.142.61.14.61.135.61.13.605.132.6.122.6.126.59.12.59.12.582.12.58.115.57.11.57.11.565.11.56.1.56.1.55.1.55.1.54.09.53.1.53.09.53.08.52.09.52.08.513.08.51.08.5.073.5.075.49.07.49.07.48.07.48.065.475.06.465.06.46.06.455.06.45.052.443.05.43.05.44.05.424.05.42.044.42.042.41.042.408.04.4.04.39.04.386.037.38.04.37.03.368.035.36.03.356.03.35.03.34.03.332.023.33.043.633.04.61.04.58.035.55.03.524.022.495.025.47.02.44.02.41.013.38.012.347.002.32.01.283.005.26.003.228.004.35.006.22-.003.077z" fill="#595959"/></svg>