<svg viewBox="0 0 600 594" xmlns="http://www.w3.org/2000/svg" fill-rule="evenodd" clip-rule="evenodd" stroke-linejoin="bevel" stroke-miterlimit="1.414"><path d="M309.808 1086.906L96.962 964.02V718.246L309.808 595.36l212.846 122.886V964.02l-212.846 122.886zm0-11.547l202.846-117.117V724.02L309.808 606.907 106.962 724.02v234.226l202.846 117.113zm1.962-583.58L98.924 368.89V123.12L311.77.23l212.846 122.89v245.773L311.77 491.78zm0-11.55l202.846-117.11V128.892L311.77 11.78 108.924 128.893V363.12L311.77 480.232z" fill="#595959"/><path d="M259.808 490v260" fill="none" stroke-width="9.15" stroke-dasharray="18.3,9.15,0,0" stroke="#595959" transform="matrix(.6198 0 0 .46154 148.778 254.98)"/><path d="M311.77 980V740L103.922 626.93" fill="none" stroke-width="5.09" stroke-linecap="square" stroke-linejoin="round" stroke="#595959" transform="matrix(-.9741 0 0 -.99136 620.845 988.425)"/><path d="M311.77 740l207.845-120" fill="none" stroke-width="5.28" stroke-linecap="square" stroke-linejoin="round" stroke="#595959" transform="matrix(-.97633 0 0 -.91547 616.16 930.434)"/><path d="M281.594 739.686l82.137 47.422 82.14-47.422v-94.843l-82.136-47.42-82.136 47.42v94.843z" fill="#fff"/><path d="M363.73 789.995l-84.636-48.865V643.4l84.637-48.865 84.64 48.865v97.73l-84.635 48.865zm0-5.774l79.637-45.974V646.29l-79.637-45.98-79.635 45.977v91.957l79.637 45.978z" fill="#595959"/><path d="M133.707 382.803L346.41 260M168.348 402.803L381.05 280M200.02 424.517l212.702-122.803m-180.196 144.6L445.228 323.51M269.41 465.312l209.415-120.906m3.285 38.397L269.41 260m178.06 142.803L234.77 280M415.8 424.517L210.65 306.075m172.643 140.24l-205.84-118.843" fill="none" stroke-width="2" stroke-linejoin="miter" stroke-miterlimit="10" stroke="#595959"/><path d="M133.707 382.804L346.41 260" fill="none" stroke-width="2.05" stroke-linejoin="miter" stroke-miterlimit="10" stroke="#595959" transform="matrix(-.97716 0 0 .97307 477.064 92.82)"/><path d="M279.58 25.044V270.65M244.94 45.044V290.65M210.3 61.615l-.002 245.607m-35.13-228.355v245.608M140.273 101.31v245.607m-34.895-20.147L318.08 203.967M105.378 286.77L318.08 163.968m-215.67 84.517l205.147-118.442M99.784 209.435L315.16 85.088" fill="none" stroke-width="2" stroke-linejoin="miter" stroke-miterlimit="10" stroke="#595959"/><path d="M133.707 382.804l220.89-127.55" fill="none" stroke-width="2.05" stroke-linejoin="miter" stroke-miterlimit="10" stroke="#595959" transform="matrix(.48858 -.84625 -.8427 -.48653 359.036 467.392)"/><path d="M354.427 26.09v245.607m34.64-225.607v245.607M423.71 71.783V312.45m35.13-220.333V332.51m34.893-223.292v243m28.197-28.268L315.926 205.012m203.69 77.6l-203.69-117.6m203.688 77.6L326.45 131.09m193.164 70.958L318.846 86.134" fill="none" stroke-width="2" stroke-linejoin="miter" stroke-miterlimit="10" stroke="#595959"/><path d="M147.067 375.576l207.53-120.322" fill="none" stroke-width="2.05" stroke-linejoin="miter" stroke-miterlimit="10" stroke="#595959" transform="matrix(-.48858 -.84625 .8427 -.48653 274.97 468.438)"/><path d="M436.076 245c0-65.248-52.893-118.14-118.14-118.14-65.246 0-118.14 52.892-118.14 118.14 0 65.247 52.894 118.14 118.14 118.14 65.247 0 118.14-52.893 118.14-118.14" fill="#fff" fill-rule="nonzero"/><path d="M316.665 364.64h-.39l-.39-.002-.39-.004-.39-.005-.388-.01-.388-.006-.39-.007-.39-.01-.39-.01-.386-.013-.387-.012-.39-.014-.386-.016-.384-.017-.386-.018-.385-.02-.386-.02-.388-.02-.385-.024-.383-.025-.384-.025-.383-.026-.385-.03-.383-.026-.384-.03-.382-.03-.383-.033-.38-.032-.38-.036-.383-.036-.38-.037-.38-.038-.38-.04-.38-.04-.38-.04-.377-.045-.377-.044-.38-.045-.377-.047-.377-.044-.378-.047-.377-.05-.378-.053-.377-.05-.374-.054-.374-.055-.376-.054-.375-.056-.37-.057-.376-.06-.373-.06-.373-.06-.37-.064-.375-.064-.37-.066-.372-.064-.372-.067-.37-.07-.37-.07-.37-.068-.37-.072-.37-.072-.367-.073-.367-.074-.37-.076-.367-.078-.366-.08-.368-.08-.366-.08-.368-.08-.365-.083-.367-.083-.362-.085-.365-.087-.365-.087-.364-.09-.362-.09-.363-.09-.362-.09-.36-.093-.362-.094-.36-.096-.36-.095-.36-.1-.358-.1-.36-.097-.358-.1-.358-.1-.357-.103-.358-.104-.356-.105-.358-.104-.358-.106-.356-.11-.354-.107-.355-.11-.353-.11-.353-.112-.353-.11-.35-.115-.355-.115-.35-.117-.352-.116-.35-.117-.35-.12-.35-.118-.348-.123-.35-.123-.347-.124-.348-.123-.348-.125-.35-.126-.346-.13-.345-.13-.346-.127-.344-.13-.342-.132-.346-.13-.34-.136-.343-.134-.345-.135-.342-.135-.34-.138-.34-.14-.342-.14-.34-.14-.34-.14-.336-.144-.34-.143-.336-.143-.338-.146-.336-.144-.337-.148-.336-.148-.333-.15-.335-.15-.333-.153-.333-.152-.334-.153-.332-.152-.33-.156-.332-.157-.33-.156-.33-.158-.33-.16-.33-.16-.325-.16-.327-.164-.33-.165-.324-.163-.327-.165-.325-.167-.324-.167-.324-.166-.325-.17-.32-.17-.326-.17-.32-.17-.32-.175-.32-.174-.32-.173-.32-.176-.32-.177-.32-.177-.316-.18-.32-.178-.315-.18-.318-.18-.314-.184-.316-.18-.315-.184-.315-.184-.313-.185-.314-.188-.313-.188-.31-.188-.31-.19-.31-.19-.31-.19-.31-.194-.308-.193-.307-.193-.307-.196-.306-.195-.306-.196-.305-.197-.307-.2-.304-.2-.3-.2-.305-.2-.303-.203-.3-.203-.3-.202-.303-.204-.296-.206-.3-.207-.296-.205-.298-.208-.298-.21-.297-.21-.296-.21-.295-.214-.294-.21-.293-.214-.294-.217-.29-.213-.293-.217-.29-.216-.29-.216-.29-.22-.29-.22-.285-.22-.288-.22-.287-.22-.286-.222-.286-.222-.284-.224-.284-.225-.284-.23-.282-.224-.28-.23-.282-.226-.28-.23-.28-.23-.278-.23-.28-.233-.276-.232-.277-.234-.274-.232-.275-.236-.274-.234-.276-.236-.274-.236-.274-.24-.27-.237-.27-.24-.272-.243-.27-.24-.267-.243-.268-.242-.27-.245-.266-.244-.268-.244-.265-.246-.266-.246-.263-.248-.263-.248-.26-.25-.263-.25-.26-.25-.26-.253-.26-.25-.26-.254-.256-.253-.256-.254-.257-.253-.255-.257-.253-.257-.254-.257-.252-.26-.253-.26-.25-.26-.252-.26-.25-.26-.25-.264-.246-.263-.246-.262-.248-.264-.246-.265-.246-.266-.244-.266-.243-.267-.243-.27-.24-.266-.246-.27-.24-.27-.24-.27-.24-.273-.236-.27-.238-.273-.238-.273-.236-.276-.234-.276-.234-.277-.235-.276-.233-.278-.23-.278-.23-.28-.23-.28-.23-.28-.23-.282-.226-.282-.226-.28-.226-.285-.224-.282-.224-.285-.224-.286-.224-.287-.22-.284-.22-.29-.222-.29-.218-.283-.22-.29-.215-.29-.217-.29-.217-.29-.214-.294-.214-.29-.215-.294-.213-.295-.21-.297-.21-.294-.21-.296-.21-.298-.207-.297-.208-.3-.206-.298-.206-.3-.206-.298-.204-.3-.202-.302-.203-.302-.2-.302-.2-.3-.2-.306-.198-.304-.198-.306-.198-.304-.196-.306-.194-.307-.194-.308-.193-.31-.19-.308-.195-.31-.188-.31-.19-.313-.188-.313-.19-.31-.185-.314-.186-.312-.185-.313-.185-.315-.182-.315-.182-.315-.18-.315-.18-.317-.18-.316-.177-.316-.178-.318-.177-.318-.175-.32-.176-.32-.174-.322-.172-.322-.17-.322-.17-.32-.17-.324-.17-.323-.17-.327-.165-.326-.165-.325-.166-.326-.167-.327-.163-.328-.162-.328-.16-.327-.162-.33-.158-.33-.16-.33-.157-.33-.154-.33-.153-.332-.154-.33-.152-.333-.152-.334-.15-.335-.15-.336-.15-.335-.148-.336-.148-.336-.146-.337-.145-.338-.144-.338-.144-.337-.14-.34-.143-.337-.14-.34-.14-.34-.14-.34-.137-.342-.136-.34-.134-.342-.134-.344-.135-.343-.133-.342-.13-.344-.13-.344-.132-.347-.126-.347-.128-.346-.128-.346-.127-.347-.122-.347-.122-.35-.122-.35-.122-.347-.12-.35-.12-.35-.118-.35-.117-.35-.116-.355-.114-.35-.116-.354-.113-.354-.11-.35-.11-.356-.11-.354-.11-.356-.107-.356-.106-.354-.105-.358-.105-.356-.103-.358-.102-.356-.1-.36-.1-.358-.1-.36-.1-.36-.094-.358-.096-.36-.094-.36-.094-.363-.093-.36-.09-.362-.09-.362-.09-.363-.09-.365-.087-.365-.086-.362-.084-.365-.084-.366-.084-.365-.08-.366-.083-.366-.08-.368-.076-.367-.08-.37-.073-.367-.074-.37-.074-.367-.075-.37-.07-.37-.07-.37-.07-.37-.067-.37-.067-.37-.068-.37-.063-.373-.066-.374-.063-.372-.062-.372-.06-.374-.057-.376-.06-.372-.056-.376-.055-.375-.053-.375-.055-.374-.055-.377-.05-.378-.05-.376-.047-.376-.048-.377-.046-.38-.045-.376-.044-.38-.043-.376-.04-.38-.044-.377-.04-.38-.038-.38-.037-.383-.036-.38-.036-.382-.032-.38-.03-.383-.03-.38-.03-.383-.03-.384-.028-.384-.025-.384-.025-.385-.023-.383-.022-.384-.023-.385-.02-.385-.018-.385-.02-.385-.015-.388-.016-.385-.014-.387-.013-.387-.01-.386-.01-.39-.01-.386-.01-.39-.005-.388-.005-.39-.004-.388-.005-.39v-1.56l.004-.39.002-.39.003-.388.007-.39.01-.388.01-.387.01-.387.01-.39.015-.386.014-.385.015-.388.015-.388.02-.386.017-.385.02-.386.022-.387.02-.385.024-.387.025-.384.026-.383.028-.384.03-.38.03-.385.03-.382.033-.38.033-.383.037-.38.036-.38.036-.38.036-.382.04-.378.04-.382.042-.38.042-.378.044-.38.045-.377.046-.378.048-.38.048-.375.05-.376.05-.376.054-.377.053-.373.05-.375.056-.374.057-.375.06-.372.057-.374.06-.375.064-.37.062-.374.064-.373.062-.372.068-.37.068-.37.067-.372.07-.37.07-.37.07-.37.074-.37.07-.368.074-.368.075-.37.08-.368.075-.368.08-.366.08-.367.08-.366.084-.365.084-.366.084-.364.083-.366.09-.363.09-.363.09-.363.09-.36.09-.364.092-.36.094-.364.095-.36.096-.36.096-.36.098-.36.1-.36.1-.358.1-.36.104-.358.103-.358.105-.357.105-.357.106-.355.107-.355.11-.354.11-.355.11-.355.113-.35.113-.354.114-.353.114-.352.115-.35.113-.35.12-.35.118-.35.12-.35.123-.35.122-.35.123-.348.123-.348.127-.348.126-.347.128-.348.128-.345.13-.346.13-.344.133-.344.134-.343.134-.344.136-.344.136-.34.137-.342.136-.34.137-.342.14-.34.14-.34.143-.34.14-.337.146-.34.145-.336.145-.338.146-.335.15-.335.146-.336.15-.336.15-.335.15-.335.154-.332.154-.334.156-.333.155-.33.158-.332.158-.33.16-.33.157-.33.162-.328.16-.33.16-.327.163-.328.164-.327.165-.325.164-.324.168-.326.17-.324.17-.323.17-.322.17-.32.17-.32.173-.323.175-.32.177-.322.175-.318.176-.32.178-.318.18-.32.18-.317.18-.316.18-.316.18-.314.185-.315.183-.314.185-.313.185-.313.186-.315.186-.31.19-.313.188-.31.19-.31.192-.308.19-.31.194-.308.195-.308.194-.307.196-.304.196-.306.197-.305.196-.304.2-.302.2-.305.2-.3.202-.303.202-.3.204-.303.205-.3.205-.298.206-.3.21-.3.207-.296.21-.298.21-.296.21-.293.21-.294.214-.295.214-.295.213-.292.216-.29.218-.29.215-.29.217-.29.22-.29.218-.287.22-.29.225-.287.22-.285.224-.284.223-.286.224-.285.226-.284.227-.283.226-.282.226-.282.23-.28.228-.28.23-.28.233-.28.232-.276.23-.28.235-.274.235-.277.234-.276.235-.276.236-.274.237-.272.236-.272.24-.272.237-.27.24-.27.244-.27.24-.27.246-.266.244-.268.244-.267.247-.266.247-.267.248-.263.248-.265.25-.262.25-.264.248-.26.25-.26.253-.26.253-.26.254-.26.256-.257.256-.26.254-.254.257-.257.256-.254.256-.253.26-.254.26-.25.26-.253.26-.25.262-.253.26-.246.263-.25.265-.25.264-.246.263-.246.264-.247.267-.244.27-.245.267-.242.27-.243.27-.24.27-.242.27-.24.27-.238.275-.24.27-.237.277-.236.273-.235.274-.237.276-.233.28-.232.276-.233.278-.23.278-.23.28-.23.28-.23.283-.23.28-.226.283-.227.284-.228.284-.224.285-.225.286-.223.286-.222.286-.222.288-.22.287-.22.29-.22.29-.22.29-.215.29-.215.29-.216.29-.216.295-.215.293-.215.294-.21.294-.212.297-.21.297-.21.296-.21.297-.21.298-.206.3-.207.298-.205.302-.204.3-.205.3-.203.304-.2.304-.203.3-.2.304-.2.305-.198.305-.197.304-.196.306-.197.308-.192.306-.194.308-.19.31-.193.31-.19.31-.192.31-.19.31-.186.31-.188.315-.187.312-.187.312-.185.315-.184.315-.182.313-.183.317-.18.316-.18.32-.18.316-.18.32-.177.32-.178.32-.176.32-.174.32-.173.32-.172.324-.17.324-.17.32-.17.326-.17.324-.17.325-.166.324-.167.328-.164.326-.164.328-.164.327-.16.33-.16.33-.16.326-.16.33-.16.33-.158.334-.157.33-.154.334-.154.334-.153.333-.154.335-.152.336-.152.336-.15.335-.147.338-.15.335-.147.337-.147.336-.143.34-.143.335-.143.34-.14.34-.14.34-.14.34-.14.344-.137.342-.137.342-.136.342-.134.34-.135.346-.133.344-.13.344-.132.346-.13.345-.128.345-.127.348-.126.347-.125.347-.126.347-.124.35-.12.35-.12.346-.123.35-.12.352-.117.35-.116.35-.116.354-.115.35-.114.353-.115.353-.112.354-.11.356-.11.354-.108.356-.11.356-.105.357-.103.355-.104.358-.103.357-.104.357-.102.357-.1.36-.096.36-.098.36-.1.358-.095.362-.094.36-.09.362-.094.362-.09.363-.09.364-.09.363-.09.363-.084.365-.086.363-.085.37-.085.363-.083.368-.08.364-.082.367-.078.367-.08.368-.075.37-.076.367-.073.368-.074.37-.07.37-.07.37-.072.37-.07.37-.067.373-.067.372-.064.37-.065.375-.063.37-.062.373-.06.373-.06.375-.06.376-.057.375-.056.376-.056.375-.056.377-.053.376-.052.377-.052.374-.047.377-.05.38-.046.376-.048.38-.046.377-.044.38-.043.38-.042.377-.037.38-.04.38-.037.38-.036.383-.035.382-.034.38-.036.382-.03.383-.03.383-.03.383-.028.384-.028.384-.025.383-.028.383-.024.385-.024.386-.02.388-.02.385-.02.386-.018.384-.017.388-.016.39-.015.386-.013.387-.01.387-.01.39-.01.39-.008.387-.008.39-.005.387-.005.39-.004h1.56l.388.004.39.004.39.005.387.007.39.007.387.01.386.01.39.01.386.013.386.014.387.018.384.018.386.017.387.02.387.02.384.02.386.024.384.023.384.026.384.024.384.027.382.028.383.03.383.032.38.03.382.036.38.034.382.035.38.038.38.038.38.04.38.04.38.04.38.045.378.044.377.044.38.047.376.046.377.05.376.048.378.053.375.05.375.055.374.056.375.055.373.057.375.056.373.06.375.06.374.06.373.063.373.063.37.064.37.066.374.068.37.07.37.068.37.07.37.07.37.074.37.075.367.075.37.077.367.076.37.08.366.078.367.084.365.08.366.083.365.085.364.085.364.085.363.086.364.09.363.088.363.09.362.092.36.093.362.093.36.096.36.095.36.097.36.098.36.098.358.1.358.1.357.104.358.102.358.104.358.105.357.108.355.11.356.108.356.11.35.11.355.11.352.115.35.113.354.115.35.117.35.116.35.12.353.118.35.12.347.12.35.124.35.126.346.124.347.125.346.125.348.128.346.13.344.128.347.13.345.134.345.13.344.135.34.132.344.136.343.135.34.136.34.14.343.14.34.14.337.14.34.143.338.144.338.144.337.148.336.147.335.15.336.147.336.15.333.15.333.15.333.153.332.153.332.156.332.155.33.157.33.156.33.16.33.16.33.16.326.16.328.163.327.163.327.162.328.164.325.167.325.167.323.17.326.17.323.167.323.172.322.17.32.172.32.173.32.173.32.176.32.178.32.177.315.18.317.18.317.18.318.18.315.182.316.182.315.183.314.184.312.186.312.188.312.188.31.19.31.19.31.19.31.19.31.193.308.192.306.195.31.194.306.197.305.197.308.198.307.2.303.2.3.198.304.202.304.2.3.204.3.204.302.203.296.204.3.207.298.206.298.21.297.21.295.21.296.21.294.21.293.212.293.214.294.216.29.215.292.216.29.216.29.217.29.22.288.22.287.22.288.22.287.22.287.223.286.224.284.227.284.224.283.23.283.226.28.227.282.23.28.23.28.23.277.23.28.23.276.235.277.232.276.233.276.237.276.235.276.236.273.24.274.24.273.24.27.237.27.24.27.242.27.24.267.244.27.245.266.243.264.246.265.245.265.246.264.248.262.25.26.247.265.253.26.25.26.252.26.25.257.255.257.254.257.252.257.256.256.254.256.257.253.26.252.26.253.256.25.26.25.26.25.26.25.265.25.26.247.266.246.263.246.267.245.265.243.267.244.266.243.267.243.27.24.27.242.27.24.27.238.274.237.272.238.27.238.275.236.275.233.277.236.277.23.276.234.28.232.275.23.28.232.28.228.28.23.28.226.284.228.28.226.285.224.283.224.283.223.287.225.286.22.287.22.285.222.29.218.287.22.29.217.29.216.29.214.29.214.294.213.294.215.293.214.295.21.294.21.294.21.296.21.298.207.297.21.3.205.298.206.3.207.3.206.3.202.3.202.303.2.3.2.307.2.303.198.303.198.305.197.306.195.307.196.305.195.308.192.308.193.31.19.31.19.31.19.31.19.312.187.31.186.313.185.313.186.313.183.314.183.315.183.313.18.316.18.316.18.318.18.318.174.318.176.32.176.32.176.32.174.32.172.324.17.322.17.323.17.32.17.327.17.323.166.327.165.325.164.326.165.327.163.327.162.33.16.328.16.33.16.327.157.33.16.33.155.333.153.33.155.332.152.334.153.332.152.334.15.335.15.334.15.336.145.337.148.336.144.337.144.337.142.34.143.337.14.34.14.34.14.34.138.34.138.343.138.34.135.34.135.346.133.34.133.344.133.345.13.345.13.345.127.345.128.347.127.346.125.348.123.348.123.35.124.348.12.35.12.35.12.35.12.35.116.352.115.35.116.353.115.354.114.355.112.35.11.356.11.355.11.355.106.355.106.357.105.356.105.357.103.357.105.358.096.358.1.358.1.36.1.36.095.36.098.36.093.36.095.362.094.36.09.364.09.36.09.364.087.365.09.365.085.365.084.364.083.365.082.363.08.366.08.367.08.366.077.367.078.37.075.37.076.367.07.368.076.37.07.37.07.37.07.37.07.372.068.37.067.37.064.373.064.372.063.374.063.37.06.375.058.378.06.373.057.375.055.375.055.373.05.375.054.376.05.377.05.38.05.376.047.38.046.376.044.38.043.38.043.38.04.38.043.38.04.38.035.38.037.38.037.38.035.38.03.383.033.382.03.382.03.383.03.384.027.384.025.383.023.384.024.385.022.383.023.385.02.385.02.385.02.385.012.387.015.387.012.382.013.387.012.39.01.386.01.39.008.386.007.39.005.388.003.39.004.39v.39l.002.39-.002.39v.39l-.005.39-.003.39-.005.39-.007.387-.01.39-.008.386-.01.39-.012.387-.014.386-.014.387-.016.385-.014.388-.02.385-.018.387-.02.386-.022.386-.022.384-.024.386-.025.384-.025.382-.03.384-.03.384-.03.382-.03.382-.033.382-.033.382-.036.382-.037.38-.036.382-.037.38-.04.38-.04.38-.043.38-.043.377-.043.38-.044.376-.047.38-.05.375-.047.376-.05.377-.05.377-.054.378-.05.374-.057.375-.055.374-.058.375-.06.37-.057.376-.06.374-.062.373-.06.37-.064.374-.064.37-.066.372-.066.37-.07.37-.067.37-.07.37-.07.37-.075.37-.07.37-.078.367-.075.368-.08.368-.077.367-.08.367-.08.366-.08.366-.085.363-.085.366-.084.364-.087.364-.088.366-.088.363-.09.362-.09.36-.09.36-.094.363-.093.36-.093.36-.098.36-.098.36-.1.36-.1.36-.1.357-.1.36-.102.358-.103.356-.106.357-.105.36-.107.353-.107.355-.11.355-.11.353-.11.355-.11.353-.114.355-.113.352-.114.35-.116.354-.116.353-.12.35-.118.35-.12.35-.12.35-.124.348-.123.35-.124.346-.128.35-.127.347-.128.346-.127.346-.13.345-.13.344-.13.343-.134.344-.132.344-.135.343-.136.343-.138.34-.138.343-.138.34-.14.34-.14.34-.142.34-.143.337-.144.338-.145.337-.144.337-.147.336-.146.333-.15.335-.15.333-.15.335-.15.333-.155.335-.153.333-.157.33-.154.333-.158.33-.16.33-.158.33-.158.33-.16.33-.163.327-.162.328-.162.328-.164.327-.165.324-.165.323-.168.326-.17.324-.17.322-.17.324-.17.32-.17.323-.173.32-.175.323-.177.32-.176.32-.177.317-.177.318-.18.32-.18.317-.18.318-.18.316-.182.317-.182.315-.183.315-.185.314-.185.31-.186.315-.188.31-.19.312-.19.31-.19.31-.19.31-.192.31-.193.307-.195.307-.195.307-.196.305-.196.307-.197.305-.197.304-.2.304-.2.302-.2.302-.204.302-.2.3-.206.302-.205.3-.205.298-.206.298-.21.3-.206.295-.21.298-.21.297-.21.293-.21.296-.214.293-.213.292-.21.29-.216.294-.217.29-.217.292-.22.29-.22.29-.217.287-.22.288-.22.29-.223.284-.225.287-.22.287-.227.286-.225.285-.226.283-.227.28-.227.28-.23.28-.227.28-.23.284-.232.28-.23.277-.233.278-.23.277-.236.276-.235.276-.237.275-.238.275-.238.274-.237.27-.24.273-.24.27-.24.27-.242.27-.243.27-.242.27-.245.264-.244.267-.246.268-.246.265-.245.264-.248.263-.25.263-.25.262-.25.26-.25.263-.253.26-.253.258-.253.26-.25.257-.255.258-.256.257-.258.256-.255.255-.258.256-.26.254-.26.25-.26.253-.26.25-.264.25-.26.25-.264.25-.263.25-.266.245-.265.247-.265.245-.267.245-.27.244-.27.243-.267.24-.27.24-.27.243-.27.24-.272.24-.272.238-.272.238-.275.237-.273.234-.275.234-.277.233-.277.233-.278.232-.28.23-.277.233-.28.23-.28.23-.282.23-.28.23-.28.223-.284.227-.284.224-.283.224-.286.223-.284.22-.287.223-.288.22-.287.22-.29.22-.288.22-.29.216-.29.215-.293.218-.29.213-.293.217-.294.214-.294.21-.294.214-.297.212-.295.21-.296.207-.298.207-.297.206-.3.208-.3.208-.302.205-.3.203-.3.203-.304.2-.303.202-.3.2-.304.2-.305.2-.304.195-.304.197-.305.195-.31.195-.305.193-.307.192-.31.192-.31.19-.31.192-.31.19-.31.187-.313.188-.313.19-.314.185-.314.185-.313.184-.316.18-.313.185-.317.18-.317.18-.318.18-.316.18-.32.175-.32.18-.32.175-.32.173-.32.174-.32.176-.322.17-.324.172-.323.17-.323.17-.323.166-.324.168-.326.168-.327.166-.327.164-.328.163-.327.16-.327.16-.33.16-.33.16-.327.16-.33.156-.334.157-.33.156-.335.153-.33.154-.334.153-.333.15-.334.153-.336.15-.336.147-.334.148-.335.147-.336.147-.337.146-.34.143-.337.143-.34.142-.337.14-.34.14-.34.14-.342.137-.34.136-.342.136-.342.135-.344.135-.342.132-.344.13-.346.132-.343.13-.345.127-.348.127-.346.126-.347.126-.346.125-.35.126-.347.12-.35.123-.348.12-.35.12-.354.115-.35.116-.352.118-.353.114-.35.116-.353.113-.355.11-.35.11-.355.11-.356.11-.353.11-.356.105-.355.105-.355.104-.36.104-.357.1-.358.103-.358.1-.36.1-.36.1-.36.096-.36.094-.36.094-.36.093-.364.092-.36.09-.364.09-.365.09-.363.087-.363.086-.365.085-.365.085-.363.085-.366.082-.363.083-.365.078-.366.08-.368.08-.366.08-.37.074-.368.074-.37.073-.368.073-.37.072-.37.07-.37.07-.372.067-.372.065-.37.064-.373.067-.373.064-.372.063-.373.062-.374.058-.372.06-.375.057-.375.055-.376.055-.377.056-.377.053-.375.05-.376.052-.376.05-.378.048-.38.048-.38.047-.376.044-.378.042-.38.043-.38.042-.38.04-.38.04-.38.037-.38.036-.383.035-.38.037-.382.033-.38.032-.38.03-.384.03-.383.028-.384.028-.385.025-.386.024-.386.024-.386.023-.384.02-.385.02-.386.02-.387.016-.385.016-.386.016-.386.013-.388.013-.388.012-.387.01-.387.01-.39.006-.387.008-.39.006-.39.003-.39.004-.39.003h-.387zm0-5h.373l.375-.002.374-.003.373-.004.373-.003.372-.005.373-.01.372-.007.372-.01.37-.01.373-.013.372-.015.37-.016.37-.016.37-.018.37-.017.37-.02.37-.02.367-.024.37-.022.368-.024.367-.026.364-.026.368-.028.366-.03.367-.03.366-.03.368-.03.367-.033.366-.036.366-.034.365-.037.364-.038.364-.037.362-.04.363-.04.363-.044.363-.042.365-.044.362-.045.36-.048.362-.047.36-.048.36-.05.36-.052.36-.05.36-.054.36-.055.36-.055.355-.056.358-.057.358-.06.36-.06.356-.06.356-.06.357-.065.355-.063.356-.068.355-.067.354-.067.354-.068.354-.07.35-.07.353-.073.354-.074.353-.074.35-.075.352-.077.35-.077.35-.076.35-.08.35-.08.35-.082.35-.083.35-.084.346-.084.35-.084.344-.09.348-.085.347-.09.345-.09.346-.09.344-.093.346-.092.344-.093.344-.097.344-.094.344-.098.342-.098.342-.1.343-.098.34-.102.343-.1.34-.105.34-.104.34-.106.34-.104.338-.106.338-.11.338-.11.337-.11.337-.11.336-.113.335-.11.337-.116.336-.115.336-.118.334-.117.333-.12.334-.117.334-.12.332-.12.33-.123.33-.124.33-.124.33-.124.33-.126.33-.125.33-.13.328-.13.33-.13.326-.13.327-.13.327-.134.325-.133.326-.134.324-.137.326-.136.324-.137.323-.14.324-.14.32-.14.323-.142.322-.142.32-.143.32-.145.32-.144.32-.145.32-.15.318-.148.318-.15.318-.15.316-.15.318-.152.316-.152.316-.153.313-.156.314-.157.313-.157.314-.16.313-.157.31-.16.314-.16.31-.16.31-.164.31-.163.31-.163.308-.162.31-.167.307-.163.304-.17.307-.165.307-.17.306-.17.304-.17.302-.172.304-.173.304-.172.3-.175.3-.174.3-.177.304-.178.3-.177.298-.18.3-.18.3-.18.298-.18.296-.184.298-.185.296-.183.294-.183.296-.187.295-.186.29-.187.295-.19.293-.188.29-.19.29-.19.294-.194.29-.193.29-.194.29-.195.286-.195.287-.197.286-.197.286-.198.285-.198.286-.2.285-.2.283-.202.284-.2.28-.204.284-.202.28-.206.28-.205.28-.205.28-.207.278-.208.28-.21.276-.21.278-.21.275-.21.276-.21.274-.216.274-.213.273-.21.273-.216.273-.216.27-.217.272-.22.27-.214.27-.22.27-.22.265-.22.27-.22.266-.225.266-.22.267-.225.265-.224.263-.225.264-.226.262-.228.262-.225.26-.23.26-.227.26-.23.26-.23.26-.23.256-.233.257-.234.26-.233.256-.235.254-.233.256-.24.254-.236.25-.238.253-.24.25-.238.252-.24.25-.24.25-.24.247-.244.25-.242.245-.243.246-.245.246-.245.242-.247.243-.247.244-.247.243-.25.242-.25.24-.25.242-.25.24-.25.238-.25.238-.25.237-.255.24-.253.235-.253.236-.255.236-.256.234-.258.23-.256.234-.258.23-.26.23-.26.232-.26.23-.26.226-.263.23-.26.227-.263.223-.262.225-.265.222-.265.224-.265.224-.267.22-.266.223-.267.22-.268.22-.27.22-.27.22-.27.216-.27.216-.273.216-.272.216-.27.216-.274.213-.274.213-.272.212-.275.21-.278.21-.278.21-.278.208-.277.208-.28.207-.28.208-.28.205-.28.203-.282.205-.282.2-.28.205-.283.203-.284.2-.287.2-.285.197-.286.198-.29.197-.284.197-.287.193-.29.194-.29.195-.29.19-.29.19-.29.19-.29.19-.292.19-.292.19-.293.188-.294.187-.295.186-.296.186-.298.184-.297.18-.296.184-.3.182-.297.18-.298.18-.3.18-.3.178-.3.177-.3.177-.3.175-.303.174-.302.173-.302.173-.302.172-.304.17-.303.17-.306.17-.307.167-.306.167-.306.166-.307.166-.308.166-.31.163-.308.165-.312.16-.31.16-.31.16-.31.16-.314.16-.31.155-.314.156-.316.156-.313.157-.315.154-.315.152-.317.153-.315.15-.316.15-.316.15-.318.146-.32.146-.317.147-.32.145-.32.144-.32.142-.32.144-.323.143-.32.14-.325.14-.32.137-.325.14-.325.136-.323.134-.325.136-.325.132-.327.134-.325.13-.327.13-.33.13-.325.13-.328.128-.33.13-.33.125-.33.124-.33.122-.33.12-.332.12-.33.125-.334.12-.33.12-.336.116-.334.12-.333.115-.332.115-.335.113-.337.112-.336.112-.337.112-.336.11-.338.106-.338.11-.34.104-.34.106-.34.105-.337.105-.34.102-.342.104-.34.1-.34.1-.342.1-.343.1-.342.095-.344.097-.342.095-.344.095-.346.09-.344.094-.347.09-.345.09-.346.09-.346.086-.347.086-.35.087-.347.084-.347.08-.35.083-.35.08-.35.082-.35.08-.35.076-.35.08-.352.074-.35.075-.354.072-.35.072-.352.072-.356.07-.353.07-.353.07-.353.066-.356.065-.354.066-.355.065-.356.06-.355.063-.357.063-.357.058-.356.06-.358.058-.36.057-.358.054-.36.054-.36.05-.358.054-.36.05-.36.05-.36.05-.36.046-.362.046-.36.046-.364.046-.363.043-.363.04-.363.04-.362.04-.366.04-.362.04-.365.036-.365.036-.363.034-.365.033-.367.033-.366.03-.368.03-.368.025-.366.03-.368.026-.368.026-.368.024-.368.022-.37.022-.37.02-.368.02-.37.02-.37.014-.37.018-.37.013-.37.01-.37.013-.372.012-.372.01-.372.01-.373.006-.37.008-.374.004-.373.003-.373.005-.372.002-.373v-.75l-.002-.374-.003-.37-.003-.374-.006-.373-.01-.372-.006-.37-.01-.373-.01-.373-.01-.37-.013-.37-.013-.37-.014-.37-.018-.37-.015-.37-.02-.37-.017-.37-.02-.37-.023-.37-.022-.37-.024-.367-.026-.368-.028-.367-.028-.37-.027-.366-.03-.366-.03-.367-.033-.366-.033-.367-.033-.366-.035-.363-.035-.364-.037-.365-.04-.362-.04-.365-.04-.364-.04-.365-.044-.36-.046-.364-.046-.36-.047-.363-.045-.36-.05-.36-.05-.362-.05-.36-.052-.36-.053-.36-.055-.36-.056-.357-.058-.36-.057-.358-.06-.356-.058-.357-.062-.356-.062-.357-.06-.357-.067-.355-.063-.354-.065-.354-.066-.355-.07-.354-.068-.353-.07-.353-.073-.354-.07-.353-.074-.353-.077-.353-.076-.35-.078-.35-.077-.35-.08-.35-.08-.35-.08-.35-.085-.35-.084-.348-.084-.35-.085-.347-.085-.347-.088-.346-.09-.35-.09-.345-.09-.345-.093-.345-.09-.344-.096-.343-.094-.345-.096-.344-.096-.342-.098-.343-.1-.343-.1-.34-.1-.343-.103-.34-.102-.34-.103-.34-.104-.34-.106-.338-.108-.34-.11-.34-.106-.336-.11-.34-.112-.337-.112-.335-.113-.338-.116-.336-.115-.335-.116-.337-.12-.334-.116-.334-.12-.334-.12-.333-.123-.33-.122-.334-.12-.332-.125-.33-.126-.33-.127-.33-.127-.33-.127-.328-.13-.33-.13-.327-.13-.328-.13-.327-.135-.327-.132-.33-.136-.324-.135-.325-.136-.324-.14-.325-.137-.323-.14-.322-.14-.323-.14-.32-.144-.323-.144-.32-.143-.32-.145-.32-.147-.32-.145-.318-.15-.32-.15-.317-.15-.316-.15-.318-.15-.317-.15-.316-.157-.316-.155-.315-.154-.314-.158-.315-.158-.31-.158-.314-.16-.312-.16-.31-.16-.313-.162-.31-.164-.31-.164-.31-.165-.306-.164-.308-.167-.308-.17-.308-.17-.307-.166-.304-.17-.307-.17-.305-.172-.305-.173-.302-.175-.302-.173-.303-.175-.3-.175-.302-.177-.3-.18-.302-.178-.3-.18-.296-.18-.3-.182-.297-.183-.3-.182-.296-.184-.295-.185-.297-.186-.293-.187-.295-.187-.294-.19-.292-.19-.293-.19-.29-.193-.293-.19-.29-.193-.29-.194-.288-.194-.29-.194-.288-.197-.287-.196-.287-.2-.287-.198-.284-.2-.283-.2-.284-.2-.284-.204-.286-.2-.28-.207-.283-.203-.28-.206-.28-.207-.28-.206-.28-.208-.278-.21-.28-.21-.278-.21-.277-.21-.277-.21-.276-.214-.276-.215-.274-.213-.274-.212-.273-.217-.27-.215-.27-.217-.27-.22-.27-.217-.27-.22-.27-.22-.27-.223-.266-.22-.266-.225-.268-.224-.265-.224-.264-.225-.263-.226-.264-.228-.265-.23-.26-.226-.264-.227-.26-.23-.26-.23-.26-.233-.26-.234-.255-.23-.258-.235-.256-.232-.254-.235-.255-.235-.253-.238-.254-.238-.252-.238-.25-.24-.25-.238-.25-.24-.25-.243-.25-.242-.25-.24-.25-.245-.245-.244-.247-.245-.245-.246-.246-.247-.245-.246-.243-.248-.243-.25-.242-.25-.24-.25-.242-.25-.24-.25-.238-.254-.24-.25-.236-.257-.237-.257-.236-.254-.236-.256-.233-.258-.234-.256-.234-.258-.233-.26-.23-.258-.23-.26-.23-.26-.23-.26-.23-.264-.226-.263-.226-.264-.225-.265-.226-.265-.225-.266-.225-.264-.22-.267-.223-.27-.222-.266-.22-.27-.22-.27-.22-.27-.217-.27-.217-.27-.218-.274-.217-.272-.214-.273-.212-.27-.214-.275-.214-.276-.21-.276-.213-.278-.21-.277-.21-.28-.21-.277-.205-.28-.21-.28-.203-.28-.21-.28-.202-.284-.206-.28-.203-.286-.2-.282-.2-.283-.2-.287-.2-.285-.2-.285-.2-.286-.195-.287-.198-.287-.197-.29-.194-.29-.19-.29-.194-.29-.192-.29-.19-.294-.19-.29-.19-.296-.188-.29-.188-.295-.186-.296-.186-.294-.185-.295-.182-.296-.183-.296-.18-.3-.185-.298-.18-.3-.18-.3-.18-.298-.178-.3-.177-.302-.175-.302-.176-.302-.178-.303-.173-.306-.173-.302-.173-.305-.17-.307-.17-.305-.17-.306-.167-.307-.167-.308-.166-.308-.166-.308-.165-.31-.163-.31-.165-.31-.162-.31-.16-.313-.162-.31-.157-.314-.158-.313-.157-.314-.157-.313-.156-.314-.155-.318-.153-.314-.154-.317-.15-.315-.15-.318-.152-.318-.148-.32-.148-.32-.148-.32-.147-.32-.143-.32-.146-.32-.143-.32-.14-.324-.143-.32-.14-.324-.14-.323-.138-.326-.138-.325-.137-.325-.136-.326-.135-.324-.135-.326-.133-.328-.132-.327-.13-.33-.13-.328-.13-.33-.126-.328-.13-.33-.126-.33-.125-.33-.125-.334-.122-.33-.123-.333-.12-.332-.12-.33-.12-.334-.118-.334-.118-.335-.116-.334-.116-.337-.115-.336-.112-.336-.112-.337-.11-.336-.11-.34-.112-.335-.105-.34-.11-.338-.104-.34-.103-.34-.105-.34-.106-.343-.1-.34-.102-.34-.1-.343-.097-.34-.097-.344-.098-.344-.094-.345-.094-.343-.096-.346-.092-.343-.092-.347-.09-.346-.09-.347-.088-.348-.088-.347-.086-.35-.086-.346-.084-.35-.084-.347-.08-.35-.084-.35-.08-.35-.078-.35-.08-.352-.075-.35-.076-.35-.074-.354-.074-.352-.073-.35-.073-.353-.07-.354-.07-.354-.068-.355-.068-.354-.067-.357-.066-.356-.063-.356-.063-.355-.062-.356-.06-.36-.06-.358-.06-.36-.056-.357-.058-.358-.055-.36-.056-.36-.052-.36-.05-.36-.054-.36-.05-.363-.046-.36-.05-.362-.046-.362-.044-.362-.045-.362-.044-.363-.04-.362-.04-.363-.04-.366-.04-.363-.04-.364-.035-.365-.033-.366-.034-.365-.033-.367-.03-.366-.03-.367-.03-.364-.03-.368-.026-.367-.027-.366-.024-.368-.025-.37-.025-.368-.02-.37-.02-.368-.02-.37-.018-.37-.018-.373-.016-.37-.015-.37-.012-.373-.012-.37-.01-.373-.01-.37-.01-.374-.005-.372-.007-.373-.006-.37-.005h-.376l-.374-.003h-.75l-.37.003h-.375l-.375.006-.37.006-.376.005-.373.006-.37.01-.37.01-.372.01-.372.014-.37.014-.37.016-.37.014-.37.018-.37.02-.37.017-.37.02-.37.02-.367.024-.37.024-.37.024-.37.027-.363.028-.368.03-.368.03-.364.03-.365.03-.366.035-.365.035-.366.034-.365.035-.364.038-.365.04-.364.04-.363.04-.363.042-.365.043-.36.044-.364.045-.36.045-.36.048-.36.05-.36.05-.36.052-.36.05-.36.054-.36.054-.36.056-.357.056-.358.057-.357.06-.357.06-.354.06-.357.06-.357.065-.355.062-.354.065-.354.067-.358.066-.353.07-.356.07-.353.07-.353.07-.354.073-.35.074-.353.074-.35.078-.35.076-.35.08-.35.08-.35.08-.35.082-.35.08-.348.085-.35.083-.346.087-.348.086-.35.088-.344.09-.346.09-.346.09-.345.09-.345.093-.343.095-.346.095-.344.094-.344.098-.344.098-.342.1-.34.098-.343.102-.34.1-.34.105-.34.105-.34.105-.34.105-.34.11-.337.105-.338.11-.337.11-.337.11-.335.114-.337.11-.336.116-.336.114-.334.115-.334.115-.333.12-.334.118-.334.12-.332.12-.332.123-.332.125-.33.126-.33.124-.33.125-.33.127-.327.127-.328.13-.33.13-.326.13-.33.13-.325.134-.326.133-.326.132-.325.135-.324.138-.324.137-.323.138-.325.14-.323.14-.322.142-.32.142-.32.143-.32.144-.32.144-.32.145-.32.15-.316.146-.318.148-.317.152-.32.15-.314.15-.317.154-.315.154-.314.155-.312.154-.315.157-.314.158-.314.157-.31.16-.313.16-.31.16-.31.163-.31.162-.31.163-.308.166-.308.165-.308.166-.308.168-.307.167-.306.17-.307.17-.304.17-.303.173-.305.172-.304.173-.304.176-.302.175-.3.175-.302.178-.3.18-.298.178-.3.18-.3.18-.297.183-.296.18-.298.184-.296.184-.295.186-.293.186-.296.185-.29.187-.294.19-.294.188-.29.19-.29.19-.292.194-.29.192-.29.192-.29.194-.285.196-.288.196-.287.195-.286.2-.286.2-.285.2-.284.2-.284.2-.284.2-.28.202-.284.203-.28.206-.28.21-.28.203-.28.21-.28.205-.28.21-.275.21-.277.21-.276.21-.276.212-.275.213-.274.213-.275.213-.27.214-.274.217-.27.218-.272.218-.27.218-.27.22-.27.22-.266.22-.27.22-.267.223-.264.22-.266.226-.265.226-.265.224-.263.227-.263.23-.262.226-.26.23-.26.227-.26.23-.26.23-.26.23-.257.233-.256.234-.257.234-.257.235-.254.235-.255.236-.25.237-.254.237-.253.24-.25.237-.252.24-.25.24-.25.243-.246.242-.247.242-.248.243-.247.244-.246.247-.245.246-.244.247-.245.245-.242.248-.24.25-.243.25-.24.25-.24.25-.24.25-.238.252-.237.253-.238.256-.235.253-.236.254-.233.256-.234.256-.233.258-.233.256-.23.26-.23.258-.23.26-.23.26-.228.263-.23.26-.225.266-.227.263-.225.26-.223.266-.224.265-.223.268-.22.265-.224.266-.22.27-.22.265-.22.27-.22.27-.215.27-.217.27-.215.273-.215.272-.216.274-.214.275-.21.274-.212.274-.21.274-.21.276-.21.277-.21.28-.207.28-.207.28-.207.28-.205.28-.203.28-.202.282-.202.282-.203.283-.203.283-.2.285-.2.286-.197.286-.198.29-.197.286-.197.288-.193.288-.195.29-.195.288-.192.29-.19.29-.192.292-.19.29-.19.293-.186.293-.19.294-.186.295-.186.293-.184.295-.184.297-.184.297-.183.298-.183.297-.18.3-.18.296-.18.3-.175.3-.18.3-.176.3-.176.303-.173.302-.174.304-.173.302-.17.305-.173.305-.17.305-.17.303-.168.307-.168.307-.166.308-.166.308-.166.308-.163.31-.16.31-.162.31-.162.31-.16.314-.16.31-.158.314-.157.312-.155.315-.156.314-.157.314-.153.314-.152.316-.15.317-.153.32-.15.315-.15.32-.147.32-.146.316-.148.32-.146.32-.145.32-.143.32-.142.323-.142.322-.14.323-.14.322-.137.322-.14.325-.135.324-.136.327-.136.325-.132.328-.134.326-.13.328-.13.328-.13.328-.13.327-.128.33-.128.33-.126.33-.125.33-.124.33-.12.333-.124.332-.12.33-.12.333-.12.334-.117.333-.118.335-.117.334-.116.336-.115.335-.112.337-.112.335-.11.336-.11.338-.11.337-.11.34-.104.338-.105.34-.105.34-.105.338-.103.34-.102.34-.1.345-.1.34-.1.343-.098.344-.096.343-.095.344-.095.345-.094.343-.092.343-.094.347-.09.344-.09.348-.09.35-.087.345-.086.347-.085.348-.084.35-.08.346-.083.35-.08.35-.082.35-.08.35-.076.35-.08.35-.074.353-.075.352-.07.35-.074.353-.07.353-.07.352-.072.354-.07.354-.066.355-.065.355-.064.355-.064.356-.064.357-.063.356-.06.357-.06.36-.06.355-.056.358-.057.36-.055.357-.054.36-.055.36-.05.36-.05.36-.05.36-.05.36-.048.36-.047.364-.046.36-.045.363-.043.36-.043.364-.04.363-.04.364-.04.363-.038.365-.036.365-.035.364-.032.367-.034.367-.034.366-.028.366-.03.365-.028.367-.028.37-.026.365-.026.368-.024.368-.022.37-.022.37-.02.368-.02.37-.017.37-.018.37-.016.37-.014.37-.013.373-.013.37-.01.37-.01.374-.008.372-.01.372-.007.372-.005.373-.003.374-.004.372v1.125l.002.372.004.373.003.376.005.372.007.372.01.373.007.373.01.372.01.372.012.37.014.37.016.373.016.37.015.37.016.37.02.37.02.37.022.367.022.37.024.367.025.368.026.368.03.367.025.366.032.367.03.365.03.366.034.367.035.366.037.364.036.366.04.365.04.365.04.364.04.36.04.364.044.362.043.36.045.364.047.36.047.363.048.36.05.36.05.36.053.36.054.36.052.36.055.356.057.36.057.356.06.358.06.357.06.36.06.356.066.355.063.357.064.355.066.354.067.355.07.354.07.354.07.354.07.355.076.35.07.353.077.353.075.35.078.35.077.35.08.353.08.348.08.35.084.35.082.35.084.346.086.348.086.35.086.347.09.347.09.346.09.344.092.346.092.343.093.347.093.342.096.342.095.344.096.34.1.345.1.34.1.344.103.34.102.34.103.342.105.337.107.34.107.338.11.34.106.337.11.34.113.337.11.337.114.337.115.334.114.337.117.334.118.335.118.334.12.333.12.332.12.334.124.33.12.33.125.33.126.33.127.33.127.33.125.33.13.33.13.326.13.326.13.327.135.324.133.326.136.325.135.325.136.324.14.325.14.322.14.32.137.324.14.32.144.323.145.32.144.32.145.318.147.32.146.318.148.32.15.317.15.317.15.318.153.315.153.316.153.312.154.314.154.314.156.313.157.314.16.31.16.314.16.313.16.31.163.31.16.31.164.31.166.308.164.31.167.306.168.306.17.306.168.306.17.304.173.304.17.305.175.3.173.304.174.303.176.304.178.3.177.3.177.3.18.3.18.3.18.3.182.296.182.297.184.295.183.295.183.295.186.294.186.29.188.295.187.294.19.29.19.294.193.29.19.29.193.29.194.29.195.287.192.29.197.288.196.284.198.287.198.285.2.284.2.285.2.284.204.28.203.283.202.282.204.28.205.283.208.28.205.28.207.28.208.275.21.278.21.278.21.277.214.275.21.273.213.276.215.273.215.272.215.272.216.272.216.27.22.27.217.27.22.27.22.266.222.267.22.266.225.266.225.265.223.266.226.265.228.264.225.263.23.26.226.263.23.26.23.26.23.26.23.26.233.258.232.256.233.256.234.256.237.255.234.257.238.253.237.252.237.254.24.25.24.25.24.252.24.25.243.247.243.25.245.247.244.246.245.246.246.244.247.244.248.242.247.242.248.243.25.24.25.24.25.24.252.24.253.236.253.237.254.236.257.236.255.234.258.237.256.233.254.233.256.23.26.23.258.23.26.23.26.23.26.23.263.227.264.228.264.226.264.226.265.224.265.224.264.222.266.224.27.22.266.22.27.22.268.22.27.217.272.22.27.22.274.214.272.214.274.213.273.214.275.214.276.21.276.213.278.21.277.21.28.21.277.207.28.207.28.206.28.203.28.205.284.202.28.203.286.2.282.202.285.2.286.2.286.2.285.197.287.195.29.196.286.197.29.195.29.192.29.192.29.19.29.19.292.19.293.19.295.188.29.187.296.188.295.186.296.183.296.184.297.185.295.182.297.18.3.18.3.18.298.18.3.177.3.18.302.176.302.175.3.177.303.174.304.174.302.172.304.17.307.17.307.17.307.166.307.17.307.165.308.167.308.164.31.163.31.164.31.162.31.16.312.16.31.16.314.157.31.16.314.155.313.155.315.155.315.153.317.154.316.152.318.15.317.15.32.15.317.147.32.148.32.147.32.144.32.147.32.143.32.14.324.143.324.14.324.14.324.14.324.137.323.136.325.135.326.135.328.133.326.133.328.133.327.13.33.13.325.128.33.13.33.126.33.128.33.124.33.123.333.125.33.12.333.12.333.12.333.12.333.118.334.117.334.116.334.115.335.116.336.112.336.112.337.11.337.11.337.11.34.11.34.106.337.105.34.108.34.103.34.105.34.1.343.1.34.1.343.1.344.097.343.098.343.095.344.098.344.093.347.094.346.092.347.09.345.09.345.09.348.085.35.09.346.083.35.084.348.085.35.083.35.08.35.082.35.08.35.076.35.08.353.074.352.073.35.074.353.074.353.072.353.07.353.07.352.067.356.067.354.067.355.066.356.063.357.063.357.06.356.06.358.06.358.06.36.056.358.055.36.057.36.058.36.053.36.05.36.054.36.05.36.048.36.05.363.046.363.046.36.044.364.043.363.042.364.04.363.04.364.04.366.037.365.034.365.035.365.034.364.032.364.03.365.032.367.03.368.03.366.024.37.026.368.027.368.024.368.023.368.02.37.022.37.02.37.017.37.018.37.016.37.016.37.014.373.01.37.012.37.01.374.01.373.007.373.004.374.005.373.005.373.003.373.002h.375z" fill="#595959"/><path d="M317.172 316.593h-.69l-.69-.003-.693-.005-.697-.01-.697-.01-.698-.013-.7-.017-.7-.02-.702-.02-.703-.025-.706-.028-.707-.03-.71-.032-.707-.036-.713-.04-.712-.04-.713-.046-.717-.046-.716-.05-.72-.053-.718-.06-.72-.06-.724-.06-.724-.07-.726-.067-.726-.07-.73-.077-.728-.078-.73-.08-.732-.086-.368-.043-.367-.045-.365-.046-.368-.046-.37-.047-.368-.045-.37-.048-.368-.05-.368-.05-.37-.05-.37-.052-.37-.053-.37-.054-.37-.055-.37-.054-.37-.055-.373-.055-.37-.058-.372-.06-.375-.06-.373-.06-.373-.06-.375-.06-.373-.063-.374-.065-.375-.065-.374-.064-.372-.066-.375-.068-.376-.067-.375-.07-.376-.07-.377-.07-.373-.072-.377-.074-.378-.074-.378-.074-.377-.075-.377-.075-.38-.078-.373-.078-.378-.08-.38-.08-.378-.08-.38-.08-.377-.084-.38-.084-.38-.085-.38-.085-.38-.087-.38-.086-.38-.09-.38-.088-.382-.09-.38-.09-.38-.094-.38-.09-.383-.094-.382-.093-.382-.095-.384-.095-.383-.096-.383-.1-.383-.1-.383-.1-.384-.1-.384-.104-.385-.104-.384-.105-.382-.103-.386-.107-.384-.11-.387-.107-.384-.11-.386-.11-.386-.11-.385-.114-.386-.116-.385-.112-.39-.115-.384-.117-.387-.117-.386-.12-.387-.12-.387-.12-.386-.12-.387-.125-.388-.124-.39-.124-.39-.125-.387-.126-.387-.127-.39-.128-.388-.13-.388-.133-.387-.132-.39-.132-.388-.136-.39-.135-.39-.135-.388-.138-.39-.14-.39-.14-.39-.14-.39-.14-.39-.146-.39-.142-.39-.146-.39-.146-.39-.145-.393-.15-.39-.15-.39-.15-.393-.152-.39-.154-.39-.152-.39-.157-.394-.153-.39-.16-.394-.157-.392-.16-.392-.16-.393-.162-.39-.163-.393-.165-.393-.166-.395-.165-.392-.17-.392-.168-.39-.17-.395-.17-.393-.174-.392-.174-.393-.175-.392-.176-.394-.178-.392-.18-.392-.18-.393-.18-.394-.18-.393-.184-.393-.184-.394-.184-.394-.186-.395-.188-.393-.19-.393-.19-.394-.19-.394-.193-.395-.194-.393-.195-.393-.196-.394-.2-.395-.2-.393-.197-.394-.2-.393-.203-.397-.203-.394-.205-.395-.207-.396-.206-.395-.21-.396-.21-.394-.21-.393-.215-1.702-.92-.003-1.61v-.152l.002-.208.003-.263.006-.315.008-.368.014-.42.015-.47.02-.52.01-.28.015-.29.018-.302.015-.316.017-.325.018-.34.023-.35.024-.36.023-.376.026-.382.03-.395.026-.41.034-.418.036-.428.036-.44.04-.453.04-.46.044-.472.045-.48.05-.495.05-.502.055-.513.057-.523.06-.53.063-.546.065-.552.068-.56.072-.574.074-.58.077-.59.08-.6.085-.607.088-.616.09-.625.096-.635.097-.644.1-.653.108-.66.11-.67.114-.676.116-.685.12-.694.124-.7.13-.71.132-.717.14-.724.142-.734.145-.74.15-.745.077-.375.08-.38.08-.38.08-.38.082-.384.082-.385.083-.388.086-.388.088-.39.086-.393.09-.394.09-.395.092-.4.093-.396.094-.4.094-.404.096-.402.1-.404.097-.408.1-.408.104-.41.103-.41.104-.414.107-.414.107-.415.11-.42.11-.418.11-.422.114-.42.116-.423.117-.424.118-.426.117-.427.12-.428.12-.43.123-.432.125-.432.126-.434.13-.436.13-.437.13-.437.13-.438.132-.44.137-.443.134-.444.138-.443.14-.446.14-.447.142-.45.145-.448.143-.45.15-.45.147-.452.15-.455.155-.453.153-.456.155-.457.156-.457.16-.46.16-.46.16-.46.162-.46.163-.464.168-.466.17-.465.17-.466.17-.468.173-.466.177-.47.177-.47.18-.47.18-.47.18-.474.185-.473.186-.473.19-.476.19-.477.19-.476.193-.474.195-.478.195-.478.2-.48.2-.48.2-.484.205-.482.205-.48.208-.485.21-.487.213-.484.21-.486.218-.485.218-.487.218-.487.22-.488.224-.49.225-.49.227-.49.227-.49.23-.49.23-.49.235-.49.238-.494.24-.492.24-.492.242-.494.245-.495.248-.493.248-.495.25-.494.254-.495.256-.497.257-.496.26-.496.26-.498.265-.497.266-.497.267-.5.27-.497.3-.548.307-.55.307-.55.31-.55.313-.55.316-.55.32-.553.323-.55.327-.552.328-.55.334-.55.336-.553.34-.552.34-.55.347-.553.35-.553.35-.552.357-.552.358-.55.362-.553.364-.552.37-.552.37-.552.374-.55.378-.553.38-.55.384-.552.39-.55.39-.553.393-.55.396-.55.4-.552.404-.55.406-.55.41-.55.414-.55.417-.548.42-.548.424-.55.426-.546.43-.545.432-.547.437-.547.44-.548.442-.545.446-.546.45-.544.45-.544.46-.544.457-.546.463-.542.465-.542.47-.54.47-.54.477-.54.48-.54.48-.54.485-.54.487-.536.492-.537.495-.535.5-.534.5-.535.506-.533.508-.532.512-.53.515-.533.518-.53.52-.53.528-.527.53-.528.53-.528.534-.525.536-.525.542-.526.543-.52.275-.263.277-.26.276-.26.275-.26.278-.26.28-.26.28-.26.277-.26.28-.256.28-.26.283-.258.282-.26.282-.256.283-.257.286-.257.286-.257.285-.257.287-.257.287-.254.29-.255.29-.253.29-.256.293-.254.295-.256.292-.254.294-.253.297-.252.297-.253.298-.252.3-.253.296-.25.3-.254.3-.25.3-.25.3-.253.306-.25.304-.25.305-.25.305-.25.304-.25.306-.246.31-.25.307-.25.31-.246.31-.247.31-.246.312-.247.31-.246.314-.246.316-.242.316-.246.317-.244.316-.244.315-.244.32-.246.32-.242.32-.243.32-.244.322-.243.324-.24.324-.242.324-.24.325-.24.326-.24.326-.24.326-.24.33-.237.33-.24.33-.235.33-.24.33-.235.335-.238.333-.237.333-.236.338-.236.336-.234.338-.234.34-.234.337-.232.34-.232.34-.234.343-.232.34-.232.343-.23.345-.233.345-.23.346-.23.347-.23.347-.23.348-.23.35-.228.35-.23.35-.226.35-.226.354-.228.353-.225.355-.226.355-.226.355-.225.356-.225.36-.224.357-.223.36-.222.358-.222 2.627 4.255-.352.22-.35.214-.35.217-.35.22-.347.22-.345.22-.347.22-.343.22-.344.22-.344.22-.344.22-.34.222-.34.22-.34.225-.34.223-.34.223-.338.224-.336.223-.338.225-.336.225-.334.227-.334.226-.333.227-.33.227-.33.227-.33.23-.33.228-.33.23-.328.227-.328.23-.327.23-.326.23-.325.23-.323.23-.323.232-.32.233-.324.23-.32.23-.32.236-.318.235-.32.233-.315.233-.316.237-.314.233-.316.236-.313.236-.314.236-.31.237-.312.235-.31.235-.31.24-.307.237-.307.24-.308.238-.308.24-.305.24-.306.24-.304.24-.304.24-.302.24-.3.244-.302.24-.298.242-.3.243-.297.24-.298.244-.298.244-.295.24-.297.245-.295.243-.293.244-.294.246-.29.245-.29.247-.29.248-.29.246-.29.25-.287.246-.287.247-.285.247-.285.248-.285.248-.284.248-.28.25-.283.25-.28.247-.28.25-.28.25-.278.25-.28.253-.277.25-.275.25-.276.25-.272.25-.276.255-.27.25-.274.254-.272.25-.27.253-.27.253-.27.255-.267.254-.266.256-.265.253-.53.51-.528.507-.526.51-.517.512-.518.512-.513.513-.51.515-.507.514-.504.515-.503.517-.497.516-.495.52-.492.518-.488.52-.484.52-.48.522-.48.52-.473.524-.473.523-.468.525-.468.525-.462.524-.46.525-.454.527-.453.526-.45.527-.446.528-.443.53-.44.53-.435.53-.436.527-.43.532-.428.53-.423.53-.42.53-.42.532-.413.53-.41.533-.408.533-.405.532-.4.532-.4.533-.395.534-.39.534-.39.534-.384.535-.38.532-.38.536-.374.535-.373.535-.37.533-.367.536-.363.532-.36.534-.356.535-.353.535-.35.535-.347.535-.342.533-.34.536-.34.535-.332.533-.33.535-.328.532-.325.534-.323.534-.317.533-.317.535-.31.534-.31.533-.305.533-.302.53-.3.533-.296.53-.293.53-.29.53-.263.487-.26.484-.258.484-.257.485-.256.482-.252.484-.25.48-.25.485-.245.48-.244.483-.243.48-.24.48-.238.48-.236.48-.235.48-.233.48-.23.48-.23.48-.227.474-.223.48-.224.475-.22.476-.218.473-.217.477-.213.472-.213.473-.21.473-.21.473-.206.474-.206.47-.202.472-.203.47-.2.47-.2.47-.195.467-.194.468-.19.468-.193.465-.19.466-.187.465-.187.462-.184.462-.184.462-.18.46-.18.46-.176.46-.176.46-.174.46-.172.457-.17.455-.17.456-.166.454-.165.453-.164.453-.162.452-.16.45-.16.45-.155.45-.157.448-.154.447-.15.448-.153.444-.15.444-.15.443-.144.44-.145.44-.14.44-.143.44-.14.44-.138.433-.137.435-.134.437-.135.433-.132.43-.132.432-.13.43-.127.427-.126.426-.125.425-.125.425-.123.423-.122.42-.118.42-.12.42-.116.42-.116.415-.114.415-.113.413-.112.414-.11.41-.11.41-.104.407-.107.407-.104.406-.106.404-.1.4-.1.4-.1.402-.098.397-.098.395-.095.396-.095.392-.093.393-.093.39-.09.387-.09.39-.09.384-.086.386-.086.38-.084.38-.085.38-.082.376-.08.376-.08.373-.08.37-.077.375-.077.367-.076.366-.15.73-.142.72-.14.712-.133.707-.13.7-.127.69-.122.682-.118.674-.114.667-.11.66-.104.653-.104.64-.1.635-.093.627-.095.618-.09.61-.085.6-.08.59-.08.585-.076.573-.073.565-.07.554-.065.545-.06.537-.063.525-.057.517-.055.506-.05.497-.05.487-.048.48-.044.465-.043.454-.04.445-.038.436-.035.423-.035.414-.03.405-.03.39-.027.38-.023.37-.025.36-.022.347-.02.335-.018.326-.017.313-.015.3-.014.29-.014.277-.01.263-.02.495-.015.444-.006.2.204.106.384.204.385.2.386.2.384.2.383.2.384.195.386.196.384.197.384.19.382.193.384.19.382.19.384.187.385.19.385.184.383.186.384.185.383.183.384.18.38.18.383.18.383.177.384.18.382.173.382.174.382.174.383.174.38.17.38.17.383.17.382.166.382.166.382.164.38.163.38.164.382.16.382.16.38.16.382.16.38.156.382.157.38.155.38.155.38.153.38.15.38.15.38.15.38.15.38.146.38.15.38.142.38.144.38.143.38.143.38.14.378.14.38.14.376.137.38.138.378.137.38.134.377.134.377.132.378.133.38.13.376.13.38.127.376.127.38.128.376.126.377.122.376.122.377.122.376.122.376.12.375.12.378.117.374.117.376.114.375.116.375.115.374.112.373.11.374.11.374.11.376.11.374.11.375.107.373.106.376.105.373.106.373.104.373.1.37.103.374.1.375.1.37.098.374.1.37.095.373.095.37.095.372.094.373.092.37.09.37.09.37.092.373.087.37.09.37.085.37.088.37.084.37.084.368.086.37.08.368.083.37.08.367.08.367.08.368.077.368.078.366.076.366.077.367.073.366.074.366.074.366.07.366.075.367.07.365.07.365.067.365.068.364.066.365.066.364.067.363.063.364.065.363.063.363.062.363.06.36.06.364.06.36.06.363.054.36.056.362.057.36.055.362.056.36.052.36.05.36.052.36.052.36.05.36.05.357.048.357.046.36.048.357.047.357.044.357.044.356.043.356.044.354.042.712.082.71.08.71.075.708.07.706.07.705.066.703.063.703.06.7.058.7.056.7.05.7.05.695.046.694.04.692.04.69.04.69.035.69.03.688.03.685.028.685.024.683.02.68.02.68.014.68.015.678.01.675.01.673.003.673.003h.67l.67-.003.667-.004.666-.008.664-.01.663-.01.66-.015.656-.017.658-.02.656-.02.653-.023.65-.026.65-.03.65-.027.646-.033.642-.035.643-.038.642-.038.637-.043.638-.043.635-.045.633-.05.632-.05.63-.05.627-.054.624-.056.625-.057.62-.06.62-.06.618-.064.616-.065.614-.066.61-.07.612-.07.606-.073.605-.075.606-.075.602-.078.6-.08.596-.08.596-.084.592-.084.59-.087.59-.09.585-.088.584-.09.58-.094.58-.094.58-.095.576-.097.573-.098.57-.1.568-.1.566-.103.562-.104.56-.104.56-.108.558-.107.554-.11.55-.108.55-.112.546-.114.544-.113.542-.114.54-.117.536-.116.533-.12.53-.117.53-.12.526-.12.526-.124.52-.124.52-.126.515-.124.516-.126.51-.127.51-.128.506-.13.502-.13.5-.13.498-.13.497-.134.49-.133.49-.134.487-.134.483-.137.482-.136.475-.136.474-.137.472-.137.47-.137.466-.14.465-.14.46-.14.46-.14.454-.14.452-.14.45-.146.445-.143.443-.142.44-.143.44-.144.435-.144.432-.143.428-.144.425-.146.423-.146.42-.144.417-.145.41-.146.41-.146.408-.146.402-.146.4-.146.398-.146.394-.146.39-.146.387-.146.385-.147.38-.145.38-.147.372-.148.37-.146.37-.147.364-.145.36-.146.36-.146.354-.145.35-.144.35-.144.342-.142.34-.145.338-.144.333-.145.332-.143.326-.14.322-.142.32-.14.317-.142.313-.14.31-.14.304-.14.302-.14.296-.14.19-.086.187-.09.185-.09.184-.086.183-.087.18-.09.177-.087.176-.09.174-.088.17-.088.342-.175.33-.175.326-.174.316-.173.31-.172.305-.17.297-.17.29-.17.284-.17.276-.166.27-.168.264-.164.257-.164.25-.16.243-.16.234-.157.23-.155.225-.153.216-.15.21-.15.206-.146.197-.144.19-.144.188-.14.18-.135.17-.133.168-.13.162-.128.155-.127.147-.123.142-.118.137-.116.13-.112.126-.108.12-.105.113-.1.107-.1.103-.093.098-.09.09-.086.087-.08.08-.077.07-.07.138-.135.11-.115.092-.095.07-.075.05-.055.028-.03.028-.033 3.794 3.257-.052.06-.07.083-.09.102-.116.12-.134.14-.157.16-.176.177-.103.097-.103.1-.11.104-.116.106-.12.114-.128.114-.133.12-.14.124-.144.127-.15.13-.157.134-.164.136-.17.143-.176.142-.182.146-.187.15-.194.152-.2.155-.207.157-.213.16-.22.165-.23.164-.23.167-.24.17-.248.17-.253.175-.26.177-.268.177-.272.18-.28.18-.287.182-.294.183-.3.185-.31.186-.315.187-.322.19-.328.19-.336.19-.346.19-.35.19-.357.193-.367.192-.37.19-.19.097-.19.095-.194.097-.194.096-.197.096-.197.098-.2.097-.204.097-.203.096-.203.095-.314.145-.315.145-.32.146-.323.146-.325.146-.33.147-.334.146-.338.146-.34.15-.343.148-.35.148-.35.15-.352.15-.36.15-.36.15-.363.15-.37.148-.368.153-.377.15-.376.15-.38.152-.388.15-.386.15-.39.153-.395.15-.397.15-.4.15-.405.154-.408.15-.41.15-.412.152-.416.15-.42.15-.423.15-.426.15-.43.15-.43.15-.436.15-.44.148-.44.15-.446.147-.448.15-.45.145-.454.148-.456.146-.46.147-.462.145-.465.146-.47.144-.47.144-.475.144-.477.143-.48.142-.484.142-.484.14-.49.14-.49.14-.497.14-.5.14-.5.14-.503.136-.505.135-.51.137-.51.137-.515.134-.517.136-.52.132-.523.13-.525.13-.528.13-.53.13-.533.128-.533.125-.54.126-.54.124-.543.125-.548.122-.55.123-.55.118-.555.122-.554.117-.56.116-.56.115-.564.116-.565.113-.57.112-.57.11-.573.11-.575.107-.58.106-.58.107-.584.104-.588.103-.586.1-.593.1-.593.096-.594.095-.597.095-.6.095-.604.09-.604.09-.604.09-.61.086-.61.087-.614.083-.615.08-.618.08-.62.078-.622.076-.625.074-.627.072-.628.07-.633.067-.63.067-.636.066-.634.063-.64.06-.64.06-.64.057-.646.055-.647.05-.65.053-.652.048-.652.047-.656.044-.656.042-.66.035-.66.038-.662.036-.664.033-.665.03-.668.03-.67.026-.67.024-.675.022-.675.02-.676.017-.68.015-.68.01-.684.01-.682.005-.686.005h-.688z" fill="#595959"/><path d="M319.62 280.656h-.425l-.425-.002-.424-.005-.42-.01-.423-.006-.42-.008-.42-.012-.417-.012-.417-.014-.42-.016-.413-.016-.414-.018-.413-.02-.41-.022-.41-.02-.407-.025-.406-.025-.405-.03-.405-.027-.4-.03-.404-.032-.4-.032-.398-.033-.396-.036-.398-.036-.394-.038-.395-.037-.39-.04-.39-.042-.388-.042-.387-.043-.385-.046-.384-.046-.38-.046-.38-.05-.38-.047-.377-.05-.376-.05-.37-.05-.373-.053-.37-.054-.368-.053-.37-.056-.364-.055-.363-.06-.36-.056-.36-.06-.36-.06-.355-.06-.356-.06-.35-.063-.353-.06-.346-.064-.347-.065-.344-.064-.343-.065-.34-.065-.34-.068-.337-.067-.333-.065-.332-.067-.33-.068-.33-.07-.326-.07-.324-.07-.322-.07-.32-.072-.318-.07-.315-.07-.312-.072-.313-.072-.31-.073-.306-.07-.304-.074-.303-.074-.597-.145-.587-.148-.58-.15-.567-.15-.56-.148-.55-.15-.538-.15-.53-.148-.52-.148-.508-.148-.5-.148-.487-.146-.476-.145-.466-.143-.454-.142-.444-.14-.432-.14-.42-.138-.41-.135-.397-.134-.383-.132-.373-.127-.362-.125-.35-.123-.335-.12-.325-.115-.31-.114-.3-.11-.286-.105-.273-.1-.26-.1-.245-.094-.232-.09-.22-.084-.396-.157-.338-.136-.285-.115-.225-.096-.165-.07-1.826-.787.267-2.468.07-.638.076-.633.076-.633.08-.626.08-.622.088-.62.086-.62.09-.612.092-.612.096-.607.098-.604.1-.6.104-.598.103-.595.108-.594.11-.587.11-.586.116-.58.116-.58.12-.575.12-.57.123-.57.124-.564.127-.563.13-.56.134-.555.132-.554.136-.55.14-.546.14-.543.144-.54.142-.537.147-.534.148-.532.15-.526.153-.525.153-.52.154-.52.16-.514.158-.513.162-.508.16-.505.165-.505.165-.498.17-.5.17-.494.17-.49.173-.488.175-.486.176-.48.176-.48.18-.476.18-.47.183-.47.183-.468.183-.466.188-.46.188-.457.19-.453.19-.452.192-.448.192-.445.194-.443.194-.44.198-.438.198-.434.2-.433.2-.428.2-.427.203-.42.202-.42.204-.42.205-.41.208-.413.21-.407.207-.405.21-.4.212-.4.21-.396.212-.393.21-.39.215-.39.214-.385.218-.38.216-.382.218-.375.218-.374.218-.37.22-.367.22-.366.22-.36.22-.36.223-.358.22-.355.226-.35.223-.35.223-.346.227-.343.222-.34.224-.338.224-.336.225-.332.226-.33.225-.327.228-.323.227-.32.228-.322.228-.316.228-.314.228-.31.23-.31.23-.304.225-.303.23-.3.227-.3.23-.295.23-.294.23-.29.226-.287.23-.285.226-.283.23-.28.226-.28.23-.274.225-.272.228-.27.227-.267.226-.265.226-.26.228-.26.224-.26.225-.254.225-.253.225-.25.224-.246.226-.245.22-.242.224-.24.222-.238.22-.236.223-.233.22-.23.22-.228.22-.226.218-.225.22-.22.22-.218.215-.215.215-.213.216-.212.213-.208.214-.207.21-.204.215-.203.21-.198.21-.197.21-.196.21-.194.205-.19.205-.188.205-.186.203-.184.203-.18.204-.18.2-.175.2-.174.2-.173.197-.17.198-.168.194-.166.195-.162.193-.16.192-.16.19-.157.19-.152.187-.153.184-.15.184-.15.183-.146.36-.283.356-.275.35-.267.342-.26.338-.25.33-.244.322-.236.316-.227.308-.216.3-.212.297-.2.284-.195.277-.188.27-.18.26-.17.253-.164.242-.156.234-.148.223-.14.216-.133.205-.128.196-.12.19-.11.176-.104.165-.097.158-.09.145-.08.14-.076.23-.13.192-.1.146-.078 1.414-.72 1.466.973.25.166.253.17.247.167.25.17.246.167.246.168.245.17.243.17.245.17.24.17.24.172.242.172.237.17.24.17.234.174.236.174.236.172.234.173.232.173.232.174.23.174.23.176.23.176.227.174.228.175.227.178.224.176.224.176.223.176.223.18.22.176.22.178.22.18.218.176.22.18.216.18.216.18.213.177.213.18.213.18.21.18.21.18.21.18.21.18.208.18.206.18.205.183.203.18.205.183.202.18.2.184.2.18.2.185.2.182.2.184.196.185.197.183.194.184.196.185.194.185.193.187.19.184.19.186.192.185.19.188.374.37.37.37.37.376.365.373.364.375.358.375.355.376.35.376.346.377.345.376.34.376.338.38.333.38.33.377.33.38.32.38.32.38.317.38.313.383.31.382.306.382.304.382.3.38.296.383.295.383.29.382.29.383.284.385.28.383.28.388.276.383.272.385.267.384.264.382.263.387.26.382.256.385.254.384.252.384.246.384.245.383.24.386.24.384.237.38.232.383.23.382.227.384.225.38.222.38.22.383.214.38.215.382.21.38.21.38.205.38.203.38.2.378.197.378.195.38.19.377.19.374.186.376.184.374.184.376.18.375.176.375.173.372.172.372.168.37.167.37.165.37.162.37.157.37.16.365.154.366.15.368.15.366.148.363.144.363.145.36.14.36.14.36.137.36.134.358.13.356.132.355.126.353.125.353.125.353.12.35.12.35.12.347.114.35.11.345.113.346.108.343.11.343.104.34.104.34.1.338.1.34.098.333.097.334.094.33.092.33.09.33.087.33.088.326.084.323.084.323.082.32.08.32.08.317.073.318.074.312.074.313.07.31.07.31.07.308.066.306.067.303.065.303.06.3.06.297.06.297.06.296.055.29.054.29.054.29.052.286.052.282.05.282.048.28.048.277.045.278.042.273.043.273.043.27.04.268.04.265.04.263.038.26.036.258.034.256.033.252.035.25.03.25.06.49.057.48.054.47.047.46.045.45.043.44.038.428.033.42.03.406.03.396.025.385.023.374.02.36.016.355.015.337.01.327.01.314.01.303.007.29.005.275.004.263.003.25v.658l-.003.196-.003.18-.003.17-.006.29-.008.234-.008.177-.084 1.59-1.527.765-.226.11-.225.114-.226.11-.225.11-.227.11-.227.106-.226.106-.228.107-.228.103-.225.103-.228.105-.227.1-.227.104-.23.102-.226.1-.227.097-.227.098-.228.1-.23.096-.226.096-.226.095-.23.096-.227.093-.23.09-.227.093-.23.09-.227.09-.23.09-.23.087-.453.175-.457.17-.458.17-.457.162-.458.162-.46.157-.457.155-.457.153-.457.15-.457.147-.458.14-.46.144-.456.137-.457.135-.46.13-.457.13-.456.125-.46.122-.457.12-.457.115-.458.114-.456.11-.458.108-.458.106-.456.103-.455.1-.456.095-.455.096-.456.094-.455.087-.453.087-.452.085-.454.08-.45.08-.454.074-.453.074-.45.073-.452.068-.45.07-.45.063-.45.062-.45.06-.45.055-.444.054-.447.054-.447.05-.446.048-.445.044-.444.043-.443.04-.443.04-.444.037-.442.034-.44.034-.44.03-.44.028-.438.028-.44.024-.436.022-.437.018-.434.02-.434.014-.433.016-.435.012-.43.01-.432.01-.43.006-.428.005-.427.006-.426.003zm-.006-5h.407l.41-.005h.407l.41-.006.408-.008.41-.01.412-.012.41-.014.414-.016.413-.017.416-.018.413-.02.415-.027.416-.024.418-.03.42-.03.418-.03.418-.033.42-.034.42-.035.42-.04.42-.04.42-.046.424-.044.42-.047.423-.047.424-.052.422-.054.425-.055.423-.057.425-.06.427-.064.425-.065.426-.067.427-.07.427-.07.427-.078.43-.074.426-.078.428-.083.427-.085.43-.086.43-.09.426-.092.43-.093.428-.097.427-.1.43-.103.43-.103.43-.107.426-.11.43-.113.43-.114.428-.117.43-.12.43-.124.43-.127.428-.127.43-.13.43-.135.43-.136.43-.14.426-.143.428-.143.43-.145.427-.152.43-.154.426-.158.43-.16.427-.163.21-.08.214-.087.213-.083.213-.084.214-.087.213-.087.214-.09.215-.09.212-.085.213-.09.212-.09.212-.092.213-.09.212-.094.21-.095.213-.095.213-.093.21-.096.21-.097.212-.097.212-.098.21-.1.213-.1.136-.063v-.316l-.003-.225v-.24l-.006-.25-.005-.265-.01-.276-.01-.29-.01-.3-.015-.314-.015-.324-.02-.335-.02-.346-.023-.36-.026-.366-.028-.38-.03-.39-.037-.4-.037-.41-.04-.423-.046-.43-.046-.44-.053-.45-.056-.46-.03-.233-.03-.236-.03-.237-.03-.24-.037-.244-.034-.245-.037-.246-.038-.25-.038-.25-.04-.255-.04-.256-.042-.257-.043-.26-.045-.262-.046-.262-.046-.267-.048-.265-.05-.27-.05-.272-.055-.274-.052-.276-.054-.277-.056-.28-.058-.28-.058-.283-.06-.284-.063-.29-.063-.29-.063-.287-.068-.292-.068-.29-.07-.296-.07-.298-.073-.297-.075-.3-.076-.3-.078-.303-.08-.305-.08-.305-.08-.308-.086-.31-.085-.31-.087-.314-.09-.313-.09-.314-.092-.317-.093-.318-.096-.318-.1-.32-.096-.323-.1-.32-.103-.326-.108-.325-.108-.326-.108-.327-.11-.33-.114-.33-.115-.33-.116-.332-.12-.332-.12-.334-.12-.337-.125-.337-.128-.337-.13-.337-.13-.34-.132-.34-.136-.342-.138-.34-.14-.344-.14-.345-.145-.343-.147-.345-.147-.345-.15-.348-.152-.35-.153-.347-.157-.35-.16-.35-.162-.35-.163-.353-.168-.35-.17-.354-.172-.352-.173-.355-.176-.357-.18-.354-.18-.357-.18-.357-.187-.355-.19-.355-.19-.358-.194-.358-.196-.358-.197-.358-.202-.36-.202-.36-.207-.36-.207-.36-.212-.36-.212-.36-.217-.36-.22-.36-.22-.36-.226-.36-.227-.363-.23-.36-.233-.36-.235-.365-.24-.36-.24-.362-.244-.364-.248-.36-.25-.363-.254-.363-.257-.36-.26-.363-.262-.362-.263-.36-.267-.364-.272-.36-.274-.36-.277-.36-.28-.36-.282-.363-.286-.36-.29-.36-.292-.36-.294-.358-.3-.36-.3-.36-.307-.357-.307-.357-.31-.36-.316-.357-.318-.357-.32-.358-.326-.356-.328-.355-.33-.355-.338-.353-.337-.354-.34-.352-.346-.35-.348-.353-.35-.352-.357-.352-.178-.174-.18-.177-.18-.175-.18-.174-.184-.175-.185-.174-.185-.174-.184-.174-.185-.175-.187-.173-.188-.17-.19-.176-.19-.172-.19-.172-.19-.174-.192-.172-.194-.172-.193-.172-.196-.172-.193-.173-.198-.17-.197-.17-.2-.17-.2-.17-.2-.173-.2-.17-.204-.17-.204-.17-.202-.17-.205-.168-.21-.17-.205-.17-.21-.17-.207-.165-.21-.17-.21-.168-.212-.167-.212-.166-.213-.17-.214-.167-.215-.164-.214-.168-.218-.17-.218-.164-.22-.165-.22-.164-.22-.166-.223-.165-.223-.165-.223-.164-.224-.163-.228-.163-.225-.163-.23-.163-.228-.162-.23-.16-.233-.164-.232-.16-.232-.16-.233-.162-.17-.115-.1.056-.174.104-.18.11-.193.12-.2.124-.21.135-.22.14-.23.147-.236.155-.243.163-.253.17-.263.178-.267.184-.278.194-.282.2-.29.21-.298.216-.304.225-.31.233-.32.24-.322.247-.33.26-.337.265-.167.135-.172.136-.173.14-.174.14-.175.146-.176.148-.18.148-.18.15-.18.152-.182.154-.182.157-.183.157-.185.162-.188.16-.187.165-.19.166-.19.17-.19.172-.192.174-.192.176-.194.177-.194.18-.197.183-.196.184-.198.186-.2.19-.2.19-.2.195-.2.196-.2.196-.204.2-.204.203-.206.203-.205.208-.205.21-.207.21-.206.214-.206.217-.21.22-.207.22-.207.224-.21.225-.21.226-.21.23-.214.232-.21.236-.214.235-.21.24-.216.24-.212.246-.214.248-.212.248-.212.253-.215.25-.213.256-.216.26-.214.26-.214.266-.216.266-.214.268-.215.272-.214.273-.216.275-.215.278-.216.28-.215.285-.216.284-.215.29-.216.29-.215.293-.216.295-.213.3-.214.3-.215.304-.213.305-.212.31-.214.31-.21.314-.214.316-.213.32-.213.323-.212.323-.21.326-.21.33-.21.33-.213.337-.21.34-.21.34-.207.342-.21.346-.206.346-.21.35-.204.353-.206.355-.205.36-.206.36-.202.365-.202.366-.2.37-.2.375-.2.375-.2.377-.2.38-.198.384-.197.39-.196.39-.196.39-.195.394-.192.397-.192.4-.19.406-.19.406-.19.41-.187.41-.187.416-.185.416-.184.42-.184.424-.184.427-.18.43-.18.43-.178.437-.178.436-.177.44-.174.445-.174.448-.172.45-.17.453-.17.455-.166.458-.168.46-.163.467-.163.467-.162.47-.16.474-.158.478-.157.478-.155.484-.155.485-.152.487-.15.493-.15.494-.145.496-.144.503-.145.5-.14.51-.14.51-.137.512-.136.516-.132.52-.133.523-.13.527-.128.528-.127.53-.127.538-.12.538-.12.542-.12.545-.114.548-.116.553-.112.555-.11.557-.107.56-.103.565-.103.57-.1.57-.098.572-.097.577-.094.58-.09.584-.09.588-.085.594-.084.593-.08.597-.08.6-.077.603-.07.582.1.04.23.086.243.092.258.096.27.1.283.104.294.108.31.11.32.115.33.115.347.12.356.122.368.124.38.13.39.13.403.13.413.133.425.136.435.136.447.14.456.137.47.14.475.142.49.14.497.143.51.143.517.143.527.145.538.143.547.143.556.143.565.143.576.14.29.072.292.07.296.07.295.07.3.068.3.07.303.068.304.07.308.066.31.068.31.067.314.065.315.067.315.064.32.066.322.064.322.064.323.063.326.065.33.062.33.063.334.06.334.062.337.06.34.06.34.056.34.057.344.057.344.056.35.057.346.055.35.055.352.053.353.052.356.05.356.05.358.05.36.05.362.047.363.045.36.046.367.046.367.044.37.04.37.042.37.042.373.04.374.037.374.04.378.036.38.034.38.034.38.034.382.03.383.03.386.03.385.028.387.026.39.025.387.022.39.022.39.02.396.02.395.016.394.015.397.017.4.013.397.012.4.01.4.01.4.004.405.006.402.005h.81z" fill="#595959"/><path fill="#595959" d="M315.574 146.23h5v53.906h-5zm-82.07 148.878l-2.296-4.442 44.58-23.044 2.294 4.442-44.58 23.044zm167.673-.015L355.54 270.72l2.355-4.413 45.638 24.374-2.356 4.416z"/><path d="M404.25 292.894l-5-.016v-.244l-.003-.318-.004-.205-.005-.232-.005-.268-.008-.3-.01-.33-.015-.36-.015-.39-.02-.42-.02-.446-.025-.476-.03-.504-.032-.532-.036-.555-.042-.587-.046-.613-.024-.314-.028-.323-.026-.328-.03-.337-.03-.34-.03-.348-.034-.355-.034-.362-.034-.366-.038-.372-.04-.378-.04-.386-.04-.39-.045-.396-.04-.403-.048-.41-.05-.414-.05-.42-.05-.425-.054-.43-.057-.436-.057-.442-.06-.445-.06-.453-.064-.458-.066-.463-.066-.47-.07-.473-.07-.48-.075-.482-.077-.49-.077-.494-.08-.5-.085-.505-.083-.51-.09-.515-.09-.52-.09-.523-.094-.53-.096-.533-.1-.538-.103-.54-.104-.548-.107-.55-.11-.556-.113-.56-.113-.567-.116-.566-.12-.573-.123-.576-.124-.58-.13-.586-.13-.59-.135-.59-.136-.597-.14-.6-.144-.605-.147-.608-.15-.613-.15-.616-.156-.62-.158-.62-.16-.628-.165-.63-.166-.635-.17-.636-.174-.64-.178-.645-.18-.646-.185-.65-.186-.655-.19-.657-.192-.66-.198-.66-.2-.668-.206-.667-.208-.67-.21-.676-.216-.676-.22-.677-.223-.683-.225-.683-.23-.686-.233-.687-.24-.692-.24-.694-.25-.698-.25-.7-.25-.7-.128-.352-.13-.352-.13-.352-.13-.353-.133-.354-.134-.355-.134-.354-.134-.356-.14-.356-.137-.356-.14-.356-.136-.358-.14-.358-.142-.358-.143-.358-.143-.36-.145-.36-.146-.358-.148-.362-.147-.36-.15-.362-.15-.36-.15-.363-.15-.366-.153-.364-.152-.362-.156-.366-.158-.364-.156-.364-.16-.365-.16-.364-.16-.365-.162-.365-.163-.367-.162-.366-.166-.366-.168-.367-.168-.368-.17-.368-.17-.37-.17-.367-.17-.37-.174-.37-.174-.37-.176-.37-.175-.37-.178-.37-.18-.37-.18-.372-.18-.37-.184-.373-.185-.37-.183-.373-.185-.373-.186-.37-.19-.375-.19-.374-.19-.372-.19-.374-.194-.376-.193-.373-.197-.375-.197-.373-.198-.374-.198-.377-.2-.374-.202-.375-.203-.374-.205-.375-.205-.374-.207-.377-.208-.375-.208-.375-.212-.376-.21-.374-.215-.377-.213-.378-.215-.377-.22-.378-.215-.376-.22-.376-.22-.377-.223-.376-.225-.376-.225-.376-.225-.378-.227-.377-.23-.38-.23-.376-.232-.375-.23-.378-.234-.38-.237-.375-.238-.378-.24-.376-.238-.378-.24-.378-.243-.377-.244-.375-.245-.377-.246-.375-.25-.376-.25-.378-.247-.38-.253-.376-.254-.377-.255-.375-.254-.376-.257-.38-.26-.377-.26-.377-.262-.376-.263-.378-.263-.375-.265-.377-.268-.375-.27-.377-.27-.375-.27-.374-.275-.377-.274-.374-.277-.376-.277-.373-.28-.374-.28-.376-.28-.372-.285-.374-.286-.374-.286-.374-.287-.374-.29-.373-.29-.374-.292-.372-.29-.37-.296-.374-.297-.37-.3-.37-.3-.373-.3-.372-.304-.37-.305-.37-.304-.37-.307-.37-.308-.37-.31-.37-.313-.37-.314-.37-.315-.367-.316-.37-.318-.368-.32-.366-.323-.37-.322-.366-.324-.365-.324-.368-.327-.366-.33-.367-.33-.364-.332-.365-.334-.365-.336-.362-.337-.365-.336-.364-.34-.365-.343-.362-.343-.36-.344-.364-.348-.36-.35-.36-.35-.36-.35-.36-.354-.36-.353-.36-.36-.358-.357-.358-.36-.36-.363-.355-.363-.358-.365-.356-.368-.356-.368-.353-.37-.355-.373-.353-.373-.357-.374-.353-.378-.352-.38-.35-.38-.352-.38-.35-.385-.35-.385-.35-.387-.35-.39-.348-.39-.348-.39-.348-.396-.346-.395-.346-.4-.346-.4-.344-.4-.344-.4-.344-.408-.342-.407-.343-.407-.342-.41-.34-.414-.34-.413-.34-.417-.34-.415-.337-.42-.338-.42-.338-.423-.335-.425-.336-.427-.333-.43-.334-.43-.333-.43-.333-.434-.332-.436-.33-.437-.33-.44-.33-.44-.33-.443-.328-.443-.327-.445-.327-.45-.326-.45-.325-.45-.324-.453-.324-.456-.322-.457-.322-.46-.322-.463-.32-.462-.32-.465-.318-.468-.318-.47-.317-.47-.315-.472-.315-.475-.315-.477-.313-.48-.313-.48-.314-.48-.31-.486-.312-.486-.308-.49-.31-.49-.305-.49-.307-.5-.307 2.632-4.252.502.312.506.314.5.316.504.316.5.316.496.318.497.32.492.32.49.32.49.323.488.324.487.326.484.325.48.325.48.327.48.327.475.328.476.33.472.33.47.33.47.332.464.333.465.334.462.335.46.333.46.336.46.337.452.337.454.338.45.34.45.34.448.34.446.34.443.343.442.345.44.344.436.344.437.347.436.346.433.35.43.346.43.35.43.347.424.35.423.35.422.35.42.353.42.353.414.352.414.354.412.354.41.354.41.358.408.353.406.36.404.356.4.358.402.36.397.357.4.363.393.36.394.36.392.362.387.36.39.363.383.362.386.363.38.365.38.366.38.362.378.367.376.365.375.367.372.368.37.367.37.37.366.368.368.37.363.37.363.37.357.37.36.372.356.37.356.373.352.373.353.374.35.373.348.373.348.375.346.374.345.373.342.377.34.376.338.376.337.377.335.377.333.377.332.378.33.38.33.38.328.376.325.38.325.38.322.38.32.38.32.38.318.38.317.382.314.38.315.382.31.38.31.382.31.382.306.383.307.38.303.383.302.384.302.383.3.384.297.384.297.383.295.386.293.385.292.385.29.385.288.385.287.386.286.387.283.387.284.386.28.385.28.387.278.386.278.385.274.387.272.387.272.386.27.387.27.387.266.388.267.388.265.387.263.387.262.39.26.386.258.387.258.39.256.386.256.385.254.39.253.388.25.39.25.387.247.39.246.386.244.39.244.39.243.386.24.39.24.386.235.388.236.39.238.387.233.39.234.386.232.388.23.39.228.387.227.387.226.39.226.39.223.385.222.386.22.387.22.385.216.387.217.387.214.385.215.387.21.385.21.386.21.386.21.387.207.384.208.387.204.384.202.386.203.384.202.384.2.384.197.384.198.383.196.382.196.384.192.383.193.382.192.384.19.382.188.38.19.382.185.382.186.382.186.382.182.38.18.38.18.38.18.38.178.38.177.38.177.377.173.378.175.38.172.378.17.378.17.38.167.375.17.377.164.375.167.375.164.378.164.373.16.378.16.375.16.375.157.373.16.373.155.373.156.372.156.372.153.37.152.37.15.37.15.37.148.37.146.37.146.365.146.368.144.368.142.37.143.365.14.365.14.366.138.365.138.365.14.364.135.36.133.364.133.362.133.36.132.364.26.72.255.72.252.713.248.712.245.71.24.707.234.706.232.702.228.7.224.697.22.694.217.69.214.69.21.686.208.682.203.68.2.676.196.672.19.67.19.667.187.665.18.66.18.657.177.654.17.65.17.646.164.643.163.64.157.632.156.634.153.628.147.623.147.62.145.617.14.613.135.61.135.603.132.6.127.596.125.59.122.59.12.583.116.58.115.572.112.57.11.566.107.56.104.557.1.55.1.55.1.543.09.535.094.535.09.527.085.522.085.518.08.514.08.507.08.502.076.5.075.49.07.49.07.48.07.477.063.472.062.465.062.46.058.455.06.45.054.443.05.437.053.434.05.425.05.42.046.415.045.408.043.405.04.395.04.39.04.386.035.38.037.37.032.367.033.36.03.353.03.348.03.34.027.335.026.33.045.632.043.61.037.58.034.553.03.525.026.497.023.468.02.44.016.41.013.38.012.348.008.32.01.288.004.26.004.226.003.35.003.22-.002.075z" fill="#595959"/></svg>